<svg width="173px" height="263px" viewBox="0 0 173 263" version="1.1" xml:space="preserve" xmlns="http://www.w3.org/2000/svg" xmlns:xlink="http://www.w3.org/1999/xlink">
  <defs/>
  <g>
    <title>giraffe-b</title>
    <desc>Created with Sketch.</desc>
    <g id="giraffe-b" stroke="none" stroke-width="1" fill="none" fill-rule="evenodd">
      <g id="Group" transform="translate(9.000000, 0.000000)">
        <path d="M9.43966027,258.473178 C9.43966027,258.473178 10.340537,260.987038 9.85752329,262.672936 L22.3776877,262.672936 L20.3415416,258.832836 C20.3415416,258.832836 17.1948384,258.327067 15.3736146,257.418181 C14.9572493,257.333511 10.684263,257.72389 9.43966027,258.473178" id="Fill-1" fill="#624B59"/>
        <path d="M36.0402356,159.552584 C36.0402356,159.552584 34.1036877,170.229934 30.6986283,178.191117 C27.2935689,186.152299 18.8149936,199.73314 18.8149936,199.73314 C18.8149936,199.73314 15.9214046,204.60351 15.7034868,208.630932 C15.4855689,212.658353 15.4151763,254.712128 15.4151763,254.712128 C15.4151763,254.712128 15.5334959,256.585348 16.1490575,257.053652 C16.7631215,257.521957 10.8516329,257.80294 8.32348676,258.833211 C8.32348676,258.833211 11.512126,239.820034 10.0720712,223.054721 C10.0720712,223.054721 9.17194338,214.437912 7.3297516,211.066117 C5.48755982,207.694322 5.62085662,208.537271 5.85000731,206.757712 C6.07915799,204.978154 21.4015507,183.624202 15.1553224,143.433157" id="Fill-3" fill="#DEBB9B"/>
        <path d="M9.83236164,246.149418 C9.81663562,246.369708 13.1310831,244.940067 13.6934758,243.628814 C14.2558685,242.31756 15.4517954,240.28699 15.4517954,240.28699 L15.4690192,235.334948 C15.4690192,235.334948 12.7723799,236.823033 11.8175854,237.759643 C10.8627909,238.696252 10.2412384,240.137133 10.2412384,240.137133 C10.2412384,240.137133 9.89526575,245.275748 9.83236164,246.149418" id="Fill-5" fill="#AF7444"/>
        <path d="M10.4364658,231.295387 C10.3990228,231.49245 12.5385114,231.264667 13.1982557,230.952963 C13.858,230.641259 15.498,228.62043 15.498,228.62043 C15.498,228.62043 15.1992055,225.958211 14.7064566,224.521826 C14.2137078,223.085442 13.3585114,222.148832 12.0659817,222.086641 C10.7734521,222.02445 10.0972329,223.352188 10.0972329,223.352188 C10.0972329,223.352188 10.6873333,229.984134 10.4364658,231.295387" id="Fill-7" fill="#AF7444"/>
        <path d="M9.38559269,218.2897 C9.57280731,218.2897 12.0163324,217.466233 12.3383416,216.779136 C12.6603507,216.092039 15.0507068,214.718595 15.229684,214.531273 C15.4079123,214.343951 15.6565333,210.160677 15.6565333,210.160677 C15.6565333,210.160677 14.0404968,209.535022 12.1848256,210.34725 C10.3299032,211.159478 8.39335525,213.854666 8.39335525,213.854666 L9.38559269,218.2897 Z" id="Fill-9" fill="#AF7444"/>
        <path d="M6.82741735,210.160977 C6.82741735,210.160977 8.24500639,210.160977 8.86955434,209.286558 C9.49485114,208.41214 12.6715087,204.728641 13.7685863,204.60351 C14.8656639,204.478379 16.5183945,204.79308 16.5183945,204.79308 C16.5183945,204.79308 17.8992895,200.920011 18.8151434,199.73314 C19.7302484,198.546268 18.8660658,195.549866 17.1069973,195.799379 C15.3464311,196.048892 14.1250429,196.610858 12.1622849,198.234564 C10.1987781,199.858271 8.9639105,200.527385 8.9639105,200.527385 C8.9639105,200.527385 6.1272347,206.008425 5.84940822,206.757712 C5.57233059,207.507 6.25753607,209.835786 6.82741735,210.160977" id="Fill-11" fill="#AF7444"/>
        <path d="M21.9538338,194.550316 C21.9538338,194.550316 17.3813041,194.176422 17.0615416,193.114681 C16.741779,192.05294 18.1616146,189.492624 18.815368,186.995248 C19.4683726,184.497872 19.7469479,181.999746 20.8080804,181.999746 C21.8692128,181.999746 23.9622721,182.561712 23.9622721,182.561712 C23.9622721,182.561712 25.5228932,183.185869 25.8628749,181.999746 C26.2028566,180.813624 28.5887196,175.755182 30.4091945,173.757581 C32.2296694,171.75998 32.559916,173.20086 32.559916,173.20086 C32.559916,173.20086 26.4447379,188.680396 21.9538338,194.550316" id="Fill-13" fill="#AF7444"/>
        <path d="M11.1220457,195.174473 C11.1220457,195.174473 14.6356895,193.739587 14.9756712,192.552715 C15.315653,191.365843 14.9434703,189.617006 16.2659543,186.308151 C17.5884384,182.999296 20.4004018,179.50237 18.6083836,179.877014 C16.8163653,180.251658 15.2909406,180.626302 15.2909406,180.626302 C15.2909406,180.626302 12.6983927,192.890644 11.1220457,195.174473" id="Fill-15" fill="#AF7444"/>
        <path d="M15.627253,177.749112 C15.627253,177.749112 19.9024858,178.628026 21.3103397,178.940479 C22.7189425,179.252932 23.6752347,180.188793 24.191947,179.189992 C24.7079105,178.191192 27.2982119,172.634474 28.6828511,170.636123 C30.0667416,168.637773 30.9855909,167.826294 30.6388694,167.077007 C30.2921479,166.327719 29.5103397,167.700414 29.487874,165.515491 C29.4654082,163.330568 29.1269242,163.204687 27.8613534,163.267628 C26.5950338,163.330568 20.3158557,166.951875 20.3158557,166.951875 C20.3158557,166.951875 20.1630886,167.264328 19.3078922,166.764554 C18.4526959,166.264779 18.1329333,166.701613 17.6177187,168.512642 C17.1025041,170.32367 16.2615361,171.447602 16.2615361,171.447602 L15.627253,177.749112 Z" id="Fill-17" fill="#AF7444"/>
        <path d="M17.6698393,156.368111 L20.6780037,157.835217 C20.6780037,157.835217 19.459611,158.397182 19.1638119,160.08308 C18.8680128,161.768977 20.8292731,162.518265 18.9062046,164.01684 L16.9831361,165.515416 C16.9831361,165.515416 16.3039215,157.648644 17.6698393,156.368111" id="Fill-19" fill="#AF7444"/>
        <path d="M21.7351671,164.828319 C21.6550393,164.685954 20.0524822,162.861439 20.9765735,160.941764 C21.9014137,159.021339 22.9910027,158.772575 24.1779434,157.21106 C25.3641352,155.649544 26.0852858,154.33904 28.1064548,153.651943 C30.1276237,152.964846 32.3689571,158.20986 32.3689571,158.20986 C32.3689571,158.20986 32.5187288,159.646245 31.6889936,160.582855 C30.8585096,161.519464 27.8054137,161.332142 25.7071123,162.643396 C23.6080621,163.95465 22.0384548,165.370054 21.7351671,164.828319" id="Fill-21" fill="#AF7444"/>
        <path d="M34.3085005,161.456524 C34.3085005,161.456524 31.7481534,161.683558 31.4224,163.255564 C31.0958977,164.828319 32.43261,164.95345 32.0484457,166.077382 C31.6642813,167.201313 30.1268749,170.822621 30.1268749,170.822621 C30.1268749,170.822621 30.4548749,172.945353 31.6245918,170.822621 C32.7950575,168.699889 33.7498521,167.326444 33.7498521,167.326444 C33.7498521,167.326444 36.6127379,160.596342 34.3085005,161.456524" id="Fill-23" fill="#AF7444"/>
        <path d="M36.0402356,159.552584 C36.0402356,159.552584 34.1036877,170.229934 30.6986283,178.191117 C27.2935689,186.152299 18.8149936,199.73314 18.8149936,199.73314 C18.8149936,199.73314 15.9214046,204.60351 15.7034868,208.630932 C15.4855689,212.658353 15.4151763,254.712128 15.4151763,254.712128 C15.4151763,254.712128 15.5334959,256.585348 16.1490575,257.053652 C16.7631215,257.521957 10.8516329,257.80294 8.32348676,258.833211 C8.32348676,258.833211 11.512126,239.820034 10.0720712,223.054721 C10.0720712,223.054721 9.17194338,214.437912 7.3297516,211.066117 C5.48755982,207.694322 5.62085662,208.537271 5.85000731,206.757712 C6.07915799,204.978154 18.8134959,188.306501 16.0786648,156.368111" id="Stroke-25" stroke="#533D37" stroke-width="0.5625"/>
        <path d="M107.355448,247.417512 L105.880197,249.874427 L116.321531,256.812831 L116.321531,251.588048 L113.439923,248.686056 C113.439923,248.686056 107.929074,247.179988 107.946298,246.525111 C107.963521,245.870233 107.355448,247.417512 107.355448,247.417512" id="Fill-27" fill="#624B59"/>
        <path d="M62.4327781,150.794534 C62.4327781,150.794534 80.4053808,160.722597 93.1472073,174.588167 C109.5195,192.404731 107.6496,196.387195 108.101911,201.45238 C108.552723,206.490591 110.152285,208.198218 109.614605,219.07338 C109.018513,231.124175 106.524815,240.904628 106.861801,243.144249 C107.134385,244.129563 107.556742,245.881397 107.925929,246.609705 C108.756413,248.247648 114.47844,248.857568 114.47844,248.857568 C113.948997,247.966665 116.818623,244.305645 116.432212,242.523839 C116.023335,240.637882 116.000869,238.278375 115.696084,220.571207 C115.383061,202.401728 119.137837,205.273748 118.761911,196.043272 C118.627865,192.754648 117.672321,191.567776 115.989637,189.436802 C114.594513,187.67148 109.614605,181.358731 105.200833,172.304338 C92.8514082,146.968671 93.8196822,124.663124 93.8196822,124.663124" id="Fill-29" fill="#DEBB9B"/>
        <path d="M107.453474,245.588201 C107.458716,245.346181 115.854168,243.751697 115.690168,241.732366 C115.527666,239.712287 115.502205,238.169503 115.942533,236.865742 C116.382862,235.562731 115.696908,230.624175 115.696908,230.624175 C115.696908,230.624175 108.791684,234.193782 107.782223,235.505036 C106.772762,236.81554 110.391246,239.701047 110.910205,240.962099 C111.429163,242.22315 107.453474,245.588201 107.453474,245.588201" id="Fill-31" fill="#AF7444"/>
        <path d="M115.696758,226.493052 C115.696758,226.493052 110.765525,230.125599 109.291023,230.249981 C107.90189,230.36687 111.599005,227.674679 110.453251,225.31742 C109.307498,222.960161 109.803991,220.68907 110.70337,219.260927 C111.603498,217.832785 113.823114,218.690719 113.823114,218.690719 C113.823114,218.690719 115.132868,225.584166 115.696758,226.493052" id="Fill-33" fill="#AF7444"/>
        <path d="M115.696758,214.639845 C115.696758,214.639845 114.443918,216.289776 113.397763,215.763776 C112.350858,215.238526 109.335205,214.391081 109.646731,211.138423 C109.970237,207.766628 108.882895,206.761084 108.776557,205.014494 C108.66947,203.268654 108.399132,200.091674 109.291023,200.65289 C113.918219,203.563873 117.582384,202.14697 118.087863,202.384494 C118.592594,202.621269 113.722018,208.169745 114.697032,209.707283 C115.672795,211.244822 115.696758,214.639845 115.696758,214.639845" id="Fill-35" fill="#AF7444"/>
        <path d="M118.761686,196.043047 C118.761686,196.043047 113.408846,200.554509 111.44459,199.241757 C109.479585,197.929754 107.899494,196.446164 107.207549,194.764762 C106.516353,193.083361 106.98364,192.939497 107.537795,191.625996 C108.091202,190.313993 110.078672,185.732848 110.453101,185.542529 C112.884645,184.306953 110.816298,186.279079 112.335732,188.102096 C113.854416,189.925113 117.216791,190.194856 117.821868,191.866517 C118.425448,193.537429 119.245448,194.943842 118.761686,196.043047" id="Fill-37" fill="#AF7444"/>
        <path d="M105.056977,190.374311 C105.056977,190.374311 109.121781,185.677775 109.170457,184.127499 C109.219881,182.577972 110.235333,182.250533 109.019936,181.620382 C107.806037,180.989482 105.465854,179.337302 104.230986,178.880986 C102.996868,178.425419 103.10695,177.860456 102.489142,178.588015 C101.870584,179.314824 98.6100548,179.933735 98.5134521,180.700257 C98.4168493,181.465279 102.009123,185.152525 103.014091,186.98753 C103.976374,188.743111 104.201781,188.689163 105.056977,190.374311" id="Fill-39" fill="#AF7444"/>
        <path d="M109.277319,179.767993 C109.062396,179.698309 97.303821,176.06801 96.9114192,174.865403 C96.5190174,173.664295 100.437045,172.968207 101.746049,172.410736 C103.055054,171.853266 104.653867,171.105477 104.653867,171.105477 C104.653867,171.105477 106.228716,174.284705 107.060698,175.43711 C107.891182,176.590264 109.277319,179.767993 109.277319,179.767993" id="Fill-41" fill="#AF7444"/>
        <path d="M91.803905,173.05947 C91.803905,173.05947 99.972453,172.381364 101.433476,170.907515 C102.894499,169.432917 103.606663,168.702362 103.606663,168.702362 L102.48038,165.995185 C102.48038,165.995185 97.9400511,162.527481 94.7461699,163.381669 C91.5515397,164.236607 87.8020055,165.922504 88.7365808,167.809211 C89.6704073,169.697416 91.803905,173.05947 91.803905,173.05947" id="Fill-43" fill="#AF7444"/>
        <path d="M98.0222009,161.658457 C98.0124658,161.659956 92.5974703,160.192101 86.240411,165.87395 C85.5619452,166.480124 83.1056895,160.272275 82.3643196,158.630585 C81.6244475,156.988147 82.0939817,154.720053 81.1856164,153.448511 C80.2765023,152.17697 84.875242,151.05154 85.2848676,149.454808 C85.6937443,147.857326 86.8522283,144.79199 86.6717534,144.060685 C86.4912785,143.327882 85.8794612,142.855081 87.8392237,144.330429 C89.7997352,145.805027 91.3970502,144.303454 91.7257991,146.431432 C92.0537991,148.559409 96.572411,154.014973 97.7226575,155.571244 C98.873653,157.129013 99.5011963,161.435919 98.0222009,161.658457" id="Fill-45" fill="#AF7444"/>
        <path d="M93.8219288,128.596135 C93.7133443,128.760979 85.9791342,137.443725 85.2894356,138.786449 C84.599737,140.128423 84.3346411,142.008386 86.2734356,142.147004 C88.2122301,142.284873 89.8312621,142.119281 90.6647416,142.972719 C91.4974721,143.825409 93.3486502,147.180719 93.9155361,146.892244 C94.4831708,146.602269 96.423463,144.490027 95.1556457,141.274084 C93.8878283,138.05889 93.8219288,128.596135 93.8219288,128.596135" id="Fill-47" fill="#AF7444"/>
        <path d="M73.6378721,157.718103 C73.718,157.41614 83.9751142,147.464849 84.3547854,146.448815 C84.7329589,145.432781 85.5574521,144.462453 84.4229315,143.52959 C83.288411,142.596727 82.0677717,144.676 80.0376164,143.415698 C78.0089589,142.155396 78.4747489,141.708821 77.7985297,141.925365 C77.1215616,142.140411 68.3763927,145.578892 69.2660365,146.705072 C70.1564292,147.832 73.6378721,157.718103 73.6378721,157.718103" id="Fill-49" fill="#AF7444"/>
        <path d="M77.4969644,139.695709 C77.6564712,139.888276 79.7450374,142.613436 80.8338776,141.990778 C81.9219689,141.369618 82.8011288,141.072151 83.593421,138.854259 C84.3857132,136.634869 84.3288,136.840174 85.4782977,135.135544 C86.6270466,133.430165 87.0029735,132.496553 87.3871379,131.874644 C87.7705534,131.252735 87.667211,130.618088 86.9400694,129.999926 C86.2129279,129.381014 86.1425352,128.083248 84.8447635,130.065114 C83.5462429,132.04698 84.8574941,134.193689 82.9344256,134.838826 C81.0106082,135.483214 81.4232292,133.48786 79.0313753,135.696011 C76.6402703,137.904912 76.9772566,139.068556 77.4969644,139.695709" id="Fill-51" fill="#AF7444"/>
        <path d="M62.4327781,150.794534 C62.4327781,150.794534 81.2036639,160.796027 92.7398283,174.116115 C105.24876,188.560135 107.925929,194.017198 107.925929,199.07489 C107.925929,204.649591 110.266111,203.806642 109.614605,220.103651 C109.236431,229.567155 106.524815,240.904628 106.861801,243.144249 C107.134385,244.129563 107.323098,245.766756 107.925929,246.609705 C108.993801,248.103036 114.47844,248.857568 114.47844,248.857568 C113.948997,247.966665 116.868796,244.089101 116.432212,241.27103 C116.137911,239.364093 115.695335,238.72495 115.695335,221.014785 C115.695335,209.307164 117.158605,205.66113 118.035518,202.682711 C118.964851,199.525962 119.066696,193.333098 117.384011,191.202873 C115.989637,189.436802 108.605892,180.225058 102.480979,165.995335 C92.7398283,143.366095 93.8196822,124.663124 93.8196822,124.663124" id="Stroke-53" stroke="#533D37" stroke-width="0.5625"/>
        <g id="Group-58" transform="translate(5.242009, 136.043681)">
          <path d="M9.08867032,0.249512821 C9.08867032,0.249512821 11.508232,33.4054957 0.400414612,39.5871197 C0.400414612,39.5871197 12.9437936,31.7195983 10.8904237,7.33627635" id="Fill-55" fill="#AF7444"/>
          <path d="M9.08867032,0.249512821 C9.08867032,0.249512821 11.508232,33.4054957 0.400414612,39.5871197 C0.400414612,39.5871197 12.9437936,31.7195983 10.8904237,7.33627635" id="Stroke-57" stroke="#533D37" stroke-width="0.5625"/>
        </g>
        <path d="M1.61101918,172.095062 C1.61101918,172.095062 1.86038904,176.528597 5.9791105,175.466856" id="Stroke-59" stroke="#533D37" stroke-width="0.5625"/>
        <path d="M0.0884401826,174.569809 C0.275654795,174.632 3.64252237,177.313701 5.64272329,175.630801" id="Stroke-61" stroke="#533D37" stroke-width="0.5625"/>
        <path d="M0.0884401826,176.942054 C0.337810046,176.942054 4.14500639,178.502821 5.33044932,175.630801" id="Stroke-63" stroke="#533D37" stroke-width="0.5625"/>
        <path d="M2.58693151,178.40916 C2.77414612,178.284778 5.08287671,179.096256 5.76957991,175.630801" id="Stroke-65" stroke="#533D37" stroke-width="0.5625"/>
        <path d="M148.76792,13.2994829 C148.705764,12.4183205 149.027774,4.70740028 148.487847,4.58226923 C147.754714,4.4129302 145.554568,9.42116952 144.867865,10.7324231" id="Fill-67" fill="#FADAB9"/>
        <path d="M148.76792,13.32361 C148.705764,12.4424476 149.027774,4.73152735 148.487847,4.6063963 C147.754714,4.43705726 145.554568,9.44529658 144.867865,10.7565501" id="Stroke-69" stroke="#533D37" stroke-width="0.5625"/>
        <path d="M142.317777,8.93915271 C142.379932,8.84549174 142.51248,5.27963134 140.921156,2.10939487 L142.262362,2.95234359 L142.606088,1.39082792 L143.542161,2.35890769 L144.602544,1.04765413 C144.602544,1.04765413 143.885138,7.01048604 146.443987,11.1945088" id="Fill-71" fill="#FADAB9"/>
        <path d="M142.301752,8.93915271 C142.364656,8.84549174 142.496455,5.27963134 140.905131,2.10939487 L142.246336,2.95234359 L142.590062,1.39082792 L143.526135,2.35890769 L144.586519,1.04765413 C144.586519,1.04765413 143.869861,7.01048604 146.427962,11.1945088" id="Stroke-73" stroke="#533D37" stroke-width="0.5625"/>
        <path d="M135.684089,29.1450456 C135.684089,29.1450456 136.853806,31.034 139.685989,32.8210513 C142.517423,34.6088519 147.010574,36.2947493 153.656692,35.8886353 C153.656692,35.8886353 154.467706,38.8228462 156.527067,39.509943 C158.586427,40.1970399 161.457551,40.2592308 163.079578,39.509943 C163.516911,39.2604302 163.427048,39.0453846 162.705149,35.5761823 C161.894135,31.674641 155.466683,28.2091852 148.196016,12.0994986 C148.196016,12.0994986 145.794427,7.66596296 137.650592,9.9452963 C131.113058,11.3809316 123.670902,25.2892108 119.503505,31.4138889 C115.004363,38.0825499 100.814994,63.6085356 78.4428475,72.5063276 C78.4428475,72.5063276 73.8718155,74.5548803 70.3304639,75.4802507 C68.8252584,75.8728775 64.3238703,76.2879829 62.6861169,78.0203362 C61.0476146,79.7534387 55.2911397,86.4970285 54.0742447,87.7146211 C52.8573498,88.9322137 48.793295,93.5043675 44.3390849,97.0335128 C37.3649662,102.55951 28.9403087,104.151746 23.6518703,111.738285 C17.5509205,120.489966 13.7759251,126.536718 14.384747,138.899966 C14.9928201,151.263214 27.6874685,162.623915 39.7051489,161.706786 C56.273642,160.441989 77.6048749,142.226803 82.4529845,138.167162 C87.6987379,133.774838 98.11461,127.9229 97.1336055,120.683282 C96.384747,115.157285 95.6081808,110.268182 95.1873224,107.879453 C95.1873224,107.879453 94.0909936,104.198952 99.1457881,98.0173276 C99.1457881,98.0173276 109.786318,84.8426011 117.211998,70.4810028 C124.638427,56.1194046 131.799761,38.7381766 133.734062,34.8666068 C133.734062,34.8666068 136.518318,35.5919174 139.826774,32.9087179" id="Fill-75" fill="#FADAB9"/>
        <path d="M27.8719123,158.907897 C27.8719123,158.907897 25.6740128,155.213159 25.8612274,155.213159 C26.048442,155.213159 28.9817205,152.46627 28.7323507,149.281797 C28.482232,146.097324 30.1679123,145.971444 31.4155105,144.161165 C32.6638575,142.350885 34.909684,137.604897 34.8475288,143.599199 C34.7853735,149.593501 34.8490265,158.835216 34.8490265,158.835216 L27.8719123,158.907897 Z" id="Fill-77" fill="#AF7444"/>
        <path d="M40.714011,151.03011 C40.714011,151.03011 39.0290795,141.788395 39.2162941,141.726204 C39.4035087,141.664013 46.5176639,142.725754 46.5176639,142.725754 L45.2071616,151.03011 L40.714011,151.03011 Z" id="Fill-79" fill="#AF7444"/>
        <path d="M41.8372986,154.089527 C41.8372986,154.089527 46.3304493,153.590501 46.7670338,151.030185 C47.2043671,148.469869 47.3286776,144.849311 48.5770247,145.348336 C49.8253717,145.847362 52.8829607,147.034234 52.8829607,147.034234 C52.8829607,147.034234 56.2528237,145.347587 57.2510521,144.348786 C58.2500292,143.349986 58.1871251,147.783521 58.3743397,150.59335 C58.5615543,153.403179 52.0090429,157.025236 47.2665224,158.835516 C45.019947,159.584803 40.7978831,154.279846 41.8372986,154.089527" id="Fill-81" fill="#AF7444"/>
        <path d="M36.1583306,160.770851 C35.9142027,160.71915 36.1583306,145.847287 36.1583306,145.847287 L38.0304767,145.847287 C38.0304767,145.847287 40.0314265,157.198247 42.8598648,158.908122 C45.6875543,160.617247 38.2176913,161.207686 36.1583306,160.770851" id="Fill-83" fill="#AF7444"/>
        <path d="M26.6103854,146.659515 C26.4501297,146.774156 26.6103854,139.603472 26.6103854,139.603472 C26.6103854,139.603472 27.1720292,137.479991 26.1738009,136.855834 C25.1748237,136.231677 23.0533078,136.169486 23.8021662,134.483589 C24.5510247,132.797691 24.4267142,132.360107 26.3610155,131.236176 C28.2953169,130.112244 33.1628968,125.928971 33.1628968,125.928971 C33.1628968,125.928971 33.9117553,125.616518 35.2222575,129.300766 C36.5327598,132.985013 38.3757005,133.047954 36.0497461,135.607521 C33.7245406,138.167087 28.3574721,145.411201 26.6103854,146.659515" id="Fill-85" fill="#AF7444"/>
        <path d="M24.895874,148.561282 C25.3953626,148.37396 24.895874,140.068855 24.895874,140.068855 C24.895874,140.068855 25.4560201,138.944923 23.7403854,138.320766 C22.0254995,137.69661 20.9022119,136.947322 20.9022119,136.947322 L20.9022119,127.955869 C20.9022119,127.955869 20.6520932,127.644165 18.3433626,130.203732 C16.034632,132.763299 14.4777553,134.258877 14.4777553,134.258877 C14.4777553,134.258877 13.5978466,144.990177 18.6151982,150.481707 C19.4112347,151.278949 24.3963854,148.748604 24.895874,148.561282" id="Fill-87" fill="#AF7444"/>
        <path d="M22.4916639,131.985538 C22.4295087,131.798217 22.4916639,123.057026 22.4916639,123.057026 C22.4916639,123.057026 21.9300201,121.62139 23.3026776,119.685231 C24.676084,117.749071 28.7948055,111.443066 28.7948055,111.443066 C28.7948055,111.443066 29.7398648,109.644775 29.0441753,119.747422 C28.3484858,129.850068 28.7948055,126.491011 28.7948055,126.491011 C28.7948055,126.491011 28.1081023,128.114718 24.8632986,130.549903 C21.6177461,132.985088 22.4916639,131.985538 22.4916639,131.985538" id="Fill-89" fill="#AF7444"/>
        <path d="M31.1660658,122.557176 L31.1660658,110.068797 C31.1660658,110.068797 30.6141571,109.132187 37.1614265,105.885523 C43.7094447,102.63886 46.9542484,101.139535 46.9542484,102.388597 L46.9542484,114.876976 C46.9542484,114.876976 47.0171525,115.564073 44.2089333,116.937518 C41.4007142,118.310962 33.0382119,122.994011 33.0382119,122.994011 C33.0382119,122.994011 31.1660658,124.492586 31.1660658,122.557176" id="Fill-91" fill="#AF7444"/>
        <path d="M37.5313626,130.799341 C37.2467963,130.54833 35.4195817,127.426797 37.1614265,125.241874 C38.9040201,123.056951 41.6755452,120.184181 41.6755452,120.184181 C41.6755452,120.184181 42.5861571,118.435344 44.4583032,122.244723 C46.3304493,126.054102 48.8892986,130.799341 48.8892986,130.799341 C48.8892986,130.799341 50.511326,132.485238 48.8892986,134.358458 C47.2665224,136.231677 45.7066502,139.29027 45.7066502,139.29027 C45.7066502,139.29027 45.5186868,140.789595 42.4610977,140.227629 C39.4035087,139.665663 37.1614265,138.979315 37.1614265,138.979315 C37.1614265,138.979315 36.2927507,138.979315 37.1614265,137.730253 C38.0308511,136.48119 39.2013169,133.796492 39.2013169,133.796492 C39.2013169,133.796492 39.0912347,132.172785 37.5313626,130.799341" id="Fill-93" fill="#AF7444"/>
        <path d="M45.7688055,117.749071 L47.9532256,116.250496 L48.5770247,110.693778 C48.5770247,110.693778 48.4819196,109.632037 50.0275635,109.444715 C51.5724584,109.257393 54.3806776,108.757618 54.3806776,108.757618 C54.3806776,108.757618 55.6911799,108.571046 56.314979,110.693778 C56.9395269,112.81651 58.3788329,117.187105 58.3788329,117.187105 C58.3788329,117.187105 59.7469973,118.311786 57.4382667,120.059875 C55.1295361,121.807963 53.5067598,122.994085 53.5067598,122.994085 C53.5067598,122.994085 52.2284584,124.305339 52.2748877,125.054627 C52.3213169,125.803915 51.8847324,126.116368 51.0108146,126.491011 C50.1368968,126.865655 49.0765132,127.864456 48.5148694,126.491011 C47.9532256,125.117567 45.332221,119.060325 45.332221,119.060325 C45.332221,119.060325 44.9712712,118.296051 45.7688055,117.749071" id="Fill-95" fill="#AF7444"/>
        <path d="M49.61,106.260167 C49.625726,105.964199 49.3261826,101.950264 49.3261826,101.950264 C49.3261826,101.950264 49.3254338,100.827082 50.324411,100.7027 C51.3226393,100.578318 52.4459269,100.515378 52.5709863,99.7660903 C52.6960457,99.0168026 53.7564292,92.6478567 53.7564292,92.6478567 C53.7564292,92.6478567 53.694274,91.9607598 55.1298356,91.711247 C56.5646484,91.4617342 59.4357717,90.7124464 59.4357717,90.7124464 C59.4357717,90.7124464 61.0585479,90.2756117 60.746274,92.2110219 C60.434,94.1464322 60.7859635,102.513728 60.7859635,102.513728 C60.7859635,102.513728 61.0585479,103.824233 58.1252694,105.198426 C55.1919909,106.57262 49.4572329,109.069996 49.61,106.260167" id="Fill-97" fill="#AF7444"/>
        <path d="M41.4179379,99.1046191 C41.3864858,99.122602 42.2117279,102.014853 44.0217187,101.140434 C45.8309607,100.266015 50.8236,98.4549866 50.8236,98.4549866 C50.8236,98.4549866 51.6975178,98.0189011 51.7596731,96.0827416 C51.8218283,94.1465821 52.0157826,89.8801376 52.0157826,89.8801376 C52.0157826,89.8801376 45.2505954,96.8942202 41.4179379,99.1046191" id="Fill-99" fill="#AF7444"/>
        <path d="M38.592495,100.778078 C38.280221,100.521822 38.7894447,104.137135 37.1614265,104.886423 C35.5341571,105.635711 29.2999105,109.194828 29.2999105,109.194828 C29.2999105,109.194828 27.2442941,109.134885 26.5583397,108.390093 C25.8716365,107.645301 36.5331342,101.005862 38.592495,100.778078" id="Fill-101" fill="#AF7444"/>
        <path d="M24.0237534,111.718129 C24.0237534,111.718129 25.6847215,113.315611 25.1178356,114.002707 C24.5509498,114.689804 19.9334886,121.120941 19.3089406,124.243223 C18.6851416,127.365505 18.3107123,128.335833 17.3746393,127.943955 C16.4385662,127.552827 15.4470776,127.193169 15.4470776,127.193169 C15.4470776,127.193169 17.2533242,119.271699 24.0237534,111.718129" id="Fill-103" fill="#AF7444"/>
        <path d="M49.61,141.039182 C49.61,141.039182 47.8277169,139.353285 48.2650502,138.416675 C48.7016347,137.480066 51.1983288,133.733627 51.1983288,133.733627 C51.1983288,133.733627 51.9471872,132.704855 51.572758,132.188595 C51.1983288,131.673085 50.1993516,130.586618 50.94821,130.068111 C51.6970685,129.550353 53.2576895,128.026302 53.2576895,128.026302 C53.2576895,128.026302 54.2559178,127.677134 54.3809772,126.927846 C54.5052877,126.178558 53.7564292,124.930245 55.9408493,123.868504 C58.1252694,122.806764 59.1234977,122.244798 59.1234977,122.244798 C59.1234977,122.244798 59.4979269,122.557251 60.3718447,124.243148 C61.2450137,125.929046 61.5572877,126.553202 61.1207032,126.927846 C60.6833699,127.30249 60.3089406,130.175259 61.0577991,133.047279 C61.8066575,135.919299 61.6194429,135.357333 61.6194429,135.357333 C61.6194429,135.357333 61.7445023,136.418325 59.9974155,137.854709 C58.2495799,139.291094 54.1308584,143.849011 54.1308584,143.849011 C54.1308584,143.849011 52.958895,145.498194 52.0160822,144.205672 C51.0732694,142.912402 49.61,141.039182 49.61,141.039182" id="Fill-105" fill="#AF7444"/>
        <path d="M60.7924037,153.88677 L59.4354721,142.038283 C59.4354721,142.038283 58.6866137,140.039183 60.4337005,139.290644 C62.1807872,138.542106 67.1112712,137.04353 67.1112712,137.04353 C67.1112712,137.04353 69.170632,136.356434 68.6089881,139.978491 C68.0473443,143.599798 66.1751982,143.911502 65.9879836,145.847662 C65.8007689,147.783072 65.683947,150.854402 65.683947,150.854402" id="Fill-107" fill="#AF7444"/>
        <path d="M58.7813443,109.195127 C58.6697644,109.040774 57.7524128,107.758743 58.7813443,107.009455 C59.8102758,106.260167 61.7445772,105.260617 61.9317918,104.324008 C62.1190064,103.387398 61.6824219,100.140734 62.618495,100.140734 C63.554568,100.140734 69.7326502,113.378401 71.2303671,115.313811 C72.728084,117.249221 73.2268237,117.624615 72.4779653,118.436093 C71.7291068,119.247572 66.4249425,125.922227 66.4249425,125.922227 C66.4249425,125.922227 65.9876091,126.102805 65.36381,125.922227 C64.740011,125.741649 61.650221,122.886113 60.7927781,121.753939 C59.9345863,120.621016 59.8724311,120.497384 60.3090155,119.872478 C60.7463489,119.247572 63.8683397,116.25117 58.7813443,109.195127" id="Fill-109" fill="#AF7444"/>
        <path d="M65.5601607,96.3321046 C65.5601607,96.3321046 64.7581333,95.1452328 65.5601607,94.708398 C66.3621881,94.2715632 69.6698959,90.9619593 69.6698959,90.9619593 C69.6698959,90.9619593 69.4826813,84.1554293 70.3565991,83.8437256 C71.229768,83.5320219 74.6625352,87.0281986 74.6625352,87.0281986 C74.6625352,87.0281986 79.154937,87.2784607 79.4050557,87.2784607 C79.6544256,87.2784607 79.9045443,87.5909137 80.0288548,88.7770362 C80.1539142,89.9631587 81.1521425,95.5925575 81.1521425,95.5925575 C81.1521425,95.5925575 81.963905,96.7059991 79.3429005,97.8928709 C76.7218959,99.0797427 69.9821699,103.137885 69.9821699,103.137885 C69.9821699,103.137885 69.0453479,103.887173 68.172179,102.575919 C67.2982612,101.264666 65.5601607,96.3321046 65.5601607,96.3321046" id="Fill-111" fill="#AF7444"/>
        <path d="M53.0629114,88.7799584 C53.4448292,88.9642832 60.3717699,86.4032177 61.1206283,88.1520553 C61.8694868,89.9008929 62.3682265,93.2097476 62.3682265,93.2097476 C62.3682265,93.2097476 62.1188566,95.4576108 64.6777059,93.2097476 C67.2358064,90.9618843 68.1097242,90.2125966 68.1097242,90.2125966 C68.1097242,90.2125966 68.2969388,90.3369783 68.4219982,87.2154456 C68.5463087,84.0939128 69.3019068,83.5311977 68.7058155,82.3450752 C68.1097242,81.1589527 64.3691763,79.2138017 60.9978155,79.9053943" id="Fill-113" fill="#AF7444"/>
        <path d="M69.9194904,105.510879 C70.1463945,105.374509 75.7231434,102.201275 75.7231434,102.201275 C75.7231434,102.201275 76.7213717,101.264666 77.2830155,102.201275 C77.8446594,103.137885 78.4063032,105.510879 80.6528785,105.947714 C82.8994539,106.384549 84.0856457,106.38305 84.5222301,107.539201 C84.9588146,108.695352 85.0217187,114.064748 85.0217187,114.064748 C85.0217187,114.064748 85.2710886,115.12574 83.8355269,115.937968 C82.4007142,116.750196 81.2706868,117.973783 81.2706868,117.973783 C81.2706868,117.973783 80.0290795,118.436093 78.9057918,116.937518 C77.7825041,115.438942 77.9075635,114.627464 74.9742849,114.315011 C72.0410064,114.002558 73.3515087,114.315011 72.540495,113.627914 C71.7294813,112.940817 69.7944311,107.632862 69.5450612,106.946515 C69.2956913,106.260167 68.7707416,106.200974 69.9194904,105.510879" id="Fill-115" fill="#AF7444"/>
        <path d="M79.4674356,100.764966 C79.6441662,99.7938889 80.6528785,99.0798177 81.6518557,98.3927208 C82.650084,97.7056239 83.6483123,97.3939202 83.3367872,95.9575356 C83.0245132,94.521151 82.0262849,93.7089231 82.8372986,93.2720883 C83.6483123,92.8352536 88.453737,95.0823675 89.38981,95.8945954 C90.3258831,96.7068234 90.0136091,97.0065385 90.3258831,99.1045442 C90.6381571,101.20255 91.6985406,101.056439 92.1980292,101.784746 C92.6975178,102.513803 92.3852438,101.951838 91.6363854,103.075769 C90.8875269,104.199701 90.7003123,106.07292 89.5148694,106.135111 C88.3286776,106.197302 87.1140292,105.386573 85.0381936,105.698276 C82.962358,106.00998 83.3989425,106.00998 82.0262849,104.636536 C80.6528785,103.263091 79.0930064,102.825507 79.4674356,100.764966" id="Fill-117" fill="#AF7444"/>
        <path d="M65.5601607,76.9757541 C65.5601607,76.9757541 63.9913023,78.4735803 66.3621881,78.2240675 C68.7338228,77.9745547 69.6698959,77.4672869 71.2926721,78.2517912 C72.9146995,79.0362954 74.5374758,83.1169165 74.9740603,83.8242442 C75.4113936,84.5308225 75.8374941,85.6540048 77.1217863,84.7803353 C78.4068274,83.9066658 80.2168183,82.5954123 81.5894758,82.2207684 C82.9621333,81.8461245 82.5877041,82.28221 83.1493479,80.0972869 C83.7109918,77.9123638 84.5220055,77.975304 84.085421,76.6011103 C83.6488365,75.2269165 81.6374027,75.1782128 78.9475032,72.3054436" id="Fill-119" fill="#AF7444"/>
        <path d="M83.6486868,69.9365704 L85.9259653,74.9777783 C85.9259653,74.9777783 86.0203215,76.5385447 87.8924676,75.9765789 C89.7646137,75.4146131 91.7610703,74.8533966 93.0094174,74.9155875 C94.2577644,74.9777783 94.1948603,75.2280405 93.6332164,72.8550462 C93.0715726,70.4820519 91.8149881,64.7507499 91.8149881,64.7507499" id="Fill-121" fill="#AF7444"/>
        <path d="M82.4003397,87.5902393 C82.2835178,87.3699487 80.340979,84.9280199 82.4003397,83.8243191 C84.4597005,82.7198689 86.144632,81.4086154 86.8313352,80.0973618 C87.5172895,78.7861083 87.4551342,78.7239174 88.4533626,80.7844587 C89.4523397,82.845 91.1994265,85.7177692 91.2615817,86.7165698 C91.3244858,87.7153704 91.1372712,88.6519801 89.4523397,89.4012678 C87.7674082,90.1505556 84.2724858,91.8372023 83.2113534,91.5869402 C82.1509699,91.3366781 81.9008511,91.7113219 82.0259105,90.1505556 C82.1509699,88.5897892 83.0024219,88.729906 82.4003397,87.5902393" id="Fill-123" fill="#AF7444"/>
        <path d="M97.3775087,76.0984131 C97.3775087,76.0984131 93.2161023,75.2899316 91.2720658,76.4138632 C89.3272804,77.5377949 89.784084,77.9116895 91.2720658,80.2846838 C92.7592986,82.6576781 93.3838466,85.5926382 93.3209425,87.5280484 C93.2587872,89.4634587 92.6349881,92.9611339 95.3181479,91.2122963 C98.0013078,89.4634587 99.6862393,87.6913932 101.933563,86.9848148 C104.180139,86.2789858 105.989381,86.2175442 105.365582,84.6560285 C104.741783,83.0945128 100.185728,80.2846838 99.1245954,78.2241425 C98.0642119,76.1636011 98.8168146,76.2969744 97.3775087,76.0984131" id="Fill-125" fill="#AF7444"/>
        <path d="M105.230338,89.8805123 C105.230338,89.8805123 99.6243836,92.590686 96.5038904,93.5872387 C93.3841461,94.5837915 92.8217534,94.6654638 92.8846575,95.5923328 C92.9468128,96.5192017 93.1340274,98.8292558 93.1340274,98.8292558 C93.1340274,98.8292558 95.1933881,100.140509 97.5403105,100.207196" id="Fill-127" fill="#AF7444"/>
        <path d="M108.623565,84.9340142 C108.685721,84.7466923 108.610086,82.5954872 106.988058,81.5337464 C105.365282,80.4720057 102.057574,79.9107892 102.806433,78.3492735 C103.555291,76.7877578 107.861227,71.481302 109.609063,69.1704986 C111.35615,66.8596952 111.293995,66.1104074 112.230068,66.9848262 C113.166141,67.859245 115.327346,71.8222279 115.244972,74.1487664" id="Fill-129" fill="#AF7444"/>
        <path d="M97.3775087,73.9779288 C97.3775087,73.9779288 95.5053626,75.2899316 95.2559927,73.1042593 C95.005874,70.9185869 93.5089059,66.8994074 94.6943489,66.6296638 C95.8797918,66.3606695 98.9373808,65.4240598 100.060668,64.3623191 C101.184705,63.3005783 103.368376,59.9287835 103.992924,64.3623191 C104.616723,68.7958547 104.908778,69.1420256 105.230038,69.9362707 C105.552796,70.731265 105.364833,72.5415442 102.057874,73.0413191 C98.7501662,73.541094 98.798842,73.6422479 97.3775087,73.9779288" id="Fill-131" fill="#AF7444"/>
        <path d="M106.676084,66.6298886 C106.676084,66.6298886 105.381308,62.0517405 105.341618,61.4275838 C105.303426,60.8034271 105.240522,61.0529399 105.490641,60.1163302 C105.740011,59.1797205 107.674312,58.306051 107.986586,55.5584128 C108.29886,52.8107746 108.086933,52.311749 108.972833,51.8119741 C109.858732,51.3121991 113.540121,49.189467 114.788468,48.6275011 C116.036815,48.0655353 117.097947,47.6916407 118.470605,54.7469342 C119.843262,61.8022276 119.157308,60.365843 118.470605,61.6149057 C117.783901,62.8639684 116.660614,66.4238345 115.662385,65.9862504 C114.664157,65.5486664 113.103536,63.550316 111.418605,64.2374128 C109.733673,64.9245097 108.048742,67.9643701 107.362787,67.297504 L106.676084,66.6298886 Z" id="Fill-133" fill="#AF7444"/>
        <path d="M102.460086,54.8388718 C102.460086,54.8388718 104.242369,58.2436353 103.61857,58.867792 C102.994022,59.4919487 96.9402502,62.7386125 95.6926521,63.4879003 C94.444305,64.237188 93.9171087,63.9134957 94.2428621,62.7955584" id="Fill-135" fill="#AF7444"/>
        <path d="M124.397894,55.6773997 C124.397894,55.6773997 121.902698,55.4331319 121.653328,53.4977217 C121.403958,51.5623114 119.406753,46.5046191 121.653328,45.8175222 C123.899903,45.1304254 128.856597,43.0459068 130.605182,41.8260664" id="Fill-137" fill="#AF7444"/>
        <path d="M108.474393,47.6284009 C108.799397,47.6284009 114.457772,46.2542071 115.247817,43.4443781 C116.037114,40.634549 115.367635,38.6534322 115.662685,37.3946288" id="Fill-139" fill="#AF7444"/>
        <path d="M117.534532,46.0669601 C116.968395,45.905114 117.472376,44.8808376 117.534532,43.1949402 C117.596687,41.5090427 117.409472,38.3245698 118.657819,37.0133162 C119.906166,35.7020627 123.650458,32.3924587 125.33539,31.2685271 C127.020321,30.1445954 126.957417,29.8958319 127.76918,30.2075356 C128.580194,30.5192393 129.453363,33.8910342 129.952851,35.3274188 C130.45234,36.7638034 131.013984,36.7143504 130.390184,37.3947037 C129.765637,38.075057 122.848431,42.1339487 120.596614,43.882037 C118.345545,45.6301254 118.408449,46.3164729 117.534532,46.0669601" id="Fill-141" fill="#AF7444"/>
        <path d="M118.719226,32.6236889 C118.907189,32.6236889 121.340979,30.8935835 123.40034,29.707461 C125.4597,28.5213385 126.021344,28.3962074 126.520833,26.3356661 C127.020321,24.2751248 128.642349,23.0260621 127.581965,22.2145835 C126.520833,21.4031048 125.6896,21.8182103 125.600486,21.9508342" id="Fill-143" fill="#AF7444"/>
        <path d="M128.767408,26.2737 C128.858769,26.109606 130.514495,24.1509678 130.20297,21.4033296 C129.890696,18.6556915 129.197253,17.4066288 130.605107,16.0953752 C132.012212,14.7841217 131.811518,14.2229051 132.629271,16.5329593 C133.447774,18.8430134 134.446002,22.2148083 134.446002,22.2148083 C134.446002,22.2148083 135.257764,23.6511929 133.385618,24.5878026 C131.513472,25.5244123 127.617162,28.3432328 128.767408,26.2737" id="Fill-145" fill="#AF7444"/>
        <path d="M132.987825,36.469633 C132.80735,36.3452513 130.382546,33.7055105 130.604957,30.0834536 C130.826619,26.4613966 130.45219,27.1335077 131.201048,27.0158695 C131.949907,26.8982313 133.547971,27.7726501 134.621085,28.4589977 C135.69345,29.1453453 134.445852,29.7522684 135.756354,31.2913054 C137.066857,32.8303425 138.208866,33.9969835 138.208866,33.9969835 C138.208866,33.9969835 134.621085,34.7777413 133.744172,34.8661573 C133.361505,34.9051202 132.987825,36.469633 132.987825,36.469633" id="Fill-147" fill="#AF7444"/>
        <path d="M138.627627,20.9855268 C137.800888,20.2197547 136.255244,21.3174613 136.318148,22.8902162 C136.381052,24.4629712 137.022824,29.5176664 138.627627,31.331692 C140.231682,33.1457177 142.309016,32.6234641 142.309016,32.6234641 C142.309016,32.6234641 142.24686,29.3333416 141.623061,27.6474442 C140.998513,25.9615467 140.06244,22.3162618 138.627627,20.9855268" id="Fill-149" fill="#AF7444"/>
        <path d="M144.867865,27.175243 C144.867865,27.175243 142.121801,26.0865279 142.309016,24.4628214 C142.49623,22.8391148 143.495207,24.3376903 145.554568,24.4628214 C147.613929,24.5879524 147.925454,24.9004054 147.176595,25.899206 C146.427737,26.8980066 145.833892,27.6705222 144.867865,27.175243" id="Fill-151" fill="#AF7444"/>
        <path d="M144.555591,31.9556239 C143.146988,30.2539915 142.184705,28.3972564 143.931792,28.8962821 C145.678879,29.3953077 146.4195,28.5231368 147.546532,30.0831538 C148.674312,31.6431709 150.181016,32.205886 146.837363,32.2680769 C143.495207,32.3302678 145.281235,32.8322906 144.555591,31.9556239" id="Fill-153" fill="#AF7444"/>
        <path d="M148.881297,35.0149658 C148.881297,35.0149658 147.988658,33.1417464 149.486374,32.9544245 C150.984091,32.7671026 151.73295,32.0178148 152.107379,33.2668775 C152.481808,34.5159402 153.106356,34.5818775 152.356749,35.2652279 C151.607142,35.9485783 148.881297,35.0149658 148.881297,35.0149658" id="Fill-155" fill="#AF7444"/>
        <path d="M154.66518,30.0830789 C154.66518,30.0830789 155.912778,30.520663 156.162897,30.0830789 C156.413016,29.6454949 156.099993,28.591247 154.66518,26.7142812 C153.230367,24.8373154 151.794057,23.1514179 149.235956,23.1514179 C146.677856,23.1514179 147.192321,23.3357427 148.807609,23.7118852 C150.422148,24.0880276 150.467828,24.2131587 151.847974,26.3358909 C153.230367,28.4586231 154.103536,29.6469934 154.66518,30.0830789" id="Fill-157" fill="#AF7444"/>
        <path d="M151.848199,31.7375063 C152.70714,31.7547399 153.354902,31.8311672 152.980473,30.9567484 C152.606044,30.0823296 151.482756,27.8344664 150.359468,26.3358909 C149.236181,24.8373154 149.251907,24.6499934 148.807085,25.7739251 C148.363012,26.8978567 147.551249,26.0129479 148.050738,27.3294464 C148.550226,28.645945 150.342245,31.7067855 151.848199,31.7375063" id="Fill-159" fill="#AF7444"/>
        <path d="M148.881297,17.9686695 C148.881297,17.9686695 145.665699,17.9364501 144.92358,14.9557835 C144.181461,11.9743675 145.554868,13.2234302 145.429808,12.4741425 C145.304749,11.7248547 146.022904,11.4753419 146.443763,13.0361083 C146.86537,14.5968746 147.878575,16.2198319 148.80716,16.657416 C149.735744,17.095 149.83684,17.6562165 148.881297,17.9686695" id="Fill-161" fill="#AF7444"/>
        <path d="M141.061417,17.9686695 C141.939079,16.7008746 143.619518,17.4067037 143.931792,16.5952251 C144.244066,15.7837464 144.305472,13.5973248 142.49623,14.2222308 C140.686988,14.8471368 140.31181,15.5334843 140.06244,16.782547 C139.81307,18.0316097 140.499774,18.7801481 141.061417,17.9686695" id="Fill-163" fill="#AF7444"/>
        <path d="M137.441436,14.1117108 C137.441436,14.1117108 134.483445,15.3855 134.620486,16.2089672 C134.758276,17.0316852 135.316175,19.4676197 136.31665,18.9678447 C137.317125,18.4680698 137.789655,19.0922265 138.208267,17.4063291 C138.627627,15.7204316 139.488815,12.9975199 137.441436,14.1117108" id="Fill-165" fill="#AF7444"/>
        <path d="M138.750515,12.6614644 C137.91404,13.0488462 137.897565,12.2950627 140.010095,11.8852023 C142.121876,11.4753419 144.679976,11.6364387 142.30909,12.2733333 C139.938205,12.9109772 139.560031,12.2868205 138.750515,12.6614644" id="Fill-167" fill="#AF7444"/>
        <path d="M150.172029,20.7872652 C148.864522,20.3137154 148.43318,18.9672453 149.551974,19.4670202 C150.671518,19.9667952 153.428066,21.9658949 150.172029,20.7872652" id="Fill-169" fill="#AF7444"/>
        <path d="M153.666952,34.8276439 C153.220632,34.6043561 153.604796,33.6182934 153.979226,32.6929231 C154.353655,31.768302 155.850623,30.0202137 155.039609,32.1429459 C154.228595,34.2656781 154.290751,35.1393476 153.666952,34.8276439" id="Fill-171" fill="#AF7444"/>
        <path d="M95.7463452,103.680894 L88.8426192,109.194903 C88.8426192,109.194903 87.0184,109.87076 87.2677699,111.718504 C87.5178886,113.565498 87.5178886,115.313586 87.5178886,115.313586 C87.5178886,115.313586 87.8923178,116.374578 89.2649753,115.750421 C90.6376329,115.126264 91.2621808,114.501358 91.63661,115.001133 C92.0110393,115.500908 97.096537,122.553954 97.1437151,120.682982 C97.1901443,118.810512 95.1682265,107.538977 95.1682265,107.538977 C95.1682265,107.538977 95.3097607,105.710715 95.7463452,103.680894" id="Fill-173" fill="#AF7444"/>
        <path d="M96.6911799,123.54721 L92.4406594,124.742324 C92.4406594,124.742324 91.6985406,125.179908 91.6985406,126.553352 L91.6985406,130.893227 C91.6985406,130.893227 94.8722027,127.956019 95.6832164,126.383264 C96.494979,124.811258 96.6911799,123.54721 96.6911799,123.54721" id="Fill-175" fill="#AF7444"/>
        <path d="M90.3258831,122.806764 L91.6985406,122.244798 C91.6985406,122.244798 92.3710155,122.43212 92.4406594,121.49551 C92.5103032,120.5589 92.0108146,119.622291 90.3258831,118.498359 C88.6409516,117.374427 88.7652621,117.124915 85.9263397,118.498359 C83.0866685,119.871803 82.4628694,119.246148 82.2756548,120.183507 C82.0884402,121.120866 83.1989973,122.057476 81.2706868,122.806764 C79.3423763,123.556051 78.8436365,123.742624 78.5313626,124.36753 C78.2190886,124.992436 77.9697187,127.027501 77.9697187,130.068111 C77.9697187,133.10947 78.1067598,133.297541 79.4112712,132.859957 C80.7157826,132.422373 83.9021753,132.047729 86.3651708,132.422373 C88.8281662,132.797017 90.0068694,132.048479 89.9791616,130.893077 C89.9514539,129.737675 89.5770247,124.43047 90.3258831,122.806764" id="Fill-177" fill="#AF7444"/>
        <path d="M72.8220658,121.308188 C74.021737,119.779641 73.4144128,116.437068 74.7249151,117.061974 C76.0354174,117.68688 77.3459196,116.874652 77.9697187,118.311037 C78.5942667,119.747422 78.4190338,120.059125 79.4112712,120.621091 C80.4035087,121.183057 81.7769151,121.262481 80.2791982,121.754014 C78.7814813,122.244798 76.7213717,123.806313 75.2865589,122.931895 C73.8509973,122.057476 71.7931342,122.619442 72.8220658,121.308188" id="Fill-179" fill="#AF7444"/>
        <path d="M64.740011,133.036265 C64.740011,133.036265 68.1720292,124.679458 69.4825315,124.180433 C70.7930338,123.681407 73.2268237,123.744347 73.9135269,123.868729 C74.6002301,123.993111 75.5984584,123.354718 75.161874,125.297621 C74.7245406,127.240524 75.1611251,133.67241 75.8478283,134.733401 C76.5345315,135.794393 76.7217461,136.315148 75.161874,136.991005 C73.601253,137.667612 71.5418922,138.727854 70.9802484,139.29057 C70.4186046,139.853285 70.1692347,135.107296 67.6732895,135.794393 C65.1765954,136.48149 62.4934356,134.898245 64.740011,133.036265" id="Fill-181" fill="#AF7444"/>
        <path d="M74.7589132,144.393369 C74.7589132,144.143856 72.5400457,140.602722 74.1628219,139.977816 C75.7855982,139.35291 77.595589,139.165588 78.3444475,138.541432 C79.0933059,137.917275 78.3564292,137.726207 79.4108219,136.291321 C80.4659635,134.857184 78.3938721,134.233027 81.2709863,134.607671 C84.1481005,134.982315 86.0015251,135.312751 86.1580365,135.312751 C86.3145479,135.312751 74.7589132,144.393369 74.7589132,144.393369" id="Fill-183" fill="#AF7444"/>
        <path d="M67.6729151,148.469869 C67.6729151,148.469869 68.1094995,143.849011 69.7944311,142.475567 C71.4793626,141.102123 71.9863397,142.037983 72.5442393,143.287046 C73.1021388,144.536108 73.5694265,145.133291 73.5694265,145.133291 L67.6729151,149.527114 L67.6729151,148.469869 Z" id="Fill-185" fill="#AF7444"/>
        <path d="M19.7682904,152.028236 C19.7682904,152.028236 21.680126,151.054912 23.9896055,150.636809 C26.2983361,150.217957 27.5646557,149.593801 25.8392858,152.590952 C24.113916,155.588103 24.108674,156.406325 24.108674,156.406325 C24.108674,156.406325 20.341916,153.553786 19.7682904,152.028236" id="Fill-187" fill="#AF7444"/>
        <path d="M146.443837,10.4237915 C146.443837,10.4237915 134.945116,3.35800798 128.263801,13.521347 C122.004093,23.0432957 117.624769,30.3938085 115.66276,32.9039225 C99.7929516,53.2013783 92.6091525,63.8929652 80.1541388,68.2328399 C83.3367872,68.7333641 83.1982484,69.2129083 83.6490612,69.9367202 C84.0991251,70.6605322 102.080714,59.1312416 115.87244,37.071461 C129.663417,15.0124296 133.821828,6.54248091 146.443837,10.4237915" id="Fill-189" fill="#AF7444"/>
        <path d="M135.6936,29.1450456 C135.6936,29.1450456 136.863317,31.034 139.6955,32.8210513 C142.526933,34.6088519 147.020084,36.2947493 153.666203,35.8886353 C153.666203,35.8886353 154.477965,38.8228462 156.537326,39.509943 C158.596687,40.1970399 161.46781,40.2592308 163.089837,39.509943 C163.527171,39.2604302 163.436559,39.0453846 162.715408,35.5761823 C161.903646,31.674641 155.476942,28.2091852 148.206276,12.0994986 C148.206276,12.0994986 145.803938,7.66596296 137.660102,9.9452963 C131.122568,11.3809316 123.681162,25.2892108 119.513016,31.4138889 C115.013874,38.0825499 100.824504,63.6085356 78.4531068,72.5063276 C78.4531068,72.5063276 73.8820749,74.5548803 70.3399744,75.4802507 C68.8347689,75.8728775 64.3341297,76.2879829 62.6956274,78.0203362 C61.057874,79.7534387 55.3006502,86.4970285 54.0837553,87.7146211 C52.8668603,88.9322137 48.8035543,93.5043675 44.3485954,97.0335128 C37.3752256,102.55951 28.950568,104.151746 23.6613808,111.738285 C17.5611799,120.489966 13.7861845,126.536718 14.3942575,138.899966 C15.0030795,151.263214 27.696979,162.623915 39.7154082,161.706786 C56.2839014,160.441989 77.6143854,142.226803 82.462495,138.167162 C87.7082484,133.774838 98.1248694,127.9229 97.143116,120.683282 C96.3942575,115.157285 95.6184402,110.268182 95.1968329,107.879453 C95.1968329,107.879453 94.101253,104.198952 99.1560475,98.0173276 C99.1560475,98.0173276 109.796577,84.8426011 117.222258,70.4810028 C124.647938,56.1194046 131.809271,38.7381766 133.743573,34.8666068 C133.743573,34.8666068 136.528577,35.5919174 139.837034,32.9087179" id="Stroke-191" stroke="#533D37" stroke-width="0.5625"/>
        <path d="M146.837288,10.6843188 C146.837288,10.6843188 134.726749,1.73407664 125.901452,16.9588544 C125.901452,16.9588544 117.741142,30.3426322 111.699352,38.5428373 C105.575187,46.8546863 90.8249224,65.6108573 80.1536895,68.2333644 C80.1536895,68.2333644 83.1685936,68.7368858 83.9077169,69.9364954" id="Stroke-193" stroke="#533D37" stroke-width="0.5625"/>
        <g id="Group-198" transform="translate(135.543379, 0.422598)">
          <path d="M8.13904292,10.2097199 C8.13904292,10.2097199 3.73949954,6.05716724 5.14360913,0.624831054 L4.08172785,1.81095356 L2.83412968,1.18679687 L2.27248584,2.17136097 L0.213125114,1.62363162 C0.213125114,1.62363162 5.20501553,6.40034103 3.14565479,10.9275376" id="Fill-195" fill="#FADAB9"/>
          <path d="M8.13904292,10.2097199 C8.13904292,10.2097199 3.73949954,6.05716724 5.14360913,0.624831054 L4.08172785,1.81095356 L2.83412968,1.18679687 L2.27248584,2.17136097 L0.213125114,1.62363162 C0.213125114,1.62363162 5.20501553,6.40034103 3.14565479,10.9275376" id="Stroke-197" stroke="#533D37" stroke-width="0.5625"/>
        </g>
        <path d="M133.260559,15.2839715 C133.260559,15.2839715 132.262331,3.04510541 133.260559,2.60827066 C134.258787,2.1714359 138.003079,12.0373077 138.003079,12.0373077" id="Fill-199" fill="#FADAB9"/>
        <path d="M133.073344,15.2839715 C133.073344,15.2839715 132.075116,3.04510541 133.073344,2.60827066 C134.071573,2.1714359 137.815865,12.0373077 137.815865,12.0373077" id="Stroke-201" stroke="#533D37" stroke-width="0.5625"/>
        <path d="M135.007646,14.926861 C135.007646,14.926861 134.162184,10.2520547 134.071573,6.91772422 C134.007171,4.57769858 136.550294,10.0242712 136.682842,12.2144393 C136.816139,14.4046074 136.941947,14.5694507 135.007646,14.926861" id="Fill-203" fill="#A67C9F"/>
        <path d="M148.050513,21.1538168 C148.050513,21.1538168 144.701618,25.6405519 141.061417,19.9984151 C141.061417,19.9984151 143.260066,18.3065234 144.965216,18.5785148 C147.130166,18.9239365 147.83634,20.7874151 148.050513,21.1538168" id="Fill-205" fill="#A67C9F"/>
        <path d="M160.157308,37.8876601 C160.157308,37.8876601 158.570477,37.0132413 157.915226,33.9074436 C157.915226,33.9074436 159.049746,34.2498681 159.586678,35.3265946 C160.567682,37.2897285 159.943134,37.5212584 160.157308,37.8876601" id="Fill-207" fill="#A67C9F"/>
        <path d="M145.849993,22.8902162 C145.849993,22.8902162 143.480605,22.5133245 143.682047,20.2796977 C143.83781,18.5480937 145.849993,18.6874613 145.849993,18.6874613 L148.050139,21.1541165 L145.849993,22.8902162 Z" id="Fill-209" fill="#1B110F"/>
        <path d="M141.061417,19.9984151 C141.061417,19.9984151 145.273746,16.0654037 148.050513,21.1538168 C148.050513,21.1538168 145.055079,25.7432043 141.061417,19.9984151 Z" id="Stroke-211" stroke="#533D37" stroke-width="0.5"/>
        <path d="M160.157308,37.8876601 C160.157308,37.8876601 158.035043,36.5449365 157.910732,33.8287684 C157.910732,33.8287684 160.500285,35.0156402 160.157308,37.8876601 Z" id="Stroke-213" stroke="#533D37" stroke-width="0.5"/>
        <path d="M16.6024913,146.767862 C21.3839525,154.074167 22.2301626,156.401454 28.9451763,167.129756 C35.855642,178.170511 32.1353132,193.097822 32.1353132,193.097822 C32.1353132,193.097822 46.4377607,208.083577 53.9458155,224.108594 C61.4538703,240.132862 62.6909845,251.683132 62.6909845,251.683132 C66.7168475,250.891135 71.824811,248.072315 71.824811,248.072315 C70.0619982,247.197147 64.9315689,235.012979 64.9315689,235.012979 C64.9315689,235.012979 53.2336511,209.051657 49.2617059,202.179189 C39.4576511,185.215315 50.4276785,181.614987 50.4756055,156.250848 C50.5400073,121.75364 32.559916,135.773563 32.559916,135.773563 C32.559916,135.773563 25.6337242,128.470255 24.2138886,141.640486 C23.0756237,152.206192 16.6024913,146.767862 16.6024913,146.767862" id="Fill-215" fill="#FADAB9"/>
        <polygon id="Fill-217" fill="#AF7444" points="61.0644639 243.63743 66.5738155 238.497317 63.4083909 231.720758 59.0470393 236.836146"/>
        <path d="M58.1863763,234.353306 C58.1436913,234.14875 55.5331708,227.639687 55.5331708,227.639687 C55.5331708,227.639687 58.3061936,223.908984 59.0468146,223.563562 C59.7874356,223.216642 62.4795817,229.329331 62.4795817,229.329331 L58.1863763,234.353306 Z" id="Fill-219" fill="#AF7444"/>
        <path d="M58.1618886,220.034117 C58.1618886,220.034117 54.1742174,222.735299 53.6874594,223.563262 L51.2723909,218.752835 L54.2648292,212.411613 L58.1618886,220.034117 Z" id="Fill-221" fill="#AF7444"/>
        <path d="M49.8016329,216.046258 C49.8293406,216.16015 51.112884,211.670417 51.5869114,210.758534 C52.0616877,209.848899 50.2105096,205.761534 50.2105096,205.761534 C50.2105096,205.761534 48.9936146,203.084329 48.1751123,204.088375 C47.35661,205.090922 46.9836785,206.886215 46.1786557,205.638651 C45.3736329,204.390338 40.7254685,197.73966 40.7254685,197.73966 C40.7254685,197.73966 36.8995507,197.750899 36.7377973,197.999662 C36.575295,198.246178 49.3425826,214.143067 49.8016329,216.046258" id="Fill-223" fill="#AF7444"/>
        <path d="M49.0103142,201.643674 C48.900232,201.729842 46.3436292,203.504155 45.466716,202.46789 C44.5890539,201.430126 41.2813461,196.705118 41.1937297,196.594973 C41.1068621,196.484827 40.0105333,195.321183 40.5804146,194.455007 C41.1487982,193.58883 45.3498941,186.301258 45.3498941,186.301258 C45.3498941,186.301258 45.3633735,192.891993 45.9369991,194.527688 C46.5106247,196.162634 49.0103142,201.643674 49.0103142,201.643674" id="Fill-225" fill="#AF7444"/>
        <path d="M35.7809808,195.022293 C35.7809808,195.022293 39.2100037,191.65874 40.8724694,188.020948 C42.5341863,184.382407 43.5361589,183.234498 43.0838484,181.980939 C42.6315379,180.725882 40.6657845,175.359483 40.6657845,175.359483 C40.6657845,175.359483 40.0457297,174.118663 39.3799945,175.241096 C38.7142594,176.36203 35.721821,180.4966 35.721821,180.4966 C35.721821,180.4966 36.9454557,192.491948 35.7809808,195.022293" id="Fill-227" fill="#AF7444"/>
        <path d="M33.8905626,178.567934 C33.9661973,178.210523 37.6483342,172.968506 38.7004804,171.959965 C39.7526265,170.949925 40.0386904,170.783583 39.876937,169.897925 C39.7144347,169.011518 38.8599872,167.776691 39.7638594,167.184005 C40.6662338,166.58982 50.1512749,165.05378 50.1512749,165.05378 C50.1512749,165.05378 50.8372292,155.913968 50.3871653,154.359196 C50.0801333,153.767258 38.9745626,150.984404 37.9239142,151.694728 C36.8740146,152.405053 35.9738868,155.799327 35.4459416,157.170523 C34.9172475,158.54172 34.6019781,158.73129 34.0777772,158.905874 C33.5543251,159.081207 32.5313845,158.99429 33.1574301,160.468139 C33.7834758,161.942737 34.9120055,163.676589 34.9120055,163.676589 C34.9120055,163.676589 36.8852475,170.48162 35.1935763,170.611996 C32.2423251,170.83903 33.8905626,178.567934 33.8905626,178.567934" id="Fill-229" fill="#AF7444"/>
        <path d="M30.3938429,163.860989 C29.7550667,165.336336 31.9784274,159.124741 30.5001808,157.551236 C29.0211854,155.977732 26.9700621,155.57012 26.9700621,155.57012 C26.9700621,155.57012 25.4274137,155.654789 25.0597242,154.810342 C24.6927836,153.967393 24.7354685,148.804051 24.7354685,148.804051 C24.7354685,148.804051 25.0275233,147.737815 24.3355781,147.390145 C23.642884,147.040977 21.3835781,152.417866 21.3835781,152.417866 C21.3835781,152.417866 23.5395416,156.820681 25.8070849,158.654188 C28.2708292,160.646544 30.3938429,163.860989 30.3938429,163.860989" id="Fill-231" fill="#AF7444"/>
        <path d="M33.2225059,156.241481 C33.2225059,156.241481 29.1374831,153.857997 27.9243324,152.849456 C26.7104329,151.837917 26.3876749,150.899809 26.7321498,149.672476 C27.0766247,148.44739 28.0501406,147.261268 27.3132639,145.873587 C26.5771361,144.486655 25.7488986,142.755051 26.5164785,141.611638 C27.2840584,140.468225 28.423821,137.302484 29.1262502,137.284501 C29.8279306,137.268017 34.3442959,142.769288 35.7708712,144.805103 C37.1966977,146.840917 37.1382868,149.034083 35.5229991,152.278499 C33.9077114,155.521416 34.7419397,156.353875 33.2225059,156.241481" id="Fill-233" fill="#AF7444"/>
        <path d="M41.9956073,150.114031 C41.9956073,150.114031 40.7525023,149.343014 40.6236986,149.227624 C39.8673516,148.560008 37.1834429,145.984706 35.9777808,142.195558 C34.5684292,137.761273 34.0906575,133.903191 35.8504749,136.212495 C37.61179,138.520302 38.6242466,139.810575 39.093032,141.092607 C40.8745662,145.969721 41.9222192,150.028612 40.7525023,149.343014" id="Fill-235" fill="#AF7444"/>
        <path d="M64.557589,250.921781 L62.8636712,254.901248 L74.5046758,256.80369 L72.1989406,250.792904 C72.1989406,250.792904 71.5436895,249.868283 69.7314521,249.131733 C69.1278721,248.886716 65.3184292,251.63885 64.557589,250.921781" id="Fill-237" fill="#624B59"/>
        <path d="M15.6861132,145.042402 C20.6780037,154.640778 23.3521772,156.618898 29.299611,167.790778 C35.2470447,178.963408 32.134789,193.097972 32.134789,193.097972 C32.134789,193.097972 46.4372365,208.083727 53.9452913,224.107995 C61.4533461,240.133012 62.6912091,251.682533 62.6912091,251.682533 C66.7170721,250.891285 71.8242868,248.072465 71.8242868,248.072465 C70.061474,247.197297 58.1621132,220.034117 58.1621132,220.034117 C58.1621132,220.034117 48.9728712,202.428103 46.1137297,195.022143 C43.2545881,187.614684 48.8597936,180.811901 50.3575105,160.753468 C52.33899,134.204704 40.9997753,129.718718 40.9997753,129.718718" id="Stroke-239" stroke="#533D37" stroke-width="0.5625"/>
        <path d="M47.6739014,167.80936 C47.6304676,167.616793 43.0174995,168.996232 43.1927324,169.245745 C43.3679653,169.495258 43.2571342,173.179506 43.1874904,173.429019 C43.1185954,173.678531 45.0528968,180.672383 45.0528968,180.672383 C45.0528968,180.672383 49.7954174,177.175457 47.6739014,167.80936" id="Fill-241" fill="#AF7444"/>
        <polygon id="Fill-243" fill="#624B59" points="68.549379 258.473178 67.4245936 262.672936 80.1551872 262.672936 78.6230228 259.076355 74.8255616 257.406942 68.9283014 257.406942"/>
        <path d="M61.3175032,130.705006 C61.3175032,130.705006 63.6943799,131.266972 60.7753297,140.071103 C57.8555306,148.875234 57.0400237,152.621672 57.0400237,152.621672 C57.0400237,152.621672 55.7325169,155.056858 58.3684986,158.14767 C61.0037315,161.238481 67.1054301,172.009493 68.7087361,187.348912 C68.7087361,187.348912 70.6535215,198.609208 70.3075489,200.950732 C69.9615763,203.292256 68.3979598,205.633781 68.5267635,207.600661 C68.6555671,209.567541 71.1440237,215.655504 70.7029461,223.242043 C70.7029461,223.242043 70.0274758,243.941117 66.6823251,254.337484 C68.6345991,255.086772 67.6071653,256.823621 68.8555123,257.407316 C70.1031105,257.990262 73.2790192,257.66657 74.7527726,257.407316 C74.7527726,257.407316 77.6942886,256.210704 77.0712384,250.310063 C76.2856858,242.872632 75.3099233,237.241735 76.0497954,229.142684 C76.7784347,221.181501 76.8548183,216.392803 77.8485534,213.688624 C78.5360055,211.816154 79.9828,208.084701 80.4920237,205.914764 C81.3816676,202.121869 78.8580146,200.482427 77.9009735,192.521245 C76.9431836,184.560063 77.3984895,165.734208 77.8395671,161.987769 C78.2813936,158.24133 79.4533571,154.213909 81.4865078,150.46747 C83.5189096,146.721031 89.7321881,134.357783 91.6223068,125.553652 C91.6223068,125.553652 75.4784164,138.104222 77.4074758,132.765547 C82.4195854,118.893983 62.9268,129.540613 61.3175032,130.705006" id="Fill-245" fill="#FADAB9"/>
        <path d="M74.9245607,257.407017 C74.6632091,257.423501 73.3444694,256.78286 73.6410174,255.908441 C73.9375653,255.034022 75.4218027,253.222994 75.2270995,251.849549 C75.0338941,250.476105 74.6946612,248.228991 75.8127068,247.791407 C76.9300037,247.353823 77.4609443,251.662227 77.0415836,253.348125 C76.621474,255.034022 75.8771087,257.344826 74.9245607,257.407017" id="Fill-247" fill="#AF7444"/>
        <path d="M68.0290721,256.80339 C68.0290721,256.80339 72.1792457,255.054553 72.0197388,253.555977 C71.8587342,252.057402 71.8579854,249.248322 71.9261315,248.186581 C71.9935288,247.12484 72.3746977,245.937969 71.1360858,246.250422 C69.897474,246.562875 68.3862776,247.781217 68.3862776,247.781217 L66.9881589,253.930621 C66.9881589,253.930621 68.3690539,255.702687 68.0290721,256.80339" id="Fill-249" fill="#AF7444"/>
        <path d="M76.2880822,244.372107 C76.2880822,244.372107 70.5997534,244.649344 70.2343105,244.149569 C69.8688676,243.649794 70.8783288,235.220307 70.8783288,235.220307 C70.8783288,235.220307 71.247516,232.909503 72.0757534,232.847312 C72.903242,232.785121 75.8934338,235.103418 75.8612329,235.228549 C75.4523562,236.844013 76.3816895,236.746606 76.2880822,244.372107" id="Fill-251" fill="#AF7444"/>
        <path d="M75.869021,231.140285 C75.869021,231.140285 72.1359616,231.224205 72.0588292,229.413177 C71.9824457,227.602148 74.7337516,219.422923 75.0692402,218.17386 C75.4032311,216.924798 76.4306648,216.584621 77.1091306,216.147786 C77.7883452,215.710952 76.7983543,220.624781 76.4883269,224.808054 C76.1797973,228.991328 75.869021,231.140285 75.869021,231.140285" id="Fill-253" fill="#AF7444"/>
        <path d="M71.4249205,227.35286 C71.4271671,227.593381 73.1967196,221.670262 73.2641169,220.484139 C73.332263,219.298017 72.6493041,219.985114 71.9962995,219.859983 C71.343295,219.734852 71.4136877,226.228928 71.4249205,227.35286" id="Fill-255" fill="#AF7444"/>
        <path d="M70.7860694,219.773665 C71.0114758,219.399021 75.6379233,215.114593 75.6379233,215.114593 C75.6379233,215.114593 76.8623068,214.7392 77.0555123,213.553078 C77.2472201,212.366955 77.6942886,208.371004 77.7781607,207.121941 C77.8635306,205.872878 77.3842612,204.999209 76.5799872,205.373853 C75.7757132,205.748497 74.4127909,206.872428 73.5770648,206.497784 C72.7413388,206.12314 72.3347087,205.310913 71.4480603,206.0602 C70.5614119,206.809488 69.396937,208.76438 68.904937,209.201215 C68.4136858,209.638049 70.1487909,212.366206 70.2416493,215.050904 C70.3337589,217.735602 70.7860694,219.773665 70.7860694,219.773665" id="Fill-257" fill="#AF7444"/>
        <path d="M80.0181461,205.286186 C80.0181461,205.286186 76.749379,204.686756 76.2566301,203.375502 C75.7631324,202.064249 76.2259269,202.4314 77.9460548,201.603437 C79.6661826,200.774725 79.3321918,202.327249 79.7717717,203.444437 C80.2121005,204.561625 80.0181461,205.286186 80.0181461,205.286186" id="Fill-259" fill="#AF7444"/>
        <path d="M79.512442,199.449909 C79.512442,199.449909 74.9975744,202.127114 72.4222502,202.189305 C69.8476749,202.251496 70.1284968,196.455755 70.1284968,196.455755 L77.7346521,189.939199 C77.7346521,189.939199 78.5756201,198.517046 79.512442,199.449909" id="Fill-261" fill="#AF7444"/>
        <path d="M69.88699,190.450438 C69.88699,190.084037 71.6565425,183.144134 72.8479763,181.958011 C74.03941,180.771889 76.5533279,179.773088 76.5533279,179.773088 C76.5533279,179.773088 76.5518301,184.205874 76.8109352,186.266416 C77.070789,188.326957 74.7126338,191.073846 73.1220584,191.886074 C71.5314831,192.698302 69.8877388,193.010755 69.88699,190.450438" id="Fill-263" fill="#AF7444"/>
        <path d="M77.4091982,178.323516 C77.4091982,178.323516 72.5094174,179.95996 71.6167781,178.399194 C70.7241388,176.838428 72.1274995,176.026949 72.6352256,175.527174 C73.1437005,175.027399 77.2811434,172.910661 77.4556274,172.723339 C77.6308603,172.536017 77.5095452,177.948872 77.4091982,178.323516" id="Fill-265" fill="#AF7444"/>
        <path d="M68.979074,188.523046 C68.979074,188.523046 71.6532475,182.456812 71.301284,181.208499 C70.9493205,179.960185 69.5272384,179.210897 69.6133571,177.025225 C69.6994758,174.839553 69.6208457,172.802989 68.5155306,174.133724 C67.4102155,175.464459 66.7983982,176.514211 66.7983982,176.514211 C66.7983982,176.514211 69.5946356,187.064182 68.979074,188.523046" id="Fill-267" fill="#AF7444"/>
        <path d="M77.2695361,171.509718 C77.2695361,171.509718 74.201463,172.644889 73.6840018,173.21135 C73.1665406,173.778561 72.3210795,174.839553 71.6381205,174.59004 C70.9566594,174.340527 68.0630703,172.093413 68.2944676,170.531897 C68.525116,168.970382 70.9896091,164.661977 72.3450429,162.164601 C73.6997279,159.667225 73.8764584,158.543293 75.5583945,157.856197 C77.2395817,157.1691 77.7210977,158.16865 77.9906868,158.792806 C78.2602758,159.416963 77.132495,169.857538 77.2695361,171.509718" id="Fill-269" fill="#AF7444"/>
        <path d="M78.878758,156.649094 C78.878758,156.649094 76.3865571,155.046368 76.0690411,154.109758 C75.7515251,153.173148 75.0925297,151.205519 75.2228311,150.253923 C75.3531324,149.301578 75.1127489,148.798057 75.836895,147.957356 C76.56179,147.116655 82.4597991,145.367818 83.4834886,144.805852 C84.5079269,144.243886 84.798484,144.55559 83.481242,146.679071 C82.1632511,148.802553 80.1338447,153.469866 80.1338447,153.469866 L78.878758,156.649094 Z" id="Fill-271" fill="#AF7444"/>
        <path d="M64.8190155,170.255485 C64.8190155,170.255485 65.9894813,170.28171 66.557116,169.095588 C67.1247507,167.909465 67.1981388,165.53722 69.0905041,162.664451 C70.9828694,159.791682 74.2568785,157.356497 74.1490429,156.357696 C74.0419562,155.358895 73.5499562,153.236163 73.4720749,152.361744 C73.3941936,151.487326 73.3103215,151.237813 72.6820292,151.300004 C72.0544858,151.362195 69.2844584,154.483727 68.2061023,154.546668 C67.1292438,154.609608 66.0389059,154.484477 65.2511068,155.79573 C64.4633078,157.106984 61.8355635,162.726642 61.8355635,162.726642 C61.8355635,162.726642 64.5793808,168.81985 64.8190155,170.255485" id="Fill-273" fill="#AF7444"/>
        <path d="M59.665821,159.79333 C59.8410539,159.606008 64.7573096,154.609008 65.6611817,153.79753 C66.5650539,152.986051 67.1663872,151.907826 67.3940402,151.291162 C67.6209443,150.675248 66.9904055,150.234666 66.2273187,147.957581 C65.464232,145.680495 65.8521406,144.930458 64.8823689,145.055589 C63.9125973,145.180721 57.3398667,151.549666 59.1640858,149.863769 C60.988305,148.177872 56.0001589,153.948886 57.1331817,156.009427 C58.2662046,158.069968 59.665821,159.79333 59.665821,159.79333" id="Fill-275" fill="#AF7444"/>
        <path d="M69.7363196,142.558213 C69.7363196,142.558213 67.337726,148.236316 69.0975434,147.957581 C70.8573607,147.678846 76.5307123,145.368042 79.2700365,143.526293 C82.0108584,141.684544 85.3897078,140.684994 85.7558995,139.686193 C86.1205936,138.687393 86.2216895,137.812974 86.356484,137.43833 C86.4927763,137.063686 86.7062009,136.500971 85.8038265,136.376589 C84.9007032,136.252208 80.0922831,135.565111 80.0922831,135.565111 C80.0922831,135.565111 78.9068402,135.564362 78.1654703,136.001946 C77.4241005,136.43953 77.5251963,138.624453 75.3063288,139.686193 C73.08821,140.747934 71.6024749,140.935256 70.940484,141.3099 C70.2784932,141.684544 69.8890868,142.182071 69.7363196,142.558213" id="Fill-277" fill="#AF7444"/>
        <path d="M60.6008457,145.430983 C60.6008457,145.430983 67.9613753,141.434282 70.2101973,139.935706 C72.4582703,138.437131 73.2602977,138.375689 73.9462521,137.376139 C74.6329553,136.376589 75.4035306,135.356809 76.3987635,131.173535 C77.3947452,126.990262 76.4174849,127.597185 75.798179,127.347672 C75.1781242,127.098159 71.6247909,126.115843 71.6247909,126.115843 C71.6247909,126.115843 68.5649553,128.772068 67.8977224,129.396225 C67.2312384,130.020381 65.159147,133.067735 63.9182886,134.441179 C62.6766813,135.814624 62.6107817,138.624453 61.9892292,140.248159 C61.366179,141.871866 60.2309096,144.880256 60.6233114,145.042102" id="Fill-279" fill="#AF7444"/>
        <path d="M61.3906667,130.705006 C61.3906667,130.705006 63.7675434,131.266972 60.8484932,140.071103 C57.9286941,148.875234 57.1131872,152.621672 57.1131872,152.621672 C57.1131872,152.621672 55.8056804,155.056858 58.4416621,158.14767 C61.076895,161.238481 67.1785936,172.009493 68.7818995,187.348912 C68.7818995,187.348912 70.7266849,198.609208 70.3807123,200.950732 C70.0347397,203.292256 68.4711233,205.633781 68.5999269,207.600661 C68.7287306,209.567541 71.2171872,215.655504 70.7761096,223.242043 C70.7761096,223.242043 70.1006393,243.941117 66.7554886,254.337484 C68.7077626,255.086772 67.6803288,256.823621 68.9286758,257.407316 C70.176274,257.990262 73.3521826,257.66657 74.8259361,257.407316 C74.8259361,257.407316 77.7674521,256.210704 77.1444018,250.310063 C76.3588493,242.872632 75.3830868,237.241735 76.1229589,229.142684 C76.8515982,221.181501 76.9279817,216.392803 77.9217169,213.688624 C78.6091689,211.816154 80.0559635,208.084701 80.5651872,205.914764 C81.4548311,202.121869 78.9311781,200.482427 77.974137,192.521245 C77.016347,184.560063 77.471653,165.734208 77.9127306,161.987769 C78.3545571,158.24133 79.5265205,154.213909 81.5596712,150.46747 C83.5920731,146.721031 89.8053516,134.357783 91.6954703,125.553652" id="Stroke-281" stroke="#533D37" stroke-width="0.5625"/>
      </g>
    </g>
  </g>
</svg>