<svg version="1.1" width="150" height="152" viewBox="-1 -1 150 152" xmlns="http://www.w3.org/2000/svg" xmlns:xlink="http://www.w3.org/1999/xlink">
  <!-- Exported by Scratch - http://scratch.mit.edu/ -->
  <path id="Shape" fill="#824600" stroke="none" stroke-width="1" d="M 103.783 47.636 C 102.957 47.519 64.877 55.872 64.877 55.872 L 64.877 59.797 L 106.438 58.084 C 106.328 57.184 104.191 48.557 103.783 47.636 Z "/>
  <path id="Shape" fill="#6E1E3C" stroke="none" stroke-width="1" d="M 98.329 46.457 L 100.030 61.824 L 115.562 42.568 C 113.293 42.850 98.329 46.457 98.329 46.457 Z "/>
  <path id="Shape" fill="#F01446" stroke="none" stroke-width="1" d="M 93.260 82.095 C 93.965 82.420 94.682 82.712 95.398 82.993 L 112.521 88.176 L 93.260 82.095 Z "/>
  <path id="Shape" fill="#BE0A3C" stroke="none" stroke-width="1" d="M 117.883 85.409 L 104.613 76.014 L 86.777 80.177 C 85.416 81.335 86.716 87.665 86.938 89.058 C 87.563 93.022 88.414 96.946 89.488 100.810 C 91.382 107.621 96.475 116.127 99.192 122.635 L 116.106 121.303 C 116.184 116.530 116.350 112.691 116.617 107.934 C 116.778 105.024 117.728 100.581 118.133 97.693 C 118.467 95.214 119.616 92.449 119.616 90.010 L 117.883 85.409 Z "/>
  <path id="Shape" fill="#6E1E3C" stroke="none" stroke-width="1" d="M 120.856 148.796 C 120.856 148.796 118.305 148.796 116.586 148.934 L 116.586 150 C 120.059 149.906 125.699 149.785 125.699 149.785 L 116.761 121.622 L 100.356 122.124 C 100.356 122.124 105.097 129.938 107.885 134.212 C 112.886 141.833 120.856 148.796 120.856 148.796 Z "/>
  <path id="Shape" fill="#F0E6D2" stroke="none" stroke-width="1" d="M 97.315 118.620 C 97.971 120.846 99.880 125.009 101.285 126.689 L 118.599 126.689 C 118.659 124.780 117.959 119.897 117.505 117.568 L 97.315 118.620 Z "/>
  <path id="Shape" fill="#F0E6D2" stroke="none" stroke-width="1" d="M 119.058 128.716 L 102.384 129.046 C 102.494 129.620 102.626 130.186 102.779 130.743 L 119.616 130.743 C 119.380 130.094 119.193 129.415 119.058 128.716 Z "/>
  <path id="Shape" fill="#BE0A3C" stroke="none" stroke-width="1" d="M 128.845 51.358 C 128.873 49.510 126.490 44.904 126.772 44.562 C 124.511 42.394 119.762 42.483 116.876 42.637 C 112.763 42.858 109.994 45.235 107.368 48.236 C 104.362 51.742 101.592 55.442 99.075 59.312 C 97.732 61.331 96.399 63.378 95.012 65.380 C 93.906 66.991 91.413 70.951 91.429 70.951 C 90.152 73.654 87.891 76.523 87.178 79.430 C 98.196 82.464 109.120 86.479 119.934 90.203 C 122.316 84.571 123.980 78.751 126.092 73.020 C 128.204 67.289 131.427 60.884 131.781 54.723 C 131.770 54.712 128.845 51.358 128.845 51.358 Z "/>
  <path id="Shape" fill="#000000" stroke="none" stroke-width="1" d="M 128.076 22.263 C 127.722 21.367 127.634 20.392 127.823 19.450 C 127.992 18.829 128.020 18.176 128.199 17.561 C 128.698 15.841 129.101 14.094 130.026 12.510 C 130.558 11.602 131.029 10.655 131.477 9.708 C 132.095 8.499 132.910 7.396 133.892 6.442 C 134.839 5.457 135.814 4.488 136.778 3.514 C 138.306 2.016 140.181 0.896 142.247 0.248 C 143.514 -0.176 144.797 0.025 146.063 0.248 C 146.649 0.381 147.127 0.790 147.335 1.337 C 147.896 2.529 148.243 3.753 147.795 5.071 C 147.735 5.229 147.692 5.393 147.666 5.560 C 147.369 7.202 146.718 8.764 145.755 10.143 C 144.353 12.289 142.540 14.155 140.415 15.640 C 139.855 16.070 139.294 16.532 138.734 16.995 C 137.529 17.969 136.226 18.822 134.845 19.542 C 133.903 20.050 132.936 20.509 131.942 20.919 C 130.765 21.409 129.555 21.833 128.356 22.280 C 128.294 22.318 128.216 22.285 128.076 22.263 Z "/>
  <path id="Shape" fill="#824600" stroke="none" stroke-width="1" d="M 125.272 22.809 L 113.783 14.189 L 101.370 34.399 C 102.151 35.863 105.685 37.808 107.109 38.590 C 110.432 40.419 114.686 41.251 118.292 39.804 C 122.486 38.141 124.912 33.390 125.460 29.205 C 125.732 27.127 125.887 24.837 125.272 22.809 Z "/>
  <path id="Shape" fill="#642800" stroke="none" stroke-width="1" d="M 105.425 26.960 C 105.533 26.824 109.643 19.865 110.370 19.257 C 111.172 19.569 115.651 32.725 115.560 33.322 C 115.117 34.306 114.264 34.380 113.423 34.459 C 113.014 34.505 105.646 27.449 105.425 26.960 Z "/>
  <path id="Shape" fill="#BE0A3C" stroke="none" stroke-width="1" d="M 92.309 30.117 C 92.309 30.296 91.381 35.479 96.675 37.039 C 97.304 37.248 97.953 37.392 98.611 37.469 C 100.389 37.580 102.174 37.391 103.889 36.910 C 104.215 36.826 106.061 36.306 106.640 36.071 C 108.564 35.248 110.363 34.162 111.986 32.845 C 113.426 31.733 114.598 30.316 115.418 28.697 C 116.031 27.495 116.588 26.259 117.106 25.012 C 117.348 24.453 119.672 17.912 119.615 17.230 L 92.309 30.117 Z "/>
  <path id="Shape" fill="#F01446" stroke="none" stroke-width="1" d="M 129.643 20.077 C 128.407 13.157 126.766 8.607 120.706 4.628 C 115.423 1.163 109.263 -0.077 103.176 2.087 C 97.199 4.207 93.196 7.954 90.735 13.788 C 89.421 16.905 88.822 19.789 89.465 23.121 C 89.842 25.092 92.332 30.405 92.332 30.405 L 117.934 22.191 C 117.934 22.191 121.155 26.619 124.116 27.007 C 128.108 27.560 130.281 23.647 129.643 20.077 Z "/>
  <path id="Shape" fill="#FFC800" stroke="none" stroke-width="1" d="M 75.519 60.038 C 72.397 61.882 40.875 62.321 36.786 62.538 C 28.498 62.966 9.142 62.931 0.848 62.464 C -0.869 60.495 0.415 56.124 1.259 54.076 C 2.481 53.425 5.265 53.864 6.709 53.825 C 8.553 53.779 10.348 53.750 12.181 53.825 C 16.626 53.984 32.225 54.201 36.692 54.475 C 44.375 54.943 68.625 55.320 76.024 57.613 C 76.074 58.498 75.469 59.154 75.519 60.038 Z "/>
  <path id="Shape" fill="#824600" stroke="none" stroke-width="1" d="M 120.306 55.049 L 120.630 65.267 C 115.813 67.389 110.508 68.254 105.240 67.778 C 101.525 67.459 82.800 62.832 81.096 62.772 C 81.593 61.495 94.291 54.730 94.291 54.730 L 120.306 55.049 Z "/>
  <path id="Shape" fill="#F01446" stroke="none" stroke-width="1" d="M 95.288 65.878 L 83.123 63.234 L 84.772 54.929 L 95.202 54.730 L 95.288 65.878 "/>
  <path id="Shape" fill="#824600" stroke="none" stroke-width="1" d="M 76.594 54.862 C 79.883 53.544 84.613 53.582 88.105 53.905 C 88.368 57.186 88.214 62.415 85.041 64.204 C 82.108 65.845 77.493 64.204 75.547 61.775 C 74.812 59.369 74.571 56.776 76.594 54.862 Z "/>
  <path id="Shape" fill="#824600" stroke="none" stroke-width="1" d="M 65.159 53.111 C 69.138 51.690 77.530 54.043 77.019 59.181 C 76.507 64.319 71.267 63.925 68.682 63.781 C 64.997 63.576 63.086 61.428 62.869 58.843 C 62.669 56.396 64.042 53.510 65.159 53.111 Z "/>
  <path id="Shape" fill="#FFC800" stroke="none" stroke-width="1" d="M 90.203 58.915 C 90.311 60.856 89.905 61.778 88.456 62.748 C 84.627 63.826 86.076 54.803 89.289 57.147 L 90.203 58.915 Z "/>
  <path id="Shape" fill="#BE0A3C" stroke="none" stroke-width="1" d="M 103.989 20.245 C 104.929 22.406 104.389 25.040 101.457 26.031 C 99.358 26.746 96.680 26.329 95.707 24.123 C 94.368 21.100 96.444 19.029 99.004 18.421 C 100.540 18.055 103.044 18.077 103.989 20.245 Z "/>
  <path id="Shape" fill="#6E1E3C" stroke="none" stroke-width="1" d="M 126.712 20.456 C 126.688 20.648 126.653 20.839 126.606 21.027 C 126.373 21.899 126.094 22.737 125.136 23.051 C 124.022 23.433 123.030 23.456 122.100 22.692 C 121.769 22.436 121.467 22.143 121.198 21.819 C 120.716 21.243 120.526 20.468 120.685 19.726 C 120.797 19.070 121.029 18.441 121.371 17.873 C 122.071 17.248 123.049 17.062 123.922 17.388 C 125.470 17.958 125.949 18.472 126.712 20.456 Z "/>
  <path id="Shape" fill="#000000" stroke="none" stroke-width="1" d="M 120.014 34.540 L 120.630 35.450 C 120.192 36.686 119.174 37.665 117.870 38.103 C 116.930 38.463 115.932 38.743 114.881 38.243 L 114.557 37.668 C 114.545 37.584 114.545 37.498 114.557 37.414 C 114.868 36.588 115.516 35.914 116.357 35.540 C 117.047 35.250 117.716 34.910 118.411 34.635 C 119.022 34.420 119.032 34.420 120.014 34.540 Z "/>
  <path id="Shape" fill="#F01446" stroke="none" stroke-width="1" d="M 86.954 79.054 C 86.915 78.965 73.928 110.405 69.945 118.879 C 70.980 121.159 76.914 126.609 79.023 128.716 C 82.110 126.253 91.042 118.251 93.979 115.560 L 103.851 106.507 C 109.444 101.386 114.992 96.220 120.630 91.149 C 120.446 90.693 87.122 79.471 86.954 79.054 Z "/>
  <path id="Shape" fill="#FFC800" stroke="none" stroke-width="1" d="M 102.011 84.122 C 103.059 84.873 104.388 85.175 105.425 85.915 C 102.732 91.678 94.115 100.276 90.347 105.366 C 86.342 110.781 82.540 116.672 77.916 121.622 L 76.069 120.473 C 75.573 118.836 79.662 114.497 80.575 113.129 C 82.591 110.142 84.636 107.182 86.770 104.262 C 90.769 98.729 97.596 89.307 102.011 84.122 Z "/>
  <path id="Shape" fill="#6E1E3C" stroke="none" stroke-width="1" d="M 71.053 116.554 C 71.053 116.554 57.759 143.645 54.931 147.944 C 54.264 147.944 50.859 147.423 50.685 148.331 C 51.246 148.981 53.568 148.757 54.954 148.864 C 56.991 149.027 59.037 149.027 61.074 148.864 C 63.727 145.500 82.110 128.370 82.110 128.370 L 71.053 116.554 Z "/>
  <path id="Shape" fill="#F0E6D2" stroke="none" stroke-width="1" d="M 86.164 126.344 C 81.024 120.757 71.735 110.574 71.507 110.473 C 70.785 111.346 67.165 119.434 66.904 120.447 C 67.051 120.661 74.602 127.606 79.726 132.770 C 81.925 130.799 84.965 128.141 86.164 126.344 Z "/>
  <path id="Shape" fill="#F0E6D2" stroke="none" stroke-width="1" d="M 65.697 121.622 L 64.877 123.616 L 76.675 134.797 C 77.245 134.169 77.719 133.784 78.055 133.316 C 72.657 127.851 65.697 121.622 65.697 121.622 Z "/>
  <path id="Rectangle-path" fill="#6E1E3C" stroke="none" stroke-width="1" d="M 85.151 82.095 L 122.658 82.095 L 122.658 87.162 L 85.151 87.162 L 85.151 82.095 Z " transform="matrix(0.9567120671272278, 0.2910361588001251, -0.2910361588001251, 0.9567120671272278, 29.05, -26.55)"/>
  <path id="Rectangle-path" fill="#F01446" stroke="none" stroke-width="1" d="M 108.466 84.122 L 116.575 84.122 L 116.575 91.216 L 108.466 91.216 L 108.466 84.122 Z " transform="matrix(0.9534541964530945, 0.30153796076774597, -0.30153796076774597, 0.9534541964530945, 31.65, -29.8)"/>
  <path id="Rectangle-path" fill="#F01446" stroke="none" stroke-width="1" d="M 88.192 77.027 L 91.233 77.027 L 91.233 84.122 L 88.192 84.122 L 88.192 77.027 Z " transform="matrix(0.9534541964530945, 0.30153796076774597, -0.30153796076774597, 0.9534541964530945, 28.4, -23.3)"/>
  <path id="Rectangle-path" fill="#F01446" stroke="none" stroke-width="1" d="M 95.288 80.068 L 98.329 80.068 L 98.329 87.162 L 95.288 87.162 L 95.288 80.068 Z " transform="matrix(0.9534541964530945, 0.30153796076774597, -0.30153796076774597, 0.9534541964530945, 29.65, -25.25)"/>
  <path id="Shape" fill="#F01446" stroke="none" stroke-width="1" d="M 110.493 54.358 C 110.493 54.358 114.298 50.142 116.330 48.251 C 118.536 46.200 121.089 43.865 124.187 43.613 C 130.771 43.010 131.910 51.211 131.770 55.169 C 130.894 58.102 130.288 60.931 128.038 63.206 C 125.787 65.481 117.677 69.932 117.677 69.932 L 110.493 54.358 Z "/>
</svg>