<svg width="40px" height="42px" viewBox="0 0 40 42" version="1.1" xml:space="preserve" xmlns="http://www.w3.org/2000/svg" xmlns:xlink="http://www.w3.org/1999/xlink">
  <!-- Generator: Sketch 50.2 (55047) - http://www.bohemiancoding.com/sketch -->
  <defs/>
  <g>
    <title>chick-a</title>
    <desc>Created with Sketch.</desc>
    <g id="chick-a" stroke="none" stroke-width="1" fill="none" fill-rule="evenodd">
      <path d="M12.7833279,40.65016 L12.7833279,28.85016" id="Stroke-1" stroke="#E54529" stroke-width="0.8" stroke-linecap="round"/>
      <path d="M17.7908163,40.65016 L17.7908163,28.85016" id="Stroke-3" stroke="#E54529" stroke-width="0.8" stroke-linecap="round"/>
      <path d="M30.7327186,13.92088 L33.8176256,13.92088" id="Stroke-5" stroke="#E54529" stroke-width="1.6" stroke-linecap="round"/>
      <path d="M30.821514,12.75836 C30.821514,16.95596 27.4582814,20.35916 23.3090953,20.35916 C19.1603047,20.35916 15.7966767,16.95596 15.7966767,12.75836 C15.7966767,8.56036 19.1603047,5.15756 23.3090953,5.15756 C27.4582814,5.15756 30.821514,8.56036 30.821514,12.75836" id="Fill-7" fill="#FFDB5D"/>
      <path d="M26.3892977,12.75836 C26.3892977,14.47916 25.0103209,15.87436 23.3091349,15.87436 C21.6079488,15.87436 20.2293674,14.47916 20.2293674,12.75836 C20.2293674,11.03716 21.6079488,9.64196 23.3091349,9.64196 C25.0103209,9.64196 26.3892977,11.03716 26.3892977,12.75836" id="Fill-9" fill="#FFF4E3"/>
      <path d="M25.3190488,12.75836 C25.3190488,13.88156 24.4192349,14.79156 23.3090953,14.79156 C22.1989558,14.79156 21.2991419,13.88156 21.2991419,12.75836 C21.2991419,11.63476 22.1989558,10.72476 23.3090953,10.72476 C24.4192349,10.72476 25.3190488,11.63476 25.3190488,12.75836" id="Fill-11" fill="#17242D"/>
      <path d="M24.7260256,5.80016 C23.4162349,5.80016 22.3539326,4.72536 22.3539326,3.40016 C22.3539326,2.07456 23.4162349,1.00016 24.7260256,1.00016" id="Stroke-13" stroke="#FFDB5D" stroke-width="0.8"/>
      <path d="M28.0532814,18.3826 C28.0532814,26.2206 21.7731651,32.5742 14.0263047,32.5742 C6.27983953,32.5742 0.000118604651,26.2206 0.000118604651,18.3826 L28.0532814,18.3826 Z" id="Fill-15" fill="#FFDB5D"/>
      <path d="M18.5487,18.40016 C18.5487,22.01736 15.6503977,24.95016 12.0748628,24.95016 C8.49932791,24.95016 5.60102558,22.01736 5.60102558,18.40016 L18.5487,18.40016 Z" id="Fill-17" fill="#FECB43"/>
      <path d="M0.000118604651,18.4412 L0.000118604651,12.2244 L6.96142093,12.2244 C8.06088605,12.2244 9.12318837,12.6224 9.95737442,13.3464 L15.846886,18.4576 L0.000118604651,18.4412 Z" id="Fill-19" fill="#FFDB5D"/>
    </g>
  </g>
</svg>