<svg version="1.1" width="126" height="133" viewBox="-1 -1 126 133" xmlns="http://www.w3.org/2000/svg" xmlns:xlink="http://www.w3.org/1999/xlink">
  <!-- Exported by Scratch - http://scratch.mit.edu/ -->
  <path id="Shape" fill="#3C3C32" stroke="none" stroke-width="1" d="M 71.852 66.109 L 55.046 65.320 C 55.046 65.320 44.192 99.034 44.192 102.600 C 47.997 103.050 51.839 103.124 55.659 102.823 C 55.728 102.520 71.852 66.109 71.852 66.109 Z "/>
  <path id="Shape" fill="#BE0A3C" stroke="none" stroke-width="1" d="M 38.050 130.131 C 37.219 130.309 36.422 130.514 35.631 130.131 C 35.304 130.314 35.053 130.609 34.925 130.960 C 35.206 131.874 42.844 131.303 43.997 131.320 C 45.550 130.880 53.268 112.229 57.110 102.794 L 44.295 102.794 C 43.498 107.080 39.432 125.543 38.050 130.131 Z "/>
  <path id="Shape" fill="#FFDC00" stroke="none" stroke-width="1" d="M 53.595 115.691 L 39.409 115.691 L 41.560 106.429 L 57.414 106.429 L 53.595 115.691 "/>
  <path id="Shape" fill="#FFC800" stroke="none" stroke-width="1" d="M 41.606 104.280 L 42.196 100.291 L 59.994 100.291 L 58.354 104.280 L 41.606 104.280 "/>
  <path id="Shape" fill="#3C3C32" stroke="none" stroke-width="1" d="M 120.413 86.520 C 118.453 80.929 115.399 75.782 111.428 71.377 C 110.229 70.080 108.744 68.560 107.144 67.766 C 105.178 66.789 99.903 65.211 97.752 65.103 C 93.515 64.891 68.675 64.846 65.986 64.863 L 66.290 75.286 C 72.861 74.886 93.131 77.269 98.974 79.857 C 109.295 84.429 112.368 97.571 113.125 101.131 L 122.580 101.131 C 122.557 95.823 121.015 87.549 120.413 86.520 Z "/>
  <path id="Shape" fill="#BE0A3C" stroke="none" stroke-width="1" d="M 112.729 102.886 C 113.704 112.223 110.436 121.634 107.231 130.183 C 108.228 131.897 115.413 131.434 116.927 131.491 L 117.425 130.760 C 116.193 129.977 114.558 130.897 113.263 130.040 C 113.664 128.057 115.378 126.166 116.302 124.371 C 117.448 122.126 118.481 119.800 119.599 117.514 C 121.881 112.945 123.200 107.959 123.475 102.863 L 112.729 102.886 Z "/>
  <path id="Shape" fill="#FFDC00" stroke="none" stroke-width="1" d="M 110.791 115.634 L 121.841 115.634 L 124.811 106.366 L 111.846 106.366 L 110.791 115.634 "/>
  <path id="Shape" fill="#FFC800" stroke="none" stroke-width="1" d="M 124.243 104.223 L 123.956 100.234 L 110.487 100.234 L 111.560 104.223 L 124.243 104.223 "/>
  <path id="Shape" fill="#824600" stroke="none" stroke-width="1" d="M 46.749 50.177 C 46.749 50.177 24.203 77.320 20.539 96.743 C 20.315 97.914 23.205 101.240 24.553 101.417 C 25.367 99.829 29.140 91.640 35.797 80.463 C 42.104 69.886 52.890 57.417 52.890 57.417 L 46.749 50.177 Z "/>
  <path id="Shape" fill="#FFDC00" stroke="none" stroke-width="1" d="M 70.011 32.080 C 63.010 33.886 60.229 36.417 59.117 37.177 C 55.763 39.463 44.209 50.023 42.890 53.280 C 44.392 55.474 49.450 59.817 51.525 61.366 C 56.003 55.760 69.300 45.366 72.638 42.206 L 70.011 32.080 Z "/>
  <path id="Shape" fill="#6E1E3C" stroke="none" stroke-width="1" d="M 27.810 101.143 C 27.729 100.291 9.679 104.486 9.679 104.486 L 11.359 122.040 C 11.359 122.040 15.201 122.520 21.198 120.509 C 27.196 118.497 28.458 116.789 28.549 116.606 C 28.435 116.149 27.856 101.663 27.810 101.143 Z "/>
  <path id="Shape" fill="#BE0A3C" stroke="none" stroke-width="1" d="M 31.216 97.874 C 28.704 94.109 19.369 91.789 19.369 91.789 C 19.369 91.789 12.489 92.960 6.491 99.383 C 0.493 105.806 -4.128 117.983 6.422 123.383 C 8.222 124.314 11.640 125.051 13.429 123.743 C 15.338 122.349 15.201 118.537 15.768 116.423 C 17.110 111.366 16.680 107.851 22.322 106.709 C 24.731 107.480 26.009 110.566 25.763 113.771 C 25.602 115.432 25.773 117.109 26.267 118.703 C 26.655 119.273 27.297 119.618 27.987 119.629 C 31.428 117.240 31.783 100.709 31.216 97.874 Z "/>
  <path id="Shape" fill="#6E1E3C" stroke="none" stroke-width="1" d="M 22.104 98.857 C 22.810 98.286 23.406 97.714 23.251 96.571 C 23.136 96.326 22.976 96 22.804 95.640 C 20.510 94.171 17.729 93.411 15.189 92.486 C 13.192 93.175 11.286 94.104 9.513 95.251 C 12.913 97.897 17.718 100.411 22.104 98.857 Z "/>
  <path id="Shape" fill="#FFDC00" stroke="none" stroke-width="1" d="M 70.126 33.623 L 55.791 65.051 C 56.089 65.051 91.961 64.514 105.195 64.331 C 100.367 51.549 90.287 34.571 90.029 34.194 L 70.126 33.623 Z "/>
  <path id="Shape" fill="#BE0A3C" stroke="none" stroke-width="1" d="M 110.040 68.869 L 52.202 68.869 L 54.111 62.589 L 106.388 62.589 L 110.040 68.869 "/>
  <path id="Rectangle-path" fill="#FFC800" stroke="none" stroke-width="1" d="M 77.202 61.274 L 84.656 61.274 L 84.656 69.754 L 77.202 69.754 L 77.202 61.274 Z "/>
  <path id="Rectangle-path" fill="#3C3C32" stroke="none" stroke-width="1" d="M 88.962 61.274 L 92.689 61.274 L 92.689 69.754 L 88.962 69.754 L 88.962 61.274 Z "/>
  <path id="Rectangle-path" fill="#3C3C32" stroke="none" stroke-width="1" d="M 97.884 61.274 L 101.611 61.274 L 101.611 69.754 L 97.884 69.754 L 97.884 61.274 Z "/>
  <path id="Rectangle-path" fill="#3C3C32" stroke="none" stroke-width="1" d="M 69.857 61.274 L 73.584 61.274 L 73.584 69.754 L 69.857 69.754 L 69.857 61.274 Z "/>
  <path id="Rectangle-path" fill="#3C3C32" stroke="none" stroke-width="1" d="M 58.939 61.274 L 62.666 61.274 L 62.666 69.754 L 58.939 69.754 L 58.939 61.274 Z "/>
  <path id="Shape" fill="#C8BEA0" stroke="none" stroke-width="1" d="M 81.325 0.246 C 80.773 0.500 80.235 0.522 79.953 1.448 C 79.830 2.148 80.002 2.902 80.369 3.269 C 80.762 3.642 81.204 3.836 81.652 3.832 C 82.200 3.716 82.739 3.505 83.262 3.203 L 83.512 2.188 C 83.063 0.511 82.178 0.566 81.325 0.246 Z "/>
  <path id="Shape" fill="#824600" stroke="none" stroke-width="1" d="M 26.525 51.314 C 26.216 51.609 26.118 52.062 26.279 52.457 C 26.554 53.600 27.144 58.057 27.425 59.154 C 28.177 59.880 30.401 61.189 31.382 62.011 C 31.261 61.480 29.415 57.263 29.329 57.040 C 28.727 55.469 28.114 53.903 27.506 52.331 C 27.340 51.868 26.983 51.497 26.525 51.314 Z "/>
  <path id="Shape" fill="#A0640A" stroke="none" stroke-width="1" d="M 82.873 81.400 L 81.600 71.429 C 78.045 72.616 74.374 73.422 70.648 73.834 C 57.127 75.080 46.325 70.623 41.657 67.766 C 38.073 65.577 35.080 62.891 31.881 60.200 C 29.971 58.594 27.867 56.994 26.422 54.943 C 25.350 53.429 24.828 51.514 23.675 50.063 C 22.007 50.966 24.438 56.291 24.925 57.571 C 24.927 57.767 24.849 57.956 24.708 58.093 C 24.567 58.229 24.377 58.303 24.180 58.297 C 21.537 56.571 20.097 49.274 18.922 50.286 C 17.747 51.297 22.706 58.783 21.095 59.560 C 19.484 60.337 16.508 51.057 15.688 53.594 C 14.868 56.131 22.213 66.354 31.313 72.051 C 35.464 74.651 45.396 81.194 64.839 83.840 C 68.045 84.337 71.313 84.270 74.495 83.640 C 77.328 83.050 80.124 82.302 82.873 81.400 Z "/>
  <path id="Shape" fill="#FAB414" stroke="none" stroke-width="1" d="M 82.248 83.954 C 90.550 79.783 98.647 72.354 101.967 63.463 C 103.687 58.851 104.042 57.554 104.415 48.314 C 104.788 39.074 92.552 34.634 92.552 34.634 C 91.697 35.749 91.560 45.731 91.336 47.086 C 90.963 49.371 90.763 51.823 90.247 54.091 C 89.369 57.891 87.408 62.091 84.461 64.674 C 81.330 67.451 77.357 68.931 73.974 71.314 C 75.350 74.074 81.273 83.886 81.542 84.234 C 81.806 84.131 82.036 84.057 82.248 83.954 Z "/>
  <path id="Shape" fill="#E6781E" stroke="none" stroke-width="1" d="M 103.331 24.497 L 101.886 18.137 L 73.314 13.349 L 62.231 21.223 C 62.231 21.223 62.231 34.760 82.924 33.223 C 103.618 31.686 103.331 24.497 103.331 24.497 Z "/>
  <path id="Shape" fill="#FAB414" stroke="none" stroke-width="1" d="M 101.886 18.137 C 102.460 30.651 90.103 31.783 90.505 31.851 C 93.429 31.549 115.539 32.554 115.682 21.903 C 115.745 17.143 105.138 17.914 101.886 18.137 Z "/>
  <path id="Shape" fill="#824600" stroke="none" stroke-width="1" d="M 68.842 34.423 C 69.088 31.914 67.156 28.069 66.686 25.526 C 63.819 22.731 62.236 23.034 60.424 26.143 C 57.861 30.537 65.986 35.800 68.842 34.423 Z "/>
  <path id="Shape" fill="#824600" stroke="none" stroke-width="1" d="M 95.757 32.749 C 95.510 30.240 96.118 25.857 96.588 23.320 C 99.427 20.526 103.469 20.240 104.169 24.463 C 104.931 29.486 98.584 34.120 95.757 32.749 Z "/>
  <path id="Shape" fill="#A0640A" stroke="none" stroke-width="1" d="M 99.111 16.846 C 93.217 16.217 67.334 18.051 65.120 19.069 C 64.685 20.971 66.198 33.874 67.150 37.217 C 67.792 39.469 71.737 46.389 83.079 45.737 C 94.421 45.086 96.428 37.680 97.936 30.949 C 98.911 26.314 99.306 21.577 99.111 16.846 Z "/>
  <path id="Shape" fill="#824600" stroke="none" stroke-width="1" d="M 80.849 26.629 C 80.230 27.818 79.841 29.113 79.702 30.446 C 79.829 30.978 80.300 31.358 80.849 31.371 C 82.265 31.589 83.079 31.091 83.492 29.743 C 83.612 29.354 83.767 28.971 83.888 28.600 C 84.166 27.943 84.126 27.195 83.779 26.571 L 82.552 26.109 C 81.940 26.074 81.336 26.258 80.849 26.629 Z "/>
  <path id="Shape" fill="#000000" stroke="none" stroke-width="1" d="M 75.849 35.200 L 75.224 35.691 C 75.269 35.907 75.264 36.080 75.333 36.160 C 75.478 36.366 75.656 36.533 75.854 36.650 C 76.726 37.076 77.603 37.487 78.486 37.870 C 79.260 38.202 80.046 38.498 80.780 38.786 C 81.261 38.563 81.353 38.216 81.147 37.718 C 79.255 37.358 77.408 36.802 75.849 35.200 Z "/>
  <path id="Shape" fill="#000000" stroke="none" stroke-width="1" d="M 75.837 30.707 C 77.681 30.293 77.641 29.524 78.015 28.882 C 78.531 28.301 78.313 27.631 77.454 27.152 C 76.973 27.087 76.457 27.124 76.038 27.253 C 75.618 27.382 75.336 27.591 75.262 27.826 C 74.728 28.767 74.086 29.734 75.837 30.707 Z "/>
  <path id="Shape" fill="#000000" stroke="none" stroke-width="1" d="M 91.978 27.600 C 90.200 28.108 90.322 29.020 89.866 29.758 C 89.358 30.257 89.661 30.876 90.565 31.186 C 91.830 31.051 92.779 30.501 92.906 29.830 C 93.209 29.092 93.726 28.290 91.978 27.600 Z "/>
  <path id="Shape" fill="#000000" stroke="none" stroke-width="1" d="M 76.927 17.263 L 98.331 29.629 C 99.144 26.429 99.678 23.165 99.925 19.874 C 100.149 15.331 99.581 14.086 99.581 14.086 L 76.927 17.263 Z "/>
  <path id="Shape" fill="#000000" stroke="none" stroke-width="1" d="M 66.904 18.171 L 86.600 25.771 L 81.479 16.697 L 66.904 18.171 "/>
  <path id="Shape" fill="#FFDC00" stroke="none" stroke-width="1" d="M 101.886 18.137 C 102.122 15.731 100.510 12.423 99.518 10.280 C 98.326 7.864 96.589 5.756 94.444 4.120 C 90.338 0.760 84.748 0.394 79.742 1.337 C 74.736 2.280 69.117 4.560 66.296 9.051 C 64.002 12.691 62.982 17.051 62.231 21.223 L 101.886 18.137 Z "/>
</svg>