<svg width="308px" height="215px" viewBox="0 0 308 215" version="1.1" xml:space="preserve" xmlns="http://www.w3.org/2000/svg" xmlns:xlink="http://www.w3.org/1999/xlink">
  <defs/>
  <g>
    <title>frank-a</title>
    <desc>Created with Sketch.</desc>
    <g id="frank-a" stroke="none" stroke-width="1" fill="none" fill-rule="evenodd">
      <path d="M94.2423581,151.543602 L90.1222707,102.593839 L61.2008734,104.376777 C60.231441,119.288626 60.6353712,137.118009 62.4126638,150.246919 C63.5436681,158.756398 65.8056769,167.265877 67.8253275,175.61327 C68.1484716,176.909953 73.9650655,198.710427 77.2772926,195.14455 C77.1965066,191.821801 74.6921397,188.255924 73.8842795,185.014218 L74.4497817,184.77109 C77.7620087,188.418009 77.6812227,195.225592 84.0633188,195.711848 C84.3864629,192.227014 81.720524,187.121327 83.0131004,183.879621 L83.8209607,183.717536 C85.9213974,188.661137 87.5371179,193.037441 92.5458515,195.630806 C94.9694323,192.632227 93.4344978,186.716114 93.4344978,183.23128 C93.4344978,177.234123 95.4541485,157.459716 94.2423581,151.543602 Z" id="Shape" fill="#A0AA1E" fill-rule="nonzero"/>
      <path d="M89.0720524,76.9033175 C89.0720524,76.9033175 58.3733624,88.4113744 57.1615721,114.912322 C60.7161572,119.12654 90.6069869,115.965877 90.6069869,115.965877 L89.0720524,76.9033175 Z" id="Shape" fill="#824600" fill-rule="nonzero"/>
      <path d="M241.757642,150.814218 C241.59607,143.520379 241.19214,136.145498 240.626638,128.851659 C240.303493,125.042654 239.657205,121.314692 239.091703,117.505687 C238.768559,115.15545 238.122271,104.295735 236.344978,102.350711 C232.386463,103.24218 211.058952,110.454976 207.504367,112.481043 L210.412664,167.346919 C210.412664,170.669668 212.997817,191.416588 215.744541,193.685782 L216.956332,193.766825 C219.379913,191.578673 220.591703,183.960664 223.661572,183.717536 C225.600437,185.662559 225.115721,191.740758 225.923581,194.415166 C230.20524,195.549763 230.286026,183.23128 233.355895,185.014218 C233.598253,186.959242 232.386463,191.659716 233.355895,193.199526 L234.244541,193.280569 C239.091703,189.309479 240.061135,179.665403 240.868996,173.830332 C242,166.050237 241.919214,158.594313 241.757642,150.814218 Z" id="Shape" fill="#A0AA1E" fill-rule="nonzero"/>
      <path d="M209.362445,75.3635071 L201.768559,100.891943 L213.805677,114.912322 C227.458515,114.588152 240.141921,115.398578 241.757642,113.61564 C240.061135,93.5170616 214.936681,77.3895735 209.362445,75.3635071 Z" id="Shape" fill="#824600" fill-rule="nonzero"/>
      <path d="M184.399563,187.688626 L209.120087,191.49763 C209.120087,191.902844 205.40393,213.78436 205.40393,213.78436 L215.179039,213.946445 C215.179039,213.946445 215.098253,214.594787 215.017467,214.837915 C211.786026,214.918957 183.672489,214.756872 183.672489,214.756872 C183.672489,214.756872 184.237991,188.174882 184.399563,187.688626 Z" id="Shape" fill="#A0AA1E" fill-rule="nonzero"/>
      <path d="M213.078603,202.843602 C213.240175,199.926066 213.078603,196.846445 213.320961,194.009953 C213.724891,189.633649 215.663755,169.291943 215.340611,167.022749 L176.401747,150.165877 C176.401747,152.354028 176.240175,189.471564 177.775109,202.924645 L213.078603,202.843602 Z" id="Shape" fill="#005A5A" fill-rule="nonzero"/>
      <rect id="Rectangle-path" fill="#006482" fill-rule="nonzero" x="174.543668" y="196.765403" width="41.6048035" height="13.3720379"/>
      <path d="M122.759825,187.688626 L98.0393013,191.49763 C98.0393013,191.902844 101.755459,213.78436 101.755459,213.78436 L91.9803493,213.946445 C91.9803493,213.946445 92.0611354,214.594787 92.1419214,214.837915 C95.3733624,214.918957 123.4869,214.756872 123.4869,214.756872 C123.4869,214.756872 122.840611,188.174882 122.759825,187.688626 Z" id="Shape" fill="#A0AA1E" fill-rule="nonzero"/>
      <path d="M128.172489,201.546919 L128.091703,158.432227 L92.7882096,168.643602 C92.7882096,168.643602 94.4847162,193.280569 96.5851528,201.627962 L128.172489,201.546919 Z" id="Shape" fill="#005A5A" fill-rule="nonzero"/>
      <rect id="Rectangle-path" fill="#006482" fill-rule="nonzero" x="91.7379913" y="198.386256" width="39.5043668" height="13.3720379"/>
      <path d="M174.058952,56.0753555 L174.058952,58.1824645 C177.371179,58.2635071 182.703057,58.1014218 184.399563,58.1014218 L184.399563,55.9943128 C181.491266,55.9132701 176.967249,55.9943128 174.058952,56.0753555 Z" id="Shape" fill="#FAB414" fill-rule="nonzero"/>
      <path d="M183.995633,50.7265403 C183.995633,50.7265403 180.925764,50.7265403 179.39083,51.4559242 L181.81441,62.3156398 C183.430131,62.1535545 184.965066,61.9104265 186.580786,61.5052133 L183.995633,50.7265403 Z" id="Shape" fill="#FFC800" fill-rule="nonzero"/>
      <path d="M126.072052,56.0753555 L126.072052,58.1824645 C122.759825,58.2635071 117.427948,58.1014218 115.731441,58.1014218 L115.731441,55.9943128 C118.558952,55.9132701 123.082969,55.9943128 126.072052,56.0753555 Z" id="Shape" fill="#FAB414" fill-rule="nonzero"/>
      <path d="M116.135371,50.7265403 C116.135371,50.7265403 119.20524,50.7265403 120.740175,51.4559242 L118.316594,62.3156398 C116.700873,62.1535545 115.165939,61.9104265 113.550218,61.5052133 L116.135371,50.7265403 Z" id="Shape" fill="#FFC800" fill-rule="nonzero"/>
      <path d="M174.462882,45.9450237 C166.868996,43.8379147 142.229258,44.8104265 136.816594,44.8914692 C131.727074,44.9725118 126.637555,43.756872 124.133188,48.9436019 C122.032751,53.3199052 120.659389,67.0971564 119.851528,74.3099526 L180.764192,74.0668246 C180.037118,67.5023697 176.482533,47.8900474 174.462882,45.9450237 Z" id="Shape" fill="#A0AA1E" fill-rule="nonzero"/>
      <path d="M178.502183,59.5601896 C178.502183,59.5601896 178.582969,59.5601896 178.582969,59.6412322 L178.502183,59.5601896 Z" id="Shape" fill="#A0AA1E" fill-rule="nonzero"/>
      <path d="M157.417031,57.9393365 C154.266376,58.992891 143.683406,58.5066351 143.360262,58.2635071 C143.360262,55.5890995 142.79476,52.7526066 149.5,52.3473934 C156.20524,51.9421801 156.851528,55.5080569 157.417031,57.9393365 Z" id="Shape" fill="#82783C" fill-rule="nonzero"/>
      <path d="M147.965066,61.0189573 C147.965066,61.0189573 150.954148,60.856872 152.408297,60.9379147 C152.569869,61.343128 152.650655,61.8293839 152.569869,62.2345972 C152.489083,62.3156398 152.489083,62.4777251 152.408297,62.4777251 C151.842795,62.4777251 148.207424,62.8018957 147.965066,62.2345972 C147.965066,61.9104265 147.965066,61.4241706 147.965066,61.0189573 Z" id="Shape" fill="#000000" fill-rule="nonzero"/>
      <path d="M170.989083,55.1028436 C170.504367,55.1028436 170.100437,55.4270142 169.938865,55.8322275 C169.615721,56.3184834 169.696507,58.0203791 170.989083,58.1014218 C171.473799,58.1014218 172.120087,57.9393365 172.120087,56.7236967 C172.120087,55.5080569 171.473799,55.1028436 170.989083,55.1028436 Z" id="Shape" fill="#000000" fill-rule="nonzero"/>
      <path d="M131.888646,55.1028436 C131.40393,55.1028436 131,55.4270142 130.838428,55.8322275 C130.515284,56.3184834 130.59607,58.0203791 131.888646,58.1014218 C132.373362,58.1014218 133.019651,57.9393365 133.019651,56.7236967 C133.019651,55.5080569 132.373362,55.1028436 131.888646,55.1028436 Z" id="Shape" fill="#000000" fill-rule="nonzero"/>
      <path d="M154.670306,55.5890995 C154.266376,55.5890995 153.862445,55.7511848 153.620087,56.0753555 C153.377729,56.3995261 153.377729,57.5341232 154.670306,57.6151659 C155.155022,57.6151659 155.80131,57.5341232 155.80131,56.7236967 C155.80131,56.0753555 155.316594,55.5890995 154.670306,55.5890995 C154.751092,55.5890995 154.751092,55.5890995 154.670306,55.5890995 Z" id="Shape" fill="#645A1E" fill-rule="nonzero"/>
      <path d="M145.783843,55.6701422 C145.379913,55.6701422 144.975983,55.8322275 144.733624,56.1563981 C144.491266,56.4805687 144.491266,57.6151659 145.783843,57.6962085 C146.268559,57.6962085 146.914847,57.6151659 146.914847,56.8047393 C146.914847,56.2374408 146.430131,55.7511848 145.783843,55.6701422 C145.864629,55.7511848 145.864629,55.6701422 145.783843,55.6701422 Z" id="Shape" fill="#645A1E" fill-rule="nonzero"/>
      <path d="M90.5262009,115.965877 L150.954148,139.630332 L213.724891,114.912322 C213.724891,114.912322 212.755459,97.3260664 211.786026,92.3014218 C211.70524,91.9772512 209.604803,76.6601896 209.362445,75.2824645 C205.242358,70.7440758 192.962882,67.664455 185.611354,67.3402844 C177.451965,67.0161137 116.539301,67.5023697 116.539301,67.5023697 C116.539301,67.5023697 108.218341,68.7180095 102.320961,70.9061611 C96.4235808,73.0943128 89.0720524,76.7412322 89.0720524,76.7412322 C89.0720524,76.7412322 88.7489083,90.9236967 89.1528384,98.2175355 C89.7183406,108.590995 90.5262009,115.965877 90.5262009,115.965877 Z" id="Shape" fill="#A0640A" fill-rule="nonzero"/>
      <path d="M151.277293,87.4388626 C134.958515,87.4388626 118.639738,87.6009479 118.639738,87.6009479 C118.639738,87.6009479 115.085153,87.8440758 115.004367,87.6009479 C110.480349,89.3028436 90.4454148,115.965877 90.4454148,115.965877 L92.7074236,168.562559 L151.277293,167.833175 L158.951965,122.206161 L151.277293,87.4388626 Z" id="Shape" fill="#008264" fill-rule="nonzero"/>
      <path d="M151.277293,167.833175 L215.340611,167.022749 L213.724891,114.912322 C213.724891,114.912322 191.831878,90.7616114 186.580786,87.8440758 C181.41048,87.5199052 166.141921,87.4388626 151.358079,87.4388626 L151.277293,167.833175 Z" id="Shape" fill="#00A08C" fill-rule="nonzero"/>
      <path d="M181.652838,65.6383886 L182.460699,101.945498 L190.216157,102.02654 C190.216157,102.02654 190.458515,73.985782 189.085153,65.6383886 L181.652838,65.6383886 Z" id="Shape" fill="#005A5A" fill-rule="nonzero"/>
      <path d="M186.5,95.7052133 C185.611354,95.7052133 184.803493,96.1104265 184.237991,96.8398104 C183.672489,97.5691943 183.753275,100.000474 186.419214,100.081517 C187.469432,100.162559 188.762009,99.8383886 188.762009,98.1364929 C188.842795,96.9208531 187.873362,95.8672986 186.661572,95.7862559 C186.580786,95.7052133 186.5,95.7052133 186.5,95.7052133 Z" id="Shape" fill="#FFC800" fill-rule="nonzero"/>
      <path d="M111.772926,65.6383886 C110.399563,73.985782 110.641921,102.02654 110.641921,102.02654 L118.316594,101.945498 L119.124454,65.6383886 L111.772926,65.6383886 Z" id="Shape" fill="#005A5A" fill-rule="nonzero"/>
      <path d="M114.277293,95.7052133 C115.165939,95.7052133 115.973799,96.1104265 116.539301,96.8398104 C117.104803,97.5691943 117.024017,100.000474 114.358079,100.081517 C113.30786,100.162559 112.015284,99.8383886 112.015284,98.1364929 C111.934498,96.9208531 112.90393,95.8672986 114.115721,95.7862559 C114.115721,95.7052133 114.196507,95.7052133 114.277293,95.7052133 Z" id="Shape" fill="#FFC800" fill-rule="nonzero"/>
      <path d="M137.30131,107.21327 C136.008734,112.724171 138.270742,120.261137 141.582969,123.827014 C145.541485,126.74455 154.508734,127.06872 158.709607,124.637441 C163.556769,121.881991 164.849345,115.560664 164.768559,110.617062 C164.768559,109.482464 164.768559,108.347867 164.687773,107.21327 L137.30131,107.21327 Z" id="Shape" fill="#005A5A" fill-rule="nonzero"/>
      <rect id="Rectangle-path" fill="#006482" fill-rule="nonzero" x="135.362445" y="102.02654" width="31.0218341" height="8.75260664"/>
      <path d="M151.277293,104.45782 C150.388646,104.376777 149.5,104.863033 148.934498,105.592417 C148.28821,106.402844 148.449782,108.834123 151.196507,108.996209 C152.327511,109.077251 153.539301,108.753081 153.539301,106.970142 C153.620087,105.67346 152.650655,104.538863 151.358079,104.45782 C151.358079,104.45782 151.277293,104.45782 151.277293,104.45782 Z" id="Shape" fill="#FAB414" fill-rule="nonzero"/>
    </g>
  </g>
</svg>