<svg width="197px" height="147px" viewBox="0 0 197 147" version="1.1" xml:space="preserve" xmlns="http://www.w3.org/2000/svg" xmlns:xlink="http://www.w3.org/1999/xlink">
  <defs/>
  <g>
    <title>ghost-d</title>
    <desc>Created with Sketch.</desc>
    <g id="ghost-d" stroke="none" stroke-width="1" fill="none" fill-rule="evenodd">
      <path d="M82.0630137,53.2221053 C59.4,53.5431579 5.06027397,55.7905263 3.51506849,57.0105263 C3.51506849,57.2673684 3.45068493,57.5884211 3.38630137,57.9094737 C4.41643836,58.2305263 8.27945205,57.2031579 8.40821918,58.5515789 C7.44246575,59.9 4.6739726,59.8357895 3.38630137,60.9915789 C4.93150685,61.5694737 8.40821918,59.3863158 8.73013699,62.0831579 C7.37808219,62.6610526 5.12465753,63.2389474 4.15890411,64.3947368 C4.86712329,64.78 60.5589041,64.9084211 82.0630137,64.8442105 L82.0630137,53.2221053 Z" id="Shape" fill="#78C8C8" fill-rule="nonzero"/>
      <path d="M19.2246575,60.9915789 C19.0958904,59.0010526 16.1986301,58.8084211 16.2630137,60.9273684 C16.3273973,63.0463158 19.3534247,62.7252632 19.2246575,60.9915789 Z" id="Shape" fill="#AADCDC" fill-rule="nonzero"/>
      <path d="M51.4164384,56.4968421 C51.0945205,54.7631579 45.4287671,55.02 45.7506849,56.8178947 C46.0726027,58.6157895 51.6739726,58.0378947 51.4164384,56.4968421 Z" id="Shape" fill="#AADCDC" fill-rule="nonzero"/>
      <path d="M45.6219178,87.3821053 C44.5273973,88.1526316 43.8835616,89.3726316 43.690411,90.6568421 C43.4972603,91.8126316 43.8191781,92.9684211 44.5273973,93.8673684 C44.9136986,94.3168421 45.3643836,94.7021053 45.9438356,94.9589474 C46.5876712,95.2157895 47.1671233,95.4084211 47.8109589,95.6010526 C43.4328767,95.8578947 37.8315068,96.6926316 34.2260274,99.3894737 C33.1315068,100.16 32.4876712,101.38 32.2945205,102.664211 C32.1013699,103.82 32.4232877,104.975789 33.1315068,105.874737 C33.5178082,106.388421 33.9684932,106.709474 34.5479452,106.966316 C35.5136986,107.351579 36.4794521,107.672632 37.509589,107.993684 C38.2821918,108.250526 38.990411,108.571579 39.7630137,108.892632 C40.3424658,109.149474 40.7287671,109.663158 40.9219178,110.176842 C41.1150685,110.562105 41.2438356,111.011579 41.3726027,111.396842 C41.1150685,112.231579 40.5356164,112.937895 39.8273973,113.387368 C39.1835616,113.901053 38.7328767,114.543158 38.4109589,115.313684 C38.2178082,115.827368 38.1534247,116.405263 38.2821918,116.983158 C38.7328767,119.744211 41.1150685,121.542105 43.5616438,121.927368 C43.690411,121.927368 43.8191781,121.991579 43.9479452,121.927368 C44.1410959,121.927368 50.3863014,122.312632 50.6438356,122.248421 L65.4520548,83.5294737 C64.6150685,83.5936842 51.9315068,82.6947368 45.6219178,87.3821053 Z" id="Shape" fill="#00A0B4" fill-rule="nonzero"/>
      <path d="M81.3547945,76.3378947 L82.1273973,66.1284211 C78.2,66.1926316 6.79863014,66.3852632 5.31780822,67.22 C6.34794521,68.3757895 8.08630137,67.9905263 9.18082192,68.9536842 L9.18082192,69.4673684 C7.95753425,70.6231579 5.76849315,69.5957895 4.28767123,70.3663158 C4.99589041,72.2926316 8.34383562,71.5863158 9.56712329,72.8063158 C8.85890411,73.9621053 6.8630137,73.1273684 6.47671233,73.9621053 C7.82876712,75.8884211 13.9452055,76.0168421 16.0054795,76.2736842 C19.5465753,76.6589474 23.2808219,76.4663158 26.8219178,76.6589474 C36.2219178,77.2368421 77.9424658,77.3010526 81.3547945,76.3378947 Z" id="Shape" fill="#AADCDC" fill-rule="nonzero"/>
      <path d="M40.5356164,69.7242105 C40.4068493,67.7336842 37.509589,67.5410526 37.5739726,69.66 C37.6383562,71.7147368 40.6,71.4578947 40.5356164,69.7242105 Z" id="Shape" fill="#78C8C8" fill-rule="nonzero"/>
      <path d="M24.9547945,71.9073684 C24.8260274,69.9168421 21.9287671,69.7242105 21.9931507,71.8431579 C22.0575342,73.9621053 25.0191781,73.6410526 24.9547945,71.9073684 Z" id="Shape" fill="#78C8C8" fill-rule="nonzero"/>
      <path d="M15.039726,70.1094737 C14.9109589,68.1189474 12.0136986,67.9263158 12.0780822,70.0452632 C12.1424658,72.1 15.1041096,71.8431579 15.039726,70.1094737 Z" id="Shape" fill="#78C8C8" fill-rule="nonzero"/>
      <rect id="Rectangle-path" fill="#006482" fill-rule="nonzero" x="106.593151" y="39.2884211" width="27.8780822" height="21.3178947"/>
      <path d="M121.015068,40.6368421 C121.015068,40.6368421 120.306849,44.5536842 122.238356,45.26 C124.169863,45.9663158 125.650685,46.0305263 126.358904,44.5536842 C127.067123,43.0768421 126.873973,39.8663158 126.873973,39.8663158 L121.015068,40.6368421 Z" id="Shape" fill="#FFFFFF" fill-rule="nonzero"/>
      <path d="M106.786301,59.3221053 C107.816438,54.1852632 114.190411,51.36 121.594521,52.5157895 C129.578082,53.7357895 133.634247,53.7357895 131.960274,59.7715789 C131.058904,64.6515789 125.328767,69.1463158 117.152055,67.6694737 C110.713699,66.5136842 105.820548,64.0094737 106.786301,59.3221053" id="Shape" fill="#000000" fill-rule="nonzero"/>
      <path d="M140.716438,48.5989474 C138.849315,41.2789474 136.338356,34.3442105 131.960274,28.18 C127.453425,21.8231579 123.268493,14.8884211 116.121918,11.0357895 C108.20274,6.73368421 100.476712,5.19263158 91.4630137,5.38526316 C83.8657534,5.57789474 74.6589041,8.08210526 69.3150685,13.9252632 C56.4383562,28.1157895 61.5246575,42.4347368 69.0575342,54.9557895 C73.1136986,61.7621053 78.1356164,62.0189474 77.4273973,69.4673684 C76.9767123,70.7515789 76.590411,72.4852632 76.0109589,73.3842105 C74.7876712,75.0536842 73.2424658,76.3378947 71.439726,77.3010526 C66.4821918,79.8694737 61.009589,79.5484211 55.6013699,79.7410526 C52.5109589,79.8052632 45.5575342,79.0989474 44.3342466,82.9515789 C43.690411,84.9421053 45.3,86.4189474 46.7164384,87.3821053 C48.2616438,88.4736842 49.2917808,88.9873684 50.3863014,89.9505263 C52.639726,91.8768421 51.030137,93.0326316 50.1287671,93.4178947 C46.4589041,94.8947368 37.0589041,92.84 37.1876712,99.7747368 C37.1232877,102.6 38.990411,105.168421 41.6945205,106.003158 C44.7205479,107.094737 49.0342466,105.682105 51.4164384,108.122105 C57.339726,114.222105 41.3082192,114.157895 45.1712329,121.349474 C46.6520548,124.110526 50.0643836,125.587368 53.0260274,125.972632 C62.8123288,127.321053 84.7027397,125.651579 94.5534247,124.110526 C103.631507,122.697895 113.482192,119.68 121.530137,115.121053 C129.771233,110.497895 136.016438,105.810526 139.364384,96.8210526 C147.541096,75.0536842 142.647945,56.1757895 140.716438,48.5989474 Z M119.791781,57.7810526 C115.027397,57.7810526 110.906849,55.3410526 110.327397,50.3326316 C109.747945,45.3242105 113.739726,41.1505263 120.435616,41.5357895 C126.680822,41.9210526 130.093151,44.3610526 129.9,50.2042105 C129.706849,56.0473684 124.620548,57.7810526 119.791781,57.7810526 Z" id="Shape" fill="#AADCDC" fill-rule="nonzero"/>
      <path d="M73.6931507,15.9157895 C70.2164384,14.4389474 64.0356164,24.8410526 67.6410959,26.4463158 C71.2465753,28.0515789 76.7835616,17.2 73.6931507,15.9157895 Z" id="Shape" fill="#78C8C8" fill-rule="nonzero"/>
      <path d="M83.8013699,47.1221053 C84.8958904,47.7 85.2178082,48.3421053 84.8958904,49.6905263 C84.7671233,49.7547368 84.509589,49.8831579 84.3164384,49.8831579 C84.1232877,49.8189474 83.930137,49.6905263 83.7369863,49.4978947 C83.4150685,48.9842105 83.2219178,48.4063158 83.2219178,47.8284211 C83.2863014,47.5073684 83.2863014,47.4431579 83.8013699,47.1221053 Z" id="Shape" fill="#000000" fill-rule="nonzero"/>
      <path d="M137.30411,47.5073684 L136.338356,47.1863158 C136.209589,46.2873684 135.630137,45.5810526 135.887671,44.6821053 C136.145205,44.4894737 136.59589,44.5536842 136.789041,44.8105263 C136.789041,44.8105263 136.853425,44.8747368 136.853425,44.8747368 C136.982192,45.0673684 137.046575,45.26 137.110959,45.5168421 C137.110959,46.0947368 137.175342,46.6726316 137.30411,47.5073684 Z" id="Shape" fill="#000000" fill-rule="nonzero"/>
      <path d="M53.6054795,116.726316 C51.4164384,116.918947 49.5493151,117.817895 49.3561644,121.092632 C49.1630137,124.881053 65.130137,123.853684 65.3876712,119.872632 C65.6452055,115.891579 58.7561644,116.341053 53.6054795,116.726316 Z" id="Shape" fill="#78C8C8" fill-rule="nonzero"/>
      <path d="M61.3958904,106.709474 C60.3013699,106.902105 59.4,107.801053 59.2712329,111.075789 C59.2068493,114.864211 67.1260274,113.836842 67.3191781,109.855789 C67.5123288,105.874737 63.9712329,106.324211 61.3958904,106.709474 Z" id="Shape" fill="#78C8C8" fill-rule="nonzero"/>
      <path d="M78.0068493,115.634737 C77.6205479,111.846316 66.9328767,111.589474 67.2547945,115.506316 C67.5767123,119.423158 78.3287671,118.909474 78.0068493,115.634737 Z" id="Shape" fill="#00A0B4" fill-rule="nonzero"/>
      <path d="M61.7821918,86.9326316 C61.460274,84.0431579 50.7726027,84.3 51.030137,87.3178947 C51.2876712,90.3357895 62.039726,89.4368421 61.7821918,86.9326316 Z" id="Shape" fill="#78C8C8" fill-rule="nonzero"/>
      <path d="M80.0027397,107.287368 C79.8739726,105.296842 76.9767123,105.104211 77.0410959,107.223158 C77.1054795,109.342105 80.0671233,109.021053 80.0027397,107.287368 Z" id="Shape" fill="#78C8C8" fill-rule="nonzero"/>
      <path d="M49.4849315,84.2357895 C49.3561644,82.2452632 46.4589041,82.0526316 46.5232877,84.1715789 C46.5876712,86.2905263 49.6136986,85.9694737 49.4849315,84.2357895 Z" id="Shape" fill="#006482" fill-rule="nonzero"/>
      <path d="M46.330137,101.38 C46.1369863,97.5915789 40.6,97.3347368 40.7287671,101.251579 C40.8575342,105.168421 46.4589041,104.654737 46.330137,101.38 Z" id="Shape" fill="#78C8C8" fill-rule="nonzero"/>
      <path d="M115.928767,105.874737 C115.735616,102.086316 110.19863,101.829474 110.391781,105.746316 C110.584932,109.663158 116.057534,109.149474 115.928767,105.874737 Z" id="Shape" fill="#78C8C8" fill-rule="nonzero"/>
      <path d="M122.173973,105.810526 C122.109589,104.012632 119.469863,103.884211 119.59863,105.746316 C119.727397,107.608421 122.238356,107.351579 122.173973,105.810526 Z" id="Shape" fill="#78C8C8" fill-rule="nonzero"/>
      <path d="M91.5273973,120.322105 C91.4630137,118.524211 88.8232877,118.395789 88.8876712,120.257895 C88.9520548,122.12 91.5917808,121.863158 91.5273973,120.322105 Z" id="Shape" fill="#78C8C8" fill-rule="nonzero"/>
    </g>
  </g>
</svg>