<svg width="56px" height="48px" viewBox="0 0 56 48" version="1.1" xml:space="preserve" xmlns="http://www.w3.org/2000/svg" xmlns:xlink="http://www.w3.org/1999/xlink">
  <!-- Generator: Sketch 50.2 (55047) - http://www.bohemiancoding.com/sketch -->
  <defs/>
  <g>
    <title>MediaLab_PaperDoll_Accessory-03 2</title>
    <desc>Created with Sketch.</desc>
    <g id="Page-1" stroke="none" stroke-width="1" fill="none" fill-rule="evenodd">
      <g id="MediaLab_PaperDoll_Accessory-03">
        <g id="Group">
          <path d="M11.09,25.14 C4.16,29.4 0.53,35.73 0.53,39.94 C0.53,41.55 2.61,43.07 6.07,44.3 C8.06696998,36.0934295 12.0232383,28.4931395 17.6,22.15 C15.3183633,22.8830679 13.1327847,23.8868897 11.09,25.14 Z" id="Shape" fill="#F03922" fill-rule="nonzero"/>
          <path d="M55.47,39.94 C55.47,35.27 51,27.94 42.53,23.82 C40.8367875,22.9888287 39.0689603,22.3191972 37.25,21.82 C43.0852606,28.335184 47.1878138,36.2135992 49.18,44.73 C53.08,43.48 55.47,41.84 55.47,39.94 Z" id="Shape" fill="#EF8225" fill-rule="nonzero"/>
          <path d="M28,20.58 C24.4729536,20.5616889 20.9644645,21.0913358 17.6,22.15 C12.0232383,28.4931395 8.06696998,36.0934295 6.07,44.3 C11.15,46.12 19.2,47.3 28,47.3 C36.37,47.3 44.07,46.3 49.18,44.71 C47.1846864,36.2006984 43.0823116,28.3295032 37.25,21.82 C34.2377887,20.9860545 31.1255012,20.5688397 28,20.58 Z" id="Shape" fill="#F05822" fill-rule="nonzero"/>
          <path d="M42.53,23.82 C40.8367875,22.9888287 39.0689603,22.3191972 37.25,21.82 C30.8016467,20.0610897 23.9856557,20.1755567 17.6,22.15 C15.3179026,22.8862322 13.1323057,23.8934197 11.09,25.15 C4.16,29.41 0.53,35.74 0.53,39.95 C0.53,41.56 2.61,43.08 6.07,44.31 C11.15,46.13 19.2,47.31 28,47.31 C36.37,47.31 44.07,46.31 49.18,44.72 C53.08,43.47 55.47,41.83 55.47,39.93 C55.47,35.27 51,28 42.53,23.82 Z" id="Shape" stroke="#A80054" stroke-width="0.8" stroke-linecap="round" stroke-linejoin="round"/>
          <path d="M10,24.75 C11.1161862,25.1905218 12.2712502,25.5253229 13.45,25.75 C17.3022878,23.3753943 21.4119986,21.4463464 25.7,20 C20.1528326,20.251595 14.7562789,21.8843103 10,24.75 Z" id="Shape" fill="#14601E" fill-rule="nonzero"/>
          <path d="M43.32,23.35 C38.6405942,21.0971028 33.5134941,19.928124 28.32,19.9299977 C32.2036847,21.2011885 35.9334214,22.9017069 39.44,25 C40.8027389,24.6301257 42.1082572,24.074944 43.32,23.35 Z" id="Shape" fill="#2EB73E" fill-rule="nonzero"/>
          <path d="M28.31,19.93 L27.9,19.93 C27.15,19.93 26.42,19.93 25.7,19.99 C21.3965005,21.4201518 17.2699034,23.3358322 13.4,25.7 C14.5704,25.9258084 15.7581906,26.0496063 16.95,26.07 C16.95,26.07 16.41,33.16 17.84,33.81 C19.27,34.46 24.34,31.22 26.37,29.08 C26.37,29.08 31.37,34.39 34.25,33.57 C36.31,32.99 35.64,25.76 35.64,25.76 C36.9249455,25.6036677 38.1955544,25.3462022 39.44,24.99 C35.9298128,22.8944933 32.1967032,21.1973204 28.31,19.93 Z" id="Shape" fill="#149948" fill-rule="nonzero"/>
          <path d="M43.32,23.35 C38.6405942,21.0971028 33.5134941,19.928124 28.32,19.93 L27.9,19.93 C27.15,19.93 26.42,19.93 25.7,19.99 C20.1519576,20.244629 14.7553444,21.8807996 10,24.75 C11.1161862,25.1905218 12.2712502,25.5253229 13.45,25.75 C14.6204,25.9758084 15.8081906,26.0996063 17,26.12 C17,26.12 16.46,33.21 17.89,33.86 C19.32,34.51 24.39,31.27 26.42,29.13 C26.42,29.13 31.42,34.44 34.3,33.62 C36.36,33.04 35.69,25.81 35.69,25.81 C36.9749455,25.6536677 38.2455544,25.3962022 39.49,25.04 C40.837512,24.6532717 42.1260347,24.0847069 43.32,23.35 Z" id="Shape" stroke="#14601E" stroke-width="0.8" stroke-linecap="round" stroke-linejoin="round"/>
          <path d="M22.49,20.3 C22.2618968,17.3143117 21.763183,14.3554995 21,11.46 C19.8,6.84 18.57,4.24 19.57,2.46 C20.86,0.15 24.66,-0.18 26.37,3.12 C28.23,6.69 29.76,12.24 30.58,20.02 C30.58,20.02 29.58,21.02 26.67,21.13 C23.76,21.24 22.49,20.3 22.49,20.3 Z" id="Shape" stroke="#14601E" stroke-width="0.8" fill="#149948" fill-rule="nonzero" stroke-linecap="round" stroke-linejoin="round"/>
          <path d="M24.42,15.55 C24.54,16.33 24.49,16.03 24.62,16.88" id="Shape" stroke="#006F20" stroke-width="1.6" stroke-linecap="round" stroke-linejoin="round"/>
          <path d="M21.85,6.24 C22.8192303,8.40507106 23.5404808,10.6728167 24,13" id="Shape" stroke="#006F20" stroke-width="1.6" stroke-linecap="round" stroke-linejoin="round"/>
          <path d="M50.09,34.41 C50.36,34.88 50.37,34.91 50.65,35.41" id="Shape" stroke="#EFC900" stroke-width="1.33" stroke-linecap="round" stroke-linejoin="round"/>
          <path d="M45.23,28.24 C46.6435498,29.4711345 47.8727873,30.8990707 48.88,32.48" id="Shape" stroke="#EFC900" stroke-width="1.33" stroke-linecap="round" stroke-linejoin="round"/>
        </g>
      </g>
    </g>
  </g>
</svg>