<svg width="197px" height="147px" viewBox="0 0 197 147" version="1.1" xml:space="preserve" xmlns="http://www.w3.org/2000/svg" xmlns:xlink="http://www.w3.org/1999/xlink">
  <defs/>
  <g>
    <title>ghost-a</title>
    <desc>Created with Sketch.</desc>
    <g id="ghost-a" stroke="none" stroke-width="1" fill="none" fill-rule="evenodd">
      <path d="M97.2413793,118.249065 C96.6594828,124.010748 94.8491379,125.931308 91.2931034,126.763551 C89.4827586,127.211682 87.737069,127.275701 86.1206897,126.443458 C82.6939655,124.650935 81.9827586,119.657477 80.237069,116.392523 C76.7456897,115.432243 77.1982759,119.081308 72.2198276,119.081308 C63.5560345,119.081308 63.6206897,114.535981 62.0043103,101.540187 C60.387931,88.5443925 96.012931,92.5775701 96.012931,92.5775701 C96.012931,92.5775701 97.8232759,112.551402 97.2413793,118.249065 Z" id="Shape" fill="#00A0B4" fill-rule="nonzero"/>
      <path d="M75.3232759,97.8271028 L64.137931,98.403271 C64.3965517,104.677103 66.4008621,137.518692 69.6982759,141.807944 L70.4094828,141.935981 C70.7327586,141.103738 69.8275862,137.774766 71.0560345,137.710748 C72.2198276,138.542991 72.0905172,140.911682 73.0603448,142 C73.5775862,140.719626 71.7672414,137.774766 74.0301724,137.518692 C74.5474138,138.671028 74.9353448,140.591589 75.9698276,141.423832 C76.9396552,139.695327 76.2284483,106.085514 75.3232759,97.8271028 Z" id="Shape" fill="#78C8C8" fill-rule="nonzero"/>
      <path d="M73.1896552,116.008411 C70.4741379,116.136449 70.2155172,120.105607 73.0603448,119.97757 C75.9051724,119.849533 75.5172414,115.880374 73.1896552,116.008411 Z" id="Shape" fill="#AADCDC" fill-rule="nonzero"/>
      <path d="M69.1163793,122.794393 C67.6293103,122.858411 67.5,125.035047 69.0517241,124.971028 C70.6034483,124.907009 70.4094828,122.794393 69.1163793,122.794393 Z" id="Shape" fill="#AADCDC" fill-rule="nonzero"/>
      <path d="M103.189655,115.432243 C101.961207,112.16729 103.448276,96.2266355 103.448276,96.2266355 L129.116379,99.1074766 C129.116379,99.1074766 130.021552,107.493925 130.150862,110.118692 C130.474138,122.026168 126.594828,123.626636 123.943966,123.562617 C120.258621,123.434579 114.375,116.008411 113.146552,113.383645 C111.659483,110.118692 105.517241,112.231308 103.189655,115.432243 Z" id="Shape" fill="#00A0B4" fill-rule="nonzero"/>
      <path d="M126.918103,104.100935 L116.314655,99.4915888 C116.314655,103.780841 116.37931,138.542991 117.284483,140.207477 C118.577586,139.05514 118.189655,137.134579 119.224138,135.982243 L119.806034,135.982243 C121.099138,137.326636 119.87069,139.759346 120.711207,141.359813 C122.844828,140.591589 122.068966,136.942523 123.491379,135.598131 C124.784483,136.366355 123.75,138.542991 124.784483,138.991121 C126.918103,137.518692 127.176724,130.860748 127.435345,128.620093 C127.887931,124.714953 128.081897,120.745794 128.017241,116.776636 C128.017241,112.871495 127.952586,107.878037 126.918103,104.100935 Z" id="Shape" fill="#78C8C8" fill-rule="nonzero"/>
      <path d="M120.646552,119.913551 C116.896552,120.48972 117.025862,132.525234 120.969828,132.013084 C124.913793,131.500935 123.87931,119.465421 120.646552,119.913551 Z" id="Shape" fill="#AADCDC" fill-rule="nonzero"/>
      <rect id="Rectangle-path" fill="#006482" fill-rule="nonzero" x="84.3103448" y="43.8593458" width="27.9956897" height="21.1901869"/>
      <path d="M98.7931034,45.2037383 C98.7931034,45.2037383 98.0818966,49.1088785 99.9568966,49.8130841 C101.831897,50.5172897 103.383621,50.5813084 104.094828,49.1088785 C104.806034,47.6364486 104.612069,44.435514 104.612069,44.435514 L98.7931034,45.2037383 Z" id="Shape" fill="#FFFFFF" fill-rule="nonzero"/>
      <path d="M109.849138,64.985514 C108.943966,69.8509346 103.189655,73.6920561 94.9784483,72.2196262 C88.512931,71.0672897 83.5991379,68.5705607 84.5043103,63.8971963 C85.5387931,58.7757009 91.9396552,55.9588785 99.375,57.111215 C107.456897,58.2635514 111.465517,58.9037383 109.849138,64.985514 Z" id="Shape" fill="#000000" fill-rule="nonzero"/>
      <path d="M134.288793,79.6457944 C132.737069,63.2570093 135.711207,47.3803738 130.668103,31.3757009 C126.271552,17.3556075 118.836207,8.71308411 104.224138,5.7682243 C90.1293103,2.95140187 72.8017241,10.4415888 66.9827586,23.1172897 C60.5818966,37.0733645 62.0043103,53.1420561 60.9051724,67.9303738 C60.2586207,76.3168224 60.8405172,84.3191589 61.2284483,92.7696262 C61.5517241,100.707944 63.9439655,115.496262 71.8318966,114.08785 C75.4525862,113.447664 77.1336207,108.390187 82.3060345,108.966355 C87.4784483,109.542523 86.1206897,116.008411 87.4784483,117.864953 C90,121.321963 96.0775862,124.202804 100.215517,122.602336 C108.685345,119.273364 102.413793,104.869159 109.590517,104.292991 C116.767241,103.716822 117.801724,112.615421 120.193966,115.304206 C123.103448,118.633178 128.340517,119.337383 130.926724,115.304206 C133.512931,111.271028 133.25431,104.549065 133.448276,99.9397196 C133.771552,93.2817757 134.87069,86.2397196 134.288793,79.6457944 Z M107.780172,54.8065421 C107.586207,60.632243 102.413793,62.296729 97.5646552,62.296729 C92.7155172,62.296729 88.6422414,59.8640187 88.0603448,54.8705607 C87.4784483,49.8771028 91.487069,45.7158879 98.2112069,46.1 C104.547414,46.5481308 107.974138,48.9808411 107.780172,54.8065421 Z" id="Shape" fill="#AADCDC" fill-rule="nonzero"/>
      <path d="M81.4008621,15.3070093 C78.1681034,13.3224299 70.3448276,22.5411215 73.7068966,24.6537383 C77.0689655,26.7663551 84.1810345,17.035514 81.4008621,15.3070093 Z" id="Shape" fill="#78C8C8" fill-rule="nonzero"/>
      <path d="M74.9353448,51.4775701 C74.4181034,51.0934579 74.1594828,50.5172897 74.2241379,49.9411215 C74.0948276,49.428972 74.2887931,48.8528037 74.7413793,48.5327103 C75.387931,48.7247664 75.5818966,48.9168224 75.6465517,49.621028 C75.7112069,50.3252336 75.7758621,51.0934579 74.9353448,51.4775701 Z" id="Shape" fill="#000000" fill-rule="nonzero"/>
      <path d="M119.87069,50.453271 C119.159483,49.7490654 119.159483,48.596729 119.87069,47.8925234 C119.87069,47.8925234 119.87069,47.8925234 119.87069,47.8925234 C120.193966,47.8285047 120.387931,48.0205607 120.517241,48.2766355 C120.840517,48.7247664 120.905172,49.3009346 120.711207,49.8130841 L119.87069,50.453271 Z" id="Shape" fill="#000000" fill-rule="nonzero"/>
      <path d="M122.974138,107.173832 C123.168103,109.350467 124.073276,111.207009 127.37069,111.399065 C131.185345,111.591121 130.150862,95.714486 126.142241,95.4584112 C122.133621,95.2023364 122.586207,102.052336 122.974138,107.173832 Z" id="Shape" fill="#78C8C8" fill-rule="nonzero"/>
      <path d="M112.887931,99.4915888 C113.081897,100.579907 113.987069,101.476168 117.284483,101.604206 C121.099138,101.668224 120.064655,93.7939252 116.056034,93.6018692 C112.047414,93.4098131 112.5,96.9308411 112.887931,99.4915888 Z" id="Shape" fill="#78C8C8" fill-rule="nonzero"/>
      <path d="M129.375,82.9107477 C125.560345,83.2948598 125.301724,93.9219626 129.24569,93.6018692 C133.189655,93.2817757 132.672414,82.5906542 129.375,82.9107477 Z" id="Shape" fill="#00A0B4" fill-rule="nonzero"/>
      <path d="M80.9482759,100.195794 C77.1336207,100.38785 76.875,105.893458 80.8189655,105.701402 C84.762931,105.509346 84.2456897,100.067757 80.9482759,100.195794 Z" id="Shape" fill="#006482" fill-rule="nonzero"/>
      <path d="M65.3663793,80.8621495 C62.6508621,80.9901869 62.3922414,84.9593458 65.237069,84.8313084 C68.0818966,84.703271 67.7586207,80.7981308 65.3663793,80.8621495 Z" id="Shape" fill="#78C8C8" fill-rule="nonzero"/>
      <path d="M109.267241,85.5995327 C106.551724,85.7275701 106.357759,89.696729 109.137931,89.5686916 C111.918103,89.4406542 111.659483,85.4714953 109.267241,85.5995327 Z" id="Shape" fill="#78C8C8" fill-rule="nonzero"/>
      <path d="M86.8318966,75.6126168 C84.1163793,75.7406542 83.9224138,79.7098131 86.7025862,79.5817757 C89.4827586,79.4537383 89.1594828,75.4845794 86.8318966,75.6126168 Z" id="Shape" fill="#00A0B4" fill-rule="nonzero"/>
      <path d="M65.4956897,102.564486 C65.7543103,105.829439 67.2413793,108.518224 72.3491379,108.774299 C78.2974138,109.094393 76.6810345,85.6635514 70.4741379,85.2794393 C64.2672414,84.8953271 64.9137931,95.0102804 65.4956897,102.564486 Z" id="Shape" fill="#78C8C8" fill-rule="nonzero"/>
    </g>
  </g>
</svg>