<svg width="197px" height="147px" viewBox="0 0 197 147" version="1.1" xml:space="preserve" xmlns="http://www.w3.org/2000/svg" xmlns:xlink="http://www.w3.org/1999/xlink">
  <defs/>
  <g>
    <title>ghost-c</title>
    <desc>Created with Sketch.</desc>
    <g id="ghost-c" stroke="none" stroke-width="1" fill="none" fill-rule="evenodd">
      <path d="M158.712766,42.271066 C160.321809,37.9857868 159.935638,33.2527919 157.74734,29.2233503 C155.623404,25.4497462 153.113298,23.1472081 152.276596,18.6700508 C151.761702,16.1116751 152.019149,13.6172589 152.340957,11.0588832 C152.469681,9.84365482 153.499468,6.5177665 152.276596,5.62233503 C150.860638,5.36649746 149.830851,9.84365482 149.573404,10.6751269 L149.122872,11.1228426 C145.26117,12.4659898 147.12766,5.30253807 146.677128,3.89543147 C146.484043,3.63959391 146.097872,3.51167513 145.776064,3.63959391 C144.10266,6.00609137 144.875,9.20406091 143.072872,11.4426396 L142.364894,11.6984772 C141.399468,11.5705584 140.562766,11.0588832 139.983511,10.2913706 C139.726064,9.07614213 140.691489,5.30253807 139.532979,4.34314721 C136.18617,4.27918782 136.379255,11.7624365 136.443617,13.8730964 C136.636702,17.5827411 137.280319,21.164467 139.59734,24.1705584 C144.424468,30.5664975 147.51383,34.6598985 142.364894,41.8233503 C140.176596,44.893401 137.795213,47.6436548 137.666489,51.5451777 C137.537766,55.5746193 139.854787,58.7725888 141.46383,62.2903553 C142.751064,65.1045685 143.394681,69.4538071 140.627128,71.6284264 C138.567553,73.2274112 132.710638,73.035533 128.655851,73.0994924 L128.655851,86.2751269 C133.804787,86.2751269 139.59734,85.7634518 144.231383,84.3563452 C147.835638,83.2050761 150.925,80.8385787 152.855851,77.5766497 C155.044149,74.1228426 155.301596,69.0700508 154.271809,65.1685279 C153.17766,61.0751269 150.603191,57.8771574 151.504255,53.4 C152.405319,48.9228426 157.103723,46.4284264 158.712766,42.271066 Z" id="Shape" fill="#78C8C8" fill-rule="nonzero"/>
      <path d="M139.468617,77.448731 C135.671277,77.6406091 135.41383,83.1411168 139.339894,82.9492386 C143.265957,82.7573604 142.751064,77.2568528 139.468617,77.448731 Z" id="Shape" fill="#AADCDC" fill-rule="nonzero"/>
      <path d="M142.686702,49.0507614 C140.562766,49.1786802 140.369681,52.248731 142.62234,52.1847716 C144.875,52.1208122 144.48883,48.986802 142.686702,49.0507614 Z" id="Shape" fill="#AADCDC" fill-rule="nonzero"/>
      <path d="M150.345745,67.0873096 C148.221809,67.2152284 148.028723,70.2852792 150.281383,70.2213198 C152.534043,70.1573604 152.147872,67.0233503 150.345745,67.0873096 Z" id="Shape" fill="#AADCDC" fill-rule="nonzero"/>
      <path d="M140.755851,15.3441624 C138.631915,15.4720812 138.43883,18.542132 140.691489,18.4781726 C142.944149,18.4142132 142.62234,15.280203 140.755851,15.3441624 Z" id="Shape" fill="#AADCDC" fill-rule="nonzero"/>
      <path d="M67.0617021,71.7563452 C63.1356383,71.6284264 57.3430851,71.1807107 56.0558511,69.7096447 C52.7734043,65.8720812 54.5755319,58.3888325 56.4420213,54.2314721 C57.793617,51.2893401 58.437234,48.7309645 57.2787234,45.5969543 C56.2489362,42.7187817 54.0606383,40.6720812 52.7734043,37.9218274 C51.2930851,34.7878173 51.1,31.8456853 52.837766,28.8395939 C54.7042553,25.6416244 57.2143617,24.2345178 57.2143617,20.2690355 C57.2143617,16.9431472 56.506383,13.6172589 55.0904255,10.5472081 C54.5755319,9.45989848 52.1297872,4.21522843 50.2632979,5.17461929 C50.0058511,6.5177665 53.2882979,10.7390863 51.1,11.6345178 C48.2037234,12.2101523 47.7531915,5.23857868 44.406383,6.5177665 C42.6042553,8.18071066 48.9117021,12.2101523 45.3074468,13.6172589 C42.9260638,13.0416244 41.8962766,10.5472081 39.3218085,10.0994924 C37.712766,11.0588832 42.668617,17.2629442 43.1191489,18.6700508 C44.5994681,22.8913706 42.668617,26.3451777 41.3170213,30.2467005 C39.9654255,34.1482234 40.2228723,37.6659898 42.4755319,41.119797 C44.7925532,44.7015228 46.8521277,47.1959391 46.5303191,51.7370558 C45.9510638,59.4761421 40.287234,66.2558376 42.8617021,74.186802 C44.0845745,77.7685279 46.8521277,80.6467005 50.3920213,82.0538071 C55.7340426,83.8446701 61.3335106,84.8680203 66.9973404,84.9959391 L67.0617021,71.7563452 Z" id="Shape" fill="#78C8C8" fill-rule="nonzero"/>
      <path d="M44.1489362,32.6771574 C42.025,32.8050761 41.8319149,35.8751269 44.0845745,35.8111675 C46.337234,35.7472081 46.0154255,32.5492386 44.1489362,32.6771574 Z" id="Shape" fill="#AADCDC" fill-rule="nonzero"/>
      <path d="M49.5553191,53.6558376 C47.431383,53.7837563 47.2382979,56.8538071 49.4909574,56.7898477 C51.743617,56.7258883 51.3574468,53.5918782 49.5553191,53.6558376 Z" id="Shape" fill="#00A0B4" fill-rule="nonzero"/>
      <path d="M52.5159574,45.3411168 C47.9462766,45.5969543 47.5601064,52.248731 52.3228723,52.0568528 C57.0856383,51.8649746 56.506383,45.1492386 52.5159574,45.3411168 Z" id="Shape" fill="#AADCDC" fill-rule="nonzero"/>
      <rect id="Rectangle-path" fill="#006482" fill-rule="nonzero" x="76.6515957" y="38.2416244" width="43.5085106" height="33.1309645"/>
      <path d="M99.3069149,40.7360406 C99.3069149,40.7360406 98.5989362,44.6375635 100.465426,45.3411168 C102.331915,46.0446701 103.876596,46.1086294 104.584574,44.6375635 C105.292553,43.1664975 105.099468,39.9685279 105.099468,39.9685279 L99.3069149,40.7360406 Z" id="Shape" fill="#FFFFFF" fill-rule="nonzero"/>
      <path d="M101.366489,60.3715736 C93.45,59.2203046 86.3058511,60.8832487 82.0579787,64.5928934 L82.0579787,70.6050761 L115.783511,70.6050761 L115.783511,64.0812183 C113.015957,62.1624365 108.124468,61.3949239 101.366489,60.3715736 Z" id="Shape" fill="#000000" fill-rule="nonzero"/>
      <path d="M97.3117021,119.981726 C96.7324468,125.738071 94.9303191,127.656853 91.3904255,128.488325 C89.5882979,128.936041 87.8505319,129 86.2414894,128.168528 C82.8303191,126.377665 82.1223404,121.388832 80.3845745,118.126904 C76.9090426,117.167513 77.3595745,120.813198 72.4037234,120.813198 C63.7792553,120.813198 63.843617,116.272081 62.2345745,103.288325 C60.6255319,90.3045685 96.0888298,94.3340102 96.0888298,94.3340102 C96.0888298,94.3340102 97.8909574,114.28934 97.3117021,119.981726 Z" id="Shape" fill="#00A0B4" fill-rule="nonzero"/>
      <path d="M103.232979,117.167513 C102.010106,113.905584 103.490426,97.9796954 103.490426,97.9796954 L129.042021,100.857868 C129.042021,100.857868 129.943085,109.236548 130.071809,111.858883 C130.393617,123.75533 126.531915,125.226396 123.893085,125.290355 C112.050532,125.738071 115.075532,114.225381 111.921809,112.562437 C106.386702,109.684264 105.55,113.969543 103.232979,117.167513 Z" id="Shape" fill="#00A0B4" fill-rule="nonzero"/>
      <path d="M134.190957,81.4142132 C132.646277,65.0406091 135.606915,49.1786802 130.586702,33.1888325 C126.210106,19.1817259 118.808511,10.5472081 104.262766,7.60507614 C90.2319149,4.79086294 72.9829787,12.2741117 67.1904255,24.9380711 C60.818617,38.8812183 62.2345745,54.9350254 61.1404255,69.7096447 C60.4968085,78.0883249 61.0760638,86.0832487 61.462234,94.5258883 C61.7840426,102.456853 64.1654255,117.231472 72.0175532,115.824365 C75.6218085,115.184772 77.2952128,110.13198 82.4441489,110.707614 C87.5930851,111.283249 86.2414894,117.743147 87.5930851,119.59797 C90.1031915,123.051777 96.1531915,125.929949 100.27234,124.330964 C108.703723,121.005076 102.460638,106.614213 109.604787,106.038579 C116.748936,105.462944 117.778723,114.353299 120.160106,117.039594 C123.056383,120.365482 128.269681,121.069036 130.844149,117.039594 C133.418617,113.010152 133.16117,106.294416 133.354255,101.68934 C133.676064,95.0375635 134.770213,88.0020305 134.190957,81.4142132 Z M113.080319,55.3827411 C112.758511,64.4649746 104.713298,67.0873096 97.2473404,67.0873096 C89.781383,67.0873096 83.4095745,63.3137056 82.5085106,55.5746193 C81.6074468,47.835533 87.8505319,41.2477157 98.2771277,41.8873096 C108.060106,42.4629442 113.402128,46.2365482 113.080319,55.3827411 Z" id="Shape" fill="#AADCDC" fill-rule="nonzero"/>
      <path d="M122.92766,108.916751 C123.120745,111.091371 124.021809,112.946193 127.304255,113.138071 C131.101596,113.329949 130.071809,97.4680203 126.081383,97.2121827 C122.090957,96.9563452 122.541489,103.8 122.92766,108.916751 Z" id="Shape" fill="#78C8C8" fill-rule="nonzero"/>
      <path d="M112.887234,101.241624 C113.080319,102.328934 113.981383,103.224365 117.26383,103.352284 C121.06117,103.416244 120.031383,95.5492386 116.040957,95.3573604 C112.050532,95.1654822 112.501064,98.6832487 112.887234,101.241624 Z" id="Shape" fill="#78C8C8" fill-rule="nonzero"/>
      <path d="M121.318617,84.2923858 C117.521277,84.6761421 117.26383,95.293401 121.189894,94.9736041 C125.115957,94.6538071 124.601064,83.9725888 121.318617,84.2923858 Z" id="Shape" fill="#00A0B4" fill-rule="nonzero"/>
      <path d="M81.0925532,101.945178 C77.2952128,102.137056 77.037766,107.637563 80.9638298,107.445685 C84.8898936,107.253807 84.375,101.817259 81.0925532,101.945178 Z" id="Shape" fill="#006482" fill-rule="nonzero"/>
      <path d="M128.269681,67.5989848 C124.47234,67.7908629 124.214894,73.2913706 128.140957,73.0994924 C132.067021,72.9076142 131.552128,67.4071066 128.269681,67.5989848 Z" id="Shape" fill="#78C8C8" fill-rule="nonzero"/>
      <path d="M79.612234,17.1350254 C76.3941489,15.1522843 68.606383,24.3624365 71.9531915,26.4730964 C75.3,28.5837563 82.3797872,18.8619289 79.612234,17.1350254 Z" id="Shape" fill="#78C8C8" fill-rule="nonzero"/>
      <path d="M80.4489362,95.2294416 C77.7457447,95.3573604 77.4882979,99.3228426 80.3202128,99.1949239 C83.1521277,99.0670051 82.7659574,95.1015228 80.4489362,95.2294416 Z" id="Shape" fill="#78C8C8" fill-rule="nonzero"/>
      <path d="M97.0542553,83.6527919 C94.3510638,83.7807107 94.093617,87.7461929 96.9255319,87.6182741 C99.7574468,87.4903553 99.3712766,83.5248731 97.0542553,83.6527919 Z" id="Shape" fill="#78C8C8" fill-rule="nonzero"/>
      <path d="M91.9053191,113.713706 C89.2021277,113.841624 88.9446809,117.807107 91.7765957,117.679188 C94.6085106,117.551269 94.2223404,113.585787 91.9053191,113.713706 Z" id="Shape" fill="#78C8C8" fill-rule="nonzero"/>
      <path d="M106.837234,94.4619289 C104.134043,94.5898477 103.876596,98.5553299 106.708511,98.4274112 C109.540426,98.2994924 109.154255,94.3340102 106.837234,94.4619289 Z" id="Shape" fill="#00A0B4" fill-rule="nonzero"/>
      <path d="M65.7101064,104.311675 C65.9675532,107.573604 67.4478723,110.259898 72.5324468,110.515736 C78.4537234,110.835533 76.8446809,87.4263959 70.6659574,87.0426396 C64.487234,86.6588832 65.1308511,96.764467 65.7101064,104.311675 Z" id="Shape" fill="#78C8C8" fill-rule="nonzero"/>
      <path d="M117.328191,51.4812183 C118.679787,52.1208122 119.773936,53.080203 121.189894,53.2720812 C121.576064,53.3360406 121.897872,53.4 122.090957,53.8477157 L121.897872,54.1035533 C121.382979,54.1675127 120.932447,54.1035533 120.481915,53.8477157 C119.259043,53.2081218 118.03617,52.6324873 116.813298,51.9928934 C116.555851,51.8649746 116.234043,51.7370558 115.912234,51.6091371 L115.719149,51.0974619 L120.610638,48.4751269 L121.511702,48.6030457 L121.44734,49.0507614 C119.387766,50.0101523 118.03617,50.7137056 117.328191,51.4812183 Z" id="Shape" fill="#000000" fill-rule="nonzero"/>
      <path d="M75.2356383,51.6091371 C74.2702128,50.5218274 73.1760638,49.5624365 72.0819149,48.6030457 C71.8888298,48.3472081 71.9531915,48.0274112 72.2106383,47.835533 C72.2106383,47.835533 72.2106383,47.835533 72.275,47.835533 C72.3393617,47.835533 72.4680851,47.835533 72.5324468,47.8994924 C72.6611702,47.9634518 72.7255319,48.0274112 72.8542553,48.1553299 C73.8196809,49.3705584 74.9781915,50.457868 76.2654255,51.3532995 C76.587234,51.5451777 76.9734043,51.8010152 76.8446809,52.3766497 L76.2654255,52.5045685 C76.0723404,52.5045685 75.8792553,52.5685279 75.6861702,52.6324873 C74.7851064,53.0162437 73.9484043,53.4639594 73.0473404,53.8477157 L72.0175532,54.2954315 C71.5670213,54.2314721 71.3739362,54.1035533 71.4382979,53.719797 C72.6611702,53.1441624 73.8196809,52.5685279 74.9781915,51.9928934 C75.0425532,51.8649746 75.1069149,51.7370558 75.2356383,51.6091371 Z" id="Shape" fill="#000000" fill-rule="nonzero"/>
    </g>
  </g>
</svg>