<svg width="90px" height="87px" viewBox="0 0 90 87" version="1.1" xml:space="preserve" xmlns="http://www.w3.org/2000/svg" xmlns:xlink="http://www.w3.org/1999/xlink">
  <defs/>
  <g>
    <title>hen-a</title>
    <desc>Created with Sketch.</desc>
    <g id="hen-a" stroke="none" stroke-width="1" fill="none" fill-rule="evenodd">
      <g id="Group" transform="translate(31.867704, 66.252632)">
        <path d="M9.36770428,6.58257368 L9.36770428,19.4536263" id="Stroke-1" stroke="#FFDB5D" stroke-width="1.05"/>
        <path d="M18.1518093,19.4536263 C15.9851556,19.4536263 15.9851556,17.3378368 13.8185019,17.3378368 C11.6525486,17.3378368 11.6525486,19.4536263 9.48659533,19.4536263 C7.31924125,19.4536263 7.31924125,17.3378368 5.15188716,17.3378368 C2.98453307,17.3378368 2.98453307,19.4536263 0.817178988,19.4536263" id="Stroke-3" stroke="#FFDB5D" stroke-width="1.05"/>
        <path d="M10.5058366,0.0588894737 L10.5058366,8.0065 C10.5058366,9.10776842 9.18385214,9.65928421 8.41062257,8.88067368 L0.175097276,0.587836842 L10.5058366,0.0588894737 Z" id="Fill-5" fill="#FFF4E3"/>
      </g>
      <g id="Group-2" transform="translate(29.416342, 66.252632)">
        <path d="M1.1381323,8.69836316 L15.4523346,8.69836316 C17.265642,8.69836316 18.7354086,10.1783579 18.7354086,12.0042842 C18.7354086,13.8302105 17.265642,15.3102053 15.4523346,15.3102053 L14.7081712,15.3102053" id="Stroke-7" stroke="#FFDB5D" stroke-width="1.05"/>
        <path d="M0.262645914,0.0588894737 L0.262645914,8.0065 C0.262645914,9.10776842 1.58463035,9.65928421 2.35785992,8.88067368 L10.5933852,0.587836842 L0.262645914,0.0588894737 Z" id="Fill-9" fill="#FFF4E3"/>
      </g>
      <g id="Group-3" transform="translate(0.000000, 19.000000)">
        <path d="M69.6011673,18.1019895 C69.6011673,36.1489684 55.0722957,50.7789474 37.1496887,50.7789474 C19.2274319,50.7789474 4.69856031,36.1489684 4.69856031,18.1019895 L69.6011673,18.1019895 Z" id="Fill-11" fill="#FFF4E3"/>
        <path d="M13.3219261,26.7855421 L25.9009144,25.7904158 C26.0623541,24.7004316 26.1478016,23.5861158 26.1478016,22.4509947 C26.1478016,10.0517632 16.165856,0 3.85196498,0 C2.6035214,0 1.38064202,0.108610526 0.188229572,0.307142105 L7.412393,7.58157895 L0.116789883,7.58157895 L5.86558366,13.3707316 L-0.000175097276,13.3707316 L13.3219261,26.7855421 Z" id="Fill-13" fill="#FFF4E3"/>
        <path d="M80.9241829,17.5141526 L61.8312257,39.3113684 L59.9709922,18.2634947 C59.9709922,18.2634947 66.3182685,6.84704737 78.3999805,6.84704737 L80.9241829,17.5141526 Z" id="Fill-16" fill="#FFF4E3"/>
        <path d="M57.9279572,18.1019895 C57.9279572,29.6573737 48.6253891,39.0246789 37.1498638,39.0246789 C28.8527043,39.0246789 21.6912257,34.1273316 18.3608755,27.0468421 L30.9044942,27.0468421 L17.159358,18.1019895 L57.9279572,18.1019895 Z" id="Fill-18" fill="#F3E4CE"/>
      </g>
      <g id="Group-4" transform="translate(71.789883, 20.410526)">
        <path d="M16.0870623,17.7896637 C16.0870623,20.2422163 14.1126654,22.2307058 11.6767121,22.2307058 C9.24110895,22.2307058 7.26671206,20.2422163 7.26671206,17.7896637 C7.26671206,15.3371111 9.24110895,13.3486216 11.6767121,13.3486216 C14.1126654,13.3486216 16.0870623,15.3371111 16.0870623,17.7896637" id="Fill-20" fill="#CE2235"/>
        <path d="M15.0368288,4.89999211 C15.101965,4.60695526 15.1201751,4.29628684 15.0834047,3.97574474 C14.9433268,2.75951842 13.9760895,1.75592895 12.7717704,1.58560789 C11.5534436,1.41317105 10.4650389,2.05390263 9.95655642,3.04515 C9.95655642,3.03033947 9.95865759,3.01588158 9.95865759,3.00107105 C9.95865759,1.48546053 8.73857977,0.257244737 7.23379377,0.257244737 C6.1968677,0.257244737 5.2972179,0.841202632 4.83741245,1.69986053 C4.6798249,1.99430789 4.33558366,2.11067632 4.03301556,1.97315 C3.69122568,1.81869737 3.31266537,1.73265526 2.91344358,1.73371316 C1.47379377,1.73829737 0.248463035,2.93230789 0.198735409,4.38056579 C0.147607004,5.87255 1.27978599,7.10640789 2.72293774,7.21184474 L3.567607,7.21431316 C3.567607,7.21431316 3.96157588,8.94079737 4.24628405,8.98487632 C4.47706226,9.02084474 9.91383268,9.53568684 11.9530156,9.72822368 C12.4310311,10.7914079 13.559358,11.4945553 14.828463,11.3150658 C16.0215759,11.1468605 16.9835603,10.1647816 17.1365953,8.96160263 C17.2938327,7.72421842 16.6316148,6.62436053 15.6220039,6.13173421 C15.1685019,5.91063421 14.9268677,5.39508684 15.0368288,4.89999211" id="Fill-22" fill="#CE2235"/>
        <path d="M9.29349805,1.50453789 C9.29349805,1.50453789 9.02174708,0.799274737 9.46649416,1.43013263 C9.91159144,2.06063789 10.429179,2.26939579 11.0595292,1.90019053 C11.6898794,1.53098526 10.8714747,3.63302211 10.8714747,3.63302211 L9.73859533,3.72012211 L9.03400389,3.25535368 L9.29349805,1.50453789 Z" id="Fill-24" fill="#CE2235"/>
        <path d="M18.106144,14.1421132 C17.0089844,12.2463658 14.9761051,10.9684289 12.6399572,10.9684289 C10.3034591,10.9684289 8.27092996,12.2463658 7.17342023,14.1421132 L18.106144,14.1421132 Z" id="Fill-26" fill="#FFDB5D"/>
        <path d="M13.1322957,11.5118342 C13.1322957,14.8512553 10.4438521,17.5580553 7.12785992,17.5580553 C3.81151751,17.5580553 1.12342412,14.8512553 1.12342412,11.5118342 C1.12342412,8.17276579 3.81151751,5.46561316 7.12785992,5.46561316 C10.4438521,5.46561316 13.1322957,8.17276579 13.1322957,11.5118342" id="Fill-29" fill="#E8441D"/>
        <path d="M9.85605058,11.5118342 C9.85605058,13.0292079 8.63457198,14.2591868 7.12768482,14.2591868 C5.62114786,14.2591868 4.39966926,13.0292079 4.39966926,11.5118342 C4.39966926,9.99481316 5.62114786,8.76483421 7.12768482,8.76483421 C8.63457198,8.76483421 9.85605058,9.99481316 9.85605058,11.5118342" id="Fill-31" fill="#FFF4E3"/>
        <path d="M8.90807393,11.5118342 C8.90807393,12.5023763 8.11103113,13.3046132 7.12803502,13.3046132 C6.14433852,13.3046132 5.34764591,12.5023763 5.34764591,11.5118342 C5.34764591,10.5216447 6.14433852,9.71905526 7.12803502,9.71905526 C8.11103113,9.71905526 8.90807393,10.5216447 8.90807393,11.5118342" id="Fill-33" fill="#17242D"/>
      </g>
    </g>
  </g>
</svg>