<svg width="191px" height="86px" viewBox="0 0 191 86" version="1.1" xml:space="preserve" xmlns="http://www.w3.org/2000/svg" xmlns:xlink="http://www.w3.org/1999/xlink">
  <defs>
    <polygon id="path-1" points="0.69960412 0.655614754 9.59856292 0.655614754 9.59856292 11.5829918 0.69960412 11.5829918"/>
  </defs>
  <g>
    <title>lion-b</title>
    <desc>Created with Sketch.</desc>
    <g id="lion-b" stroke="none" stroke-width="1" fill="none" fill-rule="evenodd">
      <g id="Group" transform="translate(3.000000, 0.000000)">
        <path d="M68.0662491,84.7798361 L55.4595075,84.7798361 C52.6475037,71.8305738 52.5508521,73.4030738 51.2236423,68.4939754 C50.6941592,66.5340984 48.8598783,62.5718443 49.7129345,60.2204098 C50.5659906,57.8689754 55.4013764,48.5942213 53.4942566,35.9229508 C51.5878371,23.2509836 75.9405599,17.0668852 80.0209419,19.7666803 C84.1020243,22.4664754 90.6946498,33.0043852 83.4688858,41.6702049 C76.2438221,50.3353279 69.5412378,55.212377 66.6066685,57.3464344 C63.6713989,59.4797951 60.5855487,62.1022541 59.621133,63.660123 C58.7113464,65.1288115 58.8801367,65.1037295 60.8026648,76.1140164 C61.4414064,78.0376639 61.0688071,78.3783607 62.4632528,78.2480738 C63.8583989,78.1170902 68.7323052,77.2636066 68.7323052,77.2636066 C68.7323052,77.2636066 72.8897285,76.8546311 71.8923951,79.5544262 C71.0218296,81.9128279 69.5804588,83.7786475 68.0662491,84.7798361" id="Fill-1" fill="#BB8E5D"/>
        <path d="M68.0662491,84.7798361 L55.4595075,84.7798361 C52.6475037,71.8305738 52.5508521,73.4030738 51.2236423,68.4939754 C50.6941592,66.5340984 48.8598783,62.5718443 49.7129345,60.2204098 C50.5659906,57.8689754 55.4013764,48.5942213 53.4942566,35.9229508 C51.5878371,23.2509836 75.9405599,17.0668852 80.0209419,19.7666803 C84.1020243,22.4664754 90.6946498,33.0043852 83.4688858,41.6702049 C76.2438221,50.3353279 69.5412378,55.212377 66.6066685,57.3464344 C63.6713989,59.4797951 60.5855487,62.1022541 59.621133,63.660123 C58.7113464,65.1288115 58.8801367,65.1037295 60.8026648,76.1140164 C61.2754176,78.7267213 61.7397659,78.3727869 63.1251067,78.1672541 C65.1940131,77.8593033 69.0187584,77.2162295 69.0187584,77.2162295 C69.0187584,77.2162295 72.8897285,76.8546311 71.8923951,79.5544262 C71.0218296,81.9128279 69.5804588,83.7786475 68.0662491,84.7798361 Z" id="Stroke-3" stroke="#784E3D" stroke-width="0.525"/>
        <path d="M65.1942933,80.468873 C65.1942933,80.468873 65.321061,80.3769057 65.5563869,80.2368648 C65.6747502,80.1678893 65.8190273,80.0849795 65.9899187,80.001373 C66.158709,79.908709 66.3562146,79.8174385 66.5901397,79.7895697 C66.817061,79.738709 67.0670948,79.691332 67.336739,79.6592828 C67.6056828,79.6272336 67.8935367,79.598668 68.2038026,79.6251434 C68.5070648,79.6432582 68.8544506,79.7017828 69.1654169,79.9268238 C69.3314056,80.0278484 69.4378625,80.2055123 69.5338139,80.3769057 L69.6024506,80.6542008 L69.6171584,80.7231762 C69.6192596,80.7489549 69.6234618,80.7148156 69.6241622,80.7900615 L69.6227614,80.8179303 L69.6164581,80.9307992 C69.627664,81.2073975 69.524709,81.5933811 69.4077464,81.8901844 C69.3405105,82.033709 69.2739749,82.1758402 69.2088401,82.3165779 C69.128297,82.446168 69.0484543,82.573668 68.9707127,82.6997746 C68.8201322,82.956168 68.6282296,83.163791 68.4699449,83.3818648 C68.2927502,83.5797336 68.1246603,83.7678484 67.9691772,83.9406352 C67.8199974,84.1189959 67.6350985,84.2353484 67.4712109,84.3342828 C67.3129262,84.4401844 67.1616453,84.5126434 67.0446828,84.5816189 C66.8058551,84.7132992 66.6657801,84.7794877 66.6657801,84.7794877 C66.6657801,84.7794877 66.7547277,84.6492008 66.9158139,84.4346107 C66.9949562,84.3259221 67.1007127,84.2053893 67.2015667,84.048627 C67.3010199,83.8904713 67.4151809,83.7176844 67.5902745,83.5790369 C67.7373532,83.4153074 67.8963382,83.2369467 68.0651285,83.048832 C68.2108064,82.8460861 68.3950049,82.6489139 68.5301772,82.4155123 C68.600915,82.30125 68.6737539,82.1848975 68.7472933,82.0671516 C68.8040236,81.9445287 68.8621547,81.8191189 68.9202858,81.693709 C69.0099337,81.4394057 69.0960798,81.2394467 69.0918775,80.9092008 L69.0974805,80.796332 L69.0988813,80.7684631 C69.1016828,80.8242008 69.0960798,80.7726434 69.0953794,80.7796107 L69.0841734,80.7392008 L69.0484543,80.5768648 C68.9882221,80.4946516 68.9511022,80.3992008 68.8523494,80.34625 C68.6828588,80.21875 68.4244206,80.1581352 68.1673831,80.146291 C67.9110461,80.1232992 67.6470049,80.1483811 67.4011734,80.1776434 C67.1539412,80.2076025 66.9186154,80.2514959 66.7036004,80.3002664 C66.5936416,80.3155943 66.4962895,80.3643648 66.3940348,80.3720287 C66.2910798,80.3789959 66.1930273,80.3845697 66.1005779,80.3901434 C65.9149787,80.4054713 65.7524918,80.418709 65.6194206,80.4298566 C65.349076,80.4542418 65.1942933,80.468873 65.1942933,80.468873" id="Fill-5" fill="#784E3D"/>
        <path d="M151.371457,42.8030738 L148.161641,48.0284836 L166.604603,58.5956557 C166.604603,58.5956557 167.873682,59.3934016 167.304978,62.4415574 L166.517057,67.4063934 C166.517057,67.4063934 166.122746,69.1043033 167.042337,70.3235656 C167.961229,71.5428279 170.587633,75.0264344 170.587633,75.0264344 C170.587633,75.0264344 172.120053,77.0734016 168.61818,77.4217623 C165.116307,77.770123 165.116307,77.6830328 163.496341,77.4217623 C161.877075,77.1604918 160.870637,74.242623 158.462749,70.9770902 C156.054862,67.7108607 155.085543,67.0580328 155.570203,65.9690574 C156.054862,64.880082 158.083146,63.1821721 156.011439,61.9629098 C154.837611,61.272459 144.017525,58.0870492 140.603199,57.4342213 L132.723985,56.1710656 C132.723985,56.1710656 135.788124,47.6982377 136.269982,43.8913525 C136.751139,40.0851639 134.168858,33.0489754 134.168858,33.0489754 L156.157116,30.8347951 C156.157116,30.8347951 152.470345,40.0705328 151.371457,42.8030738" id="Fill-7" fill="#BB8E5D"/>
        <path d="M151.371457,42.8030738 L148.161641,48.0284836 L166.604603,58.5956557 C166.604603,58.5956557 167.873682,59.3934016 167.304978,62.4415574 L166.517057,67.4063934 C166.517057,67.4063934 166.122746,69.1043033 167.042337,70.3235656 C167.961229,71.5428279 170.587633,75.0264344 170.587633,75.0264344 C170.587633,75.0264344 172.120053,77.0734016 168.61818,77.4217623 C165.116307,77.770123 165.116307,77.6830328 163.496341,77.4217623 C161.877075,77.1604918 160.870637,74.242623 158.462749,70.9770902 C156.054862,67.7108607 155.085543,67.0580328 155.570203,65.9690574 C156.054862,64.880082 158.200109,63.0079918 156.011439,61.9629098 C154.782281,61.3762705 144.017525,58.0870492 140.603199,57.4342213 L132.723985,56.1710656 C132.723985,56.1710656 135.788124,47.6982377 136.269982,43.8913525 C136.751139,40.0851639 134.168858,33.0489754 134.168858,33.0489754 L156.157116,30.8347951 C156.157116,30.8347951 152.470345,40.0705328 151.371457,42.8030738 Z" id="Stroke-9" stroke="#784E3D" stroke-width="0.525"/>
        <path d="M167.261204,73.2846311 C167.261204,73.2846311 167.419489,73.359877 167.673725,73.5305738 C167.799793,73.6176639 167.951774,73.724959 168.119864,73.865 C168.204609,73.932582 168.290755,74.0127049 168.383204,74.0984016 C168.470751,74.1903689 168.52398,74.3136885 168.596118,74.4370082 C168.664055,74.5631148 168.724287,74.7087295 168.761407,74.8815164 C168.783819,75.0556967 168.789422,75.292582 168.643043,75.4793033 C168.50507,75.6604508 168.437834,75.7147951 168.310366,75.8422951 C168.180096,75.9481967 168.05683,76.079877 167.908351,76.164877 C167.6261,76.3620492 167.301126,76.517418 166.962845,76.6261066 C166.623864,76.7431557 166.272276,76.7995902 165.918587,76.8441803 C165.566999,76.8797131 165.21401,76.8797131 164.870126,76.8797131 C164.524841,76.8511475 164.197766,76.8358197 163.859485,76.7968033 C163.540815,76.7396721 163.248759,76.7208607 162.942695,76.6372541 C162.792815,76.6003279 162.647137,76.5640984 162.505661,76.5292623 C162.367688,76.4777049 162.233916,76.427541 162.105748,76.3794672 C161.842407,76.2847131 161.629493,76.1091393 161.494321,75.9154508 C161.350744,75.7356967 161.263197,75.5552459 161.207167,75.4152049 C161.092306,75.1302459 161.046781,74.965123 161.046781,74.965123 C161.046781,74.965123 161.165145,75.0898361 161.371755,75.3086066 C161.471208,75.4172951 161.599377,75.5343443 161.761864,75.6284016 C161.84801,75.6709016 161.920849,75.7294262 162.028006,75.7545082 C162.133763,75.7788934 162.198897,75.8708607 162.317261,75.9008197 C162.427219,75.9419262 162.542081,75.985123 162.661145,76.0297131 C162.785811,76.0603689 162.916081,76.092418 163.049152,76.1251639 C163.30689,76.2004098 163.633264,76.2254918 163.941429,76.2805328 C164.234886,76.3132787 164.565463,76.3306967 164.886935,76.3578689 C165.209107,76.3571721 165.539684,76.3571721 165.861856,76.325123 C166.184028,76.2840164 166.501999,76.2331557 166.797557,76.130041 C167.093815,76.0352869 167.369062,75.9029098 167.60719,75.7363934 C167.73816,75.6639344 167.827807,75.5594262 167.936366,75.4758197 C168.026013,75.3908197 168.177995,75.2354508 168.209512,75.1831967 C168.290755,75.0968033 168.241028,74.8752459 168.13107,74.6801639 C168.086246,74.5784426 168.002201,74.5011066 167.958077,74.4028689 C167.910452,74.3039344 167.864227,74.2084836 167.8131,74.1213934 C167.715047,73.945123 167.616294,73.7946311 167.532249,73.6720082 C167.359957,73.4253689 167.261204,73.2846311 167.261204,73.2846311" id="Fill-11" fill="#784E3D"/>
        <g id="Group-16" transform="translate(52.528090, 2.131270)">
          <path d="M119.479133,7.94457377 C119.479133,7.94457377 124.697623,10.5962951 127.236481,13.3831803 L126.857578,11.9897377 C126.857578,11.9897377 129.483983,12.9477295 130.767769,13.9928115 C130.767769,13.9928115 130.125526,9.95740164 126.740616,7.28686885 C126.740616,7.28686885 127.70293,7.19977869 128.696061,7.80940984 C128.696061,7.80940984 120.657163,0.0841639344 113.287822,0.0583852459 C107.91805,0.0388770492 104.824496,2.03219672 104.124121,2.35129508 C103.423747,2.67109016 100.943721,4.03527049 99.0758217,3.94818033 C97.2079228,3.86109016 92.3053011,2.17711475 87.3445483,4.18018852 C87.3445483,4.18018852 88.9498067,4.38363115 89.4162562,4.84834426 C89.4162562,4.84834426 87.4026794,4.58637705 83.0547543,6.9092459 C83.0547543,6.9092459 85.3015558,6.70580328 85.593612,7.34469672 C85.593612,7.34469672 80.4577655,8.53469672 76.0804247,11.0895738 C76.0804247,11.0895738 77.3060801,10.799041 78.2978105,10.8575656 C78.1542337,10.8526885 76.1154434,12.2900246 74.504582,12.831377 C69.9220315,14.3697377 64.1446419,16.2857213 42.2579378,13.3831803 C20.3712337,10.4799426 17.3946419,11.0024836 16.227818,11.0603115 C15.0602936,11.1181393 13.6623461,11.6985082 12.2587955,12.5701066 C10.1576719,14.0220738 2.16149588,18.1585082 0.527522097,27.259082 C-2.91621948,51.5865 21.7138517,35.9680984 27.9002599,40.4967869 C42.9001813,53.5024836 57.2578592,53.2704754 57.2578592,53.2704754 C69.5732449,53.154123 77.6268517,46.3032623 84.9807843,43.516377 C92.3347169,40.7294918 99.1052375,38.6386311 108.151275,41.8902295 L110.777679,40.2647787 C110.777679,40.2647787 112.587447,41.6003934 112.762541,42.3549426 C112.762541,42.3549426 114.222121,41.0778525 114.279552,39.916418 C114.279552,39.916418 115.213852,40.1484262 115.505207,40.8451475 C115.505207,40.8451475 116.730863,39.916418 116.030488,38.8135082 C116.030488,38.8135082 118.365537,39.5102295 118.715724,42.1229344 C118.715724,42.1229344 121.342129,39.0455164 121.225166,33.936459 C121.225166,33.936459 121.983672,34.284123 122.100634,35.271377 C122.100634,35.271377 122.528563,33.1122377 124.862912,30.9057213 L120.720897,29.3854754 C125.302747,30.1692869 127.382859,33.2975656 127.995687,32.2232213 C129.168814,30.1678934 131.672653,27.3461721 133.336043,25.3430984 C134.999432,23.3400246 134.007001,22.7018279 134.007001,22.7018279 L129.454567,18.4051475 C129.454567,15.6182623 128.130159,12.5094918 128.130159,12.5094918" id="Fill-13" fill="#DCB285"/>
          <path d="M119.479133,7.94457377 C119.479133,7.94457377 124.697623,10.5962951 127.236481,13.3831803 L126.857578,11.9897377 C126.857578,11.9897377 129.483983,12.9477295 130.767769,13.9928115 C130.767769,13.9928115 130.125526,9.95740164 126.740616,7.28686885 C126.740616,7.28686885 127.70293,7.19977869 128.696061,7.80940984 C128.696061,7.80940984 120.657163,0.0841639344 113.287822,0.0583852459 C107.91805,0.0388770492 104.824496,2.03219672 104.124121,2.35129508 C103.423747,2.67109016 100.943721,4.03527049 99.0758217,3.94818033 C97.2079228,3.86109016 92.3053011,2.17711475 87.3445483,4.18018852 C87.3445483,4.18018852 88.9498067,4.38363115 89.4162562,4.84834426 C89.4162562,4.84834426 87.4026794,4.58637705 83.0547543,6.9092459 C83.0547543,6.9092459 85.3015558,6.70580328 85.593612,7.34469672 C85.593612,7.34469672 80.4577655,8.53469672 76.0804247,11.0895738 C76.0804247,11.0895738 77.3060801,10.799041 78.2978105,10.8575656 C78.1542337,10.8526885 76.1154434,12.2900246 74.504582,12.831377 C69.9220315,14.3697377 64.1446419,16.2857213 42.2579378,13.3831803 C20.3712337,10.4799426 17.3946419,11.0024836 16.227818,11.0603115 C15.0602936,11.1181393 13.6623461,11.6985082 12.2587955,12.5701066 C10.1576719,14.0220738 2.16149588,18.1585082 0.527522097,27.259082 C-2.91621948,51.5865 21.7138517,35.9680984 27.9002599,40.4967869 C42.9001813,53.5024836 57.2578592,53.2704754 57.2578592,53.2704754 C69.5732449,53.154123 77.6268517,46.3032623 84.9807843,43.516377 C92.3347169,40.7294918 99.1052375,38.6386311 108.151275,41.8902295 L110.777679,40.2647787 C110.777679,40.2647787 112.587447,41.6003934 112.762541,42.3549426 C112.762541,42.3549426 114.222121,41.0778525 114.279552,39.916418 C114.279552,39.916418 115.213852,40.1484262 115.505207,40.8451475 C115.505207,40.8451475 116.730863,39.916418 116.030488,38.8135082 C116.030488,38.8135082 118.365537,39.5102295 118.715724,42.1229344 C118.715724,42.1229344 121.342129,39.0455164 121.225166,33.936459 C121.225166,33.936459 121.983672,34.284123 122.100634,35.271377 C122.100634,35.271377 122.528563,33.1122377 124.862912,30.9057213 L120.720897,29.3854754 C125.302747,30.1692869 127.382859,33.2975656 127.995687,32.2232213 C129.168814,30.1678934 131.672653,27.3461721 133.336043,25.3430984 C134.999432,23.3400246 134.007001,22.7018279 134.007001,22.7018279 L129.454567,18.4051475 C129.454567,15.6182623 128.130159,12.5094918 128.130159,12.5094918" id="Stroke-15" stroke="#784E3D" stroke-width="0.525"/>
        </g>
        <path d="M173.1987,31.6528156 C173.257531,31.5657254 176.799325,32.4219959 177.254569,33.1960533 C177.254569,33.1960533 175.100216,34.9134713 174.906913,36.346627 C174.492992,39.4296189 174.634467,36.5082664 173.51737,35.9878156 C173.51737,35.9878156 174.28358,39.7758893 171.229947,44.1715041 C171.229947,44.1715041 170.077831,40.871832 168.122385,40.7554795 C168.122385,40.7554795 169.539943,41.5790041 167.914374,43.1069139 C167.914374,43.1069139 167.691655,41.7789631 166.699924,42.0402336 C166.699924,42.0402336 166.075891,43.6447828 165.229138,44.5735123 C165.229138,44.5735123 163.963561,42.5084303 163.245677,42.4833484 L160.619273,44.1087992 C160.619273,44.1087992 154.749434,42.0402336 150.187194,42.4958893 C150.187194,42.4958893 157.467587,32.1955615 155.570273,25.1990861 L154.683599,27.5728156 C154.683599,27.5728156 154.968651,22.8803975 153.392808,19.8538402 L152.790486,21.7050287 C152.790486,21.7050287 152.718348,18.0576926 150.821033,15.9675287 C150.821033,15.9675287 150.859554,17.9650287 150.645939,18.721668 C150.645939,18.721668 149.737554,15.7828975 149.299819,15.096627 C148.862085,14.4110533 148.074164,13.3548238 147.515966,12.9305205 L147.209902,13.5401516 C147.209902,13.5401516 145.239748,10.4265041 141.311348,11.1127746 C136.872374,11.8875287 131.575441,14.6047418 129.372063,15.031832 C126.89904,15.5104795 126.351348,15.4122418 126.351348,15.4122418 C126.351348,15.4122418 130.061231,13.6272418 130.641142,13.191791 C130.641142,13.191791 129.973685,12.886627 129.45961,12.9305205 C129.45961,12.9305205 135.566175,9.79179098 138.060909,9.56256967 C137.996475,9.56953689 137.415164,9.05465984 136.058539,8.90277459 C136.058539,8.90277459 139.420336,6.84256967 141.83873,7.02789754 C141.83873,7.02789754 141.245512,6.60568443 140.337127,6.33326639 C140.282497,6.33326639 143.774565,5.18785656 146.313422,5.45957787 C148.85228,5.7319959 151.696501,6.61613525 153.392808,5.97445492 C155.089115,5.33207787 162.256748,1.0862582 168.373819,2.68662705 C174.491591,4.2869959 180.757842,9.65453689 180.757842,9.65453689 C180.757842,9.65453689 179.536389,9.37445492 179.207913,9.5047418 C179.207913,9.5047418 182.906591,12.8322828 183.136314,16.0330205 C183.136314,16.0330205 179.591018,14.204127 179.240831,14.1386352 L179.675763,15.4979385 C179.675763,15.4979385 176.165486,12.4727746 171.930321,9.97990574 C171.881295,9.95064344 171.90861,8.90486475 171.581535,8.77179098 C170.820228,8.46244672 169.428584,8.99543852 167.974606,8.52306148 C167.42061,8.34261066 165.937917,6.19810246 165.397228,6.05039754 C164.890157,5.91175 164.904864,7.60826639 164.456625,7.57412705 C162.136284,7.39994672 161.489838,7.7294959 165.502984,11.0256844 C172.904542,16.5444139 172.789681,20.3854385 173.074033,21.3650287 C173.074033,21.3650287 171.613052,20.4202746 170.890966,21.1497418 C170.890966,21.1497418 174.338209,24.9705615 173.411613,29.9388811 C173.411613,29.9388811 172.248291,28.9551107 171.996157,28.8352746 L173.1987,31.6528156" id="Fill-17" fill="#AC612A"/>
        <path d="M171.94699,10.1629344 C171.94699,10.1629344 177.165481,12.8146557 179.704339,15.601541 L179.324035,14.2080984 C179.324035,14.2080984 181.95044,15.1660902 183.234927,16.2111721 C183.234927,16.2111721 182.593384,12.1757623 179.207773,9.50522951 C179.207773,9.50522951 180.170788,9.41813934 181.162518,10.0277705 C181.162518,10.0277705 173.123619,2.30252459 165.754979,2.2767459 C160.385207,2.2572377 157.292354,4.25055738 156.591979,4.56965574 C155.891604,4.88945082 153.410178,6.25363115 151.542979,6.16654098 C149.675781,6.07945082 144.772458,4.39547541 139.811706,6.39854918 C139.811706,6.39854918 141.416964,6.6019918 141.884114,7.06670492 C141.884114,7.06670492 139.870537,6.8047377 135.521912,9.12760656 C135.521912,9.12760656 137.769413,8.92416393 138.060769,9.56305738 C138.060769,9.56305738 132.924222,10.7530574 128.546882,13.3079344 C128.546882,13.3079344 129.772537,13.0174016 130.765668,13.0759262 C130.620691,13.0710492 128.582601,14.5083852 126.971039,15.0497377 C122.389889,16.5880984 116.611799,18.504082 94.7250951,15.601541 C72.838391,12.6983033 69.8617993,13.2208443 68.6949753,13.2786721 C67.5274509,13.3365 66.1295034,13.9168689 64.7259528,14.7884672 C62.6248292,16.2404344 54.6286532,20.3768689 52.9946794,29.4774426 C49.5509378,53.8048607 74.181009,38.186459 80.3674172,42.7151475 C95.3666382,55.7208443 109.725016,55.4888361 109.725016,55.4888361 C122.039702,55.3724836 130.094009,48.521623 137.447942,45.7347377 C144.801874,42.9478525 151.572395,40.8569918 160.619133,44.1085902 L163.245537,42.4831393 C163.245537,42.4831393 165.053904,43.8187541 165.228998,44.5733033 C165.228998,44.5733033 166.688578,43.2962131 166.74741,42.1347787 C166.74741,42.1347787 167.681009,42.3667869 167.973065,43.0635082 C167.973065,43.0635082 169.198721,42.1347787 168.498346,41.0318689 C168.498346,41.0318689 170.831994,41.7285902 171.182181,44.3412951 C171.182181,44.3412951 173.808586,41.263877 173.692324,36.1548197 C173.692324,36.1548197 174.45153,36.5024836 174.567792,37.4897377 C174.567792,37.4897377 174.996421,35.3305984 177.330769,33.124082 L173.188754,31.6038361 C177.769904,32.3876475 179.849316,35.5159262 180.462844,34.441582 C181.635972,32.3862541 184.13981,29.5645328 185.8032,27.561459 C187.46659,25.5583852 186.474159,24.9201885 186.474159,24.9201885 L181.921724,20.6235082 C181.921724,17.836623 180.597316,14.7278525 180.597316,14.7278525" id="Stroke-19" stroke="#784E3D" stroke-width="0.525"/>
        <path d="M165.229208,10.956291 C166.267163,11.423791 167.230178,12.0480533 168.155373,12.7259631 C168.626024,13.0569057 169.016133,13.4819057 169.425852,13.881127 C169.827867,14.2894057 170.209571,14.7185861 170.567463,15.1672746 C171.284646,16.0625615 171.911481,17.0358811 172.398242,18.078873 C172.895507,19.1169877 173.232388,20.2303484 173.426391,21.3653074 L173.507635,21.8425615 L173.052391,21.6419057 C172.419253,21.3632172 171.634833,21.1500205 171.044418,21.3604303 L171.141069,20.9389139 C171.426122,21.2580123 171.661448,21.5792008 171.89047,21.9178074 C172.11529,22.2564139 172.321901,22.606168 172.511702,22.9642828 C172.700803,23.3230943 172.867493,23.6930533 173.023676,24.0678893 L173.232388,24.6392008 C173.307328,24.8280123 173.350751,25.0272746 173.410983,25.2209631 C173.469815,25.4153484 173.522343,25.611127 173.560163,25.8110861 C173.599384,26.0096516 173.64841,26.2075205 173.679927,26.4074795 C173.731054,26.8101844 173.79759,27.2121926 173.803193,27.6190779 C173.808796,27.8218238 173.833309,28.0245697 173.821403,28.2273156 L173.79759,28.83625 C173.783582,29.2424385 173.70374,29.6423566 173.659616,30.0450615 L173.590279,30.6693238 L173.192466,30.1593238 C173.046788,29.9719057 172.856987,29.7942418 172.67629,29.631209 C172.579639,29.5580533 172.492792,29.468873 172.39544,29.4026844 C172.30159,29.3239549 172.200036,29.2779713 172.100582,29.21875 L172.365324,28.903832 C172.705006,29.5921926 172.977451,30.2923975 173.160249,31.0274385 C173.249197,31.3932172 173.322036,31.7666598 173.32974,32.1449795 C173.340946,32.3323975 173.328339,32.5232992 173.304526,32.708627 C173.283515,32.8960451 173.228185,33.0757992 173.167253,33.251373 C173.208575,33.068832 173.242893,32.8883811 173.243594,32.70375 C173.246395,32.5205123 173.238691,32.3365779 173.207174,32.1554303 C173.156047,31.7931352 173.058695,31.4378074 172.93753,31.0929303 C172.697301,30.4031762 172.361822,29.7364139 171.98432,29.1226025 L171.64744,28.5728893 L172.250463,28.8076844 C172.389837,28.861332 172.538316,28.9121926 172.659481,28.988832 C172.793953,29.0557172 172.907414,29.1414139 173.020875,29.2298975 C173.240092,29.4145287 173.422189,29.6165779 173.609189,29.8409221 L173.14274,29.9551844 C173.183361,29.5705943 173.260403,29.1894877 173.273009,28.8035041 L173.296122,28.223832 C173.308028,28.0308402 173.283515,27.8378484 173.278612,27.6448566 C173.27441,27.2581762 173.209275,26.876373 173.16165,26.4924795 C173.131534,26.3015779 173.083908,26.1141598 173.046788,25.9246516 C173.011069,25.73375 172.962043,25.5470287 172.904612,25.3623975 C172.847182,25.1777664 172.80656,24.9875615 172.735122,24.8071107 L172.535515,24.2615779 C172.386335,23.9034631 172.22735,23.5502254 172.046654,23.2067418 C171.865257,22.8646516 171.667751,22.5302254 171.453436,22.2076434 C171.238421,21.8892418 171.001695,21.5694467 170.757964,21.2956352 L170.497425,21.0030123 L170.854616,20.8734221 C171.287448,20.7159631 171.724481,20.7354713 172.125796,20.8044467 C172.531313,20.8796926 172.903912,21.0002254 173.282114,21.1723156 L172.908114,21.4489139 C172.721114,20.3627254 172.400343,19.2974385 171.922687,18.3004303 C171.454837,17.2985451 170.851114,16.3593648 170.156343,15.4926434 C169.810358,15.0585861 169.44126,14.6426434 169.049751,14.2455123 C168.668047,13.838627 168.230313,13.4923566 167.840904,13.0903484 C167.040376,12.3093238 166.166309,11.5951844 165.229208,10.956291" id="Fill-21" fill="#784E3D"/>
        <path d="M145.152201,11.6240984 C145.550014,11.8777049 145.929617,12.1591803 146.295913,12.4594672 C146.473808,12.6162295 146.656606,12.767418 146.820494,12.9415984 C146.994887,13.1046311 147.140565,13.2962295 147.297449,13.4787705 L147.113951,13.4927049 L147.384996,12.8656557 L147.458535,12.694959 L147.611917,12.8203689 C148.088172,13.212623 148.499291,13.6508607 148.883797,14.122541 C149.080602,14.3538525 149.249393,14.6081557 149.402074,14.8694262 C149.549853,15.1334836 149.704636,15.3947541 149.835606,15.6678689 C150.103849,16.2106148 150.336374,16.7728689 150.505864,17.3553279 C150.600415,17.6437705 150.664849,17.939877 150.732085,18.2352869 C150.800722,18.5306967 150.832939,18.8330738 150.884767,19.1312705 L150.388902,19.0476639 C150.427422,18.9591803 150.472246,18.8414344 150.505164,18.7320492 C150.544385,18.6219672 150.567497,18.5042213 150.597613,18.389959 C150.64734,18.1579508 150.692864,17.9231557 150.707572,17.6841803 C150.737688,17.4465984 150.729984,17.2062295 150.730685,16.9665574 C150.726482,16.7268852 150.687962,16.4879098 150.670452,16.2489344 L150.604617,15.3815164 L151.131999,16.0440984 C151.240557,16.179959 151.314797,16.2990984 151.397441,16.4293852 C151.474482,16.5582787 151.550823,16.6871721 151.617359,16.8195492 C151.758134,17.0815164 151.876497,17.3518443 151.987857,17.6242623 C152.207775,18.1711885 152.373763,18.7348361 152.508235,19.3033607 C152.644108,19.872582 152.730254,20.4501639 152.79749,21.0284426 C152.861924,21.607418 152.888539,22.1884836 152.900445,22.7688525 L152.384269,22.7005738 L153.17219,19.9136885 L153.3774,19.1890984 L153.665254,19.8788525 C153.955909,20.5741803 154.16322,21.2667213 154.339014,21.9794672 C154.511306,22.690123 154.645778,23.4098361 154.727722,24.1358197 C154.811067,24.8618033 154.858692,25.5926639 154.848187,26.3242213 C154.85379,26.6906967 154.824374,27.055082 154.808265,27.4208607 C154.797059,27.7866393 154.713715,28.1468443 154.655584,28.5070492 L154.225554,28.385123 C154.483992,27.8883607 154.734025,27.3811475 154.96655,26.8704508 C155.19067,26.3555738 155.441404,25.8476639 155.570273,25.2972541 C155.54576,25.5787295 155.49043,25.8588115 155.423894,26.1354098 C155.351756,26.409918 155.275415,26.6844262 155.188569,26.9540574 C155.020479,27.4968033 154.83558,28.0318852 154.638775,28.5669672 L154.168123,29.8419672 L154.208745,28.445041 C154.229055,27.7322951 154.334112,27.0313934 154.322906,26.3207377 C154.333411,25.6114754 154.287187,24.9022131 154.205243,24.1971311 C154.1261,23.4920492 153.996531,22.792541 153.829142,22.1034836 C153.660351,21.4179098 153.45164,20.7260656 153.186198,20.0913525 L153.678561,20.0558197 L152.89064,22.8427049 L152.410883,24.5371311 L152.375164,22.7737295 C152.363258,22.2093852 152.337344,21.645041 152.275711,21.084877 C152.210576,20.5247131 152.127231,19.9673361 151.996261,19.4211066 C151.867393,18.874877 151.708407,18.3363115 151.500396,17.8186475 C151.393939,17.5608607 151.28328,17.3051639 151.15161,17.0620082 C151.027643,16.8202459 150.877063,16.5708197 150.728584,16.3778279 L151.19013,16.1736885 C151.211142,16.4321721 151.250363,16.6906557 151.255265,16.9512295 C151.255966,17.2118033 151.262969,17.472377 151.230052,17.7322541 C151.213243,17.9928279 151.164216,18.2513115 151.109587,18.5077049 C151.075969,18.6352049 151.050756,18.7640984 151.005231,18.8909016 C150.96461,19.0197951 150.923288,19.1382377 150.858853,19.277582 L150.511467,20.0411885 L150.362988,19.1939754 C150.313261,18.9104098 150.283145,18.6226639 150.21731,18.342582 C150.153576,18.0618033 150.093344,17.7796311 150.002996,17.5058197 C149.84261,16.9519262 149.620591,16.4168443 149.365655,15.899877 C149.121924,15.3745492 148.784344,14.9042623 148.481782,14.4109836 C148.172216,13.9246721 147.817127,13.4509016 147.420014,13.0405328 L147.646936,12.9952459 L147.305153,13.587459 L147.221108,13.7330738 L147.122355,13.6006967 C146.983681,13.417459 146.857613,13.2244672 146.697228,13.0544672 C146.548748,12.8754098 146.38346,12.7109836 146.219572,12.5430738 C145.882692,12.2177049 145.528303,11.9083607 145.152201,11.6240984" id="Fill-23" fill="#784E3D"/>
        <path d="M165.721641,4.71952049 C166.039611,3.14702049 167.097877,0.737758197 168.848813,0.955831967 C169.894473,1.08542213 171.416387,2.18972541 171.580975,6.65988934 C171.70284,9.96652869 170.920521,11.1621025 168.091008,11.1537418 C166.966907,11.1502582 164.824461,9.16111885 165.721641,4.71952049" id="Fill-25" fill="#BB8E5D"/>
        <path d="M180.32417,20.8992008 L177.522672,20.3766598 L175.158908,16.6972746 L179.268005,17.8726434 C179.268005,17.8726434 180.265339,20.0575615 180.32417,20.8992008" id="Fill-27" fill="#FBF3ED"/>
        <path d="M184.460722,27.1261475 C184.460722,27.1261475 183.41016,26.2991393 183.629378,24.6959836 C183.814276,23.337377 184.43901,22.7716393 186.547138,24.985123 C187.301441,25.7765984 186.34543,26.9171311 185.944816,27.3943852 C185.544201,27.8716393 185.116973,27.6047951 184.460722,27.1261475" id="Fill-29" fill="#311A14"/>
        <path d="M180.32417,20.8992008 L179.689631,18.1994057 C179.689631,18.1994057 179.723949,17.943709 178.26717,17.5026844 C176.756462,17.0456352 175.158908,16.6972746 175.158908,16.6972746 L177.522672,20.3766598 L180.32417,20.8992008 Z" id="Stroke-31" stroke="#311A14" stroke-width="0.5"/>
        <path d="M178.595085,20.4528811 C178.595085,20.4528811 177.872999,19.9742336 178.026381,18.8636598 C178.101321,18.3188238 178.69664,17.723127 179.268145,17.8722254 C179.978325,18.0575533 180.32431,20.8994795 180.32431,20.8994795 L178.104823,20.4849303" id="Fill-33" fill="#311A14"/>
        <path d="M175.327138,26.1099795 C175.327138,26.1099795 175.334142,26.2771926 175.421688,26.5391598 C175.46231,26.6701434 175.530947,26.8220287 175.614291,26.9871516 C175.698336,27.1550615 175.838411,27.3139139 175.921055,27.5222336 C176.026812,27.718709 176.159883,27.926332 176.328673,28.1269877 C176.488359,28.3325205 176.683763,28.533873 176.898078,28.7275615 C177.325306,29.1253893 177.835879,29.4695697 178.387074,29.8060861 C178.933366,30.1446926 179.478958,30.481209 179.998636,30.7717418 C180.516913,31.0601844 181.014879,31.3026434 181.437205,31.4043648 C181.53946,31.4266598 181.641715,31.4398975 181.730662,31.4405943 C181.82031,31.4628893 181.906456,31.4803074 181.9891,31.4803074 C182.154389,31.4879713 182.30567,31.4433811 182.428235,31.3883402 C182.547299,31.3284221 182.646052,31.2754713 182.706284,31.2280943 C182.770718,31.1848975 182.805037,31.161209 182.805037,31.161209 C182.793831,31.1542418 182.753209,31.3207582 182.5501,31.5506762 C182.447145,31.6621516 182.295164,31.793832 182.075246,31.8802254 C181.965288,31.9241189 181.842722,31.9610451 181.711752,31.9701025 C181.580082,31.9721926 181.452613,31.9345697 181.320243,31.913668 C180.798464,31.786168 180.277385,31.5242008 179.742299,31.2273975 C179.207913,30.9292008 178.656718,30.5885041 178.109025,30.2492008 C177.561333,29.9154713 176.998932,29.5385451 176.541587,29.1121516 C176.309763,28.9024385 176.09755,28.6822746 175.918254,28.4530533 C175.731954,28.2301025 175.579973,27.9967008 175.458108,27.7702664 C175.304025,27.5591598 175.283715,27.3034631 175.244494,27.1007172 C175.216479,26.8917008 175.216479,26.7084631 175.228385,26.5600615 C175.2557,26.2618648 175.327138,26.1099795 175.327138,26.1099795" id="Fill-35" fill="#23110A"/>
        <g id="Group-39" transform="translate(162.486891, 0.041107)">
          <mask id="mask-2" fill="white">
            <use xlink:href="#path-1"/>
          </mask>
          <g id="Clip-38"/>
          <path d="M9.58595618,11.5829918 C9.58595618,11.5829918 9.51731948,11.249959 9.39825581,10.6681967 C9.34362659,10.3769672 9.27709101,10.0223361 9.20004981,9.61614754 C9.16152921,9.41340164 9.12020712,9.19741803 9.0767839,8.96959016 C9.03616217,8.74106557 9.03896367,8.49581967 9.00744682,8.24360656 C8.91219588,7.23196721 8.80083633,6.05241803 8.68177266,4.78786885 C8.60543184,4.17336066 8.48356667,3.53586066 8.26504981,2.94016393 C8.04583258,2.35004098 7.70895243,1.78012295 7.2011809,1.46381148 C6.94834569,1.30983607 6.66469401,1.20463115 6.36143184,1.19139344 C6.29419588,1.18860656 6.1919412,1.17327869 6.15412097,1.17815574 L5.90128577,1.20045082 C5.72969401,1.21786885 5.63024082,1.26454918 5.48736442,1.30635246 C4.94037191,1.52721311 4.51524457,1.99680328 4.20988127,2.51586066 C3.89541311,3.03352459 3.67899738,3.59577869 3.49549925,4.13713115 C3.40445056,4.41512295 3.315503,4.6847541 3.2300573,4.94602459 C3.14110974,5.20241803 3.07457416,5.44069672 3.0073382,5.68733607 C2.89667903,6.17922131 2.743297,6.62790984 2.55279513,7.01946721 C2.45544307,7.21454918 2.36509476,7.40266393 2.18930075,7.55733607 C2.11786255,7.64372951 1.9322633,7.67508197 1.87483258,7.6632377 C1.79288876,7.66463115 1.71374644,7.66602459 1.63810599,7.66741803 C1.32083633,7.63606557 1.08410974,7.57127049 0.933529213,7.5225 C0.779446816,7.47930328 0.69960412,7.44655738 0.69960412,7.44655738 C0.69960412,7.44655738 0.785049813,7.46188525 0.944735206,7.47094262 C1.10582135,7.48836066 1.33554419,7.4897541 1.61149176,7.47442623 C1.74946554,7.43122951 1.9595779,7.44098361 1.99249551,7.34971311 C2.07163783,7.25008197 2.13397116,7.07032787 2.18439813,6.88290984 C2.27824831,6.49901639 2.34408352,6.03987705 2.50026704,5.55147541 C2.56610225,5.30831967 2.64244307,5.03590164 2.73419213,4.77532787 C2.81893745,4.51545082 2.90648427,4.24721311 2.99753296,3.97061475 C3.18803483,3.41184426 3.41285506,2.8182377 3.76024082,2.24692623 C4.09572022,1.67979508 4.5859824,1.10848361 5.29476142,0.820737705 C5.46775393,0.760122951 5.69117341,0.693237705 5.85436067,0.68 L6.10649551,0.657704918 C6.23746554,0.648647541 6.30400112,0.667459016 6.40625581,0.670942623 C6.78165655,0.688360656 7.15845805,0.822131148 7.48203109,1.02209016 C8.13968277,1.43733607 8.51508352,2.11385246 8.75811348,2.75901639 C8.99834195,3.41741803 9.12230824,4.07930328 9.20285131,4.72307377 C9.32191498,5.98692623 9.43327453,7.16717213 9.52852547,8.17881148 C9.54533446,8.43241803 9.59436067,8.67139344 9.59576142,8.90479508 C9.5964618,9.1375 9.59716217,9.35905738 9.59716217,9.56668033 C9.59716217,9.98262295 9.59856292,10.344918 9.59856292,10.6431148 C9.59015843,11.2415984 9.58595618,11.5829918 9.58595618,11.5829918" id="Fill-37" fill="#784E3D" mask="url(#mask-2)"/>
        </g>
        <path d="M166.081354,3.18143852 C166.081354,3.18143852 163.668563,10.9561516 168.702155,11.2320533 C171.727073,11.397873 171.655634,6.92352869 171.542174,5.75234016" id="Stroke-40" stroke="#784E3D" stroke-width="0.525"/>
        <g id="Group-45" transform="translate(0.000000, 3.524713)">
          <path d="M56.1014007,18.7879959 C56.1014007,18.7879959 36.210764,31.9295533 19.8878352,26.380168 C2.83861798,19.6784057 4.73102996,6.4170123 5.03569288,4.63828279 C5.34035581,2.85955328 5.79629963,0.901069672 4.24356929,0.581971311 C2.69083895,0.262872951 -1.02814981,5.43393852 0.719985019,13.18775 C2.46741948,20.9408648 11.1604682,28.725332 18.4156479,31.0314795 C26.9069888,33.6386107 38.8119551,34.6488566 52.943412,28.4563975" id="Fill-42" fill="#DCB285"/>
          <path d="M56.1014007,18.7879959 C56.1014007,18.7879959 36.210764,31.9295533 19.8878352,26.380168 C2.83861798,19.6784057 4.73102996,6.4170123 5.03569288,4.63828279 C5.34035581,2.85955328 5.79629963,0.901069672 4.24356929,0.581971311 C2.69083895,0.262872951 -1.02814981,5.43393852 0.719985019,13.18775 C2.46741948,20.9408648 11.1604682,28.725332 18.4156479,31.0314795 C26.9069888,33.6386107 38.8119551,34.6488566 52.943412,28.4563975" id="Stroke-44" stroke="#784E3D" stroke-width="0.525"/>
        </g>
        <path d="M87.4622813,32.4393443 C87.4622813,32.4393443 92.0378281,43.7868443 77.2613262,55.0827869 C73.966064,57.6007377 72.7109929,58.697377 72.7109929,58.697377 C74.2637232,59.3279098 87.0966858,62.0318852 88.4680191,64.1220492 L91.5769816,71.3686475 C91.5769816,71.3686475 94.4646258,76.9040984 93.0862888,77.9004098 C90.2581764,79.9445902 85.7981914,77.4984016 85.6525135,77.2371311 C85.6525135,77.2371311 83.3181652,69.6993033 82.8223,68.3643852 C79.8310004,66.5933197 62.9939966,66.2811885 62.9939966,66.2811885 C62.9939966,66.2811885 61.0651652,66.6602049 60.2352213,63.9227869 C59.4031764,61.1790984 60.1329667,58.4765164 59.3597532,52.8184426 C58.7469255,48.3329508 57.9057757,47.8619672 53.7035285,39.3271311" id="Fill-46" fill="#DCB285"/>
        <path d="M87.4622813,32.4393443 C87.4622813,32.4393443 92.0378281,43.7868443 77.2613262,55.0827869 C73.966064,57.6007377 72.7109929,58.697377 72.7109929,58.697377 C74.2637232,59.3279098 87.0966858,62.0318852 88.4680191,64.1220492 L91.5769816,71.3686475 C91.5769816,71.3686475 94.4646258,76.9040984 93.0862888,77.9004098 C90.2581764,79.9445902 85.7981914,77.4984016 85.6525135,77.2371311 C85.6525135,77.2371311 83.3181652,69.6993033 82.8223,68.3643852 C79.8310004,66.5933197 62.9939966,66.2811885 62.9939966,66.2811885 C62.9939966,66.2811885 61.0651652,66.6602049 60.2352213,63.9227869 C59.4031764,61.1790984 60.1329667,58.4765164 59.3597532,52.8184426 C58.7469255,48.3329508 57.9057757,47.8619672 53.7035285,39.3271311" id="Stroke-48" stroke="#784E3D" stroke-width="0.525"/>
        <path d="M89.1810704,72.7563074 C89.1810704,72.7563074 89.2938307,72.8552418 89.473827,73.04475 C89.5620742,73.1408975 89.6727333,73.2565533 89.786194,73.3993811 C89.8912502,73.5456926 90.0537371,73.6933975 90.1328794,73.9045041 C90.3142764,74.3141762 90.5257895,74.8004877 90.5951266,75.3982746 C90.6224412,75.6929877 90.6161378,76.0392582 90.4347408,76.364627 C90.3443925,76.5227828 90.2141228,76.6670041 90.0600404,76.7659385 C89.8947521,76.8613893 89.8135086,76.9164303 89.6342127,76.9854057 C89.0143813,77.2459795 88.3525273,77.2111434 87.7929281,77.0836434 C87.2270255,76.9575369 86.7430667,76.7429467 86.3410517,76.5464713 C86.2415985,76.4963074 86.1477483,76.44475 86.0531978,76.4057336 C85.9649506,76.3562664 85.8991154,76.2754467 85.8283775,76.2183156 C85.694606,76.0929057 85.5783438,75.9828238 85.4823925,75.8929467 C85.2967933,75.7076189 85.1987408,75.5926598 85.1987408,75.5926598 C85.1987408,75.5926598 85.3465199,75.6316762 85.5923513,75.7138893 C85.7163176,75.7515123 85.8661978,75.7974959 86.0384899,75.84975 C86.1225348,75.8776189 86.2205873,75.8901598 86.3067333,75.9354467 C86.3893775,75.9863074 86.4811266,76.0302008 86.5749768,76.0789713 C86.9538794,76.2649959 87.4084225,76.4635615 87.9084899,76.5743402 C88.1578232,76.6342582 88.4176622,76.6614303 88.6761004,76.6565533 C88.9331378,76.6565533 89.1992801,76.5987254 89.4219993,76.5074549 C89.5179506,76.4802828 89.6846397,76.3785615 89.769385,76.3311844 C89.8597333,76.2726598 89.9248682,76.1967172 89.9766959,76.109627 C90.0789506,75.9333566 90.0971603,75.6888074 90.0719468,75.4505287 C90.0166172,74.9670041 89.831018,74.5029877 89.6524225,74.1267582 C89.5480667,73.9442172 89.5270554,73.7379877 89.4619206,73.5756516 C89.4051903,73.4070451 89.356164,73.2607336 89.3162427,73.1395041 C89.2300966,72.8956516 89.1810704,72.7563074 89.1810704,72.7563074" id="Fill-50" fill="#784E3D"/>
        <path d="M130.508,37.0108811 C131.615293,42.4104713 123.355075,50.4659631 123.355075,50.4659631 C125.043678,54.8204713 124.74742,61.8726844 125.828798,70.8889549 C126.866053,79.533873 128.462206,84.7801844 128.462206,84.7801844 L141.449251,84.7801844 C145.152131,82.8642008 145.37345,78.8873156 144.897896,77.9000615 C144.422341,76.9128074 143.002682,77.0869877 138.82915,78.0164139 C134.655618,78.9451434 135.084948,77.3043648 134.894446,76.738627 C134.685034,75.41625 133.961547,71.3390369 136.849892,59.9594877 C139.738937,48.5792418 148.670113,37.7800615 148.670113,37.7800615 C148.670113,37.7800615 148.19806,36.3273975 147.744218,35.2690779 C143.823521,26.1099795 129.769105,33.4074385 130.508,37.0108811" id="Fill-52" fill="#DCB285"/>
        <path d="M130.508,37.0108811 C130.97445,43.6297336 123.355075,50.4659631 123.355075,50.4659631 C125.043678,54.8204713 124.74742,61.8726844 125.828798,70.8889549 C126.866053,79.533873 128.462206,84.7801844 128.462206,84.7801844 L141.449251,84.7801844 C144.892993,82.9227254 145.37345,78.8873156 144.897896,77.9000615 C144.422341,76.9128074 143.002682,77.0869877 138.82915,78.0164139 C134.655618,78.9451434 135.084948,77.3043648 134.894446,76.738627 C134.685034,75.41625 133.961547,71.3390369 136.849892,59.9594877 C139.738937,48.5792418 148.670113,37.7800615 148.670113,37.7800615" id="Stroke-54" stroke="#784E3D" stroke-width="0.525"/>
        <path d="M137.427561,80.2511475 C137.427561,80.2511475 137.583044,80.1334016 137.8751,79.9647951 C138.023579,79.8832787 138.202875,79.7843443 138.409486,79.670082 C138.611894,79.5363115 138.873834,79.4882377 139.153984,79.4157787 C139.716385,79.2834016 140.38104,79.1266393 141.154254,79.1879508 C141.525452,79.2220902 142.003808,79.3405328 142.295164,79.7613525 C142.574613,80.1828689 142.477961,80.6928689 142.433137,81.0259016 C142.380609,81.4077049 142.261546,81.8152869 142.115868,82.1720082 C141.947778,82.5273361 141.759377,82.8729098 141.507943,83.155082 C141.029587,83.7445082 140.420961,84.1179508 139.899182,84.3813115 C139.642845,84.5304098 139.361295,84.5540984 139.135074,84.6147131 C138.90325,84.6634836 138.701542,84.697623 138.535553,84.7213115 C138.202875,84.7672951 138.011673,84.7798361 138.011673,84.7798361 C138.011673,84.7798361 138.183265,84.6962295 138.483025,84.5506148 C138.632905,84.4802459 138.812201,84.3896721 139.011107,84.2795902 C139.215617,84.1813525 139.416624,84.0141393 139.664557,83.9096311 C139.91249,83.7981557 140.159722,83.6441803 140.409755,83.4686066 C140.654186,83.287459 140.897916,83.0777459 141.103827,82.8220492 C141.323744,82.5768033 141.48483,82.2758197 141.63331,81.9657787 C141.762879,81.6369262 141.860231,81.3220082 141.912059,80.9597131 C141.972291,80.5667623 142.000306,80.269959 141.856029,80.0477049 C141.719456,79.8421721 141.419696,79.7334836 141.102426,79.7077049 C140.460182,79.6540574 139.813036,79.7940984 139.281452,79.9222951 C139.013209,79.9870902 138.777883,80.0853279 138.542557,80.0881148 C138.313534,80.1201639 138.113227,80.1480328 137.94934,80.1710246 C137.617362,80.2218852 137.427561,80.2511475 137.427561,80.2511475" id="Fill-56" fill="#784E3D"/>
      </g>
    </g>
  </g>
</svg>