<svg width="150px" height="181px" viewBox="0 0 150 181" version="1.1" xml:space="preserve" xmlns="http://www.w3.org/2000/svg" xmlns:xlink="http://www.w3.org/1999/xlink">
  <defs/>
  <g>
    <title>skeleton-d</title>
    <desc>Created with Sketch.</desc>
    <g id="skeleton-d" stroke="none" stroke-width="1" fill="none" fill-rule="evenodd">
      <path d="M72.8006061,146.819485 L71.7436364,146.095588 C70.8187879,135.829412 79.010303,126.41875 84.8236364,118.5875 C88.5230303,113.849265 91.429697,108.584559 93.609697,102.990809 C94.2042424,101.477206 96.12,90.5529412 105.302424,93.6459559 C114.484848,96.7389706 103.386667,108.452941 101.801212,111.019485 C98.8945455,115.626103 95.9218182,120.232721 92.8169697,124.773529 C87.5321212,132.538971 83.370303,145.371691 72.8006061,146.819485 Z M96.7806061,106.347059 C95.0630303,106.610294 92.2224242,111.414338 91.2975758,112.730515 C89.3157576,115.428676 87.5321212,118.258456 85.9466667,121.219853 C84.2290909,124.378676 82.5775758,127.5375 80.6618182,130.630515 C79.1424242,133.13125 76.5660606,136.092647 75.6412121,138.790809 C75.7733333,139.317279 75.9054545,139.909559 75.9715152,140.436029 C76.3678788,140.830882 76.6321212,141.291544 77.2927273,141.423162 C82.9739394,137.013971 85.4842424,130.762132 89.1836364,124.905147 C91.1654545,121.812132 92.9490909,118.653309 94.9309091,115.560294 C96.1860606,113.586029 100.215758,109.111029 97.5733333,106.676103 L96.7806061,106.347059 Z" id="Shape" fill="#C8BEA0" fill-rule="nonzero"/>
      <path d="M107.152121,47.4481618 C108.605455,47.8430147 110.653333,51.9231618 111.38,53.6341912 C111.38,65.2165441 110.389091,77.9176471 109.926667,80.2867647 C109.2,84.3669118 107.152121,97.1996324 102.527879,98.5816176 C100.678182,97.4628676 102.065455,93.3169118 102.527879,91.6716912 C106.755758,76.4698529 106.227273,53.8974265 105.764848,52.7786765 C105.302424,51.6599265 104.113333,50.8044118 103.78303,49.5540441 C103.849091,47.7772059 105.89697,47.7772059 107.152121,47.4481618 Z" id="Shape" fill="#AAA082" fill-rule="nonzero"/>
      <path d="M106.557576,96.6731618 C106.359394,99.1738971 104.509697,101.016544 102.329697,100.950735 C100.413939,100.950735 98.8945455,99.3713235 98.9606061,97.5286765 C98.9606061,97.4628676 98.9606061,97.3970588 98.9606061,97.33125 C99.0927273,96.1466912 99.8854545,95.09375 100.942424,94.5014706 C101.206667,94.3698529 101.53697,94.2382353 101.801212,94.1724265 C102.197576,94.1066176 102.66,94.0408088 103.056364,94.1066176 C104.443636,94.5672794 105.698788,95.4886029 106.557576,96.6731618 Z" id="Shape" fill="#AAA082" fill-rule="nonzero"/>
      <path d="M67.1193939,152.742279 C68.7048485,152.610662 70.0260606,151.557721 70.5545455,150.109926 C70.7527273,149.451838 71.2151515,146.095588 70.0260606,144.845221 C67.8460606,142.673529 63.2218182,142.870956 62.4290909,145.108456 C61.9666667,146.424632 61.7684848,148.596324 62.8254545,149.978309 C63.8824242,151.360294 66.0624242,152.15 67.1193939,152.742279 Z" id="Shape" fill="#C8BEA0" fill-rule="nonzero"/>
      <path d="M61.1078788,149.320221 L59.390303,149.846691 L54.7,151.228676 C53.3127273,151.623529 52.0575758,152.281618 50.8684848,153.071324 C49.8115152,153.795221 49.7454545,154.3875 50.34,155.637868 C50.670303,155.901103 51.0666667,155.703676 51.3969697,155.637868 C53.1145455,155.177206 54.7,154.519118 56.2193939,153.597794 C57.1442424,153.005515 58.1351515,152.479044 59.1260606,151.886765 C59.6545455,151.557721 60.1169697,151.228676 60.5793939,150.899632 C61.0418182,150.504779 61.24,149.9125 61.1078788,149.320221 Z" id="Shape" fill="#C8BEA0" fill-rule="nonzero"/>
      <path d="M50.2078788,150.241544 C52.1236364,150.504779 58.729697,148.727941 60.7775758,147.477574 C60.8436364,147.280147 60.8436364,147.082721 60.8436364,146.885294 C60.8436364,146.622059 60.7775758,146.424632 60.7775758,146.227206 C60.5133333,146.161397 60.1830303,146.161397 59.9187879,146.161397 C59.5224242,146.227206 59.06,146.293015 58.6636364,146.424632 C57.0781818,146.819485 55.4927273,147.148529 53.9072727,147.609191 C52.9163636,147.938235 51.9915152,148.333088 51.0666667,148.859559 C50.5381818,148.991176 50.1418182,149.583456 50.2078788,150.241544 Z" id="Shape" fill="#C8BEA0" fill-rule="nonzero"/>
      <path d="M65.6,152.939706 L64.4769697,152.084191 C63.0236364,152.479044 61.7024242,153.005515 60.3812121,153.729412 C59.06,154.453309 57.6727273,155.177206 56.2193939,155.769485 C55.2284848,156.164338 54.5018182,156.888235 54.0393939,157.875368 C54.3036364,158.006985 54.5678788,158.204412 54.8321212,158.204412 C55.2284848,158.204412 55.5587879,158.138603 55.8890909,158.006985 C59.1260606,156.690809 62.2309091,154.979779 65.269697,153.334559 C65.3357576,153.26875 65.4018182,153.137132 65.6,152.939706 Z" id="Shape" fill="#C8BEA0" fill-rule="nonzero"/>
      <path d="M63.2878788,158.8625 C63.8163636,159.125735 64.4769697,159.125735 64.9393939,158.730882 C65.5339394,158.336029 66.1284848,157.941176 66.7230303,157.546324 C67.3836364,157.019853 67.9781818,156.427574 68.6387879,155.901103 C69.2993939,155.308824 69.8278788,154.584926 70.2242424,153.795221 C70.3563636,153.466176 70.4884848,153.071324 70.5545455,152.742279 C70.2242424,152.676471 69.96,152.676471 69.629697,152.742279 C67.449697,153.531985 65.4678788,154.782353 63.8163636,156.361765 C63.0236364,156.954044 62.8254545,158.006985 63.2878788,158.8625 Z" id="Shape" fill="#C8BEA0" fill-rule="nonzero"/>
      <path d="M106.161212,131.091176 C107.614545,133.197059 107.152121,135.631985 105.236364,137.013971 C103.650909,138.066912 101.074545,138.066912 99.8854545,136.224265 C99.2248485,135.171324 99.2248485,133.789338 99.8193939,132.670588 C99.9515152,132.407353 100.149697,132.078309 100.413939,131.880882 C100.744242,131.551838 101.074545,131.288603 101.470909,131.025368 C102.527879,130.498897 104.773939,129.643382 106.161212,131.091176 Z" id="Shape" fill="#AAA082" fill-rule="nonzero"/>
      <path d="M97.5733333,131.683456 C98.3,131.749265 98.7624242,132.407353 98.6963636,133.13125 C98.6963636,133.13125 98.6963636,133.197059 98.6963636,133.197059 C98.5642424,133.855147 97.969697,134.25 97.3090909,134.184191 C96.9127273,134.118382 96.6484848,133.789338 96.5163636,133.394485 C96.5163636,133.328676 96.450303,133.197059 96.450303,133.065441 C96.450303,132.933824 96.450303,132.802206 96.5163636,132.670588 C96.6484848,132.275735 96.9787879,131.617647 97.5733333,131.683456 Z" id="Shape" fill="#AAA082" fill-rule="nonzero"/>
      <path d="M100.347879,130.169853 C97.7054545,130.959559 96.9787879,131.156985 94.5345455,127.340074 C92.6848485,124.378676 92.5527273,119.311397 92.3545455,115.889338 C92.1563636,112.335662 92.090303,108.716176 89.58,105.952206 C86.9375758,103.056618 86.8715152,100.161029 88.2587879,97.2654412 C88.9854545,95.7518382 93.94,94.0408088 97.5733333,97.0680147 C100.876364,99.8319853 102.924242,107.070956 103.518788,110.427206 C104.575758,116.020956 102.990303,129.445956 100.347879,130.169853 Z" id="Shape" fill="#AAA082" fill-rule="nonzero"/>
      <path d="M95.4593939,98.7790441 C97.0448485,100.226838 96.3181818,102.135294 94.9309091,103.122426 C93.6757576,104.04375 91.9581818,103.780515 91.0333333,102.530147 C91.0333333,102.464338 90.9672727,102.464338 90.9672727,102.398529 C90.5048485,101.543015 90.4387879,100.490074 90.9012121,99.6345588 C91.0333333,99.3713235 91.1654545,99.1738971 91.2975758,98.9764706 C91.4957576,98.7132353 91.76,98.5158088 92.090303,98.3183824 C92.8830303,97.9893382 93.8739394,97.33125 95.4593939,98.7790441 Z" id="Shape" fill="#DCD2B4" fill-rule="nonzero"/>
      <path d="M125.450909,175.314706 L124.129697,175.906985 C124.129697,175.906985 102.990303,137.474632 104.311515,135.302941 C105.434545,135.105515 106.623636,134.908088 108.07697,136.553309 C114.947273,144.31875 125.450909,175.314706 125.450909,175.314706 Z" id="Shape" fill="#AAA082" fill-rule="nonzero"/>
      <path d="M97.9036364,139.84375 L98.7624242,139.712132 C103.452727,143.726471 107.944848,155.440441 111.446061,160.507721 L122.544242,176.433456 L121.22303,177.815441 L118.382424,176.301838 C118.382424,176.367647 94.9969697,145.4375 97.9036364,139.84375 Z" id="Shape" fill="#AAA082" fill-rule="nonzero"/>
      <path d="M129.94303,171.563603 C129.94303,171.563603 122.28,176.367647 121.751515,176.7625 C121.751515,176.959926 120.298182,174.064338 120.232121,174.064338 C119.571515,174.854044 118.97697,175.64375 118.382424,176.433456 L120.694545,178.802574 C121.883636,178.539338 123.072727,178.012868 124.063636,177.288971 C124.724242,177.223162 130.933939,172.419118 130.933939,172.419118 L129.94303,171.563603 Z" id="Shape" fill="#AAA082" fill-rule="nonzero"/>
      <path d="M43.7339394,52.5154412 C43.7339394,52.5154412 45.2533333,76.3382353 51.2648485,77.3253676 L56.1533333,76.075 L53.3787879,53.4367647 L43.7339394,52.5154412 Z" id="Shape" fill="#C8BEA0" fill-rule="nonzero"/>
      <path d="M90.3066667,54.5555147 L89.1175758,76.5356618 L97.1109091,77.3253676 C97.1109091,77.3253676 103.122424,60.0834559 99.7533333,53.6341912 L90.3066667,54.5555147 Z" id="Shape" fill="#AAA082" fill-rule="nonzero"/>
      <path d="M40.2327273,47.9088235 C40.1666667,47.5139706 37.1939394,45.3422794 36.0048485,42.4466912 C37.26,38.8272059 43.0072727,41.0647059 44.5266667,42.9073529 C46.0460606,44.75 46.9048485,46.9875 46.0460606,48.10625 C45.1872727,49.225 42.4127273,49.0275735 40.2327273,47.9088235 Z" id="Shape" fill="#DCD2B4" fill-rule="nonzero"/>
      <path d="M97.7054545,44.2235294 C97.4412121,44.4867647 93.8078788,44.8158088 91.2315152,46.6584559 C90.3066667,50.34375 96.3842424,51.5283088 98.6963636,50.8044118 C101.008485,50.0805147 102.858182,48.5669118 102.726061,47.1849265 C102.593939,45.7371324 100.149697,44.4209559 97.7054545,44.2235294 Z" id="Shape" fill="#C8BEA0" fill-rule="nonzero"/>
      <path d="M86.2109091,102.398529 C85.7484848,107.005147 79.3406061,106.149632 75.9054545,106.149632 C72.2721212,106.149632 67.0533333,106.083824 64.1466667,103.517279 C60.7775758,100.621691 63.750303,95.8834559 61.1739394,92.6588235 C58.2012121,88.9735294 53.2466667,91.3426471 49.5472727,90.3555147 C49.3490909,84.3011029 64.2127273,87.9205882 67.3836364,88.1180147 C74.3860606,88.5786765 81.3224242,88.0522059 88.2587879,87.4599265 C90.8351515,87.2625 94.270303,86.6044118 96.7806061,87.3283088 C99.2909091,88.0522059 101.140606,91.5400735 97.9036364,92.85625 C95.9878788,93.6459559 92.5527273,91.7375 90.3066667,92.1323529 C86.4751515,92.7246324 86.2109091,95.1595588 86.2109091,102.398529 Z M67.6478788,93.3827206 C67.2515152,94.5672794 67.449697,98.8448529 69.1012121,100.358456 C70.0921212,101.279779 72.0078788,101.345588 73.7915152,101.674632 C77.4248485,102.332721 79.8030303,101.872059 80.5957576,98.9106618 C81.1242424,96.9363971 80.9921212,96.2783088 81.0581818,94.0408088 C81.1242424,91.8033088 78.7460606,91.9349265 77.8212121,92.2639706 C76.8963636,92.5930147 77.6890909,93.975 76.7642424,94.6330882 C76.1036364,95.09375 72.9987879,95.4886029 72.2060606,94.5672794 C71.4133333,93.6459559 72.2721212,92.7904412 70.6206061,92.3955882 C68.9690909,92.0007353 68.0442424,92.1981618 67.6478788,93.3827206 Z" id="Shape" fill="#DCD2B4" fill-rule="nonzero"/>
      <path d="M66.1945455,88.1180147 C66.3266667,87.0650735 66.6569697,86.4069853 67.2515152,86.2753676 C67.78,86.0779412 68.3084848,85.9463235 68.9030303,85.8805147 C70.4884848,85.6830882 72.14,85.9463235 73.7254545,85.9463235 C75.1787879,85.8805147 76.6321212,85.9463235 78.1515152,85.9463235 L78.8781818,85.9463235 C79.7369697,87.3283088 79.1424242,89.4341912 78.349697,89.9606618 C78.1515152,90.0264706 78.0193939,90.1580882 77.8212121,90.2238971 C76.830303,90.5529412 75.7733333,90.6845588 74.7824242,90.61875 C72.9327273,90.61875 71.0830303,90.5529412 69.1672727,90.4213235 C68.5727273,90.4213235 67.9781818,90.2897059 67.3836364,90.0922794 C66.7890909,89.7632353 66.3266667,89.2367647 66.1945455,88.1180147 Z" id="Shape" fill="#DCD2B4" fill-rule="nonzero"/>
      <path d="M67.5157576,45.5397059 C67.6478788,44.4867647 67.9781818,43.8286765 68.5727273,43.6970588 C69.1012121,43.4996324 69.629697,43.3680147 70.2242424,43.3022059 C71.809697,43.1047794 73.4612121,43.3680147 75.0466667,43.3680147 C76.5,43.3022059 77.9533333,43.3680147 79.4727273,43.3680147 C79.7369697,43.3680147 80.0012121,43.3680147 80.1993939,43.3680147 C81.0581818,44.75 80.4636364,46.8558824 79.6709091,47.3823529 C79.4727273,47.4481618 79.3406061,47.5797794 79.1424242,47.6455882 C78.1515152,47.9746324 77.0945455,48.10625 76.1036364,48.0404412 C74.2539394,48.0404412 72.4042424,47.9746324 70.4884848,47.8430147 C69.8939394,47.8430147 69.2993939,47.7113971 68.7048485,47.5139706 C68.110303,47.2507353 67.6478788,46.7242647 67.5157576,45.5397059 Z" id="Shape" fill="#DCD2B4" fill-rule="nonzero"/>
      <path d="M41.7521212,55.2794118 C41.4218182,53.9632353 41.62,52.58125 42.2806061,51.3966912 C44.5266667,49.0933824 52.189697,51.0018382 54.8981818,51.2650735 C58.9939394,51.5941176 63.089697,52.1205882 67.1854545,52.9102941 C67.5818182,53.3051471 67.7139394,53.8974265 67.5157576,54.4238971 C64.4769697,56.3981618 59.1921212,56.0033088 55.6248485,56.2007353 C51.7933333,56.3981618 44.9230303,57.9775735 41.7521212,55.2794118 Z" id="Shape" fill="#DCD2B4" fill-rule="nonzero"/>
      <path d="M43.2054545,63.6371324 C42.6109091,62.3209559 42.2806061,61.1363971 42.9412121,59.8202206 C49.9436364,58.4382353 58.6636364,57.7143382 65.7981818,58.4382353 C66.8551515,59.7544118 66.9212121,59.9518382 66.8551515,61.1363971 C59.9187879,64.6242647 50.6042424,66.1378676 43.2054545,63.6371324 Z" id="Shape" fill="#DCD2B4" fill-rule="nonzero"/>
      <path d="M46.0460606,69.9547794 C50.2078788,68.8360294 54.369697,68.0463235 58.6636364,67.5198529 C60.8436364,67.1908088 66.2606061,64.8875 68.110303,66.4669118 C68.4406061,69.0334559 56.2854545,72.3238971 54.5018182,72.9161765 C52.7181818,73.5084559 48.8866667,74.6930147 47.0369697,74.1007353 C44.7909091,73.3768382 45.5175758,71.8632353 46.0460606,69.9547794 Z" id="Shape" fill="#DCD2B4" fill-rule="nonzero"/>
      <path d="M49.1509091,78.6415441 C52.189697,76.7988971 56.0872727,76.1408088 59.4563636,74.8904412 C62.3630303,73.8375 65.4678788,71.9948529 68.6387879,72.1264706 C67.3836364,75.3511029 50.2078788,83.7088235 49.1509091,78.6415441 Z" id="Shape" fill="#DCD2B4" fill-rule="nonzero"/>
      <path d="M44.9230303,52.7128676 L41.6860606,54.6871324 C41.6860606,54.6871324 43.6678788,75.0878676 49.5472727,79.2338235 L52.1236364,79.5628676 C49.9436364,74.1665441 48.0939394,68.6386029 46.5084848,63.0448529 C45.7157576,59.6227941 45.1872727,56.2007353 44.9230303,52.7128676 Z" id="Shape" fill="#DCD2B4" fill-rule="nonzero"/>
      <path d="M79.010303,62.5183824 L78.2836364,61.2022059 C78.4157576,60.7415441 78.6139394,60.2808824 78.8121212,59.8202206 C81.2563636,57.9117647 88.1266667,59.7544118 90.9672727,59.9518382 C94.1381818,60.1492647 97.1769697,60.2808824 100.281818,61.0705882 C100.876364,61.9919118 101.206667,63.0448529 101.338788,64.1636029 C99.9515152,67.3882353 93.4775758,65.6772059 90.9012121,65.4139706 C86.8054545,65.0849265 82.8418182,64.0977941 79.010303,62.5183824 Z" id="Shape" fill="#DCD2B4" fill-rule="nonzero"/>
      <path d="M78.68,54.6871324 C79.6048485,51.4625 85.8806061,52.6470588 88.1927273,52.7128676 C92.1563636,52.8444853 96.0539394,52.9102941 100.017576,53.0419118 C103.981212,57.2536765 93.3454545,57.3852941 92.0242424,57.3852941 C89.4478788,57.3194853 79.2745455,58.4382353 78.68,54.6871324 Z" id="Shape" fill="#DCD2B4" fill-rule="nonzero"/>
      <path d="M80.0672727,66.6643382 C86.8054545,67.1908088 93.8078788,69.0992647 100.48,70.5470588 L101.140606,71.5341912 C101.206667,72.3897059 101.008485,73.2452206 100.612121,74.0349265 C98.1678788,74.2981618 77.7551515,69.6257353 80.0672727,66.6643382 Z" id="Shape" fill="#DCD2B4" fill-rule="nonzero"/>
      <path d="M80.3315152,73.7058824 C80.9921212,70.8102941 96.0539394,76.8647059 98.4321212,77.6544118 L98.8945455,78.9705882 C97.7715152,83.3139706 82.1151515,76.4040441 80.3315152,73.7058824 Z" id="Shape" fill="#DCD2B4" fill-rule="nonzero"/>
      <path d="M95.2612121,79.7602941 L98.3,79.8261029 C98.3,79.8261029 100.413939,77.5227941 101.53697,71.9948529 C102.66,66.2036765 102.329697,56.7272059 100.413939,53.7658088 L97.3090909,53.7 C98.1678788,55.2136029 98.7624242,56.9246324 98.9606061,58.6356618 C99.3569697,60.9389706 99.0266667,63.8345588 98.6963636,67.2566176 C98.3,71.2709559 95.6575758,78.2466912 95.2612121,79.7602941 Z" id="Shape" fill="#DCD2B4" fill-rule="nonzero"/>
      <path d="M72.4042424,52.0547794 C71.9418182,56.5955882 71.7436364,61.0705882 71.809697,65.6113971 C71.7436364,68.4411765 71.8757576,71.2709559 71.809697,74.1007353 C71.7436364,76.3382353 71.4133333,79.0363971 72.0739394,81.0106618 C72.8666667,81.4713235 73.3951515,81.2080882 74.0557576,80.0235294 C74.8484848,71.0077206 74.650303,61.3338235 74.1218182,52.1205882 L72.4042424,52.0547794 Z" id="Shape" fill="#C8BEA0" fill-rule="nonzero"/>
      <path d="M67.9781818,80.2209559 C68.3745455,76.5356618 74.5181818,78.2466912 77.0945455,78.4441176 C79.6048485,84.8933824 68.3084848,84.1694853 67.9781818,80.2209559 Z" id="Shape" fill="#C8BEA0" fill-rule="nonzero"/>
      <path d="M69.0351515,72.9819853 C69.3654545,69.3625 74.7824242,71.0077206 77.0284848,71.2051471 C79.2745455,77.5886029 69.2993939,76.9305147 69.0351515,72.9819853 Z" id="Shape" fill="#C8BEA0" fill-rule="nonzero"/>
      <path d="M69.8278788,66.4011029 C70.1581818,62.7158088 75.2448485,62.5841912 76.5,65.3481618 C78.4157576,69.8231618 70.0921212,70.3496324 69.8278788,66.4011029 Z" id="Shape" fill="#C8BEA0" fill-rule="nonzero"/>
      <path d="M69.2993939,59.4911765 C69.629697,55.8716912 74.7163636,55.6742647 75.9715152,58.4382353 C77.8872727,62.9132353 69.5636364,63.3738971 69.2993939,59.4911765 Z" id="Shape" fill="#C8BEA0" fill-rule="nonzero"/>
      <path d="M69.96,53.3051471 C70.2242424,50.34375 74.32,50.2121324 75.3109091,52.4496324 C76.830303,56.0691176 70.1581818,56.4639706 69.96,53.3051471 Z" id="Shape" fill="#C8BEA0" fill-rule="nonzero"/>
      <path d="M74.2539394,80.0893382 C74.3860606,80.7474265 73.9236364,81.4055147 73.2630303,81.5371324 C73.2630303,81.5371324 73.1969697,81.5371324 73.1969697,81.5371324 C72.5363636,81.6029412 71.9418182,81.2080882 71.809697,80.55 C71.809697,80.1551471 71.9418182,79.7602941 72.2721212,79.5628676 C72.3381818,79.4970588 72.470303,79.43125 72.5363636,79.43125 C72.6684848,79.3654412 72.8006061,79.3654412 72.9327273,79.3654412 C73.3951515,79.43125 74.1218182,79.4970588 74.2539394,80.0893382 Z" id="Shape" fill="#DCD2B4" fill-rule="nonzero"/>
      <path d="M74.4521212,72.8503676 C74.5842424,73.5084559 74.1218182,74.1665441 73.4612121,74.2981618 C73.3951515,74.2981618 73.3951515,74.2981618 73.3290909,74.2981618 C72.6684848,74.3639706 72.0739394,73.9691176 71.9418182,73.3110294 C71.9418182,72.9161765 72.14,72.5213235 72.470303,72.3238971 C72.5363636,72.2580882 72.6684848,72.1922794 72.7345455,72.1922794 C72.8666667,72.1264706 72.9987879,72.1264706 73.1309091,72.1264706 C73.5933333,72.1264706 74.32,72.2580882 74.4521212,72.8503676 Z" id="Shape" fill="#DCD2B4" fill-rule="nonzero"/>
      <path d="M74.5842424,65.9404412 C74.7163636,66.5985294 74.2539394,67.3224265 73.5272727,67.3882353 C73.5272727,67.3882353 73.4612121,67.3882353 73.4612121,67.3882353 C72.8006061,67.4540441 72.2060606,67.0591912 72.0739394,66.4011029 C72.0739394,66.00625 72.2060606,65.6113971 72.5363636,65.4139706 C72.6024242,65.3481618 72.7345455,65.2823529 72.8006061,65.2823529 C72.9327273,65.2165441 73.0648485,65.2165441 73.1969697,65.2165441 C73.7254545,65.2165441 74.4521212,65.3481618 74.5842424,65.9404412 Z" id="Shape" fill="#DCD2B4" fill-rule="nonzero"/>
      <path d="M74.2539394,58.8988971 C74.3860606,59.5569853 73.9236364,60.2808824 73.1969697,60.3466912 C73.1969697,60.3466912 73.1309091,60.3466912 73.1309091,60.3466912 C72.470303,60.4125 71.8757576,60.0176471 71.7436364,59.3595588 C71.7436364,58.9647059 71.8757576,58.5698529 72.2060606,58.3724265 C72.2721212,58.3066176 72.4042424,58.2408088 72.470303,58.2408088 C72.6024242,58.175 72.7345455,58.175 72.8666667,58.175 C73.3951515,58.2408088 74.1218182,58.3066176 74.2539394,58.8988971 Z" id="Shape" fill="#DCD2B4" fill-rule="nonzero"/>
      <path d="M74.1878788,52.8444853 C74.32,53.5025735 73.8575758,54.2264706 73.1309091,54.2922794 C73.1309091,54.2922794 73.0648485,54.2922794 73.0648485,54.2922794 C72.4042424,54.3580882 71.809697,53.9632353 71.6775758,53.3051471 C71.6775758,52.9102941 71.8757576,52.5154412 72.14,52.3180147 C72.2060606,52.2522059 72.3381818,52.1863971 72.4042424,52.1863971 C72.5363636,52.1205882 72.6684848,52.1205882 72.8006061,52.1205882 C73.2630303,52.1863971 73.989697,52.2522059 74.1878788,52.8444853 Z" id="Shape" fill="#DCD2B4" fill-rule="nonzero"/>
      <path d="M40.3648485,130.038235 C40.0345455,130.630515 40.1666667,131.420221 40.8272727,131.749265 C40.8272727,131.749265 40.8933333,131.749265 40.8933333,131.815074 C41.4878788,132.144118 42.2145455,131.946691 42.5448485,131.354412 C42.6769697,131.025368 42.6769697,130.564706 42.4127273,130.235662 C42.3466667,130.169853 42.2806061,130.104044 42.2145455,129.972426 C42.0824242,129.906618 42.0163636,129.775 41.8842424,129.775 C41.4218182,129.709191 40.7612121,129.577574 40.3648485,130.038235 Z" id="Shape" fill="#C8BEA0" fill-rule="nonzero"/>
      <path d="M59.7866667,97.5944853 C57.8048485,94.5672794 53.1145455,93.5143382 49.8775758,95.1595588 C47.1030303,96.5415441 46.1121212,102.069485 48.6224242,103.714706 C51.2648485,106.215441 49.5472727,108.255515 48.16,110.953676 C46.5745455,113.849265 45.5836364,116.942279 44.3284848,120.035294 C43.3375758,122.338603 41.8842424,125.168382 42.0824242,127.800735 C42.2145455,129.643382 43.4036364,130.696324 44.9230303,131.222794 C45.3193939,131.354412 48.0278788,130.959559 50.2078788,128.65625 C53.5769697,125.168382 57.0121212,118.784926 58.0030303,115.955147 C60.0509091,109.6375 61.7024242,100.555882 59.7866667,97.5944853 Z" id="Shape" fill="#C8BEA0" fill-rule="nonzero"/>
      <path d="M51.5951515,97.9235294 C50.4060606,99.5029412 50.4721212,101.345588 51.7933333,102.464338 C52.9824242,103.451471 54.7,103.319853 55.6909091,102.135294 C55.6909091,102.069485 55.7569697,102.069485 55.7569697,102.003676 C56.2854545,101.148162 56.4175758,100.161029 56.0212121,99.2397059 C55.9551515,98.9764706 55.8230303,98.7790441 55.6248485,98.5816176 C55.4266667,98.3183824 55.1624242,98.1209559 54.8981818,97.9235294 C54.0393939,97.2654412 52.3218182,97.1338235 51.5951515,97.9235294 Z" id="Shape" fill="#F0E6D2" fill-rule="nonzero"/>
      <path d="M46.8387879,138.461765 C46.9048485,138.264338 47.1030303,138.001103 47.1690909,137.737868 C47.9618182,135.434559 47.4993939,134.315809 45.2533333,132.999632 C44.2624242,132.407353 43.0072727,132.275735 41.8842424,132.670588 C39.5060606,133.723529 39.9024242,137.211397 41.8842424,138.395956 L43.3375758,139.317279 C44.5266667,139.383088 45.7818182,139.448897 46.8387879,138.461765 Z" id="Shape" fill="#C8BEA0" fill-rule="nonzero"/>
      <path d="M46.9048485,143.463235 C46.8387879,142.739338 46.9048485,142.147059 46.4424242,141.620588 C45.8478788,141.357353 45.3193939,141.620588 44.6587879,141.752206 C37.3260606,150.570588 30.72,165.640809 25.3030303,175.709559 L26.4921212,176.104412 C30.1254545,172.813971 35.08,162.679412 37.4581818,158.467647 C40.9593939,152.413235 43.8660606,149.846691 46.9048485,143.463235 Z" id="Shape" fill="#C8BEA0" fill-rule="nonzero"/>
      <path d="M28.6721212,176.565074 C29.3987879,176.828309 30.7860606,177.157353 31.1824242,177.88125 L30.8521212,178.276103 C29.2666667,178.539338 26.6242424,177.354779 25.1048485,176.959926 C23.3212121,176.433456 22,175.841176 22,175.380515 C22,174.656618 22.330303,173.932721 22.8587879,173.40625 C22.7266667,173.537868 24.9066667,175.183088 24.9066667,175.183088 C24.9066667,175.183088 28.54,176.499265 28.6721212,176.565074 Z" id="Shape" fill="#C8BEA0" fill-rule="nonzero"/>
      <path d="M38.7793939,138.922426 C37.5242424,138.132721 35.2781818,144.187132 34.0230303,146.819485 C32.569697,149.846691 32.1733333,149.780882 30.8521212,152.939706 C29.5309091,156.295956 22.8587879,173.340441 22.8587879,173.340441 L23.1890909,175.446324 L24.6424242,175.775368 L38.6472727,143.397426 C38.7133333,143.463235 40.0345455,139.712132 38.7793939,138.922426 Z" id="Shape" fill="#C8BEA0" fill-rule="nonzero"/>
      <path d="M88.0606061,31.8514706 C89.910303,31.7856618 93.3454545,31.0617647 95.1951515,30.9301471 C95.2612121,31.2591912 95.8557576,38.3007353 93.4775758,39.0904412 C92.7509091,39.7485294 91.0333333,39.15625 90.1745455,38.9588235 C88.7872727,37.9058824 87.7963636,33.8257353 88.0606061,31.8514706 Z" id="Shape" fill="#C8BEA0" fill-rule="nonzero"/>
      <path d="M77.6890909,38.1033088 C76.830303,37.1161765 76.5660606,30.9959559 76.6981818,29.8113971 C77.8212121,29.8772059 81.5206061,32.7727941 82.3793939,33.1018382 C82.8418182,33.6283088 82.5115152,37.8400735 82.2472727,38.3007353 C80.3975758,38.9588235 79.4066667,38.8930147 77.6890909,38.1033088 Z" id="Shape" fill="#F0E6D2" fill-rule="nonzero"/>
      <path d="M96.2521212,32.44375 C96.12,34.0889706 96.1860606,35.7341912 96.450303,37.3136029 C98.0357576,38.0375 98.8284848,38.0375 100.149697,37.3136029 C100.546061,36.7871324 100.678182,30.6011029 100.612121,28.2977941 L96.2521212,32.44375 Z" id="Shape" fill="#AAA082" fill-rule="nonzero"/>
      <path d="M87.8624242,33.2334559 C88.2587879,33.9573529 87.6642424,37.7084559 87.4660606,38.4323529 C87.2018182,39.3536765 86.2769697,39.8801471 85.4181818,39.6169118 C85.2860606,39.5511029 85.1539394,39.4852941 84.9557576,39.4194853 C84.8236364,39.3536765 84.6915152,39.2220588 84.5593939,39.15625 C84.0309091,38.1691176 83.1060606,33.5625 83.4363636,32.5095588 C84.3612121,32.2463235 87.0036364,32.9702206 87.8624242,33.2334559 Z" id="Shape" fill="#F0E6D2" fill-rule="nonzero"/>
      <path d="M96.3842424,4.01433824 C92.2224242,1.57941176 86.8715152,1.38198529 82.2472727,0.789705882 C75.2448485,-0.131617647 57.5406061,3.68529412 53.0484848,10.7268382 C51.0006061,13.8856618 50.8684848,19.5452206 53.0484848,22.7040441 C55.6248485,26.5209559 59.8527273,27.7055147 64.2127273,28.3636029 C69.5636364,29.2191176 73.5272727,28.3636029 77.1606061,32.9702206 C79.0763636,35.4051471 81.7187879,36.3264706 84.5593939,36.4580882 C86.2109091,36.5238971 92.4206061,36.2606618 93.7418182,35.9316176 C96.9127273,35.0761029 99.4890909,32.9044118 100.810303,29.9430147 C106.887879,15.8599265 100.215758,6.25183824 96.3842424,4.01433824 Z" id="Shape" fill="#DCD2B4" fill-rule="nonzero"/>
      <path d="M94.0060606,16.4522059 C93.2133333,16.3863971 92.5527273,16.9128676 92.3545455,17.6367647 C91.8260606,18.8871324 91.429697,20.1375 91.2315152,21.4536765 C91.0993939,22.8356618 90.7030303,24.1518382 90.4387879,25.4680147 C90.2406061,26.3893382 89.8442424,28.3636029 91.429697,28.3636029 C93.0151515,28.3636029 93.2133333,26.1919118 94.270303,25.9944853 C95.3272727,25.7970588 95.1290909,27.3106618 96.6484848,28.1661765 C98.1678788,29.0216912 98.2339394,27.6397059 98.3660606,27.3764706 C98.4321212,24.5466912 96.6484848,16.78125 94.0060606,16.4522059 Z" id="Shape" fill="#C8BEA0" fill-rule="nonzero"/>
      <path d="M87.0036364,15.9257353 C89.0515152,19.2161765 86.8054545,23.0330882 83.3042424,24.3492647 C80.529697,25.4022059 76.6321212,24.2176471 75.6412121,20.7955882 C75.1127273,18.9529412 75.6412121,16.3863971 76.9624242,15.0702206 C77.2927273,14.6753676 77.6890909,14.2805147 78.1515152,14.0172794 C78.7460606,13.6224265 79.4066667,13.2933824 80.0672727,13.1617647 C82.0490909,12.7011029 84.9557576,12.5694853 87.0036364,15.9257353 Z" id="Shape" fill="#FFFFFF" fill-rule="nonzero"/>
      <path d="M84.7575758,17.4393382 C85.2860606,17.6367647 85.6163636,18.0974265 85.6824242,18.6238971 C85.550303,19.4136029 85.4842424,20.2691176 84.3612121,20.4007353 C83.5684848,19.8742647 83.7666667,19.0845588 83.8327273,18.3606618 C83.8327273,17.8341912 84.2290909,17.4393382 84.7575758,17.4393382 Z" id="Shape" fill="#000000" fill-rule="nonzero"/>
      <path d="M111.115758,15.9915441 C113.163636,19.2819853 110.917576,23.0988971 107.416364,24.4150735 C104.641818,25.4680147 100.744242,24.2834559 99.7533333,20.8613971 C99.2248485,19.01875 99.7533333,16.4522059 101.074545,15.1360294 C101.404848,14.7411765 101.801212,14.4121324 102.263636,14.0830882 C102.858182,13.6882353 103.518788,13.3591912 104.179394,13.2275735 C106.161212,12.7669118 109.067879,12.7011029 111.115758,15.9915441 Z" id="Shape" fill="#FFFFFF" fill-rule="nonzero"/>
      <path d="M107.812727,17.5051471 C108.341212,17.7025735 108.671515,18.1632353 108.737576,18.6897059 C108.605455,19.4794118 108.539394,20.3349265 107.416364,20.4665441 C106.623636,19.9400735 106.887879,19.1503676 106.887879,18.4264706 C106.887879,17.9 107.284242,17.5051471 107.812727,17.5051471 Z" id="Shape" fill="#000000" fill-rule="nonzero"/>
      <path d="M81.5866667,130.367279 C76.7642424,130.827941 73.989697,126.813603 70.7527273,123.654779 C67.1193939,120.101103 63.8824242,116.152574 61.1078788,111.940809 C58.5975758,108.123897 56.0872727,104.438603 53.3127273,100.819118 C51.9254545,99.0422794 50.5381818,96.9363971 48.6224242,95.6860294 C46.5745455,94.3698529 39.0436364,90.1580882 44.130303,83.90625 C49.2169697,77.6544118 55.9551515,92.3297794 56.88,93.7775735 C59.8527273,98.2525735 63.8824242,102.530147 67.1854545,106.741912 C70.5545455,111.019485 74.5181818,114.309926 77.8872727,118.390074 C81.2563636,122.470221 84.7575758,125.497426 81.5866667,130.367279 Z M50.4060606,92.0007353 C49.3490909,94.1066176 53.7751515,99.6345588 55.030303,101.279779 C57.2763636,104.372794 59.7866667,107.334191 62.2309091,110.295588 C64.3448485,112.796324 66.2606061,115.428676 68.2424242,117.995221 C70.0260606,120.232721 72.9327273,125.365809 76.169697,125.563235 L78.0854545,124.247059 C77.5569697,121.088235 73.8575758,118.258456 71.9418182,115.757721 C69.629697,112.796324 67.449697,109.703309 65.1375758,106.676103 C63.1557576,104.175368 53.4448485,90.1580882 50.4060606,92.0007353 Z" id="Shape" fill="#DCD2B4" fill-rule="nonzero"/>
      <path d="M47.1690909,87.7231618 L46.3763636,87.9863971 C41.8181818,84.4327206 40.2327273,76.6672794 38.3830303,71.6 C36.9957576,67.8488971 35.5424242,64.1636029 34.2212121,60.4125 C33.230303,57.6485294 31.7109091,53.7 31.9751515,50.6069853 C32.0412121,49.8172794 33.3624242,46.7900735 34.5515152,48.6985294 C38.5151515,55.0161765 46.5084848,77.3911765 47.1690909,87.7231618 Z" id="Shape" fill="#C8BEA0" fill-rule="nonzero"/>
      <path d="M48.0278788,84.8933824 C49.5472727,85.9463235 50.009697,88.0522059 49.0848485,89.6974265 C48.2260606,90.9477941 46.5084848,91.2768382 45.2533333,90.4213235 C45.1872727,90.4213235 45.1872727,90.3555147 45.1212121,90.3555147 C44.3284848,89.6974265 43.9981818,88.7102941 44.0642424,87.7231618 C44.0642424,87.4599265 44.130303,87.1966912 44.2624242,86.9992647 C44.3945455,86.6702206 44.5266667,86.4069853 44.7909091,86.14375 C45.7157576,85.3540441 46.8387879,84.9591912 48.0278788,84.8933824 Z" id="Shape" fill="#C8BEA0" fill-rule="nonzero"/>
      <path d="M83.5024242,138.725 C82.6436364,138.066912 81.9830303,137.277206 81.5866667,136.290074 C81.1242424,135.171324 81.1242424,133.986765 81.5866667,132.868015 C81.9169697,131.946691 82.7757576,131.486029 83.5684848,131.091176 C83.8987879,130.959559 84.2290909,131.025368 84.4933333,131.156985 C85.2860606,131.486029 86.0787879,131.880882 86.8054545,132.407353 C87.9945455,133.394485 88.5230303,135.039706 88.1266667,136.553309 C88.0606061,136.684926 88.0606061,136.816544 87.9945455,136.882353 C87.2678788,137.737868 86.4751515,138.527574 85.4842424,139.119853 C84.889697,139.514706 84.2951515,139.317279 83.5024242,138.725 Z" id="Shape" fill="#AAA082" fill-rule="nonzero"/>
      <path d="M101.801212,142.147059 L100.810303,143.265809 C100.281818,143.331618 99.6872727,143.265809 99.2248485,142.936765 C97.1769697,141.752206 95.0630303,140.567647 93.0151515,139.448897 C92.090303,138.988235 91.2315152,138.330147 90.5048485,137.60625 C90.1084848,137.277206 89.8442424,136.882353 89.8442424,136.355882 C89.9763636,135.961029 90.3066667,135.895221 90.7030303,135.961029 C91.76,135.961029 92.8830303,136.224265 93.8078788,136.750735 C95.0630303,137.474632 96.450303,138.001103 97.7054545,138.725 C98.8284848,139.383088 99.8854545,140.172794 100.876364,140.9625 C101.140606,141.291544 101.470909,141.686397 101.801212,142.147059 Z" id="Shape" fill="#C8BEA0" fill-rule="nonzero"/>
      <path d="M99.8193939,147.345956 C99.1587879,147.675 98.3660606,147.543382 97.7715152,147.148529 C96.9787879,146.687868 96.1860606,146.161397 95.3933333,145.700735 C93.6757576,144.713603 92.0242424,143.660662 90.5048485,142.410294 C89.7781818,141.883824 89.1175758,141.291544 88.5230303,140.699265 C88.0606061,140.370221 87.8624242,139.777941 88.1266667,139.251471 C88.3248485,139.251471 88.4569697,139.251471 88.6551515,139.317279 C89.1836364,139.580515 89.7121212,139.777941 90.3066667,139.84375 C90.5709091,139.909559 90.7690909,139.975368 91.0333333,140.106985 C92.7509091,141.094118 94.6666667,141.883824 96.2521212,143.068382 C97.3090909,143.792279 98.2339394,144.581985 99.0927273,145.503309 C99.5551515,145.963971 99.8193939,146.622059 99.8193939,147.345956 Z" id="Shape" fill="#C8BEA0" fill-rule="nonzero"/>
      <path d="M95.8557576,148.069853 C93.4115152,147.740809 87.3339394,143.594853 86.0127273,141.423162 C86.6733333,141.159926 87.4,141.291544 87.9945455,141.686397 C89.1836364,142.541912 90.3727273,143.397426 91.5618182,144.252941 C92.2884848,144.779412 93.0151515,145.240074 93.7418182,145.700735 C94.7327273,146.161397 95.4593939,147.016912 95.8557576,148.069853 Z" id="Shape" fill="#C8BEA0" fill-rule="nonzero"/>
      <path d="M95.8557576,132.407353 C95.2612121,132.868015 94.4684848,133.065441 93.7418182,132.868015 C93.3454545,132.802206 93.0151515,132.736397 92.6848485,132.604779 C90.7030303,131.880882 88.6551515,131.288603 86.5412121,130.827941 C86.3430303,130.762132 86.1448485,130.696324 86.0127273,130.630515 C86.1448485,130.367279 86.2769697,130.169853 86.4090909,129.972426 C87.069697,129.314338 87.9945455,128.985294 88.9193939,129.051103 C90.9012121,129.314338 92.9490909,129.380147 94.7987879,130.169853 C95.9218182,130.630515 96.12,130.959559 95.8557576,132.407353 Z" id="Shape" fill="#C8BEA0" fill-rule="nonzero"/>
    </g>
  </g>
</svg>