<svg width="40px" height="42px" viewBox="0 0 40 42" version="1.1" xml:space="preserve" xmlns="http://www.w3.org/2000/svg" xmlns:xlink="http://www.w3.org/1999/xlink">
  <!-- Generator: Sketch 50.2 (55047) - http://www.bohemiancoding.com/sketch -->
  <defs/>
  <g>
    <title>chick-b</title>
    <desc>Created with Sketch.</desc>
    <g id="chick-b" stroke="none" stroke-width="1" fill="none" fill-rule="evenodd">
      <path d="M12.917381,40.9534024 L12.917381,29.2244867" id="Stroke-1" stroke="#E54529" stroke-width="0.8" stroke-linecap="round"/>
      <path d="M18.0445,40.9534024 L18.0445,29.2244867" id="Stroke-3" stroke="#E54529" stroke-width="0.8" stroke-linecap="round"/>
      <path d="M36.8426143,27.9940639 L39.0760905,30.1879675" id="Stroke-5" stroke="#E54529" stroke-width="1.6" stroke-linecap="round"/>
      <path d="M37.4454262,27.3809795 C34.8468548,30.6817747 30.0160214,31.2881 26.6560929,28.7359675 C23.2957595,26.1834373 22.6780929,21.438594 25.2766643,18.1377988 C27.874831,14.8370036 32.7056643,14.2302807 36.0659976,16.7828108 C39.426331,19.335341 40.0439976,24.0797867 37.4454262,27.3809795" id="Fill-7" fill="#FFDB5D"/>
      <path d="M33.8555119,24.6541458 C32.7901786,26.0071458 30.8096786,26.2560373 29.431869,25.2091819 C28.0544643,24.1631217 27.8010833,22.217712 28.8664167,20.864712 C29.93175,19.5109169 31.91225,19.2624229 33.2900595,20.3088807 C34.6674643,21.3553386 34.9208452,23.3007482 33.8555119,24.6541458" id="Fill-9" fill="#FFF4E3"/>
      <path d="M32.9886738,23.9956169 C32.2932929,24.8790627 31.0012929,25.0412795 30.1019119,24.3582193 C29.2029357,23.675159 29.0377929,22.4060506 29.7331738,21.5226048 C30.42815,20.6399542 31.7205548,20.4773398 32.619531,21.1600024 C33.5189119,21.8430627 33.6840548,23.1125687 32.9886738,23.9956169" id="Fill-11" fill="#17242D"/>
      <path d="M36.8153333,18.1595072 C35.7544524,17.3535916 35.5593571,15.8554711 36.3798095,14.8129892 C37.2002619,13.7709048 38.7258095,13.5792663 39.7866905,14.3851819" id="Stroke-13" stroke="#FFDB5D" stroke-width="0.8"/>
      <path d="M31.7218095,30.1004181 C26.8703333,36.2634663 17.850619,37.3962012 11.5764048,32.6302855 C5.30259524,27.8647675 4.14942857,19.0052614 9.00090476,12.8426108 L31.7218095,30.1004181 Z" id="Fill-15" fill="#FFDB5D"/>
      <path d="M24.0131595,24.2666542 C21.7740167,27.1110157 17.6114452,27.6342446 14.7153738,25.4347747 C11.8197071,23.2349072 11.2874452,19.146088 13.5265881,16.3017265 L24.0131595,24.2666542 Z" id="Fill-17" fill="#FECB43"/>
      <path d="M8.96504286,12.8883337 L12.8131143,7.99996024 L18.4514476,12.2828036 C19.341519,12.9587072 19.9555429,13.9252494 20.183019,15.0074904 L21.7891143,22.6503699 L8.96504286,12.8883337 Z" id="Fill-19" fill="#FFDB5D"/>
    </g>
  </g>
</svg>