<svg width="194px" height="112px" viewBox="0 0 194 112" version="1.1" xml:space="preserve" xmlns="http://www.w3.org/2000/svg" xmlns:xlink="http://www.w3.org/1999/xlink">
  <defs/>
  <g>
    <title>zebra-b</title>
    <desc>Created with Sketch.</desc>
    <g id="zebra-b" stroke="none" stroke-width="1" fill="none" fill-rule="evenodd">
      <g id="Group">
        <path d="M133.373727,54.9964349 C134.768429,57.8723544 142.867742,73.6448107 142.867742,73.6448107 C142.867742,73.6448107 145.528314,77.9053208 146.270607,79.0614013 C146.911781,80.0596295 147.050352,79.8544215 148.12297,82.7528913 C148.669016,84.2276832 146.133534,85.9926228 143.085711,88.5483275 C140.483564,90.7304483 139.515063,94.403898 138.063433,94.4978577 C137.09568,94.5609987 134.999881,95.906502 134.999881,95.906502 C133.631395,96.4710121 131.735588,99.3364081 131.861425,98.9320054 C132.060669,98.2930792 132.072653,92.5247034 132.072653,91.6986094 C132.072653,90.7875758 132.9288,92.1210523 133.804422,91.5009181 C135.316723,90.4305289 134.226877,89.7104215 136.194592,88.2003007 C137.376568,87.2930255 138.406491,87.7643275 140.123279,86.2429315 C141.443827,85.0718174 141.015379,83.945804 140.279827,81.4502336 C140.115788,80.896247 139.825912,79.2312805 138.522592,77.2032537 C137.219271,75.1767302 129.367889,65.0508779 124.949333,62.1321128" id="Fill-1" fill="#B1B6CC"/>
        <path d="M133.373727,54.9964349 C134.768429,57.8723544 143.556105,74.985804 143.556105,74.985804 C143.556105,74.985804 147.931966,81.2217235 148.061549,82.4860456 C148.216599,83.9894013 147.527487,84.3201396 145.922306,86.2429315 C144.537341,87.9018846 143.181588,87.9206765 142.180128,89.6750926 C140.779433,92.1285691 138.063433,94.4978577 138.063433,94.4978577 C135.62907,94.6857772 132.032205,98.4291329 131.861425,98.9320054 C131.646453,99.5664215 132.032205,92.8817503 132.04419,91.8677369 C132.053927,90.9567034 133.381966,92.4202201 134.442599,90.9273879 C135.064298,90.0524349 134.891271,88.9993342 136.003588,88.313804 C138.602738,86.7112268 138.25968,88.8369718 140.401171,85.9926228 C141.589889,84.4133477 140.840854,83.4782604 140.559966,82.5965423 C140.383943,82.0455624 139.825912,79.2312805 138.522592,77.2032537 C137.219271,75.1767302 129.367889,65.0508779 124.949333,62.1321128" id="Stroke-3" stroke="#424763" stroke-width="0.5625"/>
        <path d="M132.04389,91.8679624 L128.094979,91.8326336 L128.10172,103.686593 C128.10172,103.686593 130.261188,100.97454 131.197481,100.856526 C131.197481,100.856526 131.665628,98.9262174 131.915056,98.5383517" id="Fill-5" fill="#313753"/>
        <path d="M134.413162,71.8126711 C134.413162,71.8126711 139.115602,67.6558926 139.414467,66.7388456 L140.988189,69.9800805 L137.347131,75.208 L134.413162,71.8126711 Z" id="Fill-7" fill="#424763"/>
        <path d="M129.490281,66.193804 C129.490281,66.193804 135.558212,61.2665557 135.856327,60.3502604 L137.430798,63.5914953 L132.586791,69.6304752 L129.490281,66.193804 Z" id="Fill-9" fill="#424763"/>
        <path d="M138.841531,77.7438604 C138.841531,77.7438604 142.568727,75.4497396 142.884071,74.3703302 C142.884071,74.3703302 144.616588,76.3149208 144.818079,76.8328268 C144.818079,76.8328268 140.469932,81.2992966 140.279677,81.4503839 L140.095415,81.0196725 L138.841531,77.7438604 Z" id="Fill-11" fill="#424763"/>
        <path d="M140.893286,83.4783356 C140.893286,83.4783356 146.520785,81.6878389 147.009904,80.2716779 C147.050352,80.1514094 148.197873,82.0328591 148.058553,83.2287785 C147.891518,84.6682416 146.089341,86.0453154 146.089341,86.0453154 C146.089341,86.0453154 140.863325,85.4755436 140.596669,85.7123221 C140.328514,85.9491007 141.279039,84.3224698 140.893286,83.4783356" id="Fill-13" fill="#424763"/>
        <path d="M143.243533,88.359506 C143.243533,88.359506 142.322969,89.6659221 142.639062,89.0097074 C142.753664,88.7007678 140.912537,91.5052779 140.912537,91.5052779 C140.912537,91.5052779 137.550869,87.4409557 136.516452,88.0257611 C136.100737,88.2542711 137.325409,87.7138148 137.325409,87.7138148 L139.414467,87.1335195 L143.243533,88.359506 Z" id="Fill-15" fill="#424763"/>
        <path d="M134.442375,90.9276134 C134.49256,90.8336537 137.344884,94.7483919 136.033324,95.2324725 C135.458066,95.4444456 133.577988,97.0034255 133.577988,97.0034255 C133.577988,97.0034255 133.782475,93.3705664 133.57649,91.5868349 C133.548776,91.3478013 134.442375,90.9276134 134.442375,90.9276134" id="Fill-17" fill="#424763"/>
        <path d="M113.136605,63.1346255 C113.889385,63.0744913 123.295764,61.9236725 123.295764,61.9236725 L113.175555,66.7389208 L113.136605,63.1346255 Z" id="Fill-19" fill="#313753"/>
        <path d="M115.590743,67.9603221 C115.590743,67.9603221 121.876642,66.742604 122.589724,66.7388456 C122.900573,66.738094 121.699121,69.1359463 121.699121,69.1359463 L115.590743,67.9603221 Z" id="Fill-21" fill="#313753"/>
        <path d="M59.6789691,41.4005369 C59.6789691,41.4005369 59.6033166,56.9354631 46.8577413,68.5548993 C36.2154556,78.6709799 22.6916332,79.1407785 22.6916332,79.1407785 C22.6916332,79.1407785 20.8887066,78.570255 21.4834402,85.4330738 C22.0781737,92.2951409 22.9140965,100.388456 22.9140965,100.388456 C22.9140965,100.388456 23.3642664,103.132081 25.6420811,104.760966 C26.7191931,105.575034 18.8176255,108.456966 18.8176255,108.456966 C18.8176255,108.456966 17.44839,85.6555705 14.2200502,74.7562416 C13.4567838,72.1546846 13.7728764,72.5440537 15.2027838,71.9848054 C16.7795019,71.3676779 27.558112,68.6804295 27.7820734,54.7112483 C28.0060347,40.7428188 35.8409382,26.5488859 35.8229614,26.3609664" id="Fill-23" fill="#B1B6CC"/>
        <path d="M59.9200085,38.3938255 C59.9200085,38.3938255 59.6031668,56.9354631 46.8575915,68.5548993 C36.2160548,78.6709799 22.6914834,79.1407785 22.6914834,79.1407785 C22.6914834,79.1407785 20.8893058,78.570255 21.4832903,85.4330738 C22.0780239,92.2951409 22.9139467,100.388456 22.9139467,100.388456 C22.9139467,100.388456 23.826271,103.789799 25.6419313,104.760966 C26.6246649,105.058631 18.8174757,108.456966 18.8174757,108.456966 C18.8174757,108.456966 17.4482402,85.6555705 14.2199004,74.7562416 C13.456634,72.1546846 13.7734757,72.5440537 15.202634,71.9848054 C16.7793521,71.3676779 27.5579622,68.6804295 27.7819236,54.7112483 C28.0058849,40.7428188 35.8415375,26.5488859 35.8235606,26.3609664" id="Stroke-25" stroke="#424763" stroke-width="0.5625"/>
        <path d="M17.323451,55.1708242 C33.3954896,49.741455 33.0749027,38.8383678 33.662895,34.3779114" id="Stroke-27" stroke="#424763" stroke-width="1.5"/>
        <path d="M19.3287668,111.322738 C19.3287668,111.322738 20.9339483,110.205745 20.2845351,107.741745 C20.6148595,107.611705 25.4536239,105.236403 25.4536239,105.236403 L28.624288,106.860027 L29.8796703,111.322738 L19.3287668,111.322738 Z" id="Fill-29" fill="#424763"/>
        <path d="M18.9659344,54.8944322 C18.9659344,54.8944322 18.915749,54.9380295 18.8213707,55.0199624 C18.7292394,55.104902 18.5869228,55.2199087 18.3876795,55.3514523 C18.1839421,55.4844993 17.9547375,55.6303248 17.643139,55.7784054 C17.3495174,55.9249826 17.017695,56.0790765 16.6566602,56.2309154 C16.3023668,56.3910228 15.9106216,56.5556403 15.5435946,56.7398013 C15.444722,56.7833987 15.3683205,56.8375195 15.2821815,56.8871302 L15.165332,56.9570362 L15.0207683,57.0570094 C14.8327606,57.1953181 14.6087992,57.3170899 14.432027,57.4538953 C14.0590077,57.7124725 13.6755019,58.0199087 13.2852548,58.3250899 C12.8980039,58.6340295 12.5047606,58.9519893 12.1235019,59.2887409 C11.7340039,59.6142174 11.3572394,59.9584859 10.9789768,60.2929826 C10.8643745,60.389949 10.5834865,60.658298 10.5025907,60.7672913 C10.3834942,60.8935732 10.249417,61.0860027 10.141556,61.2633987 C9.69063707,61.9947812 9.4112471,62.853949 9.13784942,63.5853315 C8.88018147,64.3257342 8.62326255,64.9533852 8.41053668,65.3720698 C8.30941699,65.584043 8.2082973,65.7418953 8.14238224,65.8493852 C8.07721622,65.9561235 8.04276062,66.013251 8.04276062,66.013251 C8.04276062,66.013251 8.08245946,65.7464054 8.12515444,65.2878819 C8.17459073,64.8286067 8.21279151,64.1814121 8.30117761,63.390647 C8.34387259,62.9945128 8.39855212,62.560043 8.50266795,62.0985128 C8.60004247,61.6369826 8.7363668,61.1356134 8.98055212,60.6380027 C9.10339382,60.3846872 9.22848263,60.147157 9.42472973,59.8803114 C9.63895367,59.5803919 9.7258417,59.4886872 9.98201158,59.2323651 C10.3520347,58.8602846 10.7437799,58.4972242 11.1497568,58.1461906 C11.5587297,57.7989154 11.9796873,57.4614121 12.4171236,57.1569826 C12.8470695,56.8420295 13.2994865,56.5789423 13.7563977,56.3181101 C13.9871004,56.1835597 14.1908378,56.0828349 14.4088069,55.9821101 L14.5683514,55.9069423 C14.6514942,55.867855 14.6986834,55.8543248 14.7653475,55.8272644 C14.8881892,55.7814121 15.012529,55.7265396 15.1263822,55.6979758 C15.5907838,55.5453852 16.0147375,55.4739758 16.4064826,55.4010631 C16.7952317,55.3273987 17.1502741,55.2740295 17.4618726,55.2244188 C17.7547452,55.1763114 18.0416255,55.1184322 18.2573475,55.0695732 C18.7030232,54.9786201 18.9659344,54.8944322 18.9659344,54.8944322" id="Fill-31" fill="#424763"/>
        <path d="M3.56285869,60.6101906 C3.56285869,60.6101906 3.59431815,60.5598282 3.65274286,60.4643651 C3.71641081,60.371157 3.78532201,60.2238282 3.91865019,60.0569557 C4.0482332,59.9006067 4.20403243,59.7074255 4.39353822,59.4999624 C4.5935305,59.2970094 4.85269653,59.0782711 5.1388278,58.8444993 C5.41971583,58.6377879 5.73131429,58.399506 6.06388571,58.1912913 C6.22942239,58.084553 6.39870425,57.9740564 6.57173127,57.860553 C6.80168494,57.7267544 6.95149189,57.6523383 7.15148417,57.5440966 C7.33949189,57.4433718 7.53124479,57.3411436 7.72599382,57.2374121 C7.93797066,57.1434523 8.1566888,57.050996 8.37990116,56.964553 C8.60236448,56.8788617 8.82557683,56.7833987 9.05253436,56.7044725 L9.72292046,56.4985128 C10.6202641,56.224902 11.5295923,56.0482577 12.3774996,55.9107007 C13.226905,55.7663785 14.0178857,55.6799356 14.7002564,55.6137879 C15.3803799,55.5438819 15.9541405,55.5093047 16.3563722,55.4754792 C16.760851,55.4514255 16.999044,55.4499221 16.999044,55.4499221 C16.999044,55.4499221 16.7998008,55.571694 16.437268,55.7633718 C16.0762332,55.9603114 15.5481637,56.2098685 14.8987506,56.4534121 C14.2538317,56.7104859 13.486071,56.9570362 12.6733683,57.2005799 C11.8666579,57.4366067 11.006766,57.6884188 10.1468741,57.9402309 C9.71318301,58.0559893 9.2989668,58.1867812 8.90871969,58.3205799 C8.71022548,58.3874792 8.5102332,58.4461101 8.31024093,58.5039893 C8.10575444,58.5844188 7.90351506,58.6640966 7.70427181,58.7422711 C7.51626409,58.8129289 7.28481236,58.915157 7.14174672,58.9534926 C6.95074286,59.0316671 6.7642332,59.1068349 6.58221776,59.181251 C6.21968494,59.3330899 5.88936062,59.4661369 5.57102085,59.5864054 C5.27065792,59.717949 4.99576216,59.8389691 4.75157683,59.9457074 C4.50814054,60.0855195 4.28492819,60.1952644 4.10441081,60.2884725 C3.75985483,60.4929289 3.56285869,60.6101906 3.56285869,60.6101906" id="Fill-33" fill="#424763"/>
        <path d="M0.00127335907,57.8119195 C-0.000224710425,57.8186846 0.0626942085,57.8652886 0.198269498,57.8231946 C0.331597683,57.7916242 0.521103475,57.7096913 0.761543629,57.6112215 C1.24092587,57.4060134 1.91430811,57.0797852 2.72925792,56.7062013 C3.15845483,56.5242953 3.52173668,56.2927785 4.11871737,56.1206443 C4.6108332,55.9680537 5.12841622,55.7996779 5.66996834,55.6553557 C6.2122695,55.5087785 6.76730425,55.3366443 7.3395668,55.1998389 C7.92006873,55.0758121 8.53053205,54.9878658 9.13050888,54.8796242 C9.73497992,54.7931812 10.3402,54.7067383 10.9356826,54.6217987 C11.0997212,54.6037584 11.1993429,54.574443 11.4135668,54.5654228 L11.849505,54.557906 C12.1386324,54.553396 12.4240147,54.5488859 12.7041537,54.5436242 C13.2591884,54.513557 13.8307019,54.5864698 14.3512811,54.6112752 C14.867366,54.6511141 15.3557367,54.688698 15.8066556,54.7232752 C16.2508332,54.7555973 16.6605552,54.8044564 17.0245861,54.8427919 C17.3811266,54.8488054 17.6972193,54.8698523 17.9593815,54.8833826 C18.4844548,54.9157047 18.7953042,54.9465235 18.7953042,54.9465235 C18.7953042,54.9465235 18.510671,55.0397315 17.9945861,55.181047 C17.7369181,55.248698 17.4208255,55.3358926 17.0523004,55.4170738 C16.6875205,55.4764564 16.2755514,55.5358389 15.8223853,55.5862013 C15.3662232,55.6440805 14.8786015,55.7004564 14.3812425,55.7327785 C13.8741459,55.7838926 13.3595591,55.7966711 12.7962849,55.8643221 C12.516895,55.8943893 12.2337598,55.9237047 11.9461305,55.9545235 L11.5131884,56.0003758 C11.4360378,56.0011275 11.2480301,56.0424698 11.1206942,56.0620134 C10.5521768,56.1589799 9.97542008,56.2582013 9.39866332,56.3574228 C8.81891042,56.4446174 8.2406556,56.5077584 7.66614595,56.6122416 C7.09238533,56.7430336 6.51862471,56.8332349 5.96808417,56.9414765 C5.41754363,57.0512215 4.87898764,57.1286443 4.37039305,57.2098255 L4.18088726,57.2391409 L4.13369807,57.2466577 C4.15392201,57.2398926 4.12920386,57.2466577 4.12920386,57.2451544 L4.04681004,57.264698 C3.92696448,57.2955168 3.80861699,57.3263356 3.69326564,57.3564027 C3.45582162,57.4127785 3.22586795,57.467651 3.00565174,57.5195168 C2.1232888,57.7292349 1.36901081,57.8532617 0.831952896,57.9006174 C0.56454749,57.9276779 0.347327413,57.9209128 0.202014672,57.9043758 C0.0447173745,57.8931007 -0.00921312741,57.8119195 0.00127335907,57.8119195" id="Fill-35" fill="#424763"/>
        <path d="M4.17249807,54.7868671 C4.17249807,54.7868671 5.00018147,54.3486389 6.28402703,53.884102 C6.59862162,53.7555651 6.98287645,53.7074577 7.37611969,53.6277799 C7.77235907,53.5541154 8.19406564,53.4699275 8.6352471,53.4128 L8.9693166,53.3654443 C9.13185714,53.3481557 9.20001931,53.3519141 9.32136293,53.3443973 C9.53858301,53.3323705 9.75879923,53.3233503 9.98126255,53.3210953 C10.4254402,53.3098201 10.8763591,53.3128268 11.327278,53.3135785 C12.2455946,53.3722094 13.1721506,53.4601557 14.0208069,53.5841826 C14.862722,53.7179812 15.6439653,53.8728268 16.3098571,54.0351893 C17.6363977,54.3516456 18.5090232,54.6966658 18.5090232,54.6966658 C18.5090232,54.6959141 17.5869614,54.8552698 16.221471,54.8936054 C15.5405985,54.9251758 14.7511158,54.9311893 13.9084517,54.9033772 C13.4889923,54.8860886 13.0635405,54.9048805 12.6291004,54.8808268 C12.1961583,54.8597799 11.7564749,54.8379812 11.3160425,54.8161826 C10.8651236,54.8064107 10.4142046,54.7996456 9.97002703,54.7770953 C9.74831274,54.7710819 9.52809653,54.7560483 9.31087645,54.7402631 C9.21425097,54.7350013 9.06594208,54.7192161 9.01500772,54.7229745 L8.71164865,54.731243 C8.31091506,54.7500349 7.91767181,54.7372564 7.54240541,54.7327463 C7.167139,54.7462765 6.80984942,54.6846389 6.46679151,54.7237262 C5.10729344,54.8394846 4.17249807,54.7868671 4.17249807,54.7868671" id="Fill-37" fill="#424763"/>
        <path d="M36.0913405,48.2595973 C36.0913405,48.2595973 42.3712479,62.4197047 49.3889544,65.9826577 C49.6556108,66.1179597 46.857966,68.5548993 46.857966,68.5548993 C46.857966,68.5548993 42.093356,64.6709799 36.0913405,48.2595973" id="Fill-39" fill="#424763"/>
        <path d="M29.4981869,42.9369664 C29.4981869,42.9369664 36.4379938,59.7595168 41.2041019,65.172349 C44.8466579,69.3080805 34.5122255,60.7457181 28.3439243,48.4685638" id="Fill-41" fill="#424763"/>
        <path d="M27.816529,51.251651 C27.816529,51.251651 35.6664131,68.518443 41.6789151,72.6526711 L38.5104981,74.568698 C38.5104981,74.568698 30.1759884,62.9191946 27.7888147,54.2748993 C27.7918108,52.2062819 27.816529,51.251651 27.816529,51.251651" id="Fill-43" fill="#424763"/>
        <path d="M27.1292896,59.9018094 C27.1292896,59.9018094 29.4325714,74.2851651 33.6960772,76.6732456 L30.8003089,77.636145 C30.8003089,77.636145 27.0251737,73.515447 25.4439614,64.1720913 C25.738332,63.3557691 27.1292896,59.9018094 27.1292896,59.9018094" id="Fill-45" fill="#424763"/>
        <path d="M22.3326208,68.0590174 C22.3326208,68.0590174 25.4568448,77.0746416 27.0964819,78.5471785 L24.5992,78.959098 C24.5992,78.959098 21.3978255,74.7564671 20.6098409,69.5255409 C20.5536633,69.1481987 22.3326208,68.0590174 22.3326208,68.0590174" id="Fill-47" fill="#424763"/>
        <path d="M16.6947112,71.4493101 C16.9359004,71.4072161 21.4870355,78.7022497 22.2135992,79.2772832 C22.2135992,79.2772832 21.1499699,80.6844242 21.4211205,81.5608805 C21.692271,82.4380886 14.2199004,74.7559409 14.2199004,74.7559409 C14.2199004,74.7559409 13.5899622,73.1488537 13.8566185,72.6888268 C14.1532363,72.1784376 15.504495,71.6545181 16.6947112,71.4493101" id="Fill-49" fill="#424763"/>
        <path d="M21.4833653,85.4327732 L16.2446162,84.2774443 C16.2446162,84.2774443 16.6086471,87.9734443 16.7899135,87.911055 C16.9711799,87.8479141 21.737288,88.2861423 21.737288,88.2861423 L21.4833653,85.4327732 Z" id="Fill-51" fill="#424763"/>
        <polygon id="Fill-53" fill="#424763" points="22.0622942 91.4810738 17.1980625 91.046604 17.6265104 94.740349 22.3731436 94.9891544"/>
        <path d="M22.8044378,99.311302 L18.1124842,99.5616107 L18.5102216,104.760966 C18.5102216,104.760966 22.5422757,103.727409 23.8133876,103.007302 C24.1107544,102.838174 22.7909552,101.128107 22.8044378,99.311302" id="Fill-55" fill="#424763"/>
        <path d="M163.795923,26.007302 C163.795923,26.007302 160.95783,34.113396 164.796633,38.1063087 C167.478178,40.8965369 178.295737,46.1800805 180.742834,51.6583087 C181.050687,52.4077315 181.285884,53.0534228 181.401236,53.6788188 C181.531568,54.3861477 181.506849,55.0664161 181.257421,55.8398926 C181.257421,55.8398926 184.721707,58.846604 189.075846,56.6381745 C193.429236,54.4304966 195.301822,49.1326711 192.492942,41.7278926 C189.684811,34.3231141 189.599421,34.185557 187.905853,28.5915705 C186.338873,23.4155168 186.438494,22.1121074 183.210903,17.1119463 C183.210903,17.1119463 185.076,15.4131544 187.814471,16.7676779 C187.814471,16.7676779 191.138687,4.91522148 179.625274,1.44322148 C169.20695,-1.69804027 141.777297,2.81127517 135.006023,6.48322148 C128.383807,10.0747383 127.786826,13.0213154 128.278193,14.3841074 C128.76956,15.7461477 132.29227,17.1119463 132.29227,17.1119463" id="Fill-57" fill="#D3D5DF"/>
        <path d="M174.786435,10.5392 C174.786435,10.5392 171.614273,8.62467651 164.030296,10.065643 C157.527176,11.3006497 140.092643,14.7636295 136.347469,15.3897772 C132.602296,16.0166765 127.982998,14.951549 121.741292,15.3897772 C115.499585,15.828757 108.258666,17.0186631 103.764458,16.7683544 C99.2702494,16.517294 90.6563498,16.7052134 86.9111761,15.4529181 C83.1660023,14.1998711 67.4991915,9.3139651 58.822373,11.1931597 C50.1463035,13.0723544 38.7856934,22.4059383 36.663678,25.4126497 C34.5409135,28.4193611 33.9798865,31.8011597 33.9169676,34.1817235 C33.8547977,36.5622872 33.0435931,55.3542336 50.7080795,50.2180188 C63.8783575,46.5220188 60.8507591,46.4438443 64.8303807,50.1082738 C67.6984347,52.7496698 81.3091452,69.4166228 97.5856703,70.0119517 C114.179037,70.6193074 128.076628,71.4837369 139.80801,53.6050792 C148.300566,40.8348242 159.915099,36.5239517 163.08052,34.7890792" id="Fill-59" fill="#D3D5DF"/>
        <path d="M178.59228,14.6557638 C178.59228,14.6557638 176.537678,16.6116295 175.913732,16.5492403 C175.289786,16.4860993 174.921261,12.6991463 178.348095,8.8505557 C181.677554,5.11246174 183.78384,3.22800537 183.78384,3.22800537 C183.78384,3.22800537 182.89923,9.50526711 178.59228,14.6557638" id="Fill-61" fill="#C0A1A7"/>
        <path d="M172.82681,44.0156242 C172.82681,44.0156242 175.385513,36.7183356 180.495428,35.4968591 C180.495428,35.4968591 175.626702,41.4163221 176.088856,46.4984161" id="Fill-63" fill="#424763"/>
        <path d="M179.029717,40.4143356 C178.954813,40.4789799 181.245361,36.4680268 184.928365,37.1573154 C188.61062,37.8458523 189.640543,40.4143356 189.640543,40.4143356 C189.640543,40.4143356 183.243037,36.749906 179.029717,40.4143356" id="Fill-65" fill="#424763"/>
        <path d="M176.602694,46.9361181 C176.602694,46.9361181 177.001181,43.387447 178.8101,41.7615678 C180.308169,40.4153128 183.804663,40.6964403 185.77088,40.9978631 C186.575343,41.1218899 187.299659,42.199796 185.988849,42.4501047 C184.678038,42.7011651 182.024957,41.9179168 180.495428,43.4836617 C178.966648,45.0501584 178.404872,46.8038228 178.374161,47.3675812 C178.341953,47.9313396 182.929791,43.5776215 185.614331,45.1749369 C186.394076,45.895796 180.347868,46.2077423 179.501459,49.9668832" id="Fill-67" fill="#424763"/>
        <path d="M191.638219,40.8345987 C191.638219,40.8345987 189.98435,38.2819007 188.54845,37.0777128 C187.112551,35.8727732 184.832489,33.3366121 184.334381,31.6761557 C183.835524,30.016451 187.517778,34.7144376 188.704249,35.9043436 C189.89072,37.0942497 190.645747,37.7324242 190.645747,37.7324242" id="Fill-69" fill="#424763"/>
        <path d="M188.225841,31.4756832 C188.225841,31.4756832 186.363741,29.8595758 185.427447,28.2622604 C184.877656,27.3249181 184.085926,24.1596027 184.085926,24.1596027 C184.085926,24.1596027 183.639501,27.2843275 184.638714,29.1319517 C185.637926,30.9803275 188.686497,34.8710121 189.943378,36.6878174" id="Fill-71" fill="#424763"/>
        <path d="M185.895369,35.7479195 C185.895369,35.7479195 183.335917,33.3673557 182.992859,32.2090201 C182.649802,31.0499329 182.243825,31.1935034 181.026643,31.325047 C179.809462,31.4573423 177.421539,31.3002416 176.602844,30.8935839 C175.7834,30.4861745 175.6673,29.9848054 174.554234,30.8935839 C173.442666,31.8016107 169.322226,35.1841611 169.479524,41.3231141 C169.495253,41.9815839 170.570867,42.7009396 170.570867,42.4679195 L171.774566,43.2819866 C171.774566,43.2819866 171.309415,38.941047 172.82696,35.4976107 C173.723554,33.4613154 175.220875,32.2142819 175.681531,32.2142819 C176.142188,32.2142819 176.782612,33.4928859 178.655199,33.117047 C180.527786,32.7412081 181.807137,32.0211007 181.994396,32.3653691 C182.181655,32.7096376 184.38157,35.4818255 185.895369,35.7479195" id="Fill-73" fill="#424763"/>
        <path d="M182.83706,24.002953 C182.83706,24.002953 179.706844,19.5552752 182.082782,15.8472483 C182.252064,15.5834094 183.655755,18.0917584 183.655755,18.0917584 C183.655755,18.0917584 181.683547,21.9065235 182.83706,24.002953" id="Fill-75" fill="#424763"/>
        <path d="M181.656432,15.1707383 C181.562802,15.1707383 178.62359,17.1281074 177.28132,22.3116779 C176.587714,24.987651 176.781714,24.5982819 176.438656,24.159302 C176.095598,23.7210738 175.159304,20.9022819 177.12552,17.8331812 C179.091737,14.7633289 179.794331,13.4411275 179.794331,13.4411275" id="Fill-77" fill="#424763"/>
        <path d="M165.735848,39.1242309 C165.829477,39.0926604 170.165639,33.5866201 171.44574,30.7054389 C172.725091,27.823506 173.910813,23.5329289 173.910813,21.8416537 C173.910813,20.1503785 171.913886,26.1953718 168.761199,30.7993987 C166.635439,33.9030765 164.079732,35.4973852 164.079732,35.4973852 C164.079732,35.4973852 169.058566,29.9229423 169.260805,24.9738953 C169.463794,20.0240966 167.824906,26.6614121 166.015238,29.1705128 C164.730643,30.9504859 163.27452,32.6470228 162.619114,33.3987007" id="Fill-79" fill="#424763"/>
        <path d="M165.735848,39.1242309 C165.735848,39.1242309 162.207145,35.904043 162.83184,33.4302711" id="Fill-81" fill="#424763"/>
        <path d="M172.611687,9.87779866 C172.611687,9.87779866 170.695656,11.3232752 170.851456,13.2340403 C171.008004,15.1440537 170.945085,19.4616913 169.821533,21.3093154 C168.981116,22.6924027 166.763973,24.817396 166.763973,24.817396 C166.763973,24.817396 168.136205,21.6791409 168.136205,18.9573154 C168.136205,16.2354899 166.306313,11.377396 169.697193,9.54931544 C170.539857,9.09455034 172.29934,9.87779866 172.611687,9.87779866" id="Fill-83" fill="#424763"/>
        <path d="M168.012164,9.52834362 C167.918535,9.55991409 163.46852,14.5728537 163.081269,22.2489879 C162.694018,29.9251221 161.333771,23.3141154 161.333771,23.3141154 C161.333771,23.3141154 159.83645,17.5201826 163.019099,12.1637262 C164.953856,8.90670604 166.05269,9.71551141 166.05269,9.71551141 L168.012164,9.52834362 Z" id="Fill-85" fill="#424763"/>
        <path d="M159.548971,10.8842201 C159.548971,10.8842201 158.961727,21.9985289 159.523503,26.7589047 C160.08528,31.5200322 159.960191,31.6763812 159.274075,29.5153074 C158.58721,27.3542336 156.620994,19.116596 156.558824,14.3562201 C156.495905,9.5958443 156.558824,11.4660188 156.558824,11.4660188 L159.548971,10.8842201" id="Fill-87" fill="#424763"/>
        <path d="M154.555905,11.8571919 C154.555905,11.8571919 154.967125,27.2598228 160.035843,36.1829906 L155.606052,38.5605477 C155.606052,38.5605477 152.064615,31.5511517 150.941063,22.7189369 C149.817511,13.8867221 150.422731,12.8215946 150.422731,12.8215946 L154.555905,11.8571919 Z" id="Fill-89" fill="#424763"/>
        <path d="M147.19574,13.2919195 C147.19574,13.2919195 146.664674,31.3254228 152.230002,40.7251544 C151.839755,41.2513289 149.287794,42.9365906 149.287794,42.9365906 C149.287794,42.9365906 143.533709,29.6213691 144.87523,13.7421745 C146.259446,13.4407517 146.477415,13.0769396 146.945562,13.2340403" id="Fill-91" fill="#424763"/>
        <path d="M147.469287,44.4865503 C147.469287,44.4865503 142.543635,31.850094 141.201364,18.0432752 C141.202114,14.7539329 139.957218,26.5432483 140.641836,34.745557 C141.118222,40.4568054 142.680708,46.5002953 143.518129,48.4681879" id="Fill-93" fill="#424763"/>
        <path d="M138.924898,15.1707383 C138.924898,15.1707383 136.303276,35.1217718 137.271029,47.3365369 C137.536188,50.6867651 135.468852,45.4994362 134.719817,40.0497718 C133.970782,34.6001074 133.495145,29.5653691 133.713114,15.5886711" id="Fill-95" fill="#424763"/>
        <path d="M134.891496,59.6672859 C134.891496,59.6672859 130.279689,50.2179436 129.998801,32.052145 C130.186059,28.199796 128.781619,42.356145 129.281225,50.6246013 C129.780832,58.8930577 130.195048,61.7960376 130.725364,63.5188832" id="Fill-97" fill="#424763"/>
        <path d="M130.436087,15.6717315 C130.436087,15.6717315 126.07296,28.2931544 123.23262,53.0616913 C123.389168,56.5750336 122.838628,38.3889396 123.5195,32.9731007 C124.111238,28.2593289 125.723161,16.7052886 126.565825,15.4838121 C126.971802,14.8576644 130.436087,15.6717315 130.436087,15.6717315" id="Fill-99" fill="#424763"/>
        <path d="M125.380103,15.6093423 C124.786118,16.1415302 121.634929,23.8462282 119.855971,33.5872215 C118.077014,43.3274631 116.204427,56.1059866 116.204427,56.1059866 C114.612728,48.3960268 115.050914,44.9999463 115.174504,39.694604 C115.361763,31.6448859 117.608867,21.1168859 119.387825,17.7441074 C120.885894,15.2177181 120.87391,15.4372081 121.039446,15.4244295 C121.203485,15.411651 125.380103,15.2846174 125.380103,15.2846174 C125.380103,15.2846174 125.972589,15.0771544 125.380103,15.6093423" id="Fill-101" fill="#424763"/>
        <path d="M117.35869,15.8156027 C117.35869,15.8156027 115.025446,19.5243812 112.757369,29.9539114 C110.551462,40.1030658 110.804636,61.4770255 110.804636,61.6183409 C110.804636,61.7589047 108.204736,55.5147168 108.183014,43.6720322 C108.158296,29.9065557 112.115446,19.284596 113.098929,17.4783141 C114.081663,15.6720322 114.402249,16.0696698 114.402249,16.0696698 L116.796914,15.8156027 L117.35869,15.8156027 Z" id="Fill-103" fill="#424763"/>
        <path d="M110.757821,16.4692617 C110.757821,16.4692617 104.484655,31.7831946 102.003103,62.8395168 C101.608361,67.783302 98.4459367,50.8592752 100.785921,36.8592752 C103.126655,22.8592752 104.718354,19.065557 105.514578,17.7441074 C106.310802,16.4234094 107.715242,16.6977718 107.715242,16.6977718 L110.524122,16.4692617 L110.757821,16.4692617 Z" id="Fill-105" fill="#424763"/>
        <path d="M104.300317,16.7959409 C104.208186,16.9365047 100.271259,20.3694174 97.5095683,33.8996188 C94.7471282,47.4298201 92.9681707,64.1546523 92.9681707,64.1546523 C92.9681707,64.1546523 91.2364023,56.9671087 91.704549,46.4902228 C92.1726958,36.0140886 93.8580239,25.8190819 97.6496378,18.2083436 C98.924495,15.6496322 99.011383,16.6200483 99.011383,16.6200483 L104.108564,16.7914309 L104.300317,16.7959409 Z" id="Fill-107" fill="#424763"/>
        <path d="M92.5952263,16.3617718 C92.5952263,16.3617718 81.2181375,54.1012617 81.639095,60.2086443 C82.0173575,65.6928859 79.1238363,53.9772349 81.8263537,37.564349 C84.5887938,20.7929128 88.8328247,15.9543624 88.8328247,15.9543624" id="Fill-109" fill="#424763"/>
        <path d="M82.5490973,16.4395705 C81.9296456,17.5580671 79.567939,23.9292886 78.1747344,29.2023087 C74.4767498,43.2023087 75.084966,56.8730738 75.084966,56.8730738 C75.084966,56.8730738 73.5404564,52.3164027 73.6340857,43.2489128 C73.7277151,34.1821745 74.5606417,27.5155436 78.6331436,16.6162148 C79.8600625,13.7726174 81.1379158,13.7726174 81.1379158,13.7726174 L83.8861243,14.5671409 L84.9295297,14.8881074 C84.9295297,14.8881074 83.168549,15.3210738 82.5490973,16.4395705" id="Fill-111" fill="#424763"/>
        <path d="M74.5700795,12.5710604 C74.3828208,12.6176644 65.3472147,34.134443 66.798844,47.665396 C66.798844,47.665396 64.5824502,33.8713557 67.1261722,22.8600268 C69.3740255,13.1348188 70.7447591,11.4540671 70.7447591,11.4540671 L74.5700795,12.1666577 L74.5700795,12.5710604 Z" id="Fill-113" fill="#424763"/>
        <path d="M67.4696046,11.0148617 C67.3759753,11.098298 57.1546471,27.4164725 56.2183537,45.1748617 C55.4693189,53.1148349 53.2694039,25.4741369 62.9596664,10.7690631 C65.904122,10.5367946 67.4696046,11.0148617 67.4696046,11.0148617" id="Fill-115" fill="#424763"/>
        <path d="M53.2994402,13.0404832 C53.2994402,13.0404832 47.885417,37.282094 51.6305907,45.8324295 C51.6305907,45.8324295 44.9454556,25.9776107 49.2524054,15.1699866 C51.3497027,13.4636779 53.2994402,13.0404832 53.2994402,13.0404832" id="Fill-117" fill="#424763"/>
        <path d="M43.9854927,18.6461208 C43.9854927,18.6461208 41.0979637,31.269047 44.1128286,43.4364564 C45.5464811,49.2236242 39.8575622,36.5285369 39.4972764,29.9596242 C39.2163884,24.838443 39.5751761,22.1812617 39.5751761,22.1812617 C39.5751761,22.1812617 42.1368749,19.6924564 43.9854927,18.6461208" id="Fill-119" fill="#424763"/>
        <path d="M89.7380332,68.0542819 C89.6915931,67.7724027 87.8302417,52.2134228 88.8167205,41.073557 C89.755261,30.4703893 85.1471992,55.3381477 85.8026046,67.0357584 L86.219068,67.2266846 L89.755261,68.6075168 L89.7380332,68.0542819 Z" id="Fill-121" fill="#424763"/>
        <path d="M99.9304486,70.2557208 C99.9304486,70.2557208 96.9462942,56.6668886 97.0878618,50.4835866 C97.2286803,44.376204 94.9928116,59.787855 96.1163637,69.935506" id="Fill-123" fill="#424763"/>
        <path d="M108.183014,70.2557208 C108.183014,70.2557208 106.263238,55.1267007 106.732134,46.5801235 C107.20028,38.034298 105.061037,62.1526336 105.046056,70.2444456 C105.045307,70.6383248 107.387539,70.2527141 107.387539,70.2527141" id="Fill-125" fill="#424763"/>
        <path d="M188.373625,12.4201987 C188.373625,12.4201987 184.480143,11.8714738 181.951402,14.6519302 C181.818073,14.7338631 180.674297,13.4409772 180.674297,13.4409772 C180.674297,13.4409772 182.315432,10.0246013 187.620097,8.49418523 C187.620097,8.49418523 188.513695,10.5575409 188.373625,12.4201987" id="Fill-127" fill="#424763"/>
        <path d="M172.611687,9.40724832 C172.611687,9.40724832 174.1929,4.04026846 174.010135,0.495355705 C173.993656,0.229261745 177.822722,1.02378523 177.822722,1.02378523 C177.822722,1.02378523 177.803996,5.66389262 173.77344,9.78383893" id="Fill-129" fill="#424763"/>
        <path d="M168.796329,0.440708725 C168.796329,0.440708725 169.327395,6.44586309 168.564128,9.12634631 L170.555063,9.12634631 C170.555063,9.12634631 172.611912,4.49826577 172.279341,0.95335302 L172.180468,0.440708725" id="Fill-131" fill="#424763"/>
        <path d="M167.475256,0.440708725 C167.475256,0.440708725 167.683488,6.29853423 166.922469,9.20903087 L164.583233,9.40747383 C164.583233,9.40747383 164.517318,2.50105772 163.886631,0.636896644 C163.754801,0.336977181 166.507503,0.440708725 166.507503,0.440708725 L167.475256,0.440708725 Z" id="Fill-133" fill="#424763"/>
        <path d="M162.177933,0.721159732 C162.177933,0.721159732 163.338188,4.63289128 162.410134,9.7841396 L160.784728,10.0742872 C160.784728,10.0742872 160.154041,3.23326711 158.777315,1.03611275 C158.479199,0.403951678 159.457439,0.919602685 159.457439,0.919602685 L162.177933,0.721159732 Z" id="Fill-135" fill="#424763"/>
        <path d="M157.317971,1.23605906 C157.317971,1.23605906 157.699978,8.97157584 158.269994,10.441106 C158.231044,10.5237906 155.874581,10.956757 155.874581,10.956757 C155.874581,10.956757 154.547291,9.95852886 153.204272,1.90204564 C153.163075,1.53522685 153.799005,1.56905235 153.799005,1.56905235 L157.317971,1.23605906 Z" id="Fill-137" fill="#424763"/>
        <path d="M150.870729,2.03358926 C150.870729,2.03358926 151.877432,9.54209933 152.424227,11.5731329 L150.152405,12.072247 C150.152405,12.072247 147.713547,8.2770255 147.305324,2.70258255 L147.810173,2.60035436 L150.870729,2.03358926 Z" id="Fill-139" fill="#424763"/>
        <path d="M144.943542,3.44997584 C144.943542,3.44997584 145.105334,5.78318389 145.324801,6.87011007 C145.515056,7.81421745 145.955488,9.6588349 146.436368,10.5413047 C146.870808,11.3380832 147.469287,12.5054389 147.469287,12.5054389 L144.545805,13.1962309 C144.545805,13.1962309 142.620785,10.6578148 141.592361,6.82951946 C141.133202,5.11569396 140.945944,4.4489557 140.945944,4.4489557 L144.909086,3.22823087 L144.943542,3.44997584 Z" id="Fill-141" fill="#424763"/>
        <path d="M139.834151,5.39779866 C139.834151,5.39779866 141.791379,10.6242148 141.725464,13.7872752 L139.585472,14.202953 C139.585472,14.202953 138.242453,9.72520805 136.019317,6.09685906 C135.876252,5.91344966 136.450012,5.91344966 136.450012,5.91344966 L139.601951,4.81524832 L139.834151,5.39779866 Z" id="Fill-143" fill="#424763"/>
        <path d="M134.758392,7.05314362 C134.758392,7.05314362 136.997257,10.0087409 137.212979,14.4361235 C137.212979,14.4361235 136.184554,14.9187007 135.604802,14.9187007 C135.604802,14.9187007 133.630346,10.1650899 132.104562,8.70533154 L131.705327,8.40917047 L134.517952,6.72090201 L134.758392,7.05314362 Z" id="Fill-145" fill="#424763"/>
        <path d="M130.552412,9.52834362 C130.604096,9.52157852 131.318675,12.4719141 132.502899,15.0185987 L130.959887,15.0185987 C130.959887,15.0185987 129.383918,12.7049342 128.737501,12.2554309 C128.091084,11.8059275 129.905246,9.61177987 130.552412,9.52834362" id="Fill-147" fill="#424763"/>
        <path d="M186.218727,5.87864698 C186.218727,5.87864698 184.51692,3.84235168 184.130419,3.71306309 C183.743917,3.5837745 183.264534,5.87864698 183.264534,5.87864698 L182.550704,8.08256644 C182.550704,8.08256644 181.929754,9.64304966 181.953724,9.57314362" id="Fill-149" fill="#424763"/>
        <path d="M180.261504,1.76569128 C180.261504,1.76569128 180.71467,4.27103356 178.966423,6.43210738 L183.509319,3.04955705" id="Fill-151" fill="#424763"/>
        <path d="M185.65403,4.97791141 C185.724439,4.98693154 187.59403,3.15208591 187.59403,3.15208591 L186.914656,6.9059651 L185.65403,4.97791141 Z" id="Fill-153" fill="#D3D5DF"/>
        <path d="M185.532537,4.82524564 C187.061317,3.50905772 187.736946,3.04978255 187.736946,3.04978255 C187.736946,3.04978255 187.309247,4.8538094 186.914506,6.90588993" id="Stroke-155" stroke="#424763" stroke-width="0.5625"/>
        <path d="M181.026643,55.8395168 C181.026643,55.8395168 181.756952,53.7265503 181.700775,53.099651 C181.645346,52.4735034 182.043083,50.880698 182.604859,50.7551678 C183.166636,50.6303893 186.269886,51.5015839 187.10506,48.6677584 C187.452612,47.4891275 188.081053,45.1596779 188.268311,43.9013691 C188.45557,42.6423087 188.629346,42.1244027 189.415083,41.2629799 C190.200821,40.401557 191.852442,40.7616107 192.035207,41.1351946 C195.508481,48.2129933 192.620952,53.613047 190.742373,55.3381477 C187.518527,58.298255 184.559091,57.9066309 181.026643,55.8395168" id="Fill-157" fill="#C0A1A7"/>
        <path d="M163.564771,26.007302 C163.564771,26.007302 160.726678,34.113396 164.565481,38.1063087 C167.247025,40.8965369 178.063836,46.1800805 180.511682,51.6583087 C180.818786,52.4077315 181.054732,53.0534228 181.169334,53.6788188 C181.299666,54.3861477 181.275697,55.0664161 181.026269,55.8398926 C181.026269,55.8398926 184.490554,58.846604 188.844693,56.6381745 C193.198083,54.4304966 195.07067,49.1326711 192.26179,41.7278926 C189.453659,34.3231141 188.563805,34.3697181 187.674701,28.5915705 C186.784848,22.8126711 184.230639,18.0725906 179.92369,13.2340403" id="Stroke-159" stroke="#424763" stroke-width="0.5625"/>
        <path d="M192.035432,41.1348188 C192.035432,41.1348188 190.377818,40.2538523 189.125432,41.5106577 C188.236327,42.4028993 188.470026,43.4838121 187.90825,45.7854497 C187.346474,48.0878389 186.995177,50.0376913 185.309849,50.6480537 C183.62452,51.2591678 182.524937,50.2023087 181.963161,51.1885101 C181.401385,52.1754631 182.08825,53.3495839 181.245586,54.5710604" id="Stroke-161" stroke="#424763" stroke-width="0.5"/>
        <path d="M189.453284,54.5710604 C189.453284,54.5710604 190.0615,53.5608054 189.453284,52.3160268 C189.134195,51.5831409 188.961917,50.9066309 189.453284,50.554094 C189.944651,50.2023087 191.115392,51.2118121 190.623276,52.8091275 C190.10869,54.1719195 189.453284,54.5710604 189.453284,54.5710604 Z" id="Stroke-163" stroke="#424763" stroke-width="0.5"/>
        <path d="M183.624895,29.648204 C183.624895,29.648204 183.738748,26.1656805 180.816015,25.8898148 C178.073798,25.6312376 176.602694,25.4433181 176.602694,25.4433181 C176.602694,25.4433181 177.374949,26.0311302 177.448354,27.3894121 C177.531497,28.9145664 178.756169,29.2956671 181.003273,29.2257611 C183.250378,29.1551034 183.624895,29.648204 183.624895,29.648204" id="Fill-165" fill="#EDEEF4"/>
        <path d="M183.624895,29.648204 C183.624895,29.648204 183.738748,26.1656805 180.816015,25.8898148 C178.073798,25.6312376 176.602694,25.4433181 176.602694,25.4433181 C176.602694,25.4433181 177.374949,26.0311302 177.448354,27.3894121 C177.531497,28.9145664 178.756169,29.2956671 181.003273,29.2257611 C183.250378,29.1551034 183.624895,29.648204 183.624895,29.648204 Z" id="Stroke-167" stroke="#424763" stroke-width="0.5"/>
        <path d="M180.113795,26.007302 C180.113795,26.007302 179.177501,26.3831409 179.200721,27.416698 C179.22469,28.450255 179.692837,28.8441342 180.113795,29.1079732 C180.534752,29.3718121 181.245586,29.3597852 181.245586,29.3597852 C181.245586,29.3597852 183.507671,29.3191946 183.62452,29.6484295 C183.742119,29.9769128 183.658227,26.4259866 180.996907,25.9231141 C180.296559,25.7990872 180.113795,26.007302 180.113795,26.007302" id="Fill-169" fill="#424763"/>
        <path d="M173.567006,16.7680537 C173.567006,16.7680537 171.57008,14.6385503 173.349037,11.9445369 C175.127995,9.25127517 184.085701,2.79962416 184.085701,2.79962416 C184.085701,2.79962416 182.587632,8.18614765 181.651338,10.1284832 C180.715045,12.0700671 179.528574,13.8868725 179.060427,14.5445906" id="Stroke-171" stroke="#424763" stroke-width="0.5625"/>
        <path d="M175.7834,16.298255 C175.7834,16.298255 172.756551,13.1975839 184.085701,2.79962416" id="Fill-173" fill="#C0A1A7"/>
        <path d="M174.554534,10.5392 C174.554534,10.5392 171.38312,8.62467651 163.799144,10.065643 C157.296024,11.3006497 139.860742,14.7636295 136.115568,15.3897772 C132.370395,16.0166765 127.751846,14.951549 121.509391,15.3897772 C115.268433,15.828757 108.026765,17.0186631 103.532557,16.7683544 C99.0383483,16.517294 90.4244486,16.7052134 86.6792749,15.4529181 C82.9341012,14.1998711 67.2672903,9.3139651 58.5912208,11.1931597 C49.9144023,13.0723544 38.5545413,22.4059383 36.4317768,25.4126497 C34.3097614,28.4193611 33.7479853,31.8011597 33.6858154,34.1817235 C33.6228965,36.5622872 32.8116919,55.3542336 50.4761784,50.2180188 C63.6464564,46.5220188 60.6196069,46.4438443 64.5984795,50.1082738 C67.4665336,52.7496698 81.077244,69.4166228 97.3537691,70.0119517 C113.947136,70.6193074 127.845476,71.4837369 139.576109,53.6050792 C148.069414,40.8348242 159.683198,36.5239517 162.849368,34.7890792" id="Stroke-175" stroke="#424763" stroke-width="0.5625"/>
        <path d="M183.011885,17.1281074 C183.011885,17.1281074 185.333893,15.201557 187.814696,16.7680537 C187.814696,16.7680537 190.155429,10.269047 185.333893,4.58485906 C180.511607,-1.10008054 164.115236,0.300295302 159.668217,0.817449664 C155.220449,1.33385235 135.266163,3.46711409 129.736039,10.2359732 C126.634286,14.032698 129.063406,15.4225503 129.063406,15.4225503" id="Stroke-177" stroke="#424763" stroke-width="0.5625"/>
        <g id="Group-182" transform="translate(104.864865, 55.792537)">
          <path d="M25.2076409,2.12987919 C25.2076409,2.12987919 21.73961,4.57283221 20.4947143,7.51715436 C19.2498185,10.4607248 12.254583,26.5902282 12.254583,26.5902282 C12.254583,26.5902282 12.3691853,27.946255 12.620861,29.1932886 C12.8568069,30.3576376 11.2171699,32.6983624 9.60449807,35.3292349 C7.99257529,37.9601074 6.71622008,41.717745 6.55442857,43.7224698 C6.39188803,45.7271946 7.2727529,47.0426309 7.2727529,47.0426309 C7.08249807,49.4976107 7.32518533,49.7749799 7.32069112,51.2084295 C7.31769498,51.8774228 1.51417375,51.7368591 0.90296139,51.6609396 C0.00187258687,51.550443 1.71566409,50.6604564 1.32841313,49.6577181 C0.941162162,48.6549799 -0.686490347,47.7048591 0.687988417,45.637745 C2.06171815,43.5706309 3.08864479,42.4701745 4.2077027,39.0876242 C5.32676062,35.7050738 5.43537066,30.6154631 5.14774131,30.114094 C4.86011197,29.6134765 6.51772587,28.3130738 7.18586486,25.995651 C7.85325483,23.6782282 10.3078417,11.0876242 9.60000386,5.82587919 C9.60000386,5.82587919 13.9249305,3.57084564 14.4717259,0.0627651007" id="Fill-179" fill="#D3D5DF"/>
          <path d="M25.2076409,2.12987919 C25.2076409,2.12987919 21.73961,4.57283221 20.4947143,7.51715436 C19.2498185,10.4607248 12.254583,26.5902282 12.254583,26.5902282 C12.254583,26.5902282 12.3691853,27.946255 12.620861,29.1932886 C12.8568069,30.3576376 11.2171699,32.6983624 9.60449807,35.3292349 C7.99257529,37.9601074 6.71622008,41.717745 6.55442857,43.7224698 C6.39188803,45.7271946 7.2727529,47.0426309 7.2727529,47.0426309 C7.08249807,49.4976107 7.32518533,49.7749799 7.32069112,51.2084295 C7.31769498,51.8774228 1.51417375,51.7368591 0.90296139,51.6609396 C0.00187258687,51.550443 1.71566409,50.6604564 1.32841313,49.6577181 C0.941162162,48.6549799 -0.686490347,47.7048591 0.687988417,45.637745 C2.06171815,43.5706309 3.08864479,42.4701745 4.2077027,39.0876242 C5.32676062,35.7050738 5.43537066,30.6154631 5.14774131,30.114094 C4.86011197,29.6134765 6.51772587,28.3130738 7.18586486,25.995651 C7.85325483,23.6782282 10.3078417,11.0876242 9.60000386,5.82587919 C9.60000386,5.82587919 13.9249305,3.57084564 14.4717259,0.0627651007" id="Stroke-181" stroke="#424763" stroke-width="0.5625"/>
        </g>
        <path d="M105.767676,107.453477 L105.729476,111.416322 L117.541754,111.416322 C117.541754,111.416322 113.901445,108.874148 113.784595,107.93455 C113.784595,107.93455 112.207877,107.502336 111.821375,107.251275" id="Fill-183" fill="#313753"/>
        <path d="M114.6537,63.1346255 C115.410225,63.0744913 124.885515,61.9236725 124.885515,61.9236725 L114.47543,66.7389208 L114.6537,63.1346255 Z" id="Fill-185" fill="#424763"/>
        <path d="M116.815939,67.9603221 C116.815939,67.9603221 123.175244,66.742604 123.887576,66.7388456 C124.199175,66.738094 122.853908,69.1359463 122.853908,69.1359463 L116.815939,67.9603221 Z" id="Fill-187" fill="#424763"/>
        <path d="M122.489278,69.9804564 C122.489278,69.9804564 115.057355,70.9907114 114.303826,71.3898523 C113.548799,71.7889933 113.795232,73.6448859 113.795232,73.6448859 L121.971695,71.1786309 L122.489278,69.9804564 Z" id="Fill-189" fill="#424763"/>
        <path d="M113.348732,76.1582711 C113.348732,76.1582711 118.884848,76.2755329 119.769458,75.899694 L118.666879,78.5072644 L112.778717,79.5874255 L113.348732,76.1582711 Z" id="Fill-191" fill="#424763"/>
        <path d="M111.490751,83.4636779 C111.490751,83.4636779 116.026157,83.6982013 117.044095,83.2291544 C117.044095,83.2291544 117.53696,85.2722148 117.28079,85.7660671 C117.28079,85.7660671 110.624867,87.3370738 110.385925,87.2927248 L110.215145,85.4841879 L111.490751,83.4636779 Z" id="Fill-193" fill="#424763"/>
        <path d="M110.182862,90.4303034 C110.182862,90.4303034 114.040391,90.7332295 114.895039,90.4325584 C115.122746,90.3385987 113.398468,92.7890685 113.398468,92.7890685 C113.398468,92.7890685 110.19185,93.0078067 109.837557,92.960451 C109.483263,92.913847 109.800854,91.2759409 110.182862,90.4303034" id="Fill-195" fill="#424763"/>
        <path d="M109.2993,95.3965638 C109.2993,95.3965638 111.502212,95.5837315 112.203308,95.3928054 C112.510412,95.2747919 111.592096,97.722255 111.592096,97.722255 C111.592096,97.722255 109.394428,98.2153557 108.27537,97.8162148 C107.830443,97.6515973 108.276868,97.2051007 108.276868,97.2051007 L108.978714,95.3928054 L109.2993,95.3965638 Z" id="Fill-197" fill="#424763"/>
        <path d="M106.534239,100.217149 C106.638354,100.193847 108.227057,100.992129 110.649436,100.282545 C112.092076,99.8593503 111.487605,101.621283 111.487605,101.621283 C111.487605,101.621283 108.072007,102.806679 105.806926,102.65484 C104.054185,102.537579 106.534239,100.217149 106.534239,100.217149" id="Fill-199" fill="#424763"/>
        <path d="M34.6006116,28.9171221 C34.7728896,28.9907866 25.7230517,43.5718336 38.7532602,58.0296054 C48.1484031,68.4546255 47.024851,77.9415517 46.9454533,79.6922094 C46.8735459,81.2812564 46.4068973,81.3849879 48.9925653,81.9359678 C75.0507351,90.0819007 73.8328046,93.9485315 73.8328046,93.9485315 C73.8328046,93.9485315 84.2106811,91.8197799 83.0713992,92.4203705 C80.8557544,88.5477262 74.9271444,86.2784107 74.9271444,86.2784107 C74.9271444,86.2784107 67.4914764,83.1476725 61.2295459,80.3860081 C54.9691135,77.6243436 56.1810517,76.237498 56.1810517,76.237498 C56.1810517,76.237498 67.7161869,63.518357 65.2556077,51.7718872 C59.9202332,35.6754577 57.7330517,34.8395919 57.7330517,34.8395919 C57.7330517,34.8395919 48.8262795,46.9461154 44.3440556,45.8328805 C36.7540865,43.9476725 34.6006116,28.9171221 34.6006116,28.9171221" id="Fill-201" fill="#D3D5DF"/>
        <path d="M57.2296255,34.1131705 C57.2296255,34.1131705 61.4684131,39.8920698 64.4712934,48.3958013 C69.1624981,63.0903517 56.1809768,76.237949 56.1809768,76.237949 C56.1809768,76.237949 54.9690386,77.624043 61.229471,80.3857074 C67.4914015,83.1473718 74.9270695,86.2781101 74.9270695,86.2781101 C74.9270695,86.2781101 80.5238571,88.2865933 83.0713243,92.4200698 C84.2106062,91.8202309 73.8334788,93.9482309 73.8334788,93.9482309 C73.8334788,93.9482309 75.455888,90.1131705 48.9924903,81.9356671 C46.4068224,81.3854389 46.873471,81.2809557 46.9461274,79.6926604 C47.0247761,77.9420027 48.4853938,68.7880698 38.7531853,58.0300564 C25.8300888,43.7436671 34.9248687,28.6665128 34.7525907,28.5928483" id="Stroke-203" stroke="#424763" stroke-width="0.5625"/>
        <path d="M75.199868,96.9087141 C75.199868,96.9087141 76.2050726,95.9976805 76.3234201,93.4945933 C76.7196595,93.4540027 82.6917135,92.4204456 82.6917135,92.4204456 L85.9500147,95.9322846 L86.9806865,99.680902 L75.199868,96.9087141 Z" id="Fill-205" fill="#313753"/>
        <path d="M39.8127699,47.3254872 C39.8127699,47.3254872 56.3574494,47.6990711 62.2516039,42.943957 C62.4755653,42.7635544 63.4133568,46.0513933 63.4133568,46.0513933 C63.4133568,46.0513933 56.5896502,49.703796 39.8127699,47.3254872" id="Fill-207" fill="#424763"/>
        <path d="M34.2505876,51.9101208 C34.2505876,51.9101208 52.9824486,52.2077852 59.6136533,50.4225503 C64.6801243,49.058255 49.8305104,55.6452081 36.6190355,55.4136913" id="Fill-209" fill="#424763"/>
        <path d="M39.1869514,57.049643 C39.1869514,57.049643 59.13899,57.9065557 65.1380093,54.3541262 L65.4885575,58.4733208 C65.4885575,58.4733208 50.3625498,60.500596 41.830295,58.5342067 C40.0146347,57.5329718 39.1869514,57.049643 39.1869514,57.049643" id="Fill-211" fill="#424763"/>
        <path d="M41.9625745,62.225847 C41.9625745,62.225847 60.4869529,65.3889074 64.2635861,62.608451 L62.7677637,66.2247732 C62.7677637,66.2247732 53.1718795,68.542196 44.343756,65.4941423 C43.7430301,64.8296591 41.9625745,62.225847 41.9625745,62.225847" id="Fill-213" fill="#424763"/>
        <path d="M45.7918649,69.755855 C45.7918649,69.755855 58.6909923,70.5571436 60.6302432,69.755855 L59.417556,72.2191034 C59.417556,72.2191034 51.3047606,73.8479893 46.4000811,72.0529826 C46.0472857,71.9229423 45.7918649,69.755855 45.7918649,69.755855" id="Fill-215" fill="#424763"/>
        <path d="M47.0632015,78.0588134 C47.1216263,77.8152698 55.3213097,77.135753 56.1122903,76.7441289 C56.1122903,76.7441289 56.9287382,78.4030819 57.8051089,78.5759678 C58.6822286,78.7488537 48.9927151,81.9359678 48.9927151,81.9359678 C48.9927151,81.9359678 47.3328541,81.7420349 47.0339892,81.2744913 C46.7021668,80.7543302 46.7748232,79.2554846 47.0632015,78.0588134" id="Fill-217" fill="#424763"/>
        <path d="M61.2297707,80.3857826 L55.8097552,84.1524403 C55.8097552,84.1524403 61.5406201,86.1075544 61.5570988,85.9106148 C61.5728286,85.7129235 63.8356625,81.5275812 63.8356625,81.5275812 L61.2297707,80.3857826 Z" id="Fill-219" fill="#424763"/>
        <polygon id="Fill-221" fill="#424763" points="66.7696317 82.768902 64.4715931 87.4480966 67.4699792 88.819157 69.9725042 84.1737879"/>
        <path d="M73.2702795,85.5777718 L70.2374378,90.3080805 L73.0620479,92.4202953 C73.0620479,92.4202953 76.642434,86.1355168 76.8439243,87.138255 C76.9285653,87.5561879 74.8604803,86.466255 73.2702795,85.5777718" id="Fill-223" fill="#424763"/>
      </g>
    </g>
  </g>
</svg>