<svg width="131px" height="123px" viewBox="0 0 131 123" version="1.1" xml:space="preserve" xmlns="http://www.w3.org/2000/svg" xmlns:xlink="http://www.w3.org/1999/xlink">
  <defs>
    <polygon id="path-1" points="0 0.203975034 51.9178 0.203975034 51.9178 16.4946931 0 16.4946931"/>
    <polygon id="path-3" points="0.240530908 0.3501 13.343 0.3501 13.343 30 0.240530908 30"/>
    <polygon id="path-5" points="0.4179 0.44 1.06776202 0.44 1.06776202 3.19495 0.4179 3.19495"/>
    <polygon id="path-7" points="0 99.56 130.7065 99.56 130.7065 0.5 0 0.5"/>
  </defs>
  <g>
    <title>bat-c</title>
    <desc>Created with Sketch.</desc>
    <g id="bat-c" stroke="none" stroke-width="1" fill="none" fill-rule="evenodd">
      <g id="Group" transform="translate(0.000000, 5.000000)">
        <path d="M15.2029,41.065 L53.5579,44.78 L56.4029,58.015 C56.4029,58.015 57.7979,67.225 58.2229,69.63 C58.4379,70.825 60.7229,95.36 60.5479,95.3 C49.8629,91.565 44.6729,73.435 44.6729,73.435 L32.2779,68.9 C32.2779,68.9 30.1729,61.355 25.9679,58.9 C21.7629,56.445 16.0579,56.78 16.0579,56.78 C16.0579,56.78 -0.0621,36.495 0.00767268053,36.025 C3.0579,38.47 13.7329,40.305 15.2029,41.065" id="Fill-1" fill="#C8C8BE"/>
        <polygon id="Fill-3" fill="#F0E6D2" points="44.668 73.43 54.783 66.835 51.773 61.82"/>
        <polygon id="Fill-5" fill="#F0E6D2" points="16.0679 56.7801 24.7279 43.4951 21.6479 42.4401"/>
        <path d="M32.27295,68.9002 L46.40295,44.6802 L50.77295,47.3952 C50.77295,47.3952 34.46795,67.8852 32.27295,68.9002" id="Fill-7" fill="#F0E6D2"/>
        <g id="Group-11" transform="translate(0.000000, 32.560000)">
          <mask id="mask-2" fill="white">
            <use xlink:href="#path-1"/>
          </mask>
          <g id="Clip-10"/>
          <path d="M0.0078,3.46495 C0.2378,3.14995 3.1828,5.08495 3.1828,4.41495 C3.1828,3.74495 0.9878,2.60995 0.6528,1.95495 C1.6528,1.95495 4.7378,3.34995 4.8978,2.65995 C5.0578,1.96995 1.2878,0.99495 1.5728,0.23995 C1.7178,-0.14505 9.4528,2.60995 29.5178,6.11495 C38.2878,7.64495 49.3078,8.18995 51.9178,8.25495 L48.9978,16.48995 C44.0978,16.48995 29.7478,17.01995 4.3478,6.87495 C1.6078,5.77995 -0.1322,3.65495 0.0078,3.46495" id="Fill-9" fill="#828278" mask="url(#mask-2)"/>
        </g>
        <path d="M116.00805,41.065 L77.65805,44.78 L74.81255,58.015 C74.81255,58.015 76.84805,76.395 76.42305,78.8 C76.20755,79.995 72.32805,93.985 72.50255,93.975 C87.96255,92.975 86.81755,72.86 86.81755,72.86 L98.93755,68.9 C98.93755,68.9 101.03805,61.355 105.24755,58.9 C109.45755,56.445 115.14305,56.8 115.14305,56.8 C115.14305,56.8 130.77255,36.515 130.698315,36.045 C127.65805,38.47 117.47755,40.305 116.00805,41.065" id="Fill-12" fill="#C8C8BE"/>
        <polygon id="Fill-14" fill="#F0E6D2" points="115.1428 56.7801 106.4778 43.4951 109.5578 42.4401"/>
        <path d="M98.93775,68.9002 L84.80275,44.6802 L80.43775,47.3952 C80.43775,47.3952 96.74275,67.8852 98.93775,68.9002" id="Fill-16" fill="#F0E6D2"/>
        <path d="M130.698,36.02495 C130.473,35.70995 127.528,37.64495 127.528,36.97495 C127.528,36.30495 129.718,35.16995 130.058,34.51495 C129.058,34.51495 125.973,35.90995 125.8125,35.21995 C125.653,34.52995 129.423,33.55495 129.138,32.79995 C128.988,32.41495 121.7525,35.16995 101.6925,38.67495 C92.923,40.20495 81.903,40.74995 79.2925,40.81495 L82.2125,49.04995 C87.113,49.04995 100.9625,49.57995 126.363,39.43495 C129.103,38.33995 130.843,36.21495 130.698,36.02495" id="Fill-18" fill="#828278"/>
        <polygon id="Fill-20" fill="#F0E6D2" points="86.81765 72.86015 78.30765 64.19515 75.66265 69.47965"/>
        <g id="Group-24" transform="translate(49.500000, 69.560000)">
          <mask id="mask-4" fill="white">
            <use xlink:href="#path-3"/>
          </mask>
          <g id="Clip-23"/>
          <path d="M10.178,7.7201 L0.243,0.3501 C0.113,4.3501 5.148,17.3501 7.888,21.8101 C8.748,23.1896 11.593,26.4801 11.593,26.4801 C11.593,26.4801 11.288,28.0951 10.928,29.8551 L11.713,30.0001 C12.313,26.5001 13.343,22.2946 13.343,22.2946 C13.343,22.2946 10.378,9.3051 10.178,7.7201" id="Fill-22" fill="#3C3C32" mask="url(#mask-4)"/>
        </g>
        <path d="M79.2278,85.99005 C79.1428,84.31005 77.4628,75.65005 76.6828,74.13505 L66.9778,80.01005 C67.2078,80.27005 70.5428,83.56005 70.7928,83.80505 L70.8378,83.80505 C72.4728,85.24005 72.7328,87.18005 71.7328,89.05505 C70.5483,91.29505 67.1133,92.49005 67.1133,92.49005 L66.9678,98.36005 C67.1518,98.39055 67.3393,98.39055 67.5228,98.36005 C67.6998,97.39255 67.8088,96.41305 67.8478,95.43005 C67.8478,95.43005 76.0083,94.88005 78.5878,90.31455 C79.1278,89.35005 79.2878,87.22505 79.2278,85.99005" id="Fill-25" fill="#3C3C32"/>
        <path d="M51.19775,3.39995 L50.83275,3.25495 C50.80775,3.07495 50.79775,2.91495 50.77275,2.75495 C50.68775,2.29495 50.60775,1.82995 50.51275,1.36495 C50.41675,1.14945 50.44575,0.89845 50.58775,0.70995 C50.85775,0.70995 50.92775,0.76995 50.96775,0.97495 C51.04275,1.34495 51.10275,1.71995 51.15775,2.09995 C51.20275,2.40495 51.23775,2.70995 51.26275,3.01995 C51.25175,3.14845 51.23025,3.27545 51.19775,3.39995" id="Fill-27" fill="#64645A"/>
        <path d="M50.55785,4.02495 L50.16785,3.96995 C50.10785,3.79995 50.06285,3.64495 49.99785,3.46995 C49.81285,3.03495 49.63285,2.59995 49.43785,2.17495 C49.28285,1.84495 49.27285,1.84995 49.36285,1.51495 C49.63285,1.47995 49.70785,1.51495 49.79285,1.68495 C49.94785,2.03495 50.08785,2.38995 50.22785,2.74495 C50.36785,3.09995 50.44285,3.31995 50.53785,3.61495 C50.55835,3.75045 50.56535,3.88795 50.55785,4.02495" id="Fill-29" fill="#64645A"/>
        <path d="M51.62795,3.68 L51.98295,3.52 C51.98295,3.34 51.98295,3.175 52.01795,3.02 C52.07795,2.555 52.13795,2.085 52.21295,1.62 C52.26795,1.265 52.28295,1.27 52.10795,0.97 C51.83295,1.005 51.76795,1.045 51.73795,1.25 C51.68295,1.625 51.64295,2.005 51.60295,2.385 C51.57295,2.69 51.55295,3 51.54295,3.305 C51.55495,3.433 51.58345,3.559 51.62795,3.68" id="Fill-31" fill="#64645A"/>
        <path d="M51.3579,51.25005 C51.3579,51.25005 47.7579,38.64505 46.9779,32.25005 C46.3329,26.99005 46.4429,21.71505 46.6779,16.43505 C46.8279,13.03505 47.1779,3.79005 51.2329,2.43505 C56.3279,3.83505 58.7329,17.20005 59.5479,21.37005 C60.6029,26.82005 62.7979,40.79005 63.1379,46.30005 C60.7379,47.77505 51.3579,51.25005 51.3579,51.25005" id="Fill-33" fill="#64645A"/>
        <path d="M51.8628,42.48005 C51.8628,42.48005 49.6428,30.07005 49.3628,20.15005 C49.1878,13.30505 50.2378,8.59005 51.2578,8.29005 C53.7578,7.55505 55.9928,18.29005 56.5178,20.99505 C57.2028,24.54005 58.8378,35.96005 59.0578,39.54505 C57.5178,40.49505 51.8628,42.48005 51.8628,42.48005" id="Fill-35" fill="#3C3C32"/>
        <g id="Group-39" transform="translate(76.000000, 0.060000)">
          <mask id="mask-6" fill="white">
            <use xlink:href="#path-5"/>
          </mask>
          <g id="Clip-38"/>
          <path d="M0.7429,3.19495 L0.4179,2.97495 C0.4179,2.79495 0.4624,2.63495 0.4729,2.47495 C0.4729,2.00495 0.5229,1.53495 0.5329,1.06495 C0.5329,0.70495 0.5329,0.70495 0.7529,0.43995 C1.0179,0.52495 1.0729,0.57495 1.0674,0.78495 C1.0674,1.16495 1.0279,1.54495 0.9979,1.92495 C0.9679,2.30495 0.9379,2.53495 0.8929,2.83995 C0.8549,2.96295 0.8044,3.08195 0.7429,3.19495" id="Fill-37" fill="#64645A" mask="url(#mask-6)"/>
        </g>
        <path d="M75.9778,3.72005 L75.6133,3.58005 C75.6133,3.40005 75.5828,3.23505 75.5528,3.08005 C75.4728,2.61505 75.3928,2.15005 75.2983,1.69005 C75.2023,1.47255 75.2308,1.22055 75.3728,1.03005 C75.6478,1.03005 75.7178,1.09005 75.7528,1.29505 C75.8278,1.67005 75.8878,2.04505 75.9428,2.42005 C75.9978,2.79505 76.0228,3.03505 76.0428,3.34005 C76.0373,3.46905 76.0153,3.59655 75.9778,3.72005" id="Fill-40" fill="#64645A"/>
        <path d="M77.0979,3.61995 L77.4829,3.54495 C77.5379,3.36995 77.5779,3.21495 77.6329,3.04495 C77.7979,2.60495 77.9579,2.16495 78.1329,1.72495 C78.2644,1.52845 78.2794,1.27645 78.1729,1.06495 C77.9029,1.06495 77.8279,1.06495 77.7529,1.25495 C77.6129,1.60995 77.4879,1.96995 77.3679,2.32995 C77.2479,2.68995 77.1779,2.91995 77.0979,3.21495 C77.0839,3.34945 77.0839,3.48545 77.0979,3.61995" id="Fill-42" fill="#64645A"/>
        <path d="M81.6028,57.575 C79.6333,54.25 68.8833,45.805 68.2428,44.98 C67.5083,39.75 69.3328,1.795 76.2428,2.365 C82.1028,2.865 81.9078,14 82.4033,17.945 C83.1078,23.615 82.4378,50.83 81.6028,57.575" id="Fill-44" fill="#64645A"/>
        <path d="M78.5178,49.0799 C79.3028,38.9049 80.0628,26.2899 79.9578,22.7399 C79.8478,18.9649 79.0283,5.2949 76.0678,7.8799 C73.1078,10.4649 71.9328,38.7799 71.2328,48.1549 L78.5178,49.0799 Z" id="Fill-46" fill="#3C3C32"/>
        <path d="M84.6477,48.68 C84.2527,44.29 82.3127,39.37 79.0677,36.285 C75.0672,32.5145 69.7272,30.497 64.2327,30.68 C55.9927,30.875 53.1877,32.555 48.9927,38.62 C45.1327,44.21 46.3827,53.62 46.7777,60.045 C47.1977,66.895 50.6377,76.075 56.4877,80.08 C62.5977,84.265 71.4882,84.915 77.0977,79.62 C82.1532,74.83 85.5577,58.605 84.6477,48.68" id="Fill-48" fill="#64645A"/>
        <path d="M58.55785,53.6048 C58.60785,53.4003 58.55785,53.2198 59.35785,53.1353 C61.80785,52.8798 66.80785,53.0203 68.55785,52.9748 C70.30785,52.9298 72.25285,53.2198 72.23285,53.7298 C72.21285,54.2403 71.63285,54.5748 70.60285,54.5903 C68.71285,54.6198 66.82285,54.6153 64.93785,54.5903 C63.40785,54.5903 61.88285,54.5348 60.36285,54.4598 C59.88285,54.4398 58.35785,54.4498 58.55785,53.6048" id="Fill-50" fill="#000000"/>
        <path d="M60.52295,52.335 C60.52295,52.335 61.83795,55.12 62.20795,55.135 C62.57795,55.15 63.92795,52.335 63.92795,52.335 L60.52295,52.335 Z" id="Fill-52" fill="#FFFFFF"/>
        <path d="M66.8777,52.835 C66.8777,52.835 68.1927,55.62 68.5677,55.635 C68.9427,55.65 70.2877,52.835 70.2877,52.835 L66.8777,52.835 Z" id="Fill-54" fill="#FFFFFF"/>
        <mask id="mask-8" fill="white">
          <use xlink:href="#path-7"/>
        </mask>
        <g id="Clip-57"/>
        <polygon id="Fill-56" fill="#64645A" mask="url(#mask-8)" points="56.978 53.04 74.143 53.04 74.143 51.495 56.978 51.495"/>
        <path d="M72.1179,43.52495 C71.1529,40.98495 69.5829,41.09495 67.1179,40.76995 C64.7029,40.89495 61.4629,40.58995 59.4279,42.14995 C57.3929,43.70995 56.9279,47.14995 58.9279,48.80495 C61.2779,50.76995 68.6629,51.48495 71.4279,48.61995 C72.4424,47.56495 72.8279,45.37495 72.1179,43.52495" id="Fill-58" fill="#F01446" mask="url(#mask-8)"/>
        <path d="M69.4978,43.21 C70.8078,43.12 70.8678,44.87 70.8078,45.65 C70.7478,46.43 70.7128,47.805 69.5578,47.68 C68.4033,47.555 68.2078,46.33 68.2783,45.62 C68.3478,44.91 68.1828,43.305 69.4978,43.21" id="Fill-59" fill="#6E1E3C" mask="url(#mask-8)"/>
        <path d="M60.68285,43.21 C61.99785,43.12 62.05785,44.87 61.99785,45.65 C61.93785,46.43 61.90285,47.805 60.74785,47.68 C59.59285,47.555 59.39785,46.33 59.46285,45.62 C59.52785,44.91 59.36785,43.305 60.68285,43.21" id="Fill-60" fill="#6E1E3C" mask="url(#mask-8)"/>
        <path d="M52.00295,46.0599 C51.72245,46.0559 51.49095,45.8394 51.46795,45.5599 C51.38145,45.1209 51.34945,44.6724 51.37295,44.2249 C51.40295,43.7849 51.78795,43.6149 52.18295,43.4649 C52.47995,43.9344 52.55495,44.5104 52.38795,45.0399 C52.33795,45.4199 52.36795,45.8449 52.00295,46.0599" id="Fill-61" fill="#000000" mask="url(#mask-8)"/>
        <path d="M78.6277,46.21 C77.9482,45.935 78.0377,45.34 78.0577,44.785 C78.0577,44.145 78.1382,44.075 78.7477,43.815 C79.3822,44.3945 79.4262,45.3775 78.8467,46.012 C78.7807,46.085 78.7067,46.151 78.6277,46.21" id="Fill-62" fill="#000000" mask="url(#mask-8)"/>
      </g>
    </g>
  </g>
</svg>