<svg width="173px" height="263px" viewBox="0 0 173 263" version="1.1" xml:space="preserve" xmlns="http://www.w3.org/2000/svg" xmlns:xlink="http://www.w3.org/1999/xlink">
  <defs/>
  <g>
    <title>giraffe-a</title>
    <desc>Created with Sketch.</desc>
    <g id="giraffe-a" stroke="none" stroke-width="1" fill="none" fill-rule="evenodd">
      <g id="Group">
        <path d="M66.8673459,258.473927 L67.5226489,262.673685 L78.6628004,262.673685 L76.135203,258.833585 L72.3134758,258.232657 C72.3134758,258.232657 67.1684108,257.930694 66.7737312,257.407691 C66.3790515,256.884688 66.8673459,258.473927 66.8673459,258.473927" id="Fill-1" fill="#624B59"/>
        <path d="M81.0031684,135.763447 C81.0031684,135.763447 79.368281,166.556926 77.1649649,179.784103 C74.2629087,197.205043 72.0199,200.76416 72.0199,205.821852 C72.0199,210.879544 72.6714584,219.964658 71.2672377,229.330755 C69.8630169,238.696852 66.492887,253.120641 65.3695104,255.087521 C64.9733329,256.030125 65.7439693,255.887761 66.7737312,257.408066 C67.8034931,258.927621 73.7012203,258.084672 73.7012203,258.084672 C73.8375234,257.05665 72.8586879,256.445231 74.2629087,253.96359 C75.2125364,252.285185 73.0137139,250.973932 75.2462377,233.404632 C76.6504584,222.353387 76.9028437,221.35084 78.7564152,216.124558 C79.8565753,213.023256 82.4073892,209.47463 82.4073892,206.758462 C82.4073892,204.50835 81.0031684,199.452906 84.5605277,184.37349 C88.117887,169.294074 103.189857,126.959316 103.189857,126.959316" id="Fill-3" fill="#DEBB9B"/>
        <path d="M65.6503545,254.460442 C65.8046316,254.273121 69.3013286,254.619291 70.4247052,252.933394 C71.5480818,251.247497 71.4881684,249.561599 72.6415017,248.812311 C73.7948351,248.063024 74.3355537,242.822505 74.3355537,242.822505 C74.3355537,242.822505 71.6536792,243.165679 70.0494974,243.567297 C68.4445667,243.968915 67.5256446,248.051784 67.1511857,249.363038 C66.7767268,250.674291 65.6503545,254.460442 65.6503545,254.460442" id="Fill-5" fill="#AF7444"/>
        <path d="M74.4439221,241.18179 C74.4439221,241.18179 70.7367792,240.711986 69.4883333,241.336143 C68.2398874,241.9603 69.4314156,239.665231 69.9931039,237.104915 C70.5547922,234.544599 71.0513247,232.016502 72.6412771,231.454536 C74.2319784,230.89257 75.4235065,232.017251 75.4235065,232.017251 C75.4235065,232.017251 74.5644978,240.120049 74.4439221,241.18179" id="Fill-7" fill="#AF7444"/>
        <path d="M75.2305104,227.89512 C75.2305104,227.89512 73.9730775,228.332704 73.4787918,227.270963 C72.9837571,226.209222 73.0998394,223.836228 73.4787918,220.589564 C73.8577442,217.3429 74.232203,215.907265 75.2305104,214.47088 C76.2288177,213.034496 76.7283459,212.097137 77.227874,212.722043 C77.7266532,213.346949 77.6644931,214.282809 77.9138827,214.782584 C78.1640212,215.282359 76.1666576,219.902467 75.9794281,221.713496 C75.7921987,223.524524 75.2305104,227.89512 75.2305104,227.89512" id="Fill-9" fill="#AF7444"/>
        <path d="M80.4882874,211.410789 C80.4882874,211.410789 73.4926468,211.628832 72.7646987,209.380969 C72.0374996,207.133105 71.7162139,204.989393 72.215742,203.241305 C72.7152701,201.493217 73.1706121,201.669299 74.419058,200.982952 C75.6675039,200.296604 80.5347203,198.298254 80.9091792,198.110932 C81.2836381,197.92361 81.1593177,197.86067 81.2214779,200.233664 C81.2836381,202.606658 82.9013004,205.865311 82.3396121,207.551208 C81.7779238,209.237105 81.5495039,210.848823 80.4882874,211.410789" id="Fill-11" fill="#AF7444"/>
        <path d="M73.248874,198.461448 C73.248874,198.461448 79.349558,197.298554 80.3478654,196.112431 C81.3469216,194.926309 82.345229,195.300203 81.7835407,194.05189 C81.2218524,192.803577 80.4100255,190.055938 79.7240169,188.932007 C79.0372593,187.808075 79.4746273,187.433431 78.5377312,187.620753 C77.601584,187.808075 76.1614152,187.688938 75.6109606,188.229924 C75.0605061,188.770161 74.715255,193.539377 74.2157268,194.538178 C73.3207701,196.328226 73.622584,196.60846 73.248874,198.461448" id="Fill-13" fill="#AF7444"/>
        <path d="M82.8286554,191.725876 C82.7035861,191.538554 78.4130364,184.498246 78.8504043,183.312124 C79.2870234,182.126001 80.4104,181.938679 81.7831662,182.313323 C83.1559325,182.687967 84.8732009,183.093332 84.8732009,183.093332 C84.8732009,183.093332 83.9085948,186.154172 83.8464346,187.574822 C83.7842745,188.994722 82.8286554,191.725876 82.8286554,191.725876" id="Fill-15" fill="#AF7444"/>
        <path d="M77.9325307,177.880162 C77.9325307,177.880162 80.4106996,181.190516 82.4702234,180.940254 C84.5297472,180.689991 85.5415351,180.558117 85.5415351,180.558117 L86.3361368,177.736299 C86.3361368,177.736299 84.9221801,172.198313 81.8860675,170.88706 C78.849955,169.575806 79.7861022,170.574607 79.3494831,172.635148 C78.9128641,174.695689 77.9325307,177.880162 77.9325307,177.880162" id="Fill-17" fill="#AF7444"/>
        <path d="M84.2266602,170.824869 C84.2184221,170.820373 80.0986255,168.577006 79.848487,167.702587 C79.5990974,166.828168 79.411868,166.07888 79.848487,164.330792 C80.2851061,162.582704 81.4451797,157.587952 81.5208203,156.026436 C81.5957121,154.46492 81.7829416,155.089077 83.0935476,154.090276 C84.4041537,153.091476 87.2133442,151.404829 87.5248939,150.718481 C87.8371926,150.032134 87.6499632,149.282097 88.2738117,151.655091 C88.8976602,154.028085 91.0822532,153.840764 90.0210368,155.713983 C88.9605693,157.587202 86.5258377,163.519313 86.4636775,165.454724 C86.4015173,167.390134 85.5252835,171.567413 84.2266602,170.824869" id="Fill-19" fill="#AF7444"/>
        <path d="M97.6833641,142.748532 C97.4961346,142.810723 91.082403,145.098299 89.7096368,145.723205 C88.3368706,146.348111 86.9633554,147.659364 88.3990307,148.970618 C89.8347061,150.281872 91.2074723,151.15629 91.3325416,152.342413 C91.4568619,153.528535 90.5828749,155.089302 91.2074723,155.214433 C91.8313208,155.339564 93.168139,156.419287 94.1664463,153.109683 C95.1647537,149.800079 97.6833641,142.748532 97.6833641,142.748532" id="Fill-21" fill="#AF7444"/>
        <path d="M79.7360745,155.151268 C79.9854641,154.963946 83.2994251,151.717282 84.2265853,151.155316 C85.1537455,150.59335 86.4021913,150.343088 86.0898926,148.907453 C85.7775939,147.471818 83.5308407,148.345487 82.7197628,146.097624 C81.9079359,143.849761 82.5505074,143.788319 81.8862173,143.538057 C81.2219273,143.287795 80.295516,145.887823 80.295516,147.324208 C80.295516,148.760593 79.7360745,155.151268 79.7360745,155.151268" id="Fill-23" fill="#AF7444"/>
        <path d="M83.0316121,141.601897 C83.0376035,141.85216 82.987426,145.286145 84.2268848,145.473467 C85.4655948,145.660789 86.3395818,145.973242 88.3361965,144.724179 C90.3335602,143.475117 90.1613091,143.600997 92.119729,142.976091 C94.0781489,142.351185 94.9521359,141.85141 95.6381446,141.601897 C96.3249022,141.352385 96.6364519,140.790419 96.4492225,139.853809 C96.2619931,138.917199 97.0109108,137.855459 94.7649065,138.604746 C92.5181532,139.354034 92.2163394,141.85216 90.3073481,141.165063 C88.3991056,140.477966 89.9591013,139.167462 86.7140407,139.416974 C83.4682312,139.666487 83.0121403,140.787422 83.0316121,141.601897" id="Fill-25" fill="#AF7444"/>
        <path d="M81.0031684,135.763447 C81.0031684,135.763447 79.368281,166.556926 77.1649649,179.784103 C74.2629087,197.205043 72.0199,200.76416 72.0199,205.821852 C72.0199,210.879544 72.6714584,219.964658 71.2672377,229.330755 C69.8630169,238.696852 66.492887,253.120641 65.3695104,255.087521 C64.9733329,256.030125 65.7439693,255.887761 66.7737312,257.408066 C67.8034931,258.927621 73.7012203,258.084672 73.7012203,258.084672 C73.8375234,257.05665 72.8586879,256.445231 74.2629087,253.96359 C75.2125364,252.285185 73.0137139,250.973932 75.2462377,233.404632 C76.6504584,222.353387 76.9028437,221.35084 78.7564152,216.124558 C79.8565753,213.023256 82.4073892,209.47463 82.4073892,206.758462 C82.4073892,204.50835 81.0031684,199.452906 84.5605277,184.37349 C88.117887,169.294074 103.189857,126.959316 103.189857,126.959316" id="Stroke-27" stroke="#533D37" stroke-width="0.5625"/>
        <path d="M51.765045,258.473927 C51.765045,258.473927 53.3872009,260.987788 53.3872009,262.673685 L63.0295169,262.673685 L61.6252961,259.30189 C61.6252961,259.30189 59.4788978,258.327816 57.3969065,257.41893 C56.9565429,257.334261 52.7948069,257.72464 51.765045,258.473927" id="Fill-29" fill="#624B59"/>
        <path d="M50.0166965,159.553333 C50.0166965,159.553333 51.1400732,170.230684 50.0166965,178.191866 C48.8933199,186.153048 44.3061987,199.733889 44.3061987,199.733889 C44.3061987,199.733889 42.8083632,204.604259 43.7445104,208.631681 C44.6806576,212.659103 56.6633416,254.712877 56.6633416,254.712877 C56.6633416,254.712877 57.3186446,256.586097 58.0675623,257.054402 C58.8164801,257.522707 52.9854065,257.803689 50.7521338,258.83396 C50.7521338,258.83396 48.4919,239.820783 42.2466749,223.05547 C42.2466749,223.05547 38.876545,214.438661 36.0681035,211.066866 C33.2596619,207.695071 33.6341208,208.53802 33.3532766,206.758462 C33.0724325,204.978903 41.0296835,188.307251 29.1406143,156.36886" id="Fill-31" fill="#DEBB9B"/>
        <path d="M48.6256567,246.150242 C48.6728385,246.370532 51.5786394,244.940891 51.7651199,243.629638 C51.9516004,242.318384 52.565713,240.287815 52.565713,240.287815 L51.163739,235.335772 C51.163739,235.335772 48.8930203,236.823857 48.2070117,237.760467 C47.5202541,238.697077 47.3113061,240.137957 47.3113061,240.137957 C47.3113061,240.137957 48.4384273,245.276572 48.6256567,246.150242" id="Fill-33" fill="#AF7444"/>
        <path d="M44.9728104,231.296137 C44.9915333,231.493199 47.0660355,231.265416 47.6367108,230.953712 C48.2066372,230.642009 49.2678537,228.621179 49.2678537,228.621179 C49.2678537,228.621179 48.2066372,225.95896 47.3019446,224.522575 C46.3972519,223.086191 45.2738753,222.149581 43.9632693,222.08739 C42.6526632,222.025199 42.3568407,223.352937 42.3568407,223.352937 C42.3568407,223.352937 44.8477411,229.984883 44.9728104,231.296137" id="Fill-35" fill="#AF7444"/>
        <path d="M40.194116,218.29045 C40.3813455,218.29045 42.589155,217.466982 42.7142242,216.779885 C42.8400424,216.092789 44.8366571,214.719344 44.9617264,214.532022 C45.0860468,214.3447 44.136419,210.161427 44.136419,210.161427 C44.136419,210.161427 42.3405143,209.535772 40.7176095,210.347999 C39.0954537,211.160227 37.9308866,213.855415 37.9308866,213.855415 L40.194116,218.29045 Z" id="Fill-37" fill="#AF7444"/>
        <path d="M35.3060048,210.161726 C35.3060048,210.161726 36.7237061,210.161726 37.0981649,209.287308 C37.4726238,208.412889 39.5943078,204.72939 40.6555242,204.604259 C41.7167407,204.479128 43.4594723,204.793829 43.4594723,204.793829 C43.4594723,204.793829 43.7305805,200.920761 44.3064983,199.733889 C44.8816671,198.547017 43.1584074,195.550615 41.4695978,195.800128 C39.7815372,196.049641 38.7210697,196.611607 37.2232342,198.235313 C35.7253987,199.85902 34.6814074,200.528134 34.6814074,200.528134 C34.6814074,200.528134 33.4157364,206.009174 33.3535762,206.758462 C33.2906671,207.507749 34.6432126,209.836536 35.3060048,210.161726" id="Fill-39" fill="#AF7444"/>
        <path d="M45.9598091,194.551066 C45.9598091,194.551066 41.2790732,194.177171 40.6552247,193.11543 C40.0313762,192.053689 40.7173848,189.493373 40.6552247,186.995997 C40.5930645,184.498621 40.1556965,182.000496 41.216913,182.000496 C42.2781294,182.000496 44.5316229,182.562462 44.5316229,182.562462 C44.5316229,182.562462 46.2721078,183.186618 46.2721078,182.000496 C46.2721078,180.814373 47.208255,175.755932 48.4567009,173.75833 C49.7043978,171.760729 50.4473242,173.20161 50.4473242,173.20161 C50.4473242,173.20161 48.7682506,188.681145 45.9598091,194.551066" id="Fill-41" fill="#AF7444"/>
        <path d="M35.3060048,195.175222 C35.3060048,195.175222 38.408771,193.740336 38.408771,192.553464 C38.408771,191.366593 37.534784,189.617755 37.9092429,186.3089 C38.2837017,183.000046 40.0938359,179.50312 38.408771,179.877764 C36.7237061,180.252407 35.3060048,180.627051 35.3060048,180.627051 C35.3060048,180.627051 36.2279225,192.891393 35.3060048,195.175222" id="Fill-43" fill="#AF7444"/>
        <path d="M34.8174857,177.749936 C34.8174857,177.749936 39.3446935,178.628851 40.842529,178.941304 C42.3403645,179.253757 43.5655939,180.189617 43.7955117,179.190817 C44.0254294,178.192016 45.0237368,172.635298 45.8348147,170.636948 C46.6466416,168.638597 47.3326502,167.827119 46.7709619,167.077831 C46.2092736,166.328543 45.8213342,167.701238 45.1727714,165.516315 C44.5242087,163.331392 44.1497498,163.205512 42.9020528,163.268452 C41.6536069,163.331392 36.4111827,166.9527 36.4111827,166.9527 C36.4111827,166.9527 36.3482736,167.265153 35.3499662,166.765378 C34.3516589,166.265603 34.1569403,166.702438 34.1606848,168.513466 C34.1644294,170.324495 33.6461784,171.448426 33.6461784,171.448426 L34.8174857,177.749936 Z" id="Fill-45" fill="#AF7444"/>
        <path d="M30.7320645,156.36886 L34.16061,157.835966 C34.16061,157.835966 33.103887,158.397932 33.2911165,160.083829 C33.4783459,161.769726 35.6547009,162.519014 34.16061,164.01759 L32.666519,165.516165 C32.666519,165.516165 29.7337571,157.649393 30.7320645,156.36886" id="Fill-47" fill="#AF7444"/>
        <path d="M37.2225602,164.829068 C37.1012355,164.686704 34.9758069,162.862188 35.3502658,160.942513 C35.7247247,159.022088 36.7432528,158.773325 37.4824346,157.211809 C38.2208675,155.650293 38.5668675,154.339789 40.3912312,153.652692 C42.2155948,152.965595 45.9601835,158.21061 45.9601835,158.21061 C45.9601835,158.21061 46.5218719,159.646994 45.9601835,160.583604 C45.3984952,161.520214 42.2919844,161.332892 40.5687247,162.644145 C38.8454649,163.955399 37.6816468,165.370803 37.2225602,164.829068" id="Fill-49" fill="#AF7444"/>
        <path d="M48.8307853,161.457274 C48.8307853,161.457274 46.3346424,161.684308 46.4589628,163.256313 C46.584032,164.829068 47.9567983,164.954199 47.8946381,166.078131 C47.8324779,167.202063 47.3329498,170.82337 47.3329498,170.82337 C47.3329498,170.82337 48.269097,172.946103 48.8307853,170.82337 C49.3924736,168.700638 49.9541619,167.327194 49.9541619,167.327194 C49.9541619,167.327194 50.8888113,160.597091 48.8307853,161.457274" id="Fill-51" fill="#AF7444"/>
        <path d="M50.0166965,159.553333 C50.0166965,159.553333 51.1400732,170.230684 50.0166965,178.191866 C48.8933199,186.153048 44.3061987,199.733889 44.3061987,199.733889 C44.3061987,199.733889 42.8083632,204.604259 43.7445104,208.631681 C44.6806576,212.659103 56.6633416,254.712877 56.6633416,254.712877 C56.6633416,254.712877 57.3186446,256.586097 58.0675623,257.054402 C58.8164801,257.522707 52.9854065,257.803689 50.7521338,258.83396 C50.7521338,258.83396 48.4919,239.820783 42.2466749,223.05547 C42.2466749,223.05547 38.876545,214.438661 36.0681035,211.066866 C33.2596619,207.695071 33.6341208,208.53802 33.3532766,206.758462 C33.0724325,204.978903 41.0296835,188.307251 29.1406143,156.36886" id="Stroke-53" stroke="#533D37" stroke-width="0.5625"/>
        <g id="Group-58" transform="translate(14.978355, 136.044430)">
          <path d="M8.71538052,0.249512821 C8.71538052,0.249512821 11.1351338,33.4054957 0.0264367965,39.5871197 C0.0264367965,39.5871197 12.5708091,31.7195983 10.5172766,7.33627635" id="Fill-55" fill="#AF7444"/>
          <path d="M8.71538052,0.249512821 C8.71538052,0.249512821 11.1351338,33.4054957 0.0264367965,39.5871197 C0.0264367965,39.5871197 12.5708091,31.7195983 10.5172766,7.33627635" id="Stroke-57" stroke="#533D37" stroke-width="0.5625"/>
        </g>
        <path d="M10.9731429,172.095886 C10.9731429,172.095886 11.2225325,176.529421 15.3415801,175.467681" id="Stroke-59" stroke="#533D37" stroke-width="0.5625"/>
        <path d="M9.45044329,174.570558 C9.63767273,174.632749 13.0048069,177.31445 15.0051662,175.63155" id="Stroke-61" stroke="#533D37" stroke-width="0.5625"/>
        <path d="M9.45044329,176.942803 C9.6998329,176.942803 13.5073307,178.50357 14.6928675,175.63155" id="Stroke-63" stroke="#533D37" stroke-width="0.5625"/>
        <path d="M11.9491325,178.409909 C12.1363619,178.285527 14.4452753,179.097006 15.1320329,175.63155" id="Stroke-65" stroke="#533D37" stroke-width="0.5625"/>
        <path d="M158.142071,13.3002322 C158.079911,12.4190698 158.401197,4.70814957 157.861227,4.58301852 C157.128785,4.41367949 154.927716,9.4219188 154.241707,10.7331724" id="Fill-67" fill="#FADAB9"/>
        <path d="M158.142071,13.3244342 C158.079911,12.4432718 158.401197,4.73235157 157.861227,4.60722051 C157.128785,4.43788148 154.927716,9.4461208 154.241707,10.7573744" id="Stroke-69" stroke="#533D37" stroke-width="0.5625"/>
        <path d="M151.690669,8.93990199 C151.752829,8.84624103 151.885387,5.28038063 150.293937,2.11014416 L151.635249,2.95309288 L151.979002,1.39157721 L152.915149,2.35965698 L153.975617,1.04840342 C153.975617,1.04840342 153.258154,7.01123533 155.817206,11.1952581" id="Fill-71" fill="#FADAB9"/>
        <path d="M151.674942,8.93990199 C151.737102,8.84624103 151.86966,5.28038063 150.27821,2.11014416 L151.619522,2.95309288 L151.963275,1.39157721 L152.899422,2.35965698 L153.95989,1.04840342 C153.95989,1.04840342 153.242426,7.01123533 155.801478,11.1952581" id="Stroke-73" stroke="#533D37" stroke-width="0.5625"/>
        <path d="M145.05683,29.1457949 C145.05683,29.1457949 146.22664,31.0347493 149.059047,32.8218006 C151.890705,34.6096011 156.384211,36.2954986 163.030856,35.8893846 C163.030856,35.8893846 163.841934,38.8235954 165.901458,39.5106923 C167.960982,40.1977892 170.832332,40.2599801 172.454488,39.5106923 C172.891856,39.2611795 172.801986,39.0461339 172.080029,35.5769316 C171.268952,31.6753903 164.84099,28.2099345 157.569748,12.1002479 C157.569748,12.1002479 155.16722,7.66671225 147.022739,9.94604558 C140.485436,11.3816809 133.042692,25.2899601 128.874965,31.4146382 C124.375467,38.0832991 110.184973,63.6092849 87.8118043,72.5070769 C87.8118043,72.5070769 83.2404104,74.5556296 79.6980294,75.481 C78.1927048,75.8736268 73.6917091,76.2887322 72.0530771,78.0210855 C70.4151939,79.754188 64.6575143,86.4977778 63.4405229,87.7153704 C62.2235316,88.932963 58.159155,93.5051168 53.7045922,97.0342621 C46.7306701,102.560259 38.3053455,104.152496 33.0157394,111.739034 C26.9143065,120.490715 23.1390121,126.537467 23.7478823,138.900715 C24.3567524,151.263963 37.0516571,162.624664 49.0710381,161.707536 C65.6408433,160.442738 86.9730165,142.227553 91.82151,138.167912 C97.0676788,133.775587 107.484376,127.92365 106.503294,120.684031 C105.754376,115.158034 104.977748,110.268932 104.556856,107.880202 C104.556856,107.880202 103.460441,104.199701 108.515635,98.0180769 C108.515635,98.0180769 119.157008,84.8433504 126.583276,70.4817521 C134.010294,56.1201538 141.172194,38.7389259 143.106648,34.8673561 C143.106648,34.8673561 145.891874,35.5926667 149.199843,32.9094672" id="Fill-75" fill="#FADAB9"/>
        <path d="M37.2361156,158.908646 C37.2361156,158.908646 35.038042,155.213908 35.2252714,155.213908 C35.4125009,155.213908 38.3460117,152.467019 38.0966221,149.282546 C37.8464835,146.098074 39.5322974,145.972193 40.7799944,144.161914 C42.0284403,142.351635 44.2744446,137.605646 44.2122844,143.599948 C44.1501242,149.59425 44.2137823,158.835965 44.2137823,158.835965 L37.2361156,158.908646 Z" id="Fill-77" fill="#AF7444"/>
        <path d="M50.0792312,151.030934 C50.0792312,151.030934 48.3941662,141.789219 48.5813957,141.727028 C48.7686251,141.664838 55.8833437,142.726578 55.8833437,142.726578 L54.5727377,151.030934 L50.0792312,151.030934 Z" id="Fill-79" fill="#AF7444"/>
        <path d="M51.2026078,154.090276 C51.2026078,154.090276 55.6961143,153.591251 56.1327333,151.030934 C56.5701013,148.470618 56.6944216,144.85006 57.9428675,145.349085 C59.1913134,145.848111 62.2491446,147.034983 62.2491446,147.034983 C62.2491446,147.034983 65.6192745,145.348336 66.6175818,144.349536 C67.6166381,143.350735 67.553729,147.784271 67.7409584,150.5941 C67.9281879,153.403929 61.3751576,157.025986 56.6322615,158.836265 C54.3855082,159.585553 50.16311,154.280595 51.2026078,154.090276" id="Fill-81" fill="#AF7444"/>
        <path d="M45.52319,160.771675 C45.2790429,160.719974 45.52319,145.848111 45.52319,145.848111 L47.3954844,145.848111 C47.3954844,145.848111 49.3965926,157.199071 52.225255,158.908946 C55.0531684,160.618071 47.5827139,161.20851 45.52319,160.771675" id="Fill-83" fill="#AF7444"/>
        <path d="M35.9744887,146.660339 C35.8142203,146.77498 35.9744887,139.604296 35.9744887,139.604296 C35.9744887,139.604296 36.5361771,137.480815 35.5378697,136.856658 C34.5388134,136.232501 32.4171294,136.170311 33.1660472,134.484413 C33.9149649,132.798516 33.7906446,132.360932 35.7250991,131.237 C37.6595537,130.113068 42.527519,125.929795 42.527519,125.929795 C42.527519,125.929795 43.2764368,125.617342 44.5870429,129.30159 C45.8976489,132.985838 47.7407355,133.048778 45.414597,135.608345 C43.0892074,138.167912 37.7217139,145.412026 35.9744887,146.660339" id="Fill-85" fill="#AF7444"/>
        <path d="M34.2597667,148.562106 C34.7592948,148.374784 34.2597667,140.069679 34.2597667,140.069679 C34.2597667,140.069679 34.8199571,138.945747 33.1041866,138.321591 C31.3891649,137.697434 30.2657883,136.948146 30.2657883,136.948146 L30.2657883,127.956693 C30.2657883,127.956693 30.0156498,127.644989 27.7067364,130.204556 C25.3978229,132.764123 23.8408229,134.259702 23.8408229,134.259702 C23.8408229,134.259702 22.9608446,144.991001 27.9785935,150.482531 C28.7746931,151.279773 33.7602385,148.749428 34.2597667,148.562106" id="Fill-87" fill="#AF7444"/>
        <path d="M31.8554411,131.986288 C31.793281,131.798966 31.8554411,123.057775 31.8554411,123.057775 C31.8554411,123.057775 31.2937528,121.62214 32.666519,119.68598 C34.0400342,117.749821 38.1590818,111.443815 38.1590818,111.443815 C38.1590818,111.443815 39.104216,109.645524 38.4084714,119.748171 C37.7127268,129.850818 38.1590818,126.491761 38.1590818,126.491761 C38.1590818,126.491761 37.4723242,128.115467 34.2272636,130.550652 C30.9814541,132.985838 31.8554411,131.986288 31.8554411,131.986288" id="Fill-89" fill="#AF7444"/>
        <path d="M40.5305299,122.558 L40.5305299,110.069621 C40.5305299,110.069621 39.9785775,109.133011 46.5263654,105.886348 C53.0749022,102.639684 56.3199628,101.140359 56.3199628,102.389422 L56.3199628,114.877801 C56.3199628,114.877801 56.3828719,115.564897 53.5744303,116.938342 C50.7659887,118.311786 42.4028242,122.994835 42.4028242,122.994835 C42.4028242,122.994835 40.5305299,124.49341 40.5305299,122.558" id="Fill-91" fill="#AF7444"/>
        <path d="M46.8963307,130.800165 C46.611742,130.549154 44.7843827,127.427621 46.5263654,125.242698 C48.269097,123.057775 51.0408416,120.185006 51.0408416,120.185006 C51.0408416,120.185006 51.9515255,118.436168 53.8238199,122.245547 C55.6961143,126.054926 58.2551662,130.800165 58.2551662,130.800165 C58.2551662,130.800165 59.8773221,132.486063 58.2551662,134.359282 C56.6322615,136.232501 55.0722658,139.291094 55.0722658,139.291094 C55.0722658,139.291094 54.8842874,140.790419 51.8264563,140.228453 C48.7686251,139.666487 46.5263654,138.98014 46.5263654,138.98014 C46.5263654,138.98014 45.6576208,138.98014 46.5263654,137.731077 C47.3958589,136.482014 48.5664173,133.797316 48.5664173,133.797316 C48.5664173,133.797316 48.4563264,132.17361 46.8963307,130.800165" id="Fill-93" fill="#AF7444"/>
        <path d="M55.134426,117.749821 L57.319019,116.251245 L57.9428675,110.694527 C57.9428675,110.694527 57.847755,109.632786 59.3935212,109.445464 C60.9385385,109.258142 63.7469801,108.758368 63.7469801,108.758368 C63.7469801,108.758368 65.0575861,108.571795 65.6814346,110.694527 C66.306032,112.817259 67.7454519,117.187855 67.7454519,117.187855 C67.7454519,117.187855 69.1137247,118.312536 66.8048113,120.060624 C64.4958978,121.808712 62.8729931,122.994835 62.8729931,122.994835 C62.8729931,122.994835 61.5945905,124.306088 61.6410234,125.055376 C61.6874563,125.804664 61.2508372,126.117117 60.3768502,126.491761 C59.5028632,126.866405 58.4423957,127.865205 57.8807074,126.491761 C57.319019,125.118316 54.6978069,119.061074 54.6978069,119.061074 C54.6978069,119.061074 54.3368286,118.296801 55.134426,117.749821" id="Fill-95" fill="#AF7444"/>
        <path d="M58.9759247,106.260991 C58.9916519,105.965023 58.6920848,101.951088 58.6920848,101.951088 C58.6920848,101.951088 58.6913359,100.827906 59.6903922,100.703524 C60.6886996,100.579142 61.8120762,100.516202 61.9371455,99.7669145 C62.0622147,99.0176268 63.1226823,92.6486809 63.1226823,92.6486809 C63.1226823,92.6486809 63.0605221,91.961584 64.4961974,91.7120712 C65.9311238,91.4625584 68.8024745,90.7132707 68.8024745,90.7132707 C68.8024745,90.7132707 70.4253792,90.2764359 70.1130805,92.2118462 C69.8007818,94.1472564 70.1527732,102.514553 70.1527732,102.514553 C70.1527732,102.514553 70.4253792,103.825057 67.4918684,105.199251 C64.5583576,106.573444 58.8231455,109.070821 58.9759247,106.260991" id="Fill-97" fill="#AF7444"/>
        <path d="M50.783139,99.1054433 C50.7516844,99.1234262 51.5769918,102.015677 53.387126,101.141258 C55.1965113,100.266839 60.1895459,98.4558108 60.1895459,98.4558108 C60.1895459,98.4558108 61.0635329,98.0197254 61.1256931,96.0835658 C61.1878532,94.1474063 61.3818229,89.8809618 61.3818229,89.8809618 C61.3818229,89.8809618 54.6161,96.8950444 50.783139,99.1054433" id="Fill-99" fill="#AF7444"/>
        <path d="M47.9575472,100.778903 C47.6452485,100.522646 48.1545126,104.13796 46.5263654,104.887247 C44.8989671,105.636535 38.6642268,109.195652 38.6642268,109.195652 C38.6642268,109.195652 36.6084476,109.135709 35.922439,108.390917 C35.2356814,107.646125 45.8980234,101.006686 47.9575472,100.778903" id="Fill-101" fill="#AF7444"/>
        <path d="M33.3876519,111.718953 C33.3876519,111.718953 35.0487515,113.316435 34.4818208,114.003532 C33.91489,114.690628 29.2970632,121.121765 28.6724658,124.244047 C28.0486173,127.366329 27.6741584,128.336657 26.7380113,127.944779 C25.8018641,127.553651 24.810297,127.193993 24.810297,127.193993 C24.810297,127.193993 26.6166866,119.272523 33.3876519,111.718953" id="Fill-103" fill="#AF7444"/>
        <path d="M58.9759247,141.039932 C58.9759247,141.039932 57.1935004,139.354034 57.6308684,138.417425 C58.0674874,137.480815 60.5643792,133.734376 60.5643792,133.734376 C60.5643792,133.734376 61.313297,132.705604 60.9388381,132.189345 C60.5643792,131.673835 59.5653229,130.587368 60.3142407,130.06886 C61.0631584,129.551103 62.623903,128.027051 62.623903,128.027051 C62.623903,128.027051 63.6222104,127.677883 63.7472797,126.928595 C63.8716,126.179308 63.1226823,124.930994 65.3072753,123.869254 C67.4918684,122.807513 68.4901758,122.245547 68.4901758,122.245547 C68.4901758,122.245547 68.8646346,122.558 69.7386216,124.243897 C70.6118597,125.929795 70.9241584,126.553952 70.4875394,126.928595 C70.0501714,127.303239 69.6757126,130.176009 70.4246303,133.048028 C71.1735481,135.920048 70.9863186,135.358083 70.9863186,135.358083 C70.9863186,135.358083 71.1113879,136.419074 69.3641628,137.855459 C67.6161887,139.291843 63.4971411,143.849761 63.4971411,143.849761 C63.4971411,143.849761 62.3250848,145.498943 61.3821974,144.206422 C60.43931,142.913151 58.9759247,141.039932 58.9759247,141.039932" id="Fill-105" fill="#AF7444"/>
        <path d="M70.1592139,153.887594 L68.8021749,142.039107 C68.8021749,142.039107 68.0532571,140.040007 69.8004823,139.291469 C71.5477074,138.54293 76.4785818,137.044355 76.4785818,137.044355 C76.4785818,137.044355 78.5381056,136.357258 77.9764173,139.979315 C77.414729,143.600623 75.5424346,143.912326 75.3552052,145.848486 C75.1679758,147.783896 75.0511446,150.855226 75.0511446,150.855226" id="Fill-107" fill="#AF7444"/>
        <path d="M68.1479952,109.195952 C68.0364065,109.041598 67.1189823,107.759567 68.1479952,107.010279 C69.1770082,106.260991 71.1114628,105.261442 71.2986922,104.324832 C71.4859216,103.388222 71.0493026,100.141558 71.9854498,100.141558 C72.921597,100.141558 79.1001684,113.379225 80.5980039,115.314635 C82.0958394,117.250046 82.5946186,117.625439 81.8457009,118.436917 C81.0967831,119.248396 75.7921987,125.923051 75.7921987,125.923051 C75.7921987,125.923051 75.3548307,126.10363 74.7309823,125.923051 C74.1071338,125.742473 71.0170991,122.886937 70.1595883,121.754764 C69.3013286,120.62184 69.2391684,120.498208 69.6757874,119.873302 C70.1131554,119.248396 73.2353935,116.251994 68.1479952,109.195952" id="Fill-109" fill="#AF7444"/>
        <path d="M74.9273485,96.3329288 C74.9273485,96.3329288 74.1252576,95.146057 74.9273485,94.7092222 C75.7294394,94.2723875 79.0374091,90.9627835 79.0374091,90.9627835 C79.0374091,90.9627835 78.8501797,84.1562536 79.7241667,83.8445499 C80.5974048,83.5328462 84.0304437,87.0290228 84.0304437,87.0290228 C84.0304437,87.0290228 88.5232013,87.2792849 88.7733398,87.2792849 C89.0227294,87.2792849 89.272868,87.5917379 89.3971883,88.7778604 C89.5222576,89.9639829 90.5205649,95.5933818 90.5205649,95.5933818 C90.5205649,95.5933818 91.3323918,96.7068234 88.7111797,97.8936952 C86.0899675,99.080567 79.3497078,103.138709 79.3497078,103.138709 C79.3497078,103.138709 78.4128117,103.887997 77.5395736,102.576744 C76.6655866,101.26549 74.9273485,96.3329288 74.9273485,96.3329288" id="Fill-111" fill="#AF7444"/>
        <path d="M62.4290346,88.7807826 C62.8109827,88.9651074 69.7384719,86.4040419 70.4873896,88.1528795 C71.2363074,89.9017171 71.7350866,93.2105718 71.7350866,93.2105718 C71.7350866,93.2105718 71.485697,95.458435 74.0447489,93.2105718 C76.6030519,90.9627085 77.477039,90.2134208 77.477039,90.2134208 C77.477039,90.2134208 77.6642684,90.3378026 77.7893377,87.2162698 C77.913658,84.094737 78.669316,83.5320219 78.0731775,82.3458994 C77.477039,81.1597769 73.7361948,79.2146259 70.3645671,79.9062185" id="Fill-113" fill="#AF7444"/>
        <path d="M79.2870234,105.511704 C79.5139455,105.375333 85.0911359,102.2021 85.0911359,102.2021 C85.0911359,102.2021 86.0894433,101.26549 86.6511316,102.2021 C87.2128199,103.138709 87.7745082,105.511704 90.0212615,105.948538 C92.2680147,106.385373 93.4543004,106.383875 93.8909195,107.540026 C94.3275385,108.696177 94.3904476,114.065573 94.3904476,114.065573 C94.3904476,114.065573 94.6398372,115.126564 93.2041619,115.938792 C91.7692355,116.75102 90.6391186,117.974607 90.6391186,117.974607 C90.6391186,117.974607 89.397413,118.436917 88.2740364,116.938342 C87.1506597,115.439766 87.275729,114.628288 84.3422182,114.315835 C81.4087074,114.003382 82.7193134,114.315835 81.9082355,113.628738 C81.0971576,112.941641 79.1619541,107.633687 78.9125645,106.947339 C78.6631749,106.260991 78.1381835,106.201798 79.2870234,105.511704" id="Fill-115" fill="#AF7444"/>
        <path d="M88.8357247,100.765715 C89.0124693,99.7946382 90.0212615,99.080567 91.0203177,98.3934701 C92.0186251,97.7063732 93.0169325,97.3946695 92.7053827,95.9582849 C92.393084,94.5219003 91.3947766,93.7096724 92.2058545,93.2728376 C93.0169325,92.8360028 97.8227377,95.0831168 98.7588848,95.8953447 C99.695032,96.7075726 99.3827333,97.0072877 99.695032,99.1052934 C100.006582,101.203299 101.067798,101.057188 101.567326,101.785496 C102.066106,102.514553 101.754556,101.952587 101.005638,103.076519 C100.25672,104.20045 100.068742,106.07367 98.8832052,106.13586 C97.6976684,106.198051 96.4829238,105.387322 94.4069238,105.699026 C92.3309238,106.010729 92.7675429,106.010729 91.3947766,104.637285 C90.0212615,103.26384 88.4612658,102.826256 88.8357247,100.765715" id="Fill-117" fill="#AF7444"/>
        <path d="M74.9273485,76.9765783 C74.9273485,76.9765783 73.3583658,78.4744046 75.7294394,78.2248917 C78.1012619,77.9753789 79.0374091,77.4681111 80.6603139,78.2526154 C82.2824697,79.0371197 83.9053745,83.1177407 84.3419935,83.8250684 C84.7793615,84.5316467 85.2054957,85.6548291 86.4898896,84.7811595 C87.7750325,83.90749 89.5851667,82.5962365 90.9579329,82.2215926 C92.3306991,81.8469487 91.9562403,82.2830342 92.5179286,80.0981111 C93.0796169,77.913188 93.8906948,77.9761282 93.4540758,76.6019345 C93.0174567,75.2277407 91.0058636,75.179037 88.3157511,72.3062678" id="Fill-119" fill="#AF7444"/>
        <path d="M93.0173069,69.9373197 L95.2947658,74.9785276 C95.2947658,74.9785276 95.3891294,76.539294 97.2606749,75.9773282 C99.1329693,75.4153624 101.130333,74.8541459 102.378779,74.9163368 C103.626476,74.9785276 103.564316,75.2287897 103.002627,72.8557954 C102.440939,70.4828011 101.184255,64.7514991 101.184255,64.7514991" id="Fill-121" fill="#AF7444"/>
        <path d="M91.768861,87.5909886 C91.6520299,87.370698 89.7093372,84.9287692 91.768861,83.8250684 C93.8283848,82.7206182 95.5134498,81.4093647 96.2002074,80.0981111 C96.886216,78.7868575 96.8240558,78.7246667 97.8223632,80.785208 C98.8214195,82.8457493 100.568645,85.7185185 100.630805,86.7173191 C100.693714,87.7161197 100.506484,88.6527293 98.8214195,89.4020171 C97.1363545,90.1513048 93.6411554,91.8379516 92.579939,91.5876895 C91.5194714,91.3374274 91.2693329,91.7120712 91.3944022,90.1513048 C91.5194714,88.5905385 92.3709909,88.7306553 91.768861,87.5909886" id="Fill-123" fill="#AF7444"/>
        <path d="M106.747216,76.0992373 C106.747216,76.0992373 102.58548,75.2907558 100.64129,76.4146875 C98.6963502,77.5386191 99.15319,77.9125137 100.64129,80.285508 C102.12864,82.6585023 102.753238,85.5934624 102.690329,87.5288726 C102.628168,89.4642829 102.00432,92.9619581 104.687692,91.2131205 C107.371065,89.4642829 109.056129,87.6922174 111.302883,86.985639 C113.549636,86.27981 115.35977,86.2183684 114.735922,84.6568527 C114.111324,83.095337 109.555658,80.285508 108.494441,78.2249667 C107.433974,76.1644254 108.186636,76.2977986 106.747216,76.0992373" id="Fill-125" fill="#AF7444"/>
        <path d="M114.600967,89.8812615 C114.600967,89.8812615 108.993819,92.5914353 105.873828,93.587988 C102.753088,94.5845407 102.1914,94.6662131 102.25356,95.5930821 C102.316469,96.519951 102.503698,98.8300051 102.503698,98.8300051 C102.503698,98.8300051 104.563222,100.141259 106.909581,100.207945" id="Fill-127" fill="#AF7444"/>
        <path d="M117.993789,84.9348385 C118.055949,84.7475165 117.981057,82.5963114 116.358152,81.5345707 C114.735997,80.4728299 111.428027,79.9116134 112.176945,78.3500977 C112.925862,76.7885821 117.232139,71.4821262 118.979365,69.1713228 C120.727339,66.8605194 120.664429,66.1112316 121.600577,66.9856504 C122.536724,67.8600692 124.698849,71.8230521 124.616468,74.1495906" id="Fill-129" fill="#AF7444"/>
        <path d="M106.747216,73.9786781 C106.747216,73.9786781 104.874922,75.2906809 104.625532,73.1050085 C104.375394,70.9193362 102.878307,66.9001567 104.063844,66.6304131 C105.249381,66.3614188 108.307212,65.4248091 109.430588,64.3630684 C110.553965,63.3013276 112.738558,59.9295328 113.362406,64.3630684 C113.987004,68.796604 114.279082,69.1427749 114.601116,69.9370199 C114.923151,70.7320142 114.735922,72.5422934 111.427952,73.0420684 C108.119982,73.5418433 108.168662,73.6429972 106.747216,73.9786781" id="Fill-131" fill="#AF7444"/>
        <path d="M116.046528,66.6307128 C116.046528,66.6307128 114.7509,62.0525647 114.711956,61.428408 C114.673761,60.8042513 114.610852,61.0537641 114.860991,60.1171544 C115.110381,59.1805447 117.044835,58.3068752 117.357134,55.559237 C117.669432,52.8115989 117.457489,52.3125732 118.343458,51.8127983 C119.229428,51.3130234 122.911108,49.1902912 124.159554,48.6283254 C125.408,48.0663595 126.469216,47.692465 127.841982,54.7477584 C129.214748,61.8030519 128.52874,60.3666672 127.841982,61.6157299 C127.155225,62.8647926 126.031848,66.4246587 125.033541,65.9870746 C124.035233,65.5494906 122.474489,63.5511402 120.789424,64.238237 C119.104359,64.9253339 117.419294,67.9651943 116.733285,67.2983282 L116.046528,66.6307128 Z" id="Fill-133" fill="#AF7444"/>
        <path d="M111.829821,54.8396211 C111.829821,54.8396211 113.612245,58.2443846 112.988397,58.8685413 C112.3638,59.492698 106.310297,62.7393618 105.061852,63.4886496 C103.814155,64.2379373 103.286168,63.914245 103.612696,62.7963077" id="Fill-135" fill="#AF7444"/>
        <path d="M133.770041,55.6782239 C133.770041,55.6782239 131.274647,55.4339561 131.024508,53.4985459 C130.775119,51.5631356 128.777755,46.5054433 131.024508,45.8183464 C133.271261,45.1312496 138.229097,43.0467311 139.977071,41.8268906" id="Fill-137" fill="#AF7444"/>
        <path d="M117.844904,47.6292251 C118.169185,47.6292251 123.828757,46.2550313 124.618116,43.4452023 C125.408224,40.6353732 124.738692,38.6542564 125.033765,37.395453" id="Fill-139" fill="#AF7444"/>
        <path d="M126.905835,46.0677094 C126.339653,45.9058632 126.843675,44.8815869 126.905835,43.1956895 C126.967995,41.509792 126.780766,38.3253191 128.029212,37.0140655 C129.277658,35.702812 133.022246,32.393208 134.707311,31.2692764 C136.392376,30.1453447 136.329467,29.8965812 137.141294,30.2082849 C137.952372,30.5199886 138.82561,33.8917835 139.325138,35.3281681 C139.824666,36.7645527 140.386355,36.7150997 139.762506,37.395453 C139.137909,38.0758063 132.220155,42.134698 129.96816,43.8827863 C127.716913,45.6308746 127.779822,46.3172222 126.905835,46.0677094" id="Fill-141" fill="#AF7444"/>
        <path d="M128.090623,32.6244382 C128.278601,32.6244382 130.712584,30.8943328 132.772108,29.7082103 C134.831632,28.5220877 135.39332,28.3969567 135.892848,26.3364154 C136.391627,24.2758741 138.014532,23.0268114 136.953316,22.2153328 C135.892848,21.4038541 135.061549,21.8189595 134.972428,21.9515835" id="Fill-143" fill="#AF7444"/>
        <path d="M138.139601,26.2745242 C138.230969,26.1104302 139.886826,24.151792 139.575277,21.4041538 C139.262978,18.6565157 138.56948,17.407453 139.977445,16.0961994 C141.384662,14.7849459 141.183952,14.2237293 142.002519,16.5337835 C142.820337,18.8438376 143.818645,22.2156325 143.818645,22.2156325 C143.818645,22.2156325 144.630471,23.6520171 142.758177,24.5886268 C140.885883,25.5252365 136.988515,28.344057 138.139601,26.2745242" id="Fill-145" fill="#AF7444"/>
        <path d="M142.360277,36.4703823 C142.179788,36.3460006 139.754792,33.7062598 139.977221,30.0842028 C140.1989,26.4621459 139.824442,27.134257 140.573359,27.0166188 C141.322277,26.8989806 142.920468,27.7733994 143.993667,28.459747 C145.066866,29.1460946 143.81842,29.7530177 145.129026,31.2920547 C146.439632,32.8310917 147.581732,33.9977328 147.581732,33.9977328 C147.581732,33.9977328 143.993667,34.7784906 143.116684,34.8669066 C142.733987,34.9058695 142.360277,36.4703823 142.360277,36.4703823" id="Fill-147" fill="#AF7444"/>
        <path d="M148.000227,20.986351 C147.174171,20.2205789 145.628404,21.3182855 145.691313,22.8910405 C145.753474,24.4637954 146.396045,29.5184906 148.000227,31.3325162 C149.604409,33.1465419 151.682655,32.6242883 151.682655,32.6242883 C151.682655,32.6242883 151.619746,29.3341658 150.995898,27.6482684 C150.372049,25.9623709 149.435902,22.317086 148.000227,20.986351" id="Fill-149" fill="#AF7444"/>
        <path d="M154.241333,27.1759923 C154.241333,27.1759923 151.495052,26.0872772 151.682281,24.4635707 C151.86951,22.8398641 152.868567,24.3384396 154.92809,24.4635707 C156.987614,24.5887017 157.299164,24.9011547 156.550246,25.8999553 C155.801329,26.8987558 155.207437,27.6712715 154.241333,27.1759923" id="Fill-151" fill="#AF7444"/>
        <path d="M153.929034,31.9563732 C152.52032,30.2547407 151.557961,28.3980057 153.305186,28.8970313 C155.052411,29.396057 155.79309,28.523886 156.920961,30.0839031 C158.048082,31.6439202 159.554155,32.2066353 156.210987,32.2688262 C152.867818,32.3310171 154.654735,32.8330399 153.929034,31.9563732" id="Fill-153" fill="#AF7444"/>
        <path d="M158.255008,35.0157151 C158.255008,35.0157151 157.361549,33.1424957 158.859384,32.9551738 C160.35722,32.7678519 161.106138,32.0185641 161.480597,33.2676268 C161.855055,34.5166895 162.480402,34.5826268 161.730735,35.2659772 C160.981068,35.9493276 158.255008,35.0157151 158.255008,35.0157151" id="Fill-155" fill="#AF7444"/>
        <path d="M164.039424,30.0839031 C164.039424,30.0839031 165.28787,30.5214872 165.537259,30.0839031 C165.786649,29.6463191 165.475099,28.5920712 164.039424,26.7151054 C162.603748,24.8381396 161.168822,23.1522422 158.60977,23.1522422 C156.050718,23.1522422 156.565974,23.336567 158.18064,23.7127094 C159.795307,24.0888519 159.840991,24.2139829 161.222744,26.3367151 C162.603748,28.4594473 163.477735,29.6478177 164.039424,30.0839031" id="Fill-157" fill="#AF7444"/>
        <path d="M161.222519,31.7383305 C162.081528,31.7555641 162.728593,31.8319915 162.354134,30.9575726 C161.979675,30.0831538 160.856299,27.8352906 159.732922,26.3367151 C158.609545,24.8381396 158.625273,24.6508177 158.180416,25.7747493 C157.736307,26.8986809 156.925229,26.0137721 157.424009,27.3302707 C157.923537,28.6467692 159.716446,31.7076097 161.222519,31.7383305" id="Fill-159" fill="#AF7444"/>
        <path d="M158.255008,17.9694188 C158.255008,17.9694188 155.039155,17.9371994 154.296977,14.9565328 C153.5548,11.9751168 154.928315,13.2241795 154.803246,12.4748917 C154.678177,11.725604 155.39564,11.4760912 155.817281,13.0368575 C156.238172,14.5976239 157.252207,16.2205812 158.180865,16.6581652 C159.109523,17.0957493 159.210627,17.6569658 158.255008,17.9694188" id="Fill-161" fill="#AF7444"/>
        <path d="M150.43421,17.9694188 C151.311941,16.7016239 152.993261,17.407453 153.304811,16.5959744 C153.61711,15.7844957 153.67927,13.5980741 151.869885,14.2229801 C150.059751,14.847886 149.685292,15.5342336 149.435902,16.7832963 C149.185764,18.032359 149.872521,18.7808974 150.43421,17.9694188" id="Fill-163" fill="#AF7444"/>
        <path d="M146.814316,14.1124601 C146.814316,14.1124601 143.85609,15.3862493 143.993142,16.2097165 C144.130943,17.0324345 144.688887,19.4683689 145.689441,18.968594 C146.689246,18.4688191 147.162562,19.0929758 147.581207,17.4070783 C147.999852,15.7211809 148.862606,12.9982692 146.814316,14.1124601" id="Fill-165" fill="#AF7444"/>
        <path d="M148.123424,12.6622137 C147.286883,13.0495954 147.270406,12.295812 149.383103,11.8859516 C151.495052,11.4760912 154.053355,11.637188 151.682281,12.2740826 C149.310458,12.9117265 148.933004,12.2875698 148.123424,12.6622137" id="Fill-167" fill="#AF7444"/>
        <path d="M159.545917,20.7880145 C158.238307,20.3144647 157.80693,18.9679946 158.925813,19.4677695 C160.045445,19.9675444 162.802212,21.9666442 159.545917,20.7880145" id="Fill-169" fill="#AF7444"/>
        <path d="M163.041116,34.8283932 C162.594761,34.6051054 162.978956,33.6190427 163.353415,32.6936724 C163.727874,31.7690513 165.224961,30.020963 164.413883,32.1436952 C163.602805,34.2664274 163.664965,35.1400969 163.041116,34.8283932" id="Fill-171" fill="#AF7444"/>
        <path d="M105.115923,103.681643 L98.2116506,109.195652 C98.2116506,109.195652 96.387287,109.871509 96.6366766,111.719253 C96.8868152,113.566247 96.8868152,115.314336 96.8868152,115.314336 C96.8868152,115.314336 97.261274,116.375327 98.6340403,115.75117 C100.006806,115.127014 100.631404,114.502108 101.005863,115.001883 C101.380322,115.501658 106.466222,122.554703 106.513404,120.683732 C106.559837,118.811262 104.537759,107.539726 104.537759,107.539726 C104.537759,107.539726 104.679304,105.711464 105.115923,103.681643" id="Fill-173" fill="#AF7444"/>
        <path d="M106.060833,123.548034 L101.809976,124.743148 C101.809976,124.743148 101.067798,125.180732 101.067798,126.554176 L101.067798,130.894051 C101.067798,130.894051 104.241712,127.956843 105.05279,126.384088 C105.864616,124.812082 106.060833,123.548034 106.060833,123.548034" id="Fill-175" fill="#AF7444"/>
        <path d="M99.695032,122.807513 L101.067798,122.245547 C101.067798,122.245547 101.740326,122.432869 101.809976,121.496259 C101.879625,120.55965 101.380097,119.62304 99.695032,118.499108 C98.0099671,117.375177 98.1342874,117.125664 95.2951403,118.499108 C92.4559931,119.872553 91.8313957,119.246897 91.6441662,120.184256 C91.4569368,121.121615 92.5675818,122.058225 90.6391186,122.807513 C88.7114043,123.556801 88.2118762,123.743373 87.8995775,124.368279 C87.5880277,124.993185 87.3378892,127.028251 87.3378892,130.06886 C87.3378892,133.110219 87.4749411,133.298291 88.7795558,132.860707 C90.0841706,132.423123 93.2708156,132.048479 95.7340061,132.423123 C98.1971965,132.797766 99.3759931,132.049228 99.3482831,130.893826 C99.3205732,129.738425 98.9461143,124.431219 99.695032,122.807513" id="Fill-177" fill="#AF7444"/>
        <path d="M82.1898286,121.308937 C83.3895948,119.78039 82.7822225,116.437818 84.0928286,117.062724 C85.4034346,117.68763 86.7140407,116.875402 87.3378892,118.311786 C87.9624866,119.748171 87.7872398,120.059875 88.7795558,120.62184 C89.7718719,121.183806 91.145387,121.263231 89.6475515,121.754764 C88.149716,122.245547 86.0894433,123.807063 84.6545169,122.932644 C83.2188416,122.058225 81.1608156,122.620191 82.1898286,121.308937" id="Fill-179" fill="#AF7444"/>
        <path d="M74.1071338,133.037014 C74.1071338,133.037014 77.5394238,124.680208 78.8500299,124.181182 C80.1606359,123.682156 82.5946186,123.745097 83.2813762,123.869478 C83.9681338,123.99386 84.9664411,123.355467 84.5298221,125.29837 C84.0924541,127.241273 84.5290732,133.673159 85.2158307,134.734151 C85.9025883,135.795142 86.0898177,136.315897 84.5298221,136.991755 C82.9690775,137.668362 80.9095537,138.728604 80.3478654,139.291319 C79.7861771,139.854034 79.5367874,135.108045 77.0406446,135.795142 C74.5437528,136.482239 71.8603805,134.898994 74.1071338,133.037014" id="Fill-181" fill="#AF7444"/>
        <path d="M84.1268294,144.394193 C84.1268294,144.14468 81.9077861,140.603546 83.5306909,139.97864 C85.1535957,139.353734 86.9637299,139.166413 87.7126476,138.542256 C88.4615654,137.918099 87.7246303,137.727031 88.7791065,136.292145 C89.8343316,134.858008 87.7620762,134.233851 90.6394182,134.608495 C93.5167602,134.983139 95.3703316,135.313575 95.5268554,135.313575 C95.6833792,135.313575 84.1268294,144.394193 84.1268294,144.394193" id="Fill-183" fill="#AF7444"/>
        <path d="M77.0402701,148.470618 C77.0402701,148.470618 77.4768892,143.849761 79.1619541,142.476316 C80.847019,141.102872 81.3540364,142.038732 81.9119801,143.287795 C82.4699238,144.536858 82.9372485,145.13404 82.9372485,145.13404 L77.0402701,149.527863 L77.0402701,148.470618 Z" id="Fill-185" fill="#AF7444"/>
        <path d="M29.1318519,152.028986 C29.1318519,152.028986 31.043839,151.055661 33.3535013,150.637558 C35.6624147,150.218707 36.9288346,149.59455 35.2033281,152.591701 C33.4778216,155.588852 33.4725792,156.407074 33.4725792,156.407074 C33.4725792,156.407074 29.7055229,153.554536 29.1318519,152.028986" id="Fill-187" fill="#AF7444"/>
        <path d="M155.817056,10.4246157 C155.817056,10.4246157 144.318173,3.35883219 137.636329,13.5221712 C131.376125,23.0441199 126.995705,30.3946328 125.033541,32.9047467 C109.162476,53.2022026 101.978857,63.8937895 89.5221078,68.2336641 C92.7050082,68.7341883 92.5672074,69.2137325 93.0173069,69.9375444 C93.4674065,70.6613564 111.450419,59.1320658 125.243238,37.0722852 C139.035307,15.0132538 143.194796,6.54330513 155.817056,10.4246157" id="Fill-189" fill="#AF7444"/>
        <path d="M145.066716,29.1457949 C145.066716,29.1457949 146.236526,31.0347493 149.068932,32.8218006 C151.90059,34.6096011 156.394097,36.2954986 163.040742,35.8893846 C163.040742,35.8893846 163.85182,38.8235954 165.911344,39.5106923 C167.970868,40.1977892 170.842218,40.2599801 172.464374,39.5106923 C172.901742,39.2611795 172.811872,39.0461339 172.089915,35.5769316 C171.278837,31.6753903 164.850876,28.2099345 157.579634,12.1002479 C157.579634,12.1002479 155.177106,7.66671225 147.032625,9.94604558 C140.495322,11.3816809 133.052577,25.2899601 128.88485,31.4146382 C124.385352,38.0832991 110.194859,63.6092849 87.82169,72.5070769 C87.82169,72.5070769 83.2502961,74.5556296 79.7079152,75.481 C78.2025905,75.8736268 73.7015948,76.2887322 72.0629628,78.0210855 C70.4250797,79.754188 64.6674,86.4977778 63.4504087,87.7153704 C62.2334173,88.932963 58.1690407,93.5051168 53.7144779,97.0342621 C46.7405558,102.560259 38.3152312,104.152496 33.0256251,111.739034 C26.9241922,120.490715 23.1488978,126.537467 23.757768,138.900715 C24.3666381,151.263963 37.0615429,162.624664 49.0809238,161.707536 C65.650729,160.442738 86.9829022,142.227553 91.8313957,138.167912 C97.0775645,133.775587 107.494261,127.92365 106.513179,120.684031 C105.764261,115.158034 104.987634,110.268932 104.566742,107.880202 C104.566742,107.880202 103.470326,104.199701 108.525521,98.0180769 C108.525521,98.0180769 119.166894,84.8433504 126.593162,70.4817521 C134.020179,56.1201538 141.18208,38.7389259 143.116534,34.8673561 C143.116534,34.8673561 145.901759,35.5926667 149.209729,32.9094672" id="Stroke-191" stroke="#533D37" stroke-width="0.5625"/>
        <path d="M156.211211,10.6850681 C156.211211,10.6850681 144.099713,1.73482593 135.272969,16.9596037 C135.272969,16.9596037 127.112012,30.3433815 121.070493,38.5435866 C114.945094,46.8554356 100.19441,65.6116066 89.5223325,68.2341137 C89.5223325,68.2341137 92.5367264,68.737635 93.2759082,69.9372447" id="Stroke-193" stroke="#533D37" stroke-width="0.5625"/>
        <g id="Group-198" transform="translate(144.541126, 0.423348)">
          <path d="M8.5142961,10.2097949 C8.5142961,10.2097949 4.11440433,6.05724217 5.51862511,0.624905983 L4.45740866,1.81102849 L3.20971169,1.18687179 L2.64802338,2.1714359 L0.588499567,1.62370655 C0.588499567,1.62370655 5.58078528,6.40041595 3.52126147,10.9276125" id="Fill-195" fill="#FADAB9"/>
          <path d="M8.5142961,10.2097949 C8.5142961,10.2097949 4.11440433,6.05724217 5.51862511,0.624905983 L4.45740866,1.81102849 L3.20971169,1.18687179 L2.64802338,2.1714359 L0.588499567,1.62370655 C0.588499567,1.62370655 5.58078528,6.40041595 3.52126147,10.9276125" id="Stroke-197" stroke="#533D37" stroke-width="0.5625"/>
        </g>
        <path d="M142.633108,15.2847208 C142.633108,15.2847208 141.6348,3.0458547 142.633108,2.60901994 C143.631415,2.17218519 147.376004,12.038057 147.376004,12.038057" id="Fill-199" fill="#FADAB9"/>
        <path d="M142.445878,15.2847208 C142.445878,15.2847208 141.447571,3.0458547 142.445878,2.60901994 C143.444186,2.17218519 147.188774,12.038057 147.188774,12.038057" id="Stroke-201" stroke="#533D37" stroke-width="0.5625"/>
        <path d="M144.380333,14.9276103 C144.380333,14.9276103 143.535554,10.252804 143.444186,6.9184735 C143.380528,4.57844786 145.923103,10.0250205 146.055662,12.2151886 C146.188969,14.4053567 146.314787,14.5702 144.380333,14.9276103" id="Fill-203" fill="#A67C9F"/>
        <path d="M157.424233,21.154641 C157.424233,21.154641 154.075822,25.6413761 150.434584,19.9992393 C150.434584,19.9992393 152.633406,18.3073476 154.337943,18.579339 C156.503813,18.9247607 157.210043,20.7882393 157.424233,21.154641" id="Fill-205" fill="#A67C9F"/>
        <path d="M169.531612,37.8884843 C169.531612,37.8884843 167.944655,37.0140655 167.289352,33.9082678 C167.289352,33.9082678 168.423963,34.2506923 168.961686,35.3274188 C169.942019,37.2905527 169.317422,37.5220826 169.531612,37.8884843" id="Fill-207" fill="#A67C9F"/>
        <path d="M155.223913,22.8910405 C155.223913,22.8910405 152.853588,22.5141487 153.055047,20.2805219 C153.211571,18.5489179 155.223913,18.6882855 155.223913,18.6882855 L157.424233,21.1549407 L155.223913,22.8910405 Z" id="Fill-209" fill="#1B110F"/>
        <path d="M150.43421,19.9992393 C150.43421,19.9992393 154.646872,16.0662279 157.423859,21.154641 C157.423859,21.154641 154.428188,25.7440285 150.43421,19.9992393 Z" id="Stroke-211" stroke="#533D37" stroke-width="0.5"/>
        <path d="M169.531612,37.8884843 C169.531612,37.8884843 167.409928,36.5457607 167.284859,33.8295926 C167.284859,33.8295926 169.874616,35.0164644 169.531612,37.8884843 Z" id="Stroke-213" stroke="#533D37" stroke-width="0.5"/>
        <polygon id="Fill-215" fill="#624B59" points="112.644943 258.473927 112.644943 262.673685 125.376545 262.673685 122.880402 259.077104 118.636285 257.407691 112.738558 257.407691"/>
        <path d="M71.1940684,130.705755 C71.1940684,130.705755 73.7216658,131.267721 73.1599775,140.071852 C72.5982892,148.875983 72.7855186,152.622422 72.7855186,152.622422 C72.7855186,152.622422 72.1302156,155.057607 75.5939602,158.148419 C79.0577048,161.239231 88.0447177,172.010242 93.7559645,187.349661 C93.7559645,187.349661 98.7167957,198.609957 98.9976398,200.951481 C99.278484,203.293006 98.3423368,205.63453 98.9976398,207.60141 C99.6529429,209.568291 103.77199,215.656254 105.363441,223.242792 C105.363441,223.242792 110.231406,243.941866 109.669718,254.338234 C111.822856,255.087521 111.261168,256.82437 112.665389,257.408066 C114.06961,257.991011 117.158895,257.667319 118.563116,257.408066 C118.563116,257.408066 121.184328,256.211453 118.981012,250.310812 C116.203276,242.873382 113.719116,237.242484 112.29093,229.143433 C110.886709,221.182251 109.6817,216.393553 109.950562,213.689373 C110.137042,211.816903 110.584146,208.08545 110.51225,205.915513 C110.387181,202.122618 107.422965,200.483177 104.333679,192.521994 C101.244393,184.560812 96.6572719,165.734957 96.0955835,161.988519 C95.5338952,158.24208 95.62751,154.214658 96.6572719,150.468219 C97.6870338,146.721781 100.58909,134.358533 100.121016,125.554402 C100.121016,125.554402 87.3377394,138.104972 87.8372675,132.766296 C89.1343931,118.894732 72.4911939,129.541362 71.1940684,130.705755" id="Fill-217" fill="#FADAB9"/>
        <path d="M118.734993,257.407841 C118.478863,257.424325 116.987768,256.783684 117.049928,255.909265 C117.112088,255.034846 118.111144,253.223818 117.549456,251.850374 C116.987768,250.476929 116.047876,248.229815 117.04843,247.792231 C118.048235,247.354647 119.7333,251.663052 119.764755,253.348949 C119.796209,255.034846 119.67114,257.34565 118.734993,257.407841" id="Fill-219" fill="#AF7444"/>
        <path d="M111.677342,256.80414 C111.677342,256.80414 115.35977,255.055302 114.798082,253.556726 C114.236394,252.058151 113.483731,249.249071 113.267294,248.18733 C113.050108,247.12559 113.113017,245.938718 111.958186,246.251171 C110.803355,246.563624 109.617818,247.781966 109.617818,247.781966 L109.867207,253.93137 C109.867207,253.93137 111.723026,255.703436 111.677342,256.80414" id="Fill-221" fill="#AF7444"/>
        <path d="M116.607842,244.372856 C116.607842,244.372856 110.993205,244.650093 110.493677,244.150318 C109.994149,243.650543 108.746452,235.221056 108.746452,235.221056 C108.746452,235.221056 108.496313,232.910252 109.30814,232.848062 C110.119218,232.785871 113.7305,235.104167 113.731997,235.229298 C113.755963,236.844762 114.659158,236.747355 116.607842,244.372856" id="Fill-223" fill="#AF7444"/>
        <path d="M112.644943,231.141034 C112.644943,231.141034 108.933307,231.224954 108.371619,229.413926 C107.80993,227.602897 108.371619,219.423672 108.371619,218.17461 C108.371619,216.925547 109.307766,216.58537 109.869454,216.148536 C110.431142,215.711701 110.757671,220.62553 111.568748,224.808803 C112.379826,228.992077 112.644943,231.141034 112.644943,231.141034" id="Fill-225" fill="#AF7444"/>
        <path d="M107.186007,227.353609 C107.252661,227.594131 107.435397,221.671011 107.186007,220.484889 C106.936617,219.298766 106.437089,219.985863 105.750332,219.860732 C105.064323,219.735601 106.873708,226.229678 107.186007,227.353609" id="Fill-227" fill="#AF7444"/>
        <path d="M104.517239,219.774414 C104.642308,219.39977 108.12178,215.115343 108.12178,215.115343 C108.12178,215.115343 109.245905,214.73995 109.120836,213.553827 C108.995767,212.367705 108.371918,208.371753 108.12178,207.12269 C107.87239,205.873628 107.15942,204.999958 106.454689,205.374602 C105.750706,205.749246 104.68949,206.873177 103.753342,206.498534 C102.817195,206.12389 102.192598,205.311662 101.506589,206.06095 C100.819832,206.810237 100.179507,208.765129 99.8050481,209.201964 C99.4305892,209.638799 101.896026,212.366955 102.707853,215.051653 C103.518931,217.736351 104.517239,219.774414 104.517239,219.774414" id="Fill-229" fill="#AF7444"/>
        <path d="M109.869754,205.286935 C109.869754,205.286935 106.440459,204.687505 105.596429,203.376252 C104.752399,202.064998 105.313338,202.432149 106.811923,201.604186 C108.309758,200.775474 108.39139,202.327998 109.130572,203.445186 C109.869754,204.562374 109.869754,205.286935 109.869754,205.286935" id="Fill-231" fill="#AF7444"/>
        <path d="M107.801468,199.450733 C107.801468,199.450733 104.002957,202.127938 101.444654,202.190129 C98.8856017,202.25232 97.6139394,196.456579 97.6139394,196.456579 L103.476468,189.940024 C103.476468,189.940024 106.615182,198.51787 107.801468,199.450733" id="Fill-233" fill="#AF7444"/>
        <path d="M95.7650113,190.451188 C95.666903,190.084786 95.5777818,183.144883 96.4517688,181.95876 C97.3250069,180.772638 99.5717602,179.773837 99.5717602,179.773837 C99.5717602,179.773837 100.757297,184.206624 101.569124,186.267165 C102.380202,188.327706 100.758046,191.074595 99.3845307,191.886823 C98.0117645,192.699051 96.4510199,193.011504 95.7650113,190.451188" id="Fill-235" fill="#AF7444"/>
        <path d="M100.039834,178.32434 C100.039834,178.32434 95.5777818,179.960785 94.2671758,178.400018 C92.9565697,176.839252 94.1428554,176.027773 94.5173143,175.527998 C94.8917732,175.028223 98.462613,172.911485 98.5869333,172.724164 C98.7120026,172.536842 100.039834,177.949696 100.039834,178.32434" id="Fill-237" fill="#AF7444"/>
        <path d="M94.3407195,188.52387 C94.3407195,188.52387 95.3907022,182.457636 94.7039446,181.209323 C94.0179359,179.961009 92.3950312,179.211722 91.895503,177.026049 C91.3967238,174.840377 90.7721264,172.803813 90.0232087,174.134548 C89.2742909,175.465283 88.9432693,176.515035 88.9432693,176.515035 C88.9432693,176.515035 94.5653948,187.065007 94.3407195,188.52387" id="Fill-239" fill="#AF7444"/>
        <path d="M98.0754225,171.510467 C98.0754225,171.510467 95.3111671,172.645638 94.9449463,173.2121 C94.5794745,173.779311 94.0177861,174.840302 93.2688684,174.590789 C92.5199506,174.341276 89.0247515,172.094162 88.8375221,170.532647 C88.6502926,168.971131 89.9616476,164.662726 90.6476563,162.16535 C91.3344139,159.667974 91.2093446,158.544043 92.7071801,157.856946 C94.2050156,157.169849 94.9539333,158.169399 95.3905524,158.793556 C95.8279203,159.417712 97.4965091,169.858288 98.0754225,171.510467" id="Fill-241" fill="#AF7444"/>
        <path d="M95.7047234,156.649843 C95.7047234,156.649843 92.7831952,155.047117 92.2147667,154.110507 C91.6463381,153.173897 90.4600524,151.206268 90.335732,150.254672 C90.2106628,149.302328 89.8362039,148.798806 90.335732,147.958105 C90.8345113,147.117405 96.2649139,145.368567 97.1381519,144.806601 C98.012139,144.244635 98.3865978,144.556339 97.6376801,146.679821 C96.8887623,148.803302 96.109139,153.470615 96.109139,153.470615 L95.7047234,156.649843 Z" id="Fill-243" fill="#AF7444"/>
        <path d="M85.2878766,170.256309 C85.2878766,170.256309 86.4659242,170.282534 86.7153139,169.096412 C86.9654524,167.910289 86.4037641,165.538044 87.5271407,162.665275 C88.6505173,159.792506 91.2717294,157.357321 90.8972706,156.35852 C90.5228117,155.35972 89.4615952,153.236987 89.1492965,152.362569 C88.8377468,151.48815 88.6864654,151.238637 88.0753485,151.300828 C87.4642316,151.363019 85.5297771,154.484552 84.4685606,154.547492 C83.4080931,154.610432 82.2839675,154.485301 81.8473485,155.796554 C81.4107294,157.107808 80.2873528,162.727466 80.2873528,162.727466 C80.2873528,162.727466 84.6640281,168.820674 85.2878766,170.256309" id="Fill-245" fill="#AF7444"/>
        <path d="M77.3324229,159.794079 C77.4574922,159.606758 81.0358212,154.609758 81.7225788,153.798279 C82.4093364,152.9868 82.7216351,151.908575 82.7837952,151.291911 C82.8459554,150.675997 82.0977866,150.235416 80.7242714,147.95833 C79.3515052,145.681245 79.5387346,144.931208 78.6025874,145.056339 C77.6664403,145.18147 72.7984749,151.550416 74.1712411,149.864518 C75.5440074,148.178621 72.1012325,153.949635 73.7862974,156.010176 C75.4713623,158.070718 77.3324229,159.794079 77.3324229,159.794079" id="Fill-247" fill="#AF7444"/>
        <path d="M82.7876896,142.558963 C82.7876896,142.558963 81.909958,148.237065 83.5950229,147.95833 C85.2800879,147.679595 90.3352827,145.368792 92.5820359,143.527042 C94.8287892,141.685293 97.9405424,140.685743 98.0386506,139.686943 C98.1367589,138.688142 98.0034515,137.813723 98.0386506,137.439079 C98.0745987,137.064436 98.1367589,136.501721 97.2006117,136.377339 C96.2644645,136.252957 91.2714299,135.56586 91.2714299,135.56586 C91.2714299,135.56586 90.0858931,135.565111 89.4620446,136.002695 C88.8374472,136.440279 89.5242048,138.625202 87.5897502,139.686943 C85.6545468,140.748683 84.2196203,140.936005 83.657932,141.310649 C83.0962437,141.685293 82.8393649,142.18282 82.7876896,142.558963" id="Fill-249" fill="#AF7444"/>
        <path d="M74.4208554,145.431732 C74.4208554,145.431732 80.7117645,141.435031 82.5593446,139.936456 C84.4061758,138.43788 85.1917905,138.376438 85.6104355,137.376889 C86.0290805,136.377339 86.5263619,135.357558 86.4020416,131.174285 C86.2769723,126.991011 85.4628987,127.597934 84.7761411,127.348421 C84.0901325,127.098909 80.2728987,126.116592 80.2728987,126.116592 C80.2728987,126.116592 77.9235437,128.772817 77.4240156,129.396974 C76.9244874,130.021131 75.6693013,133.068484 74.7953143,134.441928 C73.9213273,135.815373 74.6080848,138.625202 74.4208554,140.248909 C74.233626,141.872615 73.9041022,144.881005 74.3399723,145.042852" id="Fill-251" fill="#AF7444"/>
        <path d="M71.2672377,130.705755 C71.2672377,130.705755 73.7948351,131.267721 73.2331468,140.071852 C72.6714584,148.875983 72.8586879,152.622422 72.8586879,152.622422 C72.8586879,152.622422 72.2033848,155.057607 75.6671294,158.148419 C79.130874,161.239231 88.117887,172.010242 93.8291338,187.349661 C93.8291338,187.349661 98.7899649,198.609957 99.0708091,200.951481 C99.3516532,203.293006 98.4155061,205.63453 99.0708091,207.60141 C99.7261121,209.568291 103.84516,215.656254 105.43661,223.242792 C105.43661,223.242792 110.304575,243.941866 109.742887,254.338234 C111.896026,255.087521 111.334337,256.82437 112.738558,257.408066 C114.142779,257.991011 117.232065,257.667319 118.636285,257.408066 C118.636285,257.408066 121.257497,256.211453 119.054181,250.310812 C116.276445,242.873382 113.792285,237.242484 112.364099,229.143433 C110.959878,221.182251 109.75487,216.393553 110.023731,213.689373 C110.210212,211.816903 110.657316,208.08545 110.585419,205.915513 C110.46035,202.122618 107.496134,200.483177 104.406848,192.521994 C101.317562,184.560812 96.7304411,165.734957 96.1687528,161.988519 C95.6070645,158.24208 95.7006792,154.214658 96.7304411,150.468219 C97.760203,146.721781 100.662259,134.358533 100.194186,125.554402" id="Stroke-253" stroke="#533D37" stroke-width="0.5625"/>
        <path d="M24.2726489,142.319715 C24.3662636,152.716083 31.2937528,158.804046 29.0469996,171.260954 C26.8002463,183.717863 14.3494887,196.268433 14.3494887,196.268433 C14.3494887,196.268433 14.6303329,213.127407 10.6049,230.361026 C6.5794671,247.594644 0.400895671,257.429046 0.400895671,257.429046 C4.0518697,259.302265 8.54537619,258.084672 8.54537619,258.084672 C7.70284372,256.305114 10.4176706,246.189729 10.4176706,246.189729 C10.4176706,246.189729 19.1238394,216.592863 21.4642074,209.006325 C23.8045753,201.419786 23.8045753,199.078262 39.4382333,177.536239 C55.0718913,155.994217 51.3273026,142.319715 51.3273026,142.319715 C51.3273026,142.319715 47.5827139,137.730328 38.3148567,147.190085 C30.8796013,154.779621 24.2726489,142.319715 24.2726489,142.319715" id="Fill-255" fill="#FADAB9"/>
        <polygon id="Fill-257" fill="#AF7444" points="4.10451861 250.105207 9.63752294 249.33494 11.1975186 242.381549 6.73097316 243.514472"/>
        <path d="M7.5920039,241.032532 C7.68561861,240.84521 9.66500823,234.117355 9.66500823,234.117355 C9.66500823,234.117355 13.1324974,232.7027 13.9278481,232.890022 C14.7239476,233.077344 12.1693892,240.242782 12.1693892,240.242782 L7.5920039,241.032532 Z" id="Fill-259" fill="#AF7444"/>
        <path d="M15.2260221,229.892721 C15.2260221,229.892721 11.6349615,229.424416 10.7407537,229.772835 L11.821442,224.500097 L17.7236628,221.466231 L15.2260221,229.892721 Z" id="Fill-261" fill="#AF7444"/>
        <path d="M12.3426139,221.463234 C12.2931853,221.570382 16.0812113,218.840726 17.0173584,218.419627 C17.9535056,217.997778 19.0304494,213.642168 19.0304494,213.642168 C19.0304494,213.642168 19.7321853,210.785883 18.468761,211.066866 C17.2045879,211.347849 15.8003671,212.525729 15.9411636,211.047385 C16.0812113,209.568291 16.5492848,201.466991 16.5492848,201.466991 C16.5492848,201.466991 14.7548779,199.608758 14.4740338,199.702419 C14.1931896,199.79608 13.160432,219.683675 12.3426139,221.463234" id="Fill-263" fill="#AF7444"/>
        <path d="M21.2455234,209.719047 C21.1054758,209.719047 17.3915926,209.474779 17.3451597,208.116321 C17.2979779,206.758611 17.6260039,200.998087 17.6260039,200.85797 C17.6260039,200.717104 17.4852074,199.124868 18.4685364,198.797429 C19.4511165,198.469241 27.2608307,195.352204 27.2608307,195.352204 C27.2608307,195.352204 24.3617701,200.357446 23.8000818,201.996138 C23.2383935,203.63558 21.2455234,209.719047 21.2455234,209.719047" id="Fill-265" fill="#AF7444"/>
        <path d="M14.3494887,196.268433 C14.3494887,196.268433 19.1238394,195.753672 22.6811987,193.926909 C26.238558,192.100895 27.7363935,191.819912 28.1580342,190.555114 C28.578926,189.290316 30.3576056,183.858729 30.3576056,183.858729 C30.3576056,183.858729 30.6384498,182.500271 29.4214584,182.968575 C28.2044671,183.43688 23.2953113,184.827558 23.2953113,184.827558 C23.2953113,184.827558 16.8306532,195.004385 14.3494887,196.268433" id="Fill-267" fill="#AF7444"/>
        <path d="M24.8141913,182.276383 C25.0950355,182.042606 29.4679662,180.111691 30.9193688,179.971574 C32.3700225,179.830708 32.6980485,179.877913 33.1189403,179.081421 C33.540581,178.285677 33.6341957,176.787101 34.7103905,176.880762 C35.7873342,176.974423 39.0593558,178.057893 39.0593558,178.057893 C39.0593558,178.057893 44.8717065,169.451574 45.4798277,167.952999 C45.6063948,167.297372 44.1190442,163.674566 42.854871,163.580905 C41.5914468,163.487244 38.7830052,165.594241 37.518832,166.343529 C36.2554078,167.092817 35.8906848,167.046361 35.3709359,166.859039 C34.851187,166.671717 34.1022693,165.968885 33.6806286,167.514666 C33.2597368,169.059697 33.0725074,171.120238 33.0725074,171.120238 C33.0725074,171.120238 30.490239,175.928418 28.9998926,176.739896 C27.0175074,177.820369 24.8141913,182.276383 24.8141913,182.276383" id="Fill-269" fill="#AF7444"/>
        <path d="M29.4111983,168.465062 C27.9964926,169.228586 33.5871636,165.729413 33.3999342,163.578207 C33.2127048,161.426253 31.8556658,159.834017 31.8556658,159.834017 C31.8556658,159.834017 30.5914926,158.944612 30.8259039,158.054458 C31.0595662,157.165054 34.2896485,153.137632 34.2896485,153.137632 C34.2896485,153.137632 35.1786139,152.482005 34.8513368,151.779173 C34.5233108,151.077091 26.6132416,153.330948 26.6132416,153.330948 C26.6132416,153.330948 28.3881766,158.689854 29.0329948,161.5349 C29.7339818,164.625712 29.4111983,168.465062 29.4111983,168.465062" id="Fill-271" fill="#AF7444"/>
        <path d="M36.3489476,164.236382 C36.3489476,164.236382 34.6167009,159.834316 34.2894238,158.289285 C33.9613978,156.743504 34.2894238,155.806895 35.3191857,155.057607 C36.3489476,154.308319 37.8467831,153.980131 38.1276273,152.4351 C38.4084714,150.890068 38.8301121,149.016849 40.1399693,148.595 C41.4505753,148.1739 44.3061987,146.394342 44.867887,146.815442 C45.4295753,147.237291 45.5703719,154.354775 45.4295753,156.837165 C45.2895277,159.319556 43.8853069,161.005453 40.6080429,162.550484 C37.3315277,164.096265 37.4723242,165.266652 36.3489476,164.236382" id="Fill-273" fill="#AF7444"/>
        <path d="M47.0301623,164.862711 C47.0301623,164.862711 46.532132,163.48627 46.5014264,163.316931 C46.3216861,162.323375 45.8086775,158.638378 47.2084048,154.917415 C48.8462879,150.561805 50.8593788,147.237216 50.812197,150.140706 C50.7657641,153.044196 50.7620195,154.684387 50.3366342,155.981404 C48.7159762,160.913965 47.0264177,164.750318 46.532132,163.48627" id="Fill-275" fill="#AF7444"/>
        <path d="M2.36680476,258.473927 L1.33704286,262.673685 L13.1324974,262.673685 L11.9155061,260.574181 C11.9155061,260.574181 9.5751381,259.612845 7.98368788,258.473927 C6.39223766,257.33501 3.2333026,259.058372 2.36680476,258.473927" id="Fill-277" fill="#624B59"/>
        <path d="M24.2726489,142.319715 C24.3662636,152.716083 31.2937528,158.804046 29.0469996,171.260954 C26.8002463,183.717863 14.3494887,196.268433 14.3494887,196.268433 C14.3494887,196.268433 14.6303329,213.127407 10.6049,230.361026 C6.5794671,247.594644 0.400895671,257.429046 0.400895671,257.429046 C4.0518697,259.302265 8.54537619,258.084672 8.54537619,258.084672 C7.70284372,256.305114 10.4176706,246.189729 10.4176706,246.189729 C10.4176706,246.189729 19.1238394,216.592863 21.4642074,209.006325 C23.8045753,201.419786 23.8045753,199.078262 39.4382333,177.536239 C55.0718913,155.994217 51.3273026,142.319715 51.3273026,142.319715" id="Stroke-279" stroke="#533D37" stroke-width="0.5625"/>
      </g>
    </g>
  </g>
</svg>