<svg width="90px" height="87px" viewBox="0 0 90 87" version="1.1" xml:space="preserve" xmlns="http://www.w3.org/2000/svg" xmlns:xlink="http://www.w3.org/1999/xlink">
  <defs/>
  <g>
    <title>hen-d</title>
    <desc>Created with Sketch.</desc>
    <g id="hen-d" stroke="none" stroke-width="1" fill="none" fill-rule="evenodd">
      <g id="Group-5" transform="translate(12.000000, 0.000000)">
        <g id="Group" transform="translate(19.278351, 64.795082)">
          <path d="M9.41635258,6.75635041 L9.41635258,19.4715143" id="Stroke-1" stroke="#FFDB5D" stroke-width="1.05"/>
          <path d="M18.208332,19.4715143 C16.0396928,19.4715143 16.0396928,17.3813504 13.8714041,17.3813504 C11.7031155,17.3813504 11.7031155,19.4715143 9.53552784,19.4715143 C7.36583711,19.4715143 7.36583711,17.3813504 5.19684742,17.3813504 C3.0271567,17.3813504 3.0271567,19.4715143 0.857816495,19.4715143" id="Stroke-3" stroke="#FFDB5D" stroke-width="1.05"/>
          <path d="M10.5555278,0.311678279 L10.5555278,8.16303074 C10.5555278,9.25096107 9.23233196,9.79579713 8.45839381,9.0266168 L0.215321649,0.834219262 L10.5555278,0.311678279 Z" id="Fill-7" fill="#FFF4E3"/>
        </g>
        <g id="Group-2" transform="translate(8.412371, 57.479508)">
          <path d="M1.12070309,8.38214959 L7.98624948,15.2051414 C9.57513608,16.7842602 10.467899,18.9266783 10.467899,21.1600184 L10.467899,24.5227439" id="Stroke-5" stroke="#FFDB5D" stroke-width="1.05"/>
          <path d="M0.186228866,0.311678279 L0.186228866,8.16303074 C0.186228866,9.25096107 1.50942474,9.79579713 2.28301237,9.0266168 L10.5264351,0.834219262 L0.186228866,0.311678279 Z" id="Fill-9" fill="#FFF4E3"/>
        </g>
        <g id="Group-4">
          <path d="M55.448532,58.9519242 C42.7640784,71.558748 22.1982845,71.558748 9.51348041,58.9519242 C-3.1709732,46.3454488 -3.1709732,25.906084 9.51348041,13.2992602 L55.448532,58.9519242 Z" id="Fill-11" fill="#FFF4E3"/>
          <path d="M14.9099113,26.4608484 L27.7598082,35.9028156 C27.7598082,34.6835533 27.7475402,23.3001721 27.7475402,22.1787992 C27.7475402,9.9297418 17.7564474,6.96721311e-05 5.43162268,6.96721311e-05 C4.18203505,6.96721311e-05 2.95768454,0.107016393 1.76417938,0.303143443 L8.99496289,7.48982377 L1.69267423,7.48982377 L7.4470866,13.2085123 L1.57595258,13.2085123 L14.9099113,26.4608484 Z" id="Fill-13" fill="#FFF4E3"/>
          <path d="M52.0310062,75.9039201 L28.6947381,57.5299857 L55.1586557,58.749248 C55.1586557,58.749248 62.0375216,64.2359283 62.634099,73.3925881 L52.0310062,75.9039201 Z" id="Fill-15" fill="#FFF4E3"/>
          <path d="M47.1871278,50.740959 C39.0649835,58.8131721 25.8971691,58.8131721 17.7753753,50.740959 C11.9028392,44.904873 10.2760969,36.4466762 12.8962,29.1579262 L21.7740557,37.9812049 L18.3330454,22.0646066 L47.1871278,50.740959 Z" id="Fill-17" fill="#F3E4CE"/>
        </g>
        <g id="Group-3" transform="translate(45.917526, 66.885246)">
          <path d="M4.43759588,15.9348525 C1.99976082,15.9348525 0.0232041237,13.9707951 0.0232041237,11.5475984 C0.0232041237,9.12475 1.99976082,7.16069262 4.43759588,7.16069262 C6.87578144,7.16069262 8.85198763,9.12475 8.85198763,11.5475984 C8.85198763,13.9707951 6.87578144,15.9348525 4.43759588,15.9348525" id="Fill-19" fill="#CE2235"/>
          <path d="M17.250233,14.8901189 C17.5411608,14.9549139 17.8503155,14.9730287 18.1685835,14.9364508 C19.3775113,14.7971066 20.3750784,13.8349344 20.5443773,12.6369221 C20.7157794,11.4253238 20.0788928,10.3422705 19.0939443,9.83645082 C19.108666,9.83679918 19.1226866,9.83854098 19.1374082,9.83854098 C20.6439237,9.83854098 21.8647691,8.62520082 21.8647691,7.12794672 C21.8647691,6.09645082 21.284666,5.2015123 20.4308103,4.74446311 C20.1381299,4.58770082 20.0228103,4.24491393 20.1591608,3.94393033 C20.3126866,3.60427869 20.3982124,3.22735246 20.3971608,2.83022131 C20.3926041,1.39845902 19.2061093,0.179196721 17.7661918,0.129729508 C16.2831608,0.0788688525 15.0567072,1.20546721 14.9522536,2.64106148 L14.9589134,3.75720902 C14.9589134,3.75720902 13.2333258,3.87286475 13.1895113,4.15608197 C13.1537588,4.386 12.6423567,9.79395082 12.4509753,11.8224549 C11.3941711,12.2979672 10.6952433,13.4203852 10.8733052,14.6828443 C11.0408515,15.8700574 12.0166866,16.8266557 13.2126454,16.9788893 C14.4426041,17.1353033 15.5362124,16.4769016 16.025532,15.4725779 C16.2453052,15.0211025 16.7577588,14.7807336 17.250233,14.8901189" id="Fill-21" fill="#CE2235"/>
          <path d="M20.6249608,9.17686475 C20.6249608,9.17686475 21.3259918,8.90653689 20.6992701,9.34895492 C20.0725485,9.79172131 19.8646928,10.3065984 20.2316825,10.9339959 C20.5990227,11.5610451 18.5096,10.7465779 18.5096,10.7465779 L18.4230227,9.61963115 L18.8846515,8.91872951 L20.6249608,9.17686475 Z" id="Fill-23" fill="#CE2235"/>
          <path d="M8.06322268,17.9433607 C9.94759381,16.8519467 11.2178619,14.8297131 11.2178619,12.5057992 C11.2178619,10.1818852 9.94759381,8.15965164 8.06322268,7.0682377 L8.06322268,17.9433607 Z" id="Fill-25" fill="#FFDB5D"/>
          <path d="M10.6777175,12.9955594 C7.35833608,12.9955594 4.66777938,10.3211947 4.66777938,7.02256762 C4.66777938,3.72394057 7.35833608,1.04957582 10.6777175,1.04957582 C13.997099,1.04957582 16.6876557,3.72394057 16.6876557,7.02256762 C16.6876557,10.3211947 13.997099,12.9955594 10.6777175,12.9955594" id="Fill-27" fill="#E8441D"/>
          <path d="M10.6777175,9.73647131 C9.16944948,9.73647131 7.94720206,8.52138934 7.94720206,7.0227418 C7.94720206,5.5237459 9.16944948,4.30866393 10.6777175,4.30866393 C12.1859856,4.30866393 13.408233,5.5237459 13.408233,7.0227418 C13.408233,8.52138934 12.1859856,9.73647131 10.6777175,9.73647131" id="Fill-29" fill="#FFF4E3"/>
          <path d="M10.6777175,8.79380738 C9.6934701,8.79380738 8.89569691,8.00093852 8.89569691,7.0227418 C8.89569691,6.04454508 9.6934701,5.25167623 10.6777175,5.25167623 C11.6619649,5.25167623 12.4597381,6.04454508 12.4597381,7.0227418 C12.4597381,8.00093852 11.6619649,8.79380738 10.6777175,8.79380738" id="Fill-31" fill="#17242D"/>
        </g>
      </g>
    </g>
  </g>
</svg>