<svg width="191px" height="86px" viewBox="0 0 191 86" version="1.1" xml:space="preserve" xmlns="http://www.w3.org/2000/svg" xmlns:xlink="http://www.w3.org/1999/xlink">
  <defs>
    <polygon id="path-1" points="0.200827206 0.657235772 9.07634191 0.657235772 9.07634191 11.6234244 0.200827206 11.6234244"/>
  </defs>
  <g>
    <title>lion-c</title>
    <desc>Created with Sketch.</desc>
    <g id="lion-c" stroke="none" stroke-width="1" fill="none" fill-rule="evenodd">
      <g id="Group" transform="translate(1.000000, 0.000000)">
        <path d="M90.8933456,32.8447984 C90.8933456,32.8447984 91.2454044,45.5553187 74.1579779,52.8737089 C56.9811397,60.2298553 53.8147059,62.2588959 52.8179044,63.9390423 C51.7610294,65.7212699 52.3729412,68.4145382 53.5373897,72.2600667 L55.2683456,77.1264081 C55.2683456,77.1264081 55.7915441,78.9911398 57.6552206,78.5247821 C63.3419485,77.1026358 64.8395956,77.0627821 65.3823529,77.6507984 C66.9191176,79.316961 65.9313971,80.8852374 63.8260294,85.0796602 L51.3244485,85.0796602 C51.3244485,85.0796602 50.5826103,85.2111073 49.2288603,81.4089285 C47.8758088,77.6074488 42.15625,61.6568959 42.15625,61.6568959 C42.15625,61.6568959 41.6323529,60.6521642 42.15625,59.3411886 C42.6801471,58.030213 46.466875,55.0404894 48.1810662,52.6548634 C49.9713971,50.1643593 55.0713603,41.817465 56.9525,28.0959203" id="Fill-1" fill="#BB8E5D"/>
        <path d="M90.8940441,32.8447984 C90.8940441,32.8447984 91.2461029,45.5553187 74.1579779,52.8737089 C56.9811397,60.2298553 53.8147059,62.2588959 52.8186029,63.9390423 C51.7617279,65.7212699 52.3736397,68.4145382 53.5373897,72.2600667 L55.2690441,77.1264081 C55.2690441,77.1264081 55.7922426,78.9911398 57.6552206,78.5247821 C63.3419485,77.1026358 64.8395956,77.0627821 65.3830515,77.6507984 C66.9191176,79.316961 66.1751838,80.9635463 63.8260294,85.0796602 L51.3251471,85.0796602 C51.3251471,85.0796602 50.5826103,85.2111073 49.2295588,81.4089285 C47.8758088,77.6074488 42.1569485,61.6568959 42.1569485,61.6568959 C42.1569485,61.6568959 41.6330515,60.6521642 42.1569485,59.3411886 C42.6808456,58.030213 46.4675735,55.0404894 48.1817647,52.6548634 C49.9713971,50.1643593 55.0713603,41.817465 56.9525,28.0959203" id="Stroke-3" stroke="#784E3D" stroke-width="0.525"/>
        <path d="M60.2747059,80.1857008 C60.2747059,80.1857008 60.3990441,80.0913106 60.6309559,79.9486764 C60.7476103,79.8794569 60.8901103,79.7927577 61.0605515,79.7088553 C61.2323897,79.6347415 61.4188971,79.5004976 61.6543015,79.476026 C62.1125368,79.3844325 62.6608824,79.2753593 63.2930515,79.3830341 C63.6004044,79.4403675 63.9622426,79.5802049 64.1969485,79.8920423 C64.3115074,80.0395707 64.3946324,80.2241561 64.4302574,80.388465 C64.4728676,80.5248065 64.5043015,80.6905138 64.5259559,80.8681073 C64.5993015,81.5379285 64.4267647,82.1888715 64.1787868,82.7272455 C63.9336029,83.2726114 63.6199632,83.7221886 63.3419485,84.0934569 C63.2693015,84.183652 63.2029412,84.273148 63.1414706,84.359148 C63.0639338,84.4318634 62.9787132,84.4905951 62.9053676,84.5507252 C62.7523897,84.6639935 62.6189706,84.7625789 62.5093015,84.8443837 C62.2864706,85.0003024 62.1523529,85.0800098 62.1523529,85.0800098 C62.1523529,85.0800098 62.2263971,84.9443675 62.3563235,84.7059447 C62.4205882,84.5884813 62.4988235,84.445148 62.5875368,84.2815382 C62.6308456,84.2004325 62.6713603,84.1081398 62.7251471,84.0221398 C62.7908088,83.9459285 62.8571691,83.8641236 62.9242279,83.776026 C63.1889706,83.424335 63.4830515,83.0006276 63.7016912,82.5111967 C63.9259191,82.0266602 64.0649265,81.4673106 64.0055515,80.9289366 C63.9908824,80.8058797 63.970625,80.6744325 63.9245221,80.5227089 C63.8958824,80.3933593 63.8469853,80.3010667 63.7820221,80.2129691 C63.6569853,80.0402699 63.4355515,79.9430829 63.1959559,79.898335 C62.7062868,79.8116358 62.1886765,79.898335 61.7688603,79.9899285 C61.5627941,80.0640423 61.3483456,80.0395707 61.168125,80.070335 C60.9858088,80.0927089 60.8258456,80.111587 60.6938235,80.1269691 C60.4276838,80.1647252 60.2747059,80.1857008 60.2747059,80.1857008" id="Fill-5" fill="#784E3D"/>
        <path d="M136.720018,37.1420016 C139.688768,42.5607008 134.231158,50.6447008 134.231158,50.6447008 C137.418548,55.0146195 139.557445,62.0917902 143.74932,71.1399691 C147.767261,79.8154813 151.170496,85.0803593 151.170496,85.0803593 L162.740239,85.0803593 C165.01046,81.1180667 166.00307,79.1659366 165.187886,78.1758878 C164.372702,77.1851398 163.016857,77.3599366 159.174945,78.2919528 C155.333033,79.2246683 155.194724,77.5780829 154.809136,77.0103431 C154.144136,75.6832862 152.015018,71.5916439 150.967224,60.1718228 C149.91943,48.7513024 155.099724,37.9139041 155.099724,37.9139041 C155.099724,37.9139041 154.127371,36.4560992 153.310092,35.3940341 C146.237482,26.202522 134.738989,33.5258065 136.720018,37.1420016" id="Fill-7" fill="#BB8E5D"/>
        <path d="M136.720018,37.1420016 C139.470827,43.784278 134.231158,50.6447008 134.231158,50.6447008 C137.418548,55.0146195 139.557445,62.0917902 143.74932,71.1399691 C147.767261,79.8154813 151.170496,85.0803593 151.170496,85.0803593 L162.740239,85.0803593 C165.01046,81.1180667 166.00307,79.1659366 165.187886,78.1758878 C164.372702,77.1851398 163.016857,77.3599366 159.174945,78.2919528 C155.333033,79.2246683 155.194724,77.5780829 154.809136,77.0103431 C154.144136,75.6832862 152.015018,71.5916439 150.967224,60.1718228 C149.91943,48.7513024 155.099724,37.9139041 155.099724,37.9139041" id="Stroke-9" stroke="#784E3D" stroke-width="0.525"/>
        <path d="M158.549063,80.5352943 C158.549063,80.5352943 158.682482,80.4304163 158.933952,80.2737984 C159.061783,80.1982862 159.216158,80.1066927 159.393585,80.0018146 C159.485092,79.9521724 159.582188,79.8990341 159.683474,79.8430992 C159.788952,79.7955545 159.910496,79.7815707 160.029246,79.7403187 C160.514724,79.6039772 161.088217,79.457148 161.744136,79.4186927 C162.071048,79.4082049 162.429393,79.4130992 162.80171,79.5788065 C162.986121,79.6578146 163.168438,79.8158309 163.273217,80.0137008 C163.378695,80.2101724 163.415717,80.4304163 163.403842,80.6219935 C163.398254,80.8359447 163.368915,80.9631967 163.352849,81.1372943 C163.327004,81.3044 163.299063,81.4777984 163.264835,81.6428065 C163.192188,81.9721236 163.104173,82.2944488 162.986121,82.5957984 C162.755607,83.2019935 162.422408,83.7242862 162.088511,84.1172293 C161.941121,84.3325789 161.735754,84.4647252 161.561121,84.5793919 C161.387188,84.6954569 161.23421,84.7884488 161.10568,84.8625626 C160.84932,85.0093919 160.694945,85.0800098 160.694945,85.0800098 C160.694945,85.0800098 160.799026,84.9478634 160.979945,84.7164325 C161.070754,84.6031642 161.178327,84.464026 161.292886,84.3011154 C161.410239,84.1382049 161.516415,83.9424325 161.686857,83.7802211 C161.991415,83.420839 162.288989,82.957278 162.497151,82.4077171 C162.604724,82.134335 162.685754,81.839278 162.752813,81.5351317 C162.783548,81.3820098 162.807298,81.2323837 162.833143,81.0757659 C162.847114,80.9233431 162.88204,80.724774 162.879945,80.6094081 C162.889724,80.3332293 162.79682,80.1535382 162.576783,80.0521561 C162.353952,79.9500748 162.053585,79.9290992 161.768585,79.9430829 C161.190202,79.9759447 160.637665,80.1129854 160.173842,80.2444325 C160.056489,80.2724 159.95171,80.324839 159.842739,80.3465138 C159.730276,80.3604976 159.624099,80.3737821 159.52421,80.3863675 C159.323732,80.4164325 159.149099,80.4423024 159.005901,80.4639772 C158.715313,80.5094244 158.549063,80.5352943 158.549063,80.5352943" id="Fill-11" fill="#784E3D"/>
        <g id="Group-16" transform="translate(55.183824, 2.139512)">
          <path d="M119.365963,7.9722 C119.365963,7.9722 124.570706,10.6333057 127.102875,13.4300537 L126.724971,12.0316797 C126.724971,12.0316797 129.344456,12.9930618 130.62486,14.0418423 C130.62486,14.0418423 129.984309,9.99215122 126.608316,7.31216748 C126.608316,7.31216748 127.568096,7.22476911 128.55861,7.83655772 C128.55861,7.83655772 120.54089,0.0839723577 113.190963,0.058102439 C107.835338,0.0385252033 104.749934,2.03889919 104.051404,2.35912683 C103.352875,2.68005366 100.879382,4.04906179 99.0164044,3.96166341 C97.1534265,3.87426504 92.2637206,2.18433008 87.3160368,4.19449268 C87.3160368,4.19449268 88.9170662,4.39865528 89.3822868,4.86501301 C89.3822868,4.86501301 87.3740147,4.6021187 83.0375441,6.93320813 C83.0375441,6.93320813 85.2784265,6.72904553 85.5697132,7.3702 C85.5697132,7.3702 80.4473971,8.56441138 76.0815882,11.1283301 C76.0815882,11.1283301 77.3040147,10.8367691 78.2931324,10.8955008 C78.1499338,10.8906065 76.1165147,12.3330293 74.5098971,12.8762976 C69.9394191,14.4201024 64.17725,16.3428667 42.3482059,13.4300537 C20.5191618,10.5165415 17.5504118,11.0409317 16.3859632,11.0989642 C15.2222132,11.1569967 13.8279485,11.7394195 12.4280956,12.6141024 C10.3325074,14.0712081 2.35739706,18.2222813 0.727727941,27.3550618 C-2.70694118,51.768574 21.8582426,36.0948992 28.0283529,40.6396146 C42.9887574,53.6913382 57.3086103,53.4585089 57.3086103,53.4585089 C69.5915515,53.3417447 77.6239412,46.466639 84.9585,43.6698911 C92.2930588,40.8731431 99.0457426,38.7748829 108.067949,42.0379886 L110.687434,40.4067854 C110.687434,40.4067854 112.492434,41.7471268 112.667066,42.5043463 C112.667066,42.5043463 114.122801,41.2227366 114.180081,40.0571919 C114.180081,40.0571919 115.111919,40.2900211 115.402507,40.9892081 C115.402507,40.9892081 116.624934,40.0571919 115.926404,38.9503789 C115.926404,38.9503789 118.255301,39.6495659 118.604566,42.2715171 C118.604566,42.2715171 121.224051,39.1832081 121.107397,34.0560699 C121.107397,34.0560699 121.863904,34.4049642 121.980559,35.3957122 C121.980559,35.3957122 122.40736,33.2289317 124.735559,31.0146065 L120.604456,29.4889805 C125.174235,30.2755659 127.248868,33.4149154 127.860081,32.3367691 C129.030118,30.2741675 131.52736,27.4424602 133.186368,25.4322976 C134.845375,23.422135 133.855559,22.7816797 133.855559,22.7816797 L129.315118,18.4697935 C129.315118,15.6730455 127.994199,12.5532732 127.994199,12.5532732" id="Fill-13" fill="#DCB285"/>
          <path d="M119.365963,7.9722 C119.365963,7.9722 124.570706,10.6333057 127.102875,13.4300537 L126.724971,12.0316797 C126.724971,12.0316797 129.344456,12.9930618 130.62486,14.0418423 C130.62486,14.0418423 129.984309,9.99215122 126.608316,7.31216748 C126.608316,7.31216748 127.568096,7.22476911 128.55861,7.83655772 C128.55861,7.83655772 120.54089,0.0839723577 113.190963,0.058102439 C107.835338,0.0385252033 104.749934,2.03889919 104.051404,2.35912683 C103.352875,2.68005366 100.879382,4.04906179 99.0164044,3.96166341 C97.1534265,3.87426504 92.2637206,2.18433008 87.3160368,4.19449268 C87.3160368,4.19449268 88.9170662,4.39865528 89.3822868,4.86501301 C89.3822868,4.86501301 87.3740147,4.6021187 83.0375441,6.93320813 C83.0375441,6.93320813 85.2784265,6.72904553 85.5697132,7.3702 C85.5697132,7.3702 80.4473971,8.56441138 76.0815882,11.1283301 C76.0815882,11.1283301 77.3040147,10.8367691 78.2931324,10.8955008 C78.1499338,10.8906065 76.1165147,12.3330293 74.5098971,12.8762976 C69.9394191,14.4201024 64.17725,16.3428667 42.3482059,13.4300537 C20.5191618,10.5165415 17.5504118,11.0409317 16.3859632,11.0989642 C15.2222132,11.1569967 13.8279485,11.7394195 12.4280956,12.6141024 C10.3325074,14.0712081 2.35739706,18.2222813 0.727727941,27.3550618 C-2.70694118,51.768574 21.8582426,36.0948992 28.0283529,40.6396146 C42.9887574,53.6913382 57.3086103,53.4585089 57.3086103,53.4585089 C69.5915515,53.3417447 77.6239412,46.466639 84.9585,43.6698911 C92.2930588,40.8731431 99.0457426,38.7748829 108.067949,42.0379886 L110.687434,40.4067854 C110.687434,40.4067854 112.492434,41.7471268 112.667066,42.5043463 C112.667066,42.5043463 114.122801,41.2227366 114.180081,40.0571919 C114.180081,40.0571919 115.111919,40.2900211 115.402507,40.9892081 C115.402507,40.9892081 116.624934,40.0571919 115.926404,38.9503789 C115.926404,38.9503789 118.255301,39.6495659 118.604566,42.2715171 C118.604566,42.2715171 121.224051,39.1832081 121.107397,34.0560699 C121.107397,34.0560699 121.863904,34.4049642 121.980559,35.3957122 C121.980559,35.3957122 122.40736,33.2289317 124.735559,31.0146065 L120.604456,29.4889805 C125.174235,30.2755659 127.248868,33.4149154 127.860081,32.3367691 C129.030118,30.2741675 131.52736,27.4424602 133.186368,25.4322976 C134.845375,23.422135 133.855559,22.7816797 133.855559,22.7816797 L129.315118,18.4697935 C129.315118,15.6730455 127.994199,12.5532732 127.994199,12.5532732" id="Stroke-15" stroke="#784E3D" stroke-width="0.525"/>
        </g>
        <path d="M175.738125,31.764974 C175.796801,31.6775756 179.329265,32.5368764 179.783309,33.3136732 C179.783309,33.3136732 177.634632,35.0371691 177.441838,36.4753967 C177.029007,39.5692992 177.17011,36.6376081 176.055956,36.1153154 C176.055956,36.1153154 176.820147,39.9167951 173.774559,44.3279659 C173.774559,44.3279659 172.625478,41.0166163 170.675184,40.899852 C170.675184,40.899852 172.089007,41.7262911 170.467721,43.2596081 C170.467721,43.2596081 170.245588,41.9269577 169.256471,42.1891528 C169.256471,42.1891528 168.634081,43.7993805 167.789559,44.7313967 C167.789559,44.7313967 166.527316,42.6590065 165.811324,42.6338358 L163.191838,44.265039 C163.191838,44.265039 157.337463,42.1891528 152.787243,42.6464211 C152.787243,42.6464211 160.048456,32.3096407 158.15614,25.2884049 L157.271801,27.670535 C157.271801,27.670535 157.556103,22.9615106 155.984412,19.9242423 L155.383676,21.7819821 C155.383676,21.7819821 155.311728,18.1217382 153.419412,16.0241772 C153.419412,16.0241772 153.457831,18.0287463 153.244779,18.7880634 C153.244779,18.7880634 152.338787,15.8388927 151.902206,15.1501935 C151.465625,14.4621935 150.679779,13.402226 150.123051,12.9764211 L149.817794,13.5882098 C149.817794,13.5882098 147.852831,10.4635431 143.934779,11.1522423 C139.5075,11.9297382 134.224522,14.6565675 132.026949,15.0851691 C129.560441,15.5655106 129.014191,15.4669252 129.014191,15.4669252 C129.014191,15.4669252 132.714301,13.6756081 133.292684,13.2386163 C133.292684,13.2386163 132.626985,12.9323724 132.114265,12.9764211 C132.114265,12.9764211 138.204743,9.82658374 140.692904,9.59655122 C140.62864,9.60354309 140.04886,9.0868439 138.695809,8.93442114 C138.695809,8.93442114 142.04875,6.8669252 144.460772,7.05290894 C144.460772,7.05290894 143.869118,6.62920163 142.963125,6.35581951 C142.90864,6.35581951 146.391507,5.2063561 148.923676,5.47903902 C151.455846,5.75242114 154.292574,6.63968943 155.984412,5.99573821 C157.67625,5.3510878 164.825,1.09024228 170.925956,2.6962748 C177.02761,4.30230732 183.277353,9.6888439 183.277353,9.6888439 C183.277353,9.6888439 182.059118,9.40777073 181.731507,9.5385187 C181.731507,9.5385187 185.420441,12.8778358 185.649559,16.0899008 C185.649559,16.0899008 182.113603,14.254535 181.764338,14.1888114 L182.198125,15.5529252 C182.198125,15.5529252 178.697096,12.5170553 174.473088,10.0153642 C174.424191,9.98599837 174.451434,8.9365187 174.125221,8.80297398 C173.365919,8.49253496 171.977941,9.02741301 170.527794,8.55336423 C169.975257,8.3722748 168.496471,6.22017724 167.957206,6.07194959 C167.451471,5.93281138 167.46614,7.63533171 167.019081,7.60107154 C164.704853,7.4262748 164.06011,7.75699024 168.062684,11.0648439 C175.444743,16.6031041 175.330184,20.457722 175.613787,21.4407789 C175.613787,21.4407789 174.156654,20.4926813 173.436471,21.2247301 C173.436471,21.2247301 176.874632,25.0590715 175.950478,30.044974 C175.950478,30.044974 174.790221,29.057722 174.53875,28.9374618 L175.738125,31.764974" id="Fill-17" fill="#AC612A"/>
        <path d="M174.489783,10.1991106 C174.489783,10.1991106 179.694526,12.8602163 182.226695,15.6569642 L181.847393,14.2585902 C181.847393,14.2585902 184.466879,15.2199724 185.747982,16.2687528 C185.747982,16.2687528 185.108129,12.2190618 181.731438,9.53907805 C181.731438,9.53907805 182.691915,9.45167967 183.681033,10.0634683 C183.681033,10.0634683 175.663313,2.31088293 168.314085,2.28501301 C162.95846,2.26543577 159.873754,4.26580976 159.175224,4.5860374 C158.476695,4.90696423 156.001805,6.27597236 154.139526,6.18857398 C152.277246,6.10117561 147.386842,4.41124065 142.439158,6.42140325 C142.439158,6.42140325 144.040188,6.62556585 144.506107,7.09192358 C144.506107,7.09192358 142.497835,6.82902927 138.160665,9.1601187 C138.160665,9.1601187 140.402246,8.9559561 140.692835,9.59711057 C140.692835,9.59711057 135.56982,10.791322 131.204011,13.3552407 C131.204011,13.3552407 132.426438,13.0636797 133.416952,13.1224114 C133.272357,13.1175171 131.239636,14.5599398 129.63232,15.1032081 C125.063239,16.647013 119.300371,18.5697772 97.4713272,15.6569642 C75.6422831,12.743452 72.6735331,13.2678423 71.5097831,13.3258748 C70.3453346,13.3839073 68.9503713,13.9663301 67.5512169,14.841013 C65.4556287,16.2981187 57.4805184,20.4491919 55.8501507,29.5819724 C54.087761,51.7811593 76.981364,38.3218098 83.1514743,42.8665252 C98.1111801,55.9182488 112.431732,55.6854195 112.431732,55.6854195 C124.713974,55.5686553 132.747062,48.6935496 140.081621,45.8968016 C147.41618,43.1000537 154.168864,41.0017935 163.191768,44.2648992 L165.811254,42.6336959 C165.811254,42.6336959 167.614857,43.9740374 167.789489,44.7312569 C167.789489,44.7312569 169.245224,43.4496472 169.303901,42.2841024 C169.303901,42.2841024 170.23504,42.5169317 170.526327,43.2161187 C170.526327,43.2161187 171.748754,42.2841024 171.050224,41.1772894 C171.050224,41.1772894 173.377724,41.8764764 173.726989,44.4984276 C173.726989,44.4984276 176.346474,41.4101187 176.230518,36.2829805 C176.230518,36.2829805 176.987724,36.6318748 177.10368,37.6226228 C177.10368,37.6226228 177.53118,35.4558423 179.859379,33.2415171 L175.728276,31.7158911 C180.297357,32.5024764 182.37129,35.641826 182.983202,34.5636797 C184.153239,32.501078 186.650482,29.6693707 188.309489,27.6592081 C189.968496,25.6490455 188.97868,25.0085902 188.97868,25.0085902 L184.438239,20.6967041 C184.438239,17.8999561 183.11732,14.7801837 183.11732,14.7801837" id="Stroke-19" stroke="#784E3D" stroke-width="0.525"/>
        <path d="M167.789629,10.9952049 C168.824849,11.4643593 169.785327,12.0908309 170.708085,12.7711398 C171.177496,13.1032537 171.566577,13.5297577 171.975217,13.9303919 C172.376173,14.3401154 172.756871,14.7708146 173.11382,15.2210911 C173.829114,16.1195463 174.454298,17.0963106 174.939776,18.1429935 C175.435732,19.1847821 175.771724,20.3020829 175.965217,21.4410585 L176.046246,21.9200016 L175.592202,21.7186358 C174.960732,21.438961 174.178379,21.2250098 173.589518,21.4361642 L173.685915,21.0131561 C173.970217,21.3333837 174.204923,21.6557089 174.433342,21.9955138 C174.65757,22.3353187 174.863636,22.6863106 175.052937,23.0456927 C175.24154,23.405774 175.40779,23.7770423 175.563562,24.1532049 L175.771724,24.7265382 C175.846467,24.9160179 175.889776,25.1159854 175.949849,25.3103593 C176.008526,25.5054325 176.060915,25.7019041 176.098636,25.9025707 C176.137754,26.101839 176.186651,26.3004081 176.218085,26.5010748 C176.269077,26.9052049 176.335437,27.3086358 176.341026,27.716961 C176.346614,27.9204244 176.371062,28.1238878 176.359187,28.3273512 L176.335437,28.9384407 C176.321467,29.3460667 176.241835,29.7474 176.197827,30.1515301 L176.128673,30.7780016 L175.731908,30.2661967 C175.586614,30.0781154 175.397312,29.8998228 175.217092,29.736213 C175.120695,29.6627984 175.034077,29.5733024 174.936982,29.5068797 C174.843379,29.4278715 174.742092,29.3817252 174.642901,29.3222943 L174.906945,29.0062618 C175.245732,29.6970585 175.51746,30.3997415 175.699776,31.1373837 C175.788489,31.5044569 175.861136,31.8792211 175.86882,32.2588797 C175.879996,32.446961 175.867423,32.6385382 175.843673,32.824522 C175.822717,33.0126033 175.767533,33.1929935 175.706761,33.3691886 C175.747974,33.1860016 175.782202,33.0049122 175.782901,32.8196276 C175.785695,32.6357415 175.778011,32.4511561 175.746577,32.2693675 C175.695585,31.9057902 175.598489,31.5492049 175.477643,31.2031073 C175.238048,30.5109122 174.903452,29.8417902 174.526945,29.2258065 L174.190952,28.674148 L174.792386,28.909774 C174.931393,28.9636114 175.079482,29.014652 175.200327,29.0915626 C175.334445,29.1586846 175.447607,29.2446846 175.560768,29.3334813 C175.779408,29.5187659 175.961026,29.7215301 176.147533,29.9466683 L175.682312,30.061335 C175.722827,29.6753837 175.799665,29.2929285 175.812239,28.9055789 L175.83529,28.3238553 C175.847165,28.1301805 175.822717,27.9365057 175.817827,27.7428309 C175.813636,27.3547821 175.748673,26.9716276 175.701173,26.5863756 C175.671136,26.3947984 175.623636,26.2067171 175.586614,26.0165382 C175.550989,25.824961 175.502092,25.6375789 175.444812,25.4522943 C175.387533,25.2670098 175.347018,25.0761317 175.275768,24.8950423 L175.076687,24.3475789 C174.927901,23.9881967 174.769335,23.6337089 174.589114,23.2890098 C174.408195,22.9457089 174.21121,22.6100992 173.99746,22.2863756 C173.783011,21.9668472 173.546908,21.6459203 173.30382,21.3711398 L173.043967,21.0774813 L173.400217,20.9474325 C173.831908,20.7894163 174.26779,20.8089935 174.668048,20.878213 C175.072496,20.9537252 175.444114,21.0746846 175.82132,21.2473837 L175.448305,21.524961 C175.261798,20.4349285 174.941871,19.3658715 174.465474,18.365335 C173.998857,17.3599041 173.396724,16.4174 172.703783,15.5476114 C172.35871,15.1120179 171.990585,14.6946033 171.600107,14.2960667 C171.219408,13.8877415 170.782827,13.5402455 170.394445,13.1368146 C169.596026,12.353026 168.724261,11.6363593 167.789629,10.9952049" id="Fill-21" fill="#784E3D"/>
        <path d="M85.9020037,85.0800098 L73.3284743,85.0800098 C66.8014154,72.0849203 67.1562684,73.6629854 64.4222243,68.7365138 C63.3304228,66.7704 60.3616728,62.7934244 60.5363051,60.4336683 C60.7109375,58.0739122 62.4970772,52.2035382 56.9528493,39.4874244 C51.4079228,26.7706114 74.2889522,17.1274244 79.1346507,19.836774 C83.9810478,22.5461236 93.5858272,33.1213268 88.8707537,41.8178146 C84.1556801,50.5136033 78.8727022,55.4079122 76.5591728,57.549522 C74.2456434,59.6904325 71.921636,62.3221724 71.4075184,63.8862537 C70.922739,65.3594407 71.0827022,65.3342699 76.1659007,76.383522 C77.3883272,79.0054732 77.0830699,78.6558797 78.4361213,78.5251317 C79.7898713,78.3936846 84.590864,77.9007577 84.590864,77.9007577 C84.590864,77.9007577 88.4341728,77.1267577 88.2162316,79.8361073 C88.0248346,82.2028553 87.1244301,84.075278 85.9020037,85.0800098" id="Fill-23" fill="#DCB285"/>
        <path d="M85.9020037,85.0800098 L73.3284743,85.0800098 C66.8014154,72.0849203 67.1562684,73.6629854 64.4222243,68.7365138 C63.3304228,66.7704 60.3616728,62.7934244 60.5363051,60.4336683 C60.7109375,58.0739122 62.4970772,52.2035382 56.9528493,39.4874244 C54.5268566,33.9239935 64.096011,25.3274894 72.0159375,25.6630992 C82.1984007,26.0937984 94.4848346,28.8975382 88.8707537,41.8178146 C84.9275551,50.8911642 78.8727022,55.4079122 76.5591728,57.549522 C74.2456434,59.6904325 71.921636,62.3221724 71.4075184,63.8862537 C70.922739,65.3594407 71.0827022,65.3342699 76.1659007,76.383522 C77.3883272,79.0054732 77.0830699,78.6558797 78.4361213,78.5251317 C79.7898713,78.3936846 84.590864,77.9007577 84.590864,77.9007577 C84.590864,77.9007577 88.4341728,77.1267577 88.2162316,79.8361073 C88.0248346,82.2028553 87.1244301,84.075278 85.9020037,85.0800098 Z" id="Stroke-25" stroke="#784E3D" stroke-width="0.525"/>
        <path d="M81.7981434,80.7537902 C81.7981434,80.7537902 81.9140993,80.6594 82.132739,80.5167659 C82.2424081,80.446148 82.3772243,80.3622455 82.537886,80.2762455 C82.619614,80.2342943 82.7055331,80.1895463 82.7970404,80.1420016 C82.8885478,80.0944569 82.999614,80.0972537 83.1057904,80.0636927 C83.3223346,80.0133512 83.559136,79.9644081 83.8175919,79.9364407 C84.0725551,79.9021805 84.3491728,79.8854 84.6411581,79.907774 C84.9317463,79.9210585 85.2425919,79.9923756 85.5415625,80.1329122 C85.8335478,80.2916276 86.1080699,80.5475301 86.2372978,80.8677577 C86.2596507,80.9187984 86.2708272,80.9153024 86.3001654,81.0110911 L86.324614,81.1159691 L86.3756066,81.325026 C86.4203125,81.4515789 86.4070404,81.6417577 86.4140257,81.8018715 C86.4259007,81.9745707 86.3993566,82.1234976 86.3707169,82.2703268 C86.3441728,82.4185545 86.324614,82.5681805 86.2715257,82.701026 C86.2261213,82.8366683 86.1814154,82.970213 86.1374081,83.100961 C86.0794301,83.2240179 86.0221507,83.344278 85.9662684,83.4617415 C85.8635846,83.7022618 85.720386,83.897335 85.6086213,84.0917089 C85.5129228,84.2986683 85.3424816,84.4280179 85.2048713,84.5489772 C85.0721507,84.6734325 84.9415257,84.7664244 84.8381434,84.8447333 C84.6285846,84.9999528 84.5049449,85.0796602 84.5049449,85.0796602 C84.5049449,85.0796602 84.5692096,84.9426195 84.6893566,84.7174813 C84.7494301,84.6056114 84.8255699,84.4741642 84.8926287,84.3098553 C84.9275551,84.2308472 84.9645772,84.1455463 85.0043934,84.0560504 C85.0414154,83.9658553 85.1245404,83.9022293 85.1678493,83.807839 C85.2705331,83.6288472 85.4067463,83.4456602 85.4968566,83.2296114 C85.5471507,83.123335 85.5988419,83.0142618 85.6526287,82.9037902 C85.6903493,82.7884244 85.7301654,82.670961 85.7699816,82.5514 C85.8188787,82.4332374 85.8307537,82.3087821 85.8545037,82.1836276 C85.8796507,82.057774 85.9020037,81.9312211 85.8908272,81.818652 C85.8817463,81.6983919 85.9159743,81.5970098 85.8649816,81.4480829 L85.8160846,81.239026 L85.7909375,81.134148 C85.8000184,81.1614163 85.7692831,81.0984894 85.7602022,81.0852049 C85.672886,80.8656602 85.5010478,80.7146358 85.303364,80.5999691 C85.0903125,80.5034813 84.852114,80.4405545 84.6048346,80.4307659 C84.3603493,80.4118878 84.1130699,80.4251724 83.879761,80.4566358 C83.6471507,80.4811073 83.4257169,80.5279528 83.2238419,80.5747984 C83.1204596,80.5915789 83.0303493,80.637026 82.9332537,80.6461154 C82.8354596,80.6524081 82.7439522,80.6587008 82.656636,80.6649935 C82.4806066,80.681774 82.3276287,80.6964569 82.2004963,80.7090423 C81.9448346,80.7377089 81.7981434,80.7537902 81.7981434,80.7537902" id="Fill-27" fill="#784E3D"/>
        <path d="M147.765515,11.6653756 C148.162279,11.9198797 148.540882,12.2023512 148.906213,12.5037008 C149.08364,12.6610179 149.265956,12.8127415 149.429412,12.9875382 C149.603346,13.151148 149.74864,13.3434244 149.90511,13.5266114 L149.722096,13.5405951 L149.992426,12.9113268 L150.065772,12.740026 L150.21875,12.8658797 C150.69375,13.259522 151.103787,13.6993106 151.487279,14.1726602 C151.683566,14.4047902 151.851912,14.6599935 152.004191,14.9221886 C152.151581,15.1871805 152.305956,15.4493756 152.436581,15.7234569 C152.704118,16.2681236 152.936029,16.8323675 153.105074,17.4168878 C153.199375,17.7063512 153.26364,18.0035057 153.330699,18.299961 C153.399154,18.5964163 153.431287,18.8998634 153.482978,19.1991154 L152.988419,19.115213 C153.026838,19.0264163 153.071544,18.9082537 153.104375,18.7984813 C153.143493,18.6880098 153.166544,18.5698472 153.196581,18.4551805 C153.246176,18.2223512 153.291581,17.9867252 153.30625,17.7469041 C153.336287,17.5084813 153.328603,17.2672618 153.329301,17.0267415 C153.32511,16.7862211 153.286691,16.5464 153.269228,16.3065789 L153.203566,15.4360911 L153.729559,16.1010179 C153.837831,16.2373593 153.911875,16.3569203 153.994301,16.4876683 C154.07114,16.6170179 154.147279,16.7463675 154.21364,16.879213 C154.354044,17.1421073 154.472096,17.4133919 154.583162,17.686774 C154.8025,18.2356358 154.968051,18.801278 155.102169,19.3718146 C155.237684,19.9430504 155.323603,20.5226764 155.390662,21.1030016 C155.454926,21.684026 155.481471,22.267148 155.493346,22.8495707 L154.978529,22.7810504 L155.764375,19.9843024 L155.969044,19.257148 L156.25614,19.9493431 C156.546029,20.6471317 156.752794,21.3421236 156.928125,22.0573919 C157.099963,22.7705626 157.234081,23.4928228 157.315809,24.2213756 C157.398934,24.9499285 157.446434,25.6833756 157.435956,26.417522 C157.441544,26.7852943 157.412206,27.1509691 157.39614,27.5180423 C157.384963,27.8851154 157.301838,28.2465951 157.24386,28.6080748 L156.814963,28.4857171 C157.072721,27.9871967 157.322096,27.4781886 157.554007,26.9656846 C157.777537,26.4489854 158.02761,25.939278 158.15614,25.3869203 C158.131691,25.6693919 158.076507,25.950465 158.010147,26.2280423 C157.938199,26.503522 157.862059,26.7790016 157.775441,27.049587 C157.607794,27.5942537 157.423382,28.1312293 157.227096,28.6682049 L156.757684,29.9477171 L156.798199,28.5458472 C156.818456,27.8305789 156.923235,27.1271967 156.912059,26.414026 C156.922537,25.7022537 156.876434,24.9904813 156.794706,24.2829041 C156.715772,23.5753268 156.586544,22.8733431 156.419596,22.1818472 C156.25125,21.4938472 156.043088,20.7995545 155.778346,20.1625951 L156.269412,20.1269366 L155.483566,22.9236846 L155.005074,24.6241073 L154.969449,22.854465 C154.957574,22.2881236 154.931728,21.7217821 154.870257,21.1596358 C154.805294,20.5974894 154.722169,20.0381398 154.591544,19.4899772 C154.463015,18.9418146 154.304449,18.4013431 154.096985,17.8818472 C153.990809,17.623148 153.880441,17.3665463 153.749118,17.1225301 C153.625478,16.8799122 153.475294,16.6296033 153.327206,16.4359285 L153.787537,16.2310667 C153.808493,16.490465 153.84761,16.7498634 153.8525,17.0113593 C153.853199,17.2728553 153.860184,17.5343512 153.827353,17.795148 C153.810588,18.0566439 153.761691,18.3160423 153.707206,18.5733431 C153.673676,18.7012943 153.648529,18.8306439 153.603125,18.9578959 C153.56261,19.0872455 153.521397,19.2061073 153.457132,19.3459447 L153.110662,20.1122537 L152.962574,19.2620423 C152.912978,18.9774732 152.882941,18.6887089 152.817279,18.4076358 C152.753713,18.1258634 152.69364,17.8426927 152.603529,17.5679122 C152.443566,17.0120585 152.222132,16.4750829 151.967868,15.9562862 C151.724779,15.4290992 151.388088,14.957148 151.086324,14.4621236 C150.777574,13.9740911 150.423419,13.4986439 150.027353,13.0868228 L150.253676,13.0413756 L149.912794,13.6356846 L149.828971,13.7818146 L149.730478,13.6489691 C149.592169,13.4650829 149.466434,13.2714081 149.306471,13.1008065 C149.158382,12.9211154 148.993529,12.7561073 148.830074,12.5876033 C148.494081,12.2610829 148.140625,11.9506439 147.765515,11.6653756" id="Fill-29" fill="#784E3D"/>
        <path d="M168.280765,4.7363626 C168.597897,3.15829756 169.653375,0.740508943 171.399699,0.959354472 C172.442603,1.08940325 173.960507,2.19761463 174.124662,6.68359837 C174.246206,10.0019398 173.465949,11.2017447 170.64389,11.1933545 C169.52275,11.1898585 167.385949,9.19367967 168.280765,4.7363626" id="Fill-31" fill="#BB8E5D"/>
        <path d="M182.844824,20.9733024 L180.050706,20.4489122 L177.693169,16.7565057 L181.791441,17.9360341 C181.791441,17.9360341 182.786147,20.1286846 182.844824,20.9733024" id="Fill-33" fill="#FBF3ED"/>
        <path d="M186.970478,27.2222862 C186.970478,27.2222862 185.922684,26.3923512 186.141324,24.783522 C186.325735,23.4201073 186.948824,22.8523675 189.051397,25.0736846 C189.803713,25.867961 188.850221,27.0125301 188.450662,27.4914732 C188.051103,27.9704163 187.625,27.7026276 186.970478,27.2222862" id="Fill-35" fill="#311A14"/>
        <path d="M182.844824,20.9733024 L182.211956,18.2639528 C182.211956,18.2639528 182.246184,18.0073512 180.792544,17.5647659 C179.286515,17.1060992 177.693169,16.7565057 177.693169,16.7565057 L180.050706,20.4489122 L182.844824,20.9733024 Z" id="Stroke-37" stroke="#311A14" stroke-width="0.5"/>
        <path d="M181.120294,20.5254033 C181.120294,20.5254033 180.40011,20.0450618 180.553088,18.9305577 C180.627831,18.3837935 181.221581,17.7859886 181.791581,17.9356146 C182.49989,18.1215984 182.844963,20.9735821 182.844963,20.9735821 L180.631324,20.5575659" id="Fill-39" fill="#311A14"/>
        <path d="M177.860956,26.202522 C177.860956,26.202522 177.867941,26.3703268 177.955257,26.6332211 C177.995772,26.7646683 178.064228,26.9170911 178.147353,27.0827984 C178.231176,27.2513024 178.370882,27.4107171 178.453309,27.619774 C178.558787,27.8169447 178.691507,28.0253024 178.859853,28.2266683 C179.019118,28.4329285 179.214007,28.6349935 179.427757,28.8293675 C179.85386,29.2286033 180.363088,29.5740016 180.912831,29.9117089 C181.457684,30.2515138 182.001838,30.5892211 182.520147,30.8807821 C183.037059,31.1702455 183.533713,31.4135626 183.954926,31.5156439 C184.056912,31.5380179 184.158897,31.5513024 184.24761,31.5520016 C184.337022,31.5743756 184.422941,31.5918553 184.505368,31.5918553 C184.670221,31.5995463 184.821103,31.5547984 184.943346,31.4995626 C185.062096,31.4394325 185.160588,31.3862943 185.220662,31.3387496 C185.284926,31.2954 185.319154,31.2716276 185.319154,31.2716276 C185.307978,31.2646358 185.267463,31.4317415 185.06489,31.6624732 C184.962206,31.7743431 184.810625,31.9064894 184.591287,31.9931886 C184.481618,32.0372374 184.359375,32.0742943 184.22875,32.0833837 C184.097426,32.0854813 183.970294,32.0477252 183.838272,32.0267496 C183.317868,31.8987984 182.798162,31.6359041 182.264485,31.3380504 C181.731507,31.0387984 181.181765,30.6968959 180.635515,30.3563919 C180.089265,30.0214813 179.528346,29.6432211 179.072206,29.2153187 C178.840993,29.0048634 178.629338,28.7839203 178.450515,28.5538878 C178.264706,28.330148 178.113125,28.0959203 177.991581,27.8686846 C177.837904,27.6568309 177.817647,27.4002293 177.778529,27.1967659 C177.750588,26.9870098 177.750588,26.8031236 177.762463,26.6541967 C177.789706,26.3549447 177.860956,26.202522 177.860956,26.202522" id="Fill-41" fill="#23110A"/>
        <g id="Group-45" transform="translate(165.551471, 0.041951)">
          <mask id="mask-2" fill="white">
            <use xlink:href="#path-1"/>
          </mask>
          <g id="Clip-44"/>
          <path d="M9.06376838,11.6234244 C9.06376838,11.6234244 8.9953125,11.289213 8.8765625,10.7053919 C8.82207721,10.4131317 8.75571691,10.0572455 8.67887868,9.64961951 C8.64045956,9.4461561 8.59924632,9.22940813 8.5559375,9.00077398 C8.51542279,8.77144065 8.51821691,8.52532683 8.48678309,8.27222114 C8.39178309,7.25700163 8.28071691,6.07327805 8.16196691,4.80425366 C8.08582721,4.18757073 7.96428309,3.54781463 7.74634191,2.95000976 C7.52770221,2.35779837 7.19170956,1.78586341 6.68527574,1.46843252 C6.43310662,1.3139122 6.15020221,1.20833496 5.84773897,1.19505041 C5.78068015,1.19225366 5.67869485,1.17687154 5.64097426,1.18176585 L5.38880515,1.20413984 C5.21766544,1.22161951 5.11847426,1.26846504 4.97597426,1.31041626 C4.43042279,1.53205854 4.00641544,2.00331057 3.70185662,2.52420488 C3.38821691,3.04370081 3.17237132,3.60794472 2.98935662,4.15121301 C2.89854779,4.43018862 2.80983456,4.70077398 2.72461397,4.96296911 C2.63590074,5.22026992 2.56954044,5.45939187 2.50248162,5.70690407 C2.39211397,6.20053008 2.23913603,6.6508065 2.04913603,7.04374959 C1.95204044,7.23952195 1.86193015,7.42830244 1.68659926,7.58352195 C1.61534926,7.67022114 1.43023897,7.70168455 1.37295956,7.68979837 C1.29123162,7.69119675 1.21229779,7.69259512 1.13685662,7.6939935 C0.820422794,7.66253008 0.584319853,7.59750569 0.434136029,7.5485626 C0.280459559,7.50521301 0.200827206,7.47235122 0.200827206,7.47235122 C0.200827206,7.47235122 0.286047794,7.48773333 0.4453125,7.49682276 C0.605974265,7.51430244 0.835091912,7.51570081 1.1103125,7.5003187 C1.24792279,7.45696911 1.45748162,7.46675772 1.4903125,7.37516423 C1.56924632,7.27518049 1.63141544,7.09479024 1.68170956,6.90670894 C1.7753125,6.52145691 1.84097426,6.06069268 1.99674632,5.5705626 C2.06240809,5.32654634 2.13854779,5.05316423 2.23005515,4.79166829 C2.31457721,4.53087154 2.40189338,4.26168455 2.49270221,3.98410732 C2.68270221,3.42335935 2.90693015,2.82765203 3.25340074,2.2543187 C3.58799632,1.68518049 4.07696691,1.11184715 4.78387868,0.823082927 C4.95641544,0.762253659 5.17924632,0.695131707 5.34200368,0.681847154 L5.59347426,0.659473171 C5.72409926,0.65038374 5.79045956,0.669261789 5.89244485,0.672757724 C6.26685662,0.690237398 6.64266544,0.824481301 6.96538603,1.02514797 C7.62130515,1.44186341 7.99571691,2.12077398 8.23810662,2.76822114 C8.47770221,3.42895285 8.60134191,4.09318049 8.68167279,4.73922927 C8.80042279,6.00755447 8.91148897,7.19197724 9.00648897,8.20719675 C9.02325368,8.46170081 9.07215074,8.70152195 9.07354779,8.93574959 C9.07424632,9.16927805 9.07494485,9.39161951 9.07494485,9.59997724 C9.07494485,10.0173919 9.07634191,10.3809691 9.07634191,10.6802211 C9.06795956,11.2808228 9.06376838,11.6234244 9.06376838,11.6234244" id="Fill-43" fill="#784E3D" mask="url(#mask-2)"/>
        </g>
        <path d="M168.639599,3.1928374 C168.639599,3.1928374 166.233165,10.995065 171.253496,11.2719431 C174.270445,11.4383496 174.199195,6.94817073 174.086033,5.7728374" id="Stroke-46" stroke="#784E3D" stroke-width="0.525"/>
        <g id="Group-51" transform="translate(0.000000, 23.814309)">
          <path d="M56.9526397,2.03316585 C56.9526397,2.03316585 42.1563897,20.7126455 24.9544044,20.4511496 C6.70602206,19.3142715 4.39249265,6.07376748 4.13054412,4.28175122 C3.86859559,2.49043415 3.69396324,0.480271545 2.12227206,0.655068293 C0.550580882,0.829865041 -1.37526471,6.91279187 2.68528676,13.7732146 C6.74513971,20.6343366 17.4026029,25.3811171 24.9991103,25.3447593 C33.8613529,25.2140114 45.4667206,22.5046618 56.9526397,12.2350033" id="Fill-48" fill="#DCB285"/>
          <path d="M56.9526397,2.03316585 C56.9526397,2.03316585 42.1563897,20.7126455 24.9544044,20.4511496 C6.70602206,19.3142715 4.39249265,6.07376748 4.13054412,4.28175122 C3.86859559,2.49043415 3.69396324,0.480271545 2.12227206,0.655068293 C0.550580882,0.829865041 -1.37526471,6.91279187 2.68528676,13.7732146 C6.74513971,20.6343366 17.4026029,25.3811171 24.9991103,25.3447593 C33.8613529,25.2140114 45.4667206,22.5046618 56.9526397,12.2350033" id="Stroke-50" stroke="#784E3D" stroke-width="0.525"/>
        </g>
        <g id="Group-55" transform="translate(119.448529, 37.098862)">
          <path d="M12.4322868,0.0431398374 C11.6548235,6.68541626 2.77092647,13.545839 2.77092647,13.545839 C3.63640441,17.9157577 2.30500735,24.9754488 1.40111029,34.0411073 C0.956845588,38.4935301 0.167507353,42.830587 0.0264044118,44.4415138 C-0.205507353,47.0816439 2.55857353,47.9814976 2.55857353,47.9814976 L12.9876176,47.9814976 C16.0925809,47.9814976 18.5283529,44.9540179 18.0575441,42.1258065 C17.7955956,40.5526358 17.3646029,40.4246846 13.6477279,41.0329772 C9.10728676,41.776213 8.66791176,40.0708959 8.58338971,39.5038553 C8.62460294,38.1760992 9.42721324,34.4927821 14.4461471,23.072961 C19.4643824,11.6524407 30.4019559,0.815042276 30.4019559,0.815042276" id="Fill-52" fill="#DCB285"/>
          <path d="M12.4322868,0.0431398374 C11.6548235,6.68541626 2.77092647,13.545839 2.77092647,13.545839 C3.63640441,17.9157577 2.30500735,24.9754488 1.40111029,34.0411073 C0.956845588,38.4935301 0.167507353,42.830587 0.0264044118,44.4415138 C-0.205507353,47.0816439 2.55857353,47.9814976 2.55857353,47.9814976 L12.9876176,47.9814976 C16.0925809,47.9814976 18.5283529,44.9540179 18.0575441,42.1258065 C17.7955956,40.5526358 17.3646029,40.4246846 13.6477279,41.0329772 C9.10728676,41.776213 8.66791176,40.0708959 8.58338971,39.5038553 C8.62460294,38.1760992 9.42721324,34.4927821 14.4461471,23.072961 C19.4643824,11.6524407 30.4019559,0.815042276 30.4019559,0.815042276" id="Stroke-54" stroke="#784E3D" stroke-width="0.525"/>
        </g>
        <path d="M132.834449,79.6763431 C132.834449,79.6763431 132.969265,79.5875463 133.222132,79.4595951 C133.347169,79.3952699 133.502941,79.3211561 133.68875,79.249839 C133.871066,79.1687333 134.08761,79.0960179 134.336287,79.0960179 C134.581471,79.0729447 134.853897,79.0659528 135.152169,79.1072049 C135.442059,79.1589447 135.808787,79.2547333 136.055368,79.5945382 C136.309632,79.9511236 136.232096,80.3447659 136.178309,80.6810748 C136.097279,80.9817252 136.042096,81.2788797 135.936618,81.5900179 C135.844412,81.9011561 135.737537,82.2080992 135.597831,82.4996602 C135.486765,82.8017089 135.286287,83.0611073 135.134007,83.3295951 C134.92864,83.5603268 134.761691,83.8183268 134.542353,83.9966195 C134.328603,84.1777089 134.142794,84.3776764 133.933235,84.5007333 C133.744632,84.6552537 133.535772,84.7468472 133.349265,84.8139691 C133.160662,84.8720016 132.99511,84.9223431 132.860294,84.9635951 C132.589963,85.0440016 132.436287,85.0803593 132.436287,85.0803593 C132.436287,85.0803593 132.556434,84.9691886 132.768088,84.7908959 C132.874265,84.7034976 133.001397,84.5979203 133.148088,84.4762618 C133.282206,84.338522 133.425404,84.1833024 133.625882,84.0763268 C133.822868,83.9616602 133.984228,83.7819691 134.179816,83.6183593 C134.380294,83.4575463 134.520699,83.228213 134.707904,83.0254488 C134.839926,82.7828309 135.021544,82.5604894 135.122132,82.2808146 C135.249265,82.016522 135.347757,81.7333512 135.433676,81.4452862 C135.530074,81.164213 135.591544,80.8453837 135.671176,80.5517252 C135.710294,80.3007171 135.746618,80.0294325 135.625074,79.8937902 C135.523088,79.7448634 135.301654,79.6637577 135.074632,79.6253024 C134.841324,79.593839 134.602426,79.5966358 134.38239,79.6183106 C134.271324,79.6169122 134.167941,79.6616602 134.065257,79.6553675 C133.959779,79.6469772 133.860588,79.6504732 133.766287,79.6476764 C133.575588,79.6511724 133.409338,79.6539691 133.272426,79.6567659 C132.994412,79.6693512 132.834449,79.6763431 132.834449,79.6763431" id="Fill-56" fill="#784E3D"/>
        <path d="M57.3468897,39.3706602 C57.3468897,39.3706602 54.3334338,36.2306114 56.0923309,33.0667902 C57.8519265,29.9036683 69.5264485,24.4584 69.5264485,24.4584 L89.3129926,23.0565301 L96.5804926,28.0829854 C96.5804926,28.0829854 91.6907868,34.6951967 87.1503456,37.141652 C82.6099044,39.5888065 57.3468897,39.3706602 57.3468897,39.3706602" id="Fill-58" fill="#DCB285"/>
      </g>
    </g>
  </g>
</svg>