<svg width="208px" height="93px" viewBox="0 0 208 93" version="1.1" xml:space="preserve" xmlns="http://www.w3.org/2000/svg" xmlns:xlink="http://www.w3.org/1999/xlink">
  <defs/>
  <g>
    <title>polar bear-b</title>
    <desc>Created with Sketch.</desc>
    <g id="polar-bear-b" stroke="none" stroke-width="1" fill="none" fill-rule="evenodd">
      <g id="Group" transform="translate(16.000000, 1.000000)">
        <path d="M35.6857682,90.7795 L12.876057,90.7795 L18.6301199,42.3995 C18.6301199,42.3995 51.3828601,48.532 51.7167341,48.176 C52.0511094,47.8205 51.9673903,53.951 51.9673903,53.951 C51.9673903,53.951 40.7826108,82.696 30.3382696,87.196 C30.3382696,87.196 32.8448312,87.7795 35.6857682,90.7795" id="Fill-1" fill="#E2DDC9"/>
        <path d="M32.1298094,90.7795 C32.1298094,90.7795 31.9884394,88.8105 31.3778409,87.7485 C32.1764315,87.3595 35.6856178,90.7795 35.6856178,90.7795 L32.1298094,90.7795 Z" id="Fill-3" fill="#4D4F68"/>
        <path d="M35.6857682,90.7795 L12.876057,90.7795 L18.6301199,42.3995 C18.6301199,42.3995 57.8272302,48.158 58.1611042,47.802 C58.4954795,47.446 50.7141094,56.863 50.7141094,56.863 C50.7141094,56.863 40.7826108,82.696 30.3382696,87.196 C30.3382696,87.196 32.8448312,87.7795 35.6857682,90.7795 Z" id="Stroke-5" stroke="#7593B1" stroke-width="0.5"/>
        <path d="M30.8398325,87.35935 C30.8398325,87.35935 32.2600504,88.44585 32.0931134,90.77935" id="Stroke-7" stroke="#7593B1" stroke-width="0.5"/>
        <path d="M129.465665,85.62225 L108.660702,79.38975 L112.584474,68.48775 L106.401789,61.82125 L130.475308,60.26775 L133.806529,65.82125 L126.546022,81.70225 C126.546022,81.70225 128.962849,82.94775 129.465665,85.62225" id="Fill-9" fill="#E2DDC9"/>
        <path d="M125.509509,84.43695 C125.509509,84.43695 126.183273,81.37795 127.099672,81.96345 C129.157559,83.27845 129.465866,85.62245 129.465866,85.62245 L125.509509,84.43695 Z" id="Fill-11" fill="#4D4F68"/>
        <path d="M129.465665,85.62225 L108.660702,79.38975 L112.584474,68.48775 L106.401789,61.82125 L130.475308,60.26775 L133.806529,65.82125 L126.546022,81.70225 C126.546022,81.70225 128.962849,82.94775 129.465665,85.62225 Z" id="Stroke-13" stroke="#7593B1" stroke-width="0.5"/>
        <path d="M125.70487,84.4958 C125.70487,84.4958 125.732944,82.1638 126.861899,81.8918" id="Stroke-15" stroke="#7593B1" stroke-width="0.5"/>
        <path d="M164.115472,36.4636 L163.887375,32.8721 C163.887375,32.8721 163.665293,31.9066 164.241802,32.2156 C164.817309,32.5246 167.945498,34.1591 167.945498,34.1591 C167.945498,34.1591 168.234254,34.2926 168.247789,35.2101 C168.262829,36.1281 168.580159,38.0966 168.580159,38.0966" id="Fill-17" fill="#E2DDC9"/>
        <path d="M164.114519,36.4636 L163.887425,32.8721 C163.887425,32.8721 163.665343,31.9066 164.24085,32.2156 C164.817359,32.5246 167.944545,34.1591 167.944545,34.1591 C167.944545,34.1591 168.233301,34.2926 168.247839,35.2101 C168.261876,36.1281 168.579207,38.0966 168.579207,38.0966" id="Stroke-19" stroke="#7593B1" stroke-width="0.5"/>
        <path d="M165.128373,36.26435 L164.782468,34.52435 C164.782468,34.52435 164.524793,33.36985 165.205074,33.68185 C165.885355,33.99385 167.039877,34.50785 167.039877,34.50785 C167.039877,34.50785 167.32763,34.68285 167.371746,35.30935 C167.41536,35.93585 167.672533,37.13135 167.672533,37.13135 L165.128373,36.26435 Z" id="Fill-21" fill="#4D4F68"/>
        <path d="M14.7987903,14.87105 C16.2616197,13.45555 36.6329478,3.05305 47.3625357,0.61955 C58.0926249,-1.81445 81.0076118,6.71655 94.3039189,9.28205 C114.873767,13.25155 121.007323,13.33555 124.052294,14.76905 C125.571271,15.57255 129.780289,20.31605 134.698163,23.58805 C139.616037,26.86005 142.719662,28.13955 147.047491,29.95555 C158.945137,34.62205 160.656617,33.98555 165.501299,35.50405 C168.288596,36.51705 177.25557,40.79155 177.25557,40.79155 C177.25557,40.79155 182.869767,45.96005 189.700649,48.31855 C189.700649,48.31855 191.189045,48.67605 190.325785,50.30755 C189.446483,52.47005 184.398769,57.76055 182.549428,58.83105 C182.549428,58.83105 180.886575,57.13555 172.943782,58.60955 C166.690412,59.76955 165.94847,60.85155 158.59873,61.35355 C151.24899,61.85505 93.1448848,68.87905 87.6444858,69.75805 C82.1420816,70.63755 79.5743598,71.27055 78.3205777,71.27505 C77.0662942,71.27905 50.7724622,65.83205 39.1570554,62.90405 C27.5421499,59.97605 9.96814462,53.62055 6.1431315,47.33755 C6.1431315,47.33755 4.44969843,50.87205 3.08211837,50.88605 C1.91205538,50.89755 0.177013386,46.99455 0.188042257,45.20255 C0.199572441,43.41005 0.142924147,42.49155 2.20883228,37.67505 C4.27474042,32.85955 11.5728454,17.94355 14.7987903,14.87105" id="Fill-23" fill="#FBF8EA"/>
        <path d="M174.079054,58.37205 C174.079054,58.37205 170.448049,56.78505 176.518941,50.79505 C177.984779,49.34955 180.561023,47.72605 182.330655,47.28255 C183.456603,47.00055 185.540057,46.10255 186.575267,47.04955 C188.082713,48.42905 192.468193,47.40555 189.658839,51.55955 C187.476627,54.78755 182.549228,58.83105 182.549228,58.83105 C182.549228,58.83105 180.673317,57.25455 174.079054,58.37205" id="Fill-25" fill="#E0DAC5"/>
        <path d="M14.7987903,14.87105 C16.2616197,13.45555 36.6329478,3.05305 47.3625357,0.61955 C58.0926249,-1.81445 81.0076118,6.71655 94.3039189,9.28205 C114.873767,13.25155 121.007323,13.33555 124.052294,14.76905 C125.571271,15.57255 129.780289,20.31605 134.698163,23.58805 C139.616037,26.86005 142.719662,28.13955 147.047491,29.95555 C158.945137,34.62205 160.656617,33.98555 165.501299,35.50405 C168.288596,36.51705 177.25557,40.79155 177.25557,40.79155 C177.25557,40.79155 182.869767,45.96005 189.700649,48.31855 C189.700649,48.31855 191.189045,48.67605 190.325785,50.30755 C189.446483,52.47005 184.398769,57.76055 182.549428,58.83105 C182.549428,58.83105 180.886575,57.13555 172.943782,58.60955 C166.690412,59.76955 165.94847,60.85155 158.59873,61.35355 C151.24899,61.85505 93.1448848,68.87905 87.6444858,69.75805 C82.1420816,70.63755 79.5743598,71.27055 78.3205777,71.27505 C77.0662942,71.27905 50.7724622,65.83205 39.1570554,62.90405 C27.5421499,59.97605 9.96814462,53.62055 6.1431315,47.33755 C6.1431315,47.33755 4.44969843,50.87205 3.08211837,50.88605 C1.91205538,50.89755 0.177013386,46.99455 0.188042257,45.20255 C0.199572441,43.41005 0.142924147,42.49155 2.20883228,37.67505 C4.27474042,32.85955 11.5728454,17.94355 14.7987903,14.87105 Z" id="Stroke-27" stroke="#7593B1" stroke-width="0.5"/>
        <path d="M188.074692,50.57635 C187.761372,50.13885 187.194388,49.19085 188.040603,49.08685 C189.234228,48.94035 190.535133,49.12835 190.535133,49.12835 C190.535133,49.12835 191.205889,49.78485 190.767241,50.67535 C190.328592,51.56585 189.36507,53.06035 189.36507,53.06035 L189.688417,51.70135 C189.688417,51.70135 189.891949,51.13885 189.327973,51.12335 C189.090852,51.11685 188.58202,51.28485 188.074692,50.57635" id="Fill-29" fill="#000000"/>
        <path d="M174.182375,54.8945 C174.182375,54.8945 174.864661,55.832 176.410207,55.8775 C177.954249,55.9235 185.80079,56.022 185.80079,56.022" id="Stroke-31" stroke="#7593B1" stroke-width="0.5"/>
        <path d="M99.2689664,16.1616 C99.3957984,16.1241 105.893809,12.6481 110.505381,13.5766 C115.116452,14.5046 123.223675,21.5391 123.223675,21.5391" id="Stroke-33" stroke="#7593B1" stroke-width="0.5"/>
        <path d="M170.818569,44.332 L175.411091,43.0925 C175.411091,43.0925 176.004144,44.235 175.561485,45.056 C175.118826,45.8765 170.818569,44.332 170.818569,44.332" id="Fill-35" fill="#4D6E8C"/>
        <path d="M174.758583,45.1799 C174.758583,45.1799 174.121917,44.9664 174.034187,44.2449 C173.946457,43.5284 174.547029,43.3254 174.547029,43.3254 L175.411292,43.0924 C175.411292,43.0924 175.730628,43.4504 175.709071,44.0809 C175.687515,44.7114 175.401266,45.1989 175.401266,45.1989 L174.758583,45.1799 Z" id="Fill-37" fill="#000000"/>
        <path d="M170.818569,44.332 L175.411091,43.0925 C175.411091,43.0925 176.004144,44.235 175.561485,45.056 C175.118826,45.8765 170.818569,44.332 170.818569,44.332 Z" id="Stroke-39" stroke="#000000" stroke-width="0.5"/>
        <g id="Group-44" transform="translate(155.908136, 32.967000)">
          <path d="M1.0273895,10.20385 L0.201226772,4.26035 C0.201226772,4.26035 0.0408068241,4.00535 0.728106037,3.40035 C1.41490394,2.79535 4.20470709,0.33485 4.20470709,0.33485 C4.20470709,0.33485 4.5912189,-0.02865 5.03187244,0.60985 C5.47352861,1.24785 7.84172808,4.52785 7.84172808,4.52785" id="Fill-41" fill="#FBF8EA"/>
          <path d="M1.0273895,10.20385 L0.201226772,4.26035 C0.201226772,4.26035 0.0408068241,4.00535 0.728106037,3.40035 C1.41490394,2.79535 4.20470709,0.33485 4.20470709,0.33485 C4.20470709,0.33485 4.5912189,-0.02865 5.03187244,0.60985 C5.47352861,1.24785 7.84172808,4.52785 7.84172808,4.52785" id="Stroke-43" stroke="#7593B1" stroke-width="0.5"/>
        </g>
        <path d="M158.078167,42.2585 L157.567831,39.7215 C157.567831,39.7215 157.002852,37.3785 158.44613,36.1185 C159.697907,35.0245 160.49349,33.8345 161.162742,35.5135 C161.682102,36.819 162.322779,37.682 162.322779,37.682 C162.322779,37.682 163.06071,38.1625 161.296592,39.5435 C160.006214,40.5535 158.185448,43.0115 158.078167,42.2585" id="Fill-45" fill="#4D4F68"/>
        <path d="M108.323419,55.9765 C107.153356,58.768 109.832871,57.749 109.832871,57.749 L104.478354,80.5885 C105.022779,85.446 106.149228,86.071 106.149228,86.071 C110.159726,86.321 111.246571,89.6545 111.246571,89.6545 L88.6032958,89.6545 C88.0202696,76.196 84.8449572,56.022 84.8449572,56.022 L90.2340648,51.196 C90.2340648,51.196 89.9834087,48.6545 92.1139861,49.0295 C94.2445635,49.4045 100.720015,54.196 100.803734,55.1545" id="Fill-47" fill="#FBF8EA"/>
        <path d="M102.80753,89.5295 C102.80753,89.5295 104.739587,85.9045 106.149278,86.071 C110.579876,86.595 111.246622,89.6545 111.246622,89.6545 L102.80753,89.5295 Z" id="Fill-49" fill="#4D4F68"/>
        <path d="M113.252823,53.95115 C110.244949,55.84965 109.5767,58.83115 109.5767,58.83115 L104.478354,80.58865 C104.478354,83.75615 106.149228,86.07115 106.149228,86.07115 C110.159726,86.32115 111.246571,89.65465 111.246571,89.65465 L88.6032958,89.65465 C88.1440937,77.32115 84.8449572,56.02215 84.8449572,56.02215 L86.6160937,54.43215 C86.6160937,54.43215 88.7341383,52.72865 88.4524008,50.60415" id="Stroke-51" stroke="#7593B1" stroke-width="0.5"/>
        <path d="M109.83277,57.74925 C110.46693,55.19725 112.661175,56.15075 112.661175,56.15075" id="Stroke-53" stroke="#7593B1" stroke-width="0.5"/>
        <path d="M102.80753,89.6545 C102.80753,89.6545 103.47628,87.1545 106.149278,86.071" id="Stroke-55" stroke="#7593B1" stroke-width="0.5"/>
        <path d="M33.6298362,28.09495 C33.6298362,28.09495 49.8743612,49.31295 46.1486079,60.09195 C45.3249517,68.48795 26.6209885,77.23595 26.6209885,77.23595 C26.6209885,77.23595 31.3212929,80.27145 33.2222693,83.60445 L9.01690446,78.15145 C15.4968677,63.02945 3.96668399,40.16145 3.96668399,40.16145" id="Fill-57" fill="#FBF8EA"/>
        <path d="M26.6207879,82.1723 C26.6207879,82.1723 27.455473,79.2453 28.8666672,79.0048 C29.37199,78.9183 33.2220688,83.6593 33.2220688,83.6593 L26.6207879,82.1723 Z" id="Fill-59" fill="#4D4F68"/>
        <path d="M33.6298362,28.14985 C33.6298362,28.14985 49.8743612,49.31285 46.1486079,60.09185 C44.6983113,69.52935 26.6209885,77.23585 26.6209885,77.23585 C26.6209885,77.23585 31.3212929,80.32635 33.2222693,83.65935 L9.01690446,78.20635 C15.2462115,63.02935 4.84398058,42.39985 4.84398058,42.39985" id="Stroke-61" stroke="#7593B1" stroke-width="0.5"/>
        <path d="M26.6207879,82.1723 C26.7576462,81.9468 26.7365911,80.1478 28.8666672,79.0048" id="Stroke-63" stroke="#7593B1" stroke-width="0.5"/>
      </g>
    </g>
  </g>
</svg>