<svg version="1.1" width="126" height="136" viewBox="-1 -1 126 136" xmlns="http://www.w3.org/2000/svg" xmlns:xlink="http://www.w3.org/1999/xlink">
  <!-- Exported by Scratch - http://scratch.mit.edu/ -->
  <path id="Shape" fill="#000000" stroke="none" stroke-width="1" d="M 57.803 56.226 L 48.494 57.126 C 48.324 60.603 46.572 64.042 42.784 67.746 C 33.073 77.220 36.629 89.356 35.473 90.905 C 35.601 91.487 43.807 96.115 44.261 96.489 L 50.355 96.783 C 53.736 89.204 58.494 80.730 59.531 78.755 C 65.758 66.865 58.499 60.158 57.803 56.226 Z "/>
  <path id="Shape" fill="#BE8264" stroke="none" stroke-width="1" d="M 66.818 60.840 C 66.473 55.004 63.977 52.877 60.237 48.794 C 60.237 48.794 52.694 41.874 46.312 46.781 L 45.838 55.544 C 45.838 55.544 44.740 62.886 54.063 69.281 C 56.790 71.147 61.297 70.432 62.997 69.584 C 67.917 67.116 66.918 62.550 66.818 60.840 Z "/>
  <path id="Shape" fill="#A06446" stroke="none" stroke-width="1" d="M 63.655 55.757 C 59.588 50.893 61.468 51.201 62.538 50.632 C 63.783 51.300 64.801 52.636 65.795 54.270 C 65.724 54.497 65.734 54.810 65.582 54.886 C 64.957 55.222 64.285 55.483 63.655 55.757 Z "/>
  <path id="Shape" fill="#000000" stroke="none" stroke-width="1" d="M 55.526 56.212 C 55.526 56.212 60.938 63.933 52.718 74.762 L 42.997 72.758 L 47.055 62.460 L 55.526 56.212 Z "/>
  <path id="Shape" fill="#008264" stroke="none" stroke-width="1" d="M 61.080 48.396 C 58.087 50.826 48.144 61.276 45.005 63.654 C 40.142 59.362 39.143 49.974 45.862 44.910 C 54.612 38.316 61.080 48.411 61.080 48.396 Z "/>
  <path id="Shape" fill="#008264" stroke="none" stroke-width="1" d="M 42.410 68.168 L 43.660 63.104 L 49.096 60.044 L 51.728 58.884 L 42.410 68.168 "/>
  <path id="Shape" fill="#BE0A3C" stroke="none" stroke-width="1" d="M 58.802 49.457 L 41.491 59.580 L 43.385 64.061 C 43.385 64.061 61.013 53.488 61.605 52.693 L 58.802 49.457 Z "/>
  <path id="Shape" fill="#F01446" stroke="none" stroke-width="1" d="M 72.410 63.114 C 70.639 59.713 59.834 45.426 59.048 44.408 C 57.808 42.788 54.186 38.345 53.523 38.297 C 51.136 38.842 49.100 41.211 49.100 41.211 C 49.100 41.211 53.229 47.439 54.706 49.495 C 56.425 51.892 63.229 60.717 64.820 62.413 C 66.103 63.791 67.661 66.501 69.598 66.794 C 70.862 66.529 71.657 65.596 72.514 64.743 C 72.702 64.208 72.665 63.620 72.410 63.114 Z "/>
  <path id="Shape" fill="#F0E6D2" stroke="none" stroke-width="1" d="M 72.410 56.075 C 70.516 53.555 67.472 49.656 67.472 49.656 L 66.165 50.684 L 71.241 56.989 L 72.410 56.075 Z "/>
  <path id="Shape" fill="#F0E6D2" stroke="none" stroke-width="1" d="M 64.001 45.232 C 62.107 42.707 59.063 38.814 59.063 38.814 L 57.765 39.827 L 62.831 46.137 L 64.001 45.232 Z "/>
  <path id="Shape" fill="#F0E6D2" stroke="none" stroke-width="1" d="M 65.994 41.495 L 56.866 48.808 L 61.709 55.047 C 68.504 49.997 63.651 53.683 70.980 47.894 L 65.994 41.495 Z M 65.961 44.171 L 68.717 47.548 L 61.823 52.655 C 61.823 52.655 60.005 50.253 59.304 49.339 C 63.802 45.985 65.961 44.171 65.961 44.171 Z "/>
  <path id="Shape" fill="#BE8264" stroke="none" stroke-width="1" d="M 58.509 60.328 C 59.522 57.889 59.067 56.439 54.721 55.592 C 52.126 55.118 50.601 57.382 51.752 59.381 C 53.196 61.868 56.345 61.783 58.509 60.328 Z "/>
  <path id="Shape" fill="#BE8264" stroke="none" stroke-width="1" d="M 82.671 97.501 C 82.671 97.501 82.671 97.171 82.131 96.570 C 82.191 97.111 82.341 97.471 82.671 97.501 Z "/>
  <path id="Shape" fill="#BE8264" stroke="none" stroke-width="1" d="M 109.749 21.752 L 81.004 77.092 L 72.311 71.991 L 104.176 17.403 L 109.749 21.752 "/>
  <path id="Shape" fill="#BE0A3C" stroke="none" stroke-width="1" d="M 64.867 83.477 C 67.386 78.660 71.496 71.214 74.366 66.614 C 75.511 66.704 84.517 73.123 84.517 73.123 C 84.517 73.123 77.391 88.484 75.866 90.365 C 74.337 89.526 66.349 84.515 64.867 83.477 Z "/>
  <path id="Shape" fill="#824600" stroke="none" stroke-width="1" d="M 119.384 19.421 C 119.858 19.497 124.053 15.305 124.782 15.385 C 124.432 14.315 124.034 11.013 123.575 10.175 C 123.305 9.701 123.063 9.161 122.813 8.659 L 122.339 7.712 C 121.866 6.764 121.080 6.092 120.402 5.319 C 119.012 3.794 117.330 2.563 115.455 1.701 C 113.878 0.933 112.140 0.720 110.417 0.436 C 110.064 0.399 109.710 0.387 109.356 0.403 C 109.181 0.403 109.001 0.403 108.826 0.403 C 107.907 0.374 106.989 0.336 106.070 0.317 C 105.909 0.317 102.585 1.738 102.339 1.795 L 107.202 13.581 C 107.202 13.581 118.726 19.317 119.384 19.421 Z "/>
  <path id="Shape" fill="#642800" stroke="none" stroke-width="1" d="M 118.963 16.191 C 118.414 14.163 115.928 10.601 114.536 9.256 C 112.760 7.546 110.492 6.977 108.059 6.797 C 107.798 6.887 104.626 6.797 104.271 6.916 C 104.124 7.143 100.009 12.789 100.009 12.789 L 113.002 23.713 L 118.963 16.191 Z "/>
  <path id="Shape" fill="#A0640A" stroke="none" stroke-width="1" d="M 124.010 13.813 C 124.427 14.242 124.697 14.793 124.782 15.385 C 123.755 21.591 119.280 27.583 113.063 28.435 C 107.528 29.188 102.382 28.525 98.769 24.125 C 92.652 16.674 96.591 6.632 101.463 1.762 C 103.187 1.236 104.053 1.146 105.043 1.388 C 106.219 2.520 106.853 4.104 106.780 5.736 C 106.572 5.973 105.952 8.105 105.895 8.152 C 104.527 12.060 104.659 16.678 109.721 18.043 C 114.711 19.388 119.318 12.145 124.010 13.813 Z "/>
  <path id="Shape" fill="#BE8264" stroke="none" stroke-width="1" d="M 100.928 29.904 C 100.928 29.904 101.288 29.904 101.979 29.664 C 101.439 29.543 101.078 29.604 100.928 29.904 Z "/>
  <path id="Shape" fill="#BE8264" stroke="none" stroke-width="1" d="M 39.413 98.181 L 33.205 93.396 C 32.491 94.344 22.708 103.642 14.650 109.871 C 10.862 112.803 5.795 115.186 5.279 115.461 C 3.877 116.266 2.413 116.956 0.900 117.526 C 0.646 117.634 0.400 117.757 0.161 117.895 C 0.634 117.895 2.528 117.123 2.855 117.767 C 3.182 118.412 0.540 118.928 0.170 119.084 L 0.213 119.193 L 2.661 118.975 C 2.931 119.113 3.111 119.264 3.030 119.619 C 2.348 120.041 1.510 119.913 0.705 120.141 C 0.810 120.231 0.866 120.302 0.938 120.325 C 2.140 120.742 3.344 121.154 4.550 121.562 C 4.729 121.614 4.911 121.656 5.095 121.685 C 6.624 122.016 8.130 121.761 9.607 121.419 C 16.434 120.097 22.858 117.197 28.366 112.950 C 40.275 103.737 38.352 98.811 39.413 98.181 Z "/>
  <path id="Shape" fill="#BE0A3C" stroke="none" stroke-width="1" d="M 41.397 79.276 C 41.397 79.276 34.384 86.433 31.170 91.421 L 37.708 96.300 L 41.397 79.276 Z "/>
  <path id="Shape" fill="#F01446" stroke="none" stroke-width="1" d="M 68.542 75.643 C 68.542 75.932 48.045 74.781 45.601 75.941 C 43.969 76.717 42.532 77.850 41.397 79.257 C 40.999 79.731 36.491 92.070 36.491 92.070 C 36.491 92.070 36.132 96.399 36.458 96.679 L 56.615 106.153 L 72.505 98.526 L 79.853 82.506 C 79.853 82.506 69.323 75.662 68.542 75.643 Z "/>
  <path id="Shape" fill="#6E1E3C" stroke="none" stroke-width="1" d="M 69.418 75.756 C 66.051 73.364 61.307 72.133 56.634 72.199 C 52.126 72.265 47.685 73.539 44.621 76.149 C 44.550 77.059 40.440 102.837 40.360 103.699 L 75.956 103.983 C 75.923 103.500 71.771 78.125 69.418 75.756 Z "/>
  <path id="Shape" fill="#008264" stroke="none" stroke-width="1" d="M 92.571 95.258 L 90.099 83.558 C 87.500 83.084 83.565 86.585 81.657 88.029 C 80.133 89.181 72.907 94.187 67.135 98.081 C 64.295 99.999 57.159 100.568 54.219 99.455 C 46.709 96.613 44.777 93.723 43.191 91.980 C 35.313 83.316 27.732 84.316 27.732 84.316 L 25.464 106.721 C 25.464 106.721 29.905 119.444 58.163 119.444 C 86.420 119.444 88.646 108.317 90.057 106.925 C 93.277 103.737 89.650 98.692 92.571 95.258 Z "/>
  <path id="Shape" fill="#00A08C" stroke="none" stroke-width="1" d="M 99.697 94.093 C 98.849 88.617 95.819 84.486 90.099 83.558 C 88.854 88.262 84.200 105.461 83.821 109.241 L 98.371 108.152 C 99.323 103.699 100.402 98.635 99.697 94.093 Z "/>
  <path id="Shape" fill="#00A08C" stroke="none" stroke-width="1" d="M 27.732 84.316 C 27.443 84.557 24.891 84.662 22.562 88.579 C 20.232 92.496 19.598 96.579 20.838 105.546 L 33.177 105.073 C 33.177 105.073 27.822 84.813 27.732 84.316 Z "/>
  <path id="Shape" fill="#F01446" stroke="none" stroke-width="1" d="M 84.048 105.632 L 83.778 106.276 C 81.506 115.707 79.181 125.252 76.018 134.389 C 78.068 134.389 79.366 134.564 80.966 134.389 C 81.970 134.285 83.310 134.389 84.474 134.233 C 84.474 133.972 84.541 133.712 84.583 133.451 L 82.150 133.451 C 83.149 131.414 85.805 129.619 87.192 127.767 C 89.039 125.299 90.824 122.736 92.514 120.145 C 95.388 115.745 97.249 110.747 98.603 105.613 L 84.048 105.632 Z "/>
  <path id="Shape" fill="#F01446" stroke="none" stroke-width="1" d="M 35.791 118.776 C 35.080 116.266 34.470 113.793 33.859 111.245 C 33.679 110.477 32.983 108.687 32.547 107.062 L 21.027 107.062 C 21.894 111.448 22.855 115.669 24.678 119.852 C 25.762 122.338 26.875 124.806 28.163 127.194 C 29.181 129.088 31.297 131.523 31.757 133.574 C 31.468 133.574 28.916 133.754 28.916 133.754 L 28.849 134.441 C 28.849 134.441 38.291 135.123 39.403 134.133 C 39.304 133.271 39.015 132.428 38.868 131.566 C 38.071 127.251 37.043 122.982 35.791 118.776 Z "/>
  <path id="Shape" fill="#6E1E3C" stroke="none" stroke-width="1" d="M 98.920 110.454 L 82.154 110.075 L 83.717 103.917 L 100.355 103.917 L 98.920 110.454 "/>
  <path id="Shape" fill="#6E1E3C" stroke="none" stroke-width="1" d="M 20.232 110.454 L 35.080 110.075 L 33.693 103.917 L 18.958 103.917 L 20.232 110.454 "/>
  <path id="Shape" fill="#6E1E3C" stroke="none" stroke-width="1" d="M 36.160 115.168 L 35.620 112.164 L 20.881 112.164 L 21.349 115.168 L 36.160 115.168 "/>
  <path id="Shape" fill="#6E1E3C" stroke="none" stroke-width="1" d="M 37.259 119.204 L 36.719 116.199 L 21.979 116.199 L 22.453 119.204 L 37.259 119.204 "/>
  <path id="Shape" fill="#6E1E3C" stroke="none" stroke-width="1" d="M 80.478 115.168 L 81.098 112.164 L 97.898 112.164 L 97.367 115.168 L 80.478 115.168 "/>
  <path id="Shape" fill="#6E1E3C" stroke="none" stroke-width="1" d="M 79.228 119.204 L 79.844 116.199 L 96.648 116.199 L 96.113 119.204 L 79.228 119.204 "/>
</svg>