<svg version="1.1" width="113" height="119" viewBox="-1 -1 113 119" xmlns="http://www.w3.org/2000/svg" xmlns:xlink="http://www.w3.org/1999/xlink">
  <!-- Exported by Scratch - http://scratch.mit.edu/ -->
  <g id="ID0.8223791397176683" transform="matrix(1, 0, 0, 1, -0.75, 0.25)">
    <g id="rooster-b">
      <g id="Group">
        <path id="Fill-1" fill="#005A61" stroke="none" stroke-width="1" d="M 52.950 26.699 C 52.950 12.104 41.130 0.272 26.549 0.272 L 26.549 0.272 C 11.968 0.272 0.148 12.104 0.148 26.699 L 0.148 47.305 L 22.878 47.305 L 22.878 27.037 C 22.878 25.007 24.521 23.362 26.549 23.362 C 28.577 23.362 30.220 25.007 30.220 27.037 L 30.220 52.195 L 52.950 52.195 L 52.950 26.699 Z " transform="matrix(-1, 0, 0, 1, 53.85, 29.55)"/>
        <path id="Fill-3" fill="#17242D" stroke="none" stroke-width="1" d="M 26.549 7.833 C 16.234 7.833 7.843 16.233 7.843 26.557 L 7.843 45.777 L 8.541 45.777 L 8.541 26.557 C 8.541 16.618 16.619 8.532 26.549 8.532 C 36.478 8.532 44.557 16.618 44.557 26.557 L 44.557 52.195 L 45.254 52.195 L 45.254 26.557 C 45.254 16.233 36.863 7.833 26.549 7.833 " transform="matrix(-1, 0, 0, 1, 53.85, 29.55)"/>
        <path id="Fill-5" fill="#17242D" stroke="none" stroke-width="1" d="M 38.350 52.195 L 38.350 27.188 C 38.350 20.675 33.056 15.376 26.549 15.376 C 20.042 15.376 14.748 20.675 14.748 27.188 L 14.748 45.777 L 15.445 45.777 L 15.445 27.188 C 15.445 21.060 20.426 16.074 26.549 16.074 C 32.671 16.074 37.652 21.060 37.652 27.188 L 37.652 52.195 L 38.350 52.195 Z " transform="matrix(-1, 0, 0, 1, 53.85, 29.55)"/>
      </g>
      <g id="Group-6">
        <path id="Stroke-7" fill="none" stroke="#FFDB5D" stroke-width="1.05" d="M 21.756 30.686 C 19.597 30.686 19.597 28.591 17.439 28.591 C 15.281 28.591 15.281 30.686 13.123 30.686 C 10.963 30.686 10.963 28.591 8.804 28.591 C 6.644 28.591 6.644 30.686 4.485 30.686 " transform="matrix(-1, 0, 0, 1, 61.95, 86.5)"/>
        <path id="Stroke-9" fill="none" stroke="#FFDB5D" stroke-width="1.05" d="M 13.004 15.639 L 13.004 30.716 " transform="matrix(-1, 0, 0, 1, 61.95, 86.5)"/>
        <path id="Fill-11" fill="#751D18" stroke="none" stroke-width="1" d="M 0.796 9.554 C -0.766 6.204 0.682 2.221 4.029 0.658 C 7.376 -0.905 11.355 0.544 12.917 3.895 C 13.341 4.805 13.536 5.760 13.538 6.703 L 13.543 6.702 L 13.707 18.833 C 13.721 19.857 12.521 20.418 11.746 19.751 L 2.542 11.832 C 1.824 11.226 1.219 10.463 0.796 9.554 " transform="matrix(-1, 0, 0, 1, 61.95, 86.5)"/>
      </g>
      <path id="Fill-13" fill="#17242D" stroke="none" stroke-width="1" d="M 81.827 76.123 C 81.827 69.683 76.613 64.462 70.179 64.462 L 67.436 64.461 C 67.397 64.459 67.354 64.452 67.317 64.452 L 25.303 64.452 C 25.303 64.452 25.295 71.461 25.295 72.390 C 25.295 75.468 26.595 80.759 30.796 84.337 C 40.158 92.311 51.238 102.637 51.238 102.637 L 81.827 76.123 Z " transform="matrix(-1, 0, 0, 1, 112.85, -0.75)"/>
      <g id="Group-5">
        <path id="Stroke-15" fill="none" stroke="#FFDB5D" stroke-width="1.05" d="M 4.834 28.154 L 4.354 28.154 C 2.114 28.154 0.298 26.337 0.298 24.094 C 0.298 21.852 2.114 20.034 4.354 20.034 L 16.784 20.034 " transform="matrix(-1, 0, 0, 1, 81.4, 84.4)"/>
        <path id="Fill-17" fill="#751D18" stroke="none" stroke-width="1" d="M 28.183 9.585 C 29.636 6.186 28.060 2.252 24.665 0.798 C 21.269 -0.656 17.338 0.920 15.886 4.320 C 15.491 5.242 15.327 6.204 15.355 7.146 L 15.350 7.145 L 15.577 19.276 C 15.595 20.299 16.813 20.821 17.567 20.129 L 26.510 11.918 C 27.208 11.289 27.789 10.507 28.183 9.585 " transform="matrix(-1, 0, 0, 1, 81.4, 84.4)"/>
      </g>
      <g id="Group-2">
        <path id="Fill-19" fill="#DE7732" stroke="none" stroke-width="1" d="M 45.853 57.142 C 45.831 55.619 45.843 49.284 45.843 49.284 C 45.843 25.553 28.097 9.613 12.959 3.145 C 8.722 3.375 4.472 4.094 0.544 5.178 C 0.184 9.068 0.153 13.746 0.153 13.747 L 16.488 62.237 C 19.135 70.096 27.646 74.319 35.498 71.669 C 41.830 69.532 45.942 63.489 45.853 57.142 " transform="matrix(-1, 0, 0, 1, 103.45, 14.2)"/>
        <path id="Fill-21" fill="#E8441D" stroke="none" stroke-width="1" d="M 0.153 13.747 L 11.986 48.874 C 14.154 55.308 19.918 59.510 26.281 59.994 L 6.365 0.873 C 4.815 0.474 3.335 0.194 1.955 0.039 C 0.244 -0.152 0.153 13.747 0.153 13.747 " transform="matrix(-1, 0, 0, 1, 103.45, 14.2)"/>
        <path id="Fill-23" fill="#E8441D" stroke="none" stroke-width="1" d="M 18.628 5.961 C 14.392 3.559 10.166 1.851 6.365 0.873 L 21.458 45.677 C 23.625 52.111 29.390 56.313 35.753 56.797 L 18.628 5.961 Z " transform="matrix(-1, 0, 0, 1, 103.45, 14.2)"/>
        <path id="Fill-25" fill="#E8441D" stroke="none" stroke-width="1" d="M 18.628 5.961 L 30.930 42.480 C 33.023 48.694 38.843 53.160 45.840 53.773 C 45.838 51.603 45.842 49.284 45.842 49.284 C 45.842 28.473 32.195 13.655 18.628 5.961 " transform="matrix(-1, 0, 0, 1, 103.45, 14.2)"/>
      </g>
      <g id="Group-3">
        <g id="Group-29">
          <path id="Fill-27" fill="#CE2235" stroke="none" stroke-width="1" d="M 22.974 6.122 C 21.204 5.515 19.336 5.890 17.957 6.954 L 17.608 7.199 C 17.112 7.545 16.462 7.055 16.658 6.482 L 17.790 3.175 C 18.118 2.217 17.608 1.175 16.650 0.847 C 15.694 0.518 14.652 1.029 14.324 1.987 L 13.329 4.895 C 13.132 5.471 12.311 5.448 12.146 4.862 L 11.018 0.848 C 10.790 0.038 9.654 0.006 9.382 0.803 L 7.528 6.219 C 7.474 6.198 7.424 6.174 7.369 6.155 C 4.499 5.171 1.376 6.702 0.393 9.574 C -0.590 12.446 0.940 15.573 3.809 16.556 C 3.906 16.590 4.004 16.613 4.102 16.641 L 7.669 17.864 L 8.253 16.156 C 8.305 16.127 8.358 16.101 8.408 16.070 L 15.691 16.854 L 17.490 15.039 C 18.043 15.581 18.717 16.015 19.498 16.282 C 22.300 17.243 25.351 15.748 26.311 12.942 C 27.271 10.137 25.777 7.083 22.974 6.122 " transform="matrix(-1, 0, 0, 1, 109.05, 0.35)"/>
        </g>
        <path id="Fill-34" fill="#FFDB5D" stroke="none" stroke-width="1" d="M 11.812 27.165 L 0.124 23.207 L 11.230 23.207 L 11.812 27.165 " transform="matrix(-1, 0, 0, 1, 112.85, 0.25)"/>
        <path id="Fill-30" fill="#CE2235" stroke="none" stroke-width="1" d="M 13.149 33.632 C 12.015 36.947 8.410 38.714 5.098 37.579 C 1.787 36.443 0.021 32.835 1.156 29.520 C 2.290 26.205 5.895 24.438 9.207 25.574 C 12.518 26.709 14.283 30.317 13.149 33.632 " transform="matrix(-1, 0, 0, 1, 112.85, 0.25)"/>
        <path id="Fill-32" fill="#FFDB5D" stroke="none" stroke-width="1" d="M 0 17.267 L 17.065 23.119 C 17.149 21.306 16.040 19.568 14.244 18.952 L 4.781 15.707 C 2.985 15.091 1.044 15.783 0 17.267 " transform="matrix(-1, 0, 0, 1, 112.85, 0.25)"/>
        <path id="Fill-36" fill="#AD2C24" stroke="none" stroke-width="1" d="M 23.036 23.075 C 21.642 27.150 17.211 29.322 13.139 27.926 C 9.068 26.530 6.898 22.094 8.293 18.019 C 9.688 13.944 14.119 11.772 18.190 13.168 C 22.261 14.564 24.431 19 23.036 23.075 " transform="matrix(-1, 0, 0, 1, 112.85, 0.25)"/>
        <path id="Fill-38" fill="#FFF4E3" stroke="none" stroke-width="1" d="M 19.207 21.762 C 18.537 23.720 16.408 24.764 14.451 24.093 C 12.494 23.422 11.452 21.291 12.122 19.332 C 12.792 17.374 14.922 16.330 16.878 17.001 C 18.835 17.672 19.878 19.803 19.207 21.762 " transform="matrix(-1, 0, 0, 1, 112.85, 0.25)"/>
        <path id="Fill-40" fill="#17242D" stroke="none" stroke-width="1" d="M 18.083 21.376 C 17.625 22.713 16.172 23.425 14.836 22.967 C 13.501 22.509 12.789 21.055 13.247 19.718 C 13.704 18.381 15.158 17.669 16.493 18.127 C 17.828 18.584 18.540 20.039 18.083 21.376 " transform="matrix(-1, 0, 0, 1, 112.85, 0.25)"/>
        <path id="Stroke-42" fill="none" stroke="#751D18" stroke-width="0.5" d="M 10.467 21.903 L 14.429 26.492 " transform="matrix(-1, 0, 0, 1, 112.85, 0.25)"/>
      </g>
      <g id="Group-4">
        <path id="Fill-44" fill="#B85C39" stroke="none" stroke-width="1" d="M 40.468 8.587 C 29.444 -2.445 11.573 -2.443 0.551 8.592 L 0.114 9.029 L 6.941 15.861 C 18.206 27.135 36.469 27.133 47.732 15.856 L 40.468 8.587 Z " transform="matrix(-1, 0, 0, 1, 57.7, 54.7)"/>
        <path id="Fill-46" fill="#AD2C24" stroke="none" stroke-width="1" d="M 47.732 15.857 L 47.722 15.847 L 32.003 11.434 L 20.069 23.382 C 29.640 25.866 40.236 23.362 47.732 15.857 " transform="matrix(-1, 0, 0, 1, 57.7, 54.7)"/>
        <path id="Stroke-48" fill="none" stroke="#751D18" stroke-width="0.5" d="M 44.540 18.254 L 29.614 14.085 " transform="matrix(-1, 0, 0, 1, 57.7, 54.7)"/>
        <path id="Stroke-50" fill="none" stroke="#751D18" stroke-width="0.5" d="M 41.188 20.476 L 27.147 16.555 " transform="matrix(-1, 0, 0, 1, 57.7, 54.7)"/>
        <path id="Stroke-52" fill="none" stroke="#751D18" stroke-width="0.5" d="M 36.812 22.413 L 24.680 19.025 " transform="matrix(-1, 0, 0, 1, 57.7, 54.7)"/>
        <path id="Stroke-54" fill="none" stroke="#751D18" stroke-width="0.5" d="M 30.711 23.868 L 22.213 21.495 " transform="matrix(-1, 0, 0, 1, 57.7, 54.7)"/>
        <path id="Fill-56" fill="#573A3C" stroke="none" stroke-width="1" d="M 16.995 10.500 C 19.097 11.747 21.850 11.472 23.657 9.663 C 25.796 7.521 25.796 4.049 23.656 1.908 C 22.676 0.927 21.416 0.405 20.134 0.323 C 13.036 0.418 5.967 3.170 0.551 8.592 L 0.115 9.029 L 6.941 15.861 C 7.436 16.357 7.950 16.823 8.472 17.276 L 8.498 17.246 C 10.643 19.306 14.048 19.283 16.160 17.169 C 17.967 15.360 18.242 12.604 16.995 10.500 " transform="matrix(-1, 0, 0, 1, 57.7, 54.7)"/>
      </g>
    </g>
  </g>
</svg>