<svg width="73px" height="93px" viewBox="0 0 73 93" version="1.1" xml:space="preserve" xmlns="http://www.w3.org/2000/svg" xmlns:xlink="http://www.w3.org/1999/xlink">
  <defs/>
  <g>
    <title>penguin-a</title>
    <desc>Created with Sketch.</desc>
    <g id="penguin-a" stroke="none" stroke-width="1" fill="none" fill-rule="evenodd">
      <g id="Group" transform="translate(1.000000, 1.000000)">
        <g id="Group-4" transform="translate(0.000000, 26.959016)">
          <path d="M28.58555,0.407464481 C28.58555,0.407464481 25.54205,0.270721311 22.89605,3.07496175 C20.84155,5.25179235 7.06255,22.882612 7.06255,22.882612 C7.06255,22.882612 4.70705,26.3640328 4.71105,28.4639454 C4.71405,30.5633552 4.01555,34.6636393 2.31755,37.4553115 C0.61905,40.2464809 -0.11695,41.0830273 0.30305,41.8848852 C0.72355,42.6872459 14.56905,37.9510055 21.36655,29.9339344 C28.16405,21.9188743 33.81855,11.5625902 35.33355,5.81032787" id="Fill-1" fill="#3E5766"/>
          <path d="M28.58555,0.407464481 C28.58555,0.407464481 25.54205,0.270721311 22.89605,3.07496175 C20.84155,5.25179235 7.06255,22.882612 7.06255,22.882612 C7.06255,22.882612 4.70705,26.3640328 4.71105,28.4639454 C4.71405,30.5633552 4.01555,34.6636393 2.31755,37.4553115 C0.61905,40.2464809 -0.11695,41.0830273 0.30305,41.8848852 C0.72355,42.6872459 14.56905,37.9510055 21.36655,29.9339344 C28.16405,21.9188743 33.81855,11.5625902 35.33355,5.81032787" id="Stroke-3" stroke="#2E374A" stroke-width="0.5"/>
        </g>
        <path d="M46.5187,91.6229508 L60.3832,91.6229508 C60.3832,91.6229508 59.5957,89.5702951 52.5957,86.911847 C52.5957,86.911847 49.9302,88.4808743 46.5187,91.6229508" id="Fill-5" fill="#E3A066"/>
        <path d="M46.2582,91.6229508 L60.3832,91.6229508 C60.3832,91.6229508 57.7207,88.396918 52.8457,86.911847" id="Stroke-7" stroke="#8D6A4A" stroke-width="0.5"/>
        <path d="M53.3207,3.64455738 C51.6322,1.53308197 47.1927,0.188273224 45.0257,0.188273224 C42.8592,0.188273224 39.4782,1.23093989 37.5802,3.39268852 C34.8487,6.50359563 34.5547,12.7641202 34.0187,14.3034863 C33.4832,15.8433552 26.8177,28.793235 22.9262,35.6183279 C19.5752,41.4962732 14.6537,54.1691475 13.6122,67.3241421 C12.5707,80.4791366 15.1792,91.6226995 15.4292,91.6226995 L48.0122,91.6226995 C50.3497,89.1929945 48.1792,88.8586776 48.5957,88.8576721 C49.0537,88.8551585 51.6622,89.1281421 52.6702,89.2518142 C52.6702,89.2518142 52.1177,89.1965137 51.9067,88.0241421 C51.9067,88.0241421 45.1737,87.2660219 46.5097,87.4339344 C46.5097,87.4339344 45.7292,86.6466557 45.5787,85.7784372 C45.4877,85.2550929 46.8432,57.9396393 46.9132,57.2694973 C46.9622,56.8029617 50.5132,29.0430929 51.8867,15.6648852 C50.1807,14.8615191 51.8782,12.0653224 51.8782,12.0653224 C51.8782,12.0653224 56.3607,7.44621858 53.3207,3.64455738" id="Fill-9" fill="#3E5766"/>
        <path d="M52.39245,16.3915847 C52.39245,16.3915847 46.79045,21.8140546 45.90545,29.2348852 C41.57495,65.5437158 36.51245,70.7595628 36.32495,74.6557377 C36.12695,78.7721093 35.51245,85.8832568 45.58745,87.4336831 C45.58745,87.4336831 47.55395,87.8946885 49.01245,88.8161967 C49.78595,89.3048525 51.96895,89.2978142 52.66995,89.2515628 C52.66995,89.2515628 51.87695,88.3084372 51.90695,88.0243934 C51.90695,88.0243934 54.13945,88.6759344 54.81045,88.6347104 C54.81045,88.6347104 53.13995,87.8866448 52.84545,86.911847 C52.84545,86.911847 51.45495,87.7594536 53.97345,86.5860765 C53.97345,86.5860765 50.91195,85.4770492 50.67595,84.9964372 C50.67595,84.9964372 50.22095,84.7521093 51.05395,84.7521093 C51.05395,84.7521093 47.36095,83.2650273 47.96195,82.3792131 C52.34645,75.9186011 54.00745,68.3313661 56.48345,55.637377 C59.16845,41.873071 58.12045,30.373071 55.43045,22.6229508 C54.19095,19.2345355 52.39245,16.3915847 52.39245,16.3915847" id="Fill-11" fill="#FBF8EA"/>
        <path d="M46.43445,26.2736415 C46.41845,26.3867563 50.11595,18.3168984 53.31345,17.908177 L51.88695,15.6649858 C51.88695,15.6649858 47.74045,16.9670623 46.43445,26.2736415" id="Fill-13" fill="#F0C579"/>
        <path d="M51.3031,13.2801749 C51.3031,13.2801749 50.7501,14.2660328 51.2616,14.8723279 C51.8981,15.6264262 61.6301,26.8252896 56.7196,54.3373115 C52.6971,76.8758033 48.4801,81.4526776 47.9616,82.3792131 C47.6166,82.9960656 49.1491,83.7466448 51.0541,84.7521093 C51.0541,84.7521093 50.2206,85.0034754 51.0121,85.2548415 C51.0121,85.2548415 52.6741,86.1667978 53.9731,86.5860765 C53.9731,86.5860765 53.6371,87.0968525 52.8456,86.911847" id="Stroke-15" stroke="#D1C1B5" stroke-width="0.5"/>
        <path d="M48.86145,11.6254317 C48.76195,11.6395082 53.35095,9.19874317 53.88345,7.22652459 C54.29145,5.71832787 52.84045,4.05277596 53.32045,3.64455738 C53.64095,3.3720765 54.14095,4.82195628 55.34895,5.46696175 C56.64295,6.15771585 58.45295,7.16368306 61.56295,7.60357377 C64.67345,8.04346448 67.30345,8.8920765 68.33145,10.117235 C69.35995,11.3428962 69.81195,12.6937377 69.81195,12.6937377 C69.81195,12.6937377 68.58345,10.3997705 59.74145,11.2800546 C52.98645,11.6254317 52.36995,12.6414536 51.30295,13.2804262 C50.23645,13.9188962 51.71645,11.2172131 48.86145,11.6254317" id="Fill-17" fill="#E3A066"/>
        <path d="M51.1344,11.4054863 C51.1344,11.4054863 51.4134,11.3094645 51.9079,11.1817705 C52.1564,11.1204372 52.4584,11.0465355 52.8049,10.961071 C52.9789,10.9208525 53.1639,10.8781202 53.3589,10.8328743 C53.5544,10.7896393 53.7649,10.779082 53.9809,10.7438907 C55.7169,10.5081093 58.0424,10.2612678 60.3824,10.212 C61.5514,10.1878689 62.7239,10.2130055 63.8199,10.3070164 C64.3684,10.3517596 64.8969,10.4201311 65.3964,10.5005683 C65.8959,10.5825137 66.3644,10.6865792 66.7934,10.799694 C67.0059,10.8645464 67.2144,10.9138142 67.4029,10.9897268 C67.5904,11.0701639 67.7629,11.1591475 67.9264,11.2355628 C68.2464,11.408 68.5214,11.5618361 68.7279,11.7217049 C68.9444,11.8639781 69.0894,12.0092678 69.1894,12.1037814 C69.2899,12.1972896 69.3434,12.2470601 69.3434,12.2470601 C69.3434,12.2470601 69.2814,12.207847 69.1659,12.1334426 C69.0519,12.0580328 68.8849,11.9499454 68.6554,11.8423607 C68.4354,11.719694 68.1459,11.6131148 67.8184,11.4964809 C67.4839,11.3974426 67.1069,11.2858361 66.6954,11.1641749 C66.2799,11.0540765 65.8239,10.9530273 65.3354,10.8725902 C64.8469,10.7936612 64.3279,10.7267978 63.7879,10.6830601 C62.7084,10.5900546 61.5494,10.5654208 60.3904,10.5890492 C58.0709,10.6378142 55.7569,10.8831475 54.0314,11.1174208 C53.8154,11.1430601 53.6114,11.1893115 53.4129,11.2043934 C53.2144,11.2184699 53.0259,11.2320437 52.8489,11.2451148 C52.4949,11.2752787 52.1864,11.3019235 51.9324,11.323541 C51.6784,11.3476721 51.4784,11.3662732 51.3424,11.3793443 C51.2084,11.3919126 51.1344,11.4054863 51.1344,11.4054863" id="Fill-19" fill="#8D6A4A"/>
        <path d="M48.86145,11.6254317 C48.76195,11.6395082 53.35095,9.19874317 53.88345,7.22652459 C54.29145,5.71832787 52.84045,4.05277596 53.32045,3.64455738 C53.64095,3.3720765 54.14095,4.82195628 55.34895,5.46696175 C56.64295,6.15771585 58.45295,7.16368306 61.56295,7.60357377 C64.67345,8.04346448 67.30345,8.8920765 68.33145,10.117235 C69.35995,11.3428962 69.81195,12.6937377 69.81195,12.6937377 C69.81195,12.6937377 68.58345,10.3997705 59.74145,11.2800546 C52.98645,11.6254317 52.36995,12.6414536 51.30295,13.2804262 C50.23645,13.9188962 51.71645,11.2172131 48.86145,11.6254317 Z" id="Stroke-21" stroke="#8D6A4A" stroke-width="0.5"/>
        <path d="M46.02285,5.89559126 C46.16985,5.23600656 47.18535,4.63876066 48.64785,4.70160219 C50.58435,4.85845464 50.78485,5.84833443 50.73685,6.24096831 C50.67885,6.71655301 50.47685,7.40378798 48.24235,7.40378798 C46.33435,7.40378798 45.89085,6.48831257 46.02285,5.89559126" id="Fill-23" fill="#E2E3E4"/>
        <path d="M48.63295,7.38362842 C48.63295,7.38362842 47.91645,6.91256831 48.16645,6.01669945 C48.41545,5.12384699 49.35345,4.92677596 49.69545,4.95844809 C50.03795,4.98961749 50.28445,5.28572678 50.28445,5.28572678 C50.28445,5.28572678 50.96595,5.84375956 50.71445,6.45659016 C50.46295,7.06942077 49.50745,7.34240437 49.50745,7.34240437 C49.50745,7.34240437 48.74945,7.44646995 48.63295,7.38362842" id="Fill-25" fill="#2E374A"/>
        <path d="M52.8456,86.9117967 C52.9406,87.7935891 55.0956,88.7744197 55.0956,88.7744197 C53.7591,88.6065071 51.9071,88.0243432 51.9071,88.0243432 C52.1176,89.1967148 52.9291,89.3606055 52.9291,89.3606055 C51.9211,89.2369333 49.0541,88.8548568 48.5956,88.8578732 C48.5956,88.8578732 50.3496,89.1926929 48.0121,91.6229005 L15.4291,91.6229005 C15.1791,91.6229005 12.5706,80.4793377 13.6121,67.3238404 C14.6536,54.1693486 19.5751,41.4959716 22.9266,35.618529 C26.8176,28.7934361 33.4831,15.8430536 34.0191,14.3036874 C34.5546,12.7638186 34.8486,6.50329399 37.5801,3.39288962 C39.4781,1.23114098 42.8591,0.188474317 45.0256,0.188474317 C47.1926,0.188474317 51.7151,1.46591694 53.3206,3.64475847" id="Stroke-27" stroke="#2E374A" stroke-width="0.5"/>
        <path d="M46.01845,5.93827322 C46.16545,5.27868852 47.18095,4.68144262 48.64345,4.74428415 C50.57995,4.90113661 50.77995,5.89101639 50.73245,6.28365027 C50.67445,6.75923497 50.47245,7.44646995 48.23795,7.44646995 C46.32945,7.44646995 45.88645,6.53099454 46.01845,5.93827322 Z" id="Stroke-29" stroke="#2E374A" stroke-width="0.5"/>
        <path d="M26.3456,88.815694 C26.3456,88.815694 31.2621,89.3606557 33.6371,91.6229508" id="Stroke-31" stroke="#2E374A" stroke-width="0.5"/>
        <g id="Group-36" transform="translate(37.000000, 29.975410)">
          <path d="M0.65735,4.62448306 C0.65735,4.62448306 -0.41715,7.53228634 1.50385,11.1439148 C2.99535,13.9491607 15.95585,33.8840022 15.95585,33.8840022 C15.95585,33.8840022 18.62785,37.4654667 20.67885,38.2411825 C22.73035,39.0168984 26.51935,41.2168546 28.72035,43.9024503 C30.92085,46.5890514 31.51085,47.6156306 32.42335,47.504024 C33.33635,47.393423 32.98885,32.1772262 27.26135,22.5966579 C21.53435,13.0155869 13.16785,3.67683279 8.01835,0.070231694" id="Fill-33" fill="#3E5766"/>
          <path d="M0.65735,4.62448306 C0.65735,4.62448306 -0.41715,7.53228634 1.50385,11.1439148 C2.99535,13.9491607 15.95585,33.8840022 15.95585,33.8840022 C15.95585,33.8840022 18.62785,37.4654667 20.67885,38.2411825 C22.73035,39.0168984 26.51935,41.2168546 28.72035,43.9024503 C30.92085,46.5890514 31.51085,47.6156306 32.42335,47.504024 C33.33635,47.393423 32.98885,32.1772262 27.26135,22.5966579 C21.53435,13.0155869 13.16785,3.67683279 8.01835,0.070231694" id="Stroke-35" stroke="#2E374A" stroke-width="0.5"/>
        </g>
      </g>
    </g>
  </g>
</svg>