<svg version="1.1" width="138" height="173" viewBox="-1 -1 138 173" xmlns="http://www.w3.org/2000/svg" xmlns:xlink="http://www.w3.org/1999/xlink">
  <!-- Exported by Scratch - http://scratch.mit.edu/ -->
  <path id="Shape" fill="#000000" stroke="none" stroke-width="1" d="M 52.989 104.831 C 52.312 106.636 56.543 108.790 56.428 110.714 C 60.332 113.160 65.651 114.655 71.498 124.050 C 77.345 133.445 74.186 138.497 75.098 140.411 C 79.603 141.797 85.204 141.264 89.801 140.772 C 91.607 136.028 91.767 133.651 89.325 124.732 C 86.883 115.813 81.667 110.514 77.752 106.870 C 71.893 106.830 58.973 104.883 52.989 104.831 Z "/>
  <path id="Shape" fill="#BE0A3C" stroke="none" stroke-width="1" d="M 74.714 141.012 C 74.714 141.012 75.832 150.504 69.125 172.479 C 71.796 172.553 76.577 172.479 79.191 172.301 L 79.191 171.092 C 78.031 171.039 76.868 171.062 75.711 171.161 C 75.270 170.428 86.820 153.523 88.076 150.229 C 89.400 146.741 89.583 143.023 90.833 139.546 L 74.714 141.012 Z "/>
  <path id="Shape" fill="#FFDC00" stroke="none" stroke-width="1" d="M 71.280 154.039 L 87.468 154.039 L 90.626 144.747 L 72.043 144.747 L 71.280 154.039 "/>
  <path id="Shape" fill="#FFC800" stroke="none" stroke-width="1" d="M 91.079 142.599 L 91.532 138.600 L 71.452 138.600 L 72.008 142.599 L 91.079 142.599 "/>
  <path id="Shape" fill="#3C3C32" stroke="none" stroke-width="1" d="M 35.116 140.348 C 36.165 142.702 42.843 148.368 44.654 149.903 C 48.019 149.330 62.367 140.233 65.210 122.778 C 66.137 117.184 66.317 111.492 65.743 105.851 L 44.860 105.851 C 44.860 105.851 46.408 115.520 44.253 124.755 C 42.911 130.460 39.713 134.671 35.116 140.348 Z "/>
  <path id="Shape" fill="#BE0A3C" stroke="none" stroke-width="1" d="M 38.578 135.467 C 33.642 138.721 28.260 142.238 23.101 142.502 C 19.845 142.668 14.417 141.929 11.166 141.671 C 7.916 141.413 0.459 140.302 0.459 140.302 C 0.459 140.302 0.573 146.512 0.631 150.098 L 1.777 150.098 L 1.949 146.838 C 1.949 146.838 10.662 152.567 21.691 153.758 C 31.183 154.772 42.900 151.415 46.259 149.508 C 46.058 149.061 39.071 136.338 38.578 135.467 Z "/>
  <path id="Shape" fill="#FFDC00" stroke="none" stroke-width="1" d="M 26.179 140.348 L 33.339 155.127 L 42.292 152.292 L 34.411 135.851 L 26.179 140.348 "/>
  <path id="Shape" fill="#FFC800" stroke="none" stroke-width="1" d="M 44.425 151.759 L 48.225 150.413 L 39.438 132.368 L 36.084 134.619 L 44.425 151.759 "/>
  <path id="Shape" fill="#824600" stroke="none" stroke-width="1" d="M 21.605 12.437 C 22.430 13.009 28.053 16.693 28.438 16.126 C 28.822 15.559 32.232 8.243 32.536 7.579 C 31.372 7.521 22.820 11.457 21.605 12.437 Z "/>
  <path id="Shape" fill="#F0E6D2" stroke="none" stroke-width="1" d="M 25.858 12.230 C 23.422 10.134 18.532 9.830 15.941 10.563 C 12.366 11.674 10.004 15.071 10.209 18.807 C 10.209 18.807 10.461 26.443 18.807 26.826 C 27.154 27.210 27.979 20.960 27.979 20.960 C 27.979 20.960 29.194 15.117 25.858 12.230 Z "/>
  <path id="Shape" fill="#A0640A" stroke="none" stroke-width="1" d="M 91.056 32.022 C 90.902 25.056 86.935 16.555 82.458 11.062 C 77.603 5.035 60.400 -4.583 38.566 3.924 C 34.932 5.339 31.304 7.241 28.971 10.477 C 26.299 14.172 27.251 18.658 25.382 22.610 C 24.964 22.948 23.038 21.608 22.109 21.820 C 22.407 23.790 23.508 24.684 26.345 25.383 C 28.139 25.131 29.211 21.115 29.785 19.752 C 34.892 15.060 44.562 9.475 55.482 10.454 C 62.043 11.052 68.228 13.781 73.092 18.222 C 77.970 22.650 78.251 28.144 78.251 34.342 C 78.251 41.096 74.995 51.654 73.011 57.829 C 73.756 57.984 74.593 58.047 75.413 58.155 C 78.956 58.631 82.401 59.370 85.914 60.092 C 87.502 57.365 91.314 43.450 91.056 32.022 Z "/>
  <path id="Shape" fill="#FAB414" stroke="none" stroke-width="1" d="M 70.655 50.044 C 70.311 50.491 64.069 75.530 64.012 75.971 L 74.135 104.041 C 74.261 103.645 89.159 55.182 89.159 55.182 C 89.159 55.182 74.479 50.560 70.655 50.044 Z "/>
  <path id="Shape" fill="#A0640A" stroke="none" stroke-width="1" d="M 20.905 19.683 C 18.790 19.162 17.145 25.772 17.059 26.660 C 17.023 27.249 17.283 27.816 17.753 28.173 C 18.368 28.025 18.898 27.634 19.220 27.090 C 19.954 26.116 23.021 20.204 20.905 19.683 Z "/>
  <path id="Shape" fill="#A0640A" stroke="none" stroke-width="1" d="M 16.669 19.150 C 14.726 18.005 13.333 22.902 12.829 23.550 C 12.290 24.925 12.605 27.817 14.107 26.466 C 15.609 25.114 18.613 20.285 16.669 19.150 Z "/>
  <path id="Shape" fill="#A0640A" stroke="none" stroke-width="1" d="M 9.235 21.327 C 9.407 22.473 10.066 22.633 10.885 22.645 C 12.330 21.957 14.445 18.996 13.792 17.730 C 13.138 16.464 10.072 19.609 9.235 21.327 Z "/>
  <path id="Shape" fill="#A0640A" stroke="none" stroke-width="1" d="M 67.027 86.351 C 67.027 86.351 64.952 76.893 64.705 76.401 C 62.292 75.255 53.734 75.874 53.734 75.874 L 67.147 94.778 L 67.027 86.351 Z "/>
  <path id="Shape" fill="#E6781E" stroke="none" stroke-width="1" d="M 66.505 39.796 L 73.390 51.178 L 77.075 49.895 L 81.615 44.224 L 75.367 39.956 L 66.505 39.796 "/>
  <path id="Shape" fill="#A0640A" stroke="none" stroke-width="1" d="M 76.858 50.869 C 76.359 45.713 74.255 41.829 71.773 37.487 L 40.154 50.330 C 40.154 50.330 44.241 60.338 44.224 60.355 L 44.276 60.768 C 46.064 63.855 47.715 67.418 51.034 69.154 C 54.915 71.188 60.079 72.018 68.047 69.469 C 76.015 66.920 77.276 55.171 76.858 50.869 Z "/>
  <path id="Shape" fill="#824600" stroke="none" stroke-width="1" d="M 64.843 51.889 C 67.096 52.037 66.964 50.525 66.156 48.921 C 65.347 47.317 64.975 46.458 63.484 47.632 C 62.298 48.566 62.590 51.734 64.843 51.889 Z "/>
  <path id="Shape" fill="#000000" stroke="none" stroke-width="1" d="M 55.190 44.676 L 69.664 49.901 L 65.817 42.597 L 55.190 44.676 "/>
  <path id="Shape" fill="#000000" stroke="none" stroke-width="1" d="M 62.911 42.305 C 63.031 42.305 76.949 52.983 76.949 52.983 C 76.949 52.983 77.935 47.254 74.909 42.671 C 71.882 38.089 62.911 42.305 62.911 42.305 Z "/>
  <path id="Shape" fill="#FFDC00" stroke="none" stroke-width="1" d="M 41.845 56.620 C 42.722 56.322 53.940 49.706 59.701 46.647 C 69.113 41.652 74.484 39.372 74.484 39.372 C 74.484 39.372 71.251 33.798 65.405 31.856 C 58.721 29.656 51.074 31.060 45.411 35.161 C 41.208 38.116 38.825 43.026 39.105 48.154 C 39.191 50.359 39.736 55.177 41.845 56.620 Z "/>
  <path id="Shape" fill="#3C3C32" stroke="none" stroke-width="1" d="M 47.744 33.911 C 47.881 35.619 49.108 34.850 50.180 34.164 C 51.252 33.478 52.106 33.061 51.596 31.794 C 51.086 30.527 47.606 32.203 47.744 33.911 Z "/>
  <path id="Shape" fill="#000000" stroke="none" stroke-width="1" d="M 56.887 56.408 C 54.382 58.700 56.537 63.437 58.899 64.949 C 61.891 66.863 67.050 66.542 69.750 64.291 C 72.449 62.039 73.114 59.055 69.950 56.987 C 65.921 54.346 59.976 54.421 56.887 56.408 Z "/>
  <path id="Shape" fill="#000000" stroke="none" stroke-width="1" d="M 70.629 51.514 L 72.451 52.980 C 73.725 52.472 73.725 52.472 74.222 51.494 C 74.018 50.633 73.355 49.871 72.387 49.385 C 70.757 49.577 70.591 50.401 70.629 51.514 Z "/>
  <path id="Shape" fill="#000000" stroke="none" stroke-width="1" d="M 59.577 51.714 L 58.184 49.947 C 56.790 50.249 56.790 50.249 55.982 51.138 C 55.942 52.030 56.383 52.896 57.207 53.540 C 58.887 53.579 59.291 52.788 59.577 51.714 Z "/>
  <path id="Shape" fill="#A0640A" stroke="none" stroke-width="1" d="M 47.256 56.460 C 47.256 56.460 44.774 52.839 40.848 53.366 C 37.764 53.470 37.242 56.511 38.555 58.768 C 40.229 61.667 45.869 63.569 48.678 63.351 C 49.085 61.822 47.256 56.460 47.256 56.460 Z "/>
  <path id="Shape" fill="#FAB414" stroke="none" stroke-width="1" d="M 59.684 46.647 C 59.684 46.647 72.553 40.518 76.577 42.511 C 82.097 45.249 77.075 49.895 77.075 49.895 C 77.075 49.895 87.130 44.682 90.116 42.717 C 92.799 40.999 93.321 39.005 92.690 36.416 C 92.002 33.598 88.471 31.375 79.282 35.981 C 74.685 38.278 59.684 46.647 59.684 46.647 Z "/>
  <path id="Shape" fill="#FFDC00" stroke="none" stroke-width="1" d="M 64.012 75.971 L 63.908 84.306 L 53.734 75.874 C 53.734 75.874 44.493 77.907 42.109 86.907 C 39.724 95.906 45.147 112.376 45.147 112.376 C 45.296 112.335 81.541 110.829 81.541 110.829 C 81.541 110.829 77.803 97.722 73.991 89.061 C 71.521 83.430 64.012 75.971 64.012 75.971 Z "/>
  <path id="Shape" fill="#BE0A3C" stroke="none" stroke-width="1" d="M 42.791 110.210 L 44.127 114.501 L 83.341 111.831 L 81.718 107.449 L 42.791 110.210 "/>
  <path id="Rectangle-path" fill="#FFC800" stroke="none" stroke-width="1" d="M 64.201 107.628 L 69.434 107.628 L 69.434 113.597 L 64.201 113.597 L 64.201 107.628 Z " transform="matrix(0.9985177516937256, -0.054427362978458405, 0.054427362978458405, 0.9985177516937256, -5.9, 3.75)"/>
  <path id="Rectangle-path" fill="#000000" stroke="none" stroke-width="1" d="M 72.436 107.252 L 76.033 107.252 L 76.033 113.221 L 72.436 113.221 L 72.436 107.252 Z " transform="matrix(0.9985177516937256, -0.054427362978458405, 0.054427362978458405, 0.9985177516937256, -5.9, 4.15)"/>
  <path id="Rectangle-path" fill="#3C3C32" stroke="none" stroke-width="1" d="M 57.144 108.346 L 60.742 108.346 L 60.742 114.315 L 57.144 114.315 L 57.144 108.346 Z " transform="matrix(0.9985177516937256, -0.054427362978458405, 0.054427362978458405, 0.9985177516937256, -6, 3.25)"/>
  <path id="Rectangle-path" fill="#3C3C32" stroke="none" stroke-width="1" d="M 48.189 109.021 L 51.786 109.021 L 51.786 114.990 L 48.189 114.990 L 48.189 109.021 Z " transform="matrix(0.9985177516937256, -0.054427362978458405, 0.054427362978458405, 0.9985177516937256, -6.05, 2.8)"/>
  <path id="Rectangle-path" fill="#000000" stroke="none" stroke-width="1" d="M 77.762 106.997 L 81.360 106.997 L 81.360 112.966 L 77.762 112.966 L 77.762 106.997 Z " transform="matrix(0.9985177516937256, -0.054427362978458405, 0.054427362978458405, 0.9985177516937256, -5.9, 4.45)"/>
  <path id="Shape" fill="#A0640A" stroke="none" stroke-width="1" d="M 101.667 91.381 C 96.278 91.633 75.212 90.155 69.818 90.034 C 64.424 89.914 44.998 89.227 44.998 89.227 L 47.549 101.085 C 47.549 101.085 97.167 97.888 103.896 97.247 C 104.005 96.324 101.965 91.541 101.667 91.381 Z "/>
  <path id="Shape" fill="#BE0A3C" stroke="none" stroke-width="1" d="M 128.344 108.446 C 134.724 104.390 138.662 96.021 135.739 88.751 C 134.369 85.314 132.873 82.673 129.044 81.877 C 127.003 81.470 124.928 81.619 123.065 80.588 C 121.374 79.649 120.726 76.853 117.184 75.822 C 114.725 75.106 108.190 79.093 104.378 82.628 C 103.111 83.808 99.362 88.093 99.540 90.218 C 99.781 93.082 100.320 101.050 100.320 101.050 C 100.320 101.050 107.479 108.056 111.922 109.643 C 119.328 112.358 125.897 109.987 128.344 108.446 Z "/>
  <path id="Shape" fill="#6E1E3C" stroke="none" stroke-width="1" d="M 105.008 88.041 C 103.558 87.760 101.477 89.152 101.477 89.152 L 103.197 100.609 C 103.197 100.609 105.490 101.990 106.373 100.741 C 106.493 99.349 105.754 89.542 105.008 88.041 Z "/>
  <path id="Shape" fill="#6E1E3C" stroke="none" stroke-width="1" d="M 123.162 91.020 C 123.162 91.020 127.318 87.795 122.830 82.805 C 118.342 77.816 114.088 77.151 111.400 82.450 C 108.712 87.749 118.898 92.080 123.162 91.020 Z "/>
  <path id="Shape" fill="#FAB414" stroke="none" stroke-width="1" d="M 64.281 101.967 L 63.828 87.502 L 41.845 87.502 C 41.845 87.502 40.636 90.218 41.089 95.792 C 41.541 101.365 43.198 104.528 43.198 104.528 L 64.281 101.967 Z "/>
</svg>