<svg width="78px" height="127px" viewBox="0 0 78 127" version="1.1" xml:space="preserve" xmlns="http://www.w3.org/2000/svg" xmlns:xlink="http://www.w3.org/1999/xlink">
  <!-- Generator: Sketch 50.2 (55047) - http://www.bohemiancoding.com/sketch -->
  <defs/>
  <g>
    <title>Slice 1</title>
    <desc>Created with Sketch.</desc>
    <g id="Page-1" stroke="none" stroke-width="1" fill="none" fill-rule="evenodd">
      <g id="pumpkin-costume-[people,fashion]">
        <g id="Background" transform="translate(0.000000, 11.200000)">
          <path d="M16.1989286,54.502 C18.2325,42.28 16.38,29.582 13.6639286,12.432 C13.0092857,8.316 12.6192857,4.522 12.3964286,1.232 C9.87540979,1.34111027 7.35109359,1.11515749 4.88892857,0.56 C4.88892857,0.56 6.78321429,15.232 8.35714286,25.634 C9.75,35.238 10.0842857,45.5 6.56035714,56.252 C2.31214286,69.202 -3.56571429,89.404 7.29857143,102.452 C8.85310836,104.338538 10.6093838,106.047482 12.5357143,107.548 C5.11178571,91.714 14.1932143,66.472 16.1989286,54.502 Z" id="Shape" fill="#F03922" fill-rule="nonzero"/>
          <path d="M61.815,54.502 C59.7814286,42.28 61.6339286,29.582 64.35,12.432 C65.0046429,8.316 65.3946429,4.522 65.6175,1.232 C63.1757849,1.19513111 60.7404583,0.970475013 58.3328571,0.56 C58.2694507,5.23232403 57.3241437,9.85007556 55.5471429,14.168 C51.1495655,11.947394 47.5262446,8.43730343 45.1564286,4.102 C44.1655336,8.65040404 42.0479228,12.8736357 39,16.38 C35.9629889,12.8612164 33.8596907,8.62823192 32.8853571,4.074 C30.5155411,8.40930343 26.8922202,11.919394 22.4946429,14.14 C20.717642,9.82207556 19.772335,5.20432403 19.7089286,0.532 C17.3060877,0.943072742 14.8753445,1.1677356 12.4382143,1.204 C12.6610714,4.522 13.0510714,8.316 13.7057143,12.404 C16.4217857,29.554 18.2742857,42.252 16.2407143,54.474 C14.235,66.444 5.09785714,91.686 12.5357143,107.52 C20.6142857,113.806 29.4589286,113.806 39,113.806 C48.5410714,113.806 57.4414286,113.806 65.4642857,107.492 C72.8882143,91.686 63.8207143,66.472 61.815,54.502 Z" id="Shape" fill="#F05822" fill-rule="nonzero"/>
          <path d="M71.4396429,56.252 C67.9157143,45.5 68.25,35.238 69.6428571,25.634 C71.2167857,15.232 73.1110714,0.532 73.1110714,0.532 C70.6536352,1.08722435 68.1339119,1.31318523 65.6175,1.204 C65.3946429,4.522 65.0046429,8.316 64.35,12.404 C61.5642857,29.554 59.7814286,42.252 61.815,54.474 C63.8207143,66.444 72.9578571,91.658 65.5339286,107.492 C67.4355914,106.002882 69.1685131,104.308023 70.7014286,102.438 C81.5657143,89.404 75.6878571,69.202 71.4396429,56.252 Z" id="Shape" fill="#EF8225" fill-rule="nonzero"/>
          <path d="M71.4396429,56.252 C67.9157143,45.5 68.25,35.238 69.6428571,25.634 C71.2167857,15.232 73.1110714,0.532 73.1110714,0.532 C70.6536352,1.08722435 68.1339119,1.31318523 65.6175,1.204 C63.1757849,1.16713111 60.7404583,0.942475013 58.3328571,0.532 C58.2694507,5.20432403 57.3241437,9.82207556 55.5471429,14.14 C51.1495655,11.919394 47.5262446,8.40930343 45.1564286,4.074 C44.1699382,8.63232103 42.0520814,12.8656758 39,16.38 C35.9629889,12.8612164 33.8596907,8.62823192 32.8853571,4.074 C30.5155411,8.40930343 26.8922202,11.919394 22.4946429,14.14 C20.717642,9.82207556 19.772335,5.20432403 19.7089286,0.532 C17.3060877,0.943072742 14.8753445,1.1677356 12.4382143,1.204 C9.91719551,1.31311027 7.39287931,1.08715749 4.93071429,0.532 C4.93071429,0.532 6.78321429,15.232 8.35714286,25.634 C9.75,35.238 10.0842857,45.5 6.56035714,56.252 C2.31214286,69.202 -3.56571429,89.404 7.29857143,102.452 C8.85310836,104.338538 10.6093838,106.047482 12.5357143,107.548 C20.6142857,113.834 29.4589286,113.834 39,113.834 C48.5410714,113.834 57.4414286,113.834 65.4642857,107.52 C67.3659486,106.030882 69.0988702,104.336023 70.6317857,102.466 C81.5657143,89.404 75.6878571,69.202 71.4396429,56.252 Z" id="Shape" stroke="#A80054" stroke-width="1.12" stroke-linecap="round" stroke-linejoin="round"/>
          <path d="M65.5339286,31.472 C65.4085714,33.082 65.325,34.594 65.325,35.952" id="Shape" stroke="#EFC900" stroke-width="2.24" stroke-linecap="round" stroke-linejoin="round"/>
          <path d="M68.9185714,9.954 C68.9185714,9.954 67.0521429,18.676 66.0075,27.006" id="Shape" stroke="#EFC900" stroke-width="2.24" stroke-linecap="round" stroke-linejoin="round"/>
        </g>
        <g id="Green" transform="translate(2.785714, 0.000000)">
          <path d="M20.5585714,0.966 C5.48785714,3.318 0.208928571,11.774 0.208928571,11.774 C1.45752808,12.1015932 2.73646148,12.2986394 4.02535714,12.362 C9.44210918,7.96543146 15.6860953,4.71314585 22.3832143,2.8 C21.6712641,2.30267654 21.0533575,1.68160115 20.5585714,0.966 Z" id="Shape" fill="#14601E" fill-rule="nonzero"/>
          <path d="M51.87,0.966 C51.375214,1.68160115 50.7573073,2.30267654 50.0453571,2.8 C56.7424761,4.71314585 62.9864622,7.96543146 68.4032143,12.362 C69.69211,12.2986394 70.9710434,12.1015932 72.2196429,11.774 C72.2196429,11.774 66.9407143,3.318 51.87,0.966 Z" id="Shape" fill="#2EB73E" fill-rule="nonzero"/>
          <path d="M36.2142857,6.37 C28.5953571,6.37 24.4585714,4.368 22.3832143,2.8 C15.6860953,4.71314585 9.44210918,7.96543146 4.02535714,12.362 C7.96717701,12.6332147 11.9270689,12.4358495 15.8228571,11.774 C15.9047415,16.7082706 16.9161554,21.582253 18.8035714,26.138 C23.4375803,23.789737 27.2546572,20.0848787 29.7514286,15.512 C30.7867293,20.3192317 33.0093021,24.787173 36.2142857,28.504 C39.4192694,24.787173 41.6418422,20.3192317 42.6771429,15.512 C45.1739142,20.0848787 48.9909912,23.789737 53.625,26.138 C55.512416,21.582253 56.5238299,16.7082706 56.6057143,11.774 C60.5015026,12.4358495 64.4613944,12.6332147 68.4032143,12.362 C62.9864622,7.96543146 56.7424761,4.71314585 50.0453571,2.8 C47.97,4.368 43.8332143,6.37 36.2142857,6.37 Z" id="Shape" fill="#149948" fill-rule="nonzero"/>
          <path d="M51.87,0.966 C51.375214,1.68160115 50.7573073,2.30267654 50.0453571,2.8 C47.97,4.368 43.8332143,6.37 36.2142857,6.37 C28.5953571,6.37 24.4585714,4.368 22.3832143,2.8 C21.6712641,2.30267654 21.0533575,1.68160115 20.5585714,0.966 C5.48785714,3.318 0.208928571,11.774 0.208928571,11.774 C1.45752808,12.1015932 2.73646148,12.2986394 4.02535714,12.362 C7.96717701,12.6332147 11.9270689,12.4358495 15.8228571,11.774 C15.9047415,16.7082706 16.9161554,21.582253 18.8035714,26.138 C23.4375803,23.789737 27.2546572,20.0848787 29.7514286,15.512 C30.7867293,20.3192317 33.0093021,24.787173 36.2142857,28.504 C39.4192694,24.787173 41.6418422,20.3192317 42.6771429,15.512 C45.1739142,20.0848787 48.9909912,23.789737 53.625,26.138 C55.512416,21.582253 56.5238299,16.7082706 56.6057143,11.774 C60.5015026,12.4358495 64.4613944,12.6332147 68.4032143,12.362 C69.69211,12.2986394 70.9710434,12.1015932 72.2196429,11.774 C72.2196429,11.774 66.9407143,3.318 51.87,0.966 Z" id="Shape" stroke="#14601E" stroke-width="1.12" stroke-linecap="round" stroke-linejoin="round"/>
        </g>
        <polygon id="Shape" stroke="#440B39" stroke-width="1.12" fill="#440B39" fill-rule="nonzero" stroke-linecap="round" stroke-linejoin="round" points="28.9017857 38.206 23.7621429 47.152 34.0414286 47.152"/>
        <polygon id="Shape" stroke="#440B39" stroke-width="1.12" fill="#440B39" fill-rule="nonzero" stroke-linecap="round" stroke-linejoin="round" points="49.1260714 38.206 43.9864286 47.152 54.2657143 47.152"/>
        <polygon id="Shape" stroke="#5E154D" stroke-width="1.12" fill="#5E154D" fill-rule="nonzero" stroke-linecap="round" stroke-linejoin="round" points="39 57.82 34.4732143 65.702 43.5267857 65.702"/>
        <g id="Mouth-2" transform="translate(20.892857, 77.000000)" fill-rule="nonzero" stroke-width="1.4">
          <path d="M33.1917857,14.266 C35.7546429,10.486 36.5485714,6.132 36.5485714,0.616 C35.1186274,1.18008727 33.6528815,1.64778967 32.1610714,2.016 L32.1610714,4.13 C32.1610714,5.306 31.5203571,5.908 30.7682143,5.908 C30.0160714,5.908 29.3753571,5.376 29.3753571,4.13 L29.3753571,2.73 C27.8014286,3.038 26.0185714,3.318 24.0267857,3.514 L24.0267857,5.362 C24.0267857,6.538 23.3860714,7.126 22.6339286,7.126 C21.8817857,7.126 21.2410714,6.594 21.2410714,5.362 L21.2410714,3.612 C20.28,3.612 19.2910714,3.612 18.2742857,3.612 C17.2575,3.612 16.185,3.612 15.1821429,3.612 L15.1821429,5.25 C15.1821429,6.482 14.5414286,7.014 13.7892857,7.014 C13.0371429,7.014 12.3964286,6.426 12.3964286,5.25 L12.3964286,3.388 C10.4046429,3.178 8.62178571,2.898 7.04785714,2.59 L7.04785714,4.088 C7.04785714,5.334 6.39321429,5.866 5.655,5.866 C4.91678571,5.866 4.26214286,5.264 4.26214286,4.088 L4.26214286,1.946 C2.81368631,1.56942332 1.39017349,1.10183741 -3.55271368e-14,0.546 C-3.55271368e-14,6.034 0.78,10.346 3.32892857,14.154 C12.9782272,10.0383608 23.8767728,10.0383608 33.5260714,14.154 L33.1917857,14.266 Z" id="Shape" stroke="#5E154D" fill="#5E154D"/>
          <path d="M18.1071429,11.2 C12.9125766,11.1571387 7.76597685,12.2012726 2.99464286,14.266 C3.41731561,14.925933 3.88260015,15.5572883 4.3875,16.156 C5.3574463,17.2453418 6.47863039,18.1883827 7.71642857,18.956 L7.71642857,17.556 C7.71642857,16.324 8.37107143,15.792 9.10928571,15.792 C9.8475,15.792 10.5021429,16.38 10.5021429,17.556 L10.5021429,20.426 C12.434235,21.1844364 14.4659063,21.6560506 16.5332143,21.826 L16.5332143,19.74 C16.5332143,18.494 17.1739286,17.962 17.9260714,17.962 C18.6782143,17.962 19.3189286,18.55 19.3189286,19.74 L19.3189286,21.7 C21.5011025,21.5290328 23.6437026,21.0189725 25.6703571,20.188 L25.6703571,17.388 C25.6703571,16.156 26.325,15.624 27.0632143,15.624 C27.8014286,15.624 28.4560714,16.212 28.4560714,17.388 L28.4560714,18.62 C29.5710476,17.9086818 30.5833906,17.0466038 31.4646429,16.058 C31.9612558,15.467304 32.4262005,14.8504296 32.8575,14.21 C28.196806,12.2047399 23.1768399,11.1803513 18.1071429,11.2 Z" id="Shape" stroke="#440B39" fill="#440B39"/>
        </g>
      </g>
    </g>
  </g>
</svg>