<svg version="1.1" width="47" height="74" viewBox="-1 -1 47 74" xmlns="http://www.w3.org/2000/svg" xmlns:xlink="http://www.w3.org/1999/xlink">
  <!-- Exported by Scratch - http://scratch.mit.edu/ -->
  <g id="hatchling-c" transform="matrix(1, 0, 0, 1, -15, 0)">
    <g id="Group-2">
      <g id="Group">
        <path id="Stroke-1" fill="none" stroke="#E54529" stroke-width="0.8" stroke-linecap="round" d="M 13.097 39.979 L 13.097 28.146 " transform="matrix(1, 0, 0, 1, 27, 10.8)"/>
        <path id="Stroke-2" fill="none" stroke="#E54529" stroke-width="0.8" stroke-linecap="round" d="M 20.564 39.979 L 20.564 28.146 " transform="matrix(1, 0, 0, 1, 27, 10.8)"/>
        <path id="Fill-3" fill="#FECB43" stroke="none" stroke-width="1" d="M 13.231 17.668 C 13.231 21.295 10.298 24.236 6.681 24.236 C 3.064 24.236 0.131 21.295 0.131 17.668 L 13.231 17.668 Z " transform="matrix(1, 0, 0, 1, 27, 10.8)"/>
        <path id="Fill-5" fill="#FECB43" stroke="none" stroke-width="1" d="M 33.681 17.668 C 33.681 21.295 30.748 24.236 27.131 24.236 C 23.514 24.236 20.581 21.295 20.581 17.668 L 33.681 17.668 Z " transform="matrix(1, 0, 0, 1, 27, 10.8)"/>
        <path id="Fill-7" fill="#FFDB5D" stroke="none" stroke-width="1" d="M 25.354 24.189 L 20.620 17.553 L 13.462 17.553 L 8.899 24.328 C 8.866 24.374 8.836 24.422 8.804 24.469 L 8.664 24.677 L 8.669 24.678 C 8.281 25.326 8.040 26.071 8.003 26.865 C 7.874 29.597 10.046 31.854 12.742 31.854 C 13.757 31.854 14.696 31.534 15.467 30.989 C 16.486 30.268 17.876 30.268 18.895 30.989 C 19.665 31.534 20.604 31.854 21.619 31.854 C 24.316 31.854 26.488 29.597 26.359 26.865 C 26.312 25.862 25.939 24.939 25.354 24.189 " transform="matrix(1, 0, 0, 1, 27, 10.8)"/>
        <path id="Fill-9" fill="#FFDB5D" stroke="none" stroke-width="1" d="M 24.573 12.010 C 24.573 16.219 21.170 19.632 16.972 19.632 C 12.774 19.632 9.372 16.219 9.372 12.010 C 9.372 7.801 12.774 4.389 16.972 4.389 C 21.170 4.389 24.573 7.801 24.573 12.010 " transform="matrix(1, 0, 0, 1, 27, 10.8)"/>
        <path id="Fill-11" fill="#FFF4E3" stroke="none" stroke-width="1" d="M 15.638 12.010 C 15.638 13.736 14.243 15.135 12.522 15.135 C 10.801 15.135 9.406 13.736 9.406 12.010 C 9.406 10.284 10.801 8.886 12.522 8.886 C 14.243 8.886 15.638 10.284 15.638 12.010 " transform="matrix(1, 0, 0, 1, 27, 10.8)"/>
        <path id="Fill-13" fill="#17242D" stroke="none" stroke-width="1" d="M 14.556 12.010 C 14.556 13.137 13.645 14.049 12.522 14.049 C 11.399 14.049 10.489 13.137 10.489 12.010 C 10.489 10.884 11.399 9.971 12.522 9.971 C 13.645 9.971 14.556 10.884 14.556 12.010 " transform="matrix(1, 0, 0, 1, 27, 10.8)"/>
        <path id="Fill-15" fill="#FFF4E3" stroke="none" stroke-width="1" d="M 24.497 12.010 C 24.497 13.736 23.102 15.135 21.380 15.135 C 19.660 15.135 18.264 13.736 18.264 12.010 C 18.264 10.284 19.660 8.886 21.380 8.886 C 23.102 8.886 24.497 10.284 24.497 12.010 " transform="matrix(1, 0, 0, 1, 27, 10.8)"/>
        <path id="Fill-17" fill="#17242D" stroke="none" stroke-width="1" d="M 23.414 12.010 C 23.414 13.137 22.504 14.049 21.381 14.049 C 20.257 14.049 19.347 13.137 19.347 12.010 C 19.347 10.884 20.257 9.971 21.381 9.971 C 22.504 9.971 23.414 10.884 23.414 12.010 " transform="matrix(1, 0, 0, 1, 27, 10.8)"/>
        <path id="Fill-19" fill="#AD2C24" stroke="none" stroke-width="1" d="M 16.931 10.575 L 15.121 13.719 L 18.741 13.719 L 16.931 10.575 " transform="matrix(1, 0, 0, 1, 27, 10.8)"/>
        <path id="Fill-21" fill="#E54529" stroke="none" stroke-width="1" d="M 16.906 16.852 L 15.096 13.708 L 18.716 13.708 L 16.906 16.852 " transform="matrix(1, 0, 0, 1, 27, 10.8)"/>
        <path id="Stroke-23" fill="none" stroke="#FFDB5D" stroke-width="0.8" d="M 18.431 5.033 C 17.106 5.033 16.031 3.955 16.031 2.626 C 16.031 1.298 17.106 0.220 18.431 0.220 " transform="matrix(1, 0, 0, 1, 27, 10.8)"/>
      </g>
      <path id="Fill-25" fill="#FFF4E3" stroke="none" stroke-width="1" d="M 41.531 60.385 C 41.531 58.324 41.139 55.749 40.440 53.082 L 37.631 58.379 L 33.831 52.463 L 30.331 58.780 L 26.031 52.563 L 21.931 58.780 L 18.223 53.075 C 17.524 55.745 17.131 58.323 17.131 60.385 C 17.131 67.141 22.593 72.618 29.331 72.618 C 36.069 72.618 41.531 67.141 41.531 60.385 " transform="matrix(1, 0, 0, 1, 15, 0)"/>
      <path id="Fill-27" fill="#FFF4E3" stroke="none" stroke-width="1" d="M 1.629 1.633 C -1.863 5.135 0.791 13.823 4.600 20.365 L 11.245 21.770 L 9.761 14.467 L 17.185 15.814 L 15.205 8.865 L 22.064 10.354 L 20.316 4.616 C 13.791 0.794 5.122 -1.870 1.629 1.633 " transform="matrix(1, 0, 0, 1, 15, 0)"/>
    </g>
  </g>
</svg>