<svg version="1.1" width="76" height="71" viewBox="-1 -1 76 71" xmlns="http://www.w3.org/2000/svg" xmlns:xlink="http://www.w3.org/1999/xlink">
  <!-- Exported by Scratch - http://scratch.mit.edu/ -->
  <g id="ID0.48194899037480354" transform="matrix(1, 0, 0, 1, 0, 0.25)">
    <g id="hen-c">
      <g id="Group">
        <path id="Stroke-5" fill="none" stroke="#FFDB5D" stroke-width="1.05" d="M 0.494 0.132 L 19.810 20.726 " transform="matrix(1, 0, 0, 1, 34.85, 48.7)"/>
        <path id="Stroke-7" fill="none" stroke="#FFDB5D" stroke-width="1.05" d="M 28.560 20.726 C 26.402 20.726 26.402 18.614 24.244 18.614 C 22.086 18.614 22.086 20.726 19.929 20.726 C 17.769 20.726 17.769 18.614 15.611 18.614 C 13.451 18.614 13.451 20.726 11.292 20.726 " transform="matrix(1, 0, 0, 1, 34.85, 48.7)"/>
        <path id="Fill-9" fill="#FFF4E3" stroke="none" stroke-width="1" d="M 10.334 1.364 L 10.334 9.298 C 10.334 10.398 9.018 10.948 8.247 10.171 L 0.044 1.892 L 10.334 1.364 Z " transform="matrix(1, 0, 0, 1, 34.85, 48.7)"/>
      </g>
      <g id="Group-2">
        <path id="Stroke-1" fill="none" stroke="#FFDB5D" stroke-width="1.05" d="M 8.763 6.821 L 8.763 19.670 " transform="matrix(1, 0, 0, 1, 21.95, 49.75)"/>
        <path id="Stroke-3" fill="none" stroke="#FFDB5D" stroke-width="1.05" d="M 17.514 19.670 C 15.355 19.670 15.355 17.558 13.197 17.558 C 11.039 17.558 11.039 19.670 8.882 19.670 C 6.723 19.670 6.723 17.558 4.564 17.558 C 2.405 17.558 2.405 19.670 0.246 19.670 " transform="matrix(1, 0, 0, 1, 21.95, 49.75)"/>
        <path id="Fill-11" fill="#FFF4E3" stroke="none" stroke-width="1" d="M 7.587 0.308 L 7.587 8.242 C 7.587 9.342 8.904 9.892 9.674 9.115 L 17.878 0.836 L 7.587 0.308 Z " transform="matrix(1, 0, 0, 1, 21.95, 49.75)"/>
      </g>
      <g id="Group-4">
        <path id="Fill-13" fill="#FFF4E3" stroke="none" stroke-width="1" d="M 69.332 18.321 C 69.332 36.338 54.859 50.943 37.006 50.943 C 19.153 50.943 4.680 36.338 4.680 18.321 L 69.332 18.321 Z " transform="matrix(1, 0, 0, 1, 0, 2.6)"/>
        <path id="Fill-15" fill="#FFF4E3" stroke="none" stroke-width="1" d="M 13.270 26.990 L 25.801 25.996 C 25.962 24.908 26.046 23.796 26.046 22.663 C 26.046 10.284 16.103 0.249 3.837 0.249 C 2.594 0.249 1.375 0.358 0.187 0.556 L 7.384 7.818 L 0.116 7.818 L 5.843 13.598 L 0 13.598 L 13.270 26.990 Z " transform="matrix(1, 0, 0, 1, 0, 2.6)"/>
        <path id="Fill-17" fill="#FFF4E3" stroke="none" stroke-width="1" d="M 70.465 12.673 L 68.765 24.423 L 49.753 18.482 C 49.753 18.482 55.858 4.048 67.893 4.048 L 70.465 12.673 Z " transform="matrix(1, 0, 0, 1, 0, 2.6)"/>
        <path id="Fill-19" fill="#F3E4CE" stroke="none" stroke-width="1" d="M 57.703 18.321 C 57.703 29.857 48.437 39.209 37.006 39.209 C 28.741 39.209 21.607 34.319 18.290 27.251 L 30.785 27.251 L 17.093 18.321 L 57.703 18.321 Z " transform="matrix(1, 0, 0, 1, 0, 2.6)"/>
      </g>
      <g id="Group-3">
        <path id="Fill-21" fill="#E8441D" stroke="none" stroke-width="1" d="M 12.820 10.950 C 12.820 14.284 10.142 16.986 6.839 16.986 C 3.535 16.986 0.857 14.284 0.857 10.950 C 0.857 7.616 3.535 4.914 6.839 4.914 C 10.142 4.914 12.820 7.616 12.820 10.950 " transform="matrix(1, 0, 0, 1, 61.35, 0.5)"/>
        <path id="Fill-23" fill="#CE2235" stroke="none" stroke-width="1" d="M 11.185 17.217 C 11.185 19.665 9.218 21.651 6.791 21.651 C 4.365 21.651 2.399 19.665 2.399 17.217 C 2.399 14.769 4.365 12.783 6.791 12.783 C 9.218 12.783 11.185 14.769 11.185 17.217 " transform="matrix(1, 0, 0, 1, 61.35, 0.5)"/>
        <path id="Fill-25" fill="#FFF4E3" stroke="none" stroke-width="1" d="M 5.675 10.950 C 5.675 12.465 4.459 13.692 2.958 13.692 C 1.457 13.692 0.240 12.465 0.240 10.950 C 0.240 9.435 1.457 8.207 2.958 8.207 C 4.459 8.207 5.675 9.435 5.675 10.950 " transform="matrix(1, 0, 0, 1, 61.35, 0.5)"/>
        <path id="Fill-27" fill="#17242D" stroke="none" stroke-width="1" d="M 4.731 10.950 C 4.731 11.939 3.937 12.739 2.958 12.739 C 1.978 12.739 1.184 11.939 1.184 10.950 C 1.184 9.961 1.978 9.160 2.958 9.160 C 3.937 9.160 4.731 9.961 4.731 10.950 " transform="matrix(1, 0, 0, 1, 61.35, 0.5)"/>
        <path id="Fill-29" fill="#FFF4E3" stroke="none" stroke-width="1" d="M 13.401 10.950 C 13.401 12.465 12.184 13.692 10.683 13.692 C 9.182 13.692 7.965 12.465 7.965 10.950 C 7.965 9.435 9.182 8.207 10.683 8.207 C 12.184 8.207 13.401 9.435 13.401 10.950 " transform="matrix(1, 0, 0, 1, 61.35, 0.5)"/>
        <path id="Fill-32" fill="#17242D" stroke="none" stroke-width="1" d="M 12.456 10.950 C 12.456 11.939 11.662 12.739 10.683 12.739 C 9.703 12.739 8.909 11.939 8.909 10.950 C 8.909 9.961 9.703 9.160 10.683 9.160 C 11.662 9.160 12.456 9.961 12.456 10.950 " transform="matrix(1, 0, 0, 1, 61.35, 0.5)"/>
        <path id="Stroke-34" fill="none" stroke="#CE2235" stroke-width="0.7" stroke-linecap="round" d="M 6.831 10.385 L 6.831 0 " transform="matrix(1, 0, 0, 1, 61.35, 0.5)"/>
        <path id="Fill-36" fill="#FFDB5D" stroke="none" stroke-width="1" d="M 8.953 13.554 L 7.902 11.067 C 7.500 10.118 6.167 10.120 5.767 11.070 L 4.724 13.554 L 8.953 13.554 Z " transform="matrix(1, 0, 0, 1, 61.35, 0.5)"/>
      </g>
    </g>
  </g>
</svg>