<svg width="114px" height="98px" viewBox="0 0 114 98" version="1.1" xml:space="preserve" xmlns="http://www.w3.org/2000/svg" xmlns:xlink="http://www.w3.org/1999/xlink">
  <defs/>
  <g>
    <title>hare-a</title>
    <desc>Created with Sketch.</desc>
    <g id="hare-a" stroke="none" stroke-width="1" fill="none" fill-rule="evenodd">
      <g id="Group" transform="translate(30.000000, 0.000000)">
        <g id="Group-4" transform="translate(13.023256, 70.243285)">
          <path d="M0.199451163,26.6543775 C3.7268,27.4656358 29.0134047,26.6543775 29.0134047,26.6543775 C29.0134047,26.6543775 31.2924744,24.9773444 30.4785209,22.7603377 C29.6645674,20.5433311 25.5837302,21.5038609 23.7930326,21.8283642 C22.0023349,22.1528675 13.2767535,23.571596 13.2767535,23.571596 C13.2767535,23.571596 25.8116372,17.8927881 23.966893,7.99543709 C22.1221488,-1.90191391 14.1994512,-0.874536424 7.57907907,4.42590066" id="Fill-1" fill="#D9E2F3"/>
          <path d="M0.199451163,26.6543775 C3.7268,27.4656358 29.0134047,26.6543775 29.0134047,26.6543775 C29.0134047,26.6543775 31.2924744,24.9773444 30.4785209,22.7603377 C29.6645674,20.5433311 25.5837302,21.5038609 23.7930326,21.8283642 C22.0023349,22.1528675 13.2767535,23.571596 13.2767535,23.571596 C13.2767535,23.571596 25.8116372,17.8927881 23.966893,7.99543709 C22.1221488,-1.90191391 14.1994512,-0.874536424 7.57907907,4.42590066" id="Stroke-3" stroke="#738CB5" stroke-width="0.5"/>
        </g>
        <path d="M40.0323163,93.0378252 C40.0245023,93.0365272 40.1124093,93.0579444 40.2328744,93.1092159 C40.3546419,93.1591894 40.523293,93.2377192 40.7075721,93.3623285 C40.895107,93.4817457 41.0937116,93.6556795 41.2649674,93.8743947 C41.3528744,93.9827788 41.4284093,94.1047921 41.4896186,94.2365404 C41.5612465,94.3624477 41.5925023,94.5097722 41.6387349,94.6454146 C41.6556651,94.788845 41.6966884,94.9296795 41.6908279,95.0698649 C41.6836651,95.2100503 41.7018977,95.3482887 41.6719442,95.4767921 C41.6419907,95.7389907 41.5749209,95.9719841 41.5098047,96.1679841 C41.4531535,96.3665801 41.3658977,96.5177987 41.3242233,96.6294278 C41.2766884,96.7384609 41.2493395,96.8014146 41.2493395,96.8014146 C41.2493395,96.8014146 41.2695256,96.7358649 41.3046884,96.6216397 C41.3339907,96.5061166 41.4023628,96.349057 41.4362233,96.1478649 C41.4778977,95.9486199 41.5176186,95.7169245 41.5176186,95.467057 C41.5332465,95.3430967 41.5000372,95.2158914 41.4928744,95.0880371 C41.4844093,94.9595338 41.431014,94.8375205 41.4036651,94.7135603 C41.3483163,94.5980371 41.3098977,94.4760238 41.2356651,94.3754278 C41.1712,94.2683417 41.0963163,94.1742358 41.0116651,94.0911629 C40.8475721,93.9250172 40.6665488,93.7978119 40.4972465,93.7153881 C40.1547349,93.5388583 39.919014,93.510951 39.9183628,93.510951 L40.0323163,93.0378252 Z" id="Fill-5" fill="#738CB5"/>
        <g id="Group-10" transform="translate(29.302326, 0.150570)">
          <path d="M9.41047442,34.5520742 C9.41047442,34.5520742 4.51307907,28.4540079 1.50991628,18.1127364 C-1.49324651,7.77081589 1.84331163,1.73245828 2.79856744,0.241690066 C2.79856744,0.241690066 15.5515907,13.5145245 11.464893,33.4026834" id="Fill-7" fill="#FFFEF9"/>
          <path d="M9.41047442,34.5520742 C9.41047442,34.5520742 4.51307907,28.4540079 1.50991628,18.1127364 C-1.49324651,7.77081589 1.84331163,1.73245828 2.79856744,0.241690066 C2.79856744,0.241690066 15.5515907,13.5145245 11.464893,33.4026834" id="Stroke-9" stroke="#738CB5" stroke-width="0.5"/>
        </g>
        <g id="Group-14" transform="translate(37.767442, 61.157192)">
          <path d="M10.8985116,0.477928477 C10.8171163,3.64183576 7.34381395,11.2754517 7.34381395,11.2754517 L13.3403721,32.6848821 C13.3403721,32.6848821 15.3752558,31.7113722 17.0305116,32.5226305 C18.6851163,33.3338887 17.3827907,35.8215311 17.3827907,35.8215311 L10.0031628,35.8215311 L0.289767442,12.9174384 C0.289767442,12.9174384 1.75488372,10.5375311 1.29386047,7.80651126" id="Fill-11" fill="#D9E2F3"/>
          <path d="M10.8985116,0.477928477 C10.8171163,3.64183576 7.34381395,11.2754517 7.34381395,11.2754517 L13.3403721,32.6848821 C13.3403721,32.6848821 15.3752558,31.7113722 17.0305116,32.5226305 C18.6851163,33.3338887 17.3827907,35.8215311 17.3827907,35.8215311 L10.0031628,35.8215311 L0.289767442,12.9174384 C0.289767442,12.9174384 1.75488372,10.5375311 1.29386047,7.80651126" id="Stroke-13" stroke="#738CB5" stroke-width="0.5"/>
        </g>
        <path d="M52.7004279,94.4581762 C52.6919628,94.4516861 52.8150326,94.6022556 52.9335442,94.832004 C53.0019163,94.9429841 53.0540093,95.0870636 53.1217302,95.2317921 C53.1705674,95.3862556 53.2343814,95.5452623 53.2669395,95.712706 C53.2916837,95.8820967 53.3431256,96.0430503 53.3333581,96.204653 C53.3281488,96.3636596 53.3541953,96.5083881 53.3222884,96.6323483 C53.2786605,96.8750768 53.2493581,97.0373285 53.2493581,97.0373285 C53.2493581,97.0373285 53.2480558,96.8744278 53.2461023,96.6304013 C53.2552186,96.5103351 53.2024744,96.3720967 53.1803349,96.2267192 C53.1627535,96.0787457 53.0839628,95.9340172 53.0344744,95.7873417 C52.9771721,95.6419642 52.8905674,95.5076199 52.8228465,95.3804146 C52.7362419,95.2609974 52.6685209,95.1441762 52.5897302,95.0585073 C52.4458233,94.8748384 52.3383814,94.7891695 52.3344744,94.7800834 L52.7004279,94.4581762 Z" id="Fill-15" fill="#738CB5"/>
        <path d="M54.6965023,94.2052583 C54.6906419,94.1955232 54.7512,94.3804901 54.7778977,94.6374967 C54.8013395,94.765351 54.7974326,94.9191656 54.8078512,95.0781722 C54.7980837,95.2397748 54.8000372,95.4104636 54.7694326,95.5785563 C54.7303628,95.745351 54.7199442,95.9147417 54.6522233,96.0607682 C54.5903628,96.2074437 54.5617116,96.3521722 54.4868279,96.4560132 C54.3578977,96.6662914 54.2719442,96.8071258 54.2719442,96.8071258 L54.4165023,96.4268079 C54.4685953,96.3177748 54.4698977,96.1698013 54.5018047,96.0270199 C54.5395721,95.8829404 54.5180837,95.7193907 54.5252465,95.5649272 C54.5245953,95.4085166 54.4926884,95.251457 54.4757581,95.1086755 C54.4379907,94.966543 54.4178047,94.8328477 54.3754791,94.7244636 C54.3077581,94.5012053 54.2387349,94.3824371 54.2380837,94.372702 L54.6965023,94.2052583 Z" id="Fill-17" fill="#738CB5"/>
        <path d="M24.762093,84.7832397 C31.3824651,79.4828026 32.1417209,78.238657 32.1417209,78.238657 C33.9864651,88.1360079 21.4522326,93.8148159 21.4522326,93.8148159 C21.4522326,93.8148159 30.1771628,92.3960874 31.9678605,92.0715841 C33.7585581,91.7470808 37.8393953,90.786551 38.6533488,93.0035576 C39.4673023,95.2205642 37.1882326,96.8975974 37.1882326,96.8975974 C37.1882326,96.8975974 11.9016279,97.7088556 8.37427907,96.8975974 C4.84693023,96.0863391 2.18823256,90.299796 2.67660465,82.2949483 C3.16497674,74.2901007 5.87837209,68.1251868 13.3126977,63.6898755 C20.7463721,59.2545642 19.5527907,59.5797166 21.885907,55.8479285 C24.2190233,52.1161404 25.5760465,50.7642596 28.3434884,48.4382199 C31.1109302,46.1121801 32.7388372,44.5986967 32.7388372,44.5986967 C32.7388372,44.5986967 33.3274884,44.037306 31.762093,39.0821404 C30.513814,35.1335841 34.5191163,32.7614649 38.0432093,31.7808159 C41.1766047,30.908551 43.2759535,31.2220212 45.4462791,31.9962861 C46.6313953,32.4187894 49.105814,33.3157166 49.4385581,34.8635974 C49.7993023,36.5445245 49.3571628,36.8508556 51.4057209,38.0002464 C53.9921395,39.4507762 54.2812558,39.5890146 54.2812558,39.5890146 C54.2812558,39.5890146 53.9556744,41.0492795 53.3592093,42.5432927 C53.1944651,42.9560609 52.4254419,44.6713854 49.2796744,45.2574384 C46.770093,45.7240742 46.3045116,46.1673457 44.5548372,46.8565907 C43.1177209,47.4225245 48.0411628,57.470445 47.7696279,56.2808159 C47.7696279,56.2808159 48.8551163,63.9605113 43.8626512,69.2609483 C38.870186,74.5613854 24.762093,84.7832397 24.762093,84.7832397" id="Fill-19" fill="#FFFEF9"/>
        <path d="M44.5551628,46.8563311 L43.2469767,46.8563311 C48.8912558,59.579457 46.0652093,69.9642119 31.9525581,77.3544503 C32.1433488,77.2382781 32.3230698,80.4969404 32.3230698,80.4969404 C32.3230698,80.4969404 46.3452093,73.2358543 48.4627907,63.5961589 C50.5139535,54.2582517 44.5551628,46.8563311 44.5551628,46.8563311" id="Fill-21" fill="#D9E2F3"/>
        <g id="Group-26" transform="translate(0.000000, 87.766464)">
          <path d="M2.87306047,0.12934702 C2.87306047,0.12934702 -0.687497674,1.26251258 0.478734884,5.34541325 C1.62347907,9.35173113 8.12989767,9.23945298 8.12989767,9.23945298 L10.2429209,9.34134702" id="Fill-23" fill="#FFFEF9"/>
          <path d="M2.87306047,0.12934702 C2.87306047,0.12934702 -0.687497674,1.26251258 0.478734884,5.34541325 C1.62347907,9.35173113 8.12989767,9.23945298 8.12989767,9.23945298 L10.2429209,9.34134702" id="Stroke-25" stroke="#738CB5" stroke-width="0.5"/>
        </g>
        <path d="M37.6766047,42.9761801 C37.9481395,44.1658093 39.4132558,47.0324715 42.7843256,46.885147 C45.7985581,46.7540477 46.770093,45.7240742 49.2796744,45.2574384 C52.4254419,44.6713854 53.1944651,42.9560609 53.3585581,42.5432927 C53.9556744,41.0492795 54.2812558,39.5890146 54.2812558,39.5890146 C54.2812558,39.5890146 53.9921395,39.4507762 51.4050698,38.0002464 C49.3565116,36.8508556 49.7993023,36.5445245 49.437907,34.8635974 C49.105814,33.3157166 46.6313953,32.4187894 45.4462791,31.9962861 C43.2759535,31.2220212 41.1766047,30.908551 38.0425581,31.7808159 C34.5191163,32.7614649 30.513814,35.1335841 31.762093,39.0821404 C33.3274884,44.037306 32.7388372,44.5986967 32.7388372,44.5986967 C32.7388372,44.5986967 31.1109302,46.1121801 28.3434884,48.4382199 C25.5760465,50.7642596 24.2190233,52.1161404 21.885907,55.8479285 C19.5527907,59.5797166 20.7463721,59.2545642 13.3120465,63.6898755 C5.87837209,68.1251868 3.16497674,74.2901007 2.67660465,82.2949483 C2.18823256,90.299796 4.84693023,96.0863391 8.37427907,96.8975974 C11.9016279,97.7088556 37.1882326,96.8975974 37.1882326,96.8975974 C37.1882326,96.8975974 39.4673023,95.2205642 38.6533488,93.0035576 C37.8393953,90.786551 33.7585581,91.7470808 31.9678605,92.0715841 C30.1771628,92.3960874 21.4515814,93.8148159 21.4515814,93.8148159 C21.4515814,93.8148159 33.9864651,88.1360079 32.1417209,78.238657 C30.2969767,68.341306 22.3742791,69.3686834 15.753907,74.6691205" id="Stroke-27" stroke="#738CB5" stroke-width="0.5"/>
        <path d="M44.4505209,46.6959616 C44.4505209,46.7569682 50.0895907,54.3944781 48.8686605,61.6555642 C47.7304279,68.4234053 44.4915442,72.8308093 32.322614,80.4968755" id="Stroke-29" stroke="#738CB5" stroke-width="0.5"/>
        <path d="M34.2843721,93.0334119 C34.275907,93.0334119 34.3670698,93.0470411 34.4933953,93.0892265 C34.6210233,93.1340079 34.8020465,93.1982596 34.9954419,93.336498 C35.0898605,93.4033457 35.1933953,93.4851205 35.2773953,93.5948026 C35.3698605,93.6973457 35.4343256,93.8316901 35.4903256,93.9692795 C35.528093,94.115306 35.5586977,94.2639285 35.5443721,94.4132 C35.5547907,94.5657166 35.496186,94.703306 35.4714419,94.8473854 C35.4265116,94.9843258 35.3653023,95.1128291 35.3145116,95.2419815 C35.2454884,95.3613987 35.1784186,95.4788689 35.1126512,95.592445 C35.0527442,95.7086172 34.9674419,95.8027232 34.9003721,95.9000742 C34.8293953,95.9941801 34.7629767,96.0843921 34.7011163,96.1668159 C34.4295814,96.475743 34.2485581,96.6814781 34.2485581,96.6814781 C34.2485581,96.6814781 34.4048372,96.4575709 34.6392558,96.1226834 C34.6906977,96.0350675 34.7460465,95.9396636 34.8046512,95.8384185 C34.86,95.7365245 34.9322791,95.6365775 34.9772093,95.5184583 C35.0273488,95.4035841 35.0787907,95.2854649 35.1308837,95.1647497 C35.1647442,95.0401404 35.2083721,94.9148821 35.2337674,94.7896238 C35.2396279,94.6630675 35.28,94.5358623 35.2546047,94.4183921 C35.2539535,94.2963788 35.2142326,94.1899417 35.1784186,94.0893457 C35.1250233,93.9971868 35.0742326,93.9102199 34.9993488,93.8459682 C34.9335814,93.7765245 34.8515349,93.725253 34.7753488,93.6837166 C34.6236279,93.5973987 34.471907,93.5617033 34.3709767,93.5389881 C34.2674419,93.5162728 34.2212093,93.5175709 34.2133953,93.5149748 L34.2843721,93.0334119 Z" id="Fill-31" fill="#738CB5"/>
        <path d="M36.4340558,92.3856384 C36.4255907,92.3856384 36.5323814,92.3999166 36.6847535,92.4511881 C36.8377767,92.5031086 37.0578698,92.5790424 37.2890326,92.741943 C37.4036372,92.8217709 37.5273581,92.9184728 37.6282884,93.0482742 C37.7402884,93.1702874 37.8177767,93.329943 37.8854977,93.4934927 C37.9317302,93.6667775 37.9708,93.8439563 37.9545209,94.0243801 C37.9688465,94.208049 37.8998233,94.3754927 37.8718233,94.5500755 C37.8190791,94.7168702 37.7454977,94.8739298 37.6842884,95.0322874 C37.6074512,95.1822079 37.5208465,95.3230424 37.4433581,95.4619298 C37.3704279,95.6047113 37.2681953,95.7215325 37.1868,95.8409497 C37.1014977,95.9584199 37.0207535,96.068751 36.9465209,96.170645 C36.6176837,96.5529099 36.3982419,96.8066715 36.3982419,96.8066715 C36.3982419,96.8066715 36.5929395,96.5347377 36.8846605,96.1265126 C36.9491256,96.0194265 37.0181488,95.9032543 37.0917302,95.779943 C37.1607535,95.6553338 37.250614,95.5326715 37.3079163,95.387943 C37.3704279,95.2477576 37.4355442,95.1030291 37.5019628,94.9550556 C37.5449395,94.8012411 37.6002884,94.6474265 37.6341488,94.4923139 C37.6432651,94.3352543 37.694707,94.1781947 37.6647535,94.0295722 C37.6660558,93.8770556 37.6185209,93.7420623 37.5742419,93.6135589 C37.5084744,93.4947907 37.4446605,93.3825126 37.3502419,93.2994397 C37.2681953,93.2092278 37.1646605,93.1436781 37.0695907,93.0891616 C36.8781488,92.9775325 36.6886605,92.930804 36.5623349,92.9003007 C36.4321023,92.8704464 36.370893,92.8697974 36.3630791,92.8672013 L36.4340558,92.3856384 Z" id="Fill-33" fill="#738CB5"/>
        <path d="M41.3937674,35.9993589 C41.3937674,35.9993589 43.7809302,34.4586172 45.2733953,35.5398623 C46.7658605,36.6211073 46.8472558,38.1897563 46.8472558,38.1897563 C46.8472558,38.1897563 45.5175814,39.433902 43.8896744,38.6226437 C42.2617674,37.8113854 41.3937674,35.9993589 41.3937674,35.9993589" id="Fill-35" fill="#D9E2F3"/>
        <path d="M53.5283163,41.7390437 C53.5283163,41.7390437 53.3043163,40.9693219 52.7345488,40.3813219 C52.1647814,39.7933219 51.9407814,39.4675205 52.3887814,39.1027788 C52.7488744,38.8087788 53.7314791,39.4266331 53.7314791,39.4266331 L54.2439442,39.7472424 L53.5283163,41.7390437 Z" id="Fill-37" fill="#0F233A"/>
        <path d="M44.9920279,35.3713152 C44.9920279,35.3713152 43.7606791,35.2895404 43.496307,37.0262821 C43.2404,38.7059113 44.4795628,38.8357126 44.4795628,38.8357126 C44.4795628,38.8357126 45.6223535,39.1563219 45.9791907,37.601951 C46.3047721,36.1819245 45.6470977,35.5854874 44.9920279,35.3713152" id="Fill-39" fill="#0F233A"/>
        <path d="M41.3937674,35.9993589 C41.3937674,35.9993589 43.7809302,34.4586172 45.2733953,35.5398623 C46.7658605,36.6211073 46.8472558,38.1897563 46.8472558,38.1897563 C46.8472558,38.1897563 45.5175814,39.433902 43.8896744,38.6226437 C42.2617674,37.8113854 41.3937674,35.9993589 41.3937674,35.9993589 Z" id="Stroke-41" stroke="#0F233A" stroke-width="0.5"/>
        <path d="M35.5062791,34.3774914 C35.5062791,34.3774914 29.6998605,29.1315709 25.0876744,19.3964715 C20.4754884,9.66137219 22.8086047,3.17130596 23.513814,1.5487894 C23.513814,1.5487894 38.2190233,12.6357695 37.3510233,32.9172265" id="Fill-43" fill="#FFFEF9"/>
        <path d="M35.2347442,32.0521007 C35.2347442,32.0521007 21.7771628,17.0704318 24.3277674,4.68543841 C24.3277674,4.68543841 37.8934419,19.6664583 35.2347442,32.0521007" id="Fill-45" fill="#D9E2F3"/>
        <path d="M35.5062791,34.3774914 C35.5062791,34.3774914 29.6998605,29.1315709 25.0876744,19.3964715 C20.4754884,9.66137219 22.8086047,3.17130596 23.513814,1.5487894 C23.513814,1.5487894 38.2190233,12.6357695 37.3510233,32.9172265" id="Stroke-47" stroke="#738CB5" stroke-width="0.5"/>
        <g id="Group-52" transform="translate(34.511628, 61.157192)">
          <path d="M10.9248837,0.477928477 C10.8434884,3.64183576 7.37018605,11.2754517 7.37018605,11.2754517 L13.3667442,32.6848821 C13.3667442,32.6848821 15.4016279,31.7113722 17.0568837,32.5226305 C18.7114884,33.3338887 17.4091628,35.8215311 17.4091628,35.8215311 L10.0295349,35.8215311 L0.316139535,12.9174384 C0.316139535,12.9174384 1.78125581,10.5375311 1.32023256,7.80651126" id="Fill-49" fill="#FFFEF9"/>
          <path d="M10.9248837,0.477928477 C10.8434884,3.64183576 7.37018605,11.2754517 7.37018605,11.2754517 L13.3667442,32.6848821 C13.3667442,32.6848821 15.4016279,31.7113722 17.0568837,32.5226305 C18.7114884,33.3338887 17.4091628,35.8215311 17.4091628,35.8215311 L10.0295349,35.8215311 L0.316139535,12.9174384 C0.316139535,12.9174384 1.78125581,10.5375311 1.32023256,7.80651126" id="Stroke-51" stroke="#738CB5" stroke-width="0.5"/>
        </g>
        <path d="M49.470986,94.4581762 C49.4625209,94.4516861 49.5855907,94.6022556 49.7041023,94.832004 C49.7724744,94.9429841 49.8245674,95.0870636 49.8922884,95.2317921 C49.9411256,95.3862556 50.0049395,95.5452623 50.0374977,95.712706 C50.0622419,95.8820967 50.1136837,96.0430503 50.1039163,96.204653 C50.098707,96.3636596 50.1247535,96.5083881 50.0928465,96.6323483 C50.0492186,96.8750768 50.0199163,97.0373285 50.0199163,97.0373285 C50.0199163,97.0373285 50.018614,96.8744278 50.0166605,96.6304013 C50.0257767,96.5103351 49.9730326,96.3720967 49.950893,96.2267192 C49.9333116,96.0787457 49.8545209,95.9340172 49.8050326,95.7873417 C49.7477302,95.6419642 49.6611256,95.5076199 49.5934047,95.3804146 C49.5068,95.2609974 49.4390791,95.1441762 49.3602884,95.0585073 C49.2163814,94.8748384 49.1089395,94.7891695 49.1050326,94.7800834 L49.470986,94.4581762 Z" id="Fill-53" fill="#738CB5"/>
        <path d="M51.4670605,94.2052583 C51.4612,94.1955232 51.5217581,94.3804901 51.5484558,94.6374967 C51.5718977,94.765351 51.5679907,94.9191656 51.5784093,95.0781722 C51.5686419,95.2397748 51.5705953,95.4104636 51.5399907,95.5785563 C51.5009209,95.745351 51.4905023,95.9147417 51.4227814,96.0607682 C51.3609209,96.2074437 51.3322698,96.3521722 51.257386,96.4560132 C51.1284558,96.6662914 51.0425023,96.8071258 51.0425023,96.8071258 L51.1870605,96.4268079 C51.2391535,96.3177748 51.2404558,96.1698013 51.2723628,96.0270199 C51.3101302,95.8829404 51.2886419,95.7193907 51.2958047,95.5649272 C51.2951535,95.4085166 51.2632465,95.251457 51.2463163,95.1086755 C51.2085488,94.966543 51.1883628,94.8328477 51.1460372,94.7244636 C51.0783163,94.5012053 51.009293,94.3824371 51.0086419,94.372702 L51.4670605,94.2052583 Z" id="Fill-55" fill="#738CB5"/>
      </g>
    </g>
  </g>
</svg>