<svg version="1.1" width="102" height="114" viewBox="-1 -1 102 114" xmlns="http://www.w3.org/2000/svg" xmlns:xlink="http://www.w3.org/1999/xlink">
  <!-- Exported by Scratch - http://scratch.mit.edu/ -->
  <g id="ID0.27582093328237534" transform="matrix(1, 0, 0, 1, -34.25, -41.25)">
    <g id="andie-c">
      <g id="Group">
        <path id="Fill-1" fill="#006482" stroke="none" stroke-width="1" d="M 61.221 86.423 C 61.029 87.810 60.739 88.812 61.080 90.083 C 61.341 90.143 88.440 85.097 88.440 85.097 L 87.210 81.777 C 87.210 81.777 62.343 86.226 61.221 86.423 " transform="matrix(1, 0, 0, 1, 35, 42)"/>
        <path id="Fill-3" fill="#008CB4" stroke="none" stroke-width="1" d="M 81.104 78.194 L 84.081 91.436 L 80.062 92.329 L 76.582 79.235 L 81.104 78.194 " transform="matrix(1, 0, 0, 1, 35, 42)"/>
        <path id="Fill-5" fill="#000000" stroke="none" stroke-width="1" d="M 74.554 57.065 C 72.944 57.488 73.565 57.822 74.256 61.529 C 75.501 68.210 83.834 94.857 85.178 99.262 C 86.475 103.511 87.451 107.945 89.457 111.936 C 90.159 112.621 90.927 112.896 91.867 112.495 C 93.436 111.266 92.374 107.452 91.168 104.146 C 90.406 102.058 78.258 61.537 78.258 61.537 C 78.258 61.537 77.382 56.321 74.554 57.065 " transform="matrix(1, 0, 0, 1, 35, 42)"/>
        <path id="Fill-7" fill="#000000" stroke="none" stroke-width="1" d="M 81.011 61.922 C 80.563 62.036 80.735 62.130 80.917 63.159 C 81.246 65.016 92.541 100.210 92.902 101.435 C 93.252 102.616 93.511 103.848 94.058 104.960 C 94.251 105.152 94.463 105.230 94.724 105.122 C 95.163 104.785 94.949 102.904 94.622 101.984 C 94.416 101.404 82.647 63.581 82.647 63.581 C 82.647 63.581 81.797 61.723 81.011 61.922 " transform="matrix(1, 0, 0, 1, 35, 42)"/>
        <path id="Fill-9" fill="#006482" stroke="none" stroke-width="1" d="M 39.501 86.423 C 39.693 87.810 39.984 88.812 39.642 90.083 C 39.381 90.143 12.282 85.097 12.282 85.097 L 13.513 81.777 C 13.513 81.777 38.380 86.226 39.501 86.423 " transform="matrix(1, 0, 0, 1, 35, 42)"/>
        <path id="Fill-11" fill="#008CB4" stroke="none" stroke-width="1" d="M 19.618 78.194 L 16.640 91.436 L 20.660 92.329 L 24.140 79.235 L 19.618 78.194 " transform="matrix(1, 0, 0, 1, 35, 42)"/>
        <path id="Fill-13" fill="#000000" stroke="none" stroke-width="1" d="M 26.169 57.065 C 27.778 57.488 27.157 57.822 26.466 61.529 C 25.222 68.210 16.888 94.857 15.544 99.262 C 14.247 103.511 13.271 107.945 11.265 111.936 C 10.563 112.621 9.796 112.896 8.856 112.495 C 7.287 111.266 8.349 107.452 9.555 104.146 C 10.316 102.058 22.464 61.537 22.464 61.537 C 22.464 61.537 23.340 56.321 26.169 57.065 " transform="matrix(1, 0, 0, 1, 35, 42)"/>
        <path id="Fill-15" fill="#000000" stroke="none" stroke-width="1" d="M 19.711 61.922 C 20.159 62.036 19.988 62.130 19.805 63.159 C 19.477 65.016 8.182 100.210 7.820 101.435 C 7.471 102.616 7.211 103.848 6.665 104.960 C 6.472 105.152 6.259 105.230 5.998 105.122 C 5.560 104.785 5.774 102.904 6.100 101.984 C 6.306 101.404 18.076 63.581 18.076 63.581 C 18.076 63.581 18.926 61.723 19.711 61.922 " transform="matrix(1, 0, 0, 1, 35, 42)"/>
        <path id="Fill-17" fill="#A0783C" stroke="none" stroke-width="1" d="M 14.218 59.316 C 14.877 60.200 15.576 62.023 16.155 62.801 C 17.246 62.364 20.435 59.999 20.826 58.928 C 20.683 58.179 20.191 57.830 19.444 57.856 C 18.689 57.883 15.028 58.919 14.218 59.316 " transform="matrix(1, 0, 0, 1, 35, 42)"/>
        <path id="Fill-19" fill="#BE965A" stroke="none" stroke-width="1" d="M 17.789 71.774 C 18.348 71.548 18.043 70.652 18.379 69.933 C 18.647 69.358 19.599 69.021 19.705 68.313 C 19.783 67.793 19.466 67.079 19.558 66.620 C 19.708 65.862 20.468 65.618 20.515 65.147 C 20.775 62.536 16.235 59.522 14.991 57.710 C 12.480 54.054 11.418 49.744 12.939 45.310 C 14.431 40.958 19.400 38.727 23.696 38.283 C 26.083 38.037 28.588 38.143 30.988 38.102 C 32.927 38.067 38.438 38.680 45.107 39.706 C 48.174 40.177 43.448 29.874 43.448 29.874 C 43.448 29.874 39.463 27.128 35.473 26.545 C 32.005 26.039 26.531 25.908 23.057 26.135 C 16.353 26.573 10.933 28.182 6.117 32.835 C -1.216 39.918 -1.498 53.320 3.879 62.149 C 4.432 63.058 6.356 66.764 9.529 68.852 C 12.950 71.103 17.623 71.711 17.789 71.774 " transform="matrix(1, 0, 0, 1, 35, 42)"/>
        <path id="Fill-21" fill="#A0783C" stroke="none" stroke-width="1" d="M 86.449 58.524 C 86.031 59.545 85.810 61.484 85.443 62.382 C 84.277 62.230 80.599 60.736 79.953 59.797 C 79.904 59.036 80.294 58.575 81.023 58.414 C 81.761 58.251 85.564 58.342 86.449 58.524 " transform="matrix(1, 0, 0, 1, 35, 42)"/>
        <g id="Group-25">
          <path id="Fill-23" fill="#BE965A" stroke="none" stroke-width="1" d="M 25.951 46.224 C 25.393 45.998 25.697 45.102 25.361 44.383 C 25.093 43.809 24.141 43.472 24.035 42.763 C 23.958 42.244 24.274 41.530 24.183 41.070 C 24.033 40.312 23.272 40.069 23.225 39.598 C 22.966 36.987 27.506 33.973 28.750 32.161 C 31.261 28.505 32.322 24.195 30.802 19.760 C 29.310 15.408 24.340 13.178 20.045 12.734 C 17.657 12.487 15.152 12.594 12.753 12.552 C 10.813 12.518 4.297 13.074 1.447 13.928 C -1.525 14.820 1.522 8.802 0.560 5.892 C 1.140 4.281 8.166 1.587 9.804 1.211 C 13.221 0.428 17.210 0.358 20.683 0.585 C 27.387 1.024 32.807 2.633 37.624 7.286 C 44.956 14.368 45.238 27.771 39.862 36.600 C 39.308 37.508 37.035 41.693 33.862 43.781 C 30.441 46.031 26.118 46.161 25.951 46.224 " transform="matrix(1, 0, 0, 1, 92.25, 67.5)"/>
        </g>
        <path id="Fill-26" fill="#006482" stroke="none" stroke-width="1" d="M 27.994 74.060 C 27.994 74.060 29.451 60.922 30.422 59.224 C 31.393 57.526 70.465 57.647 70.465 57.647 L 73.615 72.809 L 27.994 74.060 Z " transform="matrix(1, 0, 0, 1, 35, 42)"/>
        <path id="Fill-28" fill="#006482" stroke="none" stroke-width="1" d="M 70.859 86.124 C 70.127 90.681 67.844 103.635 67.844 103.635 C 67.844 103.635 67.713 104.089 67.642 104.680 C 66.860 104.601 66.148 104.692 66.148 104.692 C 66.148 104.692 38.488 104.852 37.037 104.775 C 35.982 104.719 34.868 104.704 33.924 104.821 C 33.859 104.164 33.707 103.635 33.707 103.635 C 33.707 103.635 31.424 90.681 30.692 86.124 L 27.808 86.124 C 27.983 87.159 28.172 88.191 28.330 89.221 C 28.786 92.196 30.191 100.485 31.353 104.773 C 31.500 105.316 32.103 107.420 32.608 107.349 C 35.451 107.813 38.369 107.584 41.236 107.582 C 44.247 107.580 68.758 107.317 68.758 107.317 C 68.758 107.317 69.555 107.151 70.199 104.773 C 71.360 100.485 72.765 92.196 73.221 89.221 C 73.380 88.191 73.569 87.159 73.743 86.124 L 70.859 86.124 Z " transform="matrix(1, 0, 0, 1, 35, 42)"/>
        <path id="Fill-30" fill="#000000" stroke="none" stroke-width="1" d="M 64.520 112.936 C 63.796 112.953 63.513 111.923 63.511 110.751 C 63.510 109.619 63.406 109.372 63.733 108.251 C 63.937 108.032 64.222 107.908 64.664 107.935 C 65.430 108.108 65.511 109.019 65.449 109.874 C 65.446 109.923 65.792 112.906 64.520 112.936 " transform="matrix(1, 0, 0, 1, 35, 42)"/>
        <path id="Fill-32" fill="#008CB4" stroke="none" stroke-width="1" d="M 62.426 109.247 L 66.508 109.247 L 66.508 104.045 L 62.426 104.045 L 62.426 109.247 " transform="matrix(1, 0, 0, 1, 35, 42)"/>
        <path id="Fill-34" fill="#000000" stroke="none" stroke-width="1" d="M 37.205 112.936 C 36.481 112.953 36.199 111.923 36.197 110.751 C 36.195 109.619 36.091 109.372 36.418 108.251 C 36.623 108.032 36.907 107.908 37.350 107.935 C 38.116 108.108 38.197 109.019 38.135 109.874 C 38.131 109.923 38.478 112.906 37.205 112.936 " transform="matrix(1, 0, 0, 1, 35, 42)"/>
        <path id="Fill-35" fill="#008CB4" stroke="none" stroke-width="1" d="M 35.111 109.247 L 39.193 109.247 L 39.193 104.045 L 35.111 104.045 L 35.111 109.247 " transform="matrix(1, 0, 0, 1, 35, 42)"/>
        <path id="Fill-36" fill="#006482" stroke="none" stroke-width="1" d="M 33.235 86.163 L 30.842 86.702 L 27.994 74.060 L 30.387 73.522 L 33.235 86.163 " transform="matrix(1, 0, 0, 1, 35, 42)"/>
        <path id="Fill-37" fill="#006482" stroke="none" stroke-width="1" d="M 24.130 102.462 L 21.732 101.943 L 25.460 84.773 L 27.857 85.292 L 24.130 102.462 " transform="matrix(1, 0, 0, 1, 35, 42)"/>
        <path id="Fill-38" fill="#006482" stroke="none" stroke-width="1" d="M 76.801 102.462 L 79.199 101.943 L 75.471 84.773 L 73.074 85.292 L 76.801 102.462 " transform="matrix(1, 0, 0, 1, 35, 42)"/>
        <path id="Fill-39" fill="#006482" stroke="none" stroke-width="1" d="M 70.973 86.705 L 68.556 86.288 L 70.761 73.518 L 73.178 73.935 L 70.973 86.705 " transform="matrix(1, 0, 0, 1, 35, 42)"/>
        <path id="Fill-40" fill="#006482" stroke="none" stroke-width="1" d="M 40.391 86.422 L 40.391 90.160 C 44.214 90.167 52.920 90.193 61.162 90.123 L 61.162 86.357 C 54.114 86.386 46.132 86.415 40.391 86.422 " transform="matrix(1, 0, 0, 1, 35, 42)"/>
        <path id="Fill-41" fill="#008CB4" stroke="none" stroke-width="1" d="M 73.532 70.934 C 66.217 70.535 31.473 70.819 28.542 71.853 C 26.250 71.699 25.516 72.993 26.388 74.859 C 27.339 75.681 28.861 76.293 30.186 75.960 C 37.604 75.805 63.123 75.827 69.769 75.676 C 70.575 75.947 73.836 75.467 74.562 74.952 C 74.781 73.937 75.545 70.537 73.532 70.934 " transform="matrix(1, 0, 0, 1, 35, 42)"/>
        <path id="Fill-42" fill="#008CB4" stroke="none" stroke-width="1" d="M 79.702 102.108 C 79.745 103.194 79.417 102.870 76.968 103.147 C 72.552 103.647 34.197 103.536 31.186 103.539 C 28.281 103.541 25.322 103.779 22.443 103.289 C 21.881 102.982 21.562 102.554 21.633 101.890 C 22.101 100.675 24.689 100.610 26.987 100.731 C 28.438 100.808 76.197 100.649 76.197 100.649 C 76.197 100.649 79.626 100.199 79.702 102.108 " transform="matrix(1, 0, 0, 1, 35, 42)"/>
        <path id="Fill-43" fill="#780046" stroke="none" stroke-width="1" d="M 66.287 60.606 C 64.430 60.281 37.085 61.236 32.635 60.899 L 36.439 72.597 C 38.302 73.071 61.398 72.762 65.556 71.867 C 65.708 70.580 66.213 61.301 66.287 60.606 " transform="matrix(1, 0, 0, 1, 35, 42)"/>
        <path id="Fill-44" fill="#BE965A" stroke="none" stroke-width="1" d="M 59.189 29.165 C 58.127 28.893 43.093 28.342 42.666 28.611 C 42.354 29.437 41.447 40.026 41.447 40.026 L 59.189 38.142 C 59.189 38.142 59.260 31.373 59.189 29.165 " transform="matrix(1, 0, 0, 1, 35, 42)"/>
        <path id="Fill-45" fill="#F01446" stroke="none" stroke-width="1" d="M 64.995 46.162 C 64.826 45.123 63.429 38.316 62.196 33.263 C 61.452 30.216 60.593 27.740 60.593 27.740 C 60.593 27.740 57.803 27.490 57.089 27.622 C 57.083 28.061 56.777 30.311 55.784 31.690 C 54.510 33.459 52.358 34.380 50.934 34.418 C 48.400 34.487 46.479 33.312 45.676 31.877 C 44.520 29.815 44.593 27.109 44.593 27.109 C 44.593 27.109 42.652 26.994 42.426 27.066 C 39.677 27.936 36.572 40.771 36.170 43.097 C 35.440 47.313 34.790 51.545 34.224 55.786 C 34.041 57.157 32.575 62.439 33.572 63.674 L 67.728 63.337 C 68.059 62.549 65.135 47.024 64.995 46.162 " transform="matrix(1, 0, 0, 1, 35, 42)"/>
        <path id="Fill-46" fill="#E6781E" stroke="none" stroke-width="1" d="M 63.342 44.378 C 62.268 37.358 55.703 32.537 48.679 33.611 C 41.656 34.684 36.832 41.245 37.906 48.265 C 38.316 50.942 39.526 53.298 41.253 55.131 C 43.616 58.238 47.122 59.414 50.673 59.181 C 51.299 59.178 51.932 59.130 52.569 59.033 C 55.546 58.578 58.126 57.134 60.031 55.090 C 60.222 54.910 60.410 54.728 60.590 54.539 C 60.926 54.187 62.057 53.092 62.704 50.747 C 63.429 48.776 63.682 46.601 63.342 44.378 " transform="matrix(1, 0, 0, 1, 35, 42)"/>
        <path id="Fill-47" fill="#FF963C" stroke="none" stroke-width="1" d="M 54.842 45.417 C 54.842 45.417 53.673 39.903 56.710 34.993 C 54.353 33.726 51.583 33.181 48.735 33.604 L 50.570 46.112 L 54.842 45.417 Z " transform="matrix(1, 0, 0, 1, 35, 42)"/>
        <path id="Fill-48" fill="#FF963C" stroke="none" stroke-width="1" d="M 46.356 46.629 L 37.859 47.891 C 37.874 48.016 37.887 48.140 37.906 48.265 C 38.316 50.942 39.525 53.298 41.253 55.130 C 42.016 56.134 42.899 56.933 43.864 57.551 C 47.708 52.999 46.356 46.629 46.356 46.629 " transform="matrix(1, 0, 0, 1, 35, 42)"/>
        <path id="Fill-49" fill="#824600" stroke="none" stroke-width="1" d="M 49.050 33.564 C 48.928 33.579 48.807 33.591 48.685 33.610 C 49.774 41.094 51.128 50.391 52.524 59.038 C 52.538 59.036 52.554 59.035 52.568 59.033 C 52.676 59.017 52.781 58.996 52.887 58.977 C 51.492 50.336 50.139 41.044 49.050 33.564 " transform="matrix(1, 0, 0, 1, 35, 42)"/>
        <path id="Fill-50" fill="#824600" stroke="none" stroke-width="1" d="M 37.855 47.806 C 37.852 47.806 37.850 47.808 37.848 47.809 C 37.863 47.938 37.878 48.067 37.897 48.196 C 37.903 48.195 37.908 48.198 37.914 48.197 L 63.330 44.312 C 63.310 44.182 63.285 44.053 63.261 43.924 L 37.855 47.806 Z " transform="matrix(1, 0, 0, 1, 35, 42)"/>
        <path id="Fill-51" fill="#824600" stroke="none" stroke-width="1" d="M 54.921 40.496 C 55.149 38.423 55.834 36.576 56.909 35.106 C 56.797 35.042 56.684 34.980 56.569 34.920 C 55.480 36.436 54.787 38.327 54.555 40.442 C 54.001 45.494 55.730 51.894 60.040 55.081 C 60.136 54.991 60.227 54.896 60.321 54.804 C 56.986 52.321 54.217 46.917 54.921 40.496 " transform="matrix(1, 0, 0, 1, 35, 42)"/>
        <path id="Fill-52" fill="#824600" stroke="none" stroke-width="1" d="M 46.584 51.074 C 46.934 48.183 46.535 44.947 45.489 42.198 C 44.696 40.113 43.348 38.175 41.845 36.922 C 41.752 37.009 41.661 37.098 41.571 37.188 C 43.044 38.395 44.370 40.294 45.149 42.340 C 47.485 48.482 46.232 54.235 43.640 57.402 C 43.750 57.477 43.862 57.549 43.975 57.619 C 45.371 55.932 46.265 53.703 46.584 51.074 " transform="matrix(1, 0, 0, 1, 35, 42)"/>
        <path id="Fill-53" fill="#000000" stroke="none" stroke-width="1" d="M 32.635 65.508 L 67.294 65.508 L 67.294 60.623 L 32.635 60.623 L 32.635 65.508 " transform="matrix(1, 0, 0, 1, 35, 42)"/>
        <path id="Fill-54" fill="#BE965A" stroke="none" stroke-width="1" d="M 69.835 62.677 C 69.774 69.274 67.694 75.435 67.694 75.435 L 55.406 75.629 C 55.406 75.629 56.208 56.313 59.298 53.337 C 60.165 52.501 62.315 49.779 66.587 51.613 C 70.860 53.448 69.862 59.779 69.835 62.677 " transform="matrix(1, 0, 0, 1, 35, 42)"/>
        <path id="Fill-55" fill="#F0E6D2" stroke="none" stroke-width="1" d="M 54.805 71.097 C 54.470 74.717 54.345 81.345 54.356 82.709 C 56.502 83.338 64.513 82.317 66.458 81.864 C 67.233 80.699 68.634 74.803 69.351 71.097 L 54.805 71.097 Z " transform="matrix(1, 0, 0, 1, 35, 42)"/>
        <path id="Fill-56" fill="#F01446" stroke="none" stroke-width="1" d="M 51.618 99.415 L 51.386 100.896 L 67.128 100.804 L 67.374 99.562 L 58.239 97.750 L 51.618 99.415 " transform="matrix(1, 0, 0, 1, 35, 42)"/>
        <path id="Fill-57" fill="#000000" stroke="none" stroke-width="1" d="M 68.208 79.059 C 68.208 79.059 64.523 79.101 60.819 79.145 C 57.215 79.188 53.594 79.232 53.326 79.242 C 53.086 82.309 51.618 99.415 51.618 99.415 C 51.618 99.415 66.168 99.467 67.375 99.562 C 67.434 99.359 67.481 99.201 67.517 99.076 C 66.601 98.070 64.508 98.587 63.305 98.120 C 63.905 96.138 67.154 84.463 68.208 79.059 " transform="matrix(1, 0, 0, 1, 35, 42)"/>
        <path id="Fill-58" fill="#F01446" stroke="none" stroke-width="1" d="M 61.497 84.298 C 61.497 86.431 59.767 88.161 57.632 88.161 C 55.498 88.161 53.767 86.431 53.767 84.298 C 53.767 82.164 55.498 80.435 57.632 80.435 C 59.767 80.435 61.497 82.164 61.497 84.298 " transform="matrix(1, 0, 0, 1, 35, 42)"/>
        <path id="Fill-59" fill="#780046" stroke="none" stroke-width="1" d="M 59.466 84.298 C 59.466 85.310 58.645 86.131 57.632 86.131 C 56.619 86.131 55.798 85.310 55.798 84.298 C 55.798 83.285 56.619 82.465 57.632 82.465 C 58.645 82.465 59.466 83.285 59.466 84.298 " transform="matrix(1, 0, 0, 1, 35, 42)"/>
        <path id="Fill-60" fill="#780046" stroke="none" stroke-width="1" d="M 67.027 80.881 C 67.027 81.305 66.683 81.649 66.258 81.649 C 65.834 81.649 65.489 81.305 65.489 80.881 C 65.489 80.457 65.834 80.113 66.258 80.113 C 66.683 80.113 67.027 80.457 67.027 80.881 " transform="matrix(1, 0, 0, 1, 35, 42)"/>
        <path id="Fill-61" fill="#780046" stroke="none" stroke-width="1" d="M 66.194 83.893 C 66.194 84.318 65.849 84.662 65.425 84.662 C 65.000 84.662 64.655 84.318 64.655 83.893 C 64.655 83.469 65.000 83.125 65.425 83.125 C 65.849 83.125 66.194 83.469 66.194 83.893 " transform="matrix(1, 0, 0, 1, 35, 42)"/>
        <path id="Fill-62" fill="#780046" stroke="none" stroke-width="1" d="M 65.488 87.034 C 65.488 87.459 65.144 87.803 64.719 87.803 C 64.294 87.803 63.950 87.459 63.950 87.034 C 63.950 86.610 64.294 86.266 64.719 86.266 C 65.144 86.266 65.488 86.610 65.488 87.034 " transform="matrix(1, 0, 0, 1, 35, 42)"/>
        <path id="Fill-63" fill="#780046" stroke="none" stroke-width="1" d="M 64.718 89.662 C 64.718 90.087 64.374 90.431 63.950 90.431 C 63.525 90.431 63.180 90.087 63.180 89.662 C 63.180 89.238 63.525 88.894 63.950 88.894 C 64.374 88.894 64.718 89.238 64.718 89.662 " transform="matrix(1, 0, 0, 1, 35, 42)"/>
        <path id="Fill-64" fill="#780046" stroke="none" stroke-width="1" d="M 64.013 92.418 C 64.013 92.843 63.669 93.187 63.244 93.187 C 62.819 93.187 62.475 92.843 62.475 92.418 C 62.475 91.994 62.819 91.650 63.244 91.650 C 63.669 91.650 64.013 91.994 64.013 92.418 " transform="matrix(1, 0, 0, 1, 35, 42)"/>
        <path id="Fill-65" fill="#780046" stroke="none" stroke-width="1" d="M 63.243 95.303 C 63.243 95.727 62.899 96.071 62.475 96.071 C 62.050 96.071 61.705 95.727 61.705 95.303 C 61.705 94.878 62.050 94.534 62.475 94.534 C 62.899 94.534 63.243 94.878 63.243 95.303 " transform="matrix(1, 0, 0, 1, 35, 42)"/>
        <path id="Fill-66" fill="#BE965A" stroke="none" stroke-width="1" d="M 45.109 73.250 C 44.045 73.323 34.061 73.060 33.740 73.011 C 33.303 70.486 31.096 63.344 31.265 58.601 C 31.366 55.786 32.136 52.921 33.804 51.347 C 34.805 50.404 36.130 49.925 37.827 50.201 C 42.212 50.915 43.624 57.415 44.183 61.121 C 44.716 64.657 44.658 69.741 45.109 73.250 " transform="matrix(1, 0, 0, 1, 35, 42)"/>
        <path id="Fill-67" fill="#F0E6D2" stroke="none" stroke-width="1" d="M 32.567 71.097 C 33.010 74.006 33.755 78.942 34.011 80.958 C 37.109 82.003 43.320 81.671 46.518 80.978 C 46.934 79.853 45.996 73.819 45.578 71.097 L 32.567 71.097 Z " transform="matrix(1, 0, 0, 1, 35, 42)"/>
        <path id="Fill-68" fill="#F01446" stroke="none" stroke-width="1" d="M 49.265 99.415 L 49.497 100.896 L 33.755 100.804 L 33.509 99.562 L 42.645 97.750 L 49.265 99.415 " transform="matrix(1, 0, 0, 1, 35, 42)"/>
        <path id="Fill-69" fill="#000000" stroke="none" stroke-width="1" d="M 32.675 79.059 C 32.675 79.059 36.360 79.101 40.065 79.145 C 43.668 79.188 47.290 79.232 47.557 79.242 C 47.797 82.309 49.266 99.415 49.266 99.415 C 49.266 99.415 34.715 99.467 33.509 99.562 C 33.449 99.359 33.403 99.201 33.366 99.076 C 34.282 98.070 36.375 98.587 37.578 98.120 C 36.979 96.138 33.847 85.100 32.675 79.059 " transform="matrix(1, 0, 0, 1, 35, 42)"/>
        <path id="Fill-70" fill="#F01446" stroke="none" stroke-width="1" d="M 39.386 84.298 C 39.386 86.431 41.117 88.161 43.251 88.161 C 45.386 88.161 47.116 86.431 47.116 84.298 C 47.116 82.164 45.386 80.435 43.251 80.435 C 41.117 80.435 39.386 82.164 39.386 84.298 " transform="matrix(1, 0, 0, 1, 35, 42)"/>
        <path id="Fill-71" fill="#780046" stroke="none" stroke-width="1" d="M 41.418 84.298 C 41.418 85.310 42.239 86.131 43.251 86.131 C 44.264 86.131 45.085 85.310 45.085 84.298 C 45.085 83.285 44.264 82.465 43.251 82.465 C 42.239 82.465 41.418 83.285 41.418 84.298 " transform="matrix(1, 0, 0, 1, 35, 42)"/>
        <path id="Fill-72" fill="#780046" stroke="none" stroke-width="1" d="M 33.856 80.881 C 33.856 81.305 34.200 81.649 34.625 81.649 C 35.050 81.649 35.394 81.305 35.394 80.881 C 35.394 80.457 35.050 80.113 34.625 80.113 C 34.200 80.113 33.856 80.457 33.856 80.881 " transform="matrix(1, 0, 0, 1, 35, 42)"/>
        <path id="Fill-73" fill="#780046" stroke="none" stroke-width="1" d="M 34.690 83.893 C 34.690 84.318 35.034 84.662 35.459 84.662 C 35.883 84.662 36.228 84.318 36.228 83.893 C 36.228 83.469 35.883 83.125 35.459 83.125 C 35.034 83.125 34.690 83.469 34.690 83.893 " transform="matrix(1, 0, 0, 1, 35, 42)"/>
        <path id="Fill-74" fill="#780046" stroke="none" stroke-width="1" d="M 35.396 87.034 C 35.396 87.459 35.740 87.803 36.164 87.803 C 36.589 87.803 36.933 87.459 36.933 87.034 C 36.933 86.610 36.589 86.266 36.164 86.266 C 35.740 86.266 35.396 86.610 35.396 87.034 " transform="matrix(1, 0, 0, 1, 35, 42)"/>
        <path id="Fill-75" fill="#780046" stroke="none" stroke-width="1" d="M 36.165 89.662 C 36.165 90.087 36.509 90.431 36.934 90.431 C 37.358 90.431 37.703 90.087 37.703 89.662 C 37.703 89.238 37.358 88.894 36.934 88.894 C 36.509 88.894 36.165 89.238 36.165 89.662 " transform="matrix(1, 0, 0, 1, 35, 42)"/>
        <path id="Fill-76" fill="#780046" stroke="none" stroke-width="1" d="M 36.870 92.418 C 36.870 92.843 37.215 93.187 37.639 93.187 C 38.064 93.187 38.408 92.843 38.408 92.418 C 38.408 91.994 38.064 91.650 37.639 91.650 C 37.215 91.650 36.870 91.994 36.870 92.418 " transform="matrix(1, 0, 0, 1, 35, 42)"/>
        <path id="Fill-77" fill="#780046" stroke="none" stroke-width="1" d="M 37.640 95.303 C 37.640 95.727 37.984 96.071 38.409 96.071 C 38.833 96.071 39.178 95.727 39.178 95.303 C 39.178 94.878 38.833 94.534 38.409 94.534 C 37.984 94.534 37.640 94.878 37.640 95.303 " transform="matrix(1, 0, 0, 1, 35, 42)"/>
        <path id="Fill-78" fill="#64645A" stroke="none" stroke-width="1" d="M 46.707 65.984 L 54.452 65.984 L 54.452 59.937 L 46.707 59.937 L 46.707 65.984 " transform="matrix(1, 0, 0, 1, 35, 42)"/>
        <path id="Fill-79" fill="#A0783C" stroke="none" stroke-width="1" d="M 58.255 12.349 C 58.255 12.349 58.865 10.299 61.305 11.388 C 63.746 12.477 62.128 14.899 61.534 15.807 C 60.804 16.924 59.409 17.280 58.038 17.660 C 58.223 15.566 58.255 12.349 58.255 12.349 " transform="matrix(1, 0, 0, 1, 35, 42)"/>
        <path id="Fill-80" fill="#A0783C" stroke="none" stroke-width="1" d="M 44.258 17.538 C 42.887 17.158 41.491 16.802 40.761 15.685 C 40.168 14.776 38.551 12.355 40.991 11.266 C 43.431 10.177 44.040 12.227 44.040 12.227 C 44.040 12.227 44.073 15.444 44.258 17.538 " transform="matrix(1, 0, 0, 1, 35, 42)"/>
        <path id="Fill-81" fill="#BE965A" stroke="none" stroke-width="1" d="M 58.833 10.332 C 58.422 7.031 57.390 4.347 57.390 4.347 C 57.390 4.347 54.271 2.523 50.977 2.319 C 48.580 2.171 45.860 3.481 45.312 4.048 C 43.922 5.485 43.239 7.748 43.208 10.287 C 43.331 10.573 43.423 15.378 43.583 16.816 C 43.803 18.787 44.193 20.372 45.320 22.032 C 47.706 25.544 52.253 26.129 54.985 25.241 C 57.717 24.353 57.732 21.663 58.488 20.219 C 59.225 18.808 59.130 12.710 58.833 10.332 " transform="matrix(1, 0, 0, 1, 35, 42)"/>
        <path id="Fill-82" fill="#000000" stroke="none" stroke-width="1" d="M 51.484 18.263 C 50.416 18.263 49.831 18.319 49.374 18.873 C 49.395 19.152 50.455 19.434 51.482 19.420 C 52.510 19.405 53.504 19.094 53.504 18.831 C 53.504 18.305 52.552 18.263 51.484 18.263 " transform="matrix(1, 0, 0, 1, 35, 42)"/>
        <path id="Fill-83" fill="#A0783C" stroke="none" stroke-width="1" d="M 52.703 14.589 C 52.404 13.756 51.884 12.362 51.301 11.590 C 50.129 12.240 49.462 14.638 50.142 15.739 C 50.311 16.011 51.079 16.824 52.349 16.226 C 52.797 16.016 52.890 15.109 52.703 14.589 " transform="matrix(1, 0, 0, 1, 35, 42)"/>
        <path id="Fill-84" fill="#000000" stroke="none" stroke-width="1" d="M 56.182 11.756 C 56.401 12.463 56.441 13.003 55.944 13.506 C 55.130 13.106 55.401 12.433 55.385 11.756 L 56.182 11.756 Z " transform="matrix(1, 0, 0, 1, 35, 42)"/>
        <path id="Fill-85" fill="#000000" stroke="none" stroke-width="1" d="M 46.828 13.629 C 46.261 13.464 46.261 13.464 45.992 12.864 C 46.099 12.688 46.220 12.485 46.359 12.255 C 46.558 12.293 46.722 12.324 46.892 12.357 C 47.107 12.793 47.147 13.181 46.828 13.629 " transform="matrix(1, 0, 0, 1, 35, 42)"/>
        <path id="Fill-86" fill="#000000" stroke="none" stroke-width="1" d="M 57.390 4.347 C 57.390 4.347 55.068 7.858 50.360 9.319 C 45.652 10.779 43.224 11.860 43.224 11.860 C 42.895 9.319 41.783 4.075 46.963 0.858 C 47.669 0.420 50.437 -0.581 53.331 0.453 C 55.653 1.282 57.390 4.347 57.390 4.347 " transform="matrix(1, 0, 0, 1, 35, 42)"/>
        <path id="Fill-87" fill="#000000" stroke="none" stroke-width="1" d="M 50.468 8.343 L 47.647 11.968 C 47.647 11.968 55.283 11.390 57.390 4.347 L 50.468 8.343 Z " transform="matrix(1, 0, 0, 1, 35, 42)"/>
        <path id="Fill-88" fill="#000000" stroke="none" stroke-width="1" d="M 54.467 6.654 L 58.937 12.405 C 58.937 12.405 59.465 7.124 57.390 4.347 L 54.467 6.654 Z " transform="matrix(1, 0, 0, 1, 35, 42)"/>
        <path id="Fill-89" fill="#F01446" stroke="none" stroke-width="1" d="M 12.729 50.823 C 13.989 53.416 15.706 57.891 15.706 57.891 C 15.706 57.891 6.389 64.093 3.785 64.187 C 2.749 63.502 1.824 61.381 1.117 59.751 C 0.067 57.333 0.000 54.543 0.000 54.543 C 0.000 54.543 9.480 51.842 12.729 50.823 " transform="matrix(1, 0, 0, 1, 35, 42)"/>
      </g>
    </g>
  </g>
</svg>