<svg width="90px" height="87px" viewBox="0 0 90 87" version="1.1" xml:space="preserve" xmlns="http://www.w3.org/2000/svg" xmlns:xlink="http://www.w3.org/1999/xlink">
  <defs/>
  <g>
    <title>hen-b</title>
    <desc>Created with Sketch.</desc>
    <g id="hen-b" stroke="none" stroke-width="1" fill="none" fill-rule="evenodd">
      <g id="Group-2" transform="translate(44.801762, 64.335025)">
        <path d="M0.49296696,0.0654974619 L19.7633987,20.5553452" id="Stroke-5" stroke="#FFDB5D" stroke-width="1.05"/>
        <path d="M28.4927595,20.5553452 C26.3395744,20.5553452 26.3395744,18.4538223 24.1863894,18.4538223 C22.0339004,18.4538223 22.0339004,20.5553452 19.8817595,20.5553452 C17.7275304,20.5553452 17.7275304,18.4538223 15.5736493,18.4538223 C13.4197683,18.4538223 13.4197683,20.5553452 11.2658872,20.5553452" id="Stroke-7" stroke="#FFDB5D" stroke-width="1.05"/>
        <path d="M10.310022,1.29138579 L10.310022,9.18540609 C10.310022,10.2792487 8.99625551,10.8270457 8.2278326,10.0536853 L0.0435022026,1.8167665 L10.310022,1.29138579 Z" id="Fill-9" fill="#FFF4E3"/>
      </g>
      <g id="Group" transform="translate(31.925110, 65.385787)">
        <path d="M8.74275947,6.7203198 L8.74275947,19.5045838" id="Stroke-1" stroke="#FFDB5D" stroke-width="1.05"/>
        <path d="M17.4722595,19.5045838 C15.3190744,19.5045838 15.3190744,17.4030609 13.1658894,17.4030609 C11.0134004,17.4030609 11.0134004,19.5045838 8.86091145,19.5045838 C6.7070304,19.5045838 6.7070304,17.4030609 4.55314934,17.4030609 C2.39926828,17.4030609 2.39926828,19.5045838 0.245387225,19.5045838" id="Stroke-3" stroke="#FFDB5D" stroke-width="1.05"/>
        <path d="M7.56938326,0.240624365 L7.56938326,8.13464467 C7.56938326,9.22848731 8.88314978,9.77628426 9.65157269,9.00292386 L17.8359031,0.766005076 L7.56938326,0.240624365 Z" id="Fill-11" fill="#FFF4E3"/>
      </g>
      <g id="Group-3" transform="translate(10.000000, 18.451777)">
        <path d="M69.1685022,18.1620609 C69.1685022,36.0873503 54.7299471,50.6186802 36.9187533,50.6186802 C19.1079075,50.6186802 4.66935242,36.0873503 4.66935242,18.1620609 L69.1685022,18.1620609 Z" id="Fill-13" fill="#FFF4E3"/>
        <path d="M13.2391123,26.7870609 L25.7399053,25.7986447 C25.9003414,24.7160102 25.9852577,23.6092081 25.9852577,22.4817411 C25.9852577,10.1661168 16.0653634,0.18213198 3.82801982,0.18213198 C2.587337,0.18213198 1.37205947,0.290010152 0.187059471,0.487203046 L7.36631498,7.71258883 L0.116063877,7.71258883 L5.82912115,13.4627056 L-0.000174008811,13.4627056 L13.2391123,26.7870609 Z" id="Fill-15" fill="#FFF4E3"/>
        <path d="M70.2995595,12.5432893 L68.6029736,24.2330102 L49.6360132,18.3224772 C49.6360132,18.3224772 55.7263216,3.96207107 67.7329295,3.96207107 L70.2995595,12.5432893 Z" id="Fill-18" fill="#FFF4E3"/>
        <path d="M57.5678568,18.1620609 C57.5678568,29.6395279 48.3231167,38.9436701 36.9189273,38.9436701 C28.6733458,38.9436701 21.5563855,34.0793452 18.2467379,27.046599 L30.7123811,27.046599 L17.0526894,18.1620609 L57.5678568,18.1620609 Z" id="Fill-20" fill="#F3E4CE"/>
      </g>
      <g id="Group-4" transform="translate(70.903084, 16.000000)">
        <path d="M16.0740639,17.4140239 C16.0740639,19.8500391 14.1119405,21.8251203 11.69113,21.8251203 C9.2706674,21.8251203 7.30854405,19.8500391 7.30854405,17.4140239 C7.30854405,14.9780086 9.2706674,13.0029274 11.69113,13.0029274 C14.1119405,13.0029274 16.0740639,14.9780086 16.0740639,17.4140239" id="Fill-22" fill="#CE2235"/>
        <path d="M15.030359,4.6112665 C15.0950903,4.32020558 15.1131872,4.01163198 15.0766454,3.69325127 C14.9374383,2.48522589 13.9762137,1.48840355 12.7793811,1.31923096 C11.5686278,1.14795685 10.486989,1.78436802 9.9816674,2.76893147 C9.9816674,2.75422081 9.98375551,2.73986041 9.98375551,2.72514975 C9.98375551,1.21975888 8.77126211,-0.000175126904 7.2758304,-0.000175126904 C6.24535022,-0.000175126904 5.35129295,0.579845178 4.89434581,1.4327132 C4.73773789,1.72517513 4.39563656,1.84075888 4.09494934,1.7041599 C3.75528414,1.55074873 3.37907709,1.4652868 2.982337,1.46633756 C1.55163656,1.47089086 0.333922907,2.65685025 0.284504405,4.09534264 C0.233693833,5.5772665 1.3588348,6.80280457 2.79301542,6.90753046 L2.8657511,6.9064797 L5.43238106,6.9064797 C5.66450881,6.9064797 9.93920925,9.21570305 11.9657159,9.40694162 C12.4407599,10.4629569 13.5620727,11.1613629 14.8232885,10.9830838 C16.0089846,10.8160127 16.964989,9.84055584 17.1170727,8.64548985 C17.2733326,7.41644924 16.6152313,6.32400761 15.6118965,5.83470305 C15.1612137,5.61509391 14.9210815,5.10302284 15.030359,4.6112665" id="Fill-24" fill="#CE2235"/>
        <path d="M9.32273084,1.23870761 C9.32273084,1.23870761 9.05266916,0.5382 9.49465154,1.16480406 C9.93698194,1.79105787 10.451352,1.99840812 11.0777837,1.63169239 C11.7042154,1.26497665 10.8908982,3.35283959 10.8908982,3.35283959 L9.76506123,3.43935228 L9.06484978,2.97771777 L9.32273084,1.23870761 Z" id="Fill-27" fill="#CE2235"/>
        <path d="M18.0804203,13.7910685 C16.9900811,11.9081041 14.9698388,10.6387843 12.6482132,10.6387843 C10.3265877,10.6387843 8.30634537,11.9081041 7.21600617,13.7910685 L18.0804203,13.7910685 Z" id="Fill-29" fill="#FFDB5D"/>
        <path d="M13.1376652,11.1785254 C13.1376652,14.4954289 10.4659339,17.1839772 7.17055507,17.1839772 C3.87482819,17.1839772 1.20344493,14.4954289 1.20344493,11.1785254 C1.20344493,7.86197208 3.87482819,5.1730736 7.17055507,5.1730736 C10.4659339,5.1730736 13.1376652,7.86197208 13.1376652,11.1785254" id="Fill-31" fill="#E8441D"/>
        <path d="M9.88161233,11.1785254 C9.88161233,12.6856675 8.66772687,13.9073528 7.17055507,13.9073528 C5.67303524,13.9073528 4.45914978,12.6856675 4.45914978,11.1785254 C4.45914978,9.6717335 5.67303524,8.45004822 7.17055507,8.45004822 C8.66772687,8.45004822 9.88161233,9.6717335 9.88161233,11.1785254" id="Fill-33" fill="#FFF4E3"/>
        <path d="M8.93970264,11.1785254 C8.93970264,12.1623883 8.14761454,12.9592157 7.17072907,12.9592157 C6.19314758,12.9592157 5.40140749,12.1623883 5.40140749,11.1785254 C5.40140749,10.1950127 6.19314758,9.39783503 7.17072907,9.39783503 C8.14761454,9.39783503 8.93970264,10.1950127 8.93970264,11.1785254" id="Fill-35" fill="#17242D"/>
      </g>
    </g>
  </g>
</svg>