<svg version="1.1" width="108" height="152" viewBox="-1 -1 108 152" xmlns="http://www.w3.org/2000/svg" xmlns:xlink="http://www.w3.org/1999/xlink">
  <!-- Exported by Scratch - http://scratch.mit.edu/ -->
  <path id="Shape" fill="#824600" stroke="none" stroke-width="1" d="M 25.747 43.959 C 25.026 39.576 21.290 38.471 17.594 40.027 C 14.103 41.491 12.354 44.147 13.314 46.866 C 16.113 48.473 18.094 52.269 19.860 54.891 L 26.065 51.146 C 27.286 49.163 26.116 46.205 25.747 43.959 Z "/>
  <path id="Shape" fill="#FFC800" stroke="none" stroke-width="1" d="M 105.067 4.104 C 104.327 3.065 103.463 2.122 102.495 1.294 C 101.902 0.785 101.157 0.488 100.377 0.450 C 98.991 0.382 97.613 0.708 96.403 1.391 C 94.887 2.228 93.354 3.015 91.827 3.824 C 91.356 4.069 90.867 4.286 90.425 4.565 C 87.921 6.161 85.235 7.415 82.635 8.845 C 80.932 9.792 1.448 55.307 0.818 56.030 L 2.186 57.210 C 2.623 57.062 94.983 16.956 95.926 16.488 C 98.948 15.028 101.804 13.244 104.442 11.165 C 104.825 10.857 105.163 10.496 105.447 10.094 C 106.531 8.606 106.384 5.853 105.067 4.104 Z "/>
  <path id="Shape" fill="#824600" stroke="none" stroke-width="1" d="M 13.995 44.398 L 20.240 43.566 L 23.442 50.291 L 19.820 54.013 L 14.443 54.338 C 14.443 54.338 10.339 50.018 13.995 44.398 Z "/>
  <path id="Shape" fill="#642800" stroke="none" stroke-width="1" d="M 27.121 50.987 C 26.815 51.699 21.268 55.694 19.695 55.740 C 19.587 54.634 21.586 50.080 23.033 47.613 C 22.931 47.248 22.494 45.840 22.494 45.840 C 22.494 45.840 18.463 46.285 18.361 44.210 C 18.298 42.836 21.160 41.879 23.181 41.930 C 23.943 41.915 24.665 42.272 25.117 42.888 C 25.536 43.351 25.930 43.836 26.298 44.341 C 26.792 45.555 26.843 49.767 27.121 50.987 Z "/>
  <path id="Shape" fill="#BE0A3C" stroke="none" stroke-width="1" d="M 29.483 55.928 C 27.507 56.065 20.586 54.115 18.594 54.081 C 18.792 53.677 26.264 50.246 26.888 49.955 C 27.405 50.354 29.426 55.238 29.483 55.928 Z "/>
  <path id="Shape" fill="#6E1E3C" stroke="none" stroke-width="1" d="M 25.480 56.555 C 27.240 55.187 48.059 45.310 49.893 44.985 C 48.758 46.171 45.192 57.313 45.192 57.313 C 45.192 57.313 26.650 56.834 25.480 56.555 Z "/>
  <path id="Shape" fill="#BE0A3C" stroke="none" stroke-width="1" d="M 25.049 84.254 C 25.202 84.789 36.483 125.506 36.483 125.506 L 47.929 124.753 C 47.929 124.753 54.140 85.097 54.140 81.119 L 25.049 84.254 Z "/>
  <path id="Shape" fill="#F01446" stroke="none" stroke-width="1" d="M 46.334 74.662 L 42.229 73.881 C 40.843 72.861 37.971 72.775 36.330 72.405 C 34.307 71.908 32.341 71.199 30.465 70.290 C 25.673 68.113 18.804 63.736 13.314 64.391 L 16.362 76.805 C 17.498 81.330 17.929 87.121 19.928 91.338 C 21.705 95.077 27.598 97.904 37.528 97.607 C 47.458 97.311 53.425 88.340 53.425 88.340 C 53.425 88.340 47.690 75.802 46.334 74.662 Z "/>
  <path id="Shape" fill="#FFC800" stroke="none" stroke-width="1" d="M 43.046 77.836 C 43.873 78.404 44.745 78.903 45.652 79.329 C 45.652 79.329 41.803 82.561 39.237 83.159 C 35.263 84.077 31.760 82.379 29.801 81.330 C 26.900 79.774 24.123 77.990 21.239 76.400 C 20.490 75.984 18.446 75.408 18.054 74.610 C 17.521 73.522 18.264 74.040 18.054 73.111 C 21.052 71.772 26.900 76.770 29.568 77.888 C 31.760 78.799 35.325 81.165 37.920 81.102 C 39.572 81.062 41.797 79.221 43.046 77.836 Z "/>
  <path id="Shape" fill="#F01446" stroke="none" stroke-width="1" d="M 16.862 70.239 C 15.937 68.569 14.937 65.548 13.314 64.380 C 1.959 66.911 2.197 82.322 6.807 92.364 C 8.000 94.969 13.376 100.565 13.376 100.565 L 25.514 91.355 C 25.514 91.355 17.203 70.855 16.862 70.239 Z "/>
  <path id="Shape" fill="#FFC800" stroke="none" stroke-width="1" d="M 19.457 95.424 C 19.258 95.937 18.259 96.405 17.844 96.667 C 17.197 96.530 15.386 94.353 15.051 93.817 C 14.273 92.637 13.416 91.503 12.780 90.267 C 11.772 88.477 11.127 86.505 10.884 84.465 C 10.850 84.077 10.798 83.695 10.787 83.325 C 10.623 81.238 10.984 79.142 11.837 77.232 C 13.325 73.037 17.611 71.960 19.786 72.986 C 21.784 73.642 21.852 76.360 21.852 76.360 C 21.852 76.360 18.912 74.895 17.782 75.152 C 17.214 75.283 15.045 77.369 14.182 79.643 C 13.319 81.917 13.768 84.373 13.796 85.120 C 13.865 86.719 14.304 88.281 15.079 89.680 C 15.789 91.042 19.411 95.316 19.457 95.424 Z "/>
  <path id="Shape" fill="#6E1E3C" stroke="none" stroke-width="1" d="M 28.205 94.518 C 28.205 94.518 17.753 102.811 15.755 104.207 C 15.318 104.646 33.588 117.738 33.497 119.396 C 32.606 120.633 30.045 122.633 29.784 124.018 L 30.420 124.514 C 31.555 123.123 36.563 117.475 37.352 116.375 C 37.323 116.204 28.205 94.518 28.205 94.518 Z "/>
  <path id="Shape" fill="#F0E6D2" stroke="none" stroke-width="1" d="M 25.452 87.953 C 25.452 87.953 10.458 100.833 10.424 100.907 C 11.173 102.651 15.721 105.552 15.721 105.552 L 28.853 94.279 L 25.452 87.953 Z "/>
  <path id="Shape" fill="#F0E6D2" stroke="none" stroke-width="1" d="M 29.494 95.749 L 17.129 106.669 L 18.838 107.712 L 30.386 97.094 L 29.494 95.749 "/>
  <path id="Shape" fill="#6E1E3C" stroke="none" stroke-width="1" d="M 48.179 125.506 L 36.069 126.002 C 36.898 128.920 42.348 145.220 43.183 150.509 C 41.905 150.543 39.566 150.634 39.566 150.634 L 39.532 151.318 C 39.532 151.318 46.055 151.489 47.480 151.181 C 48.048 149.540 48.383 131.707 48.179 125.506 Z "/>
  <path id="Shape" fill="#BE0A3C" stroke="none" stroke-width="1" d="M 56.740 42.329 C 54.027 43.088 51.371 44.041 48.792 45.179 C 48.025 45.498 34.178 60.795 30.624 65.366 C 30.463 65.522 30.313 65.690 30.176 65.868 C 29.875 66.255 29.500 66.586 29.171 66.956 C 28.811 67.435 28.485 67.938 28.194 68.461 L 53.623 87.941 C 53.623 87.941 57.495 80.920 58.336 78.742 C 58.903 77.289 59.471 75.847 60.039 74.400 L 61.316 71.242 C 61.606 70.524 61.884 69.806 62.185 69.076 C 62.633 67.891 63.071 66.694 63.502 65.497 C 63.553 65.366 64.121 63.747 64.479 62.647 L 64.507 62.647 L 64.507 62.556 C 64.649 62.129 64.757 61.793 64.780 61.701 C 64.683 61.764 65.217 48.382 65.427 43.173 C 65.478 41.913 65.512 41.127 65.512 41.127 C 65.512 41.127 57.660 42.090 56.740 42.329 Z "/>
  <path id="Shape" fill="#824600" stroke="none" stroke-width="1" d="M 53.584 54.497 C 52.448 54.372 23.771 53.682 22.880 53.728 L 20.609 60.322 C 20.836 60.425 40.219 65.651 49.286 67.788 C 50.783 68.178 52.327 68.353 53.873 68.307 L 53.584 54.497 Z "/>
  <path id="Shape" fill="#824600" stroke="none" stroke-width="1" d="M 65.177 18.409 L 35.200 20.768 C 35.234 21.310 41.241 33.746 41.491 34.082 C 42.217 35.074 42.677 36.259 43.625 37.086 C 44.080 37.479 44.528 37.878 44.982 38.266 C 45.804 39.040 46.750 39.671 47.781 40.129 C 48.531 40.426 49.314 40.654 50.092 40.876 C 51.510 41.307 53.013 41.374 54.464 41.070 C 54.804 40.996 55.151 40.927 55.491 40.836 C 56.695 40.534 57.782 39.880 58.614 38.955 C 60.495 36.883 61.924 34.439 62.809 31.780 C 65.137 24.439 65.353 18.808 65.177 18.409 Z "/>
  <path id="Shape" fill="#642800" stroke="none" stroke-width="1" d="M 47.969 24.980 C 48.502 25.670 49.377 30.247 49.326 30.942 C 48.678 31.962 47.656 32.082 46.544 32.082 C 46.021 31.871 44.273 27.921 44.000 27.306 C 45.022 26.337 46.680 25.590 47.969 24.980 Z "/>
  <path id="Shape" fill="#000000" stroke="none" stroke-width="1" d="M 64.677 22.279 C 67.726 21.623 99.542 25.812 96.119 36.698 C 94.416 42.107 85.133 37.667 81.551 35.701 C 76.214 32.766 64.535 22.701 64.677 22.279 Z "/>
  <path id="Shape" fill="#BE0A3C" stroke="none" stroke-width="1" d="M 34.536 23.487 C 33.116 25.807 28.291 28.275 31.794 31.187 C 33.196 32.327 36.387 32.749 39.231 32.412 C 41.247 32.179 48.031 29.027 49.956 27.682 C 51.988 26.265 53.821 24.580 55.406 22.672 L 34.536 23.487 Z "/>
  <path id="Shape" fill="#F01446" stroke="none" stroke-width="1" d="M 68.328 17.577 C 67.227 11.877 64.666 8.458 59.744 5.295 C 55.951 2.850 51.506 0.935 46.947 1.146 C 41.968 1.374 36.966 4.514 33.889 8.367 C 30.045 13.177 30.794 19.612 33.048 25.163 C 36.199 25.516 48.377 24.325 54.566 23.749 C 56.269 25.915 57.728 27.551 60.947 28.018 C 69.333 29.232 68.697 19.338 68.328 17.577 Z "/>
  <path id="Shape" fill="#F01446" stroke="none" stroke-width="1" d="M 48.128 53.762 C 49.223 51.061 63.871 39.166 66.772 41.463 C 71.507 45.213 65.745 58.276 64.501 62.699 C 61.169 66.061 52.726 69.430 52.726 69.430 C 52.726 69.430 48.497 56.333 48.128 53.762 Z "/>
  <path id="Shape" fill="#FFC800" stroke="none" stroke-width="1" d="M 4.457 52.753 C 4.457 52.474 1.170 50.263 0.165 54.155 C -0.020 54.734 -0.020 55.355 0.165 55.934 C 0.653 57.216 2.174 60.123 4.661 59.285 C 7.148 58.447 6.364 56.435 6.580 56.196 L 4.457 52.753 Z "/>
  <path id="Shape" fill="#824600" stroke="none" stroke-width="1" d="M 20.115 55.928 C 20.342 57.142 19.411 58.538 19.105 58.852 C 18.719 58.783 9.260 59.211 8.999 59.108 C 7.641 58.620 6.352 57.955 5.166 57.130 C 3.666 56.074 2.789 54.336 2.827 52.497 C 2.796 50.952 3.434 49.470 4.576 48.433 C 9.686 44.672 12.558 45.082 15.130 46.114 C 16.005 46.302 19.956 55.506 20.115 55.928 Z "/>
  <path id="Shape" fill="#F01446" stroke="none" stroke-width="1" d="M 26.252 52.941 C 26.417 53.819 23.556 62.060 23.414 62.283 C 20.422 61.644 16.601 60.721 13.603 59.741 C 13.932 59.262 17.577 52.765 17.577 52.765 C 17.577 52.765 23.845 52.383 26.252 52.941 Z "/>
  <path id="Shape" fill="#BE0A3C" stroke="none" stroke-width="1" d="M 42.013 14.020 L 42.990 15.126 C 43.467 16.904 43.309 18.794 42.541 20.466 C 41.574 21.293 40.282 21.628 39.038 21.373 C 37.096 20.102 34.059 18.215 35.461 15.360 C 36.534 13.148 40.162 12.881 42.013 14.020 Z "/>
  <path id="Shape" fill="#6E1E3C" stroke="none" stroke-width="1" d="M 64.382 19.452 L 65.393 20.786 C 65.546 21.874 65.960 23.065 64.921 24.171 C 62.736 25.562 57.921 24.741 59.011 21.042 C 60.516 19.013 62.497 18.432 64.382 19.452 Z "/>
  <path id="Shape" fill="#000000" stroke="none" stroke-width="1" d="M 50.972 28.964 C 51.884 27.793 52.874 26.684 53.936 25.647 C 54.009 25.824 54.083 26.006 54.231 26.348 C 53.936 26.565 53.095 28.058 52.573 28.428 C 53.107 28.383 54.327 27.938 54.606 27.915 C 54.901 28.132 54.861 28.389 54.662 28.748 L 51.744 29.699 C 51.324 29.671 50.972 29.551 50.972 28.964 Z "/>
  <path id="Shape" fill="#000000" stroke="none" stroke-width="1" d="M 50.217 34.624 C 50.518 34.339 50.682 34.082 50.915 33.974 C 52.437 33.196 53.828 32.182 55.037 30.970 L 55.639 31.044 C 55.667 31.272 55.696 31.466 55.724 31.671 L 50.836 35.296 L 50.217 34.624 Z "/>
  <path id="Shape" fill="#6E1E3C" stroke="none" stroke-width="1" d="M 29.602 65.765 L 26.968 68.506 L 53.714 89.127 L 55.872 86.294 L 29.602 65.765 "/>
  <path id="Rectangle-path" fill="#F01446" stroke="none" stroke-width="1" d="M 44.746 81.207 L 53.552 81.207 L 53.552 86.370 L 44.746 86.370 L 44.746 81.207 Z " transform="matrix(0.7722902894020081, 0.635269820690155, -0.635269820690155, 0.7722902894020081, 64.35, -12.15)"/>
  <path id="Rectangle-path" fill="#F01446" stroke="none" stroke-width="1" d="M 37.015 72.528 L 39.712 72.528 L 39.712 77.691 L 37.015 77.691 L 37.015 72.528 Z " transform="matrix(0.7722902894020081, 0.635269820690155, -0.635269820690155, 0.7722902894020081, 56.4, -7.25)"/>
  <path id="Rectangle-path" fill="#F01446" stroke="none" stroke-width="1" d="M 29.296 66.278 L 31.993 66.278 L 31.993 71.442 L 29.296 71.442 L 29.296 66.278 Z " transform="matrix(0.7722902894020081, 0.635269820690155, -0.635269820690155, 0.7722902894020081, 50.65, -3.75)"/>
  <path id="Shape" fill="#F0E6D2" stroke="none" stroke-width="1" d="M 48.939 127.324 C 49.093 125.671 49.144 122.998 49.309 121.260 L 34.246 121.260 C 34.445 122.331 35.450 125.546 36.018 127.381 L 48.939 127.324 Z "/>
  <path id="Shape" fill="#F0E6D2" stroke="none" stroke-width="1" d="M 48.888 130.231 C 48.934 129.786 48.888 129.262 48.939 128.857 L 36.239 128.948 C 36.341 129.324 36.466 129.763 36.602 130.231 L 48.888 130.231 Z "/>
</svg>