<svg version="1.1" width="173" height="121" viewBox="-1 -1 173 121" xmlns="http://www.w3.org/2000/svg" xmlns:xlink="http://www.w3.org/1999/xlink">
  <!-- Exported by Scratch - http://scratch.mit.edu/ -->
  <g id="andie-d">
    <g id="Group">
      <path id="Fill-1" fill="#000000" stroke="none" stroke-width="1" d="M 85.724 7.938 C 87.397 8.162 89.312 8.900 90.400 9.742 C 92.567 11.420 94.414 12.656 93.739 19.540 C 93.800 18.924 79.558 12.347 79.558 12.347 C 80.029 9.867 83.117 7.588 85.724 7.938 " transform="matrix(1, 0, 0, 1, 0, 0.25)"/>
      <path id="Fill-3" fill="#A0783C" stroke="none" stroke-width="1" d="M 92.870 19.148 C 92.870 19.148 93.456 16.810 95.801 18.052 C 98.145 19.294 96.590 22.056 96.020 23.092 C 95.319 24.367 93.978 24.773 92.661 25.206 C 92.839 22.817 92.870 19.148 92.870 19.148 " transform="matrix(1, 0, 0, 1, 0, 0.25)"/>
      <path id="Fill-5" fill="#A0783C" stroke="none" stroke-width="1" d="M 79.421 24.206 C 78.105 23.772 76.764 23.366 76.063 22.092 C 75.493 21.056 73.938 18.294 76.282 17.052 C 78.627 15.810 79.213 18.148 79.213 18.148 C 79.213 18.148 79.244 21.817 79.421 24.206 " transform="matrix(1, 0, 0, 1, 0, 0.25)"/>
      <path id="Fill-7" fill="#BE965A" stroke="none" stroke-width="1" d="M 93.711 17.826 C 93.195 13.695 90.465 9.377 85.769 9.129 C 80.332 8.842 78.176 12.891 78.118 17.782 C 78.240 18.067 78.332 22.851 78.492 24.282 C 78.712 26.245 79.101 27.822 80.226 29.475 C 82.607 32.972 86.176 34.189 89.871 32.670 C 91.494 32.002 92.318 30.845 93.072 29.408 C 93.808 28.003 94.007 20.194 93.711 17.826 " transform="matrix(1, 0, 0, 1, 0, 0.25)"/>
      <path id="Fill-9" fill="#000000" stroke="none" stroke-width="1" d="M 84.581 8.673 L 81.390 10.750 C 81.390 10.750 87.596 10.883 89.457 9.690 L 84.581 8.673 Z " transform="matrix(1, 0, 0, 1, 0, 0.25)"/>
      <path id="Fill-11" fill="#000000" stroke="none" stroke-width="1" d="M 86.054 17.365 C 83.907 17.365 82.620 17.261 81.701 19.286 C 81.744 20.308 83.874 21.341 85.939 21.288 C 88.003 21.235 90.002 20.096 90.002 19.134 C 90.002 17.211 88.200 17.364 86.054 17.365 " transform="matrix(1, 0, 0, 1, 0, 0.25)"/>
      <path id="Fill-13" fill="#A0783C" stroke="none" stroke-width="1" d="M 86.620 14.400 C 86.347 13.493 85.900 12.666 85.368 11.825 C 84.297 12.534 83.660 14.453 84.281 15.652 C 84.435 15.949 85.136 16.834 86.296 16.183 C 86.706 15.954 86.791 14.966 86.620 14.400 " transform="matrix(1, 0, 0, 1, 0, 0.25)"/>
      <path id="Fill-15" fill="#000000" stroke="none" stroke-width="1" d="M 89.721 12.358 C 89.940 13.062 89.980 13.599 89.484 14.100 C 88.671 13.702 88.942 13.032 88.926 12.358 L 89.721 12.358 Z " transform="matrix(1, 0, 0, 1, 0, 0.25)"/>
      <path id="Fill-17" fill="#000000" stroke="none" stroke-width="1" d="M 81.682 13.916 C 81.116 13.751 81.116 13.751 80.848 13.154 C 80.954 12.979 81.076 12.777 81.214 12.548 C 81.413 12.586 81.576 12.617 81.746 12.649 C 81.960 13.084 82 13.470 81.682 13.916 " transform="matrix(1, 0, 0, 1, 0, 0.25)"/>
      <path id="Fill-19" fill="#BE965A" stroke="none" stroke-width="1" d="M 171.141 69.683 C 171.265 69.486 171.416 69.245 171.570 68.998 C 171.105 67.557 103.182 45.179 96.102 42.892 C 92.945 44.233 90.662 50.235 91.063 52.184 C 94.082 54.571 163.466 80.340 165.992 78.493 C 165.981 78.261 165.967 77.992 165.955 77.766 C 164.753 76.799 163.246 76.539 162.137 75.647 C 161.973 75.174 162.019 74.815 162.492 74.484 C 164.222 74.358 167.614 75.517 169.049 74.218 C 169.027 74.032 169.002 73.828 168.975 73.604 C 167.801 72.978 165.464 72.290 165.146 70.825 C 165.342 70.569 165.573 70.267 165.784 69.992 C 167.447 69.915 169.671 70.528 171.141 69.683 " transform="matrix(1, 0, 0, 1, 0, 0.25)"/>
      <path id="Fill-21" fill="#A0783C" stroke="none" stroke-width="1" d="M 167.322 63.001 C 166.324 64.049 164.050 64.342 162.737 64.173 C 162.541 64.281 161.741 66.759 160.723 67.959 C 159.377 69.544 157.561 69.894 155.368 69.439 C 152.220 67.470 154.865 63.989 157.555 63.454 C 159.124 63.142 167.029 61.235 167.322 63.001 " transform="matrix(1, 0, 0, 1, 0, 0.25)"/>
      <path id="Fill-23" fill="#A0783C" stroke="none" stroke-width="1" d="M 115.938 48.425 L 107.422 51.076 L 124.059 52.130 L 115.938 48.425 " transform="matrix(1, 0, 0, 1, 0, 0.25)"/>
      <path id="Fill-25" fill="#BE965A" stroke="none" stroke-width="1" d="M 170.735 31.224 C 170.410 32.476 166.969 32.849 167.202 34.284 C 167.718 35.262 170.528 34.268 171.556 35.042 C 171.063 36.179 168.954 36.985 167.969 37.577 C 167.988 37.775 168.008 37.971 168.022 38.120 C 168.845 38.648 171.118 37.935 171.692 38.825 C 171.223 40.756 101.169 54.180 93.443 54.180 C 93.285 54.309 90.262 41.141 90.262 41.141 C 90.262 41.141 169.104 29.492 170.735 31.224 " transform="matrix(1, 0, 0, 1, 0, 0.25)"/>
      <path id="Fill-27" fill="#A0783C" stroke="none" stroke-width="1" d="M 113.873 37.100 L 105.296 43.364 L 127.336 35.943 L 113.873 37.100 " transform="matrix(1, 0, 0, 1, 0, 0.25)"/>
      <g id="Group-31">
        <path id="Fill-29" fill="#BE965A" stroke="none" stroke-width="1" d="M 61.580 9.002 C 60.362 8.021 67.764 4.377 67.109 3.256 C 66.453 2.135 60.128 6.479 59.144 5.825 C 58.161 5.171 64.306 0.981 63.997 0.087 C 63.689 -0.808 49.446 7.974 49.446 7.974 L 0.423 36.393 C 0.423 36.393 0.613 41.261 1.401 43.259 C 1.894 44.509 2.330 47.991 3.430 48.589 C 6.149 47.382 32.364 33.455 41.695 27.430 C 46.556 24.291 67.543 9.438 68.046 7.460 C 66.679 6.886 62.799 9.983 61.580 9.002 " transform="matrix(1, 0, 0, 1, 93.25, 0.7)"/>
      </g>
      <path id="Fill-32" fill="#A0783C" stroke="none" stroke-width="1" d="M 148.238 0.665 C 149.230 0.744 145.649 6.241 146.572 6.519 C 149.587 7.429 150.699 9.927 147.683 11.345 C 145.449 12.395 143.049 11.333 143.284 8.624 C 143.518 5.914 147.246 0.586 148.238 0.665 " transform="matrix(1, 0, 0, 1, 0, 0.25)"/>
      <path id="Fill-34" fill="#A0783C" stroke="none" stroke-width="1" d="M 164.668 28.038 C 165.494 28.591 160.214 30.614 160.883 31.308 C 163.066 33.572 162.810 36.294 159.484 36.059 C 157.020 35.885 155.448 33.788 156.982 31.539 C 158.515 29.291 163.842 27.486 164.668 28.038 " transform="matrix(1, 0, 0, 1, 0, 0.25)"/>
      <path id="Fill-36" fill="#BE965A" stroke="none" stroke-width="1" d="M 0.551 69.683 C 0.427 69.486 0.276 69.245 0.121 68.998 C 0.587 67.557 68.510 45.179 75.590 42.892 C 78.747 44.233 81.030 50.235 80.629 52.184 C 77.610 54.571 8.226 80.340 5.699 78.493 C 5.711 78.261 5.725 77.992 5.737 77.766 C 6.939 76.799 8.446 76.539 9.554 75.647 C 9.719 75.174 9.674 74.815 9.200 74.484 C 7.470 74.357 4.078 75.517 2.643 74.218 C 2.666 74.032 2.690 73.828 2.716 73.604 C 3.891 72.978 6.228 72.290 6.545 70.825 C 6.350 70.569 6.119 70.267 5.908 69.992 C 4.245 69.915 2.021 70.528 0.551 69.683 " transform="matrix(1, 0, 0, 1, 0, 0.25)"/>
      <path id="Fill-38" fill="#A0783C" stroke="none" stroke-width="1" d="M 4.369 63.001 C 5.369 64.049 7.641 64.342 8.956 64.173 C 9.151 64.281 9.951 66.759 10.969 67.959 C 12.315 69.544 14.131 69.894 16.325 69.439 C 19.472 67.470 16.826 63.989 14.137 63.454 C 12.568 63.142 4.663 61.235 4.369 63.001 " transform="matrix(1, 0, 0, 1, 0, 0.25)"/>
      <path id="Fill-40" fill="#A0783C" stroke="none" stroke-width="1" d="M 55.754 48.425 L 64.269 51.076 L 47.632 52.130 L 55.754 48.425 " transform="matrix(1, 0, 0, 1, 0, 0.25)"/>
      <path id="Fill-42" fill="#BE965A" stroke="none" stroke-width="1" d="M 0.957 31.224 C 1.281 32.476 4.723 32.849 4.490 34.284 C 3.974 35.262 1.164 34.268 0.137 35.042 C 0.629 36.179 2.738 36.985 3.723 37.577 C 3.704 37.775 3.684 37.971 3.669 38.120 C 2.847 38.648 0.573 37.935 0 38.825 C 0.469 40.756 70.522 54.180 78.250 54.180 C 78.407 54.309 81.429 41.141 81.429 41.141 C 81.429 41.141 2.588 29.492 0.957 31.224 " transform="matrix(1, 0, 0, 1, 0, 0.25)"/>
      <path id="Fill-44" fill="#A0783C" stroke="none" stroke-width="1" d="M 57.819 37.100 L 66.396 43.364 L 44.355 35.943 L 57.819 37.100 " transform="matrix(1, 0, 0, 1, 0, 0.25)"/>
      <g id="Group-48">
        <path id="Fill-46" fill="#BE965A" stroke="none" stroke-width="1" d="M 6.811 9.002 C 8.029 8.021 0.627 4.377 1.283 3.256 C 1.939 2.135 8.264 6.479 9.247 5.825 C 10.231 5.171 4.085 0.981 4.394 0.087 C 4.703 -0.808 18.945 7.974 18.945 7.974 L 67.969 36.393 C 67.969 36.393 67.779 41.261 66.991 43.259 C 66.498 44.509 66.061 47.991 64.961 48.589 C 62.243 47.382 36.028 33.455 26.697 27.430 C 21.836 24.291 0.849 9.438 0.346 7.460 C 1.712 6.886 5.593 9.983 6.811 9.002 " transform="matrix(1, 0, 0, 1, 10, 0.7)"/>
      </g>
      <path id="Fill-49" fill="#A0783C" stroke="none" stroke-width="1" d="M 23.454 0.665 C 22.462 0.744 26.043 6.241 25.120 6.519 C 22.105 7.429 20.993 9.927 24.009 11.345 C 26.243 12.395 28.643 11.333 28.408 8.624 C 28.174 5.914 24.445 0.586 23.454 0.665 " transform="matrix(1, 0, 0, 1, 0, 0.25)"/>
      <path id="Fill-51" fill="#A0783C" stroke="none" stroke-width="1" d="M 7.024 28.038 C 6.198 28.591 11.478 30.614 10.809 31.308 C 8.626 33.572 8.881 36.294 12.208 36.059 C 14.672 35.885 16.243 33.788 14.710 31.539 C 13.176 29.291 7.850 27.486 7.024 28.038 " transform="matrix(1, 0, 0, 1, 0, 0.25)"/>
      <path id="Fill-53" fill="#006482" stroke="none" stroke-width="1" d="M 62.935 81.273 C 62.935 81.273 64.389 68.193 65.358 66.502 C 66.327 64.812 105.319 64.933 105.319 64.933 L 108.462 80.027 L 62.935 81.273 Z " transform="matrix(1, 0, 0, 1, 0, 0.25)"/>
      <path id="Fill-55" fill="#006482" stroke="none" stroke-width="1" d="M 105.712 93.283 C 104.982 97.820 102.703 110.717 102.703 110.717 C 102.703 110.717 102.572 111.169 102.501 111.757 C 101.721 111.679 101.011 111.770 101.011 111.770 C 101.011 111.770 73.407 111.928 71.959 111.852 C 70.907 111.796 69.795 111.782 68.853 111.898 C 68.787 111.243 68.636 110.717 68.636 110.717 C 68.636 110.717 66.358 97.820 65.628 93.283 L 62.749 93.283 C 62.924 94.314 63.112 95.341 63.270 96.367 C 63.726 99.328 65.128 107.581 66.287 111.850 C 66.434 112.391 67.036 114.485 67.540 114.414 C 70.376 114.877 73.289 114.649 76.150 114.647 C 79.155 114.645 103.616 114.383 103.616 114.383 C 103.616 114.383 104.410 114.218 105.053 111.850 C 106.212 107.581 107.614 99.328 108.070 96.367 C 108.228 95.341 108.416 94.314 108.591 93.283 L 105.712 93.283 Z " transform="matrix(1, 0, 0, 1, 0, 0.25)"/>
      <path id="Fill-57" fill="#000000" stroke="none" stroke-width="1" d="M 99.386 119.977 C 98.663 119.994 98.381 118.968 98.379 117.801 C 98.378 116.675 98.274 116.428 98.600 115.312 C 98.805 115.094 99.088 114.971 99.530 114.998 C 100.294 115.170 100.375 116.077 100.313 116.928 C 100.310 116.977 100.655 119.947 99.386 119.977 " transform="matrix(1, 0, 0, 1, 0, 0.25)"/>
      <path id="Fill-59" fill="#008CB4" stroke="none" stroke-width="1" d="M 97.296 116.304 L 101.370 116.304 L 101.370 111.126 L 97.296 111.126 L 97.296 116.304 " transform="matrix(1, 0, 0, 1, 0, 0.25)"/>
      <path id="Fill-61" fill="#000000" stroke="none" stroke-width="1" d="M 72.127 119.977 C 71.405 119.994 71.123 118.968 71.121 117.801 C 71.119 116.675 71.016 116.428 71.342 115.312 C 71.546 115.094 71.830 114.971 72.272 114.998 C 73.036 115.170 73.117 116.077 73.055 116.928 C 73.051 116.977 73.397 119.947 72.127 119.977 " transform="matrix(1, 0, 0, 1, 0, 0.25)"/>
      <path id="Fill-62" fill="#008CB4" stroke="none" stroke-width="1" d="M 70.037 116.304 L 74.111 116.304 L 74.111 111.126 L 70.037 111.126 L 70.037 116.304 " transform="matrix(1, 0, 0, 1, 0, 0.25)"/>
      <path id="Fill-63" fill="#006482" stroke="none" stroke-width="1" d="M 68.166 93.323 L 65.777 93.859 L 62.935 81.273 L 65.323 80.737 L 68.166 93.323 " transform="matrix(1, 0, 0, 1, 0, 0.25)"/>
      <path id="Fill-64" fill="#006482" stroke="none" stroke-width="1" d="M 59.079 109.549 L 56.686 109.032 L 60.406 91.938 L 62.798 92.456 L 59.079 109.549 " transform="matrix(1, 0, 0, 1, 0, 0.25)"/>
      <path id="Fill-65" fill="#006482" stroke="none" stroke-width="1" d="M 111.642 109.549 L 114.034 109.032 L 110.315 91.938 L 107.922 92.456 L 111.642 109.549 " transform="matrix(1, 0, 0, 1, 0, 0.25)"/>
      <path id="Fill-66" fill="#006482" stroke="none" stroke-width="1" d="M 105.825 93.862 L 103.413 93.447 L 105.614 80.734 L 108.027 81.148 L 105.825 93.862 " transform="matrix(1, 0, 0, 1, 0, 0.25)"/>
      <path id="Fill-67" fill="#006482" stroke="none" stroke-width="1" d="M 96.094 93.581 C 95.902 94.962 95.612 95.960 95.953 97.225 C 96.214 97.284 123.257 92.261 123.257 92.261 L 122.029 88.955 C 122.029 88.955 97.213 93.385 96.094 93.581 " transform="matrix(1, 0, 0, 1, 0, 0.25)"/>
      <path id="Fill-68" fill="#008CB4" stroke="none" stroke-width="1" d="M 115.936 85.388 L 118.907 98.572 L 114.896 99.461 L 111.424 86.425 L 115.936 85.388 " transform="matrix(1, 0, 0, 1, 0, 0.25)"/>
      <path id="Fill-69" fill="#000000" stroke="none" stroke-width="1" d="M 109.399 64.353 C 107.793 64.774 108.413 65.106 109.102 68.797 C 110.344 75.449 118.661 101.978 120.002 106.363 C 121.296 110.594 122.270 115.008 124.272 118.981 C 124.972 119.663 125.739 119.937 126.677 119.538 C 128.242 118.314 127.183 114.517 125.979 111.225 C 125.219 109.147 113.096 68.805 113.096 68.805 C 113.096 68.805 112.222 63.612 109.399 64.353 " transform="matrix(1, 0, 0, 1, 0, 0.25)"/>
      <path id="Fill-70" fill="#000000" stroke="none" stroke-width="1" d="M 115.843 69.189 C 115.396 69.302 115.567 69.395 115.749 70.420 C 116.077 72.268 127.349 107.307 127.710 108.526 C 128.059 109.703 128.318 110.929 128.863 112.036 C 129.056 112.227 129.267 112.305 129.528 112.197 C 129.966 111.861 129.752 109.989 129.427 109.073 C 129.221 108.495 117.475 70.840 117.475 70.840 C 117.475 70.840 116.627 68.990 115.843 69.189 " transform="matrix(1, 0, 0, 1, 0, 0.25)"/>
      <path id="Fill-71" fill="#006482" stroke="none" stroke-width="1" d="M 74.418 93.581 C 74.610 94.962 74.900 95.960 74.558 97.225 C 74.299 97.284 47.255 92.261 47.255 92.261 L 48.483 88.955 C 48.483 88.955 73.299 93.385 74.418 93.581 " transform="matrix(1, 0, 0, 1, 0, 0.25)"/>
      <path id="Fill-72" fill="#008CB4" stroke="none" stroke-width="1" d="M 54.576 85.388 L 51.605 98.572 L 55.616 99.461 L 59.089 86.425 L 54.576 85.388 " transform="matrix(1, 0, 0, 1, 0, 0.25)"/>
      <path id="Fill-73" fill="#000000" stroke="none" stroke-width="1" d="M 61.113 64.353 C 62.719 64.774 62.099 65.106 61.410 68.797 C 60.168 75.449 51.852 101.978 50.510 106.363 C 49.216 110.594 48.242 115.008 46.241 118.981 C 45.540 119.663 44.774 119.937 43.836 119.538 C 42.270 118.314 43.330 114.517 44.534 111.225 C 45.293 109.147 57.417 68.805 57.417 68.805 C 57.417 68.805 58.290 63.612 61.113 64.353 " transform="matrix(1, 0, 0, 1, 0, 0.25)"/>
      <path id="Fill-74" fill="#000000" stroke="none" stroke-width="1" d="M 54.669 69.189 C 55.116 69.302 54.945 69.395 54.763 70.420 C 54.435 72.268 43.163 107.307 42.802 108.526 C 42.454 109.703 42.195 110.929 41.649 112.036 C 41.457 112.227 41.245 112.305 40.984 112.197 C 40.547 111.861 40.760 109.989 41.086 109.073 C 41.291 108.495 53.037 70.840 53.037 70.840 C 53.037 70.840 53.885 68.990 54.669 69.189 " transform="matrix(1, 0, 0, 1, 0, 0.25)"/>
      <path id="Fill-75" fill="#006482" stroke="none" stroke-width="1" d="M 75.306 93.580 L 75.306 97.301 C 79.122 97.308 87.809 97.334 96.035 97.264 L 96.035 93.516 C 89.001 93.545 81.036 93.573 75.306 93.580 " transform="matrix(1, 0, 0, 1, 0, 0.25)"/>
      <path id="Fill-76" fill="#008CB4" stroke="none" stroke-width="1" d="M 108.379 78.161 C 101.079 77.764 66.407 78.046 63.482 79.075 C 61.194 78.922 60.462 80.211 61.332 82.068 C 62.281 82.887 63.801 83.496 65.122 83.165 C 72.525 83.010 97.992 83.032 104.625 82.881 C 105.429 83.151 108.683 82.673 109.408 82.161 C 109.626 81.150 110.388 77.766 108.379 78.161 " transform="matrix(1, 0, 0, 1, 0, 0.25)"/>
      <path id="Fill-77" fill="#008CB4" stroke="none" stroke-width="1" d="M 114.537 109.196 C 114.579 110.278 114.253 109.955 111.808 110.231 C 107.401 110.729 69.125 110.618 66.120 110.621 C 63.221 110.623 60.268 110.860 57.396 110.372 C 56.834 110.066 56.516 109.641 56.587 108.980 C 57.054 107.770 59.637 107.705 61.930 107.826 C 63.378 107.902 111.039 107.744 111.039 107.744 C 111.039 107.744 114.461 107.296 114.537 109.196 " transform="matrix(1, 0, 0, 1, 0, 0.25)"/>
      <path id="Fill-78" fill="#780046" stroke="none" stroke-width="1" d="M 101.150 67.879 C 99.296 67.555 72.007 68.506 67.566 68.170 L 71.363 79.817 C 73.221 80.289 96.270 79.981 100.420 79.089 C 100.572 77.808 101.076 68.570 101.150 67.879 " transform="matrix(1, 0, 0, 1, 0, 0.25)"/>
      <path id="Fill-79" fill="#BE965A" stroke="none" stroke-width="1" d="M 93.881 35.975 C 92.822 35.704 77.818 35.155 77.393 35.423 C 77.081 36.245 76.175 46.788 76.175 46.788 L 93.881 44.912 C 93.881 44.912 93.952 38.173 93.881 35.975 " transform="matrix(1, 0, 0, 1, 0, 0.25)"/>
      <path id="Fill-80" fill="#F01446" stroke="none" stroke-width="1" d="M 99.860 53.498 C 99.692 52.464 98.298 45.687 97.067 40.657 C 96.324 37.623 95.467 35.158 95.467 35.158 C 95.467 35.158 92.683 34.909 91.970 35.040 C 91.964 35.478 91.659 37.717 90.668 39.090 C 89.396 40.852 87.249 41.769 85.827 41.807 C 83.299 41.875 81.382 40.705 80.580 39.277 C 79.427 37.224 79.500 34.529 79.500 34.529 C 79.500 34.529 77.563 34.415 77.337 34.487 C 74.594 35.353 71.495 48.131 71.094 50.447 C 70.366 54.644 69.717 58.858 69.152 63.080 C 68.969 64.445 67.506 69.704 68.502 70.933 L 102.588 70.597 C 102.918 69.813 100 54.356 99.860 53.498 " transform="matrix(1, 0, 0, 1, 0, 0.25)"/>
      <path id="Fill-81" fill="#000000" stroke="none" stroke-width="1" d="M 67.566 72.758 L 102.154 72.758 L 102.154 67.895 L 67.566 67.895 L 67.566 72.758 " transform="matrix(1, 0, 0, 1, 0, 0.25)"/>
      <path id="Fill-82" fill="#BE965A" stroke="none" stroke-width="1" d="M 104.690 69.941 C 104.630 76.508 102.554 82.642 102.554 82.642 L 90.290 82.835 C 90.290 82.835 91.091 63.605 94.175 60.641 C 95.040 59.810 97.186 57.099 101.449 58.925 C 105.713 60.752 104.717 67.055 104.690 69.941 " transform="matrix(1, 0, 0, 1, 0, 0.25)"/>
      <path id="Fill-83" fill="#F0E6D2" stroke="none" stroke-width="1" d="M 89.691 78.323 C 89.357 81.927 89.232 88.525 89.243 89.883 C 91.384 90.510 99.379 89.493 101.320 89.042 C 102.093 87.882 103.491 82.012 104.207 78.323 L 89.691 78.323 Z " transform="matrix(1, 0, 0, 1, 0, 0.25)"/>
      <path id="Fill-84" fill="#F01446" stroke="none" stroke-width="1" d="M 86.510 106.516 L 86.279 107.991 L 101.989 107.899 L 102.235 106.662 L 93.118 104.858 L 86.510 106.516 " transform="matrix(1, 0, 0, 1, 0, 0.25)"/>
      <path id="Fill-85" fill="#000000" stroke="none" stroke-width="1" d="M 103.067 86.250 C 103.067 86.250 99.389 86.291 95.692 86.335 C 92.096 86.378 88.482 86.422 88.215 86.432 C 87.975 89.485 86.510 106.516 86.510 106.516 C 86.510 106.516 101.031 106.567 102.235 106.662 C 102.294 106.459 102.341 106.302 102.377 106.178 C 101.463 105.176 99.374 105.691 98.173 105.226 C 98.772 103.253 102.015 91.630 103.067 86.250 " transform="matrix(1, 0, 0, 1, 0, 0.25)"/>
      <path id="Fill-86" fill="#F01446" stroke="none" stroke-width="1" d="M 96.369 91.465 C 96.369 93.589 94.643 95.311 92.512 95.311 C 90.382 95.311 88.655 93.589 88.655 91.465 C 88.655 89.341 90.382 87.620 92.512 87.620 C 94.643 87.620 96.369 89.341 96.369 91.465 " transform="matrix(1, 0, 0, 1, 0, 0.25)"/>
      <path id="Fill-87" fill="#780046" stroke="none" stroke-width="1" d="M 94.342 91.465 C 94.342 92.473 93.523 93.290 92.512 93.290 C 91.501 93.290 90.682 92.473 90.682 91.465 C 90.682 90.457 91.501 89.641 92.512 89.641 C 93.523 89.641 94.342 90.457 94.342 91.465 " transform="matrix(1, 0, 0, 1, 0, 0.25)"/>
      <path id="Fill-88" fill="#780046" stroke="none" stroke-width="1" d="M 101.888 88.064 C 101.888 88.486 101.544 88.829 101.121 88.829 C 100.697 88.829 100.353 88.486 100.353 88.064 C 100.353 87.641 100.697 87.299 101.121 87.299 C 101.544 87.299 101.888 87.641 101.888 88.064 " transform="matrix(1, 0, 0, 1, 0, 0.25)"/>
      <path id="Fill-89" fill="#780046" stroke="none" stroke-width="1" d="M 101.056 91.063 C 101.056 91.485 100.712 91.828 100.289 91.828 C 99.865 91.828 99.521 91.485 99.521 91.063 C 99.521 90.640 99.865 90.298 100.289 90.298 C 100.712 90.298 101.056 90.640 101.056 91.063 " transform="matrix(1, 0, 0, 1, 0, 0.25)"/>
      <path id="Fill-90" fill="#780046" stroke="none" stroke-width="1" d="M 100.352 94.190 C 100.352 94.612 100.008 94.955 99.585 94.955 C 99.161 94.955 98.817 94.612 98.817 94.190 C 98.817 93.767 99.161 93.425 99.585 93.425 C 100.008 93.425 100.352 93.767 100.352 94.190 " transform="matrix(1, 0, 0, 1, 0, 0.25)"/>
      <path id="Fill-91" fill="#780046" stroke="none" stroke-width="1" d="M 99.584 96.806 C 99.584 97.229 99.240 97.571 98.817 97.571 C 98.393 97.571 98.049 97.229 98.049 96.806 C 98.049 96.384 98.393 96.041 98.817 96.041 C 99.240 96.041 99.584 96.384 99.584 96.806 " transform="matrix(1, 0, 0, 1, 0, 0.25)"/>
      <path id="Fill-92" fill="#780046" stroke="none" stroke-width="1" d="M 98.880 99.550 C 98.880 99.972 98.536 100.315 98.113 100.315 C 97.689 100.315 97.345 99.972 97.345 99.550 C 97.345 99.127 97.689 98.785 98.113 98.785 C 98.536 98.785 98.880 99.127 98.880 99.550 " transform="matrix(1, 0, 0, 1, 0, 0.25)"/>
      <path id="Fill-93" fill="#780046" stroke="none" stroke-width="1" d="M 98.112 102.422 C 98.112 102.844 97.768 103.187 97.345 103.187 C 96.921 103.187 96.577 102.844 96.577 102.422 C 96.577 101.999 96.921 101.657 97.345 101.657 C 97.768 101.657 98.112 101.999 98.112 102.422 " transform="matrix(1, 0, 0, 1, 0, 0.25)"/>
      <path id="Fill-94" fill="#BE965A" stroke="none" stroke-width="1" d="M 80.014 80.467 C 78.953 80.539 68.989 80.277 68.669 80.228 C 68.233 77.715 66.030 70.604 66.199 65.883 C 66.300 63.080 67.069 60.227 68.733 58.661 C 69.732 57.721 71.054 57.245 72.747 57.519 C 77.124 58.230 78.533 64.701 79.091 68.391 C 79.623 71.912 79.565 76.973 80.014 80.467 " transform="matrix(1, 0, 0, 1, 0, 0.25)"/>
      <path id="Fill-95" fill="#F0E6D2" stroke="none" stroke-width="1" d="M 67.498 78.323 C 67.941 81.219 68.684 86.133 68.940 88.141 C 72.031 89.181 78.230 88.850 81.421 88.161 C 81.836 87.041 80.900 81.033 80.483 78.323 L 67.498 78.323 Z " transform="matrix(1, 0, 0, 1, 0, 0.25)"/>
      <path id="Fill-96" fill="#F01446" stroke="none" stroke-width="1" d="M 84.163 106.516 L 84.394 107.991 L 68.684 107.899 L 68.439 106.662 L 77.556 104.858 L 84.163 106.516 " transform="matrix(1, 0, 0, 1, 0, 0.25)"/>
      <path id="Fill-97" fill="#000000" stroke="none" stroke-width="1" d="M 67.606 86.250 C 67.606 86.250 71.283 86.291 74.981 86.335 C 78.577 86.378 82.191 86.422 82.457 86.432 C 82.698 89.485 84.163 106.516 84.163 106.516 C 84.163 106.516 69.642 106.567 68.438 106.662 C 68.379 106.459 68.332 106.302 68.296 106.178 C 69.210 105.176 71.299 105.691 72.500 105.226 C 71.901 103.253 68.776 92.264 67.606 86.250 " transform="matrix(1, 0, 0, 1, 0, 0.25)"/>
      <path id="Fill-98" fill="#F01446" stroke="none" stroke-width="1" d="M 74.303 91.465 C 74.303 93.589 76.031 95.311 78.161 95.311 C 80.291 95.311 82.018 93.589 82.018 91.465 C 82.018 89.341 80.291 87.620 78.161 87.620 C 76.031 87.620 74.303 89.341 74.303 91.465 " transform="matrix(1, 0, 0, 1, 0, 0.25)"/>
      <path id="Fill-99" fill="#780046" stroke="none" stroke-width="1" d="M 76.331 91.465 C 76.331 92.473 77.150 93.290 78.161 93.290 C 79.172 93.290 79.991 92.473 79.991 91.465 C 79.991 90.457 79.172 89.641 78.161 89.641 C 77.150 89.641 76.331 90.457 76.331 91.465 " transform="matrix(1, 0, 0, 1, 0, 0.25)"/>
      <path id="Fill-100" fill="#780046" stroke="none" stroke-width="1" d="M 68.785 88.064 C 68.785 88.486 69.129 88.829 69.552 88.829 C 69.976 88.829 70.320 88.486 70.320 88.064 C 70.320 87.641 69.976 87.299 69.552 87.299 C 69.129 87.299 68.785 87.641 68.785 88.064 " transform="matrix(1, 0, 0, 1, 0, 0.25)"/>
      <path id="Fill-101" fill="#780046" stroke="none" stroke-width="1" d="M 69.617 91.063 C 69.617 91.485 69.961 91.828 70.384 91.828 C 70.808 91.828 71.152 91.485 71.152 91.063 C 71.152 90.640 70.808 90.298 70.384 90.298 C 69.961 90.298 69.617 90.640 69.617 91.063 " transform="matrix(1, 0, 0, 1, 0, 0.25)"/>
      <path id="Fill-102" fill="#780046" stroke="none" stroke-width="1" d="M 70.321 94.190 C 70.321 94.612 70.665 94.955 71.088 94.955 C 71.512 94.955 71.856 94.612 71.856 94.190 C 71.856 93.767 71.512 93.425 71.088 93.425 C 70.665 93.425 70.321 93.767 70.321 94.190 " transform="matrix(1, 0, 0, 1, 0, 0.25)"/>
      <path id="Fill-103" fill="#780046" stroke="none" stroke-width="1" d="M 71.089 96.806 C 71.089 97.229 71.433 97.571 71.856 97.571 C 72.280 97.571 72.624 97.229 72.624 96.806 C 72.624 96.384 72.280 96.041 71.856 96.041 C 71.433 96.041 71.089 96.384 71.089 96.806 " transform="matrix(1, 0, 0, 1, 0, 0.25)"/>
      <path id="Fill-104" fill="#780046" stroke="none" stroke-width="1" d="M 71.793 99.550 C 71.793 99.972 72.137 100.315 72.560 100.315 C 72.984 100.315 73.328 99.972 73.328 99.550 C 73.328 99.127 72.984 98.785 72.560 98.785 C 72.137 98.785 71.793 99.127 71.793 99.550 " transform="matrix(1, 0, 0, 1, 0, 0.25)"/>
      <path id="Fill-105" fill="#780046" stroke="none" stroke-width="1" d="M 72.561 102.422 C 72.561 102.844 72.905 103.187 73.328 103.187 C 73.752 103.187 74.096 102.844 74.096 102.422 C 74.096 101.999 73.752 101.657 73.328 101.657 C 72.905 101.657 72.561 101.999 72.561 102.422 " transform="matrix(1, 0, 0, 1, 0, 0.25)"/>
      <path id="Fill-106" fill="#64645A" stroke="none" stroke-width="1" d="M 81.610 73.233 L 89.339 73.233 L 89.339 67.212 L 81.610 67.212 L 81.610 73.233 " transform="matrix(1, 0, 0, 1, 0, 0.25)"/>
    </g>
  </g>
</svg>