<svg width="308px" height="215px" viewBox="0 0 308 215" version="1.1" xml:space="preserve" xmlns="http://www.w3.org/2000/svg" xmlns:xlink="http://www.w3.org/1999/xlink">
  <defs/>
  <g>
    <title>frank-d</title>
    <desc>Created with Sketch.</desc>
    <g id="frank-d" stroke="none" stroke-width="1" fill="none" fill-rule="evenodd">
      <path d="M157.658468,46.6509434 C154.497581,47.7056604 143.880242,47.2188679 143.556048,46.9754717 C143.556048,44.2981132 142.98871,41.4584906 149.715726,41.0528302 C156.442742,40.6471698 157.091129,44.2169811 157.658468,46.6509434 Z" id="Shape" fill="#82783C" fill-rule="nonzero"/>
      <path d="M154.902823,44.2169811 C154.497581,44.2169811 154.092339,44.3792453 153.849194,44.7037736 C153.606048,45.0283019 153.606048,46.1641509 154.902823,46.245283 C155.389113,46.245283 156.0375,46.1641509 156.0375,45.3528302 C156.0375,44.7849057 155.55121,44.2981132 154.902823,44.2169811 C154.983871,44.2169811 154.902823,44.2169811 154.902823,44.2169811 Z" id="Shape" fill="#645A1E" fill-rule="nonzero"/>
      <path d="M145.9875,44.3792453 C145.582258,44.3792453 145.177016,44.5415094 144.933871,44.8660377 C144.690726,45.190566 144.690726,46.3264151 145.9875,46.4075472 C146.47379,46.4075472 147.122177,46.3264151 147.122177,45.5150943 C147.122177,44.9471698 146.635887,44.4603774 145.9875,44.3792453 C146.068548,44.3792453 145.9875,44.3792453 145.9875,44.3792453 Z" id="Shape" fill="#645A1E" fill-rule="nonzero"/>
      <path d="M174.354435,57.5226415 L174.354435,59.6320755 C177.677419,59.7132075 183.026613,59.5509434 184.728629,59.5509434 L184.728629,57.4415094 C181.810887,57.3603774 177.272177,57.4415094 174.354435,57.5226415 Z" id="Shape" fill="#FAB414" fill-rule="nonzero"/>
      <path d="M184.323387,52.1679245 C184.323387,52.1679245 181.243548,52.1679245 179.703629,52.8981132 L182.135081,63.7698113 C183.756048,63.6075472 185.295968,63.3641509 186.916935,62.9584906 L184.323387,52.1679245 Z" id="Shape" fill="#FFC800" fill-rule="nonzero"/>
      <path d="M126.211694,57.5226415 L126.211694,59.6320755 C122.88871,59.7132075 117.539516,59.5509434 115.8375,59.5509434 L115.8375,57.4415094 C118.674194,57.3603774 123.212903,57.4415094 126.211694,57.5226415 Z" id="Shape" fill="#FAB414" fill-rule="nonzero"/>
      <path d="M116.242742,52.1679245 C116.242742,52.1679245 119.322581,52.1679245 120.8625,52.8981132 L118.431048,63.7698113 C116.810081,63.6075472 115.270161,63.3641509 113.649194,62.9584906 L116.242742,52.1679245 Z" id="Shape" fill="#FFC800" fill-rule="nonzero"/>
      <path d="M174.759677,47.3811321 C167.141129,45.2716981 142.421371,46.245283 136.991129,46.3264151 C131.885081,46.4075472 126.779032,45.190566 124.266532,50.3830189 C122.159274,54.7641509 120.781452,68.5566038 119.970968,75.7773585 L181.081452,75.5339623 C180.352016,68.9622642 176.785887,49.3283019 174.759677,47.3811321 Z" id="Shape" fill="#A0AA1E" fill-rule="nonzero"/>
      <path d="M135.775403,57.3603774 C133.830242,54.2773585 136.829032,49.490566 143.718145,49.0037736 C148.743145,48.5981132 153.768145,48.6792453 158.712097,49.2471698 C162.440323,49.8962264 167.951613,54.2773585 164.142339,58.3339623 C162.521371,60.0377358 156.442742,60.2811321 149.796774,60.2 C143.637097,60.1188679 137.720565,60.4433962 135.775403,57.3603774 Z" id="Shape" fill="#000000" fill-rule="nonzero"/>
      <path d="M166.168548,52.4924528 C166.0875,52.0056604 166.330645,51.5188679 166.816935,51.4377358 C168.518952,50.4641509 170.139919,49.409434 172.004032,48.2735849 L172.733468,48.5981132 C172.652419,48.8415094 172.652419,49.0849057 172.652419,49.1660377 L168.681048,51.6 C168.924194,51.6811321 169.08629,51.7622642 169.329435,51.8433962 C170.139919,51.9245283 170.950403,51.9245283 171.841935,51.9245283 C172.409274,51.9245283 172.976613,52.0867925 173.13871,52.654717 C173.057661,53.1415094 172.733468,53.3037736 172.409274,53.3037736 C172.085081,53.3037736 171.760887,53.2226415 171.517742,53.2226415 C170.058871,53.0603774 168.681048,52.8981132 167.222177,52.7358491 C166.816935,52.7358491 166.492742,52.654717 166.168548,52.4924528 Z" id="Shape" fill="#000000" fill-rule="nonzero"/>
      <path d="M126.292742,51.4377358 L126.211694,50.6264151 C126.37379,50.545283 126.535887,50.4641509 126.616935,50.4641509 C127.184274,50.545283 127.751613,50.6264151 128.318952,50.6264151 C128.643145,50.6264151 128.967339,50.6264151 129.453629,50.6264151 C128.724194,49.8150943 127.832661,49.6528302 127.184274,48.8415094 L127.751613,48.0301887 C129.696774,48.9226415 131.155645,50.545283 133.262903,51.1943396 C133.343952,51.4377358 133.343952,51.6811321 133.425,52.0056604 L132.371371,52.4113208 C130.42621,51.6811321 128.4,51.8433962 126.292742,51.4377358 Z" id="Shape" fill="#000000" fill-rule="nonzero"/>
      <path d="M247.865323,5.03018868 C248.270565,4.38113208 248.594758,4.86792453 248.351613,2.75849057 C248.108468,0.649056604 242.272984,1.21698113 240.652016,3.16415094 C238.787903,5.43584906 238.220565,9.2490566 238.544758,11.845283 C237.329032,12.4943396 232.385081,12.8188679 231.655645,11.6830189 C231.574597,10.4660377 230.520968,6.16603774 231.655645,5.35471698 L234.978629,5.03018868 C236.194355,4.86792453 237.004839,4.70566038 237.085887,2.27169811 C237.166935,-0.162264151 229.791532,0.486792453 227.927419,3.08301887 C226.3875,5.27358491 228.9,11.1962264 227.116935,12.4132075 C224.523387,12.4132075 221.84879,12.9811321 219.33629,12.9 C219.33629,10.709434 218.525806,8.68113208 218.85,6.32830189 C221.605645,6.16603774 226.3875,4.3 222.821371,1.21698113 C220.146774,-1.05471698 215.527016,1.54150943 213.500806,3.48867925 C208.475806,8.2754717 208.962097,22.4735849 209.529435,28.8830189 L243.975,62.5528302 C245.677016,55.9811321 244.947581,34.4811321 244.218145,27.7471698 C243.812903,24.0150943 243.407661,20.2830189 243.083468,16.5509434 C242.840323,13.8735849 241.300403,8.43773585 243.407661,6.32830189 C244.947581,6.00377358 246.406452,5.92264151 247.865323,5.03018868 Z" id="Shape" fill="#D2E614" fill-rule="nonzero"/>
      <path d="M223.631855,19.9584906 C225.739113,23.609434 220.714113,24.9886792 218.201613,25.3943396 C217.391129,26.4490566 216.904839,30.7490566 217.796371,31.8849057 C219.498387,32.8584906 222.010887,32.1283019 223.875,32.290566 C226.144355,32.5339623 228.332661,33.1830189 230.358871,34.1566038 C234.573387,36.1037736 238.301613,38.7 240.652016,42.8377358 C244.947581,50.3830189 245.352823,62.2283019 244.218145,70.6660377 C238.382661,71.3962264 232.466129,70.5037736 226.630645,70.6660377 C221.929839,70.7471698 216.580645,71.6396226 211.960887,70.909434 C211.393548,65.3113208 211.636694,59.7132075 210.988306,54.1150943 C210.420968,48.7603774 209.28629,43.5679245 208.962097,38.1320755 C208.718952,33.9943396 207.746371,26.4490566 210.583065,23.0415094 C213.257661,20.0396226 220.227823,17.2 223.631855,19.9584906 Z" id="Shape" fill="#A0AA1E" fill-rule="nonzero"/>
      <path d="M211.150403,62.4716981 C211.393548,65.3113208 211.3125,68.0698113 210.988306,70.909434 C210.339919,74.0735849 209.448387,77.1566038 208.31371,80.1584906 C208.31371,80.1584906 209.691532,112.286792 210.177823,114.315094 C218.606855,115.288679 232.060887,104.660377 236.4375,97.6830189 C242.597177,87.9471698 246.244355,71.2339623 245.920161,62.5528302 L211.150403,62.5528302 L211.150403,62.4716981 Z" id="Shape" fill="#824600" fill-rule="nonzero"/>
      <path d="M49.2157258,5.27358491 C48.8104839,4.6245283 48.4862903,5.11132075 48.7294355,3.00188679 C48.9725806,0.89245283 54.8080645,1.46037736 56.4290323,3.40754717 C58.2931452,5.67924528 58.8604839,9.49245283 58.5362903,12.0886792 C59.6709677,12.7377358 64.6959677,13.0622642 65.3443548,11.9264151 C65.4254032,10.709434 66.4790323,6.40943396 65.3443548,5.59811321 L62.021371,5.27358491 C60.8056452,5.11132075 59.9951613,4.9490566 59.9141129,2.51509434 C59.8330645,0.0811320755 67.2084677,0.730188679 69.0725806,3.32641509 C70.6125,5.51698113 68.1,11.4396226 69.9641129,12.6566038 C72.5576613,12.6566038 75.2322581,13.2245283 77.7447581,13.1433962 C77.7447581,10.9528302 78.5552419,8.9245283 78.2310484,6.57169811 C75.4754032,6.40943396 70.6935484,4.54339623 74.2596774,1.46037736 C76.9342742,-0.811320755 81.5540323,1.78490566 83.5802419,3.6509434 C88.6052419,8.43773585 88.1189516,22.6358491 87.5516129,29.045283 L53.1060484,62.6339623 C51.4040323,56.0622642 52.1334677,34.5622642 52.8629032,27.909434 C53.2681452,24.1773585 53.6733871,20.445283 53.9975806,16.7132075 C54.2407258,14.0358491 55.7806452,8.6 53.6733871,6.49056604 C52.0524194,6.16603774 50.5935484,6.16603774 49.2157258,5.27358491 Z" id="Shape" fill="#D2E614" fill-rule="nonzero"/>
      <path d="M73.4491935,20.1207547 C71.3419355,23.7716981 76.3669355,25.1509434 78.8794355,25.5566038 C79.6899194,26.6113208 80.1762097,30.8301887 79.2846774,32.0471698 C77.5826613,33.0207547 75.0701613,32.290566 73.125,32.4528302 C70.8556452,32.6962264 68.6673387,33.345283 66.641129,34.3188679 C62.3455645,36.2660377 58.6983871,38.8622642 56.3479839,43 C52.0524194,50.545283 51.6471774,62.390566 52.7818548,70.8283019 C58.6173387,71.5584906 64.533871,70.6660377 70.3693548,70.8283019 C75.0701613,70.909434 80.4193548,71.8018868 85.0391129,71.0716981 C85.6064516,65.4735849 85.3633065,59.8754717 86.0116935,54.2773585 C86.5790323,48.9226415 87.7137097,43.6490566 88.0379032,38.2943396 C88.2810484,34.1566038 89.253629,26.6113208 86.4169355,23.2037736 C83.8233871,20.2830189 76.7721774,17.4433962 73.4491935,20.1207547 Z" id="Shape" fill="#A0AA1E" fill-rule="nonzero"/>
      <path d="M86.0116935,71.0716981 C85.6875,68.2320755 85.6875,65.3113208 85.9306452,62.4716981 L51.0798387,62.4716981 C50.6745968,71.0716981 54.3217742,88.0283019 60.5625,97.845283 C64.9391129,104.741509 84.8770161,116.749057 93.3060484,115.775472 C93.7923387,113.74717 89.0915323,76.7509434 89.0915323,76.7509434 C87.3895161,75.290566 86.2548387,73.3433962 86.0116935,71.0716981 Z" id="Shape" fill="#824600" fill-rule="nonzero"/>
      <path d="M184.728629,187.658491 L209.529435,191.471698 C209.529435,191.877358 205.80121,213.783019 205.80121,213.783019 L215.608065,213.945283 C215.608065,213.945283 215.527016,214.59434 215.445968,214.837736 C212.204032,214.918868 183.999194,214.756604 183.999194,214.756604 C183.999194,214.756604 184.566532,188.145283 184.728629,187.658491 Z" id="Shape" fill="#A0AA1E" fill-rule="nonzero"/>
      <path d="M213.500806,202.830189 C213.662903,199.909434 213.500806,196.826415 213.743952,193.986792 C214.149194,189.60566 216.094355,169.241509 215.770161,166.969811 L176.704839,150.09434 C176.704839,152.284906 176.542742,189.443396 178.082661,202.911321 L213.500806,202.830189 Z" id="Shape" fill="#005A5A" fill-rule="nonzero"/>
      <rect id="Rectangle-path" fill="#006482" fill-rule="nonzero" x="174.840726" y="196.745283" width="41.7399194" height="13.3867925"/>
      <path d="M122.88871,187.658491 L98.0879032,191.471698 C98.0879032,191.877358 101.816129,213.783019 101.816129,213.783019 L92.0092742,213.945283 C92.0092742,213.945283 92.0903226,214.59434 92.171371,214.837736 C95.4133065,214.918868 123.618145,214.756604 123.618145,214.756604 C123.618145,214.756604 122.969758,188.145283 122.88871,187.658491 Z" id="Shape" fill="#A0AA1E" fill-rule="nonzero"/>
      <path d="M128.318952,201.532075 L128.237903,158.369811 L92.8197581,168.592453 C92.8197581,168.592453 94.5217742,193.256604 96.6290323,201.613208 L128.318952,201.532075 Z" id="Shape" fill="#005A5A" fill-rule="nonzero"/>
      <rect id="Rectangle-path" fill="#006482" fill-rule="nonzero" x="91.766129" y="198.367925" width="39.6326613" height="13.3867925"/>
      <path d="M178.812097,59.3886792 C178.812097,59.3886792 178.893145,59.3886792 178.893145,59.4698113 L178.812097,59.3886792 Z" id="Shape" fill="#A0AA1E" fill-rule="nonzero"/>
      <path d="M90.5504032,115.856604 L151.174597,139.54717 L214.149194,114.801887 C214.149194,114.801887 213.176613,97.1962264 212.204032,92.1660377 C212.122984,91.8415094 210.015726,76.5075472 209.772581,75.1283019 C205.639113,70.5849057 193.319758,67.5018868 185.944355,67.1773585 C177.758468,66.8528302 116.647984,67.3396226 116.647984,67.3396226 C116.647984,67.3396226 108.3,68.5566038 102.383468,70.7471698 C96.4669355,72.9377358 89.0915323,76.5886792 89.0915323,76.5886792 C89.0915323,76.5886792 88.7673387,90.7867925 89.1725806,98.0886792 C89.7399194,108.473585 90.5504032,115.856604 90.5504032,115.856604 Z" id="Shape" fill="#A0640A" fill-rule="nonzero"/>
      <path d="M151.49879,87.2981132 C135.127016,87.2981132 118.755242,87.4603774 118.755242,87.4603774 C118.755242,87.4603774 115.189113,87.7037736 115.108065,87.4603774 C110.569355,89.1641509 90.4693548,115.856604 90.4693548,115.856604 L92.7387097,168.511321 L151.49879,167.781132 L159.198387,122.103774 L151.49879,87.2981132 Z" id="Shape" fill="#008264" fill-rule="nonzero"/>
      <path d="M151.49879,167.781132 L215.770161,166.969811 L214.149194,114.801887 C214.149194,114.801887 192.185081,90.6245283 186.916935,87.7037736 C181.729839,87.3792453 166.411694,87.2981132 151.579839,87.2981132 L151.49879,167.781132 Z" id="Shape" fill="#00A08C" fill-rule="nonzero"/>
      <path d="M181.972984,65.4735849 L182.783468,101.820755 L190.564113,101.901887 C190.564113,101.901887 190.807258,73.8301887 189.429435,65.4735849 L181.972984,65.4735849 Z" id="Shape" fill="#005A5A" fill-rule="nonzero"/>
      <path d="M186.835887,95.5735849 C185.944355,95.5735849 185.133871,95.9792453 184.566532,96.709434 C183.999194,97.4396226 184.080242,99.8735849 186.754839,99.954717 C187.808468,100.035849 189.105242,99.7113208 189.105242,98.0075472 C189.18629,96.790566 188.21371,95.7358491 186.997984,95.654717 C186.916935,95.5735849 186.835887,95.5735849 186.835887,95.5735849 Z" id="Shape" fill="#FFC800" fill-rule="nonzero"/>
      <path d="M111.866129,65.4735849 C110.488306,73.8301887 110.731452,101.901887 110.731452,101.901887 L118.431048,101.820755 L119.241532,65.4735849 L111.866129,65.4735849 Z" id="Shape" fill="#005A5A" fill-rule="nonzero"/>
      <path d="M114.378629,95.5735849 C115.270161,95.5735849 116.080645,95.9792453 116.647984,96.709434 C117.215323,97.4396226 117.134274,99.8735849 114.459677,99.954717 C113.406048,100.035849 112.109274,99.7113208 112.109274,98.0075472 C112.028226,96.790566 113.000806,95.7358491 114.216532,95.654717 C114.216532,95.5735849 114.297581,95.5735849 114.378629,95.5735849 Z" id="Shape" fill="#FFC800" fill-rule="nonzero"/>
      <path d="M137.477419,107.09434 C136.180645,112.611321 138.45,120.156604 141.772984,123.726415 C145.744355,126.64717 154.740726,126.971698 158.955242,124.537736 C163.818145,121.779245 165.114919,115.450943 165.033871,110.501887 C165.033871,109.366038 165.033871,108.230189 164.952823,107.09434 L137.477419,107.09434 Z" id="Shape" fill="#005A5A" fill-rule="nonzero"/>
      <rect id="Rectangle-path" fill="#006482" fill-rule="nonzero" x="135.532258" y="101.901887" width="31.1225806" height="8.76226415"/>
      <path d="M151.49879,104.335849 C150.607258,104.254717 149.715726,104.741509 149.148387,105.471698 C148.5,106.283019 148.662097,108.716981 151.417742,108.879245 C152.552419,108.960377 153.768145,108.635849 153.768145,106.850943 C153.849194,105.55283 152.876613,104.416981 151.579839,104.335849 C151.579839,104.335849 151.49879,104.335849 151.49879,104.335849 Z" id="Shape" fill="#FAB414" fill-rule="nonzero"/>
    </g>
  </g>
</svg>