<svg version="1.1" width="98" height="118" viewBox="-1 -1 98 118" xmlns="http://www.w3.org/2000/svg" xmlns:xlink="http://www.w3.org/1999/xlink">
  <!-- Exported by Scratch - http://scratch.mit.edu/ -->
  <g id="ID0.4597187307663262" transform="matrix(1, 0, 0, 1, 0.25, 0)">
    <g id="rooster-a">
      <g id="Group-2">
        <path id="Fill-1" fill="#005A61" stroke="none" stroke-width="1" d="M 52.853 26.564 C 52.853 11.926 41.032 0.058 26.451 0.058 C 11.870 0.058 0.049 11.926 0.049 26.564 L 0.049 52.136 L 22.780 52.136 L 22.780 26.903 C 22.780 24.867 24.423 23.217 26.451 23.217 C 28.479 23.217 30.122 24.867 30.122 26.903 L 30.122 52.136 L 52.853 52.136 L 52.853 26.564 Z " transform="matrix(-1, 0, 0, 1, 52.85, 29.05)"/>
        <path id="Fill-3" fill="#17242D" stroke="none" stroke-width="1" d="M 26.451 7.642 C 16.136 7.642 7.745 16.066 7.745 26.422 L 7.745 45.700 L 8.442 45.700 L 8.442 26.422 C 8.442 16.453 16.521 8.342 26.451 8.342 C 36.381 8.342 44.459 16.453 44.459 26.422 L 44.459 52.136 L 45.157 52.136 L 45.157 26.422 C 45.157 16.066 36.766 7.642 26.451 7.642 " transform="matrix(-1, 0, 0, 1, 52.85, 29.05)"/>
        <path id="Fill-5" fill="#17242D" stroke="none" stroke-width="1" d="M 38.252 52.136 L 38.252 27.055 C 38.252 20.522 32.958 15.207 26.451 15.207 C 19.944 15.207 14.649 20.522 14.649 27.055 L 14.649 45.700 L 15.347 45.700 L 15.347 27.055 C 15.347 20.908 20.328 15.908 26.451 15.908 C 32.574 15.908 37.555 20.908 37.555 27.055 L 37.555 52.136 L 38.252 52.136 Z " transform="matrix(-1, 0, 0, 1, 52.85, 29.05)"/>
      </g>
      <g id="Group-4">
        <path id="Stroke-7" fill="none" stroke="#FFDB5D" stroke-width="1.05" d="M 24.634 17.135 L 8.380 30.943 " transform="matrix(-1, 0, 0, 1, 88.1, 85.8)"/>
        <path id="Stroke-9" fill="none" stroke="#FFDB5D" stroke-width="1.05" d="M 17.539 30.914 C 15.380 30.914 15.380 28.812 13.221 28.812 C 11.063 28.812 11.063 30.914 8.905 30.914 C 6.746 30.914 6.746 28.812 4.586 28.812 C 2.427 28.812 2.427 30.914 0.267 30.914 " transform="matrix(-1, 0, 0, 1, 88.1, 85.8)"/>
        <path id="Fill-11" fill="#751D18" stroke="none" stroke-width="1" d="M 33.318 9.718 C 34.879 6.358 33.431 2.363 30.084 0.795 C 26.737 -0.772 22.757 0.682 21.196 4.042 C 20.772 4.955 20.577 5.913 20.575 6.858 L 20.570 6.857 L 20.406 19.025 C 20.392 20.052 21.592 20.615 22.367 19.946 L 31.571 12.003 C 32.289 11.395 32.895 10.630 33.318 9.718 " transform="matrix(-1, 0, 0, 1, 88.1, 85.8)"/>
      </g>
      <path id="Fill-13" fill="#17242D" stroke="none" stroke-width="1" d="M 82.740 75.783 C 82.740 69.324 77.525 64.087 71.091 64.087 L 68.348 64.086 C 68.309 64.084 68.266 64.077 68.229 64.077 L 26.214 64.077 C 26.214 64.077 26.206 71.107 26.206 72.039 C 26.206 75.126 27.506 80.432 31.707 84.021 C 41.070 92.019 52.150 102.376 52.150 102.376 L 82.740 75.783 Z " transform="matrix(-1, 0, 0, 1, 112.8, -1)"/>
      <g id="Group-3">
        <path id="Stroke-15" fill="none" stroke="#FFDB5D" stroke-width="1.05" d="M 17.597 33.016 C 15.438 33.016 15.438 30.914 13.280 30.914 C 11.121 30.914 11.121 33.016 8.963 33.016 C 6.804 33.016 6.804 30.914 4.644 30.914 C 2.485 30.914 2.485 33.016 0.326 33.016 " transform="matrix(-1, 0, 0, 1, 57.4, 83.7)"/>
        <path id="Stroke-17" fill="none" stroke="#FFDB5D" stroke-width="1.05" d="M 8.845 17.924 L 8.845 33.045 " transform="matrix(-1, 0, 0, 1, 57.4, 83.7)"/>
        <path id="Fill-19" fill="#751D18" stroke="none" stroke-width="1" d="M 15.533 6.773 C 15.533 3.065 12.538 0.058 8.845 0.058 C 5.152 0.058 2.158 3.065 2.158 6.773 C 2.158 7.780 2.384 8.731 2.780 9.589 L 2.775 9.590 L 7.750 20.686 C 8.169 21.623 9.494 21.624 9.915 20.688 L 14.912 9.584 C 15.306 8.728 15.533 7.778 15.533 6.773 " transform="matrix(-1, 0, 0, 1, 57.4, 83.7)"/>
      </g>
      <g id="Group-6">
        <path id="Fill-21" fill="#B85C39" stroke="none" stroke-width="1" d="M 35.599 20.588 C 31.281 5.550 15.637 -3.126 0.659 1.209 L 0.065 1.380 L 2.739 10.693 C 7.151 26.060 23.137 34.927 38.444 30.497 L 35.599 20.588 Z " transform="matrix(-1, 0, 0, 1, 56.7, 61.65)"/>
        <path id="Fill-23" fill="#AD2C24" stroke="none" stroke-width="1" d="M 38.444 30.497 L 38.440 30.483 L 26.814 18.976 L 10.596 23.670 C 17.772 30.498 28.256 33.445 38.444 30.497 " transform="matrix(-1, 0, 0, 1, 56.7, 61.65)"/>
        <path id="Stroke-25" fill="none" stroke="#751D18" stroke-width="0.5" d="M 34.492 31.051 L 23.442 20.144 " transform="matrix(-1, 0, 0, 1, 56.7, 61.65)"/>
        <path id="Stroke-27" fill="none" stroke="#751D18" stroke-width="0.5" d="M 30.485 31.375 L 20.089 21.114 " transform="matrix(-1, 0, 0, 1, 56.7, 61.65)"/>
        <path id="Stroke-29" fill="none" stroke="#751D18" stroke-width="0.5" d="M 25.718 30.950 L 16.736 22.085 " transform="matrix(-1, 0, 0, 1, 56.7, 61.65)"/>
        <path id="Stroke-31" fill="none" stroke="#751D18" stroke-width="0.5" d="M 19.675 29.265 L 13.383 23.055 " transform="matrix(-1, 0, 0, 1, 56.7, 61.65)"/>
        <path id="Fill-33" fill="#573A3C" stroke="none" stroke-width="1" d="M 14.130 10.869 C 15.367 12.984 17.910 14.080 20.365 13.369 C 23.272 12.528 24.950 9.479 24.112 6.561 C 23.728 5.223 22.877 4.153 21.794 3.459 C 15.535 0.096 8.018 -0.921 0.659 1.209 L 0.065 1.381 L 2.739 10.693 C 2.933 11.369 3.157 12.028 3.395 12.678 L 3.432 12.664 C 4.314 15.515 7.306 17.148 10.176 16.318 C 12.632 15.607 14.204 13.321 14.130 10.869 " transform="matrix(-1, 0, 0, 1, 56.7, 61.65)"/>
      </g>
      <g id="Group">
        <path id="Fill-35" fill="#DE7732" stroke="none" stroke-width="1" d="M 0.064 0.292 L 0.064 57.887 L 0.064 59.726 C 0.064 68.045 6.781 74.789 15.067 74.789 C 23.354 74.789 30.071 68.045 30.071 59.726 L 30.071 30.418 C 30.071 13.780 16.637 0.292 0.064 0.292 " transform="matrix(-1, 0, 0, 1, 86.65, 11.55)"/>
        <path id="Fill-37" fill="#E8441D" stroke="none" stroke-width="1" d="M 30.052 60.463 L 30.052 29.680 C 29.845 21.051 26.030 13.322 20.056 7.958 L 20.056 45.582 C 20.056 52.385 24.169 58.223 30.034 60.728 C 30.040 60.639 30.048 60.552 30.052 60.463 " transform="matrix(-1, 0, 0, 1, 86.65, 11.55)"/>
        <path id="Fill-39" fill="#E8441D" stroke="none" stroke-width="1" d="M 20.056 7.958 C 17.171 5.368 13.784 3.332 10.060 2.011 L 10.060 45.582 C 10.060 52.392 14.181 58.235 20.056 60.736 L 20.056 7.958 Z " transform="matrix(-1, 0, 0, 1, 86.65, 11.55)"/>
        <path id="Fill-41" fill="#E8441D" stroke="none" stroke-width="1" d="M 10.060 60.736 L 10.060 2.011 C 6.933 0.901 3.570 0.292 0.064 0.292 L 0.064 45.582 C 0.064 52.392 4.185 58.235 10.060 60.736 " transform="matrix(-1, 0, 0, 1, 86.65, 11.55)"/>
      </g>
      <g id="Group-5">
        <g id="Group-45">
          <path id="Fill-43" fill="#CE2235" stroke="none" stroke-width="1" d="M 20.403 3.036 C 18.531 3.036 16.885 3.999 15.926 5.458 L 15.674 5.803 C 15.317 6.294 14.544 6.040 14.544 5.433 L 14.544 1.926 C 14.544 0.911 13.724 0.087 12.712 0.087 C 11.701 0.087 10.880 0.911 10.880 1.926 L 10.880 5.010 C 10.880 5.620 10.096 5.866 9.751 5.364 L 7.384 1.922 C 6.906 1.227 5.821 1.567 5.821 2.411 L 5.821 8.153 C 5.764 8.151 5.707 8.144 5.650 8.144 C 2.616 8.144 0.158 10.613 0.158 13.658 C 0.158 16.704 2.616 19.172 5.650 19.172 C 5.752 19.172 5.852 19.163 5.953 19.157 L 9.725 19.157 L 9.725 17.346 C 9.764 17.302 9.806 17.260 9.844 17.215 L 16.986 15.588 L 18.102 13.281 C 18.800 13.615 19.578 13.808 20.403 13.808 C 23.366 13.808 25.768 11.396 25.768 8.422 C 25.768 5.447 23.366 3.036 20.403 3.036 " transform="matrix(-1, 0, 0, 1, 95.4, 0.25)"/>
        </g>
        <path id="Fill-46" fill="#CE2235" stroke="none" stroke-width="1" d="M 14.718 28.841 C 14.718 32.356 11.881 35.205 8.380 35.205 C 4.879 35.205 2.041 32.356 2.041 28.841 C 2.041 25.327 4.879 22.477 8.380 22.477 C 11.881 22.477 14.718 25.327 14.718 28.841 " transform="matrix(-1, 0, 0, 1, 96.8, 0)"/>
        <g id="Group-50">
          <path id="Fill-48" fill="#FFDB5D" stroke="none" stroke-width="1" d="M 0 3.299 L 18.039 3.299 C 17.531 1.551 15.920 0.263 14.021 0.263 L 4.018 0.263 C 2.119 0.263 0.508 1.551 0 3.299 " transform="matrix(-1, 0, 0, 1, 96.8, 19.15)"/>
        </g>
        <path id="Fill-51" fill="#AD2C24" stroke="none" stroke-width="1" d="M 23.674 20.493 C 23.674 24.813 20.185 28.316 15.882 28.316 C 11.578 28.316 8.089 24.813 8.089 20.493 C 8.089 16.172 11.578 12.669 15.882 12.669 C 20.185 12.669 23.674 16.172 23.674 20.493 " transform="matrix(-1, 0, 0, 1, 96.8, 0)"/>
        <path id="Fill-53" fill="#FFF4E3" stroke="none" stroke-width="1" d="M 19.627 20.493 C 19.627 22.569 17.950 24.252 15.882 24.252 C 13.813 24.252 12.137 22.569 12.137 20.493 C 12.137 18.416 13.813 16.733 15.882 16.733 C 17.950 16.733 19.627 18.416 19.627 20.493 " transform="matrix(-1, 0, 0, 1, 96.8, 0)"/>
        <path id="Fill-55" fill="#17242D" stroke="none" stroke-width="1" d="M 18.438 20.493 C 18.438 21.909 17.293 23.058 15.882 23.058 C 14.470 23.058 13.326 21.909 13.326 20.493 C 13.326 19.076 14.470 17.927 15.882 17.927 C 17.293 17.927 18.438 19.076 18.438 20.493 " transform="matrix(-1, 0, 0, 1, 96.8, 0)"/>
        <path id="Stroke-57" fill="none" stroke="#751D18" stroke-width="0.5" d="M 11.404 23.470 L 16.638 26.535 " transform="matrix(-1, 0, 0, 1, 96.8, 0)"/>
      </g>
    </g>
  </g>
</svg>