<svg width="131px" height="123px" viewBox="0 0 131 123" version="1.1" xml:space="preserve" xmlns="http://www.w3.org/2000/svg" xmlns:xlink="http://www.w3.org/1999/xlink">
  <defs>
    <polygon id="path-1" points="0 0.1649 15.5224 0.1649 15.5224 79.4999 0 79.4999"/>
    <polygon id="path-3" points="0.46245 0.464605184 21.1325 0.464605184 21.1325 79.36505 0.46245 79.36505"/>
    <polygon id="path-5" points="0 116.935 64.6325 116.935 64.6325 0 0 0"/>
  </defs>
  <g>
    <title>bat-b</title>
    <desc>Created with Sketch.</desc>
    <g id="bat-b" stroke="none" stroke-width="1" fill="none" fill-rule="evenodd">
      <g id="Group" transform="translate(35.000000, 6.000000)">
        <path d="M13.4626,50.8651 C13.4626,50.8651 8.0976,50.4051 5.0126,66.5151 C1.9276,82.6251 3.6426,99.2946 3.6426,99.2946 C4.0426,101.1651 7.5026,112.3996 8.7826,113.8651 C9.2226,110.3001 10.0176,105.7501 12.2426,102.8651 C11.2426,99.5901 11.2926,92.9501 17.3326,91.0701 C19.0026,90.5701 23.3776,90.7351 23.3776,90.7351 L28.4976,92.1601 L23.2776,70.6851 C23.2776,70.6851 14.9576,56.6251 13.4626,50.8651" id="Fill-1" fill="#C8C8BE"/>
        <path d="M29.3425,94.70495 C29.3425,94.70495 7.8425,82.96545 5.4075,71.78995 L7.9075,65.02995 C7.9075,65.02995 11.3675,77.88495 16.7275,83.79995 C19.6025,86.96995 28.7275,93.29995 28.7275,93.29995 L29.3425,94.70495 Z" id="Fill-3" fill="#F0E6D2"/>
        <path d="M12.2424,102.8651 C12.2424,102.8651 4.3824,92.7151 3.6074,84.6896 L4.2524,93.3001 C5.9619,97.1771 8.7319,100.4926 12.2424,102.8651" id="Fill-5" fill="#F0E6D2"/>
        <g id="Group-9" transform="translate(0.000000, 37.435000)">
          <mask id="mask-2" fill="white">
            <use xlink:href="#path-1"/>
          </mask>
          <g id="Clip-8"/>
          <path d="M6.4924,13.1999 C5.1974,15.7489 4.1174,18.4019 3.2624,21.1299 C1.4359,27.6054 0.3899,34.2764 0.1474,40.9999 C-1.0026,64.4499 4.8824,77.3799 7.0324,79.4999 L7.1474,79.4199 C6.9824,78.9749 5.6974,76.2849 6.0874,75.8549 C6.4774,75.4254 8.0374,78.6554 8.3674,78.4199 C8.6974,78.1849 6.7774,75.4449 7.2074,75.0104 C7.6374,74.5749 8.5324,76.5749 8.7824,76.4199 C5.4374,66.5649 4.9074,56.6299 6.2324,46.3399 C6.9074,41.0599 7.2674,35.9749 8.7824,30.8399 C9.4474,28.5849 10.0374,26.3699 10.9024,24.1699 C11.4424,22.7804 12.5074,21.0899 12.5524,19.5849 L15.5224,0.1649 C15.2774,0.3749 10.6224,4.7249 6.4924,13.1999" id="Fill-7" fill="#828278" mask="url(#mask-2)"/>
        </g>
        <path d="M59.62765,66.87975 C59.76265,65.70975 48.98765,48.28525 48.98765,48.28525 L39.34265,76.61975 L32.97715,94.51975 C32.97715,94.51975 41.89215,89.61975 46.21765,92.07025 C50.54265,94.51975 48.53715,100.24475 48.53715,100.24475 C50.34665,101.08775 51.88715,102.41475 52.98765,104.07975 C54.11265,105.73525 54.67765,109.03975 55.35215,110.44525 C56.97715,108.18025 59.53715,105.49975 60.00265,102.75475 C60.61715,99.15525 60.00265,94.95025 59.96765,91.31475 C59.89215,86.10475 59.79765,80.89475 59.71265,75.68475 C59.66215,72.81475 59.29765,69.74475 59.62765,66.87975" id="Fill-10" fill="#C8C8BE"/>
        <path d="M32.77755,94.85 C32.77755,94.85 57.05755,80.76 55.56755,59.41 L59.01255,70.385 C54.76705,78.355 48.71555,85.2215 41.34255,90.435 C38.80755,92.245 35.92255,93.385 32.77755,94.85" id="Fill-12" fill="#F0E6D2"/>
        <path d="M48.53735,100.245 C48.53735,100.245 62.03735,84.96 59.50735,73.135 L60.85235,76.58 C60.85235,76.58 63.46735,88.57 48.53735,100.245" id="Fill-14" fill="#F0E6D2"/>
        <g id="Group-18" transform="translate(43.500000, 35.435000)">
          <mask id="mask-4" fill="white">
            <use xlink:href="#path-3"/>
          </mask>
          <g id="Clip-17"/>
          <path d="M18.80245,29.60005 C17.53445,24.63755 15.61245,19.86605 13.08745,15.41005 C10.97545,11.86305 8.48795,8.55455 5.66745,5.54005 C4.81295,4.59505 1.72745,0.41505 0.46245,0.464605184 L4.34745,16.11505 C4.34745,16.11505 7.98745,22.53005 8.99745,24.79505 C11.11245,29.61605 12.65495,34.66955 13.59245,39.85005 C14.72895,45.97405 14.98095,52.22955 14.34245,58.42505 C14.03745,61.42505 13.55245,64.42505 13.10745,67.42505 C12.68245,70.31005 11.50745,73.15505 11.41245,76.05505 C11.65745,76.20005 12.46245,74.72005 12.63745,74.82505 C12.89245,75.42005 11.98745,77.63505 12.18245,78.23005 C12.68245,78.00505 13.35245,76.31505 14.05245,76.54505 C14.70795,77.10505 13.09245,78.73005 13.11745,79.36505 C15.11745,78.55505 16.71245,73.77005 17.50745,71.95005 C18.62245,69.39005 19.72245,66.79505 20.07245,64.01505 C22.50245,44.85505 20.18245,34.88505 18.80245,29.60005" id="Fill-16" fill="#828278" mask="url(#mask-4)"/>
        </g>
        <path d="M26.8674,77.8749 L16.4424,72.3749 C17.0324,76.3449 21.1874,86.8749 24.6774,90.7699 C25.7674,91.9799 29.1774,94.7049 29.1774,94.7049 C29.1774,94.7049 29.1774,96.3499 29.1224,98.1449 L29.9224,98.1449 C29.8924,94.6104 30.1524,90.2749 30.1524,90.2749 C30.1524,90.2749 27.3424,79.3999 26.8674,77.8749" id="Fill-19" fill="#3C3C32"/>
        <path d="M34.7976,77.51015 C34.7976,77.66015 32.0026,90.51015 32.0026,90.51015 C32.0026,90.51015 31.8976,96.74515 31.8626,98.14515 L32.7426,98.14515 C32.7426,97.21515 32.7776,95.78015 32.7776,94.84515 C33.6126,94.60465 36.8776,92.60015 39.2776,88.87015 C41.4526,85.51015 44.4876,77.19515 44.6876,74.00465 L34.7976,77.51015 Z" id="Fill-21" fill="#3C3C32"/>
        <path d="M21.1926,2.81995 L20.8476,2.62995 L20.8476,2.12995 C20.8476,1.65995 20.8126,1.18995 20.7776,0.71995 C20.7141,0.49095 20.7771,0.24545 20.9426,0.07495 C21.2126,0.13995 21.2726,0.18495 21.2876,0.38995 C21.2876,0.76995 21.3126,1.14995 21.3176,1.52995 C21.3226,1.90995 21.3176,2.14995 21.3176,2.45495 C21.2891,2.58045 21.2471,2.70295 21.1926,2.81995" id="Fill-23" fill="#64645A"/>
        <path d="M20.4724,3.3551 L20.0974,3.2451 C20.0574,3.0701 20.0324,2.9101 19.9924,2.7451 C19.8674,2.2901 19.7474,1.8351 19.6124,1.3801 C19.5074,1.0351 19.4924,1.0401 19.6124,0.7201 C19.8874,0.7201 19.9574,0.7501 20.0174,0.9501 C20.1174,1.3151 20.2124,1.6851 20.3024,2.0551 C20.3924,2.4251 20.4374,2.6551 20.4874,2.9601 C20.4979,3.0916 20.4929,3.2241 20.4724,3.3551" id="Fill-25" fill="#64645A"/>
        <path d="M21.5776,3.15005 L21.9526,3.04005 C21.9926,2.86505 22.0176,2.70505 22.0576,2.54005 C22.1826,2.08505 22.3026,1.63005 22.4426,1.18005 C22.5601,0.97405 22.5601,0.72105 22.4426,0.51505 C22.1676,0.51505 22.0926,0.54505 22.0376,0.74505 C21.9326,1.11005 21.8376,1.48005 21.7476,1.85005 C21.6576,2.22005 21.6126,2.45005 21.5626,2.75505 C21.5546,2.88705 21.5596,3.01905 21.5776,3.15005" id="Fill-27" fill="#64645A"/>
        <path d="M14.8425,50.245 C14.8425,50.245 12.9875,37.27 13.0775,30.835 C13.1575,25.54 13.9825,20.335 14.9325,15.125 C15.5425,11.775 17.1525,2.665 21.3425,1.885 C26.1975,3.965 26.7775,17.53 27.0075,21.775 C27.3125,27.315 27.5925,41.455 27.1825,46.96 C24.6225,48.08 14.8425,50.245 14.8425,50.245" id="Fill-29" fill="#64645A"/>
        <path d="M16.5476,41.63 C16.5476,41.63 16.0476,29.035 17.1226,19.17 C17.8776,12.365 19.5576,7.835 20.6226,7.67 C23.2026,7.285 23.9576,18.21 24.1226,20.975 C24.3226,24.58 24.3876,36.115 24.1226,39.7 C22.4226,40.43 16.5476,41.63 16.5476,41.63" id="Fill-31" fill="#3C3C32"/>
        <path d="M39.00265,2.745 L38.65765,2.555 L38.65765,2.055 C38.65765,1.585 38.62215,1.11 38.58765,0.645 C38.52415,0.416 38.58715,0.1705 38.75265,0 C39.02265,0.06 39.08265,0.105 39.09715,0.315 C39.11715,0.695 39.12765,1.075 39.12765,1.455 L39.12765,2.38 C39.09865,2.5055 39.05665,2.628 39.00265,2.745" id="Fill-33" fill="#64645A"/>
        <path d="M38.28245,3.28505 L37.90745,3.17505 C37.86745,2.99505 37.84245,2.83505 37.80245,2.67505 C37.67745,2.22005 37.55745,1.76505 37.42245,1.31505 C37.31745,0.97005 37.30245,0.97505 37.42245,0.65505 C37.69745,0.65505 37.76745,0.68505 37.82745,0.88005 C37.93245,1.25005 38.02245,1.61505 38.11245,1.98505 C38.20245,2.35505 38.24745,2.59005 38.29745,2.89505 C38.30745,3.02505 38.30245,3.15605 38.28245,3.28505" id="Fill-35" fill="#64645A"/>
        <path d="M39.38745,3.07995 L39.76745,2.96995 C39.80245,2.79495 39.82745,2.63495 39.87245,2.46995 C39.99245,2.01495 40.11245,1.55995 40.25245,1.10995 C40.37045,0.90595 40.37045,0.65395 40.25245,0.44995 C39.97745,0.44995 39.90245,0.47995 39.84745,0.67995 C39.74245,1.04495 39.64795,1.40995 39.55745,1.77995 C39.46745,2.14995 39.42245,2.38495 39.37245,2.68995 C39.36495,2.81995 39.37045,2.95095 39.38745,3.07995" id="Fill-37" fill="#64645A"/>
        <path d="M48.7673,56.40515 C46.5028,53.26965 35.0323,45.84015 34.3178,45.07015 C33.1123,39.93515 31.4923,1.96515 38.4228,1.91015 C44.3023,1.86515 45.1223,12.98515 45.9673,16.86515 C47.1878,22.45015 48.9873,49.61515 48.7673,56.40515" id="Fill-39" fill="#64645A"/>
        <path d="M44.9226,48.245 C44.7826,38.045 44.4226,25.41 43.9726,21.885 C43.5171,18.135 41.4726,4.595 38.7471,7.435 C36.0226,10.275 37.4326,38.585 37.5876,47.985 L44.9226,48.245 Z" id="Fill-41" fill="#3C3C32"/>
        <path d="M49.93235,48.245 C49.53735,43.855 47.59735,38.935 44.35235,35.85 C40.35185,32.0795 35.01185,30.062 29.51735,30.245 C21.27735,30.44 18.47235,32.12 14.27735,38.185 C10.41735,43.775 11.66735,53.185 12.06235,59.61 C12.48235,66.46 15.92235,75.64 21.77235,79.645 C27.88235,83.83 36.77285,84.48 42.38235,79.185 C47.43785,74.395 50.84235,58.17 49.93235,48.245" id="Fill-43" fill="#64645A"/>
        <path d="M23.8425,53.1698 C23.8925,52.9653 23.8425,52.7848 24.6425,52.7003 C27.0925,52.4448 32.0925,52.5853 33.8425,52.5398 C35.5925,52.4948 37.5375,52.7848 37.5175,53.2948 C37.4975,53.8053 36.9175,54.1398 35.8875,54.1553 C33.9975,54.1848 32.1075,54.1803 30.2225,54.1553 C28.6925,54.1553 27.1675,54.0998 25.6475,54.0248 C25.1675,54.0048 23.6425,54.0148 23.8425,53.1698" id="Fill-45" fill="#000000"/>
        <path d="M24.92745,52.0299 C24.92745,52.0299 26.24245,54.8149 26.61745,54.8349 C26.99245,54.8549 28.33745,52.0299 28.33745,52.0299 L24.92745,52.0299 Z" id="Fill-47" fill="#FFFFFF"/>
        <path d="M31.3425,51.9501 C31.3425,51.9501 33.1875,55.4051 33.5575,55.4196 C33.9275,55.4351 35.3375,52.1001 35.3375,52.1001 L31.3425,51.9501 Z" id="Fill-49" fill="#FFFFFF"/>
        <mask id="mask-6" fill="white">
          <use xlink:href="#path-5"/>
        </mask>
        <g id="Clip-52"/>
        <polygon id="Fill-51" fill="#64645A" mask="url(#mask-6)" points="22.2625 52.605 39.4275 52.605 39.4275 51.06 22.2625 51.06"/>
        <path d="M37.40255,42.58995 C36.43755,40.04995 34.86755,40.15995 32.40255,39.83495 C29.98755,39.95995 26.74755,39.65495 24.71255,41.21495 C22.67755,42.77495 22.21255,46.21495 24.21255,47.86995 C26.56255,49.83495 33.94755,50.54995 36.71255,47.68495 C37.72705,46.62995 38.11255,44.43995 37.40255,42.58995" id="Fill-53" fill="#F01446" mask="url(#mask-6)"/>
        <path d="M34.78245,42.27505 C36.09245,42.18505 36.15245,43.93505 36.09245,44.71505 C36.03245,45.49505 35.99745,46.87005 34.84245,46.74505 C33.68795,46.62005 33.49245,45.39505 33.56295,44.68505 C33.63245,43.97505 33.46745,42.37005 34.78245,42.27505" id="Fill-54" fill="#6E1E3C" mask="url(#mask-6)"/>
        <path d="M25.9675,42.27505 C27.2825,42.18505 27.3425,43.93505 27.2825,44.71505 C27.2225,45.49505 27.1875,46.87005 26.0325,46.74505 C24.8775,46.62005 24.6825,45.39505 24.7475,44.68505 C24.8125,43.97505 24.6525,42.37005 25.9675,42.27505" id="Fill-55" fill="#6E1E3C" mask="url(#mask-6)"/>
        <path d="M17.78755,45.6249 C17.50705,45.6209 17.27555,45.4044 17.25255,45.1249 C17.16605,44.6859 17.13405,44.2374 17.15755,43.7899 C17.18755,43.3499 17.57255,43.1799 17.96755,43.0299 C18.26455,43.4994 18.33955,44.0754 18.17255,44.6049 C18.12255,44.9849 18.15255,45.4099 17.78755,45.6249" id="Fill-56" fill="#000000" mask="url(#mask-6)"/>
        <path d="M43.41235,45.77505 C42.73285,45.50005 42.82235,44.90505 42.84235,44.35005 C42.84235,43.71005 42.92285,43.64005 43.53235,43.38005 C44.16685,43.95955 44.21085,44.94255 43.63135,45.57705 C43.56535,45.65005 43.49135,45.71605 43.41235,45.77505" id="Fill-57" fill="#000000" mask="url(#mask-6)"/>
      </g>
    </g>
  </g>
</svg>