<svg width="114px" height="98px" viewBox="0 0 114 98" version="1.1" xml:space="preserve" xmlns="http://www.w3.org/2000/svg" xmlns:xlink="http://www.w3.org/1999/xlink">
  <defs/>
  <g>
    <title>hare-c</title>
    <desc>Created with Sketch.</desc>
    <g id="hare-c" stroke="none" stroke-width="1" fill="none" fill-rule="evenodd">
      <g id="Group" transform="translate(16.000000, 16.000000)">
        <path d="M61.4104113,51.732871 C59.859,54.9578468 55.0414597,56.9586774 55.0414597,56.9586774 L64.0370323,76.5005806 C64.0370323,76.5005806 66.7995242,75.9734274 68.6089597,76.3581774 C69.6756774,76.5855 69.6835161,80.2220081 69.6835161,80.2220081 L61.7664194,80.5028952 L44.3860403,56.7137177 C44.3860403,56.7137177 50.0867419,52.7538629 48.8358145,50.2631129" id="Fill-1" fill="#D9E2F3"/>
        <path d="M61.4104113,51.732871 C60.0791371,54.6273145 55.0414597,56.9586774 55.0414597,56.9586774 L64.0370323,76.5005806 C64.0370323,76.5005806 66.4833629,75.9766935 68.3104355,76.2699919 C70.1368548,76.5613306 69.6573871,80.5028952 69.6573871,80.5028952 L61.7664194,80.5028952 L44.3860403,56.7137177 C44.3860403,56.7137177 50.0867419,52.7538629 48.8358145,50.2631129" id="Stroke-3" stroke="#738CB5" stroke-width="0.5"/>
        <path d="M66.4008605,77.4900218 C66.3930218,77.4821831 66.4942718,77.6500621 66.5791911,77.895675 C66.6314492,78.0165218 66.662804,78.1667637 66.7091831,78.3202718 C66.7359653,78.4816185 66.7771185,78.6481911 66.7856105,78.8199895 C66.7856105,78.9930944 66.8143524,79.1616266 66.7816911,79.3203605 C66.7542556,79.4777879 66.7594815,79.6260702 66.7098363,79.744304 C66.6321024,79.9807718 66.5798444,80.1381992 66.5798444,80.1381992 C66.5798444,80.1381992 66.6014008,79.9761992 66.6340621,79.732546 C66.6601911,79.6136589 66.6281831,79.4679895 66.6268766,79.3203605 C66.630796,79.1707718 66.5720056,79.015304 66.5445702,78.8624492 C66.5079895,78.7089411 66.4407073,78.5632718 66.3917153,78.4267476 C66.3218202,78.2954492 66.272175,78.1693766 66.205546,78.0726992 C66.0886185,77.8688927 65.994554,77.7689492 65.9912879,77.7591508 L66.4008605,77.4900218 Z" id="Fill-5" fill="#738CB5"/>
        <path d="M68.210296,77.2361129 C68.210296,77.2361129 68.2246669,77.2903306 68.250796,77.3863548 C68.2775782,77.4882581 68.3089331,77.6306613 68.3331024,77.7991935 C68.3931992,78.1362581 68.4141024,78.5935161 68.3736024,79.0422823 C68.3272234,79.264379 68.3239573,79.4910484 68.2442637,79.689629 C68.1678363,79.88625 68.1306024,80.0796048 68.0404573,80.2213548 C67.8706185,80.5048548 67.7582637,80.6942903 67.7582637,80.6942903 C67.7582637,80.6942903 67.8425298,80.4930968 67.9692556,80.1919597 C68.0365379,80.0456371 68.0463363,79.8490161 68.0927153,79.6563145 C68.1423605,79.4623065 68.1136185,79.2421694 68.1286427,79.0331371 C68.1070863,78.6085403 68.0286992,78.1917823 67.9300621,77.8919516 C67.8856427,77.73975 67.8412234,77.6202097 67.8072556,77.5398629 C67.7778605,77.4601694 67.7510782,77.4066048 67.7510782,77.4059516 L68.210296,77.2361129 Z" id="Fill-7" fill="#738CB5"/>
        <path d="M6.09707903,27.4391419 C6.09707903,27.4391419 28.3341919,27.8082145 30.6466113,41.5122387 C33.0073694,53.1161419 18.134071,55.2201823 18.134071,55.2201823 L28.9220952,65.2831258 C28.9220952,65.2831258 33.2066032,69.0032468 28.2669097,71.3058677 L13.6666597,54.065279 C13.6666597,54.065279 18.498571,49.8957387 16.7126516,45.8222226 C15.8085871,43.7593355 13.1956839,38.7294968 13.1956839,38.7294968" id="Fill-9" fill="#D9E2F3"/>
        <path d="M28.8674855,67.6488484 C28.8674855,67.6488484 28.8700984,67.6625661 28.8753242,67.6886952 C28.8890419,67.7004532 28.8733645,67.6540742 28.8923081,67.7037194 C28.9321548,67.7919048 28.9942113,67.9271226 29.0549613,68.0956548 C29.1725419,68.4242274 29.2881629,68.9422355 29.0954613,69.4086387 C29.0125016,69.6418403 28.8531145,69.8286629 28.6963403,69.9795581 C28.6107677,70.0461871 28.5278081,70.1108565 28.4487677,70.1709532 C28.3631952,70.2186387 28.2821952,70.2637113 28.2070742,70.3048645 C28.0620581,70.3937032 27.9209613,70.4257113 27.8327758,70.4668645 C27.7413242,70.5027919 27.6897194,70.5230419 27.6897194,70.5230419 C27.6897194,70.5230419 27.7380581,70.4956065 27.8242839,70.447921 C27.9059371,70.3950097 28.0385419,70.3453645 28.1678806,70.2395419 C28.2332032,70.19055 28.3050581,70.1369855 28.380179,70.0808081 C28.4455016,70.014179 28.5140903,69.9442839 28.5852919,69.8717758 C28.7080984,69.7143484 28.8217597,69.5347113 28.8622597,69.334171 C28.9661226,68.9363565 28.8158806,68.5313565 28.6754371,68.2589613 C28.6016226,68.1198242 28.5317274,68.0087758 28.4788161,67.9245097 C28.4520339,67.887929 28.4017355,67.7729613 28.3932435,67.7383403 C28.3847516,67.7128645 28.380179,67.6998 28.380179,67.6998 L28.8674855,67.6488484 Z" id="Fill-11" fill="#738CB5"/>
        <path d="M6.09707903,27.4391419 C6.09707903,27.4391419 28.3341919,27.8082145 30.6466113,41.5122387 C33.0073694,53.1161419 18.134071,55.2201823 18.134071,55.2201823 L28.9220952,65.2831258 C28.9220952,65.2831258 33.2066032,69.0032468 28.2669097,71.3058677 L13.6666597,54.065279 C13.6666597,54.065279 17.4592887,50.7168435 17.060821,47.391271 C16.6695387,44.1231823 13.1414661,38.0089887 13.1414661,38.0089887" id="Stroke-13" stroke="#738CB5" stroke-width="0.5"/>
        <g id="Group-18" transform="translate(50.298387, 0.401081)">
          <path d="M15.8587548,30.3877379 C15.8587548,30.3877379 9.61718226,25.9758508 4.19344839,17.2409153 C-1.23093871,8.50532661 0.555633871,2.20039113 1.1259,0.612399194 C1.1259,0.612399194 16.7471419,9.71836694 17.5800048,28.8513508" id="Fill-15" fill="#FFFEF9"/>
          <path d="M15.8587548,30.3877379 C15.8587548,30.3877379 9.61718226,25.9758508 4.19344839,17.2409153 C-1.23093871,8.50532661 0.555633871,2.20039113 1.1259,0.612399194 C1.1259,0.612399194 16.7471419,9.71836694 17.5800048,28.8513508" id="Stroke-17" stroke="#738CB5" stroke-width="0.5"/>
        </g>
        <g id="Group-22" transform="translate(2.612903, 21.957532)">
          <path d="M2.47781613,7.99241371 C2.52158226,7.79775242 -2.28093387,5.30504274 1.60902581,1.38764758 C5.3526629,-2.38277177 8.8101871,2.99850242 8.8101871,2.99850242" id="Fill-19" fill="#FFFEF9"/>
          <path d="M2.47781613,7.99241371 C2.52158226,7.79775242 -2.28093387,5.30504274 1.60902581,1.38764758 C5.3526629,-2.38277177 8.8101871,2.99850242 8.8101871,2.99850242" id="Stroke-21" stroke="#738CB5" stroke-width="0.5"/>
        </g>
        <path d="M43.6836919,31.5562282 C50.6333613,37.7853895 54.8166194,37.4783734 54.8166194,37.4783734 C54.8166194,37.4783734 57.9207484,38.1420508 57.0264823,32.1029782 C56.6802726,29.7637766 61.55595,26.2748976 66.4871516,27.227954 C69.6918774,27.8472121 73.0448855,28.4997847 74.4147,29.9545185 C74.9131113,30.4829782 74.7452323,31.3844298 74.9131113,32.3616556 C75.20445,34.066575 77.7892645,34.4702685 79.6405065,35.6375831 C82.1593452,37.2268815 77.6024419,40.6543573 77.6024419,40.6543573 C77.6024419,40.6543573 74.3127968,41.6224379 72.7176194,42.0548734 C72.2871435,42.1718008 70.6462403,42.9589379 68.7610306,42.8759782 C67.2122323,42.8073895 66.2291274,42.5036395 66.2291274,42.5036395 C66.2291274,42.5036395 61.7101113,60.7377847 48.6874016,60.0381798 C34.1844823,59.2582282 34.4091919,45.6966073 24.5213129,40.708575 C21.1781032,39.021946 8.18152258,40.5570266 4.96634516,34.5578008 C-0.0700258065,25.1598411 20.3583048,20.5317363 25.9250952,21.0647685 C30.2069903,21.4749944 32.4965468,21.5265992 43.6836919,31.5562282" id="Fill-23" fill="#FFFEF9"/>
        <path d="M66.2292581,42.5035089 L65.4355887,42.1762427 C49.0873065,74.2548556 30.1914435,36.7890895 22.1293306,38.7500734 C22.2534435,38.936896 21.5708226,39.9964282 21.5708226,39.9964282 C21.5708226,39.9964282 25.7449355,41.2662992 28.0018306,43.3448637 C34.5543387,49.3787105 34.5334355,56.5844444 45.568379,59.7225411 C62.0858468,62.5314121 66.2292581,42.5035089 66.2292581,42.5035089" id="Fill-25" fill="#D9E2F3"/>
        <path d="M79.2503347,38.0087274 C79.2503347,38.0087274 78.8597056,37.3032435 78.1705524,36.8525177 C77.4820524,36.4024452 77.1900605,36.1326629 77.5467218,35.6747516 C77.8334879,35.3069855 78.9328669,35.6943484 78.9328669,35.6943484 L79.5050927,35.8942355 L79.2503347,38.0087274 Z" id="Fill-27" fill="#0F233A"/>
        <path d="M62.846071,39.9352863 C63.2837323,40.3775202 64.6234984,42.2072056 66.7118613,42.6409476 C69.6755468,43.2562863 70.8291435,42.5481895 73.4061194,41.8636089 C76.5089419,41.0392379 77.4424016,40.7923185 77.810821,40.5408266 C79.1747565,39.6073669 79.6071919,35.6331411 79.6071919,35.6331411 C79.6071919,35.6331411 77.3209016,34.8316331 75.9053613,33.7283347 C74.0456274,32.2788266 75.1214903,30.6457621 74.3813855,29.9500766 C73.8150387,29.4170444 69.7232323,27.9263831 68.4951677,27.631125 C65.7339823,26.9661411 63.2295145,26.760375 61.5232887,27.5226895 C59.5335629,28.4110766 56.4627484,29.4921653 57.0349742,33.619246 C57.8874339,39.7706734 52.1553774,36.7227218 52.1553774,36.7227218 C52.1553774,36.7227218 47.6853532,35.3875282 40.449571,28.8324073 C33.2150952,22.2766331 29.1957968,20.7911976 23.1599903,21.0309315 C17.1235306,21.2700121 3.00928065,25.2657944 4.25236935,32.6145847 C5.49480484,39.9627218 18.4169177,39.4238105 22.8131274,40.1560766 C27.2093371,40.888996 31.5924823,47.4754718 34.2922645,51.6776734 C36.9920468,55.8792218 48.3444581,66.0760766 59.8471113,55.2619234 C59.8471113,55.2619234 64.963829,49.7865847 66.1958129,42.4991976" id="Stroke-29" stroke="#738CB5" stroke-width="0.5"/>
        <path d="M67.7031315,31.6946468 C67.7031315,31.6946468 70.2396073,30.3888484 71.6218331,31.6195258 C73.0034056,32.8502032 72.9289379,34.4297032 72.9289379,34.4297032 C72.9289379,34.4297032 71.4781234,35.5441065 69.9338976,34.5694935 C68.3890185,33.5961871 67.7031315,31.6946468 67.7031315,31.6946468" id="Fill-31" fill="#D9E2F3"/>
        <path d="M71.3574073,31.4222516 C71.3574073,31.4222516 70.1365282,31.2184452 69.7001734,32.9318565 C69.2768831,34.5884371 70.5010282,34.8412355 70.5010282,34.8412355 C70.5010282,34.8412355 71.6102056,35.2756306 72.1210282,33.754921 C72.5867782,32.3648565 71.9903831,31.7031387 71.3574073,31.4222516" id="Fill-33" fill="#0F233A"/>
        <path d="M67.7031315,31.6946468 C67.7031315,31.6946468 70.2396073,30.3888484 71.6218331,31.6195258 C73.0034056,32.8502032 72.9289379,34.4297032 72.9289379,34.4297032 C72.9289379,34.4297032 71.4781234,35.5441065 69.9338976,34.5694935 C68.3890185,33.5961871 67.7031315,31.6946468 67.7031315,31.6946468 Z" id="Stroke-35" stroke="#0F233A" stroke-width="0.5"/>
        <path d="M62.2897839,31.428 C62.2897839,31.428 55.4322194,27.5909516 48.7340419,19.0859516 C42.0345581,10.5816048 42.8563161,3.69921774 43.1816226,1.95053226 C43.1816226,1.95053226 60.0524855,9.51554032 63.7647677,29.5832903" id="Fill-37" fill="#FFFEF9"/>
        <path d="M61.5016669,29.2112129 C61.5016669,29.2112129 44.9744008,17.5491726 44.6824089,4.84131774 C44.6824089,4.84131774 61.3161508,16.477229 61.5016669,29.2112129" id="Fill-39" fill="#D9E2F3"/>
        <path d="M62.2897839,31.428 C62.2897839,31.428 55.4322194,27.5909516 48.7340419,19.0859516 C42.0345581,10.5816048 42.8563161,3.69921774 43.1816226,1.95053226 C43.1816226,1.95053226 60.0524855,9.51554032 63.7647677,29.5832903" id="Stroke-41" stroke="#738CB5" stroke-width="0.5"/>
        <path d="M54.6755879,51.732871 C53.1241766,54.9578468 48.3066363,56.9586774 48.3066363,56.9586774 L57.3022089,76.5005806 C57.3022089,76.5005806 60.0647008,75.9734274 61.8741363,76.3581774 C62.940854,76.5855 62.9486927,80.2220081 62.9486927,80.2220081 L55.031596,80.5028952 L37.6512169,56.7137177 C37.6512169,56.7137177 43.3519185,52.7538629 42.1009911,50.2631129" id="Fill-43" fill="#FFFEF9"/>
        <path d="M54.6755879,51.732871 C53.3443137,54.6273145 48.3066363,56.9586774 48.3066363,56.9586774 L57.3022089,76.5005806 C57.3022089,76.5005806 59.7485395,75.9766935 61.5756121,76.2699919 C63.4020315,76.5613306 62.9225637,80.5028952 62.9225637,80.5028952 L55.031596,80.5028952 L37.6512169,56.7137177 C37.6512169,56.7137177 43.3519185,52.7538629 42.1009911,50.2631129" id="Stroke-45" stroke="#738CB5" stroke-width="0.5"/>
        <path d="M59.6660371,77.4900218 C59.6581984,77.4821831 59.7594484,77.6500621 59.8443677,77.895675 C59.8966258,78.0165218 59.9279806,78.1667637 59.9743597,78.3202718 C60.0011419,78.4816185 60.0422952,78.6481911 60.0507871,78.8199895 C60.0507871,78.9930944 60.079529,79.1616266 60.0468677,79.3203605 C60.0194323,79.4777879 60.0246581,79.6260702 59.9750129,79.744304 C59.897279,79.9807718 59.845021,80.1381992 59.845021,80.1381992 C59.845021,80.1381992 59.8665774,79.9761992 59.8992387,79.732546 C59.9253677,79.6136589 59.8933597,79.4679895 59.8920532,79.3203605 C59.8959726,79.1707718 59.8371823,79.015304 59.8097468,78.8624492 C59.7731661,78.7089411 59.7058839,78.5632718 59.6568919,78.4267476 C59.5869968,78.2954492 59.5373516,78.1693766 59.4707226,78.0726992 C59.3537952,77.8688927 59.2597306,77.7689492 59.2564645,77.7591508 L59.6660371,77.4900218 Z" id="Fill-47" fill="#738CB5"/>
        <path d="M61.4754726,77.2361129 C61.4754726,77.2361129 61.4898435,77.2903306 61.5159726,77.3863548 C61.5427548,77.4882581 61.5741097,77.6306613 61.598279,77.7991935 C61.6583758,78.1362581 61.679279,78.5935161 61.638779,79.0422823 C61.5924,79.264379 61.5891339,79.4910484 61.5094403,79.689629 C61.4330129,79.88625 61.395779,80.0796048 61.3056339,80.2213548 C61.1357952,80.5048548 61.0234403,80.6942903 61.0234403,80.6942903 C61.0234403,80.6942903 61.1077065,80.4930968 61.2344323,80.1919597 C61.3017145,80.0456371 61.3115129,79.8490161 61.3578919,79.6563145 C61.4075371,79.4623065 61.3787952,79.2421694 61.3938194,79.0331371 C61.3722629,78.6085403 61.2938758,78.1917823 61.1952387,77.8919516 C61.1508194,77.73975 61.1064,77.6202097 61.0724323,77.5398629 C61.0430371,77.4601694 61.0162548,77.4066048 61.0162548,77.4059516 L61.4754726,77.2361129 Z" id="Fill-49" fill="#738CB5"/>
        <path d="M10.9640032,27.7944315 C10.9640032,27.7944315 25.4989306,27.7598105 23.1577694,41.4579556 C21.5560597,53.1911976 4.1567371,50.2124879 4.1567371,50.2124879 L11.018221,63.2730847 C11.018221,63.2730847 13.8355839,68.1990605 8.41185,68.7425444 L0.320995161,47.6485766 C0.320995161,47.6485766 8.16885,44.6855444 6.94143871,41.4755927 C6.13666452,39.3728589 4.53822097,33.6982863 4.53822097,33.6982863" id="Fill-51" fill="#FFFEF9"/>
        <path d="M13.1415315,27.4391419 C13.1415315,27.4391419 24.7905073,30.3420774 23.1574427,41.458021 C21.5557331,53.1912629 4.15706371,50.2125532 4.15706371,50.2125532 L11.0178944,63.27315 C11.0178944,63.27315 13.8352573,68.1984726 8.41152339,68.7426097 L0.321321774,47.6486419 C0.321321774,47.6486419 8.28871694,45.0488032 7.06195887,41.8388516 C6.25653145,39.7354645 4.45885403,33.4671097 4.45885403,33.4671097" id="Stroke-53" stroke="#738CB5" stroke-width="0.5"/>
        <path d="M8.03533065,67.4912903 C8.03533065,67.4912903 8.21300806,67.458629 8.48866935,67.3606452 C8.75910484,67.2659274 9.11184677,67.1000081 9.39012097,66.8445968 C9.52860484,66.7172177 9.64291935,66.5650161 9.70889516,66.4004032 C9.77748387,66.2384032 9.8036129,66.0659516 9.79316129,65.9209355 C9.78662903,65.624371 9.6821129,65.4362419 9.69779032,65.433629 C9.69779032,65.433629 9.71804032,65.4793548 9.75396774,65.5603548 C9.79381452,65.6407016 9.8441129,65.757629 9.86958871,65.9124435 C9.90290323,66.0626855 9.90551613,66.2534274 9.85587097,66.4487419 C9.81014516,66.6453629 9.70562903,66.8413306 9.57171774,67.0098629 C9.30062903,67.3475806 8.93808871,67.5879677 8.65916129,67.7375565 C8.38284677,67.8871452 8.17120161,67.9622661 8.17120161,67.9622661 L8.03533065,67.4912903 Z" id="Fill-55" fill="#738CB5"/>
      </g>
    </g>
  </g>
</svg>