<svg width="172px" height="155px" viewBox="0 0 172 155" version="1.1" xml:space="preserve" xmlns="http://www.w3.org/2000/svg" xmlns:xlink="http://www.w3.org/1999/xlink">
  <defs>
    <polygon id="path-1" points="0.12785 0.289963846 35.7305 0.289963846 35.7305 46.4653801 0.12785 46.4653801"/>
    <polygon id="path-3" points="0 0.350013502 28.6485464 0.350013502 28.6485464 29.365591 0 29.365591"/>
    <polygon id="path-5" points="0 129.650154 129.7305 129.650154 129.7305 0.501930502 0 0.501930502"/>
  </defs>
  <g>
    <title>andie-a</title>
    <desc>Created with Sketch.</desc>
    <g id="andie-a" stroke="none" stroke-width="1" fill="none" fill-rule="evenodd">
      <g id="Group" transform="translate(0.000000, 25.000000)">
        <path d="M114.9574,82.2706255 C114.6799,81.2958764 116.3844,80.2207413 117.9394,80.1820927 C119.4944,80.143444 121.0039,81.0017452 121.1984,80.9480386 C121.3444,81.6035598 120.4359,83.1756062 120.4359,83.1756062 C120.4359,83.1756062 119.6589,82.59939 118.6329,82.5491969 C117.1119,82.4744093 115.1229,82.8523629 114.9574,82.2706255" id="Fill-1" fill="#A0783C"/>
        <path d="M95.8014,103.15249 C95.6104,104.53832 95.3214,105.540174 95.6614,106.81056 C95.9204,106.869788 122.8854,101.826892 122.8854,101.826892 L121.6609,98.5086293 C121.6609,98.5086293 96.9174,102.955734 95.8014,103.15249" id="Fill-3" fill="#006482"/>
        <polygon id="Fill-5" fill="#008CB4" points="115.5858 94.9277066 118.5483 108.16261 114.5488 109.055042 111.0858 95.9687104"/>
        <path d="M109.06775,73.8113398 C107.46625,74.2344672 108.08475,74.567749 108.77175,78.2724981 C110.00975,84.9501815 118.30175,111.58161 119.63975,115.983541 C120.93025,120.230876 121.90125,124.661919 123.89725,128.650259 C124.59525,129.335394 125.35975,129.60995 126.29525,129.209409 C127.85625,127.981185 126.79975,124.169525 125.59925,120.864815 C124.84125,118.77829 112.75375,78.280529 112.75375,78.280529 C112.75375,78.280529 111.88225,73.0679807 109.06775,73.8113398" id="Fill-7" fill="#000000"/>
        <path d="M115.4928,78.6659614 C115.0473,78.7793977 115.2183,78.8732587 115.3993,79.9022162 C115.7263,81.7573514 126.9658,116.931135 127.3258,118.155344 C127.6728,119.336386 127.9313,120.567622 128.4748,121.678896 C128.6668,121.870633 128.8783,121.948432 129.1388,121.840015 C129.5748,121.50322 129.3618,119.623992 129.0373,118.704456 C128.8323,118.124224 117.1203,80.3238378 117.1203,80.3238378 C117.1203,80.3238378 116.2753,78.466695 115.4928,78.6659614" id="Fill-9" fill="#000000"/>
        <g id="Group-13" transform="translate(94.000000, 44.321969)">
          <mask id="mask-2" fill="white">
            <use xlink:href="#path-1"/>
          </mask>
          <g id="Clip-12"/>
          <path d="M23.49135,45.9197645 C22.94235,45.3686448 23.75685,45.5347838 23.92085,44.6579112 C24.08485,43.7810386 22.39235,44.110305 22.22835,43.3428533 C22.06435,42.5754015 23.21085,43.1235097 22.77435,42.0272934 C22.33735,40.9310772 21.73685,41.7788378 21.73685,40.49239 C21.73685,39.206444 24.24135,37.7352857 24.51535,36.8187606 C25.78135,32.5774479 26.41785,28.1755174 24.27485,24.0772548 C19.97085,15.8455946 11.06535,11.971695 2.42885,9.93536293 C1.34185,6.95941699 0.95285,3.70991892 0.12785,0.647640927 C2.31385,-0.319579151 6.12485,0.91065251 8.34235,1.56115444 C11.08585,2.36625097 13.77085,3.51567181 16.31485,4.81717761 C21.13835,7.28416602 26.11185,10.4884903 29.19985,15.0174093 C32.42785,19.7506139 35.81985,25.2959421 35.72885,31.1263668 C35.66935,34.901888 35.13335,39.4950541 33.02385,43.0306525 C32.88235,43.2675637 31.17185,45.2235869 29.69535,45.8846293 C27.60835,46.8192239 24.04035,46.4708842 23.49135,45.9197645" id="Fill-11" fill="#BE965A" mask="url(#mask-2)"/>
        </g>
        <path d="M71.4889,42.6088301 C68.2184,41.3429614 64.7259,39.3367452 63.3744,38.6144672 C55.5889,34.4509537 49.1339,30.1393707 40.2524,24.8585598 C36.3949,22.5652394 21.6074,12.5687915 21.6074,12.5687915 L15.7764,21.0895637 C15.7764,21.0895637 28.1164,25.8413398 31.1004,28.3374402 C34.0844,30.8340425 47.7549,42.0280965 56.9994,46.8089846 C68.5059,52.7593707 75.3419,54.9573243 75.9059,55.082305 C76.7699,51.1220734 78.0429,44.4885598 78.0429,44.4885598 C78.0429,44.4885598 74.8884,43.9248919 71.4889,42.6088301" id="Fill-14" fill="#BE965A"/>
        <g id="Group-18" transform="translate(0.000000, 0.152085)">
          <mask id="mask-4" fill="white">
            <use xlink:href="#path-3"/>
          </mask>
          <g id="Clip-17"/>
          <path d="M1.6151,21.5937529 C5.2471,28.6433668 13.8841,31.4024788 20.9066,27.7564556 C27.9291,24.1104324 30.6776,15.4400849 27.0456,8.39047104 C25.6606,5.70213127 23.5466,3.63969884 21.0731,2.31661004 C17.4751,-0.128293436 13.3601,-0.12176834 9.6991,1.39406178 C9.0411,1.62093436 8.3911,1.89699614 7.7541,2.22776834 C4.7771,3.77321236 2.5721,6.22363707 1.2916,9.06908108 C1.1536,9.32707336 1.0211,9.58807722 0.8976,9.85209266 C0.6686,10.3444865 -0.1334,11.9085019 0.0191,14.6224402 C-0.0429,16.9679614 0.4656,19.3621699 1.6151,21.5937529" id="Fill-16" fill="#E6781E" mask="url(#mask-4)"/>
        </g>
        <path d="M10.20595,17.6095792 C10.20595,17.6095792 13.40195,23.0304286 11.94895,29.3140965 C14.88445,29.8135174 17.99845,29.4009305 20.85045,27.9357954 L14.46195,15.3478803 L10.20595,17.6095792 Z" id="Fill-19" fill="#FF963C"/>
        <path d="M18.72085,13.2936795 L27.22935,8.92186486 C27.16885,8.79537838 27.11035,8.66788803 27.04585,8.54240541 C25.66085,5.85406564 23.54635,3.79213514 21.07285,2.46904633 C19.91135,1.67950965 18.69535,1.14896911 17.45885,0.839277992 C15.02685,7.03209653 18.72085,13.2936795 18.72085,13.2936795" id="Fill-21" fill="#FF963C"/>
        <path d="M20.5326,28.0908417 C20.6556,28.0316139 20.7791,27.9748958 20.9011,27.9116525 C17.0881,20.3761699 12.3501,11.015166 7.7996,2.35837066 C7.7846,2.36640154 7.7691,2.37192278 7.7541,2.37945174 C7.6471,2.43516602 7.5431,2.49439382 7.4386,2.55261776 C11.9861,11.20339 16.7206,20.5588726 20.5326,28.0908417" id="Fill-23" fill="#824600"/>
        <path d="M27.26305,9.01010425 C27.26555,9.00910039 27.26705,9.00659073 27.26955,9.00508494 C27.20755,8.87408108 27.14605,8.74307722 27.08005,8.61307722 C27.07405,8.61558687 27.06705,8.61508494 27.06105,8.61809653 L1.65055,21.8108378 C1.71905,21.9418417 1.79105,22.069834 1.86255,22.1978263 L27.26305,9.01010425 Z" id="Fill-25" fill="#824600"/>
        <path d="M11.8749,22.8484788 C12.3729,25.1237297 12.3079,27.324695 11.6979,29.2661622 C11.8394,29.2927645 11.9804,29.3188649 12.1224,29.3409498 C12.7314,27.3467799 12.7884,25.0961236 12.2799,22.7751969 C11.0654,17.2273591 6.9634,11.0686718 1.2854,9.2336139 C1.2159,9.36311197 1.1534,9.49562162 1.0879,9.62662548 C5.4874,11.0641544 10.3304,15.7973591 11.8749,22.8484788" id="Fill-27" fill="#824600"/>
        <path d="M16.8976,8.66944402 C17.5576,11.8556988 19.1301,15.1383243 21.2116,17.6760849 C22.7901,19.6004865 24.9016,21.171027 26.9321,21.9605637 C26.9996,21.8350811 27.0636,21.7085946 27.1266,21.5816062 C25.1436,20.8287104 23.0696,19.2928031 21.5206,17.4040386 C16.8711,11.7352355 16.1426,5.19608494 17.7481,0.917127413 C17.6051,0.876972973 17.4611,0.840833977 17.3171,0.806702703 C16.4466,3.09149035 16.2971,5.77179923 16.8976,8.66944402" id="Fill-29" fill="#824600"/>
        <path d="M28.87975,18.6938494 C29.06825,19.3307992 27.63125,20.2217259 28.40475,22.0673243 C29.17875,23.9124208 33.02725,23.1931544 33.24775,21.5317645 C33.59375,18.9287529 28.11125,13.7252394 26.58125,14.1925367 C25.05125,14.659834 27.95525,15.5758571 28.87975,18.6938494" id="Fill-31" fill="#A0783C"/>
        <path d="M45.35025,25.9862973 C43.63075,29.7758726 42.00825,33.5569151 40.05575,37.2004286 C35.98825,37.5869151 31.83225,33.419888 29.12125,30.8816255 C30.12225,27.4679961 33.62825,22.4622432 36.30225,20.1478417 C38.79675,19.9159498 45.20575,25.5847529 45.35025,25.9862973" id="Fill-33" fill="#F01446"/>
        <path d="M62.73865,90.7963166 C62.73865,90.7963166 64.18865,77.6658147 65.15465,75.9687876 C66.12065,74.2722625 104.99915,74.3932278 104.99915,74.3932278 L108.13315,89.5460077 L62.73865,90.7963166 Z" id="Fill-35" fill="#006482"/>
        <path d="M105.3915,102.853239 C104.6625,107.407757 102.3915,120.35405 102.3915,120.35405 C102.3915,120.35405 102.2605,120.808297 102.19,121.398568 C101.412,121.320266 100.7035,121.411116 100.7035,121.411116 C100.7035,121.411116 73.1805,121.570228 71.737,121.493432 C70.687,121.437718 69.5785,121.423162 68.639,121.53961 C68.574,120.882583 68.4235,120.35405 68.4235,120.35405 C68.4235,120.35405 66.152,107.407757 65.4235,102.853239 L62.553,102.853239 C62.7275,103.887718 62.9155,104.919185 63.073,105.948645 C63.527,108.921579 64.925,117.205942 66.0805,121.491425 C66.227,122.034514 66.8275,124.1371 67.33,124.065826 C70.1585,124.530112 73.0625,124.301232 75.915,124.299224 C78.9115,124.297216 103.301,124.034205 103.301,124.034205 C103.301,124.034205 104.0935,123.868568 104.7345,121.491425 C105.89,117.205942 107.2875,108.921579 107.742,105.948645 C107.8995,104.919185 108.0875,103.887718 108.2615,102.853239 L105.3915,102.853239 Z" id="Fill-37" fill="#006482"/>
        <path d="M99.0834,129.649903 C98.3629,129.666969 98.0819,128.63751 98.0804,127.466004 C98.0784,126.335154 97.9749,126.087703 98.2999,124.967394 C98.5039,124.748552 98.7874,124.624575 99.2274,124.652181 C99.9894,124.824344 100.0699,125.734846 100.0084,126.589633 C100.0049,126.63832 100.3494,129.62029 99.0834,129.649903" id="Fill-39" fill="#000000"/>
        <mask id="mask-6" fill="white">
          <use xlink:href="#path-5"/>
        </mask>
        <g id="Clip-42"/>
        <polygon id="Fill-41" fill="#008CB4" mask="url(#mask-6)" points="96.999 125.962973 101.0615 125.962973 101.0615 120.764479 96.999 120.764479"/>
        <path d="M71.9042,129.649903 C71.1837,129.666969 70.9027,128.63751 70.9012,127.466004 C70.8997,126.335154 70.7957,126.087703 71.1207,124.967394 C71.3247,124.748552 71.6082,124.624575 72.0482,124.652181 C72.8102,124.824344 72.8907,125.734846 72.8292,126.589633 C72.8257,126.63832 73.1702,129.62029 71.9042,129.649903" id="Fill-43" fill="#000000" mask="url(#mask-6)"/>
        <polygon id="Fill-44" fill="#008CB4" mask="url(#mask-6)" points="69.82 125.962973 73.8825 125.962973 73.8825 120.764479 69.82 120.764479"/>
        <polygon id="Fill-45" fill="#006482" mask="url(#mask-6)" points="67.95375 102.892942 65.57275 103.431514 62.73875 90.796417 65.11975 90.2583475"/>
        <polygon id="Fill-46" fill="#006482" mask="url(#mask-6)" points="58.8932 119.182394 56.5077 118.662896 60.2172 101.502896 62.6022 102.022394"/>
        <polygon id="Fill-47" fill="#006482" mask="url(#mask-6)" points="111.3041 119.182394 113.6896 118.662896 109.9801 101.502896 107.5951 102.022394"/>
        <polygon id="Fill-48" fill="#006482" mask="url(#mask-6)" points="105.5045 103.434324 103.099 103.01722 105.294 90.2551351 107.699 90.6717375"/>
        <path d="M74.1886,103.15249 C74.3796,104.53832 74.6686,105.540174 74.3286,106.81056 C74.0691,106.869788 47.1046,101.826892 47.1046,101.826892 L48.3286,98.5086293 C48.3286,98.5086293 73.0726,102.955734 74.1886,103.15249" id="Fill-49" fill="#006482" mask="url(#mask-6)"/>
        <polygon id="Fill-50" fill="#008CB4" mask="url(#mask-6)" points="54.4042 94.9277066 51.4417 108.16261 55.4412 109.055042 58.9037 95.9687104"/>
        <path d="M60.922,73.8113398 C62.524,74.2344672 61.9055,74.567749 61.2185,78.2724981 C59.98,84.9501815 51.688,111.58161 50.35,115.983541 C49.0595,120.230876 48.0885,124.661919 46.0925,128.650259 C45.3945,129.335394 44.6305,129.60995 43.6945,129.209409 C42.1335,127.981185 43.19,124.169525 44.3905,120.864815 C45.1485,118.77829 57.236,78.280529 57.236,78.280529 C57.236,78.280529 58.1075,73.0679807 60.922,73.8113398" id="Fill-51" fill="#000000" mask="url(#mask-6)"/>
        <path d="M54.4972,78.6659614 C54.9422,78.7793977 54.7717,78.8732587 54.5907,79.9022162 C54.2637,81.7573514 43.0242,116.931135 42.6642,118.155344 C42.3167,119.336386 42.0587,120.567622 41.5152,121.678896 C41.3232,121.870633 41.1117,121.948432 40.8512,121.840015 C40.4152,121.50322 40.6282,119.623992 40.9527,118.704456 C41.1577,118.124224 52.8697,80.3238378 52.8697,80.3238378 C52.8697,80.3238378 53.7147,78.466695 54.4972,78.6659614" id="Fill-52" fill="#000000" mask="url(#mask-6)"/>
        <path d="M75.0741,103.151486 L75.0741,106.886853 C78.8786,106.89388 87.5406,106.919981 95.7421,106.84971 L95.7421,103.086737 C88.7291,103.115849 80.7866,103.143958 75.0741,103.151486" id="Fill-53" fill="#006482" mask="url(#mask-6)"/>
        <path d="M108.0509,87.6725019 C100.7719,87.2739691 66.2004,87.5570579 63.2844,88.5905328 C61.0029,88.4369421 60.2729,89.730417 61.1404,91.5950888 C62.0869,92.416749 63.6014,93.0281004 64.9194,92.6958224 C72.3004,92.5407259 97.6939,92.5623089 104.3074,92.4112278 C105.1089,92.6822703 108.3539,92.2024247 109.0764,91.6884479 C109.2939,90.6735444 110.0539,87.2759768 108.0509,87.6725019" id="Fill-54" fill="#008CB4" mask="url(#mask-6)"/>
        <path d="M114.1903,118.827981 C114.2328,119.913656 113.9073,119.589409 111.4698,119.866475 C107.0758,120.366398 68.9113,120.255471 65.9148,120.257981 C63.0238,120.259988 60.0798,120.497903 57.2153,120.008521 C56.6558,119.70134 56.3383,119.274197 56.4088,118.610645 C56.8748,117.396475 59.4503,117.330722 61.7368,117.452189 C63.1803,117.528985 110.7033,117.369873 110.7033,117.369873 C110.7033,117.369873 114.1153,116.920143 114.1903,118.827981" id="Fill-55" fill="#008CB4" mask="url(#mask-6)"/>
        <path d="M100.84215,77.3506023 C98.99365,77.0253514 71.78465,77.9800232 67.35615,77.6427259 L71.14165,89.334695 C72.99515,89.8085174 95.97665,89.4993282 100.11415,88.6043861 C100.26615,87.3184402 100.76815,78.0447722 100.84215,77.3506023" id="Fill-56" fill="#780046" mask="url(#mask-6)"/>
        <path d="M93.5951,45.3236216 C92.5386,45.0515753 77.5786,44.5004556 77.1546,44.7694903 C76.8441,45.595166 75.9411,56.1783707 75.9411,56.1783707 L93.5951,54.2956293 C93.5951,54.2956293 93.6656,47.5301081 93.5951,45.3236216" id="Fill-57" fill="#BE965A" mask="url(#mask-6)"/>
        <path d="M99.55655,62.9146795 C99.38855,61.8761853 97.99855,55.0735212 96.77105,50.0235985 C96.03105,46.9778842 95.17705,44.5033668 95.17705,44.5033668 C95.17705,44.5033668 92.40005,44.2539073 91.68955,44.3854131 C91.68355,44.8246023 91.37855,47.072749 90.39055,48.4510502 C89.12305,50.2193514 86.98155,51.1398919 85.56455,51.1780386 C83.04255,51.2463012 81.13255,50.0722857 80.33255,48.6382703 C79.18205,46.5773436 79.25555,43.8724402 79.25555,43.8724402 C79.25555,43.8724402 77.32405,43.758 77.09905,43.8297761 C74.36405,44.6991197 71.27405,57.5269575 70.87355,59.8518996 C70.14805,64.0651042 69.50055,68.2948726 68.93755,72.5331737 C68.75555,73.903444 67.29605,79.182749 68.28905,80.4164942 L102.27655,80.0796988 C102.60555,79.2921699 99.69605,63.7759923 99.55655,62.9146795" id="Fill-58" fill="#F01446" mask="url(#mask-6)"/>
        <polygon id="Fill-59" fill="#000000" mask="url(#mask-6)" points="67.356 82.2493436 101.844 82.2493436 101.844 77.3675676 67.356 77.3675676"/>
        <path d="M104.3722,79.4205637 C104.3117,86.0129189 102.2427,92.1711042 102.2427,92.1711042 L90.0142,92.3643475 C90.0142,92.3643475 90.8122,73.0601004 93.8877,70.0851583 C94.7507,69.2504479 96.8897,66.5294826 101.1412,68.3625328 C105.3927,70.1960849 104.3987,76.5239228 104.3722,79.4205637" id="Fill-60" fill="#BE965A" mask="url(#mask-6)"/>
        <path d="M89.4171,87.8354788 C89.0836,91.4528919 88.9586,98.0768687 88.9701,99.440112 C91.1051,100.069533 99.0771,99.0486062 101.0116,98.5958649 C101.7831,97.4313861 103.1766,91.538722 103.8911,87.8354788 L89.4171,87.8354788 Z" id="Fill-61" fill="#F0E6D2" mask="url(#mask-6)"/>
        <polygon id="Fill-62" fill="#F01446" mask="url(#mask-6)" points="86.24525 116.137232 86.01525 117.617425 101.67925 117.525069 101.92425 116.283795 92.83325 114.472328"/>
        <path d="M102.7538,95.792834 C102.7538,95.792834 99.0873,95.8344942 95.4008,95.8786641 C91.8153,95.9213282 88.2113,95.9654981 87.9453,95.9755367 C87.7063,99.0408263 86.2453,116.137081 86.2453,116.137081 C86.2453,116.137081 100.7238,116.188278 101.9243,116.284147 C101.9833,116.080363 102.0293,115.922757 102.0658,115.797776 C101.1548,114.792409 99.0713,115.308896 97.8748,114.8421 C98.4713,112.861483 101.7048,101.193606 102.7538,95.792834" id="Fill-63" fill="#000000" mask="url(#mask-6)"/>
        <path d="M96.0758,101.02832 C96.0758,103.160521 94.3538,104.88917 92.2298,104.88917 C90.1058,104.88917 88.3838,103.160521 88.3838,101.02832 C88.3838,98.8961197 90.1058,97.167973 92.2298,97.167973 C94.3538,97.167973 96.0758,98.8961197 96.0758,101.02832" id="Fill-64" fill="#F01446" mask="url(#mask-6)"/>
        <path d="M94.05455,101.02832 C94.05455,102.040212 93.23755,102.860367 92.23005,102.860367 C91.22205,102.860367 90.40505,102.040212 90.40505,101.02832 C90.40505,100.016429 91.22205,99.1967761 92.23005,99.1967761 C93.23755,99.1967761 94.05455,100.016429 94.05455,101.02832" id="Fill-65" fill="#780046" mask="url(#mask-6)"/>
        <path d="M101.57825,97.6135869 C101.57825,98.0377181 101.23575,98.3815405 100.81325,98.3815405 C100.39075,98.3815405 100.04825,98.0377181 100.04825,97.6135869 C100.04825,97.1894556 100.39075,96.8456332 100.81325,96.8456332 C101.23575,96.8456332 101.57825,97.1894556 101.57825,97.6135869" id="Fill-66" fill="#780046" mask="url(#mask-6)"/>
        <path d="M100.7489,100.624166 C100.7489,101.048297 100.4064,101.39212 99.9839,101.39212 C99.5614,101.39212 99.2184,101.048297 99.2184,100.624166 C99.2184,100.200035 99.5614,99.8562124 99.9839,99.8562124 C100.4064,99.8562124 100.7489,100.200035 100.7489,100.624166" id="Fill-67" fill="#780046" mask="url(#mask-6)"/>
        <path d="M100.04675,103.763189 C100.04675,104.18732 99.70425,104.531143 99.28175,104.531143 C98.85925,104.531143 98.51675,104.18732 98.51675,103.763189 C98.51675,103.339058 98.85925,102.995236 99.28175,102.995236 C99.70425,102.995236 100.04675,103.339058 100.04675,103.763189" id="Fill-68" fill="#780046" mask="url(#mask-6)"/>
        <path d="M99.28115,106.389792 C99.28115,106.813923 98.93865,107.157745 98.51615,107.157745 C98.09365,107.157745 97.75115,106.813923 97.75115,106.389792 C97.75115,105.96566 98.09365,105.621838 98.51615,105.621838 C98.93865,105.621838 99.28115,105.96566 99.28115,106.389792" id="Fill-69" fill="#780046" mask="url(#mask-6)"/>
        <path d="M98.57925,109.144286 C98.57925,109.568417 98.23675,109.912239 97.81425,109.912239 C97.39175,109.912239 97.04875,109.568417 97.04875,109.144286 C97.04875,108.720154 97.39175,108.376332 97.81425,108.376332 C98.23675,108.376332 98.57925,108.720154 98.57925,109.144286" id="Fill-70" fill="#780046" mask="url(#mask-6)"/>
        <path d="M97.81335,112.026923 C97.81335,112.451054 97.47085,112.794876 97.04835,112.794876 C96.62585,112.794876 96.28335,112.451054 96.28335,112.026923 C96.28335,111.602792 96.62585,111.258969 97.04835,111.258969 C97.47085,111.258969 97.81335,111.602792 97.81335,112.026923" id="Fill-71" fill="#780046" mask="url(#mask-6)"/>
        <path d="M79.76845,89.987305 C78.70995,90.059583 68.77545,89.7970734 68.45595,89.7478842 C68.02095,87.2246795 65.82545,80.0867259 65.99345,75.3469961 C66.09345,72.5331737 66.85995,69.6696602 68.51995,68.097112 C69.51645,67.1539846 70.83395,66.6756448 72.52245,66.9512046 C76.88645,67.6649498 78.29145,74.1609344 78.84745,77.8646795 C79.37795,81.3992741 79.32045,86.4798147 79.76845,89.987305" id="Fill-72" fill="#BE965A" mask="url(#mask-6)"/>
        <path d="M67.2887,87.8354788 C67.7297,90.7421583 68.4707,95.6756332 68.7262,97.6908842 C71.8082,98.7348996 77.9892,98.4031236 81.1702,97.7109614 C81.5842,96.5866371 80.6512,90.5554402 80.2352,87.8354788 L67.2887,87.8354788 Z" id="Fill-73" fill="#F0E6D2" mask="url(#mask-6)"/>
        <polygon id="Fill-74" fill="#F01446" mask="url(#mask-6)" points="83.90465 116.137232 84.13515 117.617425 68.47065 117.525069 68.22565 116.283795 77.31665 114.472328"/>
        <path d="M67.39635,95.792834 C67.39635,95.792834 71.06285,95.8344942 74.74935,95.8786641 C78.33485,95.9213282 81.93885,95.9654981 82.20485,95.9755367 C82.44385,99.0408263 83.90485,116.137081 83.90485,116.137081 C83.90485,116.137081 69.42585,116.188278 68.22585,116.284147 C68.16685,116.080363 68.12035,115.922757 68.08385,115.797776 C68.99535,114.792409 71.07885,115.308896 72.27535,114.8421 C71.67885,112.861483 68.56235,101.830054 67.39635,95.792834" id="Fill-75" fill="#000000" mask="url(#mask-6)"/>
        <path d="M74.07435,101.02832 C74.07435,103.160521 75.79585,104.88917 77.91985,104.88917 C80.04385,104.88917 81.76585,103.160521 81.76585,101.02832 C81.76585,98.8961197 80.04385,97.167973 77.91985,97.167973 C75.79585,97.167973 74.07435,98.8961197 74.07435,101.02832" id="Fill-76" fill="#F01446" mask="url(#mask-6)"/>
        <path d="M76.09535,101.02832 C76.09535,102.040212 76.91235,102.860367 77.91985,102.860367 C78.92785,102.860367 79.74485,102.040212 79.74485,101.02832 C79.74485,100.016429 78.92785,99.1967761 77.91985,99.1967761 C76.91235,99.1967761 76.09535,100.016429 76.09535,101.02832" id="Fill-77" fill="#780046" mask="url(#mask-6)"/>
        <path d="M68.57165,97.6135869 C68.57165,98.0377181 68.91415,98.3815405 69.33665,98.3815405 C69.75915,98.3815405 70.10165,98.0377181 70.10165,97.6135869 C70.10165,97.1894556 69.75915,96.8456332 69.33665,96.8456332 C68.91415,96.8456332 68.57165,97.1894556 68.57165,97.6135869" id="Fill-78" fill="#780046" mask="url(#mask-6)"/>
        <path d="M69.40125,100.624166 C69.40125,101.048297 69.74375,101.39212 70.16625,101.39212 C70.58875,101.39212 70.93125,101.048297 70.93125,100.624166 C70.93125,100.200035 70.58875,99.8562124 70.16625,99.8562124 C69.74375,99.8562124 69.40125,100.200035 69.40125,100.624166" id="Fill-79" fill="#780046" mask="url(#mask-6)"/>
        <path d="M70.10315,103.763189 C70.10315,104.18732 70.44565,104.531143 70.86815,104.531143 C71.29065,104.531143 71.63315,104.18732 71.63315,103.763189 C71.63315,103.339058 71.29065,102.995236 70.86815,102.995236 C70.44565,102.995236 70.10315,103.339058 70.10315,103.763189" id="Fill-80" fill="#780046" mask="url(#mask-6)"/>
        <path d="M70.86905,106.389792 C70.86905,106.813923 71.21155,107.157745 71.63405,107.157745 C72.05655,107.157745 72.39905,106.813923 72.39905,106.389792 C72.39905,105.96566 72.05655,105.621838 71.63405,105.621838 C71.21155,105.621838 70.86905,105.96566 70.86905,106.389792" id="Fill-81" fill="#780046" mask="url(#mask-6)"/>
        <path d="M71.57095,109.144286 C71.57095,109.568417 71.91345,109.912239 72.33595,109.912239 C72.75845,109.912239 73.10095,109.568417 73.10095,109.144286 C73.10095,108.720154 72.75845,108.376332 72.33595,108.376332 C71.91345,108.376332 71.57095,108.720154 71.57095,109.144286" id="Fill-82" fill="#780046" mask="url(#mask-6)"/>
        <path d="M72.33655,112.026923 C72.33655,112.451054 72.67905,112.794876 73.10155,112.794876 C73.52405,112.794876 73.86705,112.451054 73.86705,112.026923 C73.86705,111.602792 73.52405,111.258969 73.10155,111.258969 C72.67905,111.258969 72.33655,111.602792 72.33655,112.026923" id="Fill-83" fill="#780046" mask="url(#mask-6)"/>
        <polygon id="Fill-84" fill="#64645A" mask="url(#mask-6)" points="81.359 82.7256757 89.066 82.7256757 89.066 76.6814286 81.359 76.6814286"/>
        <path d="M92.85025,28.1175444 C92.85025,28.1175444 93.45725,26.069166 95.88525,27.1573514 C98.31325,28.2455367 96.70325,30.6658456 96.11275,31.5738378 C95.38675,32.6901313 93.99775,33.046 92.63375,33.4254595 C92.81725,31.3329112 92.85025,28.1175444 92.85025,28.1175444" id="Fill-85" fill="#A0783C" mask="url(#mask-6)"/>
        <path d="M78.922,33.3032394 C77.558,32.9237799 76.169,32.5679112 75.443,31.4516178 C74.8525,30.5431236 73.2425,28.1233166 75.6705,27.0351313 C78.0985,25.9469459 78.7055,27.9953243 78.7055,27.9953243 C78.7055,27.9953243 78.7385,31.2106911 78.922,33.3032394" id="Fill-86" fill="#A0783C" mask="url(#mask-6)"/>
        <path d="M93.42495,27.1051004 C93.01595,23.8069151 91.98895,21.1240965 91.98895,21.1240965 C91.98895,21.1240965 88.88495,19.300583 85.60795,19.0973012 C83.22245,18.9492317 80.51595,20.2587683 79.97095,20.8249459 C78.58795,22.261471 77.90745,24.5231699 77.87695,27.0604286 C77.99945,27.346529 78.09145,32.149 78.25095,33.5855251 C78.46945,35.5561042 78.85745,37.139695 79.97945,38.7985753 C82.35345,42.3090772 85.69545,42.8285753 89.59595,42.0059112 C90.83045,41.0201197 92.03595,40.1743668 92.78795,38.7313166 C93.52195,37.3213938 93.71995,29.4822432 93.42495,27.1051004" id="Fill-87" fill="#BE965A" mask="url(#mask-6)"/>
        <path d="M87.6603,22.2896795 L82.6848,25.7404517 C82.6848,25.7404517 89.8923,28.1627683 91.9888,21.1241969 L87.6603,22.2896795 Z" id="Fill-88" fill="#000000" mask="url(#mask-6)"/>
        <path d="M89.0802,23.4295637 L93.4552,27.2969382 C93.4552,27.2969382 94.0537,23.8993707 91.9887,21.1241969 L89.0802,23.4295637 Z" id="Fill-89" fill="#000000" mask="url(#mask-6)"/>
        <path d="M86.16735,34.1620425 C85.10485,34.1620425 84.46735,34.0832394 84.01235,35.6221583 C84.03385,36.3986448 85.08835,37.1836641 86.11035,37.1430077 C87.13235,37.1028533 88.12235,36.2370232 88.12235,35.5067143 C88.12235,34.0455946 87.22985,34.1620425 86.16735,34.1620425" id="Fill-90" fill="#000000" mask="url(#mask-6)"/>
        <path d="M89.21765,29.3422046 C88.92015,28.5100039 88.40315,27.1161429 87.82315,26.3446757 C86.65665,26.9946757 85.99265,29.3913938 86.66965,30.4911236 C86.83715,30.7631699 87.60165,31.5752934 88.86515,30.9784981 C89.31115,30.7676873 89.40365,29.8617027 89.21765,29.3422046" id="Fill-91" fill="#A0783C" mask="url(#mask-6)"/>
        <path d="M92.1256,26.8541351 C92.3441,27.5603514 92.3836,28.0999266 91.8891,28.6023591 C91.0791,28.2033243 91.3486,27.5307375 91.3326,26.8541351 L92.1256,26.8541351 Z" id="Fill-92" fill="#000000" mask="url(#mask-6)"/>
        <path d="M84.9203,28.529027 C84.3563,28.36339 84.3563,28.36339 84.0888,27.7645869 C84.1943,27.5879073 84.3158,27.3856293 84.4533,27.1557452 C84.6518,27.19339 84.8148,27.2245097 84.9843,27.2571351 C85.1978,27.6933127 85.2378,28.0808031 84.9203,28.529027" id="Fill-93" fill="#000000" mask="url(#mask-6)"/>
        <path d="M91.9889,21.1243475 C91.9889,21.1243475 92.4134,21.2709112 87.7284,22.7305251 C83.0439,24.1896371 77.8459,27.3146564 77.8459,27.3146564 C77.1969,25.0655058 76.8844,20.7187876 80.7614,17.8808726 C81.4294,17.3919923 85.0704,16.1989035 87.9504,17.2323784 C90.2599,18.0610656 91.9889,21.1243475 91.9889,21.1243475" id="Fill-94" fill="#000000" mask="url(#mask-6)"/>
      </g>
    </g>
  </g>
</svg>