<svg width="308px" height="215px" viewBox="0 0 308 215" version="1.1" xml:space="preserve" xmlns="http://www.w3.org/2000/svg" xmlns:xlink="http://www.w3.org/1999/xlink">
  <defs/>
  <g>
    <title>frank-b</title>
    <desc>Created with Sketch.</desc>
    <g id="frank-b" stroke="none" stroke-width="1" fill="none" fill-rule="evenodd">
      <path d="M95.6237548,145.789573 L95.6237548,151.78673 C91.7249042,151.543602 86.1203065,151.057346 85.2268199,148.869194 C88.8007663,147.896682 92.2122605,146.924171 95.6237548,145.789573 Z" id="Shape" fill="#82783C" fill-rule="nonzero"/>
      <path d="M80.759387,137.118009 C80.9218391,138.495735 81.2467433,139.792417 81.8965517,141.008057 L50.1371648,141.008057 C48.9187739,133.714218 50.6245211,124.475355 52.8988506,116.695261 C55.4168582,108.42891 62.8084291,99.6763033 62.8084291,99.6763033 L92.862069,104.700948 C92.943295,104.619905 80.0283525,129.986256 80.759387,137.118009 Z" id="Shape" fill="#A0AA1E" fill-rule="nonzero"/>
      <path d="M99.1977011,72.2838863 L107.076628,101.459242 L90.8314176,115.965877 L55.4168582,106.321801 C55.4168582,106.321801 63.3770115,91.1668246 76.291954,83.7109005 C84.9019157,78.7672986 96.9233716,73.0943128 99.1977011,72.2838863 Z" id="Shape" fill="#824600" fill-rule="nonzero"/>
      <path d="M213.888889,143.520379 L213.888889,149.517536 C217.787739,149.274408 223.311111,148.788152 224.285824,146.6 C220.711877,145.627488 217.300383,144.654976 213.888889,143.520379 Z" id="Shape" fill="#82783C" fill-rule="nonzero"/>
      <path d="M229.565517,135.497156 C229.403065,136.874882 229.078161,138.171564 228.428352,139.387204 L260.187739,139.387204 C261.40613,132.093365 260.675096,123.09763 258.644444,115.236493 C255.801533,103.971564 239.312644,92.3824645 239.312644,92.3824645 L216.975479,109.806635 C216.975479,109.725592 230.296552,128.365403 229.565517,135.497156 Z" id="Shape" fill="#A0AA1E" fill-rule="nonzero"/>
      <path d="M210.314943,72.2838863 L202.436015,101.459242 L214.701149,114.912322 L253.852107,103.809479 C253.852107,103.809479 246.135632,91.2478673 233.22069,83.7919431 C224.529502,78.7672986 212.589272,73.0943128 210.314943,72.2838863 Z" id="Shape" fill="#824600" fill-rule="nonzero"/>
      <path d="M185.216092,187.688626 L210.071264,191.49763 C210.071264,191.902844 206.334866,213.78436 206.334866,213.78436 L216.163218,213.946445 C216.163218,213.946445 216.081992,214.594787 216.000766,214.837915 C212.751724,214.918957 184.485057,214.756872 184.485057,214.756872 C184.485057,214.756872 185.05364,188.174882 185.216092,187.688626 Z" id="Shape" fill="#A0AA1E" fill-rule="nonzero"/>
      <path d="M214.051341,202.843602 C214.213793,199.926066 214.051341,196.846445 214.295019,194.009953 C214.701149,189.633649 216.650575,169.291943 216.32567,167.022749 L177.174713,150.165877 C177.174713,152.354028 177.012261,189.471564 178.555556,202.924645 L214.051341,202.843602 Z" id="Shape" fill="#005A5A" fill-rule="nonzero"/>
      <rect id="Rectangle-path" fill="#006482" fill-rule="nonzero" x="175.306513" y="196.765403" width="41.8314176" height="13.3720379"/>
      <path d="M123.240613,187.688626 L98.3854406,191.49763 C98.3854406,191.902844 102.121839,213.78436 102.121839,213.78436 L92.2934866,213.946445 C92.2934866,213.946445 92.3747126,214.594787 92.4559387,214.837915 C95.7049808,214.918957 123.971648,214.756872 123.971648,214.756872 C123.971648,214.756872 123.321839,188.174882 123.240613,187.688626 Z" id="Shape" fill="#A0AA1E" fill-rule="nonzero"/>
      <path d="M128.682759,201.546919 L128.601533,158.432227 L93.1057471,168.643602 C93.1057471,168.643602 94.8114943,193.280569 96.9233716,201.627962 L128.682759,201.546919 Z" id="Shape" fill="#005A5A" fill-rule="nonzero"/>
      <rect id="Rectangle-path" fill="#006482" fill-rule="nonzero" x="92.0498084" y="198.386256" width="39.7195402" height="13.3720379"/>
      <path d="M173.438314,51.0507109 C170.83908,50.9696682 168.402299,52.1042654 166.94023,54.2113744 C165.234483,56.3995261 164.747126,63.0450237 172.463602,63.450237 C175.468966,63.6123223 179.936398,62.963981 179.936398,57.9393365 C179.936398,52.9146919 176.2,51.0507109 173.438314,51.0507109 Z" id="Shape" fill="#FFC800" fill-rule="nonzero"/>
      <path d="M175.225287,45.9450237 C167.590038,43.8379147 142.816092,44.8104265 137.373946,44.8914692 C132.256705,44.9725118 127.139464,43.756872 124.621456,48.9436019 C122.509579,53.3199052 121.128736,67.0971564 120.316475,74.3099526 L181.56092,74.0668246 C180.829885,67.5023697 177.255939,47.8900474 175.225287,45.9450237 Z" id="Shape" fill="#A0AA1E" fill-rule="nonzero"/>
      <path d="M179.28659,59.5601896 C179.28659,59.5601896 179.367816,59.5601896 179.367816,59.6412322 L179.28659,59.5601896 Z" id="Shape" fill="#A0AA1E" fill-rule="nonzero"/>
      <path d="M177.093487,58.1014218 C173.92567,59.1549763 163.772414,58.5876777 163.366284,58.2635071 C163.285057,54.8597156 163.122605,52.428436 169.945594,52.0232227 C176.768582,51.6180095 176.687356,54.535545 177.093487,58.1014218 Z" id="Shape" fill="#82783C" fill-rule="nonzero"/>
      <path d="M175.062835,55.5890995 C174.656705,55.5890995 174.250575,55.7511848 174.006897,56.0753555 C173.763218,56.3995261 173.763218,57.5341232 175.062835,57.6151659 C175.550192,57.6151659 176.2,57.5341232 176.2,56.7236967 C176.118774,56.1563981 175.712644,55.6701422 175.062835,55.5890995 C175.062835,55.5890995 175.062835,55.5890995 175.062835,55.5890995 Z" id="Shape" fill="#645A1E" fill-rule="nonzero"/>
      <path d="M167.021456,55.6701422 C166.615326,55.6701422 166.209195,55.8322275 165.965517,56.1563981 C165.721839,56.4805687 165.721839,57.6151659 167.021456,57.6962085 C167.508812,57.6962085 168.158621,57.6151659 168.158621,56.8047393 C168.239847,56.2374408 167.75249,55.6701422 167.183908,55.6701422 C167.102682,55.6701422 167.021456,55.6701422 167.021456,55.6701422 Z" id="Shape" fill="#645A1E" fill-rule="nonzero"/>
      <path d="M169.377011,60.6947867 C169.377011,60.6947867 172.382375,60.5327014 173.844444,60.6137441 C174.006897,61.0189573 174.088123,61.5052133 174.006897,61.9104265 C173.92567,61.9914692 173.92567,62.1535545 173.844444,62.1535545 C173.275862,62.1535545 169.62069,62.4777251 169.377011,61.9104265 C169.377011,61.5862559 169.377011,61.1 169.377011,60.6947867 Z" id="Shape" fill="#000000" fill-rule="nonzero"/>
      <path d="M182.129502,54.778673 C181.642146,54.778673 181.236015,55.1028436 180.992337,55.5080569 C180.748659,56.0753555 180.748659,57.6962085 182.048276,57.7772512 C182.535632,57.7772512 183.185441,57.6151659 183.185441,56.3995261 C183.185441,55.1838863 182.616858,54.778673 182.129502,54.778673 Z" id="Shape" fill="#000000" fill-rule="nonzero"/>
      <path d="M150.045211,55.2649289 C149.557854,55.2649289 149.151724,55.5890995 148.989272,55.9943128 C148.664368,56.4805687 148.745594,58.1824645 150.045211,58.2635071 C150.532567,58.2635071 151.182375,58.1014218 151.182375,56.885782 C151.182375,55.6701422 150.532567,55.2649289 150.045211,55.2649289 Z" id="Shape" fill="#000000" fill-rule="nonzero"/>
      <path d="M131.931801,56.3184834 L131.931801,58.4255924 C128.520307,58.5066351 123.240613,58.3445498 121.534866,58.3445498 L121.534866,56.2374408 C124.459004,56.2374408 129.007663,56.2374408 131.931801,56.3184834 Z" id="Shape" fill="#FAB414" fill-rule="nonzero"/>
      <path d="M122.753257,51.0507109 C120.154023,50.9696682 117.717241,52.1042654 116.255172,54.2113744 C114.549425,56.3995261 114.062069,63.0450237 121.697318,63.450237 C124.702682,63.6123223 129.170115,62.963981 129.170115,57.9393365 C129.170115,52.9146919 125.514943,51.0507109 122.753257,51.0507109 Z" id="Shape" fill="#FFC800" fill-rule="nonzero"/>
      <path d="M122.347126,55.5890995 C121.616092,55.5890995 120.966284,55.9132701 120.560153,56.4805687 C120.072797,57.0478673 119.991571,58.9118483 122.022222,58.992891 C122.834483,59.0739336 124.052874,58.8308057 124.052874,57.4530806 C124.1341,56.4805687 123.403065,55.6701422 122.428352,55.5890995 C122.428352,55.5890995 122.428352,55.5890995 122.347126,55.5890995 Z" id="Shape" fill="#FAB414" fill-rule="nonzero"/>
      <path d="M90.8314176,115.965877 L151.588506,139.630332 L214.701149,114.912322 C214.701149,114.912322 213.726437,97.3260664 212.751724,92.3014218 C212.670498,91.9772512 210.964751,73.8236967 210.721073,72.5270142 C204.710345,69.771564 186.434483,67.421327 186.434483,67.421327 L116.986207,67.5834123 C116.986207,67.5834123 108.619923,68.7990521 102.690421,70.9872038 C96.7609195,73.1753555 89.3693487,76.8222749 89.3693487,76.8222749 C89.3693487,76.8222749 89.0444444,91.0047393 89.4505747,98.2985782 C90.0191571,108.590995 90.8314176,115.965877 90.8314176,115.965877 Z" id="Shape" fill="#A0640A" fill-rule="nonzero"/>
      <path d="M151.91341,87.4388626 C135.505747,87.4388626 119.098084,87.6009479 119.098084,87.6009479 C119.098084,87.6009479 115.524138,87.8440758 115.442912,87.6009479 C110.894253,89.3028436 90.7501916,115.965877 90.7501916,115.965877 L93.0245211,168.562559 L151.91341,167.833175 L159.629885,122.206161 L151.91341,87.4388626 Z" id="Shape" fill="#008264" fill-rule="nonzero"/>
      <path d="M151.91341,167.833175 L216.32567,167.022749 L214.701149,114.912322 C214.701149,114.912322 192.688889,90.7616114 187.409195,87.8440758 C182.210728,87.5199052 166.859004,87.4388626 151.994636,87.4388626 L151.91341,167.833175 Z" id="Shape" fill="#00A08C" fill-rule="nonzero"/>
      <path d="M182.454406,65.6383886 L183.266667,101.945498 L191.064368,102.02654 C191.064368,102.02654 191.308046,73.985782 189.927203,65.6383886 L182.454406,65.6383886 Z" id="Shape" fill="#005A5A" fill-rule="nonzero"/>
      <path d="M187.327969,95.7052133 C186.434483,95.7052133 185.622222,96.1104265 185.05364,96.8398104 C184.485057,97.5691943 184.566284,100.000474 187.246743,100.081517 C188.302682,100.162559 189.602299,99.8383886 189.602299,98.1364929 C189.683525,96.9208531 188.708812,95.8672986 187.490421,95.7862559 C187.409195,95.7052133 187.327969,95.7052133 187.327969,95.7052133 Z" id="Shape" fill="#FFC800" fill-rule="nonzero"/>
      <path d="M112.19387,65.6383886 C110.813027,73.985782 111.056705,102.02654 111.056705,102.02654 L118.77318,101.945498 L119.585441,65.6383886 L112.19387,65.6383886 Z" id="Shape" fill="#005A5A" fill-rule="nonzero"/>
      <path d="M114.711877,95.7052133 C115.605364,95.7052133 116.417625,96.1104265 116.986207,96.8398104 C117.554789,97.5691943 117.473563,100.000474 114.793103,100.081517 C113.737165,100.162559 112.437548,99.8383886 112.437548,98.1364929 C112.356322,96.9208531 113.331034,95.8672986 114.549425,95.7862559 C114.549425,95.7052133 114.630651,95.7052133 114.711877,95.7052133 Z" id="Shape" fill="#FFC800" fill-rule="nonzero"/>
      <path d="M137.861303,107.21327 C136.561686,112.724171 138.836015,120.261137 142.166284,123.827014 C146.14636,126.74455 155.162452,127.06872 159.386207,124.637441 C164.25977,121.881991 165.559387,115.560664 165.478161,110.617062 C165.478161,109.482464 165.478161,108.347867 165.396935,107.21327 L137.861303,107.21327 Z" id="Shape" fill="#005A5A" fill-rule="nonzero"/>
      <rect id="Rectangle-path" fill="#006482" fill-rule="nonzero" x="135.911877" y="102.02654" width="31.1908046" height="8.75260664"/>
      <path d="M151.91341,104.45782 C151.019923,104.376777 150.126437,104.863033 149.557854,105.592417 C148.908046,106.402844 149.070498,108.834123 151.832184,108.996209 C152.969349,109.077251 154.187739,108.753081 154.187739,106.970142 C154.268966,105.67346 153.294253,104.538863 151.994636,104.45782 C151.994636,104.45782 151.91341,104.45782 151.91341,104.45782 Z" id="Shape" fill="#FAB414" fill-rule="nonzero"/>
      <path d="M229.809195,137.280095 C228.996935,138.576777 225.016858,144.979147 222.011494,146.437915 C214.538697,150.165877 204.141762,148.301896 203.735632,150.652133 C203.329502,153.00237 213.320307,151.705687 212.995402,153.650711 C212.670498,155.595735 200.161686,155.838863 200.08046,158.432227 C199.999234,161.025592 208.203065,159.080569 210.233716,160.701422 C210.233716,160.94455 210.314943,161.26872 210.396169,161.592891 C208.609195,162.970616 201.786207,164.024171 201.623755,165.23981 C201.461303,166.45545 202.354789,167.103791 207.0659,167.103791 C211.777011,167.103791 218.275096,166.860664 226.154023,166.860664 C234.03295,166.860664 251.902682,164.105213 258.888123,144.411848 C259.456705,142.709953 259.862835,141.008057 260.187739,139.306161 L229.809195,137.280095 Z" id="Shape" fill="#A0AA1E" fill-rule="nonzero"/>
      <path d="M80.5157088,138.900948 C81.3279693,140.19763 85.308046,146.6 88.31341,148.058768 C95.7862069,151.78673 106.183142,149.922749 106.589272,152.272986 C106.995402,154.623223 97.0045977,153.32654 97.3295019,155.271564 C97.6544061,157.216588 110.163218,157.378673 110.244444,160.053081 C110.32567,162.727488 102.121839,160.701422 100.091188,162.322275 C100.091188,162.565403 100.009962,162.889573 99.9287356,163.213744 C101.715709,164.591469 108.538697,165.645024 108.701149,166.860664 C108.863602,168.076303 107.970115,168.724645 103.259004,168.724645 C98.5478927,168.724645 92.0498084,168.481517 84.1708812,168.481517 C76.291954,168.481517 58.4222222,165.807109 51.4367816,146.113744 C50.8681992,144.411848 50.462069,142.709953 50.1371648,141.008057 L80.5157088,138.900948 Z" id="Shape" fill="#A0AA1E" fill-rule="nonzero"/>
    </g>
  </g>
</svg>