<svg version="1.1" width="536" height="408" viewBox="-1 -1 536 408" xmlns="http://www.w3.org/2000/svg" xmlns:xlink="http://www.w3.org/1999/xlink">
  <!-- Exported by Scratch - http://scratch.mit.edu/ -->
  <g id="ID0.3465839927084744" transform="matrix(1, 0, 0, 1, 0, 2)">
    <g id="haunted-forest">
      <path id="Rectangle-path" fill="#000000" stroke="none" stroke-width="1" d="M -29 -17 L 494 -17 L 494 377.467 L -29 377.467 L -29 -17 Z "/>
      <g id="Group-5">
        <path id="Shape" fill="#281446" stroke="none" stroke-width="1" d="M 468.716 112.306 C 462.328 100.066 440.808 101.560 429.195 100.372 C 425.190 97.972 421.863 95.356 420.032 90.958 C 418.327 86.866 418.045 82.198 414.772 78.886 C 410.233 74.290 402.301 73.930 396.296 73.402 C 378.943 71.866 361.470 71.476 344.057 71.146 C 310.048 70.492 275.606 69.946 241.639 71.146 C 229.630 71.584 226.417 79.156 220.905 88.426 C 214.985 98.386 206.008 101.818 194.930 103.372 C 181.648 105.232 143.147 105.904 153.853 129.706 C 163.028 150.106 190.378 153.490 209.863 153.478 C 220.455 153.478 233.082 151.246 242.846 156.442 C 251.300 160.942 254.176 171.442 263.225 175.222 C 268.629 177.448 274.687 177.076 280.386 177.112 C 287.993 177.166 295.607 177.076 303.203 177.178 C 318.160 177.388 333.099 178.186 348.056 178.540 C 360.197 178.822 374.812 180.634 386.437 176.248 C 392.622 173.914 396.014 169.558 399.647 164.248 C 403.850 158.080 407.759 157.582 414.058 154.648 L 427.147 154.696 C 427.377 155.019 427.641 155.317 427.934 155.584 C 428.030 155.248 428.138 154.984 428.222 154.696 C 440.597 154.738 461.367 159.208 469.713 147.346 C 476.798 137.374 474.024 122.458 468.716 112.306 Z " transform="matrix(1, 0, 0, 1, -34, -27)"/>
        <path id="Shape" fill="#281446" stroke="none" stroke-width="1" d="M 526.534 27.790 L 514.585 49.924 C 502.396 49.924 494.704 45.208 488.399 41.920 C 479.158 37.108 472.373 33.124 454.540 33.124 C 443.594 33.124 409.506 42.724 391.493 42.124 C 373.479 41.524 354.265 33.124 334.450 33.124 C 304.428 33.124 307.526 47.410 277.503 47.410 C 273.901 47.410 270.556 47.272 267.488 47.020 C 258.190 46.336 249.124 43.801 240.822 39.562 C 219.164 28.924 197.097 35.272 191.321 38.074 C 180.429 43.360 173.404 50.992 153.781 50.992 C 140.889 50.992 134.206 45.682 127.746 41.920 C 119.159 36.928 111.395 33.124 94.270 33.124 C 64.248 33.124 64.248 49.924 34.226 49.924 L 0 1.924 L 533.355 0.538 L 526.534 27.790 Z " transform="matrix(1, 0, 0, 1, -34, -27)"/>
        <path id="Shape" fill="#281446" stroke="none" stroke-width="1" d="M 194.545 13.600 C 207.035 61.660 279.665 53.026 318.112 56.554 C 341.253 58.672 364.659 61.600 387.836 59.800 C 472.553 53.200 533.013 36.550 534.400 16.600 C 534.580 14.038 495.256 17.272 495.370 13.600 L 194.545 13.600 Z " transform="matrix(1, 0, 0, 1, -34, -27)"/>
        <path id="Shape" fill="#281446" stroke="none" stroke-width="1" d="M 57.643 85.354 C 58.069 80.398 63.846 79.354 67.851 78.754 C 73.779 77.855 79.775 77.488 85.768 77.656 C 96.997 78.100 108.285 77.560 119.501 78.376 C 125.506 82.192 120.336 87.172 115.232 88.450 C 108.753 90.070 101.890 89.698 95.261 89.980 C 88.242 90.280 81.265 90.142 74.246 90.154 C 68.409 90.184 60.747 91.138 57.643 85.354 Z " transform="matrix(1, 0, 0, 1, -34, -27)"/>
        <path id="Shape" fill="#281446" stroke="none" stroke-width="1" d="M 182.536 51.754 C 182.963 46.798 188.739 45.754 192.744 45.154 C 198.672 44.255 204.668 43.888 210.662 44.056 C 221.890 44.500 233.178 43.960 244.395 44.776 C 250.399 48.592 245.229 53.572 240.126 54.850 C 233.647 56.470 226.784 56.098 220.155 56.380 C 213.135 56.680 206.158 56.542 199.139 56.554 C 193.303 56.584 185.641 57.538 182.536 51.754 Z " transform="matrix(1, 0, 0, 1, -34, -27)"/>
        <path id="Shape" fill="#281446" stroke="none" stroke-width="1" d="M 55.902 120.262 C 56.814 109.750 69.064 107.518 77.608 106.306 C 90.109 104.506 102.995 103.480 115.616 103.972 C 139.430 104.914 163.376 103.768 187.172 105.496 C 199.889 113.590 188.937 124.150 178.117 126.862 C 164.373 130.300 149.806 129.508 135.749 130.114 C 120.864 130.750 106.063 130.450 91.178 130.480 C 78.761 130.504 62.513 132.526 55.902 120.262 Z " transform="matrix(1, 0, 0, 1, -34, -27)"/>
        <path id="Shape" fill="#281446" stroke="none" stroke-width="1" d="M 457.032 82.930 C 457.470 75.328 462.862 73.672 466.639 72.730 C 472.139 71.392 469.311 71.896 479.795 72.028 C 487.360 72.118 489.612 86.938 483.650 88.492 C 477.483 90.100 479.050 90.064 472.511 90.142 C 467.041 90.238 459.890 91.768 457.032 82.930 Z " transform="matrix(1, 0, 0, 1, -34, -27)"/>
        <path id="Shape" fill="#281446" stroke="none" stroke-width="1" d="M 433.614 173.530 C 434.215 165.928 441.708 164.302 446.956 163.408 C 454.636 162.106 450.685 162.592 465.330 162.808 C 475.898 162.940 479.140 177.766 470.806 179.290 C 462.202 180.868 464.393 180.838 455.254 180.880 C 447.629 180.892 437.655 182.380 433.614 173.530 Z " transform="matrix(1, 0, 0, 1, -34, -27)"/>
      </g>
      <g id="Group-4">
        <path id="Shape" fill="#F0E6D2" stroke="none" stroke-width="1" d="M 0.112 0.200 C -0.140 7.148 1.619 13.766 5.264 18.800 C 16.180 33.860 43.620 38.564 59.394 19.478 C 64.546 13.250 66.600 6.626 66.636 0.200 L 0.112 0.200 Z " transform="matrix(1, 0, 0, 1, 46, -13)"/>
        <path id="Oval" fill="#DCD2B4" stroke="none" stroke-width="1" d="M 14.481 6.506 C 16.358 6.506 18.058 7.268 19.290 8.498 C 20.521 9.729 21.284 11.428 21.284 13.304 C 21.284 15.180 20.521 16.879 19.290 18.110 C 18.058 19.340 16.358 20.102 14.481 20.102 C 12.604 20.102 10.903 19.340 9.671 18.110 C 8.440 16.879 7.678 15.180 7.678 13.304 C 7.678 11.428 8.440 9.729 9.671 8.498 C 10.903 7.268 12.604 6.506 14.481 6.506 Z " transform="matrix(1, 0, 0, 1, 46, -13)"/>
        <path id="Oval" fill="#DCD2B4" stroke="none" stroke-width="1" d="M 28.249 18.566 C 28.941 18.566 29.569 18.847 30.023 19.301 C 30.478 19.755 30.759 20.382 30.759 21.074 C 30.759 21.766 30.478 22.393 30.023 22.847 C 29.569 23.301 28.941 23.582 28.249 23.582 C 27.556 23.582 26.929 23.301 26.475 22.847 C 26.020 22.393 25.739 21.766 25.739 21.074 C 25.739 20.382 26.020 19.755 26.475 19.301 C 26.929 18.847 27.556 18.566 28.249 18.566 Z " transform="matrix(1, 0, 0, 1, 46, -13)"/>
        <path id="Oval" fill="#DCD2B4" stroke="none" stroke-width="1" d="M 55.792 10.958 C 56.484 10.958 57.111 11.239 57.566 11.693 C 58.020 12.147 58.301 12.774 58.301 13.466 C 58.301 14.158 58.020 14.785 57.566 15.239 C 57.111 15.693 56.484 15.974 55.792 15.974 C 55.099 15.974 54.472 15.693 54.017 15.239 C 53.563 14.785 53.282 14.158 53.282 13.466 C 53.282 12.774 53.563 12.147 54.017 11.693 C 54.472 11.239 55.099 10.958 55.792 10.958 Z " transform="matrix(1, 0, 0, 1, 46, -13)"/>
      </g>
      <path id="Shape" fill="#460A00" stroke="none" stroke-width="1" d="M 251.814 -6.848 C 251.033 43.432 250.829 181.342 251.856 182.344 C 252.949 182.332 254.033 182.129 255.056 181.744 C 255.657 173.344 256.197 44.842 256.095 -7.616 L 251.814 -6.848 Z "/>
      <path id="Shape" fill="#460A00" stroke="none" stroke-width="1" d="M 148.032 -21.248 C 146.705 29.032 146.357 166.942 148.098 167.944 C 149.916 167.934 151.727 167.733 153.502 167.344 C 154.535 158.944 155.436 30.442 155.268 -22.016 L 148.032 -21.248 Z "/>
      <g id="Group-8">
        <path id="Shape" fill="#463C00" stroke="none" stroke-width="1" d="M 526.534 23.334 L 514.585 1.200 C 502.396 1.200 494.704 5.916 488.399 9.204 C 479.158 14.016 472.373 18 454.540 18 C 443.594 18 409.506 8.400 391.493 9 C 373.479 9.600 354.265 18 334.450 18 C 304.428 18 307.526 3.714 277.503 3.714 C 273.901 3.714 270.556 3.852 267.488 4.110 C 258.191 4.792 249.124 7.326 240.822 11.562 C 219.170 22.200 197.103 15.858 191.327 13.056 C 180.435 7.770 173.410 0.138 153.787 0.138 C 140.895 0.138 134.212 5.448 127.752 9.204 C 119.159 14.202 111.395 18 94.270 18 C 64.248 18 64.248 1.200 34.226 1.200 L 0 49.200 L 533.355 50.592 L 526.534 23.334 Z " transform="matrix(1, 0, 0, 1, -34, 130)"/>
        <path id="Shape" fill="#322800" stroke="none" stroke-width="1" d="M 268.401 48.480 C 268.487 46.771 268.185 45.064 267.518 43.488 C 267.284 42.936 266.918 42.444 266.713 41.886 C 263.711 34.602 258.049 31.938 251.486 31.374 C 247.781 31.056 244.088 31.920 240.498 33.324 C 233.431 36.090 229.347 41.346 227.444 48.480 L 268.401 48.480 Z " transform="matrix(1, 0, 0, 1, -34, 130)"/>
        <path id="Shape" fill="#322800" stroke="none" stroke-width="1" d="M 199.295 49.080 C 199.505 47.418 198.815 45.702 197.127 44.088 C 196.527 43.536 195.710 43.044 195.152 42.486 C 187.736 35.202 173.782 32.538 157.612 31.974 C 148.543 31.756 139.475 32.409 130.532 33.924 C 113.119 36.690 103.043 41.946 98.354 49.080 L 199.295 49.080 Z " transform="matrix(1, 0, 0, 1, -34, 130)"/>
      </g>
      <g id="Group-3">
        <path id="Shape" fill="#460A00" stroke="none" stroke-width="1" d="M 47.167 1.640 C 46.374 1.352 45.538 1.200 44.693 1.190 C 43.913 4.556 44.447 8.234 44.249 11.678 C 44.015 15.764 44.129 19.850 44.021 23.942 C 43.829 32.032 42.874 40.085 41.169 47.996 C 39.611 54.977 37.299 61.769 34.276 68.252 L 35.266 77.342 C 35.663 76.586 36.065 75.824 36.467 75.074 C 40.496 67.838 42.850 59.294 43.919 51.122 C 44.988 42.950 45.720 34.922 46.663 26.864 C 47.600 18.992 48.584 9.476 47.167 1.640 Z " transform="matrix(1, 0, 0, 1, 362, -16)"/>
        <path id="Shape" fill="#824600" stroke="none" stroke-width="1" d="M 0.789 34.964 C 1.568 34.641 2.396 34.450 3.238 34.400 C 4.163 37.730 3.785 41.432 4.133 44.864 C 4.547 48.938 4.602 53.024 4.890 57.104 C 5.428 65.180 6.729 73.188 8.775 81.020 C 10.672 88.081 13.344 94.910 16.743 101.384 C 18.544 104.924 20.766 108.218 22.747 111.644 C 24.729 115.070 26.050 118.640 28.151 121.970 C 28.151 123.170 28.674 124.418 28.151 125.846 C 25.833 123.158 23.233 120.698 21.000 117.950 C 18.478 114.842 16.707 111.260 14.623 107.870 C 10.282 100.814 7.568 92.378 6.145 84.254 C 4.722 76.130 3.659 68.162 2.368 60.140 C 1.101 52.316 -0.304 42.854 0.789 34.964 Z " transform="matrix(1, 0, 0, 1, 362, -16)"/>
        <path id="Shape" fill="#642800" stroke="none" stroke-width="1" d="M 27.791 191.456 C 28.992 191.660 37.206 190.544 38.629 190.406 C 39.428 180.026 39.115 169.406 39.169 158.948 C 39.217 148.646 39.578 138.320 39.452 128.006 C 39.109 100.802 37.974 73.658 38.401 46.436 C 38.575 35.636 38.785 24.896 38.971 14.132 C 39.025 10.748 39.109 7.370 39.109 3.992 C 39.109 2.690 39.109 1.388 39.073 0.086 L 29.910 1.082 L 27.791 191.456 Z " transform="matrix(1, 0, 0, 1, 362, -16)"/>
        <path id="Shape" fill="#824600" stroke="none" stroke-width="1" d="M 27.413 1.352 C 26.086 51.632 25.737 189.542 27.479 190.544 C 29.306 190.536 31.128 190.335 32.913 189.944 C 33.945 181.544 34.846 53.042 34.678 0.584 L 27.413 1.352 Z " transform="matrix(1, 0, 0, 1, 362, -16)"/>
      </g>
      <g id="Group-2">
        <path id="Shape" fill="#460A00" stroke="none" stroke-width="1" d="M 114.120 52.414 L 115.321 56.014 C 116.222 55.390 116.996 54.599 117.602 53.686 C 119.548 50.902 121.445 48.094 123.355 45.286 C 124.616 43.438 125.875 41.586 127.132 39.730 C 127.336 39.430 127.552 39.130 127.732 38.830 C 130.218 34.882 132.764 30.976 135.148 26.968 C 136.853 24.112 138.330 21.118 139.897 18.184 C 139.945 18.094 139.897 17.950 139.897 17.686 C 139.589 17.608 139.271 17.579 138.954 17.602 C 138.192 17.776 137.447 18.040 136.637 18.286 C 135.228 19.770 133.978 21.397 132.908 23.140 C 131.305 25.498 129.671 27.826 128.104 30.190 C 127.426 31.192 126.825 32.242 126.183 33.274 C 124.526 35.950 122.982 38.704 121.169 41.272 C 119.506 43.600 118.221 46.042 116.714 48.400 L 114.120 52.414 Z " transform="matrix(1, 0, 0, 1, 55, -18)"/>
        <path id="Shape" fill="#460A00" stroke="none" stroke-width="1" d="M 142.953 107.272 C 146.070 107.914 149.180 108.586 152.296 109.228 C 152.766 109.287 153.240 109.317 153.713 109.318 C 153.407 108.442 153.173 107.776 152.909 107.038 C 152.242 106.852 151.612 106.642 150.969 106.510 C 149.606 106.222 148.231 105.976 146.862 105.724 L 142.773 104.956 C 142.773 105.730 142.869 106.498 142.953 107.272 Z " transform="matrix(1, 0, 0, 1, 55, -18)"/>
        <path id="Shape" fill="#460A00" stroke="none" stroke-width="1" d="M 122.040 101.740 C 121.750 102.058 121.493 102.404 121.271 102.772 C 120.455 104.794 119.740 106.864 118.869 108.850 C 118.154 110.454 117.569 112.113 117.122 113.812 C 116.870 114.754 116.552 115.678 116.221 116.596 C 116.984 116.596 117.753 116.656 118.515 116.722 C 118.641 116.338 118.773 115.966 118.893 115.582 C 119.728 112.924 120.509 110.248 121.295 107.572 C 121.589 106.588 121.896 105.610 122.166 104.608 C 122.438 103.664 122.394 102.657 122.040 101.740 Z " transform="matrix(1, 0, 0, 1, 55, -18)"/>
        <path id="Shape" fill="#642800" stroke="none" stroke-width="1" d="M 151.720 87.160 C 150.188 86.415 148.450 86.204 146.784 86.560 C 146.652 87.298 146.484 87.946 146.418 88.606 C 146.106 91.688 145.233 94.687 143.842 97.456 C 142.233 100.702 140.299 103.654 137.387 105.886 C 137.197 106.037 137.017 106.199 136.847 106.372 C 133.986 109.102 130.584 111.203 126.861 112.540 C 125.385 113.096 123.840 113.447 122.268 113.584 C 120.401 113.716 118.545 114.040 116.864 114.250 C 116.076 114.693 115.197 114.950 114.294 115 C 111.946 115.420 109.917 115.774 107.893 116.164 C 107.298 116.284 106.714 116.453 106.146 116.668 C 105.005 117.088 103.858 117.484 102.759 118 C 98.923 119.800 95.116 121.654 91.669 124.210 C 89.477 125.842 79.858 137.212 79.852 138.166 L 81.227 155.326 C 81.473 154.918 87.946 143.926 88.985 142.240 C 91.595 138.111 94.823 134.406 98.556 131.254 C 99.979 130.024 101.474 128.890 102.952 127.732 C 105.827 125.478 109.080 123.752 112.559 122.632 C 115.399 121.750 118.333 121.202 121.301 121 C 123.703 120.784 126.135 120.568 128.543 120.274 C 132.614 119.782 136.222 118.030 139.627 115.882 C 143.109 113.622 145.941 110.493 147.841 106.804 C 149.967 102.868 151.600 98.788 151.690 94.204 C 151.690 93.784 151.816 93.364 151.840 92.944 C 151.918 91.492 152.020 90.040 152.032 88.594 C 151.984 88.105 151.880 87.624 151.720 87.160 Z " transform="matrix(1, 0, 0, 1, 55, -18)"/>
        <path id="Shape" fill="#642800" stroke="none" stroke-width="1" d="M 111.436 12.904 C 113.712 12.538 117.212 14.140 119.488 14.488 C 120.136 19.402 121.655 31.636 120.467 40.978 C 118.821 53.848 114.462 70.234 110.481 75.808 C 104.032 84.808 91.981 92.680 80.963 94.222 C 80.507 91.636 81.359 89.200 81.155 86.644 C 83.359 85.738 85.749 85.588 87.934 84.568 C 90.120 83.548 91.879 82.132 93.813 80.842 C 97.433 78.538 100.487 75.447 102.747 71.800 C 105.521 67.372 109.623 56.878 111.460 47.524 C 113.393 37.690 111.286 18.346 111.436 12.904 Z " transform="matrix(1, 0, 0, 1, 55, -18)"/>
        <path id="Shape" fill="#642800" stroke="none" stroke-width="1" d="M 8.411 108.562 C 8.100 107.819 8.309 106.960 8.927 106.444 C 10.398 106.834 11.929 107.188 13.413 107.644 C 15.214 108.196 16.961 108.874 18.763 109.444 C 19.741 109.744 20.774 109.870 21.765 110.122 C 22.756 110.374 23.764 110.626 24.767 110.950 C 25.749 111.203 26.381 112.156 26.232 113.158 C 25.632 113.584 25.031 113.302 24.431 113.158 C 22.830 112.810 21.228 112.450 19.627 112.078 C 19.031 111.964 18.446 111.795 17.880 111.574 C 16.415 110.837 14.875 110.260 13.286 109.852 C 11.713 109.528 10.152 109.036 8.411 108.562 Z " transform="matrix(1, 0, 0, 1, 55, -18)"/>
        <path id="Shape" fill="#642800" stroke="none" stroke-width="1" d="M 37.094 67.726 C 37.202 69.064 37.292 70.204 37.395 71.500 C 36.322 71.266 35.304 70.833 34.392 70.222 C 31.540 68.392 28.712 66.520 25.878 64.660 L 20.258 60.964 C 19.951 60.766 19.657 60.574 19.345 60.364 C 15.544 57.664 11.695 55.024 7.936 52.234 C 5.270 50.242 2.761 48.034 0.191 45.928 C 0.113 45.862 0.101 45.712 0.005 45.466 C 0.260 45.275 0.544 45.125 0.845 45.022 C 1.620 44.896 2.412 44.854 3.247 44.770 C 5.116 45.605 6.893 46.633 8.549 47.836 C 10.951 49.402 13.353 50.932 15.700 52.510 C 16.709 53.176 17.670 53.920 18.654 54.628 C 21.212 56.464 23.692 58.426 26.346 60.106 C 28.712 61.606 30.844 63.394 33.131 64.984 L 37.094 67.726 Z " transform="matrix(1, 0, 0, 1, 55, -18)"/>
        <path id="Shape" fill="#642800" stroke="none" stroke-width="1" d="M 43.549 144.604 C 44.624 144.334 45.693 144.904 46.635 145.312 C 50.039 146.689 53.290 148.418 56.333 150.472 C 59.218 152.613 62.275 154.513 65.471 156.154 C 65.840 156.369 66.194 156.609 66.528 156.874 C 66.618 157.654 65.928 157.618 65.399 157.432 C 63.845 156.967 62.328 156.388 60.860 155.698 C 55.768 153.106 50.947 150.016 46.059 147.064 C 45.056 146.458 43.981 145.828 43.549 144.604 Z " transform="matrix(1, 0, 0, 1, 55, -18)"/>
        <path id="Shape" fill="#642800" stroke="none" stroke-width="1" d="M 83.329 22.882 C 83.281 20.992 83.257 19.096 83.149 17.200 C 82.927 13.036 83.839 7.552 82.548 3.580 C 80.188 2.452 76.544 3.076 73.908 3.178 C 73.668 17.038 73.716 30.898 73.968 44.752 C 74.454 74.800 71.860 181 71.860 204.472 C 73.397 204.472 81.672 205.204 83.137 205.288 C 84.254 198.790 83.467 29.692 83.329 22.882 Z " transform="matrix(1, 0, 0, 1, 55, -18)"/>
        <path id="Shape" fill="#824600" stroke="none" stroke-width="1" d="M 63.856 15.640 C 63.856 16.456 63.796 17.266 63.802 18.076 C 63.802 19.828 63.802 21.586 63.844 23.338 C 63.898 30.430 64.024 199.138 64.823 204.286 C 68.966 205.198 77.829 204.520 77.829 204.520 C 77.829 204.520 79.222 67.162 78.663 16.054 L 63.856 15.640 Z " transform="matrix(1, 0, 0, 1, 55, -18)"/>
        <path id="Shape" fill="#824600" stroke="none" stroke-width="1" d="M 66.474 112.756 C 61.893 110.032 57.419 107.356 54.465 102.820 C 50.698 97.207 47.958 90.970 46.371 84.400 C 44.738 77.290 42.468 70.282 41.952 62.992 C 39.676 30.790 43.435 8.506 42.588 2.860 L 35.221 0.106 C 34.813 5.614 33.263 20.146 32.963 35.506 C 32.441 61.804 36.422 77.398 37.767 81.670 C 39.203 86.539 41.078 91.269 43.369 95.800 C 47.722 103.978 53.931 111.940 65.940 120.694 C 66.186 119.728 66.756 114.064 66.474 112.756 Z " transform="matrix(1, 0, 0, 1, 55, -18)"/>
        <path id="Shape" fill="#824600" stroke="none" stroke-width="1" d="M 66.432 136.846 C 66.981 139.273 67.331 141.742 67.477 144.226 C 65.171 145.474 53.841 140.386 51.799 139.336 C 48.330 137.528 45.113 135.275 42.228 132.634 C 13.869 107.224 16.163 93.712 15.406 86.044 L 17.273 84.244 L 18.895 84.100 C 20.180 86.560 20.522 89.500 21.441 92.098 C 22.441 94.906 23.597 97.657 24.905 100.336 C 27.444 105.573 30.717 110.422 34.626 114.736 C 38.433 118.936 42.210 123.178 46.347 127.048 C 51.013 131.416 60.386 134.986 66.432 136.846 Z " transform="matrix(1, 0, 0, 1, 55, -18)"/>
        <path id="Shape" fill="#642800" stroke="none" stroke-width="1" d="M 74.322 106.096 C 76.286 111.316 76.970 115.042 75.889 120.676 C 75.193 124.276 72.587 128.686 69.164 125.350 C 64.799 121.120 66.877 99.928 74.322 106.096 Z " transform="matrix(1, 0, 0, 1, 55, -18)"/>
      </g>
      <g id="Group-7">
        <path id="Shape" fill="#82783C" stroke="none" stroke-width="1" d="M 295.929 7.918 C 294.338 9.370 291.342 8.662 289.433 8.614 L 281.146 8.380 C 275.436 8.206 269.738 8.068 264.010 7.780 C 258.762 7.516 253.544 6.886 248.308 6.532 C 245.722 6.356 243.132 6.234 240.538 6.166 C 238.611 6.118 235.734 6.610 234.191 5.176 C 237.506 1.090 243.336 1.762 248.086 1.708 C 253.958 1.642 260.035 2.068 265.853 1.240 C 271.671 0.412 277.694 -0.254 283.656 0.238 C 289.805 0.748 292.417 3.076 295.929 7.918 Z " transform="matrix(1, 0, 0, 1, -15, 165)"/>
        <path id="Rectangle-path" fill="#645A1E" stroke="none" stroke-width="1" d="M 0.815 4.600 L 512.397 4.600 L 512.397 203.200 L 0.815 203.200 L 0.815 4.600 Z " transform="matrix(1, 0, 0, 1, -15, 165)"/>
        <path id="Shape" fill="#82783C" stroke="none" stroke-width="1" d="M 275.256 28.312 C 276.349 17.398 289.108 15.256 298.007 14.110 C 311.025 12.436 324.427 11.530 337.529 12.220 C 362.267 13.528 387.168 12.676 411.864 14.800 C 424.972 23.386 413.443 34.210 402.161 36.874 C 387.828 40.258 372.703 39.232 358.088 39.664 C 342.614 40.120 327.237 39.598 311.769 39.424 C 298.866 39.274 281.957 41.152 275.256 28.312 Z " transform="matrix(1, 0, 0, 1, -15, 165)"/>
        <path id="Shape" fill="#322800" stroke="none" stroke-width="1" d="M 358.082 101.200 C 358.193 98.990 357.803 96.783 356.941 94.744 C 356.641 94.030 356.203 93.388 355.902 92.674 C 352.017 83.248 344.698 79.804 336.214 79.078 C 331.410 78.664 326.642 79.780 322.007 81.598 C 312.868 85.198 307.596 91.966 305.122 101.200 L 358.082 101.200 Z " transform="matrix(1, 0, 0, 1, -15, 165)"/>
        <path id="Shape" fill="#463C00" stroke="none" stroke-width="1" d="M 292.633 110.200 C 292.744 107.990 292.354 105.783 291.492 103.744 C 291.192 103.030 290.754 102.388 290.453 101.674 C 286.568 92.248 279.249 88.804 270.765 88.078 C 265.961 87.664 261.193 88.780 256.558 90.598 C 247.419 94.198 242.147 100.966 239.673 110.200 L 292.633 110.200 Z " transform="matrix(1, 0, 0, 1, -15, 165)"/>
        <path id="Shape" fill="#463C00" stroke="none" stroke-width="1" d="M 182.937 102.604 C 169.727 106.276 157.322 105.172 143.782 104.950 C 137.390 104.879 131.043 103.868 124.946 101.950 C 119.662 100.330 113.375 99.952 109.646 95.350 C 104.626 83.638 137.603 85.318 142.599 85.288 C 149.990 85.252 157.328 86.086 164.635 87.088 C 172.261 88.162 179.791 88.360 187.416 89.050 L 188.755 92.824 C 188.251 97.204 186.444 100.294 182.937 102.604 Z " transform="matrix(1, 0, 0, 1, -15, 165)"/>
        <path id="Shape" fill="#82783C" stroke="none" stroke-width="1" d="M 50.652 20.554 C 51.078 15.598 56.855 14.554 60.860 13.954 C 66.787 13.055 72.784 12.688 78.777 12.856 C 90.005 13.300 101.294 12.760 112.510 13.576 C 118.515 17.392 113.345 22.372 108.241 23.650 C 101.762 25.270 94.899 24.898 88.270 25.180 C 81.251 25.480 74.274 25.342 67.254 25.354 C 61.418 25.384 53.756 26.338 50.652 20.554 Z " transform="matrix(1, 0, 0, 1, -15, 165)"/>
        <path id="Shape" fill="#645A1E" stroke="none" stroke-width="1" d="M 191.662 0.724 L 192.454 0.988 C 192.520 2.398 192.586 3.706 192.646 4.990 C 192.538 5.080 192.472 5.176 192.394 5.188 C 192.194 5.201 191.994 5.201 191.794 5.188 C 191.688 4.862 191.615 4.526 191.577 4.186 C 191.583 3.118 191.631 2.038 191.662 0.724 Z " transform="matrix(1, 0, 0, 1, -15, 165)"/>
        <path id="Shape" fill="#645A1E" stroke="none" stroke-width="1" d="M 189.548 5.050 C 189.344 4.810 189.140 4.678 189.128 4.534 C 189.055 3.828 189.020 3.119 189.026 2.410 C 189.076 2.017 189.163 1.629 189.284 1.252 L 189.956 1.600 C 190.118 4.252 190.118 4.252 189.548 5.050 Z " transform="matrix(1, 0, 0, 1, -15, 165)"/>
        <path id="Shape" fill="#645A1E" stroke="none" stroke-width="1" d="M 195.246 5.092 L 194.376 5.278 C 193.805 4.144 194.297 3.070 194.201 1.966 L 194.802 1.786 C 195.282 2.878 195.108 3.964 195.246 5.092 Z " transform="matrix(1, 0, 0, 1, -15, 165)"/>
        <path id="Shape" fill="#645A1E" stroke="none" stroke-width="1" d="M 99.288 6.682 C 99.084 6.442 98.880 6.316 98.862 6.172 C 98.791 5.466 98.759 4.757 98.766 4.048 C 98.814 3.652 98.900 3.263 99.024 2.884 L 99.697 3.238 C 99.889 5.890 99.889 5.890 99.288 6.682 Z " transform="matrix(1, 0, 0, 1, -15, 165)"/>
        <path id="Shape" fill="#645A1E" stroke="none" stroke-width="1" d="M 104.993 6.730 L 104.122 6.910 C 103.558 5.782 104.044 4.708 103.954 3.604 L 104.554 3.424 C 105.029 4.510 104.861 5.602 104.993 6.730 Z " transform="matrix(1, 0, 0, 1, -15, 165)"/>
        <path id="Shape" fill="#645A1E" stroke="none" stroke-width="1" d="M 483.696 6.604 L 483.011 6.334 C 483.125 4.534 483.432 2.776 483.185 0.892 L 484.032 0.706 C 484.060 2.677 483.948 4.648 483.696 6.604 Z " transform="matrix(1, 0, 0, 1, -15, 165)"/>
        <path id="Shape" fill="#645A1E" stroke="none" stroke-width="1" d="M 481.414 3.250 C 481.534 4.312 481.648 5.290 481.774 6.400 L 480.862 6.400 C 480.796 5.278 480.736 4.252 480.670 3.100 L 481.414 3.250 Z " transform="matrix(1, 0, 0, 1, -15, 165)"/>
      </g>
      <g id="Group">
        <path id="Shape" fill="#824600" stroke="none" stroke-width="1" d="M 80.171 137.016 C 81.300 138.750 84.501 142.146 84.416 144.216 C 79.793 145.530 73.290 144.744 68.673 143.658 C 64.055 142.572 58.999 141.174 54.736 139.200 C 44.463 134.400 37.065 126.690 30.220 117.840 C 23.615 109.356 18.631 100.482 13.113 91.368 C 10.639 87.288 8.562 82.752 6.418 78.492 C 4.671 75.012 0.083 69.492 0.414 65.508 C 1.057 64.440 2.080 63.654 3.278 63.306 C 5.079 65.586 6.022 68.646 7.481 71.184 C 8.820 73.518 10.081 75.756 11.204 78.204 C 13.690 83.604 17.557 88.302 20.048 93.720 C 22.450 95.598 24.095 98.910 25.861 101.352 C 27.626 103.794 29.463 106.290 31.355 108.726 C 35.312 113.922 39.347 118.746 44.745 122.526 C 55.703 130.200 66.979 134.928 80.171 137.016 Z " transform="matrix(1, 0, 0, 1, 230, -29)"/>
        <path id="Shape" fill="#642800" stroke="none" stroke-width="1" d="M 102.148 117.318 C 102.532 116.280 103.607 115.722 104.477 115.182 C 107.546 113.165 110.816 111.472 114.235 110.130 C 117.637 108.969 120.938 107.532 124.106 105.834 C 124.495 105.653 124.896 105.501 125.307 105.378 C 126.004 105.744 125.583 106.284 125.127 106.626 C 123.861 107.639 122.523 108.557 121.122 109.374 C 116.096 112.086 110.818 114.300 105.606 116.652 C 104.526 117.132 103.397 117.654 102.148 117.318 Z " transform="matrix(1, 0, 0, 1, 230, -29)"/>
        <path id="Shape" fill="#824600" stroke="none" stroke-width="1" d="M 116.384 71.766 C 117.219 78.030 115.742 84.966 114.823 91.194 C 113.879 98.198 112.318 105.105 110.158 111.834 C 105.955 124.332 99.314 139.542 88.391 147.648 C 87.899 145.638 88.716 143.340 88.872 141.306 C 89.043 138.722 89.031 136.130 88.836 133.548 C 88.578 129.270 87.773 124.026 88.956 119.844 C 96.023 114.498 100.617 107.076 104.177 99.036 C 106.117 94.650 107.876 90.408 108.789 85.692 C 109.647 81.270 109.990 76.518 111.455 72.270 C 113.040 71.400 114.589 71.478 116.384 71.766 Z " transform="matrix(1, 0, 0, 1, 230, -29)"/>
        <path id="Shape" fill="#824600" stroke="none" stroke-width="1" d="M 81.204 295.800 C 83.005 274.800 86.662 207.282 86.770 202.560 C 86.824 200.118 90.613 145.524 90.763 144.078 C 90.763 143.964 90.763 143.850 90.799 143.724 C 91.057 141.282 93.645 77.832 93.802 75.108 C 93.934 73.080 100.016 2.400 98.353 0.852 C 95.951 0.366 93.339 0.018 90.733 0.678 C 88.193 8.346 73.518 268.986 72.942 276.516 C 72.462 282.858 71.483 289.398 71.381 295.800 L 81.204 295.800 Z " transform="matrix(1, 0, 0, 1, 230, -29)"/>
        <path id="Shape" fill="#A0640A" stroke="none" stroke-width="1" d="M 72.594 295.800 C 74.857 270.720 86.308 95.208 91.124 21 L 64.854 21 C 63.053 40.896 50.743 250.752 48.107 295.800 L 72.594 295.800 Z " transform="matrix(1, 0, 0, 1, 230, -29)"/>
        <path id="Shape" fill="#824600" stroke="none" stroke-width="1" d="M 65.929 295.800 L 79.457 124.800 L 52.407 295.800 L 65.929 295.800 " transform="matrix(1, 0, 0, 1, 230, -29)"/>
        <path id="Shape" fill="#A0640A" stroke="none" stroke-width="1" d="M 43.238 17.700 C 44.643 16.566 46.012 14.700 47.681 14.826 C 48.642 19.872 48.738 61.344 48.810 66.480 C 48.882 72.012 50.119 77.718 51.344 83.094 C 52.404 88.220 54.310 93.135 56.982 97.638 C 58.273 99.744 60.345 101.688 61.227 103.998 C 62.110 106.308 62.044 109.914 61.768 112.398 C 57.528 111.078 53.788 104.316 51.752 100.674 C 49.248 96.056 47.472 91.079 46.486 85.920 C 44.144 74.640 42.229 29.202 43.238 17.700 Z " transform="matrix(1, 0, 0, 1, 230, -29)"/>
      </g>
      <path id="Shape" fill="#281446" stroke="none" stroke-width="1" d="M 60.120 133.528 C 59.052 131.158 59.052 131.158 59.106 129.814 C 63.405 125.272 69.439 125.116 75.282 125.200 C 78.962 125.254 87.531 125.416 86.690 130.558 C 85.970 134.980 81.028 135.634 77.281 136.222 C 71.420 137.248 65.384 136.301 60.120 133.528 Z "/>
      <g id="Group-6">
        <path id="Shape" fill="#82783C" stroke="none" stroke-width="1" d="M 495.585 0.400 C 444.655 0.400 406.952 6.064 380.899 8.800 C 345.521 12.514 324.565 13.600 255.405 13.600 C 217.283 13.600 183.111 11.518 162.336 9.400 C 146.057 7.738 112.072 3.232 104.092 2.686 C 81.521 1.156 53.726 0.400 15.226 0.400 L 0.911 15.646 L 0.911 126.508 L 512.541 126.508 L 512.541 8.470 L 495.585 0.400 Z " transform="matrix(1, 0, 0, 1, -15, 249)"/>
        <path id="Shape" fill="#645A1E" stroke="none" stroke-width="1" d="M 466.613 115.666 C 453.241 98.644 430.958 100.666 411.534 99.766 C 400.774 99.256 294.116 99.382 282.437 99.952 C 271.773 100.468 260.011 99.742 249.719 102.904 C 242.129 105.238 230.282 112.228 228.667 120.838 C 238.629 121.438 248.680 122.122 258.660 122.140 C 268.915 122.140 279.075 121.480 289.373 121.852 C 299.076 122.200 398.786 122.200 408.490 121.852 C 418.775 121.480 428.947 122.164 439.203 122.140 C 449.182 122.140 459.234 121.438 469.225 120.838 C 468.810 118.920 467.911 117.139 466.613 115.666 Z " transform="matrix(1, 0, 0, 1, -15, 249)"/>
        <path id="Shape" fill="#645A1E" stroke="none" stroke-width="1" d="M 33.936 23.242 C 29.588 22.642 22.527 22.198 15.226 21.910 L 15.226 45.562 L 21.404 45.562 C 32.873 45.562 47.872 47.452 53.979 36.130 C 53.138 26.422 41.825 24.364 33.936 23.242 Z " transform="matrix(1, 0, 0, 1, -15, 249)"/>
        <path id="Shape" fill="#645A1E" stroke="none" stroke-width="1" d="M 476.875 23.242 C 481.222 22.642 488.283 22.198 495.585 21.910 L 495.585 45.562 L 489.406 45.562 C 477.938 45.562 462.938 47.452 456.832 36.130 C 457.672 26.422 468.985 24.364 476.875 23.242 Z " transform="matrix(1, 0, 0, 1, -15, 249)"/>
        <path id="Shape" fill="#82783C" stroke="none" stroke-width="1" d="M 138.318 8.800 C 138.228 7.450 138.101 6.400 138.468 5.200 L 139.242 5.278 L 139.242 8.434 L 138.318 8.800 Z " transform="matrix(1, 0, 0, 1, -15, 249)"/>
        <path id="Shape" fill="#82783C" stroke="none" stroke-width="1" d="M 136.384 7.972 L 135.658 7.972 C 135.357 7.096 135.808 6.256 135.586 5.356 L 136.420 5.062 C 136.684 6.118 136.306 7 136.384 7.972 Z " transform="matrix(1, 0, 0, 1, -15, 249)"/>
        <path id="Shape" fill="#82783C" stroke="none" stroke-width="1" d="M 213.668 9.046 L 214.461 9.316 C 214.527 10.720 214.587 12.034 214.647 13.312 C 214.539 13.402 214.473 13.498 214.395 13.510 C 214.195 13.526 213.994 13.526 213.794 13.510 C 213.689 13.182 213.616 12.844 213.578 12.502 C 213.584 11.440 213.632 10.366 213.668 9.046 Z " transform="matrix(1, 0, 0, 1, -15, 249)"/>
        <path id="Shape" fill="#82783C" stroke="none" stroke-width="1" d="M 211.572 13.372 C 211.368 13.132 211.164 13.006 211.152 12.862 C 211.079 12.156 211.045 11.447 211.050 10.738 C 211.100 10.342 211.189 9.953 211.314 9.574 L 211.981 9.922 C 212.119 12.580 212.119 12.580 211.572 13.372 Z " transform="matrix(1, 0, 0, 1, -15, 249)"/>
        <path id="Shape" fill="#82783C" stroke="none" stroke-width="1" d="M 217.247 13.414 L 216.376 13.600 C 215.806 12.466 216.298 11.392 216.202 10.294 L 216.802 10.114 C 217.283 11.200 217.115 12.286 217.247 13.414 Z " transform="matrix(1, 0, 0, 1, -15, 249)"/>
        <path id="Shape" fill="#82783C" stroke="none" stroke-width="1" d="M 374.414 10.804 L 373.730 10.534 C 373.844 8.734 374.150 6.976 373.904 5.092 L 374.750 4.906 C 374.778 6.877 374.666 8.848 374.414 10.804 Z " transform="matrix(1, 0, 0, 1, -15, 249)"/>
        <path id="Shape" fill="#82783C" stroke="none" stroke-width="1" d="M 372.132 7.450 C 372.253 8.512 372.367 9.490 372.493 10.600 L 371.580 10.600 C 371.514 9.478 371.454 8.452 371.388 7.300 L 372.132 7.450 Z " transform="matrix(1, 0, 0, 1, -15, 249)"/>
      </g>
    </g>
  </g>
</svg>