<svg version="1.1" width="78" height="153" viewBox="-1 -1 78 153" xmlns="http://www.w3.org/2000/svg" xmlns:xlink="http://www.w3.org/1999/xlink">
  <!-- Exported by Scratch - http://scratch.mit.edu/ -->
  <path id="Rectangle-path" fill="#005A5A" stroke="none" stroke-width="1" d="M 24.994 93.159 L 48.145 93.159 L 48.145 100.917 L 24.994 100.917 L 24.994 93.159 Z "/>
  <path id="Shape" fill="#DCAA78" stroke="none" stroke-width="1" d="M 18.896 77.841 C 17.721 77.340 12.828 76.844 11.231 77.058 C 11.136 77.206 11.061 77.365 11.008 77.531 C 10.324 80.988 9.719 105.640 10.027 111.833 C 12.257 112.030 18.828 111.906 18.828 111.906 L 18.896 77.841 Z "/>
  <path id="Shape" fill="#DCAA78" stroke="none" stroke-width="1" d="M 67.994 131.829 C 67.264 119.725 63.636 82.604 62.051 76.574 L 48.995 74.018 C 48.704 76.861 50.358 80.813 50.940 83.589 C 52.267 89.871 53.609 96.150 54.967 102.425 C 56.130 107.852 57.301 113.279 58.480 118.706 C 59.701 124.308 60.608 130.405 63.528 135.381 C 63.785 134.509 63.362 133.692 64.098 133.214 C 65.119 133.709 65.239 135.027 65.906 135.871 C 65.986 135.173 65.695 132.989 66.768 132.820 C 67.418 133.315 67.446 134.227 68.062 134.959 C 68.140 133.916 68.117 132.868 67.994 131.829 Z "/>
  <path id="Shape" fill="#005A5A" stroke="none" stroke-width="1" d="M 38.420 84.715 C 39.333 89.303 48.282 121.960 48.653 123.852 L 59.079 121.183 C 60.476 118.200 60.790 99.059 61.041 93.790 L 38.420 84.715 Z "/>
  <path id="Shape" fill="#005A5A" stroke="none" stroke-width="1" d="M 15.708 89.573 C 16.432 93.351 17.419 122.225 18.098 122.225 C 18.383 122.225 32.260 121.538 32.648 121.437 C 34.359 114.540 39.698 89.556 40.793 82.694 L 15.708 89.573 Z "/>
  <path id="Shape" fill="#008264" stroke="none" stroke-width="1" d="M 15.635 89.162 C 15.389 89.162 15.635 90.422 16.911 92.699 C 16.469 90.422 16.028 89.162 15.635 89.162 Z "/>
  <path id="Shape" fill="#DCAA78" stroke="none" stroke-width="1" d="M 44.426 54.844 C 38.637 51.984 30.800 48.297 24.651 51.545 L 40.188 67.223 C 40.188 67.223 46.941 57.580 47.398 56.904 C 46.514 56.078 45.513 55.384 44.426 54.844 Z "/>
  <path id="Shape" fill="#FFFFFF" stroke="none" stroke-width="1" d="M 29.317 57.197 C 29.317 57.197 40.154 60.744 46.428 57.923 L 45.059 67.297 L 32.853 67.009 L 29.317 57.197 Z "/>
  <path id="Shape" fill="#008264" stroke="none" stroke-width="1" d="M 21.737 53.251 C 20.898 53.735 17.077 56.724 14.567 62.376 C 12.058 68.028 10.432 79.186 10.409 79.378 C 10.655 79.457 25.096 79.215 25.313 79.237 L 21.737 53.251 Z "/>
  <path id="Shape" fill="#005A5A" stroke="none" stroke-width="1" d="M 63.186 78.460 C 62.764 76.636 61.275 72.594 57.664 67.201 C 55.235 63.581 50.740 58.756 47.158 56.505 L 47.843 78.426 L 63.186 78.460 Z "/>
  <path id="Rectangle-path" fill="#281446" stroke="none" stroke-width="1" d="M 8.094 77.813 L 17.801 77.813 L 17.801 83.223 L 8.094 83.223 L 8.094 77.813 Z "/>
  <path id="Rectangle-path" fill="#281446" stroke="none" stroke-width="1" d="M 54.699 77.813 L 64.406 77.813 L 64.406 83.223 L 54.699 83.223 L 54.699 77.813 Z "/>
  <path id="Shape" fill="#00A08C" stroke="none" stroke-width="1" d="M 61.497 92.399 C 60.476 83.662 59.718 79.136 57.294 72.532 C 55.012 66.306 52.240 61.070 47.158 56.538 C 44.614 58.481 38.529 63.699 38.529 63.699 C 38.529 63.699 27.555 53.003 24.777 51.145 C 23.995 51.185 22.113 52.919 21.737 53.251 C 19.598 58.262 18.000 63.481 16.969 68.822 C 15.314 78.111 15.257 88.211 15.178 92.337 L 61.497 92.399 Z "/>
  <path id="Shape" fill="#F01446" stroke="none" stroke-width="1" d="M 15.400 118.960 C 15.468 119.252 24.281 149.923 24.281 149.923 C 24.281 149.923 22.153 150.069 20.414 150.142 L 20.414 151.201 L 28.188 151.139 C 28.188 151.139 30.429 138.753 30.977 135.652 C 31.929 130.202 32.751 124.758 33.304 119.264 L 15.400 118.960 Z "/>
  <path id="Shape" fill="#F01446" stroke="none" stroke-width="1" d="M 45.630 118.487 C 46.137 122.535 51.402 151.240 51.630 151.493 C 51.989 151.324 58.685 151.336 58.685 151.336 L 58.474 150.272 C 58.474 150.272 55.742 150.103 55.343 149.900 C 54.128 148.662 60.630 119.258 60.819 118.644 C 60.779 118.532 45.630 118.487 45.630 118.487 Z "/>
  <path id="Rectangle-path" fill="#281446" stroke="none" stroke-width="1" d="M 13.170 90.553 L 62.330 90.553 L 62.330 96.087 L 13.170 96.087 L 13.170 90.553 Z "/>
  <path id="Shape" fill="#281446" stroke="none" stroke-width="1" d="M 44.489 116.601 C 44.894 118.943 45.664 124.111 45.687 124.207 C 45.709 124.302 60.841 124.437 60.841 124.437 C 60.841 124.437 61.845 116.556 61.845 116.556 L 44.489 116.601 Z "/>
  <path id="Shape" fill="#281446" stroke="none" stroke-width="1" d="M 45.972 125.428 C 46.143 127.043 46.308 128.658 46.457 130.274 L 60.043 130.274 L 60.739 125.428 L 45.972 125.428 Z "/>
  <path id="Shape" fill="#281446" stroke="none" stroke-width="1" d="M 46.730 129.391 C 46.850 130.995 46.947 132.610 47.004 134.237 L 59.279 134.237 C 59.358 133.772 59.627 130.519 59.712 129.391 L 46.730 129.391 Z "/>
  <path id="Shape" fill="#281446" stroke="none" stroke-width="1" d="M 35.705 116.533 L 14.989 116.595 C 15.474 118.937 16.398 124.105 16.427 124.201 C 16.455 124.297 31.513 124.409 34.222 124.426 C 34.730 121.808 35.169 119.162 35.705 116.533 Z "/>
  <path id="Shape" fill="#281446" stroke="none" stroke-width="1" d="M 34.028 125.428 L 16.763 125.428 C 16.969 127.039 17.159 128.655 17.334 130.274 L 33.515 130.274 C 33.703 128.670 33.869 127.043 34.028 125.428 Z "/>
  <path id="Shape" fill="#281446" stroke="none" stroke-width="1" d="M 33.133 129.391 L 17.681 129.391 C 17.824 130.995 17.938 132.610 18.012 134.237 L 32.483 134.237 C 32.716 132.633 32.933 131.018 33.133 129.391 Z "/>
  <path id="Rectangle-path" fill="#005A5A" stroke="none" stroke-width="1" d="M 18.394 89.612 L 23.304 89.612 L 23.304 97.184 L 18.394 97.184 L 18.394 89.612 Z "/>
  <path id="Rectangle-path" fill="#005A5A" stroke="none" stroke-width="1" d="M 26.534 89.612 L 31.443 89.612 L 31.443 97.184 L 26.534 97.184 L 26.534 89.612 Z "/>
  <path id="Rectangle-path" fill="#005A5A" stroke="none" stroke-width="1" d="M 47.791 89.612 L 52.701 89.612 L 52.701 97.184 L 47.791 97.184 L 47.791 89.612 Z "/>
  <path id="Rectangle-path" fill="#005A5A" stroke="none" stroke-width="1" d="M 56.455 89.612 L 61.365 89.612 L 61.365 97.184 L 56.455 97.184 L 56.455 89.612 Z "/>
  <path id="Rectangle-path" fill="#FFC800" stroke="none" stroke-width="1" d="M 35.545 89.776 L 43.787 89.776 L 43.787 96.728 L 35.545 96.728 L 35.545 89.776 Z "/>
  <path id="Shape" fill="#642800" stroke="none" stroke-width="1" d="M 21.839 116.494 C 21.058 115.137 6.371 118.481 6.371 118.481 L 15.166 139.547 C 15.166 139.547 27.292 132.555 27.406 132.465 C 27.446 131.733 22.165 117.057 21.839 116.494 Z "/>
  <path id="Shape" fill="#824600" stroke="none" stroke-width="1" d="M 25.815 129.251 L 16.261 134.070 L 17.516 138.241 L 27.190 132.955 L 25.815 129.251 "/>
  <path id="Shape" fill="#824600" stroke="none" stroke-width="1" d="M 24.241 123.880 L 14.755 127.230 L 14.419 128.102 L 15.394 129.960 L 25.347 126.047 L 24.241 123.880 "/>
  <path id="Shape" fill="#A0640A" stroke="none" stroke-width="1" d="M 29.089 129.966 C 27.891 126.588 26.773 123.165 25.501 119.793 C 24.361 116.775 23.648 113.201 21.566 110.679 C 18.463 110.740 15.463 111.011 12.377 111.303 C 9.474 111.579 6.274 111.264 3.508 112.232 C 0.656 116.736 0.086 123.452 0.211 128.648 C 0.297 132.949 1.278 142.159 5.590 144.608 C 7.055 144.304 18.628 138.461 18.628 138.461 C 18.628 138.461 14.681 122.557 18.098 121.223 C 19.168 121.108 20.251 121.237 21.263 121.600 C 23.083 125.541 24.606 129.628 26.425 133.585 L 27.235 133.889 C 28.171 133.602 28.741 132.893 29.482 132.313 C 29.482 131.515 29.349 130.722 29.089 129.966 Z "/>
  <path id="Shape" fill="#824600" stroke="none" stroke-width="1" d="M 5.076 113.403 L 3.776 117.997 L 17.140 116.787 L 17.470 112.204 L 5.076 113.403 "/>
  <path id="Shape" fill="#F00A78" stroke="none" stroke-width="1" d="M 46.365 33.018 C 43.810 38.580 47.751 45.735 53.472 47.655 C 61.149 50.267 67.230 44.671 68.655 39.115 C 70.133 33.356 66.454 28.863 61.594 26.729 C 55.623 24.123 49.394 27.506 46.365 33.018 Z "/>
  <path id="Shape" fill="#F04650" stroke="none" stroke-width="1" d="M 59.045 34.819 C 57.995 37.071 59.615 39.931 61.954 40.820 C 65.724 42.273 67.583 39.599 68.165 37.324 C 68.747 35.050 67.110 33.249 65.125 32.370 C 62.678 31.295 60.282 32.567 59.045 34.819 Z "/>
  <path id="Shape" fill="#F04650" stroke="none" stroke-width="1" d="M 58.939 29.494 C 58.513 30.785 59.183 32.183 60.452 32.652 C 62.395 33.413 63.356 32.013 63.658 30.818 C 63.961 29.623 63.114 28.664 62.085 28.208 C 60.864 27.700 59.463 28.272 58.939 29.494 Z "/>
  <path id="Shape" fill="#BE8264" stroke="none" stroke-width="1" d="M 43.143 17.959 C 44.535 19.935 48.094 31.031 48.094 31.031 C 48.094 31.031 53.678 29.674 49.902 22.727 C 48.270 19.704 45.921 16.557 43.143 17.959 Z "/>
  <path id="Shape" fill="#DCAA78" stroke="none" stroke-width="1" d="M 18.634 36.553 C 19.358 37.747 26.180 50.689 39.167 45.352 C 51.248 40.381 49.907 30.366 47.723 24.849 L 18.634 36.553 Z "/>
  <path id="Shape" fill="#A0640A" stroke="none" stroke-width="1" d="M 30.549 31.734 C 31.649 33.989 32.246 36.450 32.300 38.951 C 32.296 41.739 31.863 44.511 31.017 47.171 C 31.017 47.171 19.495 45.910 17.328 36.013 L 30.549 31.734 Z "/>
  <path id="Shape" fill="#A0640A" stroke="none" stroke-width="1" d="M 31.524 31.498 L 34.433 35.776 L 40.297 28.261 L 31.524 31.498 "/>
  <path id="Shape" fill="#DCAA78" stroke="none" stroke-width="1" d="M 32.848 39.931 C 35.585 39.773 36.469 31.487 31.445 26.217 C 29.266 23.926 24.828 30.614 24.845 33.344 C 24.862 36.750 29.733 40.162 32.848 39.931 Z "/>
  <path id="Shape" fill="#000000" stroke="none" stroke-width="1" d="M 46.930 26.943 C 49.904 28.776 50.297 29.884 48.787 31.677 C 47.607 31.991 46.804 31.599 46.128 31.069 C 44.775 30.021 44.461 28.933 44.964 27.149 L 46.930 26.943 Z "/>
  <path id="Shape" fill="#005A5A" stroke="none" stroke-width="1" d="M 57.408 23.780 C 57.408 23.780 76.937 16.163 76.470 14.817 C 76.116 13.809 71.182 15.729 68.405 16.771 C 64.087 18.392 50.272 23.971 47.301 25.215 C 47.341 25.615 57.408 23.780 57.408 23.780 Z "/>
  <path id="Shape" fill="#00A08C" stroke="none" stroke-width="1" d="M 20.066 2.252 C 13.044 5.326 5.960 13.703 4.472 22.147 C 2.863 31.261 9.605 42.414 9.605 42.414 L 21.919 37.792 L 20.066 2.252 Z "/>
  <path id="Shape" fill="#008264" stroke="none" stroke-width="1" d="M 44.415 4.571 C 37.302 1.362 29.135 -0.732 21.731 1.599 C 21.566 1.655 20.191 1.700 20.191 1.700 C 10.118 18.319 21.936 37.730 21.936 37.730 L 57.396 23.718 C 57.396 23.718 53.044 8.473 44.415 4.571 Z "/>
  <path id="Shape" fill="#281446" stroke="none" stroke-width="1" d="M 18.685 4.444 C 19.574 5.307 20.395 4.919 21.189 4.444 C 21.744 3.905 22.355 3.499 22.999 3.240 C 23.215 3.240 23.396 2.764 23.585 2.521 C 23.649 1.650 23.394 0.793 22.912 0.260 C 20.523 -0.488 18.847 1.677 18.685 4.444 Z "/>
</svg>