<svg width="26px" height="14px" viewBox="0 0 26 14" version="1.1" xml:space="preserve" xmlns="http://www.w3.org/2000/svg" xmlns:xlink="http://www.w3.org/1999/xlink">
  <defs/>
  <g>
    <title>Slice 1</title>
    <desc>Created with Sketch.</desc>
    <g id="Page-1" stroke="none" stroke-width="1" fill="none" fill-rule="evenodd">
      <g id="MediaLab_PaperDoll_Accessory-01">
        <g id="Group">
          <path d="M16.38,9.25 L16.38,6 L9.62,6 L9.62,9.25 L9.55,9.31 C9.67357075,9.66853887 10.0107646,9.90939162 10.39,9.91 L15.61,9.91 C15.9892354,9.90939162 16.3264292,9.66853887 16.45,9.31 L16.38,9.25 Z" id="Shape" fill="#14E148" fill-rule="nonzero"/>
          <path d="M9.62,4.75 L9.62,6 L16.38,6 L16.38,4.75 L16.45,4.69 C16.3264292,4.33146113 15.9892354,4.09060838 15.61,4.09 L10.39,4.09 C10.0107646,4.09060838 9.67357075,4.33146113 9.55,4.69 L9.62,4.75 Z" id="Shape" fill="#ACFF74" fill-rule="nonzero"/>
          <path d="M16.5,5.94 L16.5,9 C16.5151644,9.09607194 16.5151644,9.19392806 16.5,9.29 C17,9.8 20.5,13.23 23.92,13.23 C24.7112856,11.251589 25.0791923,9.12931247 25,7 C25.0089599,5.60509944 24.8647629,4.21343049 24.57,2.85 C21.7892772,3.62533428 19.0874361,4.65986823 16.5,5.94 Z" id="Shape" fill="#14E148" fill-rule="nonzero"/>
          <path d="M16.5,5.94 C19.0649768,4.66392329 21.7432042,3.62945793 24.5,2.85 C24.3573998,2.12798524 24.1360778,1.42377892 23.84,0.75 C20.43,0.75 16.92,4.18 16.42,4.69 C16.4351644,4.78607194 16.4351644,4.88392806 16.42,4.98 L16.5,5.94 Z" id="Shape" fill="#ACFF74" fill-rule="nonzero"/>
          <path d="M16.5,5.94 L16.38,6 L16.38,9.25 L16.45,9.31 C16.4651644,9.21392806 16.4651644,9.11607194 16.45,9.02 L16.5,5.94 Z" id="Shape" fill="#14E148" fill-rule="nonzero"/>
          <path d="M16.38,4.75 L16.38,6 L16.5,5.94 L16.5,5 C16.5151644,4.90392806 16.5151644,4.80607194 16.5,4.71 L16.38,4.75 Z" id="Shape" fill="#14E148" fill-rule="nonzero"/>
          <path d="M9.5,5 C9.48483559,4.90392806 9.48483559,4.80607194 9.5,4.71 C9,4.2 5.5,0.77 2.08,0.77 C1.79782064,1.41356658 1.58009077,2.08350463 1.43,2.77 C4.22371095,3.46792882 6.91345757,4.53037873 9.43,5.93 L9.5,5 Z" id="Shape" fill="#ACFF74" fill-rule="nonzero"/>
          <path d="M9.5,5.93 C6.98345757,4.53037873 4.29371095,3.46792882 1.5,2.77 C1.1799281,4.15760872 1.01226862,5.57600791 1,7 C0.921167495,9.13670952 1.29253609,11.2661166 2.09,13.25 C5.5,13.25 9.01,9.82 9.51,9.31 C9.49483559,9.21392806 9.49483559,9.11607194 9.51,9.02 L9.5,5.93 Z" id="Shape" fill="#14E148" fill-rule="nonzero"/>
          <path d="M9.62,9.25 L9.62,6 L9.5,5.93 L9.5,9 C9.48483559,9.09607194 9.48483559,9.19392806 9.5,9.29 L9.62,9.25 Z" id="Shape" fill="#14E148" fill-rule="nonzero"/>
          <path d="M9.5,5.93 L9.62,6 L9.62,4.75 L9.55,4.69 C9.53483559,4.78607194 9.53483559,4.88392806 9.55,4.98 L9.5,5.93 Z" id="Shape" fill="#14E148" fill-rule="nonzero"/>
          <rect id="Rectangle-path" stroke="#149948" stroke-width="0.8" x="9.5" y="4.09" width="7.01" height="5.82" rx="0.77"/>
          <path d="M23.87,0.75 C20.19,0.75 16.38,4.75 16.38,4.75 L16.38,9.25 C16.38,9.25 20.19,13.25 23.87,13.25 C24.6811343,11.269062 25.0661499,9.139551 25,7 C25.0661499,4.860449 24.6811343,2.73093802 23.87,0.75 Z" id="Shape" stroke="#149948" stroke-width="0.8"/>
          <path d="M2.13,0.75 C5.81,0.75 9.62,4.75 9.62,4.75 L9.62,9.25 C9.62,9.25 5.81,13.25 2.13,13.25 C1.31886571,11.269062 0.933850127,9.139551 1,7 C0.933850127,4.860449 1.31886571,2.73093802 2.13,0.75 Z" id="Shape" stroke="#149948" stroke-width="0.8"/>
          <path d="M7.1,9.61 C7.3678418,9.41404182 7.6248842,9.2037344 7.87,8.98" id="Shape" stroke="#00B82B" stroke-width="0.64" stroke-linecap="round" stroke-linejoin="round"/>
          <path d="M3.29,11.56 C4.30002968,11.2097144 5.27171937,10.7573761 6.19,10.21" id="Shape" stroke="#00B82B" stroke-width="0.64" stroke-linecap="round" stroke-linejoin="round"/>
          <path d="M20.71,10.7 C19.7179341,10.1771927 18.7800319,9.55750732 17.91,8.85" id="Shape" stroke="#00B82B" stroke-width="0.64" stroke-linecap="round" stroke-linejoin="round"/>
          <path d="M22.62,11.56 C22.62,11.56 22.3,11.45 21.8,11.25" id="Shape" stroke="#00B82B" stroke-width="0.64" stroke-linecap="round" stroke-linejoin="round"/>
        </g>
      </g>
    </g>
  </g>
</svg>