<svg width="150px" height="181px" viewBox="0 0 150 181" version="1.1" xml:space="preserve" xmlns="http://www.w3.org/2000/svg" xmlns:xlink="http://www.w3.org/1999/xlink">
  <defs/>
  <g>
    <title>skeleton-c</title>
    <desc>Created with Sketch.</desc>
    <g id="skeleton-c" stroke="none" stroke-width="1" fill="none" fill-rule="evenodd">
      <path d="M87.5060606,150.569343 L86.3333333,149.978102 C83.7924242,139.992701 90.2424242,129.416058 94.6727273,120.810219 C97.4742424,115.554745 99.5590909,109.905109 100.731818,103.992701 C101.057576,102.416058 101.187879,91.3138686 110.634848,92.8905109 C120.081818,94.4671533 111.090909,107.80292 109.983333,110.562044 C107.898485,115.554745 105.683333,120.613139 103.468182,125.540146 C99.5590909,134.145985 97.6045455,147.481752 87.5060606,150.569343 Z M104.380303,106.817518 C102.816667,107.343066 100.79697,112.532847 100.080303,113.978102 C98.5818182,116.934307 97.2787879,120.021898 96.2363636,123.175182 C95.0636364,126.591241 93.9560606,129.941606 92.6530303,133.291971 C91.5454545,135.985401 89.5909091,139.335766 89.069697,142.160584 C89.2651515,142.686131 89.4606061,143.211679 89.6560606,143.737226 C90.0469697,144.131387 90.5681818,144.394161 91.0893939,144.525547 C95.9106061,139.270073 97.3439394,132.70073 100.080303,126.328467 C101.513636,122.978102 102.751515,119.562044 104.184848,116.145985 C105.09697,113.978102 108.289394,108.985401 105.357576,106.948905 L104.380303,106.817518 Z" id="Shape" fill="#C8BEA0" fill-rule="nonzero"/>
      <path d="M105.162121,47.2335766 C106.595455,47.3649635 109.266667,51.1094891 110.243939,52.620438 C112.068182,64.0510949 113.110606,76.6642336 113.110606,79.0948905 C113.045455,83.2335766 113.110606,96.1751825 108.810606,98.2773723 C106.856061,97.4890511 107.507576,93.1532847 107.70303,91.4452555 C109.39697,75.810219 105.292424,53.6715328 104.706061,52.620438 C104.119697,51.5693431 102.816667,50.9781022 102.230303,49.729927 C101.969697,48.0218978 103.989394,47.6934307 105.162121,47.2335766 Z" id="Shape" fill="#AAA082" fill-rule="nonzero"/>
      <path d="M112.393939,95.7810219 C112.589394,98.2773723 111.025758,100.379562 108.940909,100.708029 C107.116667,100.970803 105.357576,99.7226277 105.09697,97.8832117 C105.09697,97.8175182 105.09697,97.7518248 105.09697,97.6861314 C105.031818,96.5036496 105.618182,95.3211679 106.530303,94.5985401 C106.790909,94.4014599 107.051515,94.270073 107.312121,94.1386861 C107.70303,94.0072993 108.093939,93.8759124 108.55,93.8759124 C109.983333,94.0072993 111.351515,94.729927 112.393939,95.7810219 Z" id="Shape" fill="#AAA082" fill-rule="nonzero"/>
      <path d="M86.1378788,158.978102 C87.4409091,158.189781 88.2227273,156.678832 88.0924242,155.167883 C88.0272727,154.510949 86.919697,151.226277 85.3560606,150.635036 C82.5545455,149.583942 78.5151515,151.751825 78.7106061,154.182482 C78.8409091,155.562044 79.6227273,157.59854 81.1212121,158.386861 C82.619697,159.175182 84.9651515,158.912409 86.1378788,158.978102 Z" id="Shape" fill="#C8BEA0" fill-rule="nonzero"/>
      <path d="M79.3621212,158.452555 C78.9060606,158.912409 78.45,159.240876 77.9939394,159.635036 L74.4106061,162.919708 C73.3681818,163.905109 72.5212121,164.956204 71.8045455,166.20438 C71.1530303,167.255474 71.3484848,167.846715 72.4560606,168.70073 C72.9121212,168.766423 73.1727273,168.437956 73.4333333,168.240876 C74.8015152,167.124088 75.9090909,165.810219 76.8212121,164.364964 C77.4075758,163.379562 78.0590909,162.525547 78.6454545,161.540146 C78.9712121,161.080292 79.2318182,160.554745 79.4924242,160.029197 C79.8181818,159.50365 79.7530303,158.912409 79.3621212,158.452555 Z" id="Shape" fill="#C8BEA0" fill-rule="nonzero"/>
      <path d="M70.0454545,163.905109 C71.8045455,163.379562 76.9515152,158.912409 78.2545455,156.875912 C78.1893939,156.678832 78.1893939,156.481752 78.1242424,156.350365 C77.9939394,156.153285 77.9287879,155.956204 77.7333333,155.759124 C77.4727273,155.824818 77.2121212,155.956204 76.9515152,156.087591 C76.6257576,156.284672 76.2348485,156.547445 75.9742424,156.810219 C74.7363636,157.79562 73.4333333,158.781022 72.2606061,159.89781 C71.5439394,160.620438 70.8272727,161.408759 70.2409091,162.262774 C69.7848485,162.722628 69.719697,163.379562 70.0454545,163.905109 Z" id="Shape" fill="#C8BEA0" fill-rule="nonzero"/>
      <path d="M84.9,159.766423 L83.5318182,159.437956 C82.4242424,160.423358 81.4469697,161.474453 80.5348485,162.656934 C79.6878788,163.905109 78.6454545,165.087591 77.6681818,166.270073 C77.0166667,167.058394 76.6257576,168.043796 76.6257576,169.094891 C76.8863636,169.160584 77.2121212,169.160584 77.4727273,169.094891 C77.7984848,168.963504 78.1242424,168.70073 78.319697,168.437956 C80.6651515,165.875912 82.619697,162.985401 84.7045455,160.226277 C84.8348485,160.094891 84.9,159.963504 84.9,159.766423 Z" id="Shape" fill="#C8BEA0" fill-rule="nonzero"/>
      <path d="M85.3560606,166.138686 C85.9424242,166.138686 86.5287879,165.875912 86.7893939,165.350365 C87.180303,164.759124 87.5060606,164.167883 87.8318182,163.510949 C88.2227273,162.788321 88.4833333,162 88.8090909,161.211679 C89.1348485,160.423358 89.330303,159.50365 89.330303,158.649635 C89.330303,158.255474 89.2651515,157.927007 89.1348485,157.532847 C88.8742424,157.59854 88.5484848,157.729927 88.3530303,157.927007 C86.7893939,159.569343 85.5515152,161.540146 84.7045455,163.642336 C84.3136364,164.562044 84.5742424,165.613139 85.3560606,166.138686 Z" id="Shape" fill="#C8BEA0" fill-rule="nonzero"/>
      <path d="M93.9560606,133.423358 C94.6075758,135.854015 93.4348485,138.021898 91.219697,138.678832 C89.3954545,139.20438 86.9848485,138.284672 86.4636364,136.182482 C86.2030303,134.934307 86.5939394,133.686131 87.5060606,132.832117 C87.7666667,132.635036 88.0272727,132.437956 88.2878788,132.240876 C88.6787879,132.043796 89.1348485,131.846715 89.5257576,131.781022 C90.8287879,131.715328 93.1742424,131.649635 93.9560606,133.423358 Z" id="Shape" fill="#AAA082" fill-rule="nonzero"/>
      <path d="M85.8121212,131.189781 C86.4636364,131.518248 86.6590909,132.240876 86.3984848,132.89781 C86.3984848,132.89781 86.3984848,132.963504 86.3333333,132.963504 C86.0075758,133.554745 85.3560606,133.751825 84.769697,133.489051 C84.4439394,133.291971 84.2484848,132.89781 84.2484848,132.50365 C84.2484848,132.372263 84.2484848,132.306569 84.3136364,132.175182 C84.3787879,132.043796 84.4439394,131.912409 84.5090909,131.781022 C84.7045455,131.518248 85.2257576,130.992701 85.8121212,131.189781 Z" id="Shape" fill="#AAA082" fill-rule="nonzero"/>
      <path d="M88.8742424,130.729927 C86.2030303,130.59854 85.4212121,130.59854 84.3787879,126.19708 C83.5969697,122.781022 85.0954545,117.919708 86.0075758,114.70073 C86.919697,111.284672 88.0272727,107.80292 86.5939394,104.452555 C85.030303,100.839416 85.9424242,98.080292 88.1575758,95.8467153 C89.330303,94.6642336 94.4772727,94.6642336 96.9530303,98.6715328 C99.1681818,102.350365 98.7772727,109.839416 98.2560606,113.255474 C97.2787879,118.642336 91.5454545,130.79562 88.8742424,130.729927 Z" id="Shape" fill="#AAA082" fill-rule="nonzero"/>
      <path d="M94.3469697,99.459854 C95.3893939,101.364964 94.0863636,102.875912 92.4575758,103.40146 C91.0242424,103.861314 89.4606061,103.072993 89.0045455,101.627737 C89.0045455,101.562044 88.9393939,101.49635 88.9393939,101.430657 C88.7439394,100.445255 89.069697,99.459854 89.7212121,98.7372263 C89.9166667,98.540146 90.1121212,98.4087591 90.3075758,98.2773723 C90.5681818,98.080292 90.8939394,98.0145985 91.219697,97.9489051 C92.1969697,97.8832117 93.3045455,97.5547445 94.3469697,99.459854 Z" id="Shape" fill="#DCD2B4" fill-rule="nonzero"/>
      <path d="M39.2939394,141.109489 L39.2939394,139.664234 C39.2939394,139.664234 82.4893939,136.182482 83.9878788,138.284672 C83.7272727,139.40146 83.4015152,140.583942 81.3818182,141.175182 C71.4787879,144.262774 39.2939394,141.109489 39.2939394,141.109489 Z" id="Shape" fill="#AAA082" fill-rule="nonzero"/>
      <path d="M82.4242424,130.59854 C82.3590909,130.861314 82.2939394,131.124088 82.1636364,131.452555 C76.6257576,134.080292 64.2469697,133.357664 58.2530303,134.474453 L39.3590909,138.021898 L38.6424242,136.182482 L41.1181818,134.211679 C41.1833333,134.277372 78.580303,125.671533 82.4242424,130.59854 Z" id="Shape" fill="#AAA082" fill-rule="nonzero"/>
      <path d="M40.8575758,146.759124 C40.8575758,146.759124 39.619697,137.824818 39.4893939,137.167883 C39.2939394,137.10219 42.4863636,136.970803 42.5515152,136.905109 C42.0954545,135.985401 41.6393939,135.131387 41.1181818,134.277372 L38.0560606,135.394161 C37.7954545,136.576642 37.7954545,137.890511 38.0560606,139.072993 C37.8606061,139.729927 39.6848485,147.284672 39.6848485,147.284672 L40.8575758,146.759124 Z" id="Shape" fill="#AAA082" fill-rule="nonzero"/>
      <path d="M43.2681818,52.4233577 C43.2681818,52.4233577 44.7666667,76.2043796 50.6954545,77.189781 L55.5166667,75.9416058 L52.780303,53.3430657 L43.2681818,52.4233577 Z" id="Shape" fill="#C8BEA0" fill-rule="nonzero"/>
      <path d="M89.2,54.459854 L88.0272727,76.4014599 L95.9106061,77.189781 C95.9106061,77.189781 101.839394,59.9781022 98.5166667,53.540146 L89.2,54.459854 Z" id="Shape" fill="#AAA082" fill-rule="nonzero"/>
      <path d="M39.8151515,47.8248175 C39.75,47.4306569 36.8181818,45.2627737 35.6454545,42.3722628 C36.8833333,38.7591241 42.5515152,40.9927007 44.05,42.8321168 C45.5484848,44.6715328 46.3954545,46.9051095 45.5484848,48.0218978 C44.7015152,49.1386861 41.9651515,48.9416058 39.8151515,47.8248175 Z" id="Shape" fill="#DCD2B4" fill-rule="nonzero"/>
      <path d="M96.4969697,44.1459854 C96.2363636,44.4087591 92.6530303,44.7372263 90.1121212,46.5766423 C89.2,50.2554745 95.1939394,51.4379562 97.4742424,50.7153285 C99.7545455,49.9927007 101.578788,48.4817518 101.448485,47.1021898 C101.318182,45.6569343 98.9075758,44.3430657 96.4969697,44.1459854 Z" id="Shape" fill="#C8BEA0" fill-rule="nonzero"/>
      <path d="M84.5090909,101.562044 C84.0530303,106.160584 77.7333333,105.306569 74.3454545,105.306569 C70.7621212,105.306569 65.6151515,105.240876 62.7484848,102.678832 C59.4257576,99.7883212 62.3575758,95.0583942 59.8166667,91.8394161 C56.8848485,88.1605839 51.9984848,90.5255474 48.35,89.540146 C48.1545455,83.4963504 62.8136364,87.1094891 65.9409091,87.3065693 C72.8469697,87.7664234 79.6878788,87.2408759 86.5287879,86.649635 C89.069697,86.4525547 92.4575758,85.7956204 94.9333333,86.5182482 C97.4090909,87.2408759 99.2333333,90.7226277 96.0409091,92.0364964 C94.1515152,92.8248175 90.7636364,90.919708 88.5484848,91.3138686 C84.769697,91.9051095 84.5090909,94.3357664 84.5090909,101.562044 Z M66.2015152,92.5620438 C65.8106061,93.7445255 66.0060606,98.0145985 67.6348485,99.5255474 C68.6121212,100.445255 70.5015152,100.510949 72.2606061,100.839416 C75.8439394,101.49635 78.1893939,101.036496 78.9712121,98.080292 C79.4924242,96.1094891 79.3621212,95.4525547 79.4272727,93.2189781 C79.4924242,90.9854015 77.1469697,91.1167883 76.2348485,91.4452555 C75.3227273,91.7737226 76.1045455,93.1532847 75.1924242,93.810219 C74.5409091,94.270073 71.4787879,94.6642336 70.6969697,93.7445255 C69.9151515,92.8248175 70.7621212,91.9708029 69.1333333,91.5766423 C67.5045455,91.1824818 66.5924242,91.379562 66.2015152,92.5620438 Z" id="Shape" fill="#DCD2B4" fill-rule="nonzero"/>
      <path d="M64.7681818,87.3065693 C64.8984848,86.2554745 65.2242424,85.5985401 65.8106061,85.4671533 C66.3318182,85.270073 66.8530303,85.1386861 67.4393939,85.0729927 C69.0030303,84.8759124 70.6318182,85.1386861 72.1954545,85.1386861 C73.6287879,85.0729927 75.0621212,85.1386861 76.5606061,85.1386861 L77.2772727,85.1386861 C78.1242424,86.5182482 77.5378788,88.620438 76.7560606,89.1459854 C76.5606061,89.2116788 76.430303,89.3430657 76.2348485,89.4087591 C75.2575758,89.7372263 74.2151515,89.8686131 73.2378788,89.8029197 C71.4136364,89.8029197 69.5893939,89.7372263 67.7,89.6058394 C67.1136364,89.6058394 66.5272727,89.4744526 65.9409091,89.2773723 C65.3545455,88.9489051 64.8984848,88.4233577 64.7681818,87.3065693 Z" id="Shape" fill="#DCD2B4" fill-rule="nonzero"/>
      <path d="M64.1166667,45.459854 C64.2469697,44.4087591 64.5727273,43.7518248 65.1590909,43.620438 C65.680303,43.4233577 66.2015152,43.2919708 66.7878788,43.2262774 C68.3515152,43.0291971 69.980303,43.2919708 71.5439394,43.2919708 C72.9772727,43.2262774 74.4106061,43.2919708 75.9090909,43.2919708 C76.169697,43.2919708 76.430303,43.2919708 76.6257576,43.2919708 C77.4727273,44.6715328 76.8863636,46.7737226 76.1045455,47.2992701 C75.9090909,47.3649635 75.7787879,47.4963504 75.5833333,47.5620438 C74.6060606,47.8905109 73.5636364,48.0218978 72.5863636,47.9562044 C70.7621212,47.9562044 68.9378788,47.8905109 67.0484848,47.7591241 C66.4621212,47.7591241 65.8757576,47.6277372 65.2893939,47.4306569 C64.7030303,47.1678832 64.2469697,46.6423358 64.1166667,45.459854 Z" id="Shape" fill="#DCD2B4" fill-rule="nonzero"/>
      <path d="M41.3136364,55.1824818 C40.9878788,53.8686131 41.1833333,52.4890511 41.8348485,51.3065693 C44.05,49.0072993 51.6075758,50.9124088 54.2787879,51.1751825 C58.3181818,51.5036496 62.3575758,52.0291971 66.3969697,52.8175182 C66.7878788,53.2116788 66.9181818,53.8029197 66.7227273,54.3284672 C63.7257576,56.2992701 58.5136364,55.9051095 54.9954545,56.1021898 C51.2166667,56.2992701 44.4409091,57.8759124 41.3136364,55.1824818 Z" id="Shape" fill="#DCD2B4" fill-rule="nonzero"/>
      <path d="M42.7469697,63.5255474 C42.1606061,62.2116788 41.8348485,61.0291971 42.4863636,59.7153285 C49.3924242,58.3357664 57.9924242,57.6131387 65.0287879,58.3357664 C66.0712121,59.649635 66.1363636,59.8467153 66.0712121,61.0291971 C59.230303,64.5109489 50.0439394,66.0218978 42.7469697,63.5255474 Z" id="Shape" fill="#DCD2B4" fill-rule="nonzero"/>
      <path d="M45.5484848,69.8321168 C49.6530303,68.7153285 53.7575758,67.9270073 57.9924242,67.4014599 C60.1424242,67.0729927 65.4848485,64.7737226 67.3090909,66.350365 C67.6348485,68.9124088 55.6469697,72.1970803 53.8878788,72.7883212 C52.1287879,73.379562 48.35,74.5620438 46.5257576,73.9708029 C44.3106061,73.2481752 45.0272727,71.7372263 45.5484848,69.8321168 Z" id="Shape" fill="#DCD2B4" fill-rule="nonzero"/>
      <path d="M48.6106061,78.5036496 C51.6075758,76.6642336 55.4515152,76.0072993 58.7742424,74.7591241 C61.6409091,73.7080292 64.7030303,71.8686131 67.830303,72 C66.5924242,75.2189781 49.6530303,83.5620438 48.6106061,78.5036496 Z" id="Shape" fill="#DCD2B4" fill-rule="nonzero"/>
      <path d="M44.4409091,52.620438 L41.2484848,54.5912409 C41.2484848,54.5912409 43.2030303,74.9562044 49.0015152,79.0948905 L51.5424242,79.4233577 C49.3924242,74.0364964 47.5681818,68.5182482 46.0045455,62.9343066 C45.2227273,59.5182482 44.7015152,56.1021898 44.4409091,52.620438 Z" id="Shape" fill="#DCD2B4" fill-rule="nonzero"/>
      <path d="M78.0590909,62.4087591 L77.3424242,61.0948905 C77.4727273,60.6350365 77.6681818,60.1751825 77.8636364,59.7153285 C80.2742424,57.810219 87.05,59.649635 89.8515152,59.8467153 C92.9787879,60.0437956 95.9757576,60.1751825 99.0378788,60.9635036 C99.6242424,61.8832117 99.95,62.9343066 100.080303,64.0510949 C98.7121212,67.270073 92.3272727,65.5620438 89.7863636,65.2992701 C85.7469697,64.9708029 81.8378788,63.9854015 78.0590909,62.4087591 Z" id="Shape" fill="#DCD2B4" fill-rule="nonzero"/>
      <path d="M77.7333333,54.5912409 C78.6454545,51.3722628 84.8348485,52.5547445 87.1151515,52.620438 C91.0242424,52.7518248 94.8681818,52.8175182 98.7772727,52.9489051 C102.686364,57.1532847 92.1969697,57.2846715 90.8939394,57.2846715 C88.3530303,57.2189781 78.319697,58.3357664 77.7333333,54.5912409 Z" id="Shape" fill="#DCD2B4" fill-rule="nonzero"/>
      <path d="M79.1015152,66.5474453 C85.7469697,67.0729927 92.6530303,68.9781022 99.2333333,70.4233577 L99.8848485,71.4087591 C99.95,72.2627737 99.7545455,73.1167883 99.3636364,73.9051095 C96.9530303,74.1678832 76.8212121,69.5036496 79.1015152,66.5474453 Z" id="Shape" fill="#DCD2B4" fill-rule="nonzero"/>
      <path d="M79.3621212,73.5766423 C80.0136364,70.6861314 94.8681818,76.729927 97.2136364,77.5182482 L97.669697,78.8321168 C96.5621212,83.1678832 81.1212121,76.270073 79.3621212,73.5766423 Z" id="Shape" fill="#DCD2B4" fill-rule="nonzero"/>
      <path d="M94.0863636,79.620438 L97.0833333,79.6861314 C97.0833333,79.6861314 99.1681818,77.3868613 100.275758,71.8686131 C101.383333,66.0875912 101.057576,56.6277372 99.1681818,53.6715328 L96.1060606,53.6058394 C96.9530303,55.1167883 97.5393939,56.8248175 97.7348485,58.5328467 C98.1257576,60.8321168 97.8,63.7226277 97.4742424,67.1386861 C97.0833333,71.1459854 94.4772727,78.1094891 94.0863636,79.620438 Z" id="Shape" fill="#DCD2B4" fill-rule="nonzero"/>
      <path d="M71.5439394,51.9635036 C71.0878788,56.4963504 70.8924242,60.9635036 70.9575758,65.4963504 C70.8924242,68.3211679 71.0227273,71.1459854 70.9575758,73.9708029 C70.8924242,76.2043796 70.5666667,78.8978102 71.2181818,80.8686131 C72,81.3284672 72.5212121,81.0656934 73.1727273,79.8832117 C73.9545455,70.8832117 73.7590909,61.2262774 73.2378788,52.0291971 L71.5439394,51.9635036 Z" id="Shape" fill="#C8BEA0" fill-rule="nonzero"/>
      <path d="M67.1787879,80.080292 C67.569697,76.4014599 73.6287879,78.1094891 76.169697,78.3065693 C78.6454545,84.7445255 67.5045455,84.0218978 67.1787879,80.080292 Z" id="Shape" fill="#C8BEA0" fill-rule="nonzero"/>
      <path d="M68.2212121,72.8540146 C68.5469697,69.2408759 73.8893939,70.8832117 76.1045455,71.080292 C78.319697,77.4525547 68.4818182,76.7956204 68.2212121,72.8540146 Z" id="Shape" fill="#C8BEA0" fill-rule="nonzero"/>
      <path d="M69.0030303,66.2846715 C69.3287879,62.6058394 74.3454545,62.4744526 75.5833333,65.2335766 C77.4727273,69.7007299 69.2636364,70.2262774 69.0030303,66.2846715 Z" id="Shape" fill="#C8BEA0" fill-rule="nonzero"/>
      <path d="M68.4818182,59.3868613 C68.8075758,55.7737226 73.8242424,55.5766423 75.0621212,58.3357664 C76.9515152,62.8029197 68.7424242,63.2627737 68.4818182,59.3868613 Z" id="Shape" fill="#C8BEA0" fill-rule="nonzero"/>
      <path d="M69.1333333,53.2116788 C69.3939394,50.2554745 73.4333333,50.1240876 74.4106061,52.3576642 C75.9090909,55.9708029 69.3287879,56.3649635 69.1333333,53.2116788 Z" id="Shape" fill="#C8BEA0" fill-rule="nonzero"/>
      <path d="M73.3681818,79.9489051 C73.4984848,80.6058394 73.0424242,81.2627737 72.3909091,81.3941606 C72.3909091,81.3941606 72.3257576,81.3941606 72.3257576,81.3941606 C71.6742424,81.459854 71.0878788,81.0656934 70.9575758,80.4087591 C70.9575758,80.0145985 71.0878788,79.620438 71.4136364,79.4233577 C71.4787879,79.3576642 71.6090909,79.2919708 71.6742424,79.2919708 C71.8045455,79.2262774 71.9348485,79.2262774 72.0651515,79.2262774 C72.5212121,79.2919708 73.2378788,79.3576642 73.3681818,79.9489051 Z" id="Shape" fill="#DCD2B4" fill-rule="nonzero"/>
      <path d="M73.5636364,72.7226277 C73.6939394,73.379562 73.2378788,74.0364964 72.5863636,74.1678832 C72.5212121,74.1678832 72.5212121,74.1678832 72.4560606,74.1678832 C71.8045455,74.2335766 71.2181818,73.8394161 71.0878788,73.1824818 C71.0878788,72.7883212 71.2833333,72.3941606 71.6090909,72.1970803 C71.6742424,72.1313869 71.8045455,72.0656934 71.869697,72.0656934 C72,72 72.130303,72 72.2606061,72 C72.7166667,72 73.4333333,72.1313869 73.5636364,72.7226277 Z" id="Shape" fill="#DCD2B4" fill-rule="nonzero"/>
      <path d="M73.6939394,65.8248175 C73.8242424,66.4817518 73.3681818,67.2043796 72.6515152,67.270073 C72.6515152,67.270073 72.5863636,67.270073 72.5863636,67.270073 C71.9348485,67.3357664 71.3484848,66.9416058 71.2181818,66.2846715 C71.2181818,65.8905109 71.3484848,65.4963504 71.6742424,65.2992701 C71.7393939,65.2335766 71.869697,65.1678832 71.9348485,65.1678832 C72.0651515,65.1021898 72.1954545,65.1021898 72.3257576,65.1021898 C72.8469697,65.1021898 73.5636364,65.2335766 73.6939394,65.8248175 Z" id="Shape" fill="#DCD2B4" fill-rule="nonzero"/>
      <path d="M73.3681818,58.7956204 C73.4984848,59.4525547 73.0424242,60.1751825 72.3257576,60.2408759 C72.3257576,60.2408759 72.2606061,60.2408759 72.2606061,60.2408759 C71.6090909,60.3065693 71.0227273,59.9124088 70.8924242,59.2554745 C70.8924242,58.8613139 71.0227273,58.4671533 71.3484848,58.270073 C71.4136364,58.2043796 71.5439394,58.1386861 71.6090909,58.1386861 C71.7393939,58.0729927 71.869697,58.0729927 72,58.0729927 C72.5212121,58.1386861 73.2378788,58.2043796 73.3681818,58.7956204 Z" id="Shape" fill="#DCD2B4" fill-rule="nonzero"/>
      <path d="M73.3030303,52.7518248 C73.4333333,53.4087591 72.9772727,54.1313869 72.2606061,54.1970803 C72.2606061,54.1970803 72.1954545,54.1970803 72.1954545,54.1970803 C71.5439394,54.2627737 70.9575758,53.8686131 70.8272727,53.2116788 C70.8272727,52.8175182 71.0227273,52.4233577 71.2833333,52.2262774 C71.3484848,52.1605839 71.4787879,52.0948905 71.5439394,52.0948905 C71.6742424,52.0291971 71.8045455,52.0291971 71.9348485,52.0291971 C72.3909091,52.0948905 73.1075758,52.1605839 73.3030303,52.7518248 Z" id="Shape" fill="#DCD2B4" fill-rule="nonzero"/>
      <path d="M46.9166667,131.912409 C46.7212121,132.569343 47.0469697,133.291971 47.7636364,133.489051 C47.7636364,133.489051 47.8287879,133.489051 47.8287879,133.489051 C48.480303,133.686131 49.0666667,133.291971 49.2621212,132.70073 C49.3272727,132.306569 49.1969697,131.912409 48.9363636,131.649635 C48.8712121,131.583942 48.7409091,131.518248 48.6757576,131.452555 C48.5454545,131.386861 48.4151515,131.321168 48.2848485,131.321168 C47.8939394,131.386861 47.1772727,131.386861 46.9166667,131.912409 Z" id="Shape" fill="#C8BEA0" fill-rule="nonzero"/>
      <path d="M58.3181818,96.0437956 C55.7772727,93.5474453 51.0212121,93.6131387 48.2848485,95.9124088 C45.9393939,97.8832117 46.2,103.532847 49.0015152,104.518248 C52.0636364,106.357664 50.9560606,108.722628 50.1742424,111.678832 C49.3272727,114.89781 49.0666667,118.116788 48.480303,121.335766 C48.0893939,123.766423 47.2424242,126.919708 48.0242424,129.416058 C48.5454545,131.124088 49.9136364,131.912409 51.5424242,132.043796 C51.9333333,132.109489 54.4090909,131.058394 56.0378788,128.364964 C58.5136364,124.160584 60.3378788,117.262774 60.6636364,114.240876 C61.25,107.671533 60.8590909,98.4744526 58.3181818,96.0437956 Z" id="Shape" fill="#C8BEA0" fill-rule="nonzero"/>
      <path d="M50.5,98.2116788 C49.7181818,100.051095 50.1742424,101.824818 51.7378788,102.613139 C53.1060606,103.335766 54.7348485,102.810219 55.4515152,101.430657 C55.4515152,101.364964 55.5166667,101.364964 55.5166667,101.29927 C55.8424242,100.379562 55.7121212,99.3284672 55.1909091,98.540146 C55.0606061,98.3430657 54.8651515,98.1459854 54.669697,97.9489051 C54.4090909,97.7518248 54.1484848,97.5547445 53.8227273,97.4233577 C52.780303,97.0291971 51.0863636,97.2262774 50.5,98.2116788 Z" id="Shape" fill="#F0E6D2" fill-rule="nonzero"/>
      <path d="M54.9954545,138.678832 C55.0606061,138.481752 55.1257576,138.218978 55.1257576,137.890511 C55.3863636,135.459854 54.669697,134.474453 52.2590909,133.686131 C51.1515152,133.291971 49.9136364,133.489051 48.9363636,134.080292 C46.9166667,135.656934 48.0242424,138.941606 50.1742424,139.664234 L51.8030303,140.255474 C53.0409091,140.058394 54.2136364,139.861314 54.9954545,138.678832 Z" id="Shape" fill="#C8BEA0" fill-rule="nonzero"/>
      <path d="M55.9727273,141.50365 C55.7121212,140.781022 55.5818182,140.189781 54.9954545,139.927007 C54.3439394,139.861314 53.8878788,140.255474 53.3666667,140.583942 C49.1318182,151.226277 47.4378788,167.518248 45.3530303,178.751825 L46.5909091,178.751825 C49.0015152,174.547445 50.630303,163.379562 51.6075758,158.715328 C53.1060606,151.817518 55.0606061,148.467153 55.9727273,141.50365 Z" id="Shape" fill="#C8BEA0" fill-rule="nonzero"/>
      <path d="M48.8060606,178.489051 C49.5878788,178.554745 50.9560606,178.423358 51.5424242,178.948905 C51.4772727,179.145985 51.4121212,179.343066 51.4121212,179.474453 C49.9787879,180.262774 47.1772727,179.868613 45.6136364,179.934307 C43.7893939,180 42.4212121,179.80292 42.2257576,179.408759 C42.030303,178.686131 42.0954545,177.89781 42.4212121,177.240876 C42.3560606,177.372263 44.8969697,178.291971 44.8969697,178.291971 L48.8060606,178.489051 Z" id="Shape" fill="#C8BEA0" fill-rule="nonzero"/>
      <path d="M47.0469697,139.664234 C45.6787879,139.270073 45.2878788,145.708029 44.9621212,148.59854 C44.5060606,151.948905 44.1151515,152.014599 43.8545455,155.364964 C43.5939394,158.978102 42.4863636,177.240876 42.4863636,177.240876 L43.3984848,179.145985 L44.8969697,179.014599 L48.35,144 C48.2848485,144 48.4151515,140.058394 47.0469697,139.664234 Z" id="Shape" fill="#C8BEA0" fill-rule="nonzero"/>
      <path d="M85.6818182,32.3868613 C87.5060606,32.5182482 90.9590909,32.189781 92.7833333,32.2554745 C92.7833333,32.649635 92.6530303,39.6131387 90.2424242,40.2043796 C89.4606061,40.7956204 87.8318182,40.0072993 87.05,39.7445255 C85.7469697,38.4963504 85.2257576,34.3576642 85.6818182,32.3868613 Z" id="Shape" fill="#C8BEA0" fill-rule="nonzero"/>
      <path d="M74.8666667,37.5109489 C74.15,36.3941606 74.5409091,30.350365 74.8015152,29.2335766 C75.8439394,29.4306569 79.2318182,32.7153285 80.0136364,33.1094891 C80.4045455,33.7007299 79.6878788,37.8394161 79.3621212,38.2335766 C77.4075758,38.6277372 76.430303,38.4963504 74.8666667,37.5109489 Z" id="Shape" fill="#F0E6D2" fill-rule="nonzero"/>
      <path d="M93.6954545,33.8978102 C93.369697,35.4744526 93.2393939,37.1167883 93.369697,38.7591241 C94.8030303,39.6788321 95.5848485,39.7445255 97.0181818,39.1532847 C97.4090909,38.6934307 98.2560606,32.5182482 98.3863636,30.2846715 L93.6954545,33.8978102 Z" id="Shape" fill="#AAA082" fill-rule="nonzero"/>
      <path d="M85.3560606,33.7664234 C85.6818182,34.5547445 84.6393939,38.1678832 84.3787879,38.8248175 C84.0530303,39.6788321 83.0757576,40.1386861 82.2287879,39.810219 C82.0984848,39.7445255 81.9681818,39.6788321 81.8378788,39.6131387 C81.7075758,39.5474453 81.5772727,39.4160584 81.4469697,39.2846715 C81.0560606,38.2335766 80.6651515,33.5693431 81.0560606,32.5839416 C82.0333333,32.3868613 84.5090909,33.4379562 85.3560606,33.7664234 Z" id="Shape" fill="#F0E6D2" fill-rule="nonzero"/>
      <path d="M96.8227273,5.64963504 C93.0439394,2.82481752 87.7666667,2.03649635 83.2712121,0.919708029 C76.5606061,-0.722627737 58.7090909,1.11678832 53.5621212,7.62043796 C51.2166667,10.5766423 50.5,16.0948905 52.2590909,19.5109489 C54.4090909,23.5839416 58.3833333,25.2262774 62.5530303,26.3430657 C67.7,27.7226277 71.6742424,27.3941606 74.7363636,32.3211679 C76.3651515,34.8832117 78.8409091,36.1313869 81.6424242,36.5912409 C83.2060606,36.8540146 89.330303,37.2481752 90.7636364,37.0510949 C93.9560606,36.5912409 96.6924242,34.6861314 98.3212121,31.8613139 C105.878788,18.5912409 100.406061,8.34306569 96.8227273,5.64963504 Z" id="Shape" fill="#DCD2B4" fill-rule="nonzero"/>
      <path d="M93.1742424,17.8029197 C92.3924242,17.6715328 91.6757576,18.0656934 91.4151515,18.8540146 C90.7636364,20.0364964 90.2424242,21.2189781 89.8515152,22.5328467 C89.5257576,23.8467153 89.069697,25.1605839 88.6787879,26.4744526 C88.4181818,27.3941606 87.7666667,29.2992701 89.330303,29.4306569 C90.8939394,29.5620438 91.35,27.459854 92.3924242,27.3941606 C93.4348485,27.3284672 93.1090909,28.8394161 94.4772727,29.7591241 C95.8454545,30.6788321 96.0409091,29.4306569 96.2363636,29.1678832 C96.6272727,26.2773723 95.7151515,18.3941606 93.1742424,17.8029197 Z" id="Shape" fill="#C8BEA0" fill-rule="nonzero"/>
      <path d="M86.0075758,16.2262774 C88.0924242,19.4452555 85.9424242,23.3211679 82.619697,24.7007299 C79.9484848,25.8175182 76.0393939,24.7664234 74.9969697,21.350365 C74.4106061,19.5109489 74.8666667,16.9489051 76.169697,15.5693431 C76.4954545,15.1751825 76.8863636,14.7810219 77.3424242,14.4525547 C77.9287879,14.0583942 78.5151515,13.729927 79.2318182,13.5328467 C81.0560606,13.2043796 83.9227273,13.0072993 86.0075758,16.2262774 Z" id="Shape" fill="#FFFFFF" fill-rule="nonzero"/>
      <path d="M83.7924242,17.8029197 C84.3136364,18 84.6393939,18.459854 84.7045455,18.9854015 C84.5742424,19.7737226 84.5090909,20.6277372 83.4666667,20.7591241 C82.619697,20.2335766 82.880303,19.4452555 82.880303,18.7226277 C82.880303,18.2627737 83.2060606,17.9343066 83.7924242,17.8029197 Z" id="Shape" fill="#000000" fill-rule="nonzero"/>
      <path d="M109.006061,16.5547445 C111.156061,19.7737226 109.071212,23.649635 105.748485,25.0948905 C103.077273,26.2773723 99.1681818,25.2262774 98.0606061,21.8759124 C97.4742424,20.0364964 97.8651515,17.4744526 99.1681818,16.0948905 C99.4939394,15.7007299 99.8848485,15.3065693 100.275758,14.9781022 C100.862121,14.5182482 101.448485,14.2554745 102.165152,14.0583942 C103.989394,13.5328467 106.856061,13.3357664 109.006061,16.5547445 Z" id="Shape" fill="#FFFFFF" fill-rule="nonzero"/>
      <path d="M105.813636,18.1313869 C106.334848,18.3284672 106.660606,18.7883212 106.725758,19.3138686 C106.595455,20.1021898 106.595455,20.9562044 105.487879,21.0875912 C104.640909,20.5620438 104.901515,19.7737226 104.901515,19.0510949 C104.901515,18.5912409 105.292424,18.1970803 105.813636,18.1313869 Z" id="Shape" fill="#000000" fill-rule="nonzero"/>
      <path d="M51.2166667,141.766423 C46.5909091,140.518248 45.4833333,135.788321 43.5287879,131.715328 C41.4439394,127.116788 39.8151515,122.321168 38.7075758,117.394161 C37.6651515,112.992701 36.6878788,108.591241 35.319697,104.321168 C34.6681818,102.153285 34.0818182,99.7883212 32.7136364,97.8832117 C31.280303,95.9124088 25.7424242,89.4087591 32.6484848,85.270073 C39.5545455,81.1313869 40.6621212,97.2919708 41.0530303,98.9343066 C42.2909091,104.189781 44.4409091,109.510949 46.069697,114.70073 C47.6333333,119.693431 50.2393939,124.357664 51.9333333,129.284672 C53.6924242,134.211679 55.7772727,138.350365 51.2166667,141.766423 Z M35.7757576,94.9927007 C34.0818182,96.5693431 36.2969697,103.270073 36.8181818,105.306569 C37.7954545,108.985401 39.0984848,112.59854 40.3363636,116.211679 C41.3787879,119.29927 42.2909091,122.386861 43.2030303,125.540146 C44.05,128.233577 45.0272727,134.080292 47.8939394,135.394161 L50.1090909,134.80292 C50.6954545,131.649635 48.2848485,127.708029 47.3727273,124.751825 C46.2651515,121.138686 45.3530303,117.525547 44.2454545,113.912409 C43.2681818,110.890511 39.1636364,94.3357664 35.7757576,94.9927007 Z" id="Shape" fill="#DCD2B4" fill-rule="nonzero"/>
      <path d="M34.2121212,89.9343066 L33.430303,89.9343066 C30.4984848,85.0072993 31.6712121,77.2554745 31.7363636,71.8029197 C31.7363636,67.8613139 31.6712121,63.8540146 31.7363636,59.9124088 C31.8015152,57.0218978 31.7363636,52.7518248 33.1045455,49.9270073 C33.4954545,49.2043796 35.7106061,46.8394161 36.1015152,49.0072993 C37.5348485,56.2992701 37.2090909,80.080292 34.2121212,89.9343066 Z" id="Shape" fill="#C8BEA0" fill-rule="nonzero"/>
      <path d="M35.9712121,87.5693431 C37.0136364,89.1459854 36.6878788,91.2481752 35.2545455,92.3649635 C34.0166667,93.2846715 32.3227273,92.9562044 31.4106061,91.7080292 C31.4106061,91.6423358 31.3454545,91.6423358 31.3454545,91.5766423 C30.8893939,90.7226277 30.8242424,89.6715328 31.280303,88.8175182 C31.4106061,88.5547445 31.5409091,88.3576642 31.6712121,88.1605839 C31.8666667,87.8978102 32.1272727,87.7007299 32.4530303,87.5693431 C33.6909091,87.1751825 34.8636364,87.1751825 35.9712121,87.5693431 Z" id="Shape" fill="#C8BEA0" fill-rule="nonzero"/>
      <path d="M51.4772727,148.927007 C50.8909091,148.072993 50.5651515,147.021898 50.5,145.970803 C50.4348485,144.788321 50.8909091,143.671533 51.6727273,142.751825 C52.2590909,142.029197 53.2363636,141.832117 54.1484848,141.766423 C54.4742424,141.766423 54.8,141.89781 54.9954545,142.160584 C55.6469697,142.751825 56.2333333,143.408759 56.7545455,144.065693 C57.5363636,145.445255 57.4712121,147.087591 56.6242424,148.40146 C56.5590909,148.532847 56.4939394,148.59854 56.3636364,148.664234 C55.4515152,149.255474 54.4090909,149.715328 53.3015152,149.912409 C52.519697,150.109489 51.9984848,149.781022 51.4772727,148.927007 Z" id="Shape" fill="#AAA082" fill-rule="nonzero"/>
      <path d="M67.3742424,158.189781 L66.0712121,158.912409 C65.55,158.846715 65.0287879,158.518248 64.7030303,158.058394 C63.2045455,156.284672 61.6409091,154.510949 60.0772727,152.671533 C59.3606061,151.883212 58.7742424,151.029197 58.3181818,150.109489 C58.0575758,149.715328 57.9272727,149.189781 58.0575758,148.729927 C58.3181818,148.40146 58.6439394,148.467153 58.969697,148.59854 C59.9469697,148.927007 60.8590909,149.583942 61.5757576,150.372263 C62.4878788,151.489051 63.5954545,152.408759 64.5075758,153.525547 C65.2893939,154.510949 66.0712121,155.562044 66.7227273,156.678832 C66.9833333,157.20438 67.1787879,157.664234 67.3742424,158.189781 Z" id="Shape" fill="#C8BEA0" fill-rule="nonzero"/>
      <path d="M63.8560606,162.459854 C63.1393939,162.525547 62.4227273,162.19708 62.0318182,161.540146 C61.4454545,160.817518 60.8590909,160.094891 60.3378788,159.437956 C59.1,157.927007 57.9272727,156.350365 56.819697,154.773723 C56.3636364,154.051095 55.9075758,153.262774 55.5166667,152.474453 C55.1909091,152.014599 55.2560606,151.357664 55.5818182,150.963504 C55.7121212,151.029197 55.9075758,151.094891 56.0378788,151.226277 C56.4287879,151.686131 56.8848485,152.014599 57.4060606,152.277372 C57.6015152,152.408759 57.7969697,152.540146 57.9924242,152.737226 C59.230303,154.248175 60.7287879,155.562044 61.9015152,157.270073 C62.6181818,158.255474 63.2045455,159.372263 63.7257576,160.489051 C63.9863636,161.080292 64.0515152,161.80292 63.8560606,162.459854 Z" id="Shape" fill="#C8BEA0" fill-rule="nonzero"/>
      <path d="M59.8818182,161.80292 C57.7318182,160.620438 53.4318182,154.773723 52.9106061,152.277372 C53.6272727,152.277372 54.2787879,152.605839 54.669697,153.19708 C55.5166667,154.379562 56.2984848,155.562044 57.1454545,156.744526 C57.6666667,157.467153 58.1878788,158.189781 58.7090909,158.846715 C59.4909091,159.635036 59.8818182,160.686131 59.8818182,161.80292 Z" id="Shape" fill="#C8BEA0" fill-rule="nonzero"/>
      <path d="M65.0287879,147.021898 C64.3121212,147.284672 63.530303,147.153285 62.8787879,146.759124 C62.5530303,146.562044 62.2272727,146.364964 61.9666667,146.10219 C60.3378788,144.722628 58.6439394,143.540146 56.819697,142.423358 C56.6893939,142.291971 56.4939394,142.160584 56.3636364,142.029197 C56.5590909,141.832117 56.7545455,141.70073 56.95,141.569343 C57.7969697,141.175182 58.7742424,141.175182 59.6212121,141.50365 C61.380303,142.357664 63.2045455,143.145985 64.7681818,144.525547 C65.7454545,145.445255 65.7454545,145.839416 65.0287879,147.021898 Z" id="Shape" fill="#C8BEA0" fill-rule="nonzero"/>
    </g>
  </g>
</svg>