<svg width="194px" height="112px" viewBox="0 0 194 112" version="1.1" xml:space="preserve" xmlns="http://www.w3.org/2000/svg" xmlns:xlink="http://www.w3.org/1999/xlink">
  <defs>
    <polygon id="path-1" points="0 0.603256716 17.7427078 0.603256716 17.7427078 5.36599028 0 5.36599028"/>
  </defs>
  <g>
    <title>zebra-c</title>
    <desc>Created with Sketch.</desc>
    <g id="zebra-c" stroke="none" stroke-width="1" fill="none" fill-rule="evenodd">
      <g id="Group" transform="translate(1.000000, 0.000000)">
        <path d="M31.9209984,34.9962416 C31.9209984,35.1841611 32.2964848,40.5714362 30.7322086,54.5398658 C29.1671813,68.5082953 18.1023486,71.1955436 16.4637261,71.8126711 C14.9768,72.3726711 14.6959362,71.983302 15.2118545,74.5848591 C17.402442,85.4841879 16.5883875,108.284832 16.5883875,108.284832 C16.5883875,108.284832 24.7867572,105.403651 23.7857105,104.589584 C21.6574537,102.960698 21.4697105,100.217074 21.4697105,100.217074 C21.4697105,100.217074 21.4073798,92.1237584 21.4697105,85.2609396 C21.5320412,78.3981208 23.2840607,78.969396 23.2840607,78.969396 C23.2840607,78.969396 37.8033681,80.0969128 49.4434459,69.9808322 C63.336442,58.3606443 62.0853214,43.264698 62.0853214,43.264698 C62.0853214,43.264698 55.5526093,46.7825503 50.0014187,49.1029799 C42.768049,52.1277315 31.9209984,34.9962416 31.9209984,34.9962416" id="Fill-1" fill="#B1B6CC"/>
        <path d="M62.0853214,43.264698 C62.0853214,43.264698 63.336442,58.3606443 49.4434459,69.9808322 C37.8033681,80.0969128 23.2840607,78.969396 23.2840607,78.969396 C23.2840607,78.969396 21.5320412,78.3981208 21.4697105,85.2609396 C21.4073798,92.1237584 21.4697105,100.217074 21.4697105,100.217074 C21.4697105,100.217074 21.6574537,102.960698 23.7857105,104.589584 C24.7867572,105.403651 16.5883875,108.284832 16.5883875,108.284832 C16.5883875,108.284832 17.402442,85.4841879 15.2118545,74.5848591 C14.6959362,71.983302 14.9768,72.3726711 16.4637261,71.8126711 C18.1023486,71.1955436 29.1671813,68.5082953 30.7322086,54.5398658 C32.2964848,40.5714362 31.9209984,35.1841611 31.9209984,34.9962416" id="Stroke-3" stroke="#424763" stroke-width="0.5625"/>
        <path d="M17.7779284,111.322738 C17.7779284,111.322738 18.4808389,110.205745 18.0663019,107.741745 C18.4087455,107.610953 23.4883253,105.236403 23.4883253,105.236403 L27.1020062,107.908617 L28.7916949,111.322738 L17.7779284,111.322738 Z" id="Fill-5" fill="#313753"/>
        <path d="M39.6808,48.0878389 C39.6808,48.0878389 45.8733214,63.4949799 52.5674926,67.0579329 C52.8228233,67.1932349 50.1741424,69.353557 50.1741424,69.353557 C50.1741424,69.353557 44.1243058,64.4992215 39.6808,48.0878389" id="Fill-7" fill="#424763"/>
        <path d="M31.8000167,42.1929557 C31.8000167,42.1929557 38.9259973,59.5875329 43.1855148,65.0003651 C46.4394798,69.1360966 36.4890907,60.0520698 31.4831062,47.7749154" id="Fill-9" fill="#424763"/>
        <path d="M31.0989086,51.0798174 C31.0989086,51.0798174 38.1933482,69.819898 43.825644,73.9541262 L40.1819241,75.9002201 C40.1819241,75.9002201 32.3447724,62.7473611 30.7804961,54.1030658 C30.9825078,52.0344483 31.0989086,51.0798174 31.0989086,51.0798174" id="Fill-11" fill="#424763"/>
        <path d="M29.5793903,59.7299758 C29.5793903,59.7299758 31.5259117,75.0228617 35.5714019,77.4109423 L32.1019078,78.2483114 C32.1019078,78.2483114 28.1683125,73.3436134 27.4804214,64.0002577 C27.8529039,63.1839356 29.5793903,59.7299758 29.5793903,59.7299758" id="Fill-13" fill="#424763"/>
        <path d="M23.9880977,67.8872591 C23.9880977,67.8872591 26.6059887,77.3576483 28.1079342,78.8309369 L25.3481093,78.9978094 C25.3481093,78.9978094 22.408051,74.5847087 22.1196774,69.3537826 C22.0986502,68.9764403 23.9880977,67.8872591 23.9880977,67.8872591" id="Fill-15" fill="#424763"/>
        <path d="M18.0096786,71.2774765 C18.2559977,71.2353826 22.1197525,78.5304161 22.7911222,79.1054497 C22.7911222,79.1054497 21.5910677,80.5125906 21.7788109,81.389047 C21.9665541,82.266255 15.2115541,74.5841074 15.2115541,74.5841074 C15.2115541,74.5841074 14.7346864,72.9770201 15.0455891,72.5169933 C15.3917875,72.006604 16.7976086,71.4826846 18.0096786,71.2774765" id="Fill-17" fill="#424763"/>
        <path d="M21.4697105,85.2610148 L16.328551,84.1056859 C16.328551,84.1056859 16.3383136,87.8016859 16.5260568,87.7392966 C16.7138,87.6761557 21.4509362,88.1143839 21.4509362,88.1143839 L21.4697105,85.2610148 Z" id="Fill-19" fill="#424763"/>
        <polygon id="Fill-21" fill="#424763" points="21.4697105 91.3093154 16.6356988 90.8748456 16.7100451 94.5685906 21.4449284 94.817396"/>
        <path d="M21.4624261,99.1395436 L16.7350525,99.3898523 L16.6351732,104.589208 C16.6351732,104.589208 20.776037,103.555651 22.1195272,102.835544 C22.4341848,102.666416 21.2746829,100.956349 21.4624261,99.1395436" id="Fill-23" fill="#424763"/>
        <path d="M16.2671965,55.170749 C30.535679,50.3630174 32.6489163,34.3778362 32.6489163,34.3778362" id="Stroke-25" stroke="#424763" stroke-width="1.5"/>
        <path d="M17.9143802,54.894357 C17.9143802,54.894357 17.7206292,55.0589745 17.3714268,55.3258201 C17.1836837,55.4641289 16.9794191,55.6279946 16.7248393,55.8031356 C16.483777,55.9888 16.1766292,56.1714577 15.9002712,56.4059812 C15.6261661,56.6299812 15.2912323,56.8923168 15.0051117,57.1050416 C14.6859482,57.3929342 14.3540183,57.7026255 13.9920494,57.9987866 C13.6683802,58.3092295 13.3619833,58.6444779 13.0232946,58.9571758 C12.6958704,59.302196 12.3624385,59.6524779 12.0305086,60.0027597 C11.3696525,60.7303839 10.7095475,61.4572564 10.0899949,62.1397799 C9.79185875,62.4893101 9.50724008,62.8132832 9.22412335,63.1244779 C8.93650078,63.4311624 8.70520117,63.7468671 8.47014669,64.0287463 C8.25161362,64.3203973 8.00229066,64.5654443 7.83632568,64.8127463 C7.67336459,65.0608 7.51566031,65.2735248 7.38724397,65.4524242 C7.12815837,65.8079678 6.96219339,66.0131758 6.96219339,66.0131758 C6.96219339,66.0131758 7.00800272,65.7658738 7.11464086,65.3299007 C7.17021284,65.1134174 7.23629844,64.8458201 7.32866809,64.542894 C7.41578093,64.2369611 7.57648911,63.9265181 7.7364463,63.5739812 C7.90166031,63.2252027 8.06687432,62.8313235 8.3154463,62.4675114 C8.54824786,62.0954309 8.78855914,61.6827597 9.06867198,61.299404 C9.35028677,60.9258201 9.62589377,60.5281826 9.93304163,60.1455785 C10.2627187,59.7389208 10.5916447,59.3705987 10.9280805,58.9819812 C11.2915514,58.6181691 11.6467615,58.2505987 12.017742,57.9048268 C12.4112518,57.5643168 12.817528,57.2456054 13.1990222,56.9449342 C13.5812673,56.6773369 13.9695202,56.4413101 14.3322401,56.2120483 C14.7708082,55.9692564 15.1320261,55.8174174 15.493244,55.6490416 C15.8424463,55.4686389 16.1751272,55.3957262 16.4672556,55.2927463 C16.7556292,55.1965315 17.0237265,55.1213638 17.2272401,55.0657396 C17.6605514,54.9492295 17.9143802,54.894357 17.9143802,54.894357" id="Fill-27" fill="#424763"/>
        <path d="M3.84460506,61.9916242 C3.84460506,61.9916242 3.86863619,61.9397584 3.91444553,61.8427919 C3.96250778,61.7465772 4.01582685,61.6015034 4.11946109,61.4248591 C4.22685019,61.2624966 4.35376459,61.0617987 4.51146887,60.8453154 C4.66541829,60.6258255 4.8967179,60.3950604 5.14078405,60.141745 C5.38710311,59.8959463 5.65520039,59.6584161 5.95183463,59.4126174 C6.09752335,59.2938523 6.24696693,59.1713289 6.40016537,59.0465503 L6.51581518,58.9518389 L6.54435214,58.9285369 L6.60292802,58.8902013 L6.66450778,58.8481074 L6.91533268,58.6774765 C7.60397471,58.2242148 8.28060117,57.7093154 9.10216537,57.3222013 C9.92222763,56.9493691 10.7452938,56.5291812 11.5428268,56.3066846 C11.9370875,56.1728859 12.3260914,56.0706577 12.6925661,55.9684295 C13.0590409,55.864698 13.4059903,55.7722416 13.7356673,55.7218792 C15.0423599,55.4798389 15.9427763,55.4497718 15.9427763,55.4497718 C15.9427763,55.4497718 15.1903016,55.9639195 14.018784,56.5374497 C13.4352782,56.8321074 12.7751732,57.2004295 12.0444767,57.5311678 C11.6704922,57.6860134 11.316784,57.8919732 10.9533132,58.0798926 C10.5883405,58.2715705 10.2121031,58.4512215 9.83661673,58.6323758 C9.45587354,58.7872215 9.08264008,59.026255 8.70640272,59.2277047 C8.33316926,59.4389262 7.9516751,59.6215839 7.58970623,59.8117584 C6.8845428,60.1823356 6.22593969,60.5288591 5.66120817,60.8250201 C5.40287354,60.9873826 5.1392821,61.0971275 4.91549222,61.2504698 C4.69620817,61.4060671 4.49344553,61.530094 4.32973346,61.6353289 C4.02108366,61.8623356 3.84460506,61.9916242 3.84460506,61.9916242" id="Fill-29" fill="#424763"/>
        <g id="Group-33" transform="translate(0.000000, 54.289181)">
          <mask id="mask-2" fill="white">
            <use xlink:href="#path-1"/>
          </mask>
          <g id="Clip-32"/>
          <path d="M0.000976264591,5.29324027 C0.000976264591,5.30000537 0.0655599222,5.33909262 0.190972374,5.28497181 C0.316384825,5.24212617 0.48910856,5.14215302 0.70914358,5.02489128 C1.14846265,4.77834094 1.76125642,4.39648859 2.50396848,3.95525369 C2.68945875,3.84325369 2.88320973,3.72674362 3.08296848,3.60572349 C3.30225253,3.48169664 3.44944319,3.37646174 3.77161051,3.23439463 C4.22820195,3.03745503 4.70807354,2.82247517 5.21272724,2.62854228 C5.71738093,2.43160268 6.23329922,2.21286443 6.76724086,2.01893154 C7.28691401,1.79944161 7.87943152,1.67992483 8.44115914,1.51380403 C9.01340039,1.36948188 9.58489066,1.22440805 10.1481202,1.08234094 C10.4409996,1.0124349 10.6835638,0.948542282 11.0147428,0.890663087 C11.2918518,0.853079195 11.5644549,0.816998658 11.8333031,0.780918121 C12.1014004,0.747844295 12.3642409,0.70424698 12.6255794,0.680944966 C12.8936767,0.668166443 13.1565171,0.655387919 13.4110969,0.642609396 C13.9210074,0.61329396 14.4061358,0.60277047 14.8349412,0.605025503 C15.2682525,0.599012081 15.6670191,0.60953557 16.0222292,0.618555705 C16.3729335,0.612542282 16.6808323,0.620810738 16.936163,0.625320805 C17.4453226,0.637347651 17.7427078,0.657642953 17.7427078,0.657642953 C17.7427078,0.657642953 17.4701047,0.762126174 16.9797195,0.920730201 C16.4908362,1.08609933 15.7834198,1.28830067 14.9310658,1.46344161 C14.4992564,1.55664966 14.0524276,1.66263624 13.5770619,1.75283758 C13.1062019,1.83777718 12.6053031,1.95804564 12.0721125,2.08282416 C11.809272,2.14371007 11.5404237,2.20459597 11.2685716,2.26698523 C11.0162447,2.3429047 10.7594121,2.41957584 10.5010774,2.49775034 C9.96638482,2.64658255 9.42268054,2.79917315 8.87897626,2.95101208 C8.33226809,3.10435436 7.78480895,3.20357584 7.24335759,3.39525369 C6.70340817,3.57189799 6.16270778,3.71922685 5.64453658,3.87632752 C5.12711634,4.0364349 4.61720584,4.16346846 4.13733424,4.29125369 C3.9923965,4.31831409 3.71453658,4.44609933 3.50877004,4.51224698 C3.2864821,4.58891812 3.07095292,4.66333423 2.86443541,4.73474362 C2.03536148,5.02038121 1.32193735,5.2105557 0.809022957,5.30451544 C0.553692218,5.35562953 0.345672763,5.36915973 0.202236965,5.36540134 C0.0490385214,5.36840805 -0.00878638132,5.29399195 0.000976264591,5.29324027" id="Fill-31" fill="#424763" mask="url(#mask-2)"/>
        </g>
        <path d="M3.84460506,56.1368054 C3.84460506,56.1368054 4.58431323,55.6264161 5.75658171,55.0498792 C6.0381965,54.8867651 6.39190467,54.7897987 6.75988132,54.6785503 C7.12935992,54.5680537 7.5213677,54.4432752 7.93440272,54.3448054 C8.14842996,54.2914362 8.33316926,54.2380671 8.58249222,54.1839463 C8.78750778,54.1478658 8.99552724,54.1140403 9.20655058,54.0869799 C9.62709533,54.0253423 10.0559008,53.9772349 10.4839553,53.9268725 C10.9105078,53.8810201 11.3655973,53.8787651 11.7989086,53.8667383 C12.2352237,53.8524564 12.6662821,53.8659866 13.0800681,53.872 C13.9038852,53.9306309 14.6698774,54.0118121 15.3202198,54.119302 C16.6224066,54.3861477 17.4559864,54.6965906 17.4559864,54.6965906 C17.4559864,54.6958389 16.5675856,54.8897718 15.287177,54.9822282 C14.6450953,55.0694228 13.9016323,55.1498523 13.1078541,55.1957047 C12.7135934,55.2295302 12.30957,55.2949262 11.898037,55.3219866 C11.4835,55.3663356 11.0734689,55.3670872 10.6439125,55.4212081 C10.2136051,55.463302 9.78479961,55.5068993 9.36125097,55.5354631 C9.14872568,55.5535034 8.93845331,55.5640268 8.73043385,55.5722953 C8.54043774,55.596349 8.35269455,55.6204027 8.16795525,55.6437047 C7.78796304,55.7000805 7.41247665,55.7256376 7.05351167,55.7572081 C6.69755058,55.799302 6.34985019,55.7872752 6.02768288,55.8654497 C4.74276848,56.1037315 3.84460506,56.1368054 3.84460506,56.1368054" id="Fill-34" fill="#424763"/>
        <g id="Group-39" transform="translate(103.634241, 55.792537)">
          <path d="M23.0875311,2.12987919 C23.0875311,2.12987919 19.7584689,4.57283221 18.6883327,7.51715436 C17.6181965,10.4607248 11.5788735,26.5902282 11.5788735,26.5902282 C11.5788735,26.5902282 11.7756284,27.946255 12.1038035,29.1932886 C12.4102004,30.3576376 10.9082549,32.6983624 9.4513677,35.3292349 C7.99372957,37.9601074 6.94011479,41.717745 6.89956226,43.7224698 C6.8597607,45.7271946 7.82025486,47.0426309 7.82025486,47.0426309 C7.77820039,49.4976107 8.03878794,49.7749799 8.119893,51.2084295 C8.15819261,51.8781745 2.33139494,51.7361074 1.71334436,51.6609396 C0.802414397,51.550443 2.46807198,50.6604564 2.01899027,49.6577181 C1.57065953,48.6557315 -0.11827821,47.7048591 1.13434436,45.637745 C2.38696693,43.5706309 3.34971401,42.4701745 4.26665175,39.0876242 C5.18434047,35.7050738 4.98533268,30.6154631 4.66692023,30.114094 C4.34850778,29.6134765 5.93230934,28.3130738 6.46174514,25.995651 C6.99118093,23.6782282 8.69138327,11.0876242 7.66330156,5.82587919 C7.66330156,5.82587919 11.8627412,3.57084564 12.199177,0.0627651007" id="Fill-36" fill="#B1B6CC"/>
          <path d="M23.0875311,2.12987919 C23.0875311,2.12987919 19.7584689,4.57283221 18.6883327,7.51715436 C17.6181965,10.4607248 11.5788735,26.5902282 11.5788735,26.5902282 C11.5788735,26.5902282 11.7756284,27.946255 12.1038035,29.1932886 C12.4102004,30.3576376 10.9082549,32.6983624 9.4513677,35.3292349 C7.99372957,37.9601074 6.94011479,41.717745 6.89956226,43.7224698 C6.8597607,45.7271946 7.82025486,47.0426309 7.82025486,47.0426309 C7.77820039,49.4976107 8.03878794,49.7749799 8.119893,51.2084295 C8.15819261,51.8781745 2.33139494,51.7361074 1.71334436,51.6609396 C0.802414397,51.550443 2.46807198,50.6604564 2.01899027,49.6577181 C1.57065953,48.6557315 -0.11827821,47.7048591 1.13434436,45.637745 C2.38696693,43.5706309 3.34971401,42.4701745 4.26665175,39.0876242 C5.18434047,35.7050738 4.98533268,30.6154631 4.66692023,30.114094 C4.34850778,29.6134765 5.93230934,28.3130738 6.46174514,25.995651 C6.99118093,23.6782282 8.69138327,11.0876242 7.66330156,5.82587919 C7.66330156,5.82587919 11.8627412,3.57084564 12.199177,0.0627651007" id="Stroke-38" stroke="#424763" stroke-width="0.5625"/>
        </g>
        <path d="M105.347661,107.453477 L104.440486,111.416322 L115.077264,111.416322 C115.077264,111.416322 112.718458,108.738846 112.543482,107.799248 C112.543482,107.799248 111.807528,107.502336 111.405007,107.251275" id="Fill-40" fill="#424763"/>
        <path d="M111.577656,63.1345503 C112.332383,63.0744161 121.763099,61.9235973 121.763099,61.9235973 L111.616706,66.7388456 L111.577656,63.1345503 Z" id="Fill-42" fill="#313753"/>
        <path d="M114.038143,67.9603221 C114.038143,67.9603221 120.340306,66.742604 121.055232,66.7388456 C121.366886,66.738094 120.162326,69.1359463 120.162326,69.1359463 L114.038143,67.9603221 Z" id="Fill-44" fill="#313753"/>
        <path d="M119.847893,69.9804564 C119.847893,69.9804564 112.45757,70.9907114 111.726123,71.3898523 C110.993925,71.7889933 111.352139,73.6448859 111.352139,73.6448859 L119.401065,71.1786309 L119.847893,69.9804564 Z" id="Fill-46" fill="#424763"/>
        <path d="M111.057006,76.1582711 C111.057006,76.1582711 116.614205,76.2755329 117.478574,75.899694 L116.530096,78.5072644 L110.693535,79.5874255 L111.057006,76.1582711 Z" id="Fill-48" fill="#424763"/>
        <path d="M109.635715,83.4636779 C109.635715,83.4636779 114.196373,83.6982013 115.189159,83.2291544 C115.189159,83.2291544 115.807209,85.2722148 115.580416,85.7660671 C115.580416,85.7660671 109.001894,87.3370738 108.75933,87.2927248 L108.478466,85.4841879 L109.635715,83.4636779 Z" id="Fill-50" fill="#424763"/>
        <path d="M108.745362,90.4302282 C108.745362,90.4302282 112.631646,90.7331544 113.470482,90.4324832 C113.69277,90.3385235 112.111222,92.7889933 112.111222,92.7889933 C112.111222,92.7889933 108.911327,93.0077315 108.552362,92.9603758 C108.194148,92.9137718 108.414183,91.2758658 108.745362,90.4302282" id="Fill-52" fill="#424763"/>
        <path d="M108.159453,95.3965638 C108.159453,95.3965638 110.380079,95.5837315 111.070974,95.3928054 C111.371363,95.2747919 110.599363,97.722255 110.599363,97.722255 C110.599363,97.722255 108.425297,98.2153557 107.279313,97.8162148 C106.823472,97.6515973 107.243266,97.2051007 107.243266,97.2051007 L107.838037,95.3928054 L108.159453,95.3965638 Z" id="Fill-54" fill="#424763"/>
        <path d="M105.67914,100.217149 C105.781272,100.193847 107.42365,100.992129 109.808739,100.282545 C111.230331,99.8593503 110.730183,101.621283 110.730183,101.621283 C110.730183,101.621283 107.37784,102.806679 105.097887,102.65484 C103.333101,102.537579 105.67914,100.217149 105.67914,100.217149" id="Fill-56" fill="#424763"/>
        <path d="M162.368046,26.007302 C162.368046,26.007302 159.522611,34.113396 163.371346,38.1063087 C166.059828,40.8965369 176.905377,46.1800805 179.358805,51.6583087 C179.667455,52.4077315 179.90326,53.0534228 180.01891,53.6788188 C180.149579,54.3861477 180.124797,55.0664161 179.874723,55.8398926 C179.874723,55.8398926 183.347972,58.846604 187.713377,56.6381745 C192.078782,54.4304966 193.956214,49.1326711 191.140066,41.7278926 C188.323918,34.3231141 188.238307,34.185557 186.540358,28.5915705 C184.969323,23.4155168 185.069202,22.1121074 181.83326,17.1119463 C181.83326,17.1119463 183.703182,15.4131544 186.448739,16.7676779 C186.448739,16.7676779 189.781556,4.91522148 178.238354,1.44322148 C167.793074,-1.69804027 140.292451,2.81127517 133.503657,6.48322148 C126.864307,10.0747383 126.265782,13.0213154 126.75842,14.3841074 C127.251058,15.7461477 130.782883,17.1119463 130.782883,17.1119463" id="Fill-58" fill="#D3D5DF"/>
        <path d="M173.386995,10.5391248 C173.386995,10.5391248 170.206625,8.62460134 162.603026,10.0655678 C156.08308,11.3005745 138.603438,14.7635544 134.848574,15.389702 C131.093711,16.0166013 126.462461,14.9514738 120.204605,15.389702 C113.946749,15.8286819 106.687096,17.0185879 102.181259,16.7682792 C97.6754226,16.5172188 89.0392358,16.7051383 85.284372,15.452843 C81.5295082,14.199796 65.8221619,9.31388993 57.1236444,11.1930846 C48.4243759,13.0722792 37.035123,22.4058631 34.9068661,25.4125745 C32.7786093,28.4192859 32.2161307,31.8010846 32.1538,34.1816483 C32.0907183,36.5622121 31.2774148,55.3541584 48.9876054,50.2179436 C62.1919595,46.5219436 59.1565276,46.4437691 63.1456949,50.1081987 C66.0219206,52.7495946 79.6670957,69.4165477 95.9864848,70.0118765 C112.622784,70.6192322 126.556333,71.4836617 138.318068,53.605004 C146.832598,40.834749 158.477181,36.5238765 161.650792,34.789004" id="Fill-60" fill="#D3D5DF"/>
        <path d="M177.202687,14.6557638 C177.202687,14.6557638 175.142769,16.6116295 174.517209,16.5492403 C173.891648,16.4860993 173.52217,12.6991463 176.95787,8.8505557 C180.295944,5.11246174 182.407679,3.22800537 182.407679,3.22800537 C182.407679,3.22800537 181.520781,9.50526711 177.202687,14.6557638" id="Fill-62" fill="#C0A1A7"/>
        <path d="M171.4223,44.0156242 C171.4223,44.0156242 173.987623,36.7183356 179.110759,35.4968591 C179.110759,35.4968591 174.229436,41.4163221 174.692786,46.4984161" id="Fill-64" fill="#424763"/>
        <path d="M177.641255,40.4143356 C177.566158,40.4789799 179.862633,36.4680268 183.555166,37.1573154 C187.246948,37.8458523 188.279535,40.4143356 188.279535,40.4143356 C188.279535,40.4143356 181.865477,36.749906 177.641255,40.4143356" id="Fill-66" fill="#424763"/>
        <path d="M175.207953,46.936043 C175.207953,46.936043 175.607471,43.3873718 177.42107,41.7614926 C178.923016,40.4152376 182.428556,40.6963651 184.39986,40.9977879 C185.206405,41.1218148 185.932595,42.1997208 184.618393,42.4500295 C183.304191,42.7010899 180.644245,41.9178416 179.110759,43.4835866 C177.578023,45.0500832 177.014794,46.8037477 176.984004,47.367506 C176.951712,47.9312644 181.55142,43.5775463 184.242907,45.1748617 C185.024669,45.8957208 178.962817,46.2076671 178.114218,49.9668081" id="Fill-68" fill="#424763"/>
        <path d="M190.28238,40.8345235 C190.28238,40.8345235 188.624232,38.2818255 187.184617,37.0776376 C185.745002,35.872698 183.459041,33.3365369 182.959644,31.6760805 C182.459496,30.0163758 186.151279,34.7143624 187.340819,35.9042685 C188.53036,37.0941745 189.287341,37.732349 189.287341,37.732349" id="Fill-70" fill="#424763"/>
        <path d="M186.861248,31.4756832 C186.861248,31.4756832 184.99433,29.8595758 184.055614,28.2622604 C183.5044,27.3249181 182.710622,24.1596027 182.710622,24.1596027 C182.710622,24.1596027 182.263042,27.2843275 183.26484,29.1319517 C184.266637,30.9803275 187.323096,34.8710121 188.583229,36.6878174" id="Fill-72" fill="#424763"/>
        <path d="M184.524672,35.7479195 C184.524672,35.7479195 181.958598,33.3673557 181.614652,32.2090201 C181.270707,31.0499329 180.863679,31.1935034 179.643349,31.325047 C178.423018,31.4573423 176.028917,31.3002416 175.208104,30.8935839 C174.386539,30.4861745 174.270139,29.9848054 173.154193,30.8935839 C172.039749,31.8016107 167.908648,35.1841611 168.066353,41.3231141 C168.082123,41.9815839 169.16052,42.7009396 169.16052,42.4679195 L170.367333,43.2819866 C170.367333,43.2819866 169.900979,38.941047 171.42245,35.4976107 C172.321364,33.4613154 173.822559,32.2142819 174.284407,32.2142819 C174.746255,32.2142819 175.388337,33.4928859 177.265769,33.117047 C179.143201,32.7412081 180.425862,32.0211007 180.613605,32.3653691 C180.801349,32.7096376 183.006956,35.4818255 184.524672,35.7479195" id="Fill-74" fill="#424763"/>
        <path d="M181.45845,24.002953 C181.45845,24.002953 178.320135,19.5552752 180.70222,15.8472483 C180.87194,15.5834094 182.279263,18.0917584 182.279263,18.0917584 C182.279263,18.0917584 180.301952,21.9065235 181.45845,24.002953" id="Fill-76" fill="#424763"/>
        <path d="M180.274842,15.1707383 C180.18097,15.1707383 177.234153,17.1281074 175.88841,22.3116779 C175.193009,24.987651 175.387511,24.5982819 175.043565,24.159302 C174.69962,23.7210738 173.760904,20.9022819 175.732207,17.8324295 C177.703511,14.7633289 178.407923,13.4411275 178.407923,13.4411275" id="Fill-78" fill="#424763"/>
        <path d="M164.312991,39.1241557 C164.406862,39.0925852 168.754244,33.586545 170.037656,30.7053638 C171.320318,27.8234309 172.509107,23.5328537 172.509107,21.8415785 C172.509107,20.1503034 170.507014,26.1952966 167.34617,30.7993235 C165.214909,33.9030013 162.65259,35.4973101 162.65259,35.4973101 C162.65259,35.4973101 167.644306,29.9228671 167.847068,24.9738201 C168.050582,20.0240215 166.407454,26.6613369 164.593104,29.1704376 C163.305185,30.9504107 161.845294,32.6469477 161.188193,33.3986255" id="Fill-80" fill="#424763"/>
        <path d="M164.312991,39.1241557 C164.312991,39.1241557 160.775158,35.9039678 161.401469,33.430196" id="Fill-82" fill="#424763"/>
        <path d="M171.206695,9.87779866 C171.206695,9.87779866 169.285707,11.3232752 169.441909,13.2340403 C169.598863,15.1440537 169.535781,19.4609396 168.409322,21.3093154 C167.56673,22.6924027 165.343851,24.8166443 165.343851,24.8166443 C165.343851,24.8166443 166.719633,21.6791409 166.719633,18.9573154 C166.719633,16.2354899 164.885007,11.377396 168.28466,9.54931544 C169.129505,9.09455034 170.89354,9.87779866 171.206695,9.87779866" id="Fill-84" fill="#424763"/>
        <path d="M166.595197,9.52834362 C166.501325,9.55991409 162.039796,14.5728537 161.651543,22.2489879 C161.26329,29.9251221 159.899524,23.3141154 159.899524,23.3141154 C159.899524,23.3141154 158.398329,17.5201826 161.589212,12.1637262 C163.528975,8.90670604 164.630652,9.71551141 164.630652,9.71551141 L166.595197,9.52834362 Z" id="Fill-86" fill="#424763"/>
        <path d="M158.110106,10.884145 C158.110106,10.884145 157.521343,21.9984537 158.084573,26.7588295 C158.647802,31.519957 158.52239,31.676306 157.834499,29.5152322 C157.145857,27.3541584 155.174553,19.1165208 155.112223,14.356145 C155.049141,9.59576913 155.112223,11.4659436 155.112223,11.4659436 L158.110106,10.884145" id="Fill-88" fill="#424763"/>
        <path d="M153.104121,11.8571919 C153.104121,11.8571919 153.516405,27.2598228 158.598238,36.1829906 L154.156985,38.5605477 C154.156985,38.5605477 150.606386,31.5511517 149.479927,22.7189369 C148.353468,13.8867221 148.960254,12.8215946 148.960254,12.8215946 L153.104121,11.8571919 Z" id="Fill-90" fill="#424763"/>
        <path d="M145.724913,13.2919195 C145.724913,13.2919195 145.192473,31.3254228 150.772201,40.7251544 C150.380944,41.2513289 147.82238,42.9365906 147.82238,42.9365906 C147.82238,42.9365906 142.053407,29.6213691 143.398399,13.7421745 C144.786197,13.4407517 145.00473,13.0769396 145.474088,13.2340403" id="Fill-92" fill="#424763"/>
        <path d="M145.999243,44.4864752 C145.999243,44.4864752 141.060846,31.8500188 139.715103,18.0432 C139.715854,14.7538577 138.467737,26.5431732 139.154126,34.7454819 C139.631745,40.4567302 141.198274,46.5002201 142.037862,48.4681128" id="Fill-94" fill="#424763"/>
        <path d="M137.432672,15.1707383 C137.432672,15.1707383 134.804267,35.1210201 135.774524,47.3357852 C136.040368,50.6867651 133.967683,45.4994362 133.216711,40.0497718 C132.465738,34.6001074 131.98887,29.5653691 132.207403,15.5886711" id="Fill-96" fill="#424763"/>
        <path d="M133.388909,59.6672107 C133.388909,59.6672107 128.765169,50.2178685 128.483554,32.0520698 C128.671298,28.1997208 127.263224,42.3560698 127.764123,50.6245262 C128.265021,58.8929826 128.680309,61.7959624 129.211998,63.5188081" id="Fill-98" fill="#424763"/>
        <path d="M128.921897,15.6717315 C128.921897,15.6717315 124.547481,28.2931544 121.699792,53.0616913 C121.856746,56.5750336 121.304781,38.3889396 121.987415,32.9731007 C122.580683,28.2593289 124.196777,16.7052886 125.041621,15.4838121 C125.448648,14.8576644 128.921897,15.6717315 128.921897,15.6717315" id="Fill-100" fill="#424763"/>
        <path d="M123.852831,15.6092671 C123.25731,16.141455 120.097967,23.846153 118.314407,33.5871463 C116.530847,43.3273879 114.653415,56.1059114 114.653415,56.1059114 C113.057598,48.3959517 113.496917,44.9998711 113.620827,39.6945289 C113.80857,31.6448107 116.061489,21.1168107 117.845049,17.7440322 C119.346995,15.217643 119.334979,15.4371329 119.500944,15.4243544 C119.665407,15.4115758 123.852831,15.2845423 123.852831,15.2845423 C123.852831,15.2845423 124.446851,15.0770792 123.852831,15.6092671" id="Fill-102" fill="#424763"/>
        <path d="M115.810664,15.8156027 C115.810664,15.8156027 113.471384,19.5243812 111.197438,29.9539114 C108.985823,40.1030658 109.239652,61.4770255 109.239652,61.6183409 C109.239652,61.7589047 106.633026,55.5147168 106.611247,43.6720322 C106.586465,29.9065557 110.553854,19.284596 111.539882,17.4783141 C112.525158,15.6720322 112.846574,16.0696698 112.846574,16.0696698 L115.247434,15.8156027 L115.810664,15.8156027 Z" id="Fill-104" fill="#424763"/>
        <path d="M109.192716,16.4692617 C109.192716,16.4692617 102.903319,31.7831946 100.415347,62.8395168 C100.019584,67.783302 96.848977,50.8592752 99.195016,36.8592752 C101.541806,22.8592752 103.137623,19.065557 103.935907,17.7441074 C104.734191,16.4234094 106.142265,16.6977718 106.142265,16.6977718 L108.958413,16.4692617 L109.192716,16.4692617 Z" id="Fill-106" fill="#424763"/>
        <path d="M102.718505,16.7959409 C102.626135,16.9365047 98.6790226,20.3694174 95.910186,33.8996188 C93.1405984,47.4298201 91.3570381,64.1546523 91.3570381,64.1546523 C91.3570381,64.1546523 89.6207891,56.9671087 90.0901471,46.4902228 C90.5595051,36.0140886 92.2491938,25.8190819 96.0506179,18.2083436 C97.3287735,15.6496322 97.4158864,16.6200483 97.4158864,16.6200483 L102.526256,16.7914309 L102.718505,16.7959409 Z" id="Fill-108" fill="#424763"/>
        <path d="M90.9831288,16.3616966 C90.9831288,16.3616966 79.5766035,54.1011866 79.9986502,60.2085691 C80.3778914,65.6928107 77.4768837,53.9771597 80.1863934,37.5642738 C82.9559809,20.7928376 87.2109926,15.9542872 87.2109926,15.9542872" id="Fill-110" fill="#424763"/>
        <path d="M80.911007,16.4394953 C80.2899525,17.5579919 77.9221354,23.9292134 76.5253261,29.2022336 C72.8177735,43.2022336 73.4275634,56.8729987 73.4275634,56.8729987 C73.4275634,56.8729987 71.8790576,52.3163275 71.9729292,43.2488376 C72.0668008,34.1820993 72.9018825,27.5154685 76.9849214,16.6161396 C78.2150148,13.7725423 79.4954233,13.7725423 79.4954233,13.7725423 L82.2514934,14.5670658 L83.2975984,14.8880322 C83.2975984,14.8880322 81.5320615,15.3209987 80.911007,16.4394953" id="Fill-112" fill="#424763"/>
        <path d="M72.9113447,12.5710604 C72.7236016,12.6176644 63.6646171,34.134443 65.1200023,47.6646443 C65.1200023,47.6646443 62.8978739,33.8713557 65.4481774,22.8592752 C67.7018467,13.1348188 69.0761268,11.4540671 69.0761268,11.4540671 L72.9113447,12.1666577 L72.9113447,12.5710604 Z" id="Fill-114" fill="#424763"/>
        <path d="M88.1185432,68.0542819 C88.0719829,67.7724027 86.2058156,52.2134228 87.1948467,41.073557 C88.1358156,30.4703893 83.5158311,55.3381477 84.1729323,67.0357584 L84.5904732,67.2266846 L88.1358156,68.6075168 L88.1185432,68.0542819 Z" id="Fill-116" fill="#424763"/>
        <path d="M98.3374051,70.2557208 C98.3374051,70.2557208 95.3455296,56.6668886 95.4874634,50.4835866 C95.6286463,44.376204 93.3869926,59.787855 94.5134518,69.935506" id="Fill-118" fill="#424763"/>
        <path d="M106.611247,70.2557208 C106.611247,70.2557208 104.686504,55.1267007 105.156613,46.5801235 C105.625971,38.034298 103.481193,62.1526336 103.466174,70.2444456 C103.465423,70.6383248 105.813714,70.2527141 105.813714,70.2527141" id="Fill-120" fill="#424763"/>
        <path d="M187.00934,12.4201987 C187.00934,12.4201987 183.105784,11.8714738 180.5705,14.6519302 C180.436826,14.7338631 179.290091,13.4409772 179.290091,13.4409772 C179.290091,13.4409772 180.935472,10.0246013 186.253861,8.49418523 C186.253861,8.49418523 187.149772,10.5575409 187.00934,12.4201987" id="Fill-122" fill="#424763"/>
        <path d="M171.206695,9.40724832 C171.206695,9.40724832 172.791999,4.04026846 172.608761,0.495355705 C172.59224,0.229261745 176.431213,1.02378523 176.431213,1.02378523 C176.431213,1.02378523 176.412439,5.66389262 172.371454,9.78383893" id="Fill-124" fill="#424763"/>
        <path d="M167.38139,0.440708725 C167.38139,0.440708725 167.91383,6.44586309 167.148589,9.12634631 L169.144674,9.12634631 C169.144674,9.12634631 171.206846,4.49826577 170.873414,0.95335302 L170.774285,0.440708725" id="Fill-126" fill="#424763"/>
        <path d="M166.0569,0.440708725 C166.0569,0.440708725 166.26567,6.29853423 165.502682,9.20903087 L163.157394,9.40747383 C163.157394,9.40747383 163.091308,2.50105772 162.458989,0.636896644 C162.326818,0.336977181 165.086643,0.440708725 165.086643,0.440708725 L166.0569,0.440708725 Z" id="Fill-128" fill="#424763"/>
        <path d="M160.74587,0.721084564 C160.74587,0.721084564 161.909127,4.63281611 160.978672,9.78406443 L159.349061,10.0742121 C159.349061,10.0742121 158.716742,3.23319195 157.336454,1.03603758 C157.037567,0.40387651 158.018337,0.919527517 158.018337,0.919527517 L160.74587,0.721084564 Z" id="Fill-130" fill="#424763"/>
        <path d="M155.873333,1.23605906 C155.873333,1.23605906 156.25633,8.97157584 156.82782,10.441106 C156.788769,10.5237906 154.426209,10.956757 154.426209,10.956757 C154.426209,10.956757 153.095485,9.95852886 151.748991,1.90204564 C151.707688,1.53522685 152.345263,1.56905235 152.345263,1.56905235 L155.873333,1.23605906 Z" id="Fill-132" fill="#424763"/>
        <path d="M149.409411,2.03358926 C149.409411,2.03358926 150.418718,9.54209933 150.966928,11.5731329 L148.689228,12.072247 C148.689228,12.072247 146.24406,8.2770255 145.83478,2.70258255 L146.340936,2.60035436 L149.409411,2.03358926 Z" id="Fill-134" fill="#424763"/>
        <path d="M143.466888,3.44997584 C143.466888,3.44997584 143.629098,5.78318389 143.849133,6.87011007 C144.03988,7.81421745 144.481452,9.6588349 144.963577,10.5413047 C145.399141,11.3380832 145.999168,12.5054389 145.999168,12.5054389 L143.068121,13.1962309 C143.068121,13.1962309 141.138121,10.6578148 140.107036,6.82951946 C139.646689,5.11569396 139.458946,4.4489557 139.458946,4.4489557 L143.432343,3.22823087 L143.466888,3.44997584 Z" id="Fill-136" fill="#424763"/>
        <path d="M138.344277,5.39779866 C138.344277,5.39779866 140.306569,10.6242148 140.240484,13.7872752 L138.094954,14.202953 C138.094954,14.202953 136.74846,9.72520805 134.519573,6.09685906 C134.376137,5.91344966 134.951382,5.91344966 134.951382,5.91344966 L138.111476,4.81524832 L138.344277,5.39779866 Z" id="Fill-138" fill="#424763"/>
        <path d="M133.255386,7.05306846 C133.255386,7.05306846 135.500043,10.0086658 135.716323,14.4360483 C135.716323,14.4360483 134.685238,14.9186255 134.103985,14.9186255 C134.103985,14.9186255 132.124421,10.1650148 130.594689,8.70525638 L130.194421,8.4090953 L133.014323,6.72082685 L133.255386,7.05306846 Z" id="Fill-140" fill="#424763"/>
        <path d="M129.038523,9.52834362 C129.09034,9.52157852 129.806768,12.4719141 130.994056,15.0185987 L129.447053,15.0185987 C129.447053,15.0185987 127.867006,12.7049342 127.218916,12.2554309 C126.570827,11.8059275 128.389683,9.61177987 129.038523,9.52834362" id="Fill-142" fill="#424763"/>
        <path d="M184.848867,5.87857181 C184.848867,5.87857181 183.142656,3.84227651 182.755154,3.71298792 C182.367653,3.58369933 181.88703,5.87857181 181.88703,5.87857181 L181.171353,8.08249128 C181.171353,8.08249128 180.548796,9.6429745 180.572828,9.57306846" id="Fill-144" fill="#424763"/>
        <path d="M178.87623,1.76569128 C178.87623,1.76569128 179.330568,4.27103356 177.577798,6.43210738 L182.132448,3.04955705" id="Fill-146" fill="#424763"/>
        <path d="M184.282708,4.97791141 C184.3533,4.98693154 186.227728,3.15208591 186.227728,3.15208591 L185.546595,6.9059651 L184.282708,4.97791141 Z" id="Fill-148" fill="#D3D5DF"/>
        <path d="M184.160975,4.82524564 C185.693711,3.50905772 186.371088,3.04978255 186.371088,3.04978255 C186.371088,3.04978255 185.942283,4.8538094 185.54652,6.90588993" id="Stroke-150" stroke="#424763" stroke-width="0.5625"/>
        <path d="M179.643349,55.8395168 C179.643349,55.8395168 180.375547,53.7265503 180.319224,53.099651 C180.263652,52.4735034 180.662419,50.880698 181.225648,50.7551678 C181.788878,50.6303893 184.900158,51.5015839 185.737493,48.6677584 C186.085944,47.4891275 186.71601,45.1596779 186.903753,43.9013691 C187.091496,42.6423087 187.265722,42.1244027 188.053493,41.2629799 C188.841263,40.401557 190.497158,40.7616107 190.680395,41.1351946 C194.162656,48.2129933 191.267656,53.613047 189.384216,55.3381477 C186.15203,58.298255 183.184936,57.9066309 179.643349,55.8395168" id="Fill-152" fill="#C0A1A7"/>
        <path d="M162.136296,26.007302 C162.136296,26.007302 159.29086,34.113396 163.139596,38.1063087 C165.828078,40.8965369 176.672876,46.1800805 179.127055,51.6583087 C179.434954,52.4077315 179.67151,53.0534228 179.786409,53.6788188 C179.917078,54.3861477 179.893047,55.0664161 179.642973,55.8398926 C179.642973,55.8398926 183.116222,58.846604 187.481627,56.6381745 C191.847032,54.4304966 193.724463,49.1326711 190.908316,41.7278926 C188.092168,34.3231141 187.200012,34.3697181 186.308607,28.5915705 C185.416452,22.8126711 182.855635,18.0725906 178.537541,13.2340403" id="Stroke-154" stroke="#424763" stroke-width="0.5625"/>
        <path d="M190.680621,41.1348188 C190.680621,41.1348188 189.018718,40.2538523 187.763091,41.5106577 C186.871687,42.4028993 187.10599,43.4838121 186.542761,45.7854497 C185.979531,48.0878389 185.627325,50.0376913 183.937636,50.6480537 C182.247947,51.2591678 181.145519,50.2023087 180.58229,51.1885101 C180.01906,52.1754631 180.707702,53.3495839 179.862858,54.5710604" id="Stroke-156" stroke="#424763" stroke-width="0.5"/>
        <path d="M188.091792,54.5710604 C188.091792,54.5710604 188.701582,53.5608054 188.091792,52.3160268 C187.771878,51.5831409 187.599154,50.9066309 188.091792,50.554094 C188.58443,50.2023087 189.758201,51.2118121 189.264812,52.8091275 C188.748893,54.1719195 188.091792,54.5710604 188.091792,54.5710604 Z" id="Stroke-158" stroke="#424763" stroke-width="0.5"/>
        <path d="M182.248323,29.648204 C182.248323,29.648204 182.362471,26.1656805 179.432175,25.8898148 C176.682864,25.6312376 175.207953,25.4433181 175.207953,25.4433181 C175.207953,25.4433181 175.982206,26.0311302 176.055802,27.3894121 C176.13916,28.9145664 177.367,29.2956671 179.619918,29.2257611 C181.872837,29.1551034 182.248323,29.648204 182.248323,29.648204" id="Fill-160" fill="#EDEEF4"/>
        <path d="M182.248323,29.648204 C182.248323,29.648204 182.362471,26.1656805 179.432175,25.8898148 C176.682864,25.6312376 175.207953,25.4433181 175.207953,25.4433181 C175.207953,25.4433181 175.982206,26.0311302 176.055802,27.3894121 C176.13916,28.9145664 177.367,29.2956671 179.619918,29.2257611 C181.872837,29.1551034 182.248323,29.648204 182.248323,29.648204 Z" id="Stroke-162" stroke="#424763" stroke-width="0.5"/>
        <path d="M178.728138,26.007302 C178.728138,26.007302 177.789422,26.3831409 177.812702,27.416698 C177.836733,28.450255 178.306091,28.8441342 178.728138,29.1079732 C179.150185,29.3718121 179.862858,29.3597852 179.862858,29.3597852 C179.862858,29.3597852 182.130796,29.3191946 182.247947,29.6484295 C182.36585,29.9769128 182.281741,26.4259866 179.613535,25.9231141 C178.911375,25.7990872 178.728138,26.007302 178.728138,26.007302" id="Fill-164" fill="#424763"/>
        <path d="M172.164411,16.7680537 C172.164411,16.7680537 170.162318,14.6385503 171.945878,11.9452886 C173.729438,9.25127517 182.710321,2.79962416 182.710321,2.79962416 C182.710321,2.79962416 181.208376,8.18614765 180.26966,10.1284832 C179.330944,12.0700671 178.141403,13.8868725 177.672045,14.5445906" id="Stroke-166" stroke="#424763" stroke-width="0.5625"/>
        <path d="M174.386539,16.298255 C174.386539,16.298255 171.351858,13.1975839 182.710321,2.79962416" id="Fill-168" fill="#C0A1A7"/>
        <path d="M173.154493,10.5391248 C173.154493,10.5391248 169.974875,8.62460134 162.371275,10.0655678 C155.85133,11.3005745 138.370937,14.7635544 134.616073,15.389702 C130.861209,16.0166013 126.230711,14.9514738 119.972104,15.389702 C113.714999,15.8286819 106.454595,17.0185879 101.948758,16.7682792 C97.4429214,16.5172188 88.8067346,16.7051383 85.0518708,15.452843 C81.297007,14.199796 65.5896607,9.31388993 56.8911432,11.1930846 C48.1926257,13.0722792 36.8026218,22.4058631 34.675116,25.4125745 C32.5468591,28.4192859 31.9836296,31.8010846 31.9212988,34.1816483 C31.8589681,36.5622121 38.5441276,52.4910174 48.7558553,50.2179436 C61.9594584,46.5219436 58.9247774,46.4437691 62.9139447,50.1081987 C65.7894195,52.7495946 79.4353455,69.4165477 95.7539837,70.0118765 C112.390283,70.6192322 126.324583,71.4836617 138.085567,53.605004 C146.600847,40.834749 158.24468,36.5238765 161.419042,34.789004" id="Stroke-170" stroke="#424763" stroke-width="0.5625"/>
        <path d="M181.633727,17.1281074 C181.633727,17.1281074 183.961742,15.2023087 186.448964,16.7680537 C186.448964,16.7680537 188.795754,10.269047 183.961742,4.58485906 C179.12698,-1.10008054 162.688186,0.300295302 158.229661,0.817449664 C153.770384,1.33385235 133.76447,3.46711409 128.220038,10.2359732 C125.11026,14.032698 127.545665,15.4225503 127.545665,15.4225503" id="Stroke-172" stroke="#424763" stroke-width="0.5625"/>
        <path d="M68.9108377,47.6650201 C68.9108377,47.6650201 69.8916082,59.3182819 62.7731374,68.3827651 C54.8120751,78.4995973 41.3786743,78.969396 41.3786743,78.969396 C41.3786743,78.969396 39.4186354,78.3981208 41.8517872,85.2609396 C44.2849389,92.1237584 47.2895809,100.217074 47.2895809,100.217074 C47.2895809,100.217074 48.4753669,102.960698 51.1953903,104.589584 C52.4930712,105.403651 45.3423086,108.284832 45.3423086,108.284832 C45.3423086,108.284832 37.8656237,85.4841879 31.7114019,74.5848591 C30.2500089,71.983302 30.6713047,72.3726711 31.9547171,71.8126711 C33.3703008,71.1955436 42.5787288,65.7368591 37.6350751,54.8946577 C31.8713591,42.2536913 32.1987833,35.8629262 32.1304447,35.6750067" id="Fill-174" fill="#D3D5DF"/>
        <path d="M31.9202475,33.8239248 C31.988586,34.0118443 31.5259868,40.9024752 37.3032202,54.1034416 C43.0774498,67.297643 33.3703759,71.1958443 31.9547922,71.8129718 C30.6713798,72.3722201 30.2493331,71.982851 31.711477,74.5844081 C37.8656988,85.4837369 45.3423837,108.285133 45.3423837,108.285133 C45.3423837,108.285133 52.2595938,104.886797 51.1954654,104.589133 C49.1145198,103.617965 47.289656,100.216623 47.289656,100.216623 C47.289656,100.216623 44.285014,92.1240591 41.8518623,85.2612403 C39.4179595,78.3984215 41.3787494,78.9696966 41.3787494,78.9696966 C41.3787494,78.9696966 54.8113992,78.499898 62.7732125,68.3830658 C72.4412358,56.7636295 67.7949673,38.2219919 67.7949673,38.2219919" id="Stroke-176" stroke="#424763" stroke-width="0.5625"/>
        <path d="M65.7924984,11.0148617 C65.6986268,11.098298 55.4508525,27.4164725 54.5121366,45.1748617 C53.7611638,53.1148349 51.5555568,25.4741369 61.2708914,10.7690631 C64.2222144,10.5367946 65.7924984,11.0148617 65.7924984,11.0148617" id="Fill-178" fill="#424763"/>
        <path d="M51.5856708,13.0404832 C51.5856708,13.0404832 46.1576397,37.282094 49.9125035,45.8324295 C49.9125035,45.8324295 43.2100716,25.9776107 47.528165,15.1699866 C49.6308887,13.4636779 51.5856708,13.0404832 51.5856708,13.0404832" id="Fill-180" fill="#424763"/>
        <path d="M42.2476249,18.6461208 C42.2476249,18.6461208 39.3526249,31.269047 42.3752903,43.4364564 C43.8126521,49.2236242 38.109014,36.5285369 37.7477961,29.9596242 C37.4661813,24.838443 37.8258973,22.1812617 37.8258973,22.1812617 C37.8258973,22.1812617 40.3942241,19.6924564 42.2476249,18.6461208" id="Fill-182" fill="#424763"/>
        <path d="M46.6221914,111.322738 C46.6221914,111.322738 47.9318879,110.205745 46.6221914,107.741745 C46.9180747,107.610953 51.1332848,105.236403 51.1332848,105.236403 L54.7469658,106.860027 L57.2003938,111.322738 L46.6221914,111.322738 Z" id="Fill-184" fill="#424763"/>
        <path d="M46.5458926,48.0878389 C46.5458926,48.0878389 56.6329588,62.2479463 64.622558,65.8108993 C64.9267019,65.9462013 62.7729121,68.3831409 62.7729121,68.3831409 C62.7729121,68.3831409 56.956628,64.4992215 46.5458926,48.0878389" id="Fill-186" fill="#424763"/>
        <path d="M32.5304128,40.2972242 C32.5304128,40.2972242 45.981837,57.6918013 52.2096541,63.1046336 C56.9678175,67.2403651 43.7146502,58.1563383 34.2433817,45.8791839" id="Fill-188" fill="#424763"/>
        <path d="M36.2904584,51.6990497 C36.2904584,51.6990497 51.5442171,68.3464591 58.6784584,72.4806872 L56.014758,74.3967141 C56.014758,74.3967141 42.8652249,64.9578953 38.1573767,56.3136 C37.6069136,54.2442309 36.2904584,51.6990497 36.2904584,51.6990497" id="Fill-190" fill="#424763"/>
        <path d="M39.0581685,62.5132134 C39.0581685,62.5132134 46.8367444,74.113106 51.7503591,76.5011866 L49.106184,77.4648376 C49.106184,77.4648376 42.6305459,74.6174819 38.5437521,65.2733745 C38.6203514,64.4570523 39.0581685,62.5132134 39.0581685,62.5132134" id="Fill-192" fill="#424763"/>
        <path d="M37.6405572,67.1913557 C37.6405572,67.1913557 43.5980241,76.9022819 45.6354132,78.3755705 L43.242814,78.7874899 C43.242814,78.7874899 37.7614638,74.8404295 35.5708763,69.6095034 C35.413172,69.2329128 37.6405572,67.1913557 37.6405572,67.1913557" id="Fill-194" fill="#424763"/>
        <path d="M33.3070689,71.2774765 C33.5383685,71.2353826 40.0538082,78.5304161 40.9354502,79.1054497 C40.9354502,79.1054497 40.2460572,80.5125906 40.7522128,81.389047 C41.2591195,82.266255 31.7112518,74.5841074 31.7112518,74.5841074 C31.7112518,74.5841074 30.6493763,72.9770201 30.793563,72.5169933 C30.9542712,72.006604 32.1685942,71.4826846 33.3070689,71.2774765" id="Fill-196" fill="#424763"/>
        <path d="M41.851637,85.2610148 L36.2906837,84.1056859 C36.2906837,84.1056859 37.6439366,87.8016859 37.8091506,87.7392966 C37.9743646,87.6761557 42.869956,88.1143839 42.869956,88.1143839 L41.851637,85.2610148 Z" id="Fill-198" fill="#424763"/>
        <polygon id="Fill-200" fill="#424763" points="44.0510109 91.3093154 39.058544 90.8748456 40.4763805 94.5685906 45.3021315 94.817396"/>
        <path d="M46.8913401,99.1395436 L42.2540833,99.3898523 L44.0451533,104.589208 C44.0451533,104.589208 47.8105307,103.555651 48.8919315,102.835544 C49.1450093,102.666416 47.3644529,100.956349 46.8913401,99.1395436" id="Fill-202" fill="#424763"/>
        <g id="Group-207" transform="translate(113.396887, 55.792537)">
          <path d="M14.4601307,2.12987919 C14.4601307,2.12987919 12.0194693,4.57283221 12.0194693,7.51715436 C12.0194693,10.4607248 11.8467455,26.5902282 11.8467455,26.5902282 C11.8467455,26.5902282 12.5361385,27.946255 13.3179012,29.1932886 C14.0470957,30.3576376 13.3967533,32.6983624 12.8958545,35.3292349 C12.3949556,37.9601074 12.7088623,41.717745 13.3967533,43.7224698 C14.0846444,45.7271946 15.5250101,47.0426309 15.5250101,47.0426309 C16.3758623,49.4976107 16.7363292,49.7749799 17.3393603,51.2084295 C17.6209751,51.8781745 11.7431113,51.7361074 11.0965237,51.6609396 C10.1465432,51.550443 11.4877805,50.6604564 10.674477,49.6577181 C9.86117354,48.6557315 7.82603735,47.7048591 8.32768716,45.637745 C8.82783502,43.5706309 9.39106459,42.4701745 9.07865992,39.0876242 C8.76625525,35.7050738 6.71534864,30.6154631 6.21520078,30.114094 C5.71505292,29.6134765 6.82574163,28.3130738 6.51333696,25.995651 C6.19943035,23.6782282 3.32095175,11.0876242 0.37939144,5.82587919 C0.37939144,5.82587919 3.75876887,3.57084564 2.82005292,0.0627651007" id="Fill-204" fill="#D3D5DF"/>
          <path d="M14.4601307,2.12987919 C14.4601307,2.12987919 12.0194693,4.57283221 12.0194693,7.51715436 C12.0194693,10.4607248 11.8467455,26.5902282 11.8467455,26.5902282 C11.8467455,26.5902282 12.5361385,27.946255 13.3179012,29.1932886 C14.0470957,30.3576376 13.3967533,32.6983624 12.8958545,35.3292349 C12.3949556,37.9601074 12.7088623,41.717745 13.3967533,43.7224698 C14.0846444,45.7271946 15.5250101,47.0426309 15.5250101,47.0426309 C16.3758623,49.4976107 16.7363292,49.7749799 17.3393603,51.2084295 C17.6209751,51.8781745 11.7431113,51.7361074 11.0965237,51.6609396 C10.1465432,51.550443 11.4877805,50.6604564 10.674477,49.6577181 C9.86117354,48.6557315 7.82603735,47.7048591 8.32768716,45.637745 C8.82783502,43.5706309 9.39106459,42.4701745 9.07865992,39.0876242 C8.76625525,35.7050738 6.71534864,30.6154631 6.21520078,30.114094 C5.71505292,29.6134765 6.82574163,28.3130738 6.51333696,25.995651 C6.19943035,23.6782282 3.32095175,11.0876242 0.37939144,5.82587919 C0.37939144,5.82587919 3.75876887,3.57084564 2.82005292,0.0627651007" id="Stroke-206" stroke="#424763" stroke-width="0.5625"/>
        </g>
        <path d="M124.493786,107.453477 L123.883996,111.416322 L135.664506,111.416322 C135.664506,111.416322 132.33244,108.738846 131.815771,107.799248 C131.815771,107.799248 130.971677,107.502336 130.478288,107.251275" id="Fill-208" fill="#313753"/>
        <path d="M114.608657,63.1345503 C115.341606,63.0744161 124.353279,61.9235973 124.353279,61.9235973 L115.958155,66.7388456 L114.608657,63.1345503 Z" id="Fill-210" fill="#424763"/>
        <path d="M118.823416,67.9603221 C118.823416,67.9603221 124.682506,66.742604 125.39593,66.7388456 C125.707584,66.738094 125.375654,69.1359463 125.375654,69.1359463 L118.823416,67.9603221 Z" id="Fill-212" fill="#424763"/>
        <path d="M125.367994,69.9804564 C125.367994,69.9804564 118.344896,70.9907114 117.758387,71.3898523 C117.171877,71.7889933 118.204465,73.6448859 118.204465,73.6448859 L125.355978,71.1786309 L125.367994,69.9804564 Z" id="Fill-214" fill="#424763"/>
        <path d="M118.823416,76.1582711 C118.823416,76.1582711 124.42342,76.2755329 125.151113,75.899694 L125.151113,78.5072644 L119.70656,79.5874255 L118.823416,76.1582711 Z" id="Fill-216" fill="#424763"/>
        <path d="M120.058391,83.4636779 C120.058391,83.4636779 124.70466,83.6982013 125.526224,83.2291544 C125.526224,83.2291544 126.887737,85.2722148 126.840426,85.7660671 C126.840426,85.7660671 120.832644,87.3370738 120.574309,87.2927248 L119.636344,85.4841879 L120.058391,83.4636779 Z" id="Fill-218" fill="#424763"/>
        <path d="M121.701144,90.4302282 C121.701144,90.4302282 125.697821,90.7331544 126.427767,90.4324832 C126.61551,90.3385235 125.925366,92.7889933 125.925366,92.7889933 C125.925366,92.7889933 122.804323,93.0077315 122.428837,92.9603758 C122.05335,92.9137718 121.677864,91.2758658 121.701144,90.4302282" id="Fill-220" fill="#424763"/>
        <path d="M122.921475,95.3965638 C122.921475,95.3965638 125.21044,95.5837315 125.831494,95.3928054 C126.089829,95.2747919 126.206981,97.722255 126.206981,97.722255 C126.206981,97.722255 124.212397,98.2153557 122.921475,97.8162148 C122.405556,97.6515973 122.66314,97.2051007 122.66314,97.2051007 L122.598556,95.3928054 L122.921475,95.3965638 Z" id="Fill-222" fill="#424763"/>
        <path d="M122.193932,100.217149 C122.287804,100.193847 124.220057,100.992129 126.347563,100.282545 C127.615205,99.8593503 127.755637,101.621283 127.755637,101.621283 C127.755637,101.621283 124.834353,102.806679 122.498827,102.65484 C120.691987,102.537579 122.193932,100.217149 122.193932,100.217149" id="Fill-224" fill="#424763"/>
      </g>
    </g>
  </g>
</svg>