<svg width="308px" height="215px" viewBox="0 0 308 215" version="1.1" xml:space="preserve" xmlns="http://www.w3.org/2000/svg" xmlns:xlink="http://www.w3.org/1999/xlink">
  <defs/>
  <g>
    <title>frank-c</title>
    <desc>Created with Sketch.</desc>
    <g id="frank-c" stroke="none" stroke-width="1" fill="none" fill-rule="evenodd">
      <path d="M173.857895,60.3115942 L174.668421,62.2478261 C177.829474,61.1183575 182.692632,59.0207729 184.232632,58.294686 L183.422105,56.3584541 C180.747368,57.4072464 176.613684,59.1821256 173.857895,60.3115942 Z" id="Shape" fill="#FAB414" fill-rule="nonzero"/>
      <path d="M183.016842,51.5985507 C183.016842,51.5985507 179.936842,51.8405797 178.477895,52.5666667 L181.557895,63.215942 C183.178947,62.973913 184.718947,62.5705314 186.258947,62.0864734 L183.016842,51.5985507 Z" id="Shape" fill="#FFC800" fill-rule="nonzero"/>
      <path d="M126.28,60.2309179 L125.712632,62.2478261 C122.470526,61.4410628 117.445263,59.7468599 115.824211,59.2628019 L116.391579,57.2458937 C119.147368,58.052657 123.443158,59.3434783 126.28,60.2309179 Z" id="Shape" fill="#FAB414" fill-rule="nonzero"/>
      <path d="M116.958947,52.405314 C116.958947,52.405314 120.038947,52.647343 121.497895,53.37343 L118.336842,64.0227053 C116.715789,63.7806763 115.175789,63.3772947 113.635789,62.8932367 L116.958947,52.405314 Z" id="Shape" fill="#FFC800" fill-rule="nonzero"/>
      <path d="M174.587368,51.3565217 C166.968421,49.2589372 142.247368,50.2270531 136.816842,50.3077295 C131.710526,50.3884058 126.604211,49.1782609 124.091579,54.3415459 C121.984211,58.6980676 120.606316,72.4130435 119.795789,79.5932367 L180.909474,79.3512077 C180.18,72.8164251 176.613684,53.2927536 174.587368,51.3565217 Z" id="Shape" fill="#A0AA1E" fill-rule="nonzero"/>
      <path d="M167.616842,60.6342995 C167.292632,60.1502415 167.373684,59.8275362 167.616842,59.6661836 C168.427368,58.9400966 169.075789,58.052657 170.129474,57.568599 C170.453684,57.32657 170.858947,57.0845411 171.102105,56.7618357 L171.831579,57.1652174 C171.912632,57.6492754 171.669474,58.1333333 171.183158,58.294686 C170.129474,58.6173913 169.237895,59.4241546 168.751579,60.3922705 L167.616842,60.6342995 Z" id="Shape" fill="#82783C" fill-rule="nonzero"/>
      <path d="M178.64,61.6830918 C178.64,61.6830918 178.721053,61.6830918 178.721053,61.7637681 L178.64,61.6830918 Z" id="Shape" fill="#A0AA1E" fill-rule="nonzero"/>
      <path d="M171.102105,60.4729469 C170.615789,60.4729469 170.210526,60.7956522 170.048421,61.1990338 C169.724211,61.6830918 169.805263,63.3772947 171.102105,63.457971 C171.588421,63.457971 172.236842,63.2966184 172.236842,62.0864734 C172.236842,60.8763285 171.588421,60.4729469 171.102105,60.4729469 Z" id="Shape" fill="#000000" fill-rule="nonzero"/>
      <path d="M131.872632,60.4729469 C131.386316,60.4729469 130.981053,60.7956522 130.818947,61.1990338 C130.494737,61.6830918 130.575789,63.3772947 131.872632,63.457971 C132.358947,63.457971 133.007368,63.2966184 133.007368,62.0864734 C133.007368,60.8763285 132.358947,60.4729469 131.872632,60.4729469 Z" id="Shape" fill="#000000" fill-rule="nonzero"/>
      <path d="M158.376842,67.7338164 C154.810526,68.9439614 142.895789,68.3792271 142.409474,68.0565217 C142.328421,64.9908213 141.761053,61.9251208 149.38,61.3603865 C156.998947,60.7956522 157.728421,64.9908213 158.376842,67.7338164 Z" id="Shape" fill="#82783C" fill-rule="nonzero"/>
      <path d="M153.675789,62.8932367 C153.108421,62.8932367 152.541053,63.1352657 152.216842,63.6193237 C151.811579,64.1033816 151.892632,65.7169082 153.675789,65.7975845 C154.405263,65.7975845 155.215789,65.6362319 155.215789,64.5067633 C155.296842,63.7 154.648421,62.973913 153.837895,62.8932367 C153.756842,62.8932367 153.675789,62.8932367 153.675789,62.8932367 Z" id="Shape" fill="#645A1E" fill-rule="nonzero"/>
      <path d="M146.462105,63.6193237 C145.975789,63.6193237 145.570526,63.8613527 145.246316,64.184058 C144.922105,64.5874396 145.003158,65.7975845 146.381053,65.8782609 C146.948421,65.8782609 147.596842,65.7975845 147.596842,64.8294686 C147.677895,64.184058 147.110526,63.6193237 146.462105,63.5386473 C146.462105,63.6193237 146.462105,63.6193237 146.462105,63.6193237 Z" id="Shape" fill="#645A1E" fill-rule="nonzero"/>
      <path d="M136.249474,60.6342995 L135.195789,60.8763285 C134.142105,59.9888889 133.250526,59.1821256 132.277895,58.4560386 C131.872632,58.1333333 131.386316,57.8913043 130.9,57.7299517 C130.494737,57.568599 130.170526,57.32657 130.089474,56.8425121 C130.251579,56.5198068 130.737895,56.3584541 131.062105,56.6004831 C131.062105,56.6004831 131.143158,56.6004831 131.143158,56.6004831 C131.467368,56.7618357 131.872632,57.0038647 132.115789,57.2458937 C133.331579,58.1333333 134.466316,59.0207729 135.682105,59.9082126 C135.925263,59.9888889 136.168421,60.3115942 136.249474,60.6342995 Z" id="Shape" fill="#82783C" fill-rule="nonzero"/>
      <path d="M51.6305263,140.100483 C53.6568421,145.183092 52.0357895,153.089372 56.8989474,161.560386 C61.7621053,170.031401 68.7326316,171.564251 68.9757895,172.048309 C70.5157895,175.920773 67.5978947,178.825121 63.3831579,180.438647 C54.1431579,183.988406 46.8484211,178.099034 40.2831579,172.855072 L51.6305263,140.100483 Z" id="Shape" fill="#645A1E" fill-rule="nonzero"/>
      <path d="M68.0031579,180.035266 C77.4863158,181.164734 77,171.402899 69.4621053,168.821256 C61.5189474,168.417874 63.9505263,172.774396 65.5715789,173.177778 C67.4357895,174.952657 67.4357895,177.695652 68.0031579,180.035266 Z" id="Shape" fill="#A0AA1E" fill-rule="nonzero"/>
      <path d="M62.5726316,183.02029 C62.5726316,183.02029 65.9768421,184.311111 68.4084211,183.100966 C69.7052632,182.536232 70.6778947,181.326087 70.9210526,179.873913 C71.0021053,179.228502 71.0021053,178.502415 70.7589474,177.857005 C70.2726316,176.485507 69.6242105,175.275362 68.7326316,174.145894 C68.0031579,173.419807 67.1926316,172.774396 66.3010526,172.290338 C58.6010526,170.27343 60.06,175.033333 61.6,175.75942 C62.0863158,176.808213 62.4915789,178.018357 62.5726316,179.228502 C62.4915789,180.519324 62.4915789,181.729469 62.5726316,183.02029 Z" id="Shape" fill="#82783C" fill-rule="nonzero"/>
      <path d="M0.324210526,120.334783 C-0.810526316,109.362802 1.70210526,98.3908213 7.45684211,89.0323671 C10.3747368,84.0304348 13.86,79.3512077 17.7505263,75.1560386 C20.02,72.8164251 33.7178947,59.0207729 54.5484211,59.1821256 C75.3789474,59.3434783 92.8863158,65.5555556 96.2094737,68.2985507 C95.8042105,71.6062802 80.4852632,104.441546 80.4852632,104.441546 C80.4852632,104.441546 63.5452632,99.6816425 56.4126316,101.94058 C49.28,104.199517 46.4431579,112.751208 47.3347368,120.334783 C48.2263158,127.757005 52.1168421,134.533816 52.8463158,142.198068 C53.4136842,148.490821 51.7926316,165.674879 48.2263158,172.128986 C49.28,177.857005 55.1157895,179.389855 56.98,180.842029 C58.8442105,182.294203 59.2494737,180.357971 59.8168421,179.228502 C59.7357895,178.744444 60.9515789,176.485507 57.9526316,177.211594 C56.8178947,177.5343 54.1431579,177.614976 55.6021053,175.033333 C56.4126316,173.661836 57.9526316,172.774396 59.4926316,172.774396 C63.7884211,172.935749 64.5989474,180.680676 63.14,183.585024 C61.2757895,187.215459 55.1157895,187.296135 51.4684211,186.650725 C42.3094737,184.875845 34.2852632,177.776329 27.72,171.644928 C13.0494737,157.849275 2.59368421,140.745894 0.324210526,120.334783 Z" id="Shape" fill="#A0AA1E" fill-rule="nonzero"/>
      <path d="M53.9810526,173.097101 C51.5494737,173.419807 49.9284211,173.903865 47.4968421,173.742512 C44.7410526,173.500483 42.2284211,171.967633 40.8505263,169.547343 C39.3915789,167.207729 37.8515789,159.382126 46.3621053,158.656039 C54.8726316,157.929952 55.1157895,165.513527 57.3042105,165.271498 C59.0873684,163.335266 63.3831579,159.301449 66.4631579,162.689855 C67.6789474,164.384058 64.9231579,168.014493 61.6,170.192754 C59.4926316,172.048309 56.3315789,172.451691 53.9810526,173.097101 Z" id="Shape" fill="#A0AA1E" fill-rule="nonzero"/>
      <path d="M92.8052632,63.0545894 C97.5063158,64.1033816 108.934737,69.9927536 112.987368,72.5743961 L98.7221053,116.785024 C91.1842105,113.477295 74.4873684,106.135749 74.4873684,106.135749 C74.4873684,106.135749 88.8336842,68.4599034 92.8052632,63.0545894 Z" id="Shape" fill="#824600" fill-rule="nonzero"/>
      <path d="M259.449474,127.918357 C258.071579,133.162319 260.746316,140.82657 257.017895,149.862319 C253.289474,158.898068 246.562105,161.318357 246.4,161.883092 C245.427368,165.916908 248.669474,168.417874 253.046316,169.547343 C262.691579,171.886957 269.094737,165.110145 274.930526,159.05942 L259.449474,127.918357 Z" id="Shape" fill="#645A1E" fill-rule="nonzero"/>
      <path d="M248.345263,169.547343 C239.105263,171.886957 238.294737,162.205797 245.427368,158.656039 C253.208421,157.284541 251.425263,161.883092 249.885263,162.447826 C248.345263,164.464734 248.669474,167.207729 248.345263,169.547343 Z" id="Shape" fill="#A0AA1E" fill-rule="nonzero"/>
      <path d="M254.181053,171.886957 C254.181053,171.886957 250.938947,173.581159 248.345263,172.774396 C246.967368,172.371014 245.913684,171.241546 245.508421,169.870048 C245.265263,169.224638 245.265263,168.498551 245.427368,167.85314 C245.670526,166.481643 246.237895,165.110145 246.967368,163.9 C247.534737,163.093237 248.264211,162.36715 249.074737,161.802415 C256.450526,158.817391 255.64,163.657971 254.181053,164.626087 C253.775789,165.755556 253.613684,166.9657 253.613684,168.175845 C253.856842,169.38599 254.018947,170.596135 254.181053,171.886957 Z" id="Shape" fill="#82783C" fill-rule="nonzero"/>
      <path d="M307.756842,101.698551 C307.432632,90.72657 303.542105,80.157971 296.652632,71.5256039 C293.086316,66.9270531 289.033684,62.7318841 284.575789,59.0207729 C282.063158,57.0038647 266.663158,45.0637681 245.994737,47.9681159 C225.326316,50.8724638 208.791579,59.2628019 205.873684,62.4091787 C206.765263,65.6362319 226.136842,96.2125604 226.136842,96.2125604 C226.136842,96.2125604 242.347368,89.3550725 249.723158,90.6458937 C257.098947,91.936715 261.070526,100.085024 261.151579,107.749275 C261.232632,115.171498 258.233684,122.432367 258.557895,130.177295 C258.801053,136.470048 262.610526,153.331401 266.987368,159.220773 C266.744211,165.029469 261.151579,167.288406 259.368421,168.982609 C257.585263,170.676812 257.017895,168.821256 256.369474,167.772464 C256.369474,167.288406 254.829474,165.190821 257.990526,165.513527 C259.206316,165.674879 261.8,165.43285 260.016842,163.01256 C259.044211,161.721739 257.423158,161.076329 255.802105,161.318357 C251.506316,162.044444 251.749474,169.789372 253.532632,172.532367 C255.883158,175.920773 262.043158,175.194686 265.447368,174.065217 C274.282105,171.16087 281.333684,163.01256 287.007368,156.155072 C300.056842,140.503865 308.162105,122.190338 307.756842,101.698551 Z" id="Shape" fill="#A0AA1E" fill-rule="nonzero"/>
      <path d="M208.629474,56.7618357 C204.090526,58.4560386 193.553684,65.7169082 189.825263,68.7826087 L209.764211,110.814976 C216.734737,106.53913 232.458947,97.1 232.458947,97.1 C232.458947,97.1 213.168421,61.6830918 208.629474,56.7618357 Z" id="Shape" fill="#824600" fill-rule="nonzero"/>
      <path d="M127.82,186.812077 L102.936842,190.603865 C102.936842,191.007246 106.746316,212.789855 106.746316,212.789855 L96.9389474,212.951208 C96.9389474,212.951208 97.02,213.596618 97.1010526,213.838647 C100.343158,213.919324 128.549474,213.757971 128.549474,213.757971 C128.549474,213.757971 127.901053,187.296135 127.82,186.812077 Z" id="Shape" fill="#A0AA1E" fill-rule="nonzero"/>
      <path d="M131.872632,196.009179 L126.523158,153.412077 L92.6431579,167.772464 C92.6431579,167.772464 97.3442105,191.894686 100.424211,199.881643 L131.872632,196.009179 Z" id="Shape" fill="#005A5A" fill-rule="nonzero"/>
      <rect id="Rectangle-path" fill="#006482" fill-rule="nonzero" transform="translate(115.706834, 201.543458) rotate(-6.989994) translate(-115.706834, -201.543458) " x="95.8888152" y="194.887442" width="39.6360378" height="13.3120311"/>
      <path d="M90.3736842,115.413527 L151.001053,138.971014 L213.978947,114.364734 C213.978947,114.364734 213.249474,99.7623188 207.494737,87.5801932 C202.388421,76.7695652 192.743158,68.2985507 185.772632,67.0884058 C177.748421,65.7169082 116.472632,67.2497585 116.472632,67.2497585 C116.472632,67.2497585 105.125263,71.7676329 99.1273684,83.2236715 C94.8315789,91.5333333 90.3736842,115.413527 90.3736842,115.413527 Z" id="Shape" fill="#A0640A" fill-rule="nonzero"/>
      <path d="M151.325263,87.0154589 C134.952632,87.0154589 118.58,87.1768116 118.58,87.1768116 C118.58,87.1768116 115.013684,87.4188406 114.932632,87.1768116 C110.393684,88.8710145 90.2926316,115.413527 90.2926316,115.413527 L92.5621053,167.772464 L151.325263,167.046377 L159.025263,121.625604 L151.325263,87.0154589 Z" id="Shape" fill="#008264" fill-rule="nonzero"/>
      <path d="M151.325263,167.046377 L213.168421,158.898068 L213.897895,114.364734 C213.897895,114.364734 191.932632,90.3231884 186.664211,87.4188406 C181.476842,87.0961353 166.157895,87.0154589 151.325263,87.0154589 L151.325263,167.046377 Z" id="Shape" fill="#00A08C" fill-rule="nonzero"/>
      <path d="M183.746316,65.2328502 L176.451579,100.649758 L183.989474,102.424638 C183.989474,102.424638 190.473684,75.236715 190.96,66.8463768 L183.746316,65.2328502 Z" id="Shape" fill="#005A5A" fill-rule="nonzero"/>
      <path d="M181.882105,95.4864734 C180.990526,95.2444444 180.098947,95.4864734 179.450526,96.0512077 C178.721053,96.6966184 178.315789,98.9555556 180.909474,99.6816425 C181.963158,100.004348 183.178947,100.004348 183.584211,98.3101449 C183.908421,97.1 183.26,95.8898551 182.044211,95.4864734 C181.963158,95.5671498 181.963158,95.4864734 181.882105,95.4864734 Z" id="Shape" fill="#FFC800" fill-rule="nonzero"/>
      <path d="M108.772632,66.6850242 C109.502105,75.0753623 116.877895,102.021256 116.877895,102.021256 L124.334737,100.004348 L115.905263,64.8294686 L108.772632,66.6850242 Z" id="Shape" fill="#005A5A" fill-rule="nonzero"/>
      <path d="M118.823158,95.0024155 C119.633684,94.7603865 120.606316,94.9217391 121.254737,95.4864734 C121.984211,96.0512077 122.551579,98.3908213 119.957895,99.1975845 C118.985263,99.5202899 117.688421,99.6009662 117.202105,97.9067633 C116.796842,96.6966184 117.445263,95.4864734 118.661053,95.0830918 C118.661053,95.0830918 118.742105,95.0024155 118.823158,95.0024155 Z" id="Shape" fill="#FFC800" fill-rule="nonzero"/>
      <path d="M137.303158,106.700483 C136.006316,112.186473 138.275789,119.689372 141.598947,123.23913 C145.570526,126.143478 154.567368,126.466184 158.782105,124.045894 C163.645263,121.302899 164.942105,115.010145 164.861053,110.088889 C164.861053,108.95942 164.861053,107.829952 164.78,106.700483 L137.303158,106.700483 Z" id="Shape" fill="#005A5A" fill-rule="nonzero"/>
      <rect id="Rectangle-path" fill="#006482" fill-rule="nonzero" x="135.357895" y="101.537198" width="31.1242105" height="8.71304348"/>
      <path d="M151.325263,103.957488 C150.433684,103.876812 149.542105,104.36087 148.974737,105.086957 C148.326316,105.89372 148.488421,108.31401 151.244211,108.475362 C152.378947,108.556039 153.594737,108.233333 153.594737,106.458454 C153.675789,105.167633 152.703158,104.038164 151.406316,103.957488 C151.406316,103.957488 151.325263,103.957488 151.325263,103.957488 Z" id="Shape" fill="#FAB414" fill-rule="nonzero"/>
      <path d="M173.209474,144.053623 L202.307368,160.350242 C202.145263,160.753623 188.771579,196.251208 188.771579,196.251208 L197.687368,200.123671 C197.687368,200.123671 197.363158,200.688406 197.201053,200.849758 C194.202105,199.72029 168.184211,188.667633 168.184211,188.667633 C168.184211,188.667633 172.885263,144.457005 173.209474,144.053623 Z" id="Shape" fill="#A0AA1E" fill-rule="nonzero"/>
      <path d="M200.686316,182.536232 C201.091579,179.631884 201.334737,176.64686 201.902105,173.823188 C202.712632,169.547343 209.683158,132.597585 209.602105,130.257971 C209.602105,130.257971 214.06,107.507246 192.094737,106.781159 C170.129474,106.055072 169.481053,126.54686 169.481053,126.54686 C169.237895,128.725121 165.347368,165.43285 165.428421,178.905797 L200.686316,182.536232 Z" id="Shape" fill="#005A5A" fill-rule="nonzero"/>
      <rect id="Rectangle-path" fill="#006482" fill-rule="nonzero" transform="translate(182.948993, 181.347942) rotate(-84.157140) translate(-182.948993, -181.347942) " x="176.262183" y="160.573889" width="13.3736192" height="41.5481073"/>
      <path d="M266.663158,158.817391 C268.851579,157.849275 270.553684,157.365217 272.58,156.074396 C274.849474,154.46087 276.146316,151.879227 276.065263,149.055556 C276.065263,146.231884 273.309474,138.809662 265.690526,142.601449 C258.071579,146.393237 261.8,152.928019 259.773684,153.896135 C257.261053,153.089372 248.426316,151.475845 248.993684,156.316425 C251.749474,159.140097 254.667368,160.188889 258.638947,160.269565 C261.394737,160.672947 264.393684,159.462802 266.663158,158.817391 Z" id="Shape" fill="#A0AA1E" fill-rule="nonzero"/>
    </g>
  </g>
</svg>