<svg width="150px" height="181px" viewBox="0 0 150 181" version="1.1" xml:space="preserve" xmlns="http://www.w3.org/2000/svg" xmlns:xlink="http://www.w3.org/1999/xlink">
  <defs/>
  <g>
    <title>skeleton-a</title>
    <desc>Created with Sketch.</desc>
    <g id="skeleton-a" stroke="none" stroke-width="1" fill="none" fill-rule="evenodd">
      <path d="M73.9661017,36.1608059 C76.6531073,35.2428571 80.1265537,35.4395604 82.7480226,34.718315 C83.1412429,35.5051282 83.2067797,39.3080586 83.1412429,40.0948718 C83.0757062,40.881685 82.879096,41.5373626 82.7480226,42.3241758 C82.6824859,42.8487179 82.3548023,43.2421245 81.9615819,43.5699634 C80.5853107,44.6846154 78.8158192,45.1435897 77.0463277,44.8813187 C76.1943503,44.8157509 75.4734463,44.2912088 75.1457627,43.5043956 C74.6870056,42.1930403 73.7039548,37.6688645 73.9661017,36.1608059 Z" id="Shape" fill="#C8BEA0" fill-rule="nonzero"/>
      <path d="M73.4418079,40.6849817 C73.4418079,40.3571429 73.179661,36.947619 73.1141243,36.5542125 L65.5774011,36.0952381 C65.3152542,36.685348 66.0361582,40.5538462 66.1016949,41.0783883 C66.1672316,42.1274725 66.4293785,43.110989 66.8881356,44.0945055 C67.1502825,44.6846154 67.6090395,45.078022 68.1988701,45.340293 C69.5096045,45.8648352 71.0169492,45.8648352 72.3276836,45.340293 C73.179661,45.078022 73.7039548,44.2912088 73.6384181,43.4388278 C73.5728814,42.5208791 73.5073446,41.6029304 73.4418079,40.6849817 Z" id="Shape" fill="#F0E6D2" fill-rule="nonzero"/>
      <path d="M64.5288136,36.2919414 C63.480226,35.8985348 58.3028249,35.0461538 57.2542373,34.718315 C56.9265537,35.0461538 57.7785311,38.2589744 57.9096045,38.5868132 C58.1062147,39.6358974 58.499435,40.5538462 59.1548023,41.4062271 C60.4,42.8487179 61.9073446,43.5043956 63.8734463,43.0454212 C64.0700565,42.7175824 64.2011299,42.3897436 64.2666667,42.0619048 C64.5943503,40.2260073 64.659887,38.2589744 64.5288136,36.2919414 Z" id="Shape" fill="#F0E6D2" fill-rule="nonzero"/>
      <path d="M89.8915254,32.6201465 C90.0881356,34.0626374 89.8915254,38.3901099 89.4983051,39.6358974 C89.1706215,40.7505495 88.2531073,41.6684982 87.1389831,42.0619048 C86.4836158,41.8652015 85.8282486,41.5373626 85.3694915,41.0783883 C85.2384181,40.9472527 85.1073446,40.8161172 84.9762712,40.6194139 C84.6485876,40.029304 83.8621469,35.0461538 83.9276836,34.1282051 C84.4519774,33.9970696 88.5152542,32.6201465 89.8915254,32.6201465 Z" id="Shape" fill="#AAA082" fill-rule="nonzero"/>
      <path d="M78.3570621,2.26227106 C90.6124294,2.26227106 97.8214689,12.8186813 96.6418079,24.4241758 C96.379661,27.1124542 95.5276836,29.7351648 94.2824859,32.1611722 C92.840678,34.6527473 86.2870056,36.4886447 83.6,37.1443223 C77.3084746,38.652381 75.0146893,39.1113553 68.4610169,38.652381 C63.0870056,38.2589744 55.419209,36.8820513 52.0768362,32.2267399 C48.9310734,27.8336996 48.6033898,20.4245421 49.3898305,15.2446886 C50.4384181,8.49120879 53.9118644,6.13076923 60.2689266,4.75384615 C66.1672316,3.50805861 72.3932203,2.32783883 78.3570621,2.26227106 Z" id="Shape" fill="#DCD2B4" fill-rule="nonzero"/>
      <path d="M92.5785311,20.2278388 C94.020339,24.1619048 92.4474576,26.8501832 89.1050847,28.292674 C86.4180791,29.4728938 82.4858757,28.4238095 81.3717514,25.0142857 C80.7819209,23.0472527 81.1751412,20.8835165 82.4858757,19.2443223 C82.8135593,18.8509158 83.2067797,18.4575092 83.6,18.1296703 C84.1898305,17.7362637 84.779661,17.4084249 85.500565,17.2117216 C87.4011299,16.818315 91.0711864,16.4904762 92.5785311,20.2278388 Z" id="Shape" fill="#FFFFFF" fill-rule="nonzero"/>
      <path d="M65.4463277,19.7032967 C67.6090395,22.9161172 65.4463277,26.7846154 62.1039548,28.2271062 C59.4169492,29.407326 55.4847458,28.3582418 54.3706215,24.9487179 C53.780791,23.1128205 54.239548,20.5556777 55.4847458,19.1787546 C55.8124294,18.785348 56.2056497,18.3919414 56.5988701,18.0641026 C57.1887006,17.670696 57.7785311,17.3428571 58.499435,17.1461538 C60.4,16.6871795 63.2836158,16.4904762 65.4463277,19.7032967 Z" id="Shape" fill="#FFFFFF" fill-rule="nonzero"/>
      <path d="M60.2033898,21.2769231 C59.679096,21.3424908 59.3514124,21.7358974 59.2858757,22.1948718 C59.2858757,22.9161172 59.0237288,23.7029304 59.8757062,24.2274725 C60.9242938,24.096337 60.9898305,23.1783883 61.120904,22.4571429 C61.0553672,21.9326007 60.7276836,21.4736264 60.2033898,21.2769231 Z" id="Shape" fill="#DCD2B4" fill-rule="nonzero"/>
      <path d="M87.3355932,24.4241758 C87.9254237,23.8996337 87.9909605,23.8340659 88.0564972,23.5717949 C88.1220339,22.9161172 87.9909605,22.2604396 87.7288136,21.7358974 C87.4011299,21.4736264 86.8768362,21.6047619 86.680226,21.9326007 C86.680226,21.9326007 86.680226,21.9981685 86.6146893,21.9981685 C86.5491525,22.6538462 86.2870056,23.3750916 86.680226,24.1619048 L87.3355932,24.4241758 Z" id="Shape" fill="#DCD2B4" fill-rule="nonzero"/>
      <path d="M60.2033898,21.2769231 C60.7276836,21.4736264 61.0553672,21.9326007 61.120904,22.4571429 C60.9898305,23.243956 60.9898305,24.096337 59.8757062,24.2274725 C59.0237288,23.7029304 59.2858757,22.9161172 59.2858757,22.1948718 C59.3514124,21.7358974 59.7446328,21.3424908 60.2033898,21.2769231 Z" id="Shape" fill="#000000" fill-rule="nonzero"/>
      <path d="M87.3355932,24.4241758 L86.6146893,24.096337 C86.2214689,23.3095238 86.4836158,22.5882784 86.5491525,21.9326007 C86.7457627,21.5391941 87.2045198,21.4080586 87.5977401,21.6703297 C87.5977401,21.6703297 87.6632768,21.6703297 87.6632768,21.7358974 C87.9909605,22.3260073 88.1220339,22.981685 87.9909605,23.5717949 C87.9909605,23.8340659 87.9254237,23.8996337 87.3355932,24.4241758 Z" id="Shape" fill="#000000" fill-rule="nonzero"/>
      <path d="M73.7039548,19.3754579 C72.7864407,19.3098901 72,19.9 71.7378531,20.752381 C71.0824859,22.129304 70.6237288,23.6373626 70.3615819,25.1454212 C70.1649718,26.7190476 69.7062147,28.2271062 69.4440678,29.8007326 C69.2474576,30.8498168 68.7231638,33.1446886 70.5581921,33.1446886 C72.3932203,33.1446886 72.720904,30.6531136 73.9661017,30.4564103 C75.2112994,30.259707 75.0146893,32.0300366 76.7841808,32.9479853 C78.5536723,33.8659341 78.619209,32.3578755 78.8158192,32.0956044 C78.8813559,28.6860806 76.8497175,19.8344322 73.7039548,19.3754579 Z" id="Shape" fill="#C8BEA0" fill-rule="nonzero"/>
      <path d="M45.9819209,54.9787546 C45.9819209,54.9787546 47.4892655,78.7142857 53.4531073,79.6978022 L58.3028249,78.4520147 L55.5502825,55.8967033 L45.9819209,54.9787546 Z" id="Shape" fill="#C8BEA0" fill-rule="nonzero"/>
      <path d="M92.1853107,57.0113553 L92.5785311,76.943956 L98.9355932,79.6978022 C98.9355932,79.6978022 104.899435,62.5190476 101.557062,56.0934066 L92.1853107,57.0113553 Z" id="Shape" fill="#AAA082" fill-rule="nonzero"/>
      <path d="M100.574011,134.315751 C101.491525,136.67619 100.508475,138.971062 98.3457627,139.823443 C96.5762712,140.544689 94.0858757,139.889011 93.3649718,137.85641 C92.9717514,136.67619 93.2338983,135.364835 94.0858757,134.381319 C94.2824859,134.119048 94.5446328,133.922344 94.8067797,133.725641 C95.2,133.46337 95.5932203,133.266667 96.0519774,133.135531 C97.2316384,132.938828 99.5254237,132.610989 100.574011,134.315751 Z" id="Shape" fill="#AAA082" fill-rule="nonzero"/>
      <path d="M92.119774,132.938828 C92.7751412,133.201099 93.1028249,133.922344 92.840678,134.578022 C92.840678,134.578022 92.840678,134.64359 92.7751412,134.64359 C92.5129944,135.2337 91.8576271,135.561538 91.2677966,135.299267 C90.940113,135.102564 90.6779661,134.774725 90.6779661,134.381319 C90.6779661,134.250183 90.6779661,134.184615 90.6779661,134.05348 C90.6779661,133.922344 90.7435028,133.791209 90.8090395,133.660073 C91.1367232,133.397802 91.5299435,132.807692 92.119774,132.938828 Z" id="Shape" fill="#AAA082" fill-rule="nonzero"/>
      <path d="M95.1344633,132.152015 C92.4474576,132.348718 91.6610169,132.348718 90.1536723,128.152381 C88.9740113,124.873993 90.0225989,119.890842 90.6124294,116.546886 C91.2022599,113.071795 91.9887006,109.465568 90.1536723,106.318315 C88.2531073,102.908791 88.8429379,100.089377 90.8090395,97.5978022 C91.8576271,96.2864469 97.0350282,95.7619048 99.8531073,99.4992674 C102.474576,102.908791 102.80226,110.383516 102.60565,113.858608 C102.40904,119.300733 97.8870056,131.955311 95.1344633,132.152015 Z" id="Shape" fill="#AAA082" fill-rule="nonzero"/>
      <path d="M97.4937853,100.613919 C98.7389831,102.384249 97.559322,104.023443 95.9864407,104.744689 C94.6101695,105.334799 92.9717514,104.744689 92.3819209,103.302198 C92.3819209,103.23663 92.3163842,103.23663 92.3163842,103.171062 C92.0542373,102.253114 92.2508475,101.204029 92.840678,100.417216 C92.9717514,100.220513 93.1683616,100.02381 93.3649718,99.892674 C93.6271186,99.6959707 93.9548023,99.5648352 94.2824859,99.4336996 C95.1344633,99.2369963 96.2485876,98.778022 97.4937853,100.613919 Z" id="Shape" fill="#DCD2B4" fill-rule="nonzero"/>
      <path d="M59.9412429,132.87326 C60.1378531,133.528938 59.679096,134.250183 59.0237288,134.381319 C59.0237288,134.381319 58.9581921,134.381319 58.9581921,134.381319 C58.3028249,134.512454 57.7129944,134.119048 57.5819209,133.46337 C57.5163842,133.069963 57.7129944,132.676557 57.9751412,132.479853 C58.040678,132.414286 58.1717514,132.348718 58.2372881,132.348718 C58.3683616,132.28315 58.499435,132.28315 58.6305085,132.28315 C59.0237288,132.28315 59.7446328,132.348718 59.9412429,132.87326 Z" id="Shape" fill="#C8BEA0" fill-rule="nonzero"/>
      <path d="M50.9627119,96.3520147 C53.7152542,94.0571429 58.4338983,94.3849817 61.0553672,96.8765568 C63.2836158,99.040293 62.6282486,104.547985 59.7446328,105.400366 C56.5333333,107.03956 57.5163842,109.465568 58.1062147,112.481685 C58.7615819,115.694505 58.7615819,118.972894 59.1548023,122.251282 C59.4169492,124.742857 60.0067797,127.89011 59.0237288,130.316117 C58.3683616,132.020879 56.9265537,132.676557 55.3536723,132.742125 C54.960452,132.742125 52.4700565,131.627473 51.0937853,128.808059 C48.8655367,124.480586 47.4892655,117.464835 47.4237288,114.448718 C47.2271186,107.760806 48.2101695,98.6468864 50.9627119,96.3520147 Z" id="Shape" fill="#C8BEA0" fill-rule="nonzero"/>
      <path d="M58.6305085,99.040293 C59.2858757,100.941758 58.6960452,102.64652 57.1231638,103.302198 C55.7468927,103.892308 54.1084746,103.302198 53.5186441,101.859707 C53.5186441,101.794139 53.4531073,101.794139 53.4531073,101.728571 C53.1909605,100.810623 53.3875706,99.7615385 53.9774011,98.9747253 C54.1084746,98.778022 54.3050847,98.5813187 54.5016949,98.4501832 C54.7638418,98.2534799 55.0915254,98.1223443 55.419209,97.9912088 C56.4677966,97.7289377 58.1717514,98.0567766 58.6305085,99.040293 Z" id="Shape" fill="#F0E6D2" fill-rule="nonzero"/>
      <path d="M51.4214689,139.03663 C51.4214689,138.839927 51.3559322,138.512088 51.2903955,138.249817 C51.159322,135.82381 51.9457627,134.905861 54.5016949,134.250183 C55.6813559,133.922344 56.8610169,134.184615 57.8440678,134.905861 C59.8101695,136.610623 58.4338983,139.823443 56.2056497,140.347985 L54.5016949,140.80696 C53.3220339,140.610256 52.1423729,140.282418 51.4214689,139.03663 Z" id="Shape" fill="#C8BEA0" fill-rule="nonzero"/>
      <path d="M123.577401,150.379853 L122.266667,150.314286 C116.106215,142.118315 118.00678,129.857143 118.858757,120.218681 C119.448588,114.252015 119.186441,108.285348 118.072316,102.384249 C117.744633,100.810623 116.958192,90.5820513 124.036158,89.8608059 C131.114124,89.1395604 129.213559,101.859707 129.213559,104.810256 C129.213559,110.252381 129.082486,115.694505 128.885876,121.13663 C128.558192,130.578388 131.769492,143.626374 123.577401,150.379853 Z M122.528814,103.564469 C121.283616,104.679121 121.349153,110.186813 121.218079,111.826007 C120.955932,115.169963 120.955932,118.513919 121.152542,121.857875 C121.414689,125.464103 121.676836,129.004762 121.676836,132.610989 C121.676836,135.495971 121.152542,139.364469 121.742373,142.118315 L122.922034,143.364103 C123.446328,143.626374 124.036158,143.626374 124.560452,143.495238 C127.050847,136.807326 125.871186,130.184982 125.936723,123.234799 C125.936723,119.563004 125.871186,115.956777 125.871186,112.284982 C125.871186,109.924542 126.919774,104.089011 123.446328,103.367766 L122.528814,103.564469 Z" id="Shape" fill="#C8BEA0" fill-rule="nonzero"/>
      <path d="M107.520904,49.7989011 C108.962712,49.53663 112.501695,52.4871795 113.812429,53.6673993 C118.531073,64.2238095 122.856497,76.0915751 123.446328,78.4520147 C124.494915,82.4516484 127.902825,94.9095238 124.232768,98.1223443 C122.135593,97.8600733 121.611299,93.5326007 121.349153,91.8278388 C118.924294,76.3538462 109.224859,56.0278388 108.372881,55.1754579 C107.520904,54.3230769 106.079096,54.0608059 105.227119,53.0772894 C104.637288,51.4380952 106.472316,50.5201465 107.520904,49.7989011 Z" id="Shape" fill="#AAA082" fill-rule="nonzero"/>
      <path d="M117.220339,157.067766 C116.892655,155.559707 117.416949,153.986081 118.59661,153.002564 C119.120904,152.609158 122.20113,151.101099 123.708475,151.887912 C126.39548,153.199267 127.640678,157.657875 125.80565,159.165934 C124.757062,160.018315 122.725424,160.870696 121.087006,160.346154 C119.448588,159.821612 118.072316,157.854579 117.220339,157.067766 Z" id="Shape" fill="#C8BEA0" fill-rule="nonzero"/>
      <path d="M122.332203,161.657509 C122.332203,162.313187 122.39774,162.903297 122.39774,163.493407 C122.463277,165.132601 122.463277,166.706227 122.528814,168.345421 C122.528814,169.787912 122.39774,171.164835 122.00452,172.541758 C121.676836,173.721978 121.087006,174.049817 119.776271,173.787546 C119.448588,173.525275 119.448588,173.131868 119.448588,172.804029 C119.317514,171.0337 119.448588,169.328938 119.841808,167.624176 C120.103955,166.575092 120.300565,165.46044 120.562712,164.345788 C120.693785,163.755678 120.890395,163.231136 121.087006,162.706593 C121.218079,162.116484 121.742373,161.723077 122.332203,161.657509 Z" id="Shape" fill="#C8BEA0" fill-rule="nonzero"/>
      <path d="M124.822599,172.213919 C123.970621,170.509158 123.577401,163.755678 124.167232,161.395238 C124.298305,161.264103 124.494915,161.198535 124.691525,161.132967 C124.888136,161.067399 125.150282,161.001832 125.346893,161.001832 C125.477966,161.264103 125.60904,161.526374 125.674576,161.788645 C125.740113,162.182051 125.80565,162.575458 125.871186,163.034432 C126.00226,164.673626 126.19887,166.247253 126.264407,167.886447 C126.264407,168.935531 126.133333,169.984615 125.936723,170.968132 C125.871186,171.558242 125.477966,172.082784 124.822599,172.213919 Z" id="Shape" fill="#C8BEA0" fill-rule="nonzero"/>
      <path d="M117.482486,158.575824 L118.662147,159.362637 C118.727684,160.805128 118.662147,162.313187 118.4,163.755678 C118.137853,165.263736 117.941243,166.771795 117.810169,168.279853 C117.744633,169.328938 117.285876,170.312454 116.499435,170.968132 C116.302825,170.705861 116.040678,170.574725 115.909605,170.378022 C115.778531,170.050183 115.778531,169.656777 115.778531,169.26337 C116.040678,165.788278 116.696045,162.378755 117.220339,158.903663 C117.285876,158.903663 117.351412,158.838095 117.482486,158.575824 Z" id="Shape" fill="#C8BEA0" fill-rule="nonzero"/>
      <path d="M112.632768,162.641026 C112.174011,162.247619 112.042938,161.591941 112.174011,161.001832 C112.370621,160.346154 112.501695,159.624908 112.763842,158.969231 C113.025989,158.182418 113.419209,157.461172 113.681356,156.674359 C114.074576,155.887546 114.533333,155.1663 115.123164,154.510623 C115.385311,154.248352 115.712994,154.051648 116.040678,153.854945 C116.171751,154.117216 116.302825,154.379487 116.302825,154.707326 C116.237288,157.002198 115.647458,159.231502 114.729944,161.32967 C114.467797,162.247619 113.550282,162.772161 112.632768,162.641026 Z" id="Shape" fill="#C8BEA0" fill-rule="nonzero"/>
      <path d="M44.2124294,50.5201465 C43.9502825,50.2578755 40.3457627,49.7333333 37.8553672,47.8318681 C37.1344633,44.0945055 43.1638418,43.1765568 45.4576271,44.0289377 C47.7514124,44.8813187 49.520904,46.4549451 49.3242938,47.7663004 C49.1276836,49.0776557 46.6372881,50.4545788 44.2124294,50.5201465 Z" id="Shape" fill="#DCD2B4" fill-rule="nonzero"/>
      <path d="M100.639548,45.4058608 C100.377401,45.6681319 96.7728814,45.9959707 94.2169492,47.8318681 C93.299435,51.503663 99.3288136,52.6838828 101.622599,51.9626374 C103.916384,51.2413919 105.751412,49.7333333 105.620339,48.3564103 C105.489266,46.9139194 103.129944,45.6025641 100.639548,45.4058608 Z" id="Shape" fill="#DCD2B4" fill-rule="nonzero"/>
      <path d="M87.6632768,104.220147 C87.4011299,108.875458 80.9785311,108.21978 77.5706215,108.350916 C73.9661017,108.482051 68.7887006,108.613187 65.839548,106.187179 C62.4316384,103.433333 65.1186441,98.5813187 62.4971751,95.4996337 C59.4169492,91.9589744 54.5672316,94.5161172 50.8971751,93.6637363 C50.4384181,87.6970696 65.380791,90.647619 68.5265537,90.7787546 C75.4734463,90.9754579 82.3548023,90.1230769 89.2361582,89.3362637 C91.7920904,89.0084249 95.2,88.2216117 97.6903955,88.8117216 C100.180791,89.4018315 102.146893,92.8113553 99.0011299,94.2538462 C97.100565,95.1062271 93.6926554,93.3358974 91.3988701,93.7948718 C87.5322034,94.5161172 87.4011299,97.0076923 87.6632768,104.220147 Z M68.919774,95.9586081 C68.5265537,97.1388278 68.919774,101.400733 70.6237288,102.843223 C71.6067797,103.695604 73.5728814,103.695604 75.3423729,103.957875 C78.9468927,104.482418 81.3062147,103.892308 82.0271186,100.941758 C82.4858757,98.9747253 82.2892655,98.3190476 82.2892655,96.0897436 C82.2892655,93.8604396 79.9299435,94.1227106 79.0779661,94.4505495 C78.2259887,94.7783883 79.0124294,96.1553114 78.160452,96.810989 C77.5050847,97.2699634 74.4903955,97.7945055 73.6384181,96.9421245 C72.7864407,96.0897436 73.6384181,95.1717949 72,94.843956 C70.3615819,94.5161172 69.3129944,94.7783883 68.919774,95.9586081 Z" id="Shape" fill="#DCD2B4" fill-rule="nonzero"/>
      <path d="M68.919774,89.7952381 C69.0508475,88.7461538 69.3785311,88.0904762 69.9683616,87.9593407 C70.4926554,87.7626374 71.0169492,87.6315018 71.6067797,87.5659341 C73.179661,87.3692308 74.8180791,87.6315018 76.3909605,87.6315018 C77.8327684,87.5659341 79.2745763,87.6315018 80.7819209,87.6315018 L81.5028249,87.6315018 C82.3548023,89.0084249 81.7649718,91.1065934 80.9785311,91.6311355 C80.7819209,91.6967033 80.6508475,91.8278388 80.4542373,91.8934066 C79.4711864,92.2212454 78.4225989,92.352381 77.439548,92.2868132 C75.6045198,92.2868132 73.7694915,92.2212454 71.9344633,92.0901099 C71.3446328,92.0901099 70.7548023,91.9589744 70.1649718,91.7622711 C69.5096045,91.4344322 69.0508475,90.9098901 68.919774,89.7952381 Z" id="Shape" fill="#DCD2B4" fill-rule="nonzero"/>
      <path d="M67.6090395,49.9956044 C67.740113,48.9465201 68.0677966,48.2908425 68.6576271,48.159707 C69.1819209,47.9630037 69.7062147,47.8318681 70.2960452,47.7663004 C71.8689266,47.5695971 73.5073446,47.8318681 75.080226,47.8318681 C76.5220339,47.7663004 77.9638418,47.8318681 79.4711864,47.8318681 C79.7333333,47.8318681 79.9954802,47.8318681 80.1920904,47.8318681 C81.0440678,49.2087912 80.4542373,51.3069597 79.6677966,51.8315018 C79.4711864,51.8970696 79.340113,52.0282051 79.1435028,52.0937729 C78.160452,52.4216117 77.1118644,52.5527473 76.1288136,52.4871795 C74.2937853,52.4871795 72.4587571,52.4216117 70.5581921,52.2904762 C69.9683616,52.2904762 69.3785311,52.1593407 68.7887006,51.9626374 C68.1988701,51.7003663 67.740113,51.1758242 67.6090395,49.9956044 Z" id="Shape" fill="#DCD2B4" fill-rule="nonzero"/>
      <path d="M15.5728814,151.232234 C15.6384181,150.18315 15.900565,149.199634 16.4248588,148.281685 C17.080226,147.298168 18.0632768,146.576923 19.1774011,146.314652 C20.0949153,146.052381 20.9468927,146.445788 21.7988701,146.904762 C22.0610169,147.101465 22.2576271,147.363736 22.3231638,147.691575 C22.519774,148.543956 22.6508475,149.396337 22.7163842,150.248718 C22.5853107,151.822344 21.6022599,153.199267 20.0949153,153.72381 C19.9638418,153.789377 19.8327684,153.789377 19.7016949,153.789377 C18.5875706,153.72381 17.4734463,153.461538 16.4248588,153.068132 C15.7694915,152.805861 15.5073446,152.215751 15.5728814,151.232234 Z" id="Shape" fill="#AAA082" fill-rule="nonzero"/>
      <path d="M23.3717514,167.952015 L21.8644068,167.755311 C21.4711864,167.361905 21.2090395,166.837363 21.2090395,166.247253 C20.9468927,163.886813 20.6847458,161.526374 20.4881356,159.231502 C20.3570621,158.182418 20.3570621,157.133333 20.4881356,156.149817 C20.4881356,155.625275 20.6847458,155.1663 21.0779661,154.838462 C21.4711864,154.707326 21.7333333,154.969597 21.9299435,155.231868 C22.5853107,156.084249 22.9785311,157.133333 23.1096045,158.182418 C23.240678,159.624908 23.6338983,161.067399 23.7649718,162.444322 C23.8305085,163.755678 23.8305085,165.001465 23.7649718,166.312821 C23.6338983,166.90293 23.5683616,167.427473 23.3717514,167.952015 Z" id="Shape" fill="#C8BEA0" fill-rule="nonzero"/>
      <path d="M18.0632768,169.394505 C17.4079096,169.001099 17.080226,168.345421 17.080226,167.624176 C17.0146893,166.706227 16.9491525,165.788278 16.8836158,164.87033 C16.6870056,162.903297 16.6214689,161.001832 16.6870056,159.034799 C16.6870056,158.182418 16.8180791,157.264469 16.8836158,156.412088 C16.8836158,155.821978 17.2768362,155.363004 17.8666667,155.231868 C17.9322034,155.363004 18.0632768,155.494139 18.0632768,155.690842 C18.1288136,156.280952 18.3254237,156.805495 18.5875706,157.330037 C18.7186441,157.52674 18.7841808,157.789011 18.7841808,158.051282 C18.980791,160.018315 19.439548,161.985348 19.439548,164.017949 C19.439548,165.263736 19.3084746,166.509524 19.0463277,167.689744 C18.980791,168.345421 18.5875706,169.001099 18.0632768,169.394505 Z" id="Shape" fill="#C8BEA0" fill-rule="nonzero"/>
      <path d="M15.179661,166.575092 C14.0655367,164.411355 13.8689266,157.067766 14.9175141,154.772894 C15.5073446,155.1663 15.8350282,155.821978 15.8350282,156.543223 C15.8350282,157.985714 15.8350282,159.428205 15.8350282,160.870696 C15.8350282,161.723077 15.8350282,162.641026 15.900565,163.493407 C16.0316384,164.608059 15.7694915,165.722711 15.179661,166.575092 Z" id="Shape" fill="#C8BEA0" fill-rule="nonzero"/>
      <path d="M27.8282486,157.52674 C27.1073446,157.330037 26.5175141,156.805495 26.2553672,156.084249 C26.0587571,155.75641 25.9276836,155.428571 25.8621469,155.035165 C25.3378531,153.002564 24.6169492,150.969963 23.7649718,149.068498 C23.699435,148.871795 23.6338983,148.675092 23.6338983,148.543956 C23.8960452,148.478388 24.1581921,148.478388 24.3548023,148.478388 C25.2723164,148.609524 26.0587571,149.134066 26.5830508,149.986447 C27.5661017,151.691209 28.6146893,153.395971 29.0734463,155.363004 C29.2700565,156.608791 29.1389831,156.93663 27.8282486,157.52674 Z" id="Shape" fill="#C8BEA0" fill-rule="nonzero"/>
      <path d="M97.3627119,179.426374 L95.920904,179.164103 C95.920904,179.164103 98.0180791,141.069231 100.377401,140.020147 C101.425989,140.479121 102.474576,141.003663 102.736723,143.167399 C103.981921,153.461538 97.3627119,179.426374 97.3627119,179.426374 Z" id="Shape" fill="#AAA082" fill-rule="nonzero"/>
      <path d="M92.5785311,140.151282 L93.3649718,140.544689 C94.9378531,146.445788 94.2824859,153.330403 94.2824859,159.428205 C94.2824859,165.263736 94.3480226,178.770696 94.3480226,178.770696 L92.4474576,179.164103 L90.940113,176.344689 C91.0056497,176.344689 87.0734463,143.101832 92.5785311,140.151282 Z" id="Shape" fill="#AAA082" fill-rule="nonzero"/>
      <path d="M103.19548,178.901832 C103.19548,178.901832 94.2169492,178.573993 93.5615819,178.508425 C93.4305085,178.705128 93.8892655,175.492308 93.8237288,175.42674 C92.840678,175.689011 91.9231638,176.01685 90.940113,176.344689 L91.4644068,179.623077 C92.6440678,180.082051 93.8237288,180.278755 95.0689266,180.278755 C95.6587571,180.606593 103.457627,180.082051 103.457627,180.082051 L103.19548,178.901832 Z" id="Shape" fill="#AAA082" fill-rule="nonzero"/>
      <path d="M44.0158192,56.4212454 C43.6881356,55.1098901 43.8847458,53.732967 44.540113,52.5527473 C46.7683616,50.2578755 54.3706215,52.1593407 57.0576271,52.4216117 C61.120904,52.7494505 65.1841808,53.2739927 69.2474576,54.0608059 C69.640678,54.4542125 69.7717514,55.0443223 69.5751412,55.5688645 C66.560452,57.5358974 61.3175141,57.1424908 57.7785311,57.3391941 C53.9774011,57.5358974 47.1615819,59.1095238 44.0158192,56.4212454 Z" id="Shape" fill="#DCD2B4" fill-rule="nonzero"/>
      <path d="M45.4576271,64.7483516 C44.8677966,63.4369963 44.540113,62.2567766 45.1954802,60.9454212 C52.1423729,59.5684982 60.7932203,58.8472527 67.8711864,59.5684982 C68.919774,60.8798535 68.9853107,61.0765568 68.919774,62.2567766 C62.0384181,65.7318681 52.7977401,67.2399267 45.4576271,64.7483516 Z" id="Shape" fill="#DCD2B4" fill-rule="nonzero"/>
      <path d="M48.2101695,71.0428571 C52.3389831,69.9282051 56.4677966,69.1413919 60.7276836,68.6168498 C62.8903955,68.289011 68.2644068,65.9941392 70.099435,67.5677656 C70.4271186,70.1249084 58.3683616,73.4032967 56.5988701,73.9934066 C54.8293785,74.5835165 51.0282486,75.7637363 49.1932203,75.1736264 C47.0305085,74.452381 47.7514124,72.9443223 48.2101695,71.0428571 Z" id="Shape" fill="#DCD2B4" fill-rule="nonzero"/>
      <path d="M51.3559322,79.6978022 C54.3706215,77.8619048 58.2372881,77.2062271 61.579661,75.9604396 C64.4632768,74.9113553 67.5435028,73.0754579 70.6892655,73.2065934 C69.4440678,76.4194139 52.4045198,84.7465201 51.3559322,79.6978022 Z" id="Shape" fill="#DCD2B4" fill-rule="nonzero"/>
      <path d="M47.1615819,53.8641026 L43.9502825,55.8311355 C43.9502825,55.8311355 45.9163842,76.1571429 51.7491525,80.2879121 L54.3050847,80.6157509 C52.1423729,75.2391941 50.3073446,69.7315018 48.6689266,64.1582418 C47.8824859,60.7487179 47.3581921,57.3391941 47.1615819,53.8641026 Z" id="Shape" fill="#DCD2B4" fill-rule="nonzero"/>
      <path d="M80.9785311,63.6336996 L80.2576271,62.3223443 C80.3887006,61.86337 80.5853107,61.4043956 80.7819209,60.9454212 C83.2067797,59.043956 90.0225989,60.8798535 92.840678,61.0765568 C95.9864407,61.2732601 99.0011299,61.4043956 102.081356,62.1912088 C102.671186,63.1091575 102.99887,64.1582418 103.129944,65.2728938 C101.753672,68.4857143 95.3310734,66.7809524 92.7751412,66.5186813 C88.7118644,66.1908425 84.7141243,65.207326 80.9785311,63.6336996 Z" id="Shape" fill="#DCD2B4" fill-rule="nonzero"/>
      <path d="M80.6508475,55.8311355 C81.5683616,52.618315 87.7943503,53.7985348 90.0881356,53.8641026 C94.020339,53.9952381 97.9525424,54.0608059 101.819209,54.1919414 C105.751412,58.3882784 95.2,58.5194139 93.8892655,58.5194139 C91.3333333,58.4538462 81.240678,59.5684982 80.6508475,55.8311355 Z" id="Shape" fill="#DCD2B4" fill-rule="nonzero"/>
      <path d="M82.0271186,67.7644689 C88.7118644,68.289011 95.6587571,70.1904762 102.277966,71.632967 L102.933333,72.6164835 C102.99887,73.4688645 102.80226,74.3212454 102.40904,75.1080586 C99.9841808,75.3703297 79.7333333,70.7150183 82.0271186,67.7644689 Z" id="Shape" fill="#DCD2B4" fill-rule="nonzero"/>
      <path d="M82.2237288,74.7802198 C82.879096,71.8952381 97.8214689,77.9274725 100.180791,78.7142857 L100.639548,80.025641 C99.5909605,84.3531136 84.0587571,77.4684982 82.2237288,74.7802198 Z" id="Shape" fill="#DCD2B4" fill-rule="nonzero"/>
      <path d="M97.0350282,80.8124542 L100.049718,80.878022 C100.049718,80.878022 102.146893,78.5831502 103.261017,73.0754579 C104.375141,67.3054945 104.047458,57.8637363 102.146893,54.9131868 L99.0666667,54.847619 C99.9186441,56.3556777 100.508475,57.9948718 100.705085,59.7652015 C101.098305,62.0600733 100.770621,64.9450549 100.442938,68.3545788 C100.115254,72.3542125 97.4937853,79.3043956 97.0350282,80.8124542 Z" id="Shape" fill="#DCD2B4" fill-rule="nonzero"/>
      <path d="M73.900565,55.2410256 C73.6384181,59.7652015 73.5728814,64.2893773 73.7694915,68.7479853 C73.8350282,71.5673993 74.0316384,74.3868132 74.0316384,77.2062271 C74.0316384,79.4355311 73.7694915,82.1238095 74.5559322,84.0908425 C75.3423729,84.5498168 75.8666667,84.2875458 76.4564972,83.0417582 C76.980791,74.0589744 76.3909605,64.3549451 75.5389831,55.2410256 L73.900565,55.2410256 Z" id="Shape" fill="#C8BEA0" fill-rule="nonzero"/>
      <path d="M70.4926554,83.5007326 C70.7548023,79.8289377 76.9152542,81.3369963 79.4711864,81.4681319 C82.1581921,87.6970696 70.8858757,87.3692308 70.4926554,83.5007326 Z" id="Shape" fill="#C8BEA0" fill-rule="nonzero"/>
      <path d="M71.279096,76.2227106 C71.5412429,72.5509158 76.9152542,74.0589744 79.1435028,74.1901099 C81.5683616,80.4846154 71.6723164,80.0912088 71.279096,76.2227106 Z" id="Shape" fill="#C8BEA0" fill-rule="nonzero"/>
      <path d="M71.8689266,69.6659341 C72.1310734,65.9941392 77.1118644,65.6663004 78.4225989,68.4201465 C80.4542373,72.747619 72.2621469,73.5344322 71.8689266,69.6659341 Z" id="Shape" fill="#C8BEA0" fill-rule="nonzero"/>
      <path d="M71.0824859,62.7157509 C71.3446328,59.043956 76.3254237,58.7161172 77.6361582,61.4699634 C79.6677966,65.8630037 71.4101695,66.6498168 71.0824859,62.7157509 Z" id="Shape" fill="#C8BEA0" fill-rule="nonzero"/>
      <path d="M71.4757062,56.552381 C71.6723164,53.6018315 75.7355932,53.3395604 76.7841808,55.5688645 C78.4225989,59.1095238 71.8033898,59.7652015 71.4757062,56.552381 Z" id="Shape" fill="#C8BEA0" fill-rule="nonzero"/>
      <path d="M76.7186441,83.107326 C76.8497175,83.7630037 76.4564972,84.4842491 75.7355932,84.6153846 C75.7355932,84.6153846 75.6700565,84.6153846 75.6700565,84.6153846 C75.0146893,84.7465201 74.4248588,84.2875458 74.2937853,83.6974359 C74.2282486,83.3040293 74.4248588,82.9106227 74.7525424,82.7139194 C74.8180791,82.6483516 74.9491525,82.5827839 75.0146893,82.5827839 C75.1457627,82.5172161 75.2768362,82.5172161 75.4079096,82.5172161 C75.8011299,82.4516484 76.5220339,82.5172161 76.7186441,83.107326 Z" id="Shape" fill="#DCD2B4" fill-rule="nonzero"/>
      <path d="M76.6531073,75.8948718 C76.7841808,76.5505495 76.3909605,77.2717949 75.6700565,77.4029304 C75.6700565,77.4029304 75.6045198,77.4029304 75.6045198,77.4029304 C74.9491525,77.5340659 74.359322,77.0750916 74.2282486,76.4849817 C74.1627119,76.0915751 74.359322,75.6981685 74.6870056,75.5014652 C74.7525424,75.4358974 74.8836158,75.3703297 74.9491525,75.3703297 C75.080226,75.3047619 75.2112994,75.3047619 75.3423729,75.3047619 C75.7355932,75.2391941 76.4564972,75.3047619 76.6531073,75.8948718 Z" id="Shape" fill="#DCD2B4" fill-rule="nonzero"/>
      <path d="M76.5220339,69.0102564 C76.6531073,69.6659341 76.259887,70.3871795 75.5389831,70.518315 C75.5389831,70.518315 75.4734463,70.518315 75.4734463,70.518315 C74.8180791,70.6494505 74.2282486,70.1904762 74.0971751,69.6003663 C74.0971751,69.2069597 74.2282486,68.8135531 74.5559322,68.6168498 C74.6214689,68.5512821 74.7525424,68.4857143 74.8180791,68.4857143 C74.9491525,68.4201465 75.080226,68.4201465 75.2112994,68.4201465 C75.6700565,68.3545788 76.3909605,68.4201465 76.5220339,69.0102564 Z" id="Shape" fill="#DCD2B4" fill-rule="nonzero"/>
      <path d="M75.9977401,62.0600733 C76.1288136,62.7157509 75.7355932,63.4369963 75.0146893,63.5681319 C75.0146893,63.5681319 74.9491525,63.5681319 74.9491525,63.5681319 C74.2937853,63.6992674 73.7039548,63.240293 73.5728814,62.6501832 C73.5073446,62.2567766 73.7039548,61.86337 74.0316384,61.6666667 C74.0971751,61.6010989 74.2282486,61.5355311 74.2937853,61.5355311 C74.4248588,61.4699634 74.5559322,61.4699634 74.6870056,61.4699634 C75.080226,61.4043956 75.8011299,61.4699634 75.9977401,62.0600733 Z" id="Shape" fill="#DCD2B4" fill-rule="nonzero"/>
      <path d="M75.6700565,56.0278388 C75.8011299,56.6835165 75.4079096,57.4047619 74.6870056,57.5358974 C74.6870056,57.5358974 74.6214689,57.5358974 74.6214689,57.5358974 C73.9661017,57.667033 73.3762712,57.2080586 73.2451977,56.6179487 C73.179661,56.2245421 73.3762712,55.8311355 73.7039548,55.6344322 C73.7694915,55.5688645 73.900565,55.5032967 73.9661017,55.5032967 C74.0971751,55.4377289 74.2282486,55.4377289 74.359322,55.4377289 C74.7525424,55.3721612 75.5389831,55.4377289 75.6700565,56.0278388 Z" id="Shape" fill="#DCD2B4" fill-rule="nonzero"/>
      <path d="M51.0282486,144.085348 C51.2903955,143.364103 51.4214689,142.773993 52.0112994,142.511722 C52.6666667,142.446154 53.1254237,142.83956 53.6497175,143.167399 C58.040678,153.72381 59.1548023,166.247253 61.3175141,177.393773 L60.0723164,177.393773 C57.5819209,173.197436 56.6644068,169.132234 55.5502825,164.476923 C54.0429379,157.657875 52.0112994,151.101099 51.0282486,144.085348 Z" id="Shape" fill="#C8BEA0" fill-rule="nonzero"/>
      <path d="M57.8440678,177.19707 C57.0576271,177.262637 55.6813559,177.131502 55.0915254,177.721612 C55.1570621,177.918315 55.2225989,178.115018 55.2225989,178.246154 C56.6644068,178.967399 59.4824859,178.63956 61.0553672,178.63956 C62.8903955,178.63956 64.2666667,178.508425 64.4632768,178.049451 C64.659887,177.328205 64.5943503,176.541392 64.2011299,175.885714 C64.2666667,176.01685 61.7107345,176.934799 61.7107345,176.934799 L57.8440678,177.19707 Z" id="Shape" fill="#C8BEA0" fill-rule="nonzero"/>
      <path d="M60.0067797,142.183883 C61.3830508,141.790476 61.7762712,148.216117 62.2350282,151.101099 C62.6937853,154.445055 63.1525424,157.789011 63.4146893,161.132967 C63.7423729,164.739194 64.2666667,175.885714 64.2666667,175.885714 L63.3491525,177.787179 L61.8418079,177.656044 L58.8271186,146.511355 C58.7615819,146.511355 58.6305085,142.577289 60.0067797,142.183883 Z" id="Shape" fill="#C8BEA0" fill-rule="nonzero"/>
      <path d="M19.1774011,144.216484 C15.7694915,140.80696 17.080226,136.151648 17.4079096,131.69304 C17.8011299,126.644322 18.7186441,121.72674 20.160452,116.874725 C21.4711864,112.547253 22.6508475,108.21978 23.6338983,103.82674 C24.0926554,101.597436 24.8135593,99.2369963 24.4858757,97.0076923 C24.1581921,94.581685 22.5853107,86.189011 30.6463277,85.9923077 C38.7073446,85.7956044 31.760452,100.351648 31.3016949,101.990842 C29.7943503,107.170696 29.1389831,112.875092 28.0248588,118.186081 C26.9107345,123.365934 26.9762712,128.611355 26.0587571,133.791209 C25.0757062,138.839927 24.9446328,143.495238 19.1774011,144.216484 Z M28.5491525,95.8930403 C26.2553672,96.4175824 24.9446328,103.367766 24.420339,105.334799 C23.5028249,109.006593 22.8474576,112.809524 22.1920904,116.612454 C21.6022599,119.825275 20.8158192,122.972527 20.160452,126.11978 C19.5706215,128.873626 17.5389831,134.446886 19.439548,137.004029 L21.6677966,137.594139 C23.7649718,135.102564 23.5028249,130.512821 24.1581921,127.496703 C24.9446328,123.824908 25.9276836,120.153114 26.7141243,116.481319 C27.3694915,113.399634 31.8915254,97.0076923 28.5491525,95.8930403 Z" id="Shape" fill="#DCD2B4" fill-rule="nonzero"/>
      <path d="M29.5977401,91.5 L28.8112994,91.3032967 C26.9107345,85.8611722 29.6632768,78.5175824 30.8429379,73.2721612 C31.6949153,69.403663 32.4158192,65.5351648 33.3333333,61.6666667 C33.9887006,58.8472527 34.7751412,54.6509158 36.7412429,52.2249084 C37.2655367,51.5692308 39.8870056,49.7333333 39.8870056,51.9626374 C39.8214689,59.3717949 34.5785311,82.4516484 29.5977401,91.5 Z" id="Shape" fill="#C8BEA0" fill-rule="nonzero"/>
      <path d="M31.8915254,89.5985348 C32.6124294,91.3032967 31.8915254,93.3358974 30.1875706,94.1882784 C28.8112994,94.7783883 27.1728814,94.1882784 26.5830508,92.7457875 C26.5830508,92.6802198 26.5175141,92.6802198 26.5175141,92.614652 C26.2553672,91.6967033 26.4519774,90.647619 27.0418079,89.8608059 C27.1728814,89.6641026 27.3694915,89.4673993 27.5661017,89.3362637 C27.8282486,89.1395604 28.1559322,89.0084249 28.4836158,88.8772894 C29.6632768,88.7461538 30.8429379,89.0084249 31.8915254,89.5985348 Z" id="Shape" fill="#C8BEA0" fill-rule="nonzero"/>
      <path d="M126.526554,94.7783883 C127.378531,97.0732601 126.39548,99.5648352 124.429379,100.417216 C122.725424,101.138462 120.693785,100.351648 119.972881,98.6468864 C119.972881,98.5813187 119.907345,98.5157509 119.907345,98.5157509 C119.579661,97.3355311 119.776271,96.0897436 120.562712,95.1717949 C120.759322,94.9095238 120.955932,94.7128205 121.218079,94.5161172 C121.545763,94.2538462 121.938983,94.0571429 122.332203,93.9260073 C123.774011,93.729304 125.281356,94.0571429 126.526554,94.7783883 Z" id="Shape" fill="#AAA082" fill-rule="nonzero"/>
    </g>
  </g>
</svg>