<svg width="150px" height="181px" viewBox="0 0 150 181" version="1.1" xml:space="preserve" xmlns="http://www.w3.org/2000/svg" xmlns:xlink="http://www.w3.org/1999/xlink">
  <defs/>
  <g>
    <title>skeleton-b</title>
    <desc>Created with Sketch.</desc>
    <g id="skeleton-b" stroke="none" stroke-width="1" fill="none" fill-rule="evenodd">
      <path d="M90.778392,140.928405 C91.3050251,143.412451 89.9226131,145.50428 87.618593,145.961868 C85.7753769,146.354086 83.4055276,145.308171 83.0105528,143.216342 C82.8130653,141.974319 83.3396985,140.732296 84.3271357,139.94786 C84.5904523,139.751751 84.8537688,139.555642 85.1829146,139.424903 C85.5778894,139.228794 86.0386935,139.098054 86.4994975,139.098054 C87.6844221,139.032685 90.0542714,139.098054 90.778392,140.928405 Z" id="Shape" fill="#AAA082" fill-rule="nonzero"/>
      <path d="M82.681407,138.182879 C83.2738693,138.509728 83.4713568,139.294163 83.1422111,139.88249 C83.1422111,139.88249 83.0763819,139.94786 83.0763819,139.94786 C82.7472362,140.470817 82.0231156,140.666926 81.4306533,140.340078 C81.1015075,140.078599 80.9698492,139.751751 80.9698492,139.359533 C80.9698492,139.228794 81.0356784,139.163424 81.0356784,139.032685 C81.1015075,138.901946 81.1673367,138.771206 81.2331658,138.705837 C81.5623116,138.444358 82.1547739,137.921401 82.681407,138.182879 Z" id="Shape" fill="#AAA082" fill-rule="nonzero"/>
      <path d="M85.7753769,137.921401 C83.0763819,137.659922 82.2864322,137.529183 81.5623116,133.149416 C80.9698492,129.750195 82.8788945,124.97821 83.9979899,121.840467 C85.1829146,118.506615 86.4994975,115.107393 85.2487437,111.708171 C83.9321608,108.047471 84.9854271,105.367315 87.3552764,103.275486 C88.6060302,102.164202 93.8065327,102.55642 95.9788945,106.674708 C97.9537688,110.466148 97.0321608,117.852918 96.3080402,121.18677 C95.1231156,126.481712 88.4743719,138.182879 85.7753769,137.921401 Z" id="Shape" fill="#AAA082" fill-rule="nonzero"/>
      <path d="M93.4115578,107.263035 C94.3331658,109.224125 92.9507538,110.662257 91.239196,111.054475 C89.7251256,111.446693 88.2768844,110.531518 87.8819095,109.028016 C87.8819095,108.962646 87.8819095,108.962646 87.8819095,108.897276 C87.7502513,107.916732 88.1452261,106.936187 88.8693467,106.28249 C89.0668342,106.086381 89.2643216,105.955642 89.461809,105.890272 C89.7909548,105.759533 90.1201005,105.628794 90.4492462,105.628794 C91.3708543,105.563424 92.4899497,105.301946 93.4115578,107.263035 Z" id="Shape" fill="#DCD2B4" fill-rule="nonzero"/>
      <path d="M47.8577889,171.848249 L47.1336683,170.606226 C47.1336683,170.606226 83.5371859,146.354086 85.841206,147.46537 C86.1045226,148.576654 86.4336683,149.753307 84.919598,151.256809 C77.7442211,158.774319 47.8577889,171.848249 47.8577889,171.848249 Z" id="Shape" fill="#AAA082" fill-rule="nonzero"/>
      <path d="M80.7065327,141.582101 C80.7723618,141.84358 80.838191,142.105058 80.9040201,142.431907 C77.3492462,147.4 66.0266332,152.891051 61.3527638,156.81323 L46.4095477,169.168093 L44.8954774,167.92607 L46.1462312,164.984436 C46.1462312,164.984436 74.9135678,139.163424 80.7065327,141.582101 Z" id="Shape" fill="#AAA082" fill-rule="nonzero"/>
      <path d="M52.0050251,175.966537 C52.0050251,175.966537 46.541206,168.841245 46.1462312,168.318288 C45.9487437,168.318288 48.7135678,166.618677 48.7135678,166.553307 C47.9236181,165.964981 47.0678392,165.442023 46.1462312,164.919066 L43.9738693,167.403113 C44.3688442,168.579767 45.0271357,169.625681 45.8170854,170.606226 C45.9487437,171.259922 51.2809045,176.947082 51.2809045,176.947082 L52.0050251,175.966537 Z" id="Shape" fill="#AAA082" fill-rule="nonzero"/>
      <path d="M41.4065327,60.5891051 C41.4065327,60.5891051 42.920603,84.2529183 48.9110553,85.233463 L53.7824121,83.9914397 L51.0175879,61.5042802 L41.4065327,60.5891051 Z" id="Shape" fill="#C8BEA0" fill-rule="nonzero"/>
      <path d="M87.8160804,62.6155642 L88.2110553,82.4879377 L94.5964824,85.233463 C94.5964824,85.233463 100.586935,68.1066148 97.2296482,61.7003891 L87.8160804,62.6155642 Z" id="Shape" fill="#AAA082" fill-rule="nonzero"/>
      <path d="M119.41407,155.701946 L118.097487,155.636576 C111.909548,147.46537 113.818593,135.241245 114.674372,125.631907 C115.266834,119.683268 115.003518,113.73463 113.884422,107.851362 C113.555276,106.28249 109.473869,96.0194553 118.821608,93.8622568 C128.169347,91.7050584 125.009548,107.393774 125.009548,110.335409 C125.009548,115.761089 124.877889,121.18677 124.680402,126.612451 C124.351256,135.960311 127.576884,148.968872 119.41407,155.701946 Z M118.360804,109.028016 C117.11005,110.1393 117.175879,115.63035 117.044221,117.264591 C116.780905,120.598444 116.780905,123.932296 116.978392,127.266148 C117.241709,130.861479 117.505025,134.39144 117.505025,137.98677 C117.505025,140.863035 116.978392,144.719844 117.570854,147.46537 L118.755779,148.707393 C119.282412,148.968872 119.874874,148.968872 120.401508,148.838132 C122.903015,142.170428 121.71809,135.568093 121.78392,128.638911 C121.78392,124.97821 121.71809,121.382879 121.71809,117.722179 C121.71809,115.368872 122.771357,109.550973 119.282412,108.831907 L118.360804,109.028016 Z" id="Shape" fill="#C8BEA0" fill-rule="nonzero"/>
      <path d="M103.220101,55.4249027 C104.668342,55.1634241 108.223116,58.1050584 109.539698,59.2817121 C114.279397,69.8062257 118.624121,81.6381323 119.216583,83.9914397 C120.269849,87.9789883 123.627136,100.399222 120.006533,103.602335 C117.9,103.340856 117.373367,99.0264591 117.11005,97.3268482 C114.674372,81.8996109 104.931658,61.6350195 104.075879,60.785214 C103.220101,59.9354086 101.771859,59.67393 100.91608,58.6933852 C100.323618,57.059144 102.166834,56.1439689 103.220101,55.4249027 Z" id="Shape" fill="#AAA082" fill-rule="nonzero"/>
      <path d="M122.903015,100.203113 C123.758794,102.491051 122.771357,104.975097 120.796482,105.824903 C119.084925,106.543969 117.044221,105.759533 116.320101,104.059922 C116.320101,103.994553 116.254271,103.929183 116.254271,103.863813 C115.925126,102.68716 116.122613,101.445136 116.912563,100.464591 C117.11005,100.203113 117.307538,100.007004 117.570854,99.8108949 C117.9,99.5494163 118.294975,99.3533074 118.68995,99.2879377 C120.138191,99.1571984 121.586432,99.418677 122.903015,100.203113 Z" id="Shape" fill="#AAA082" fill-rule="nonzero"/>
      <path d="M125.338693,162.36965 C125.667839,160.866148 125.141206,159.297276 123.956281,158.316732 C123.429648,157.924514 120.335678,156.421012 118.821608,157.205447 C116.122613,158.51284 114.871859,162.957977 116.715075,164.461479 C117.768342,165.311284 119.809045,166.161089 121.454774,165.638132 C123.100503,165.115175 124.482915,163.154086 125.338693,162.36965 Z" id="Shape" fill="#C8BEA0" fill-rule="nonzero"/>
      <path d="M120.20402,166.945525 C120.20402,167.599222 120.138191,168.187549 120.138191,168.775875 L120.006533,173.61323 C120.006533,175.051362 120.138191,176.424125 120.533166,177.796887 C120.862312,178.973541 121.454774,179.300389 122.771357,179.038911 C123.100503,178.777432 123.100503,178.385214 123.100503,178.058366 C123.232161,176.293385 123.100503,174.593774 122.705528,172.894163 C122.442211,171.848249 122.244724,170.736965 121.981407,169.625681 C121.849749,169.037354 121.652261,168.514397 121.454774,167.99144 C121.323116,167.403113 120.796482,167.010895 120.20402,166.945525 Z" id="Shape" fill="#C8BEA0" fill-rule="nonzero"/>
      <path d="M117.702513,177.470039 C118.558291,175.770428 118.953266,169.037354 118.360804,166.684047 C118.229146,166.553307 118.031658,166.487938 117.834171,166.422568 C117.636683,166.357198 117.373367,166.291829 117.175879,166.291829 C117.044221,166.553307 116.912563,166.814786 116.846734,167.076265 C116.780905,167.468482 116.715075,167.8607 116.649246,168.318288 C116.517588,169.952529 116.320101,171.521401 116.254271,173.155642 C116.254271,174.201556 116.38593,175.247471 116.583417,176.228016 C116.649246,176.816342 117.044221,177.3393 117.702513,177.470039 Z" id="Shape" fill="#C8BEA0" fill-rule="nonzero"/>
      <path d="M125.075377,163.873152 L123.890452,164.657588 C123.824623,166.09572 123.890452,167.599222 124.153769,169.037354 C124.417085,170.540856 124.614573,172.044358 124.746231,173.54786 C124.81206,174.593774 125.272864,175.574319 126.062814,176.228016 C126.260302,175.966537 126.523618,175.835798 126.655276,175.639689 C126.786935,175.31284 126.786935,174.920623 126.786935,174.528405 C126.523618,171.063813 125.865327,167.664591 125.338693,164.2 C125.272864,164.2 125.207035,164.13463 125.075377,163.873152 Z" id="Shape" fill="#C8BEA0" fill-rule="nonzero"/>
      <path d="M129.946734,167.92607 C130.407538,167.533852 130.539196,166.880156 130.341709,166.291829 C130.144221,165.638132 130.012563,164.919066 129.749246,164.26537 C129.48593,163.480934 129.090955,162.761868 128.827638,161.977432 C128.432663,161.192996 127.971859,160.47393 127.313568,159.820233 C127.050251,159.558755 126.721106,159.362646 126.39196,159.166537 C126.260302,159.428016 126.128643,159.689494 126.128643,160.016342 C126.194472,162.30428 126.786935,164.526848 127.708543,166.618677 C128.103518,167.533852 129.025126,168.122179 129.946734,167.92607 Z" id="Shape" fill="#C8BEA0" fill-rule="nonzero"/>
      <path d="M17.8396985,149.884047 C14.6798995,146.288716 16.3256281,141.71284 16.9839196,137.267704 C17.7738693,132.299611 19.0246231,127.462257 20.8678392,122.755642 C22.4477387,118.571984 24.0276382,114.322957 25.3442211,110.00856 C26.0025126,107.851362 26.8582915,105.563424 26.7266332,103.275486 C26.5949749,100.856809 25.6075377,92.3587549 33.7045226,92.8163424 C41.8015075,93.27393 33.7703518,107.197665 33.1778894,108.766537 C31.2688442,113.8 30.1497487,119.42179 28.7015075,124.585992 C27.2532663,129.619455 26.8582915,134.914397 25.5417085,139.94786 C24.1592965,144.981323 23.6326633,149.557198 17.8396985,149.884047 Z M30.8080402,102.55642 C28.5040201,102.948638 26.660804,109.681712 26.0025126,111.708171 C24.7517588,115.303502 23.8301508,119.029572 22.9085427,122.755642 C22.118593,125.893385 21.0653266,128.965759 20.1437186,132.038132 C19.3537688,134.783658 16.9180905,140.143969 18.6296482,142.824125 L20.8020101,143.60856 C23.040201,141.320623 23.1718593,136.744747 24.0934673,133.737743 C25.1467337,130.142412 26.3974874,126.612451 27.4507538,122.951751 C28.3723618,119.879377 34.0336683,103.863813 30.8080402,102.55642 Z" id="Shape" fill="#DCD2B4" fill-rule="nonzero"/>
      <path d="M32.2562814,97.9151751 L31.4663317,97.9151751 C28.5040201,93.0124514 29.6889447,85.2988327 29.7547739,79.8731518 C29.7547739,75.9509728 29.6889447,71.9634241 29.7547739,68.0412451 C29.820603,65.1649805 29.7547739,60.9159533 31.1371859,58.1050584 C31.5321608,57.3859922 33.7703518,55.0326848 34.1653266,57.1898833 C35.6135678,64.4459144 35.2844221,88.1097276 32.2562814,97.9151751 Z" id="Shape" fill="#C8BEA0" fill-rule="nonzero"/>
      <path d="M34.0336683,95.5618677 C35.0869347,97.1307393 34.7577889,99.2225681 33.3095477,100.333852 C32.058794,101.249027 30.3472362,100.922179 29.4256281,99.6801556 C29.4256281,99.614786 29.359799,99.614786 29.359799,99.5494163 C28.898995,98.6996109 28.8331658,97.6536965 29.2939698,96.8038911 C29.4256281,96.5424125 29.5572864,96.3463035 29.6889447,96.1501946 C29.8864322,95.888716 30.1497487,95.692607 30.4788945,95.5618677 C31.7296482,95.1696498 32.9145729,95.1696498 34.0336683,95.5618677 Z" id="Shape" fill="#C8BEA0" fill-rule="nonzero"/>
      <path d="M38.3125628,56.4708171 C38.0492462,56.2093385 34.4286432,55.6863813 31.9271357,53.7906615 C31.2030151,50.0645914 37.2592965,49.1494163 39.5633166,49.9992218 C41.8673367,50.8490272 43.6447236,52.4178988 43.4472362,53.7252918 C43.2497487,55.0326848 40.7482412,56.4054475 38.3125628,56.4708171 Z" id="Shape" fill="#DCD2B4" fill-rule="nonzero"/>
      <path d="M95.7155779,51.6988327 C95.4522613,51.9603113 91.7658291,52.2871595 89.1984925,54.1175097 C88.2768844,57.7782101 94.3331658,58.9548638 96.6371859,58.2357977 C98.941206,57.5167315 100.784422,56.0132296 100.652764,54.6404669 C100.521106,53.2023346 98.1512563,51.8949416 95.7155779,51.6988327 Z" id="Shape" fill="#C8BEA0" fill-rule="nonzero"/>
      <path d="M83.2738693,109.681712 C83.0105528,114.322957 76.5592965,113.669261 73.1361809,113.8 C69.5155779,113.930739 64.3150754,114.061479 61.3527638,111.642802 C57.9296482,108.897276 60.6286432,104.059922 57.9954774,100.987549 C54.9015075,97.4575875 50.0301508,100.007004 46.3437186,99.0918288 C45.8829146,93.1431907 60.8919598,96.1501946 64.0517588,96.2155642 C71.0296482,96.4116732 77.9417085,95.6272374 84.8537688,94.7774319 C87.4211055,94.5159533 90.8442211,93.6661479 93.3457286,94.3198444 C95.8472362,94.9735409 97.8221106,98.307393 94.6623116,99.7455253 C92.7532663,100.595331 89.3301508,98.8303502 87.0919598,99.2879377 C83.2080402,100.072374 83.0763819,102.55642 83.2738693,109.681712 Z M64.4467337,101.445136 C64.0517588,102.62179 64.4467337,106.870817 66.1582915,108.308949 C67.2115578,109.158755 69.120603,109.224125 70.8979899,109.485603 C74.518593,110.00856 76.8884422,109.420233 77.6125628,106.478599 C78.0733668,104.45214 77.8758794,103.798444 77.8758794,101.641245 C77.8758794,99.4840467 75.5060302,99.6801556 74.6502513,100.007004 C73.7944724,100.333852 74.5844221,101.706615 73.7286432,102.360311 C73.0703518,102.817899 70.0422111,103.340856 69.1864322,102.491051 C68.3306533,101.641245 69.1864322,100.72607 67.5407035,100.399222 C65.8949749,100.072374 64.8417085,100.268482 64.4467337,101.445136 Z" id="Shape" fill="#DCD2B4" fill-rule="nonzero"/>
      <path d="M62.801005,96.2809339 C62.8668342,95.2350195 63.1959799,94.581323 63.7884422,94.385214 C64.3150754,94.1891051 64.8417085,94.0583658 65.3683417,93.9276265 C66.9482412,93.6661479 68.5939698,93.8622568 70.1738693,93.7968872 C71.6221106,93.7315175 73.0703518,93.6661479 74.5844221,93.6007782 L75.3085427,93.6007782 C76.2301508,94.9735409 75.7035176,97.0653696 74.979397,97.5883268 C74.8477387,97.7190661 74.6502513,97.7844358 74.4527638,97.8498054 C73.4653266,98.2420233 72.4778894,98.3727626 71.4246231,98.3727626 C69.581407,98.4381323 67.738191,98.4381323 65.8291457,98.3727626 C65.2366834,98.3727626 64.6442211,98.307393 64.0517588,98.111284 C63.4592965,97.9151751 62.9984925,97.3922179 62.801005,96.2809339 Z" id="Shape" fill="#DCD2B4" fill-rule="nonzero"/>
      <path d="M63.1301508,54.9673152 C63.261809,53.9214008 63.5909548,53.2677043 64.1834171,53.136965 C64.7100503,52.940856 65.2366834,52.8101167 65.8291457,52.7447471 C67.4090452,52.5486381 69.0547739,52.8101167 70.6346734,52.8101167 C72.0829146,52.7447471 73.5311558,52.8101167 75.0452261,52.8101167 C75.3085427,52.8101167 75.5718593,52.8101167 75.7693467,52.8101167 C76.6251256,54.1828794 76.0326633,56.2747082 75.2427136,56.7976654 C75.0452261,56.863035 74.9135678,56.9937743 74.7160804,57.059144 C73.7286432,57.3859922 72.6753769,57.5167315 71.6879397,57.4513619 C69.8447236,57.4513619 68.0015075,57.3859922 66.0924623,57.2552529 C65.5,57.2552529 64.9075377,57.1245136 64.3150754,56.9284047 C63.7226131,56.6669261 63.261809,56.1439689 63.1301508,54.9673152 Z" id="Shape" fill="#DCD2B4" fill-rule="nonzero"/>
      <path d="M11.7834171,152.106615 C12.5733668,151.387549 13.4949749,150.929961 14.5482412,150.733852 C15.7331658,150.537743 16.9180905,150.733852 17.9055276,151.387549 C18.7613065,151.845136 19.0246231,152.760311 19.2879397,153.675486 C19.3537688,154.002335 19.2221106,154.329183 19.0904523,154.590661 C18.6296482,155.309728 18.0371859,156.028794 17.5105528,156.617121 C16.3256281,157.597665 14.6140704,157.859144 13.1658291,157.140078 C13.0341709,157.074708 12.9683417,157.009339 12.9025126,156.943969 C12.178392,156.094163 11.5859296,155.113619 11.1251256,154.133074 C10.7959799,153.348638 11.0592965,152.760311 11.7834171,152.106615 Z" id="Shape" fill="#AAA082" fill-rule="nonzero"/>
      <path d="M5.20050251,169.298833 L4.27889447,168.122179 C4.27889447,167.533852 4.47638191,167.010895 4.87135678,166.618677 C6.38542714,164.788327 7.89949749,163.023346 9.41356784,161.192996 C10.0718593,160.40856 10.7959799,159.689494 11.6517588,159.035798 C11.9809045,158.708949 12.5075377,158.51284 12.9683417,158.57821 C13.3633166,158.839689 13.2974874,159.101167 13.2316583,159.493385 C13.0341709,160.5393 12.5733668,161.519844 11.9150754,162.36965 C10.9934673,163.480934 10.2035176,164.722957 9.28190955,165.768872 C8.42613065,166.749416 7.50452261,167.599222 6.51708543,168.449027 C6.12211055,168.775875 5.66130653,169.037354 5.20050251,169.298833 Z" id="Shape" fill="#C8BEA0" fill-rule="nonzero"/>
      <path d="M0.394974874,166.487938 C0.197487437,165.768872 0.46080402,165.049805 0.987437186,164.526848 C1.5798995,163.873152 2.23819095,163.154086 2.83065327,162.500389 C4.08140704,160.996887 5.4638191,159.624125 6.9120603,158.251362 C7.57035176,157.663035 8.22864322,157.140078 8.95276382,156.617121 C9.34773869,156.224903 10.0060302,156.159533 10.4668342,156.486381 C10.4668342,156.68249 10.401005,156.81323 10.3351759,156.943969 C9.94020101,157.401556 9.67688442,157.924514 9.47939698,158.447471 C9.41356784,158.708949 9.28190955,158.905058 9.08442211,159.101167 C7.7678392,160.604669 6.71457286,162.30428 5.26633166,163.677043 C4.41055276,164.526848 3.42311558,165.311284 2.36984925,165.964981 C1.77738693,166.422568 1.11909548,166.553307 0.394974874,166.487938 Z" id="Shape" fill="#C8BEA0" fill-rule="nonzero"/>
      <path d="M0.394974874,162.435019 C1.18492462,160.147082 6.31959799,154.91751 8.68944724,154.002335 C8.82110553,154.721401 8.55778894,155.440467 8.03115578,155.898054 C6.97788945,156.943969 5.92462312,157.924514 4.87135678,158.905058 C4.21306533,159.493385 3.62060302,160.147082 3.0281407,160.800778 C2.43567839,161.715953 1.51407035,162.30428 0.394974874,162.435019 Z" id="Shape" fill="#C8BEA0" fill-rule="nonzero"/>
      <path d="M15.8648241,165.245914 C15.4698492,164.592218 15.4698492,163.807782 15.798995,163.088716 C15.9306533,162.761868 16.0623116,162.36965 16.259799,162.042802 C17.3788945,160.212451 18.3005025,158.316732 19.0904523,156.355642 C19.1562814,156.159533 19.2879397,156.028794 19.3537688,155.832685 C19.5512563,155.963424 19.7487437,156.159533 19.880402,156.355642 C20.4070352,157.140078 20.6045226,158.055253 20.341206,158.970428 C19.7487437,160.866148 19.2879397,162.827237 18.1688442,164.526848 C17.5105528,165.638132 17.181407,165.768872 15.8648241,165.245914 Z" id="Shape" fill="#C8BEA0" fill-rule="nonzero"/>
      <path d="M39.4316583,62.0272374 C39.1025126,60.7198444 39.3,59.3470817 39.9582915,58.170428 C42.1964824,55.8824903 49.8326633,57.7782101 52.5316583,58.0396887 C56.6130653,58.366537 60.6944724,58.8894942 64.7758794,59.67393 C65.1708543,60.0661479 65.3025126,60.6544747 65.1050251,61.1774319 C62.0768844,63.1385214 56.8105528,62.7463035 53.2557789,62.9424125 C49.4376884,63.1385214 42.5914573,64.707393 39.4316583,62.0272374 Z" id="Shape" fill="#DCD2B4" fill-rule="nonzero"/>
      <path d="M40.8798995,70.3291829 C40.2874372,69.0217899 39.9582915,67.8451362 40.6165829,66.5377432 C47.5944724,65.1649805 56.2839196,64.4459144 63.3934673,65.1649805 C64.4467337,66.4723735 64.5125628,66.6684825 64.4467337,67.8451362 C57.5346734,71.3097276 48.2527638,72.8132296 40.8798995,70.3291829 Z" id="Shape" fill="#DCD2B4" fill-rule="nonzero"/>
      <path d="M43.7105528,76.6046693 C47.8577889,75.4933852 52.0050251,74.7089494 56.2839196,74.1859922 C58.4562814,73.859144 63.8542714,71.5712062 65.6974874,73.1400778 C66.0266332,75.6894942 53.9140704,78.9579767 52.1366834,79.5463035 C50.3592965,80.1346304 46.541206,81.311284 44.6979899,80.7229572 C42.459799,80.0038911 43.1839196,78.5003891 43.7105528,76.6046693 Z" id="Shape" fill="#DCD2B4" fill-rule="nonzero"/>
      <path d="M46.8045226,85.233463 C49.8326633,83.4031128 53.7165829,82.7494163 57.0738693,81.507393 C59.9703518,80.4614786 63.0643216,78.6311284 66.2241206,78.7618677 C64.9733668,81.9649805 47.8577889,90.2669261 46.8045226,85.233463 Z" id="Shape" fill="#DCD2B4" fill-rule="nonzero"/>
      <path d="M42.5914573,59.477821 L39.3658291,61.4389105 C39.3658291,61.4389105 41.3407035,81.7035019 47.1994975,85.8217899 L49.7668342,86.1486381 C47.5944724,80.7883268 45.7512563,75.2972763 44.1713568,69.740856 C43.381407,66.3416342 42.8547739,62.9424125 42.5914573,59.477821 Z" id="Shape" fill="#DCD2B4" fill-rule="nonzero"/>
      <path d="M76.5592965,69.2178988 L75.8351759,67.9105058 C75.9668342,67.4529183 76.1643216,66.9953307 76.361809,66.5377432 C78.7974874,64.6420233 85.6437186,66.4723735 88.4743719,66.6684825 C91.6341709,66.8645914 94.6623116,66.9953307 97.7562814,67.7797665 C98.3487437,68.6949416 98.6778894,69.740856 98.8095477,70.8521401 C97.4271357,74.0552529 90.9758794,72.355642 88.4085427,72.0941634 C84.3271357,71.7673152 80.3773869,70.7867704 76.5592965,69.2178988 Z" id="Shape" fill="#DCD2B4" fill-rule="nonzero"/>
      <path d="M76.2301508,61.4389105 C77.1517588,58.2357977 83.4055276,59.4124514 85.7095477,59.477821 C89.6592965,59.6085603 93.5432161,59.67393 97.4929648,59.8046693 C101.442714,63.9883268 90.8442211,64.1190661 89.5276382,64.1190661 C86.9603015,64.0536965 76.8226131,65.1649805 76.2301508,61.4389105 Z" id="Shape" fill="#DCD2B4" fill-rule="nonzero"/>
      <path d="M77.6125628,73.3361868 C84.3271357,73.859144 91.3050251,75.7548638 97.9537688,77.1929961 L98.6120603,78.1735409 C98.6778894,79.0233463 98.480402,79.8731518 98.0854271,80.6575875 C95.6497487,80.9190661 75.3085427,76.277821 77.6125628,73.3361868 Z" id="Shape" fill="#DCD2B4" fill-rule="nonzero"/>
      <path d="M77.8758794,80.3307393 C78.5341709,77.4544747 93.5432161,83.4684825 95.9130653,84.2529183 L96.3738693,85.5603113 C95.2547739,89.8747082 79.6532663,83.0108949 77.8758794,80.3307393 Z" id="Shape" fill="#DCD2B4" fill-rule="nonzero"/>
      <path d="M92.7532663,86.3447471 L95.781407,86.4101167 C95.781407,86.4101167 97.8879397,84.122179 99.0070352,78.6311284 C100.126131,72.8785992 99.7969849,63.4653696 97.8879397,60.5237354 L94.7939698,60.4583658 C95.6497487,61.9618677 96.2422111,63.6614786 96.4396985,65.3610895 C96.8346734,67.6490272 96.5055276,70.5252918 96.1763819,73.9245136 C95.781407,77.9120623 93.1482412,84.8412451 92.7532663,86.3447471 Z" id="Shape" fill="#DCD2B4" fill-rule="nonzero"/>
      <path d="M69.4497487,60.8505837 C69.1864322,65.3610895 69.120603,69.8715953 69.3180905,74.3167315 C69.3839196,77.1276265 69.581407,79.9385214 69.581407,82.7494163 C69.581407,84.9719844 69.3180905,87.6521401 70.1080402,89.6132296 C70.8979899,90.0708171 71.4246231,89.8093385 72.0170854,88.5673152 C72.5437186,79.6116732 71.9512563,69.936965 71.0954774,60.8505837 L69.4497487,60.8505837 Z" id="Shape" fill="#C8BEA0" fill-rule="nonzero"/>
      <path d="M66.0266332,89.0249027 C66.2899497,85.3642023 72.4778894,86.8677043 75.0452261,86.9984436 C77.7442211,93.2085603 66.421608,92.8817121 66.0266332,89.0249027 Z" id="Shape" fill="#C8BEA0" fill-rule="nonzero"/>
      <path d="M66.8165829,81.7688716 C67.0798995,78.1081712 72.4778894,79.6116732 74.7160804,79.7424125 C77.2175879,86.0178988 67.2115578,85.6256809 66.8165829,81.7688716 Z" id="Shape" fill="#C8BEA0" fill-rule="nonzero"/>
      <path d="M67.4090452,75.2319066 C67.6723618,71.5712062 72.6753769,71.244358 73.9919598,73.9898833 C76.0984925,78.3042802 67.8040201,79.088716 67.4090452,75.2319066 Z" id="Shape" fill="#C8BEA0" fill-rule="nonzero"/>
      <path d="M66.6190955,68.3027237 C66.8824121,64.6420233 71.8854271,64.3151751 73.2020101,67.0607004 C75.2427136,71.4404669 67.0140704,72.2249027 66.6190955,68.3027237 Z" id="Shape" fill="#C8BEA0" fill-rule="nonzero"/>
      <path d="M67.0140704,62.1579767 C67.2115578,59.2163424 71.2929648,58.9548638 72.3462312,61.1774319 C73.9919598,64.707393 67.3432161,65.3610895 67.0140704,62.1579767 Z" id="Shape" fill="#C8BEA0" fill-rule="nonzero"/>
      <path d="M72.280402,88.6326848 C72.4120603,89.2863813 72.0170854,90.0054475 71.2929648,90.1361868 C71.2929648,90.1361868 71.2271357,90.1361868 71.2271357,90.1361868 C70.5688442,90.2669261 69.9763819,89.8093385 69.8447236,89.2210117 C69.8447236,88.8287938 69.9763819,88.4365759 70.3055276,88.2404669 C70.3713568,88.1750973 70.5030151,88.1097276 70.5688442,88.1097276 C70.7005025,88.044358 70.8321608,88.044358 70.9638191,88.044358 C71.358794,87.9789883 72.0829146,88.044358 72.280402,88.6326848 Z" id="Shape" fill="#DCD2B4" fill-rule="nonzero"/>
      <path d="M72.2145729,81.4420233 C72.3462312,82.0957198 71.9512563,82.814786 71.2271357,82.9455253 C71.2271357,82.9455253 71.1613065,82.9455253 71.1613065,82.9455253 C70.5030151,83.0762646 69.9105528,82.618677 69.7788945,82.0303502 C69.7130653,81.6381323 69.9105528,81.2459144 70.2396985,81.0498054 C70.3055276,80.9844358 70.4371859,80.9190661 70.5030151,80.9190661 C70.6346734,80.8536965 70.7663317,80.8536965 70.8979899,80.8536965 C71.2929648,80.7883268 72.0170854,80.8536965 72.2145729,81.4420233 Z" id="Shape" fill="#DCD2B4" fill-rule="nonzero"/>
      <path d="M72.1487437,74.5782101 C72.280402,75.2319066 71.8854271,75.9509728 71.1613065,76.0817121 C71.1613065,76.0817121 71.0954774,76.0817121 71.0954774,76.0817121 C70.4371859,76.2124514 69.8447236,75.7548638 69.7130653,75.166537 C69.7130653,74.7743191 69.8447236,74.3821012 70.1738693,74.1859922 C70.2396985,74.1206226 70.3713568,74.0552529 70.4371859,74.0552529 C70.5688442,73.9898833 70.7005025,73.9898833 70.8321608,73.9898833 C71.2271357,73.9245136 71.9512563,73.9898833 72.1487437,74.5782101 Z" id="Shape" fill="#DCD2B4" fill-rule="nonzero"/>
      <path d="M71.5562814,67.6490272 C71.6879397,68.3027237 71.2929648,69.0217899 70.5688442,69.1525292 C70.5688442,69.1525292 70.5030151,69.1525292 70.5030151,69.1525292 C69.8447236,69.2832685 69.2522613,68.8256809 69.120603,68.2373541 C69.0547739,67.8451362 69.2522613,67.4529183 69.581407,67.2568093 C69.6472362,67.1914397 69.7788945,67.12607 69.8447236,67.12607 C69.9763819,67.0607004 70.1080402,67.0607004 70.2396985,67.0607004 C70.6346734,66.9953307 71.358794,67.0607004 71.5562814,67.6490272 Z" id="Shape" fill="#DCD2B4" fill-rule="nonzero"/>
      <path d="M71.2271357,61.6350195 C71.358794,62.288716 70.9638191,63.0077821 70.2396985,63.1385214 C70.2396985,63.1385214 70.1738693,63.1385214 70.1738693,63.1385214 C69.5155779,63.2692607 68.9231156,62.8116732 68.7914573,62.2233463 C68.7256281,61.8311284 68.9231156,61.4389105 69.2522613,61.2428016 C69.3180905,61.1774319 69.4497487,61.1120623 69.5155779,61.1120623 C69.6472362,61.0466926 69.7788945,61.0466926 69.9105528,61.0466926 C70.3713568,60.981323 71.0954774,61.0466926 71.2271357,61.6350195 Z" id="Shape" fill="#DCD2B4" fill-rule="nonzero"/>
      <path d="M67.2773869,135.698833 C67.5407035,136.352529 68.2648241,136.679377 68.9231156,136.417899 C68.9231156,136.417899 68.9889447,136.417899 68.9889447,136.352529 C69.581407,136.091051 69.8447236,135.371984 69.581407,134.783658 C69.3839196,134.456809 69.0547739,134.2607 68.659799,134.195331 C68.5281407,134.195331 68.4623116,134.195331 68.3306533,134.195331 C68.198995,134.2607 68.0673367,134.2607 67.9356784,134.32607 C67.6723618,134.652918 67.1457286,135.110506 67.2773869,135.698833 Z" id="Shape" fill="#C8BEA0" fill-rule="nonzero"/>
      <path d="M52.4,101.183658 C48.8452261,100.987549 45.2246231,104.125292 44.6321608,107.655253 C44.1055276,110.727626 47.9894472,114.715175 50.8201005,113.669261 C54.3748744,113.015564 55.0331658,115.564981 56.4155779,118.310506 C57.8638191,121.25214 59.7728643,123.866926 61.4844221,126.677821 C62.801005,128.76965 64.1834171,131.645914 66.421608,133.018677 C68.0015075,133.999222 69.5155779,133.607004 70.8321608,132.691829 C71.1613065,132.43035 72.4120603,130.077043 71.8854271,127.004669 C71.0296482,122.232685 67.9356784,115.826459 66.1582915,113.342412 C62.2743719,107.982101 55.9547739,101.379767 52.4,101.183658 Z" id="Shape" fill="#C8BEA0" fill-rule="nonzero"/>
      <path d="M47.8577889,107.982101 C48.4502513,109.877821 49.9643216,110.923735 51.6758794,110.466148 C53.1241206,110.07393 54.0457286,108.635798 53.7165829,107.132296 C53.7165829,107.066926 53.7165829,107.066926 53.6507538,107.001556 C53.321608,106.086381 52.5316583,105.367315 51.5442211,105.171206 C51.2809045,105.105837 51.0175879,105.105837 50.8201005,105.105837 C50.4909548,105.105837 50.161809,105.171206 49.8326633,105.301946 C48.8452261,105.563424 47.6603015,106.870817 47.8577889,107.982101 Z" id="Shape" fill="#F0E6D2" fill-rule="nonzero"/>
      <path d="M77.8758794,135.437354 C77.7442211,135.241245 77.678392,134.979767 77.4809045,134.783658 C76.0984925,132.822568 74.9135678,132.49572 72.5437186,133.541634 C71.4246231,133.999222 70.6346734,134.914397 70.3055276,136.091051 C69.7788945,138.640467 72.8070352,140.340078 74.9135678,139.424903 L76.4934673,138.771206 C77.2834171,137.790661 78.0733668,136.875486 77.8758794,135.437354 Z" id="Shape" fill="#C8BEA0" fill-rule="nonzero"/>
      <path d="M81.2331658,139.228794 C80.5748744,138.836576 80.1798995,138.444358 79.521608,138.575097 C78.9291457,138.901946 78.7974874,139.490272 78.6,140.078599 C81.4964824,151.12607 91.8316583,167.795331 96.8346734,177.992996 L97.8221106,177.27393 C97.2954774,172.436576 91.8974874,162.565759 89.9226131,158.251362 C87.0261307,151.845136 84.6562814,145.373541 81.2331658,139.228794 Z" id="Shape" fill="#C8BEA0" fill-rule="nonzero"/>
      <path d="M99.4678392,175.705058 C100.126131,175.31284 101.179397,174.397665 102.035176,174.397665 C102.101005,174.593774 102.166834,174.789883 102.232663,174.920623 C101.508543,176.358755 99.0070352,177.796887 97.7562814,178.777432 C96.3080402,179.888716 95.0572864,180.607782 94.6623116,180.411673 C94.0698492,179.954086 93.6090452,179.300389 93.5432161,178.515953 C93.6090452,178.646693 96.1763819,177.862257 96.1763819,177.862257 C96.1763819,177.862257 99.3361809,175.835798 99.4678392,175.705058 Z" id="Shape" fill="#C8BEA0" fill-rule="nonzero"/>
      <path d="M72.8728643,143.150973 C71.4904523,143.67393 75.1110553,149.034241 76.4934673,151.583658 C78.139196,154.525292 79.7849246,157.466926 81.5623116,160.277821 C83.4713568,163.284825 93.4773869,178.581323 93.4773869,178.581323 L95.3864322,179.561868 L96.5055276,178.581323 L76.4276382,145.896498 C76.4934673,145.831128 74.2552764,142.628016 72.8728643,143.150973 Z" id="Shape" fill="#C8BEA0" fill-rule="nonzero"/>
      <path d="M86.7628141,44.6389105 C88.6060302,44.5735409 92.0291457,43.8544747 93.8723618,43.7891051 C93.938191,44.181323 94.4648241,51.1105058 92.0949749,51.8949416 C91.3708543,52.5486381 89.6592965,51.8949416 88.8035176,51.7642023 C87.4869347,50.7182879 86.5653266,46.6653696 86.7628141,44.6389105 Z" id="Shape" fill="#C8BEA0" fill-rule="nonzero"/>
      <path d="M76.4276382,50.7836576 C75.5718593,49.8031128 75.3743719,43.7237354 75.5060302,42.5470817 C76.6251256,42.6124514 80.3115578,45.5540856 81.1015075,45.8809339 C81.5623116,46.4692607 81.2331658,50.5875486 80.9698492,51.0451362 C79.1266332,51.6988327 78.139196,51.633463 76.4276382,50.7836576 Z" id="Shape" fill="#F0E6D2" fill-rule="nonzero"/>
      <path d="M94.9914573,45.3579767 C94.859799,46.9922179 94.859799,48.6264591 95.1889447,50.1953307 C96.7688442,50.9797665 97.558794,50.9797665 98.8753769,50.2607004 C99.2703518,49.7377432 99.4020101,43.5929961 99.4020101,41.3050584 L94.9914573,45.3579767 Z" id="Shape" fill="#AAA082" fill-rule="nonzero"/>
      <path d="M86.6311558,46.0770428 C87.0261307,46.7961089 86.3678392,50.522179 86.1703518,51.2412451 C85.9070352,52.1564202 85.0512563,52.6793774 84.1296482,52.4178988 C83.9979899,52.3525292 83.8005025,52.2871595 83.6688442,52.2217899 C83.5371859,52.1564202 83.4055276,52.0256809 83.2738693,51.9603113 C82.7472362,50.9143969 81.8914573,46.3385214 82.220603,45.3579767 C83.1422111,45.0311284 85.7095477,45.8155642 86.6311558,46.0770428 Z" id="Shape" fill="#F0E6D2" fill-rule="nonzero"/>
      <path d="M95.2547739,17.0529183 C91.1733668,14.6342412 85.7753769,14.3727626 81.1673367,13.7190661 C74.2552764,12.7385214 56.5472362,16.3992218 52.0050251,23.3937743 C49.9643216,26.5315175 49.7668342,32.0879377 51.8733668,35.2910506 C54.4407035,39.1478599 58.6537688,40.259144 62.9326633,40.9782101 C68.2648241,41.8280156 72.2145729,41.0435798 75.8351759,45.6848249 C77.678392,48.1035019 80.3773869,49.018677 83.2080402,49.214786 C84.8537688,49.2801556 91.0417085,49.0840467 92.4241206,48.7571984 C95.5839196,47.9727626 98.1512563,45.8155642 99.5336683,42.87393 C105.721608,28.9501946 99.1386935,19.340856 95.2547739,17.0529183 Z" id="Shape" fill="#DCD2B4" fill-rule="nonzero"/>
      <path d="M92.8190955,29.4077821 C92.0291457,29.3424125 91.3708543,29.8653696 91.1733668,30.5844358 C90.6467337,31.8264591 90.2517588,33.0684825 89.9884422,34.3758755 C89.7909548,35.7486381 89.461809,37.0560311 89.1984925,38.3634241 C89.001005,39.2785992 88.6060302,41.2396887 90.1201005,41.2396887 C91.6341709,41.2396887 91.9633166,39.0824903 92.9507538,38.8863813 C93.938191,38.6902724 93.8065327,40.259144 95.320603,41.0435798 C96.8346734,41.8280156 96.9005025,40.5859922 97.0321608,40.259144 C97.1638191,37.448249 95.4522613,29.8 92.8190955,29.4077821 Z" id="Shape" fill="#C8BEA0" fill-rule="nonzero"/>
      <path d="M85.7753769,29.0809339 C87.9477387,32.2840467 85.7753769,36.140856 82.4180905,37.5789883 C79.7190955,38.755642 75.7693467,37.7097276 74.6502513,34.3105058 C74.0577889,32.3494163 74.4527638,30.1922179 75.7693467,28.5579767 C76.0984925,28.1657588 76.4934673,27.7735409 76.8884422,27.4466926 C77.4809045,27.0544747 78.0733668,26.7276265 78.7974874,26.5315175 C80.7065327,26.1392996 83.6030151,25.877821 85.7753769,29.0809339 Z" id="Shape" fill="#FFFFFF" fill-rule="nonzero"/>
      <path d="M83.5371859,30.7151751 C84.0638191,30.911284 84.3929648,31.3688716 84.458794,31.8918288 C84.3271357,32.6762646 84.3271357,33.52607 83.2080402,33.6568093 C82.3522613,33.1338521 82.6155779,32.3494163 82.6155779,31.6303502 C82.681407,31.107393 83.0763819,30.7151751 83.5371859,30.7151751 Z" id="Shape" fill="#000000" fill-rule="nonzero"/>
      <path d="M109.803015,28.3618677 C111.975377,31.5649805 109.803015,35.4217899 106.445729,36.8599222 C103.746734,38.0365759 99.7969849,36.9906615 98.6778894,33.5914397 C98.0854271,31.7610895 98.5462312,29.2116732 99.7969849,27.8389105 C100.126131,27.4466926 100.521106,27.0544747 100.91608,26.7276265 C101.508543,26.3354086 102.101005,26.0085603 102.825126,25.8124514 C104.734171,25.3548638 107.630653,25.1587549 109.803015,28.3618677 Z" id="Shape" fill="#FFFFFF" fill-rule="nonzero"/>
      <path d="M107.169849,29.9307393 C107.696482,30.1268482 108.025628,30.5844358 108.091457,31.107393 C107.959799,31.8918288 107.959799,32.7416342 106.840704,32.8723735 C105.984925,32.3494163 106.248241,31.5649805 106.248241,30.8459144 C106.248241,30.3883268 106.643216,29.9961089 107.169849,29.9307393 Z" id="Shape" fill="#000000" fill-rule="nonzero"/>
    </g>
  </g>
</svg>