<svg width="73px" height="93px" viewBox="0 0 73 93" version="1.1" xml:space="preserve" xmlns="http://www.w3.org/2000/svg" xmlns:xlink="http://www.w3.org/1999/xlink">
  <defs/>
  <g>
    <title>penguin-c</title>
    <desc>Created with Sketch.</desc>
    <g id="penguin-c" stroke="none" stroke-width="1" fill="none" fill-rule="evenodd">
      <g id="Group" transform="translate(3.000000, 1.000000)">
        <g id="Group-4" transform="translate(36.000000, 28.969945)">
          <path d="M0.35565,4.75016612 C0.35565,4.75016612 -0.71885,7.6579694 1.20215,11.2695978 C2.69365,14.0748437 15.65415,34.0096852 15.65415,34.0096852 C15.65415,34.0096852 18.32615,37.5911497 20.37715,38.3668656 C22.42865,39.1425814 26.21715,41.3425377 28.41815,44.0281333 C30.61965,46.7147344 31.20915,47.7413137 32.12165,47.6297071 C33.03465,47.519106 32.68715,32.3029093 26.95965,22.722341 C21.23265,13.1412699 12.86615,3.80251585 7.71665,0.195914754" id="Fill-1" fill="#3E5766"/>
          <path d="M0.35565,4.75016612 C0.35565,4.75016612 -0.71885,7.6579694 1.20215,11.2695978 C2.69365,14.0748437 15.65415,34.0096852 15.65415,34.0096852 C15.65415,34.0096852 18.32615,37.5911497 20.37715,38.3668656 C22.42865,39.1425814 26.21715,41.3425377 28.41815,44.0281333 C30.61965,46.7147344 31.20915,47.7413137 32.12165,47.6297071 C33.03465,47.519106 32.68715,32.3029093 26.95965,22.722341 C21.23265,13.1412699 12.86615,3.80251585 7.71665,0.195914754" id="Stroke-3" stroke="#2E374A" stroke-width="0.5"/>
        </g>
        <path d="M52.288,3.64455738 C50.5995,1.53308197 46.16,0.188273224 43.993,0.188273224 C41.8265,0.188273224 38.4455,1.23093989 36.5475,3.39268852 C33.816,6.50359563 33.522,12.7641202 32.986,14.3034863 C32.4505,15.8433552 25.785,28.793235 21.8935,35.6183279 C18.5425,41.4962732 13.621,54.1691475 12.5795,67.3241421 C11.538,80.4791366 14.1465,91.6226995 14.3965,91.6226995 L46.9795,91.6226995 C49.317,89.1929945 48.937,89.5710492 49.3535,89.5700437 C49.812,89.5675301 50.6295,89.1281421 51.6375,89.2518142 C51.6375,89.2518142 51.085,89.1965137 50.874,88.0241421 C50.874,88.0241421 52.0805,89.0572568 51.813,86.9115956 C51.813,86.9115956 47.0045,84.614612 46.854,83.7463934 C46.763,83.2230492 45.8105,57.9396393 45.8805,57.2694973 C45.9295,56.8029617 49.4805,29.0430929 50.854,15.6648852 C49.148,14.8615191 50.8455,12.0653224 50.8455,12.0653224 C50.8455,12.0653224 55.328,7.44621858 52.288,3.64455738" id="Fill-5" fill="#3E5766"/>
        <path d="M51.3598,16.3915847 C51.3598,16.3915847 45.7933,21.3248962 44.8728,29.2348852 C41.4038,59.0484153 37.8123,59.9503169 34.3123,67.407847 C32.5628,71.1351038 19.7378,85.3614208 29.8128,86.911847 C29.8128,86.911847 32.7603,87.8941858 34.2188,88.815694 C34.9923,89.3043497 41.5068,86.1391475 42.2078,86.0928962 C42.2078,86.0928962 43.9788,85.3393005 44.7288,85.5695519 C45.4788,85.7998033 47.0118,86.1446776 47.4963,85.7686339 L46.4373,84.626929 C46.4373,84.2076503 49.6758,84.7521093 50.0213,84.7521093 C50.0213,84.7521093 46.3283,83.2650273 46.9293,82.3792131 C51.3138,75.9186011 52.9748,68.3313661 55.4508,55.637377 C58.1358,41.873071 57.0878,30.373071 54.3978,22.6229508 C53.1583,19.2345355 51.3598,16.3915847 51.3598,16.3915847" id="Fill-7" fill="#FBF8EA"/>
        <path d="M45.4018,26.2736415 C45.3858,26.3867563 49.0833,18.3168984 52.2808,17.908177 L50.8543,15.6649858 C50.8543,15.6649858 46.7078,16.9670623 45.4018,26.2736415" id="Fill-9" fill="#F0C579"/>
        <path d="M47.8288,11.6254317 C47.7293,11.6395082 52.3183,9.19874317 52.8508,7.22652459 C53.2588,5.71832787 51.8078,4.05277596 52.2878,3.64455738 C52.6083,3.3720765 53.1083,4.82195628 54.3163,5.46696175 C55.6103,6.15771585 57.4203,7.16368306 60.5303,7.60357377 C63.6408,8.04346448 66.2708,8.8920765 67.2988,10.117235 C68.3273,11.3428962 68.7793,12.6937377 68.7793,12.6937377 C68.7793,12.6937377 67.5508,10.3997705 58.7088,11.2800546 C51.9538,11.6254317 51.3373,12.6414536 50.2703,13.2804262 C49.2038,13.9188962 50.6838,11.2172131 47.8288,11.6254317" id="Fill-11" fill="#E3A066"/>
        <path d="M50.10175,11.4054863 C50.10175,11.4054863 50.38075,11.3094645 50.87525,11.1817705 C51.12375,11.1204372 51.42575,11.0465355 51.77225,10.961071 C51.94625,10.9208525 52.13125,10.8781202 52.32625,10.8328743 C52.52175,10.7896393 52.73225,10.779082 52.94825,10.7438907 C54.68425,10.5081093 57.00975,10.2612678 59.34975,10.212 C60.51875,10.1878689 61.69125,10.2130055 62.78725,10.3070164 C63.33575,10.3517596 63.86425,10.4201311 64.36375,10.5005683 C64.86325,10.5825137 65.33175,10.6865792 65.76075,10.799694 C65.97325,10.8645464 66.18175,10.9138142 66.37025,10.9897268 C66.55775,11.0701639 66.73025,11.1591475 66.89375,11.2355628 C67.21375,11.408 67.48875,11.5618361 67.69525,11.7217049 C67.91175,11.8639781 68.05675,12.0092678 68.15675,12.1037814 C68.25725,12.1972896 68.31075,12.2470601 68.31075,12.2470601 C68.31075,12.2470601 68.24875,12.207847 68.13325,12.1334426 C68.01925,12.0580328 67.85225,11.9499454 67.62275,11.8423607 C67.40275,11.719694 67.11325,11.6131148 66.78575,11.4964809 C66.45125,11.3974426 66.07425,11.2858361 65.66275,11.1641749 C65.24725,11.0540765 64.79125,10.9530273 64.30275,10.8725902 C63.81425,10.7936612 63.29525,10.7267978 62.75525,10.6830601 C61.67575,10.5900546 60.51675,10.5654208 59.35775,10.5890492 C57.03825,10.6378142 54.72425,10.8831475 52.99875,11.1174208 C52.78275,11.1430601 52.57875,11.1893115 52.38025,11.2043934 C52.18175,11.2184699 51.99325,11.2320437 51.81625,11.2451148 C51.46225,11.2752787 51.15375,11.3019235 50.89975,11.323541 C50.64575,11.3476721 50.44575,11.3662732 50.30975,11.3793443 C50.17575,11.3919126 50.10175,11.4054863 50.10175,11.4054863" id="Fill-13" fill="#8D6A4A"/>
        <path d="M47.8288,11.6254317 C47.7293,11.6395082 52.3183,9.19874317 52.8508,7.22652459 C53.2588,5.71832787 51.8078,4.05277596 52.2878,3.64455738 C52.6083,3.3720765 53.1083,4.82195628 54.3163,5.46696175 C55.6103,6.15771585 57.4203,7.16368306 60.5303,7.60357377 C63.6408,8.04346448 66.2708,8.8920765 67.2988,10.117235 C68.3273,11.3428962 68.7793,12.6937377 68.7793,12.6937377 C68.7793,12.6937377 67.5508,10.3997705 58.7088,11.2800546 C51.9538,11.6254317 51.3373,12.6414536 50.2703,13.2804262 C49.2038,13.9188962 50.6838,11.2172131 47.8288,11.6254317 Z" id="Stroke-15" stroke="#8D6A4A" stroke-width="0.5"/>
        <path d="M44.99015,5.89559126 C45.13715,5.23600656 46.15265,4.63876066 47.61515,4.70160219 C49.55165,4.85845464 49.75215,5.84833443 49.70415,6.24096831 C49.64615,6.71655301 49.44415,7.40378798 47.20965,7.40378798 C45.30165,7.40378798 44.85815,6.48831257 44.99015,5.89559126" id="Fill-17" fill="#E2E3E4"/>
        <path d="M47.60025,7.38362842 C47.60025,7.38362842 46.88375,6.91256831 47.13375,6.01669945 C47.38275,5.12384699 48.32075,4.92677596 48.66275,4.95844809 C49.00525,4.98961749 49.25175,5.28572678 49.25175,5.28572678 C49.25175,5.28572678 49.93325,5.84375956 49.68175,6.45659016 C49.43025,7.06942077 48.47475,7.34240437 48.47475,7.34240437 C48.47475,7.34240437 47.71675,7.44646995 47.60025,7.38362842" id="Fill-19" fill="#2E374A"/>
        <path d="M51.8129,86.9117967 C51.9079,87.7935891 54.0629,88.7744197 54.0629,88.7744197 C52.7264,88.6065071 50.8744,88.0243432 50.8744,88.0243432 C51.0849,89.1967148 51.8964,89.3606055 51.8964,89.3606055 C50.8884,89.2369333 49.9164,90.1121902 49.4579,90.1152066 C49.4579,90.1152066 49.3169,89.1926929 46.9794,91.6229005 L14.3964,91.6229005 C14.1464,91.6229005 11.5379,80.4793377 12.5794,67.3238404 C13.6209,54.1693486 18.5424,41.4959716 21.8939,35.618529 C25.7849,28.7934361 32.4504,15.8430536 32.9864,14.3036874 C33.5219,12.7638186 33.8159,6.50329399 36.5474,3.39288962 C38.4454,1.23114098 41.8264,0.188474317 43.9929,0.188474317 C46.1599,0.188474317 50.6824,1.46591694 52.2879,3.64475847" id="Stroke-21" stroke="#2E374A" stroke-width="0.5"/>
        <path d="M44.98575,5.93827322 C45.13275,5.27868852 46.14825,4.68144262 47.61075,4.74428415 C49.54725,4.90113661 49.74725,5.89101639 49.69975,6.28365027 C49.64175,6.75923497 49.43975,7.44646995 47.20525,7.44646995 C45.29675,7.44646995 44.85375,6.53099454 44.98575,5.93827322 Z" id="Stroke-23" stroke="#2E374A" stroke-width="0.5"/>
        <path d="M45.486,91.6229508 L59.3505,91.6229508 C59.3505,91.6229508 58.563,89.5702951 51.563,86.911847 C51.563,86.911847 48.8975,88.4808743 45.486,91.6229508" id="Fill-25" fill="#E3A066"/>
        <path d="M51.79975,86.9117967 C51.79975,86.9117967 48.87475,85.8630973 47.43775,84.4841027" id="Stroke-27" stroke="#2E374A" stroke-width="0.5"/>
        <path d="M45.2255,91.6229508 L59.3505,91.6229508 C59.3505,91.6229508 56.688,88.396918 51.813,86.911847" id="Stroke-29" stroke="#8D6A4A" stroke-width="0.5"/>
        <path d="M50.27045,13.2801749 C50.27045,13.2801749 49.71745,14.2660328 50.22895,14.8723279 C50.86545,15.6264262 60.59745,26.8252896 55.68695,54.3373115 C51.66445,76.8758033 47.44745,81.4526776 46.92895,82.3792131 C46.58395,82.9960656 48.11645,83.7466448 50.02145,84.7521093 C50.02145,84.7521093 46.30645,84.2192131 46.43695,84.626929 C46.43695,84.626929 46.84945,85.0713443 47.49645,85.7681311 C45.30895,85.7183607 45.33295,85.7671257 44.31345,85.5288306 C44.31345,85.5288306 42.86795,85.7399781 40.44545,86.7414208 C38.02245,87.7428634 35.32395,88.9202623 34.24045,88.9775738" id="Stroke-31" stroke="#D1C1B5" stroke-width="0.5"/>
        <path d="M23.736,91.6229508 L37.6005,91.6229508 C37.6005,91.6229508 36.813,89.5702951 29.813,86.911847 C29.813,86.911847 27.1475,88.4808743 23.736,91.6229508" id="Fill-33" fill="#E3A066"/>
        <path d="M23.4755,91.6229508 L37.6005,91.6229508 C37.6005,91.6229508 34.312,87.9364153 28.8955,86.911847" id="Stroke-35" stroke="#8D6A4A" stroke-width="0.5"/>
        <g id="Group-40" transform="translate(0.000000, 21.931694)">
          <path d="M35.48625,0.501978142 C35.48625,0.501978142 32.42575,0.071136612 29.29975,2.75120219 C26.87225,4.8315082 10.11225,21.9510492 10.11225,21.9510492 C10.11225,21.9510492 7.17325,25.3661093 6.84325,27.5605355 C6.51225,29.754459 5.15275,33.9723825 2.98825,36.7288634 C0.82475,39.4848415 -0.05425,40.2892131 0.24375,41.1664809 C0.54225,42.0442514 15.31875,38.4044699 23.47825,30.6704372 C31.63775,22.9384153 39.01225,12.6525137 41.46175,6.78512568" id="Fill-37" fill="#3E5766"/>
          <path d="M35.48625,0.501978142 C35.48625,0.501978142 32.42575,0.071136612 29.29975,2.75120219 C26.87225,4.8315082 10.11225,21.9510492 10.11225,21.9510492 C10.11225,21.9510492 7.17325,25.3661093 6.84325,27.5605355 C6.51225,29.754459 5.15275,33.9723825 2.98825,36.7288634 C0.82475,39.4848415 -0.05425,40.2892131 0.24375,41.1664809 C0.54225,42.0442514 15.31875,38.4044699 23.47825,30.6704372 C31.63775,22.9384153 39.01225,12.6525137 41.46175,6.78512568" id="Stroke-39" stroke="#2E374A" stroke-width="0.5"/>
        </g>
      </g>
    </g>
  </g>
</svg>