<svg width="131px" height="123px" viewBox="0 0 131 123" version="1.1" xml:space="preserve" xmlns="http://www.w3.org/2000/svg" xmlns:xlink="http://www.w3.org/1999/xlink">
  <defs>
    <polygon id="path-1" points="0 0.341757377 46.6875 0.341757377 46.6875 72.5190251 0 72.5190251"/>
    <polygon id="path-3" points="0.245555709 0.135737705 46.1525 0.135737705 46.1525 42.2295082 0.245555709 42.2295082"/>
    <polygon id="path-5" points="0.268600728 0.372021858 0.9224 0.372021858 0.9224 3.1118623 0.268600728 3.1118623"/>
  </defs>
  <g>
    <title>bat-d</title>
    <desc>Created with Sketch.</desc>
    <g id="bat-d" stroke="none" stroke-width="1" fill="none" fill-rule="evenodd">
      <g id="Group" transform="translate(9.000000, 0.000000)">
        <g id="Group-3" transform="translate(0.000000, 17.223607)">
          <mask id="mask-2" fill="white">
            <use xlink:href="#path-1"/>
          </mask>
          <g id="Clip-2"/>
          <path d="M46.6875,45.6680962 C46.4625,45.0798995 9.8375,11.844271 9.5475,11.1605552 C9.8925,10.4014295 5.7425,6.56558251 5.1675,5.94219454 C4.0825,4.76580109 0.4675,2.07618361 0.5825,0.341757377 C-0.0575,10.0495169 -0.7375,20.7024131 1.8975,30.2141071 C6.8975,29.651047 8.4625,34.8241617 9.7325,38.6197902 C11.7875,44.7380415 12.5425,54.3150907 12.5425,54.3150907 C12.5425,54.3150907 20.3625,54.817823 24.4175,58.3369486 C28.4725,61.8560743 29.3025,72.5190251 29.3025,72.5190251 L46.6875,45.6680962 Z" id="Fill-1" fill="#C8C8BE" mask="url(#mask-2)"/>
        </g>
        <polygon id="Fill-4" fill="#F0E6D2" points="24.8826 75.9981333 42.1826 63.6505268 42.4526 69.3319038"/>
        <polygon id="Fill-6" fill="#F0E6D2" points="1.8975 47.4378645 9.5675 32.6072634 13.0875 36.3475913"/>
        <polygon id="Fill-8" fill="#F0E6D2" points="12.5425 71.5387978 23.6375 42.3099454 28.7625 50.5949727"/>
        <path d="M117.5076,19.8879869 C114.6326,23.4473311 94.1026,41.6361836 94.1026,41.6361836 L67.6026,53.9129049 L60.5076,79.6879869 C64.0526,82.4580415 84.7826,87.5607738 84.7826,87.5607738 C84.7826,87.5607738 81.9476,81.171047 84.7826,74.2137355 C87.6176,67.2554186 97.2826,69.6283148 98.6426,69.0903913 C99.2976,68.1703913 98.9576,59.1362929 103.3876,51.9974951 C106.1776,47.4729049 113.7126,43.732577 115.6276,43.1795716 C116.5076,39.600118 117.8076,23.7640525 117.5076,19.8879869" id="Fill-10" fill="#C8C8BE"/>
        <polygon id="Fill-12" fill="#F0E6D2" points="84.78735 74.1983016 73.78235 65.4155694 71.28735 69.0654055"/>
        <polygon id="Fill-14" fill="#F0E6D2" points="115.6277 43.139353 105.6227 29.9677683 101.7377 34.4270033"/>
        <polygon id="Fill-16" fill="#F0E6D2" points="98.64235 69.0752087 86.48285 42.7973945 79.27285 48.3726951"/>
        <path d="M41.6077,49.0967803 C41.6077,49.0967803 41.3677,58.7894579 40.3377,62.906835 C38.7577,62.7710973 27.9627,52.8119716 26.1927,51.2886929 C22.8427,48.4080372 19.6927,45.2207148 16.5677,42.0836656 C13.0677,38.5645399 9.9477,34.3767803 7.0377,30.3247585 C4.5377,26.8056328 0.9877,21.632518 0.5977,17.2537202 C1.0527,17.5955781 2.0227,20.5667257 2.8077,19.978529 C3.5927,19.3903322 1.5577,16.6906601 1.6127,15.7656328 C2.0477,16.1024634 3.8427,19.1490208 4.5027,18.7820262 C4.9227,18.279294 3.2727,15.8058514 3.2327,15.2126273 C4.0177,15.2578732 5.6377,18.0128459 6.1277,18.6312066 C7.5377,20.4058514 9.0027,22.1503322 10.4677,23.8998404 C13.2477,27.182682 15.9277,30.4353596 19.1927,33.2255235 C22.7527,36.2771082 26.1927,39.5448678 29.9727,42.3199497 C33.7527,45.0950317 41.6077,49.0967803 41.6077,49.0967803" id="Fill-18" fill="#828278"/>
        <g id="Group-22" transform="translate(71.500000, 17.726339)">
          <mask id="mask-4" fill="white">
            <use xlink:href="#path-3"/>
          </mask>
          <g id="Clip-21"/>
          <path d="M1.3328,42.2295082 C0.7578,40.9224044 0.0678,31.0939891 0.2873,30.1639344 C8.9828,26.7252459 17.0678,21.6174863 24.8128,16.3991257 C28.3473,13.9347322 31.6678,11.173224 34.7378,8.1442623 C37.4073,5.63060109 40.0878,2.01595628 43.2378,0.135737705 C43.3273,0.673661202 41.5878,2.19191257 41.9523,2.64939891 C42.3178,3.10688525 44.4878,0.955191257 45.2078,0.512786885 C45.1823,1.17639344 42.7978,3.3884153 43.4923,3.90120219 C44.1878,4.41398907 45.7673,2.39300546 46.1528,2.12655738 C44.7673,5.61551913 42.0228,8.80284153 39.6973,11.6784699 C36.4178,15.7707104 33.0278,19.6568306 29.0278,23.0301639 C21.8578,29.1182514 10.5078,40.0375956 1.3328,42.2295082" id="Fill-20" fill="#828278" mask="url(#mask-4)"/>
        </g>
        <path d="M41.86255,66.8684153 C41.86255,66.8684153 31.28755,87.0279781 29.19255,89.2751913 C28.99205,88.5954973 28.70805,87.9439563 28.34755,87.3346448 L27.97755,87.3648087 L27.86755,87.6563934 C28.33255,88.6618579 28.55255,90.9342077 29.50255,91.6279781 C32.16255,90.1951913 34.56755,88.1691803 37.17255,86.6006557 C38.56255,85.7761749 47.49255,80.507541 48.05255,80.1857923 C47.38255,79.7232787 41.86255,66.8684153 41.86255,66.8684153" id="Fill-23" fill="#3C3C32"/>
        <path d="M86.4226,84.3737027 L86.2926,84.0966973 C84.9926,84.217353 84.3676,87.0180743 84.3676,87.0180743 L71.6526,70.3876918 C71.6526,70.3876918 64.3326,83.0615716 64.5076,83.2928284 C70.4396,86.3791016 76.6581,88.8761727 83.0726,90.7483475 C84.6376,89.2401508 85.5576,86.3444131 86.4226,84.3737027" id="Fill-25" fill="#3C3C32"/>
        <path d="M50.08765,7.48563279 L49.77765,7.24934863 C49.80765,7.06836503 49.83765,6.90749071 49.85765,6.74661639 C49.90265,6.27404809 49.95265,5.8065071 49.98265,5.3339388 C50.00765,4.97197158 49.98265,4.96694426 50.23265,4.71557814 C50.49265,4.81109727 50.54765,4.86639781 50.53265,5.07251803 C50.49765,5.45459454 50.45265,5.83667104 50.40765,6.21372022 C50.36265,6.5907694 50.31765,6.83208087 50.25765,7.13372022 C50.21365,7.25688962 50.15715,7.37503169 50.08765,7.48563279" id="Fill-27" fill="#64645A"/>
        <path d="M49.3025,7.91813333 L48.9475,7.75725902 C48.9475,7.57627541 48.9475,7.41037377 48.9125,7.25452678 C48.8525,6.78698579 48.7975,6.31441749 48.7225,5.8468765 C48.6415,5.62366339 48.681,5.3743082 48.8275,5.18829727 C49.1025,5.22851585 49.1675,5.26873443 49.1975,5.47485464 C49.2525,5.85190383 49.2925,6.23398033 49.3275,6.61605683 C49.3575,6.9227235 49.3775,7.23441749 49.3875,7.54108415 C49.3755,7.66978361 49.347,7.79647213 49.3025,7.91813333" id="Fill-29" fill="#64645A"/>
        <path d="M50.4275,7.86780984 L50.8175,7.81250929 C50.8775,7.64158033 50.9225,7.48573333 50.9875,7.30977705 C51.1725,6.87742732 51.3575,6.44005027 51.5525,6.00770055 C51.7075,5.68092459 51.7175,5.68595191 51.6325,5.34912131 C51.3575,5.30890273 51.2825,5.34912131 51.1975,5.52005027 C51.0425,5.86693552 50.9025,6.22387541 50.7625,6.5808153 C50.6225,6.93775519 50.5425,7.15895738 50.4525,7.4555694 C50.4265,7.5913071 50.418,7.7300612 50.4275,7.86780984" id="Fill-31" fill="#64645A"/>
        <path d="M37.2325459,53.8275913 C37.2325459,53.8275913 37.1977,40.6459519 38.1827,34.2562251 C38.9927,28.9926186 40.5327,23.915023 42.1827,18.8726186 C43.2527,15.619941 46.1077,6.77688087 50.3677,6.58584262 C54.8677,9.33076066 53.5777,22.9196131 53.2177,27.1978645 C52.7527,32.7279191 51.0627,46.8748044 49.8927,52.2992852 C47.2077,53.043329 37.2325459,53.8275913 37.2325459,53.8275913" id="Fill-33" fill="#64645A"/>
        <path d="M40.1077,45.5022951 C40.1077,45.5022951 41.3427,32.8887432 43.7927,23.2161749 C45.4827,16.544918 47.7927,12.271694 48.8427,12.2616393 C51.4527,12.2616393 50.6777,23.2212022 50.4477,25.9912568 C50.1427,29.610929 48.6077,41.103388 47.8477,44.6375956 C46.0877,45.1051366 40.1077,45.5022951 40.1077,45.5022951" id="Fill-35" fill="#3C3C32"/>
        <g id="Group-39" transform="translate(60.500000, 0.130710)">
          <mask id="mask-6" fill="white">
            <use xlink:href="#path-5"/>
          </mask>
          <g id="Clip-38"/>
          <path d="M0.8274,3.1118623 L0.4779,2.94093333 C0.4779,2.75994973 0.4779,2.59404809 0.4524,2.43820109 C0.4074,1.97066011 0.3624,1.4980918 0.2974,1.0255235 C0.2529,0.668583607 0.2374,0.668583607 0.4224,0.371971585 C0.6924,0.417217486 0.7574,0.457436066 0.7824,0.663556284 C0.8274,1.04563279 0.8579,1.42770929 0.8874,1.80978579 C0.8874,2.11645246 0.9224,2.42814645 0.9224,2.73984044 C0.9029,2.86652896 0.8714,2.99120656 0.8274,3.1118623" id="Fill-37" fill="#64645A" mask="url(#mask-6)"/>
        </g>
        <path d="M60.64235,3.82066448 L60.26235,3.7352 C60.21735,3.55924372 60.17735,3.40339672 60.12785,3.23246776 C59.97785,2.78503607 59.82735,2.33257705 59.66235,1.89017268 C59.53785,1.68907978 59.52835,1.4367082 59.63735,1.22656612 C59.91235,1.22656612 59.98735,1.22656612 60.05735,1.42765902 C60.18235,1.78962623 60.29785,2.15662077 60.41235,2.51858798 C60.52785,2.88055519 60.58285,3.11683934 60.65285,3.41847869 C60.66785,3.55220546 60.66435,3.68794317 60.64235,3.82066448" id="Fill-40" fill="#64645A"/>
        <path d="M61.73755,3.54918907 L62.10755,3.41847869 C62.13255,3.23749508 62.14755,3.07159344 62.17755,2.91574645 C62.27255,2.45323279 62.36755,1.9856918 62.47755,1.52820546 C62.56255,1.17126557 62.57255,1.1762929 62.42255,0.864598907 C62.14755,0.864598907 62.07755,0.914872131 62.03255,1.11596503 C61.94755,1.48798689 61.87755,1.86503607 61.81255,2.24208525 C61.74805,2.61913443 61.71255,2.85541858 61.68255,3.16208525 C61.68605,3.29279563 61.70505,3.42300328 61.73755,3.54918907" id="Fill-42" fill="#64645A"/>
        <path d="M74.3728,56.4870448 C71.9228,53.4706514 60.0173,46.729012 59.2578,46.0050776 C57.7578,40.9224546 53.7878,2.92092459 60.7023,2.43830164 C66.5678,2.0260612 68.0678,13.1364437 69.1528,16.977318 C70.7128,22.5073727 74.1773,49.6549137 74.3728,56.4870448" id="Fill-44" fill="#64645A"/>
        <path d="M70.03735,48.5186885 C69.26735,38.2880874 68.10785,25.6343169 67.46285,22.1202186 C66.78235,18.3899454 63.89785,4.92677596 61.36235,7.94819672 C58.82735,10.9696175 61.96735,39.2885246 62.69735,48.7097268 L70.03735,48.5186885 Z" id="Fill-46" fill="#3C3C32"/>
        <path d="M75.09745,53.5460109 C74.70245,49.1320219 72.76245,44.1851366 69.51745,41.0832787 C65.51695,37.2921749 60.17695,35.2636503 54.68245,35.4476503 C46.44245,35.6437158 43.63745,37.3328962 39.44245,43.4310383 C35.58245,49.0515847 36.83245,58.5130055 37.22745,64.9731148 C37.64745,71.8605464 41.08745,81.0907104 46.93745,85.1175956 C53.04745,89.3254645 61.93795,89.9790164 67.54745,84.655082 C72.60295,79.8389071 76.00745,63.5252459 75.09745,53.5460109" id="Fill-48" fill="#64645A"/>
        <path d="M62.56765,43.8382011 C61.60265,41.2843213 60.03265,41.3949224 57.56765,41.0681464 C55.15265,41.1938295 51.91265,40.8871628 49.87765,42.4556874 C47.84265,44.024212 47.37765,47.4830098 49.37765,49.1470536 C51.72765,51.1227913 59.11265,51.8416984 61.87765,48.9610426 C62.89215,47.9002776 63.27765,45.6983104 62.56765,43.8382011" id="Fill-50" fill="#F01446"/>
        <path d="M59.94755,43.5215803 C61.25755,43.4310885 61.31755,45.1906514 61.25755,45.9749137 C61.19755,46.759176 61.16255,48.1416896 60.00755,48.0160066 C58.85305,47.8903235 58.65755,46.6586295 58.72805,45.9447497 C58.79755,45.2308699 58.63255,43.6170995 59.94755,43.5215803" id="Fill-52" fill="#6E1E3C"/>
        <path d="M51.1326,43.5215803 C52.4476,43.4310885 52.5076,45.1906514 52.4476,45.9749137 C52.3876,46.759176 52.3526,48.1416896 51.1976,48.0160066 C50.0426,47.8903235 49.8476,46.6586295 49.9126,45.9447497 C49.9776,45.2308699 49.8176,43.6170995 51.1326,43.5215803" id="Fill-54" fill="#6E1E3C"/>
        <path d="M59.81765,52.0378142 C59.81765,52.0378142 62.52765,52.3696175 64.00765,53.7521311 C65.07865,54.8867978 65.54865,56.4658798 65.27265,58.0052459 C64.58265,60.0413115 63.02265,61.3534426 61.13765,62.2382514 C57.49765,63.947541 52.13765,64.5759563 48.75765,61.9265574 C44.68765,58.7342077 47.10265,55.0039344 50.98265,53.3398907 L51.11265,53.2845902 L51.81265,53.0181421 L52.61265,53.3147541 L53.53765,52.5053552 L57.80715,52.0378142 L59.81765,52.0378142 Z" id="Fill-56" fill="#000000"/>
        <path d="M57.8074,52.0378142 C57.8074,52.0378142 58.0574,54.3202186 58.9274,55.6625137 C59.2824,54.7575956 59.8674,52.0327869 59.8674,52.0327869 L57.8074,52.0378142 Z" id="Fill-58" fill="#FFFFFF"/>
        <path d="M53.5076,56.2607148 C53.6321,55.0043869 53.6886,53.742529 53.6776,52.4801683 C53.3391,52.5198842 53.0046,52.5887585 52.6776,52.6862885 C52.3731,52.758682 52.0811,52.8773268 51.8126,53.0382011 C51.8126,53.0382011 53.3576,56.1450863 53.5076,56.2607148" id="Fill-60" fill="#FFFFFF"/>
        <path d="M41.2825,44.612459 L41.5475,44.1700546 C42.3925,44.6727869 43.1875,45.1755191 43.9725,45.6782514 C44.4725,45.9949727 44.4725,46.1156284 44.3325,46.779235 L40.7225,47.669071 L40.4325,47.4126776 C40.4875,47.2869945 40.5025,47.1613115 40.5625,47.1361749 C40.8545,46.9868634 41.159,46.8641967 41.4725,46.7691803 C41.9725,46.6334426 42.4725,46.5530055 42.9725,46.4323497 C43.122,46.3795628 43.266,46.3121967 43.4025,46.2312568 C42.9125,45.3816393 41.8475,45.3615301 41.2825,44.612459" id="Fill-62" fill="#000000"/>
        <path d="M69.7327,43.1042623 L70.1327,43.6069945 C69.4177,44.486776 68.4277,45.0096175 67.7327,45.8240437 C67.7817,46.1744481 68.0397,46.4579891 68.3827,46.5379235 C68.8607,46.7194098 69.3477,46.8752568 69.8427,47.0054645 C70.1327,47.090929 70.4377,47.1311475 70.5572,47.5534426 C70.4477,47.6087432 70.3072,47.7394536 70.2177,47.7143169 C68.9927,47.3171585 67.7177,47.0657923 66.6727,46.0754098 C66.7427,45.8994536 66.7672,45.6279781 66.9027,45.547541 C67.9312,44.8386885 68.8802,44.019235 69.7327,43.1042623" id="Fill-64" fill="#000000"/>
      </g>
    </g>
  </g>
</svg>