<svg version="1.1" width="151" height="192" viewBox="-1 -1 151 192" xmlns="http://www.w3.org/2000/svg" xmlns:xlink="http://www.w3.org/1999/xlink">
  <!-- Exported by Scratch - http://scratch.mit.edu/ -->
  <path id="Shape" fill="#281446" stroke="none" stroke-width="1" d="M 37.264 88.289 C 37.264 88.289 47.112 99.540 65.202 84.955 C 83.292 70.371 66.247 52.932 66.247 52.932 L 36.652 67.969 L 37.264 88.289 Z "/>
  <path id="Shape" fill="#DCAA78" stroke="none" stroke-width="1" d="M 73.489 56.509 L 43.674 54.288 C 43.944 54.797 38.466 70.613 38.742 71.128 C 38.944 71.128 40.747 80.706 55.596 86.656 C 63.865 89.973 72.247 85.311 74.309 75.355 C 76.371 65.398 73.966 56.599 73.489 56.509 Z "/>
  <path id="Shape" fill="#BE8264" stroke="none" stroke-width="1" d="M 56.865 57.735 C 56.933 58.571 59.893 62.821 60.506 63.459 C 61.421 64.347 62.732 64.688 63.961 64.358 C 65.399 63.951 67.022 62.985 67.331 61.708 C 67.601 60.606 67.084 56.283 66.573 55.249 C 65.343 55.277 58.180 56.797 56.865 57.735 Z "/>
  <path id="Shape" fill="#A0640A" stroke="none" stroke-width="1" d="M 51.287 61.934 L 47.944 77.553 L 38.309 60.549 L 51.287 61.934 "/>
  <path id="Shape" fill="#281446" stroke="none" stroke-width="1" d="M 36.143 56.079 C 36.561 57.189 35.983 57.980 35.340 58.720 C 34.841 59.283 34.142 59.675 33.812 60.400 C 33.716 60.622 33.306 60.726 33.057 60.874 C 32.337 60.773 31.726 60.332 31.449 59.712 C 31.626 57.033 33.877 55.679 36.143 56.079 Z "/>
  <path id="Shape" fill="#00A08C" stroke="none" stroke-width="1" d="M 33.708 57.164 C 30.868 62.096 29.588 67.780 30.039 73.462 C 30.088 74.891 30.254 76.314 30.534 77.717 C 32.652 86.346 38.427 89.188 38.567 89.357 C 38.848 89.278 39.770 85.210 41.163 80.576 L 33.708 57.164 Z "/>
  <path id="Shape" fill="#008264" stroke="none" stroke-width="1" d="M 60.949 48.891 C 60.949 48.891 55.236 45.422 42.730 49.700 C 37.854 51.395 34.096 56.068 33.287 57.577 C 32.483 63.177 31.753 69.947 41.152 80.593 C 41.152 80.593 41.185 80.627 41.202 80.644 C 42.575 75.975 44.332 71.429 46.455 67.053 C 47.303 65.358 49.416 62.533 51.770 59.623 C 51.899 59.656 60.949 48.891 60.949 48.891 Z "/>
  <path id="Shape" fill="#F01446" stroke="none" stroke-width="1" d="M 111.236 180.026 C 109.972 181.721 109.483 183.840 108.427 185.677 C 105.056 182.439 103.635 175.782 101.685 171.584 C 99.680 167.249 97.674 162.915 95.815 158.513 C 95.612 158.722 95.416 158.937 95.219 159.152 C 95.253 159.259 95.281 159.355 95.320 159.468 C 92.326 162.734 89.343 166.249 86.017 169.199 C 85.816 169.587 85.595 169.965 85.354 170.329 L 85.382 170.391 C 87.129 171.018 88.753 173.737 90.039 175.048 C 91.848 176.895 93.635 178.766 95.444 180.614 C 98.865 184.117 102.298 188.022 106.567 190.497 C 108.848 187.768 110.208 183.309 111.702 180.094 L 111.236 180.026 Z "/>
  <path id="Shape" fill="#005A5A" stroke="none" stroke-width="1" d="M 64.770 142.402 C 67.416 145.228 83.871 169.052 84.433 168.679 C 84.674 168.521 95.787 160.497 96.051 160.203 C 93.719 153.478 84.652 129.524 81.848 123.144 L 64.770 142.402 Z "/>
  <path id="Shape" fill="#281446" stroke="none" stroke-width="1" d="M 95.910 154.416 L 78.792 165.571 C 80.478 167.266 84.017 171.154 84.090 171.222 C 84.163 171.290 96.697 163.311 98.949 161.858 C 97.944 159.389 96.882 156.919 95.910 154.416 Z "/>
  <path id="Shape" fill="#281446" stroke="none" stroke-width="1" d="M 99.320 162.819 L 85.028 172.086 C 85.624 172.652 86.208 173.217 86.781 173.782 L 100.180 165.096 C 99.906 164.324 99.620 163.565 99.320 162.819 Z "/>
  <path id="Shape" fill="#281446" stroke="none" stroke-width="1" d="M 100.725 166.639 L 87.933 174.940 C 88.494 175.505 88.989 176.121 89.472 176.748 L 101.455 168.962 C 101.230 168.193 100.989 167.413 100.725 166.639 Z "/>
  <path id="Shape" fill="#005A5A" stroke="none" stroke-width="1" d="M 85.770 46.710 C 84.848 43.789 82.798 42.139 79.972 41.314 C 79.185 41.088 78.404 40.828 77.607 40.658 C 76.075 40.386 74.506 40.411 72.983 40.732 C 69.298 41.370 66.062 43.043 62.961 45.060 C 60.657 46.563 58.826 48.581 56.888 50.491 C 54.589 52.781 52.576 55.345 50.893 58.125 C 49.264 60.775 46.298 67.483 46.298 67.483 C 46.298 67.483 52.798 62.239 57.011 61.403 C 68.938 59.024 78.921 64.064 79.101 64.138 C 79.343 63.940 84.826 56.481 85.742 52.966 C 86.657 49.451 86.219 48.117 85.770 46.710 Z "/>
  <path id="Shape" fill="#DCAA78" stroke="none" stroke-width="1" d="M 28.876 36.883 C 27.792 37.205 27.489 37.550 26.326 38.166 C 29.579 48.535 48.511 99.800 49.865 100.659 C 50.860 101.298 53.545 100.094 55.017 99.874 C 56.489 99.653 59.157 97.274 60.360 96.376 C 59.275 93.635 29.388 37.064 28.876 36.883 Z "/>
  <path id="Shape" fill="#DCAA78" stroke="none" stroke-width="1" d="M 91.461 85.328 C 93.798 68.856 98.860 41.438 98.478 41.342 C 98.096 41.246 96.674 45.789 95.989 45.569 C 95.303 45.348 96.669 39.844 96.129 39.652 C 95.590 39.460 93.399 45.201 92.758 44.975 C 92.118 44.749 93.146 39.149 92.652 39.048 C 92.157 38.946 82.787 75.010 80.096 85.328 L 91.461 85.328 Z "/>
  <path id="Shape" fill="#005A5A" stroke="none" stroke-width="1" d="M 79.483 78.203 L 74.989 94.545 L 91.393 115.052 C 91.691 110.927 92.916 82.842 92.916 82.842 L 79.483 78.203 Z "/>
  <path id="Shape" fill="#000000" stroke="none" stroke-width="1" d="M 55.154 65.782 C 52.063 66.926 52.297 68.307 56.140 70.646 C 56.624 70.398 57.443 70.203 57.594 69.883 C 58.346 68.307 57.510 66.998 55.154 65.782 Z "/>
  <path id="Rectangle-path" fill="#005A5A" stroke="none" stroke-width="1" d="M 71.601 131.870 L 94.404 131.870 L 94.404 139.657 L 71.601 139.657 L 71.601 131.870 Z " transform="matrix(0.9023597240447998, -0.43098363280296326, 0.43098363280296326, 0.9023597240447998, -50.4, 49)"/>
  <path id="Shape" fill="#008264" stroke="none" stroke-width="1" d="M 60.982 137.615 C 60.740 137.615 61.707 138.637 63.593 140.242 C 62.239 138.393 61.369 137.421 60.982 137.615 Z "/>
  <path id="Shape" fill="#DCAA78" stroke="none" stroke-width="1" d="M 71.843 94.178 C 65.466 94.059 56.916 94.065 52.848 99.631 L 73.399 107.203 C 73.399 107.203 75.258 95.585 75.365 94.771 C 74.226 94.403 73.039 94.203 71.843 94.178 Z "/>
  <path id="Shape" fill="#FFFFFF" stroke="none" stroke-width="1" d="M 59.427 102.761 C 59.427 102.761 70.573 101.349 74.961 96.110 L 77.770 105.186 L 66.798 110.136 L 59.427 102.761 Z "/>
  <path id="Shape" fill="#00A08C" stroke="none" stroke-width="1" d="M 103.169 120.929 C 98.506 113.453 95.865 109.678 90.888 104.734 C 86.180 100.066 81.466 96.506 75 94.562 C 73.573 97.387 70.410 104.734 70.410 104.734 C 70.410 104.734 56.056 99.733 52.787 99.235 C 52.112 99.603 69.079 138.865 69.079 138.865 L 103.169 120.929 Z "/>
  <path id="Shape" fill="#008264" stroke="none" stroke-width="1" d="M 44.652 92.019 C 44.657 92.185 44.682 92.350 44.725 92.511 C 46.331 96.065 62.865 140.707 62.865 140.707 L 83.213 132.231 L 86.303 126.128 C 86.303 126.128 56.573 85.865 56.461 85.690 C 55.124 85.990 46.208 90.815 44.652 92.019 Z "/>
  <path id="Rectangle-path" fill="#281446" stroke="none" stroke-width="1" d="M 58.242 129.114 L 106.664 129.114 L 106.664 134.668 L 58.242 134.668 L 58.242 129.114 Z " transform="matrix(0.9023597240447998, -0.43098363280296326, 0.43098363280296326, 0.9023597240447998, -48.75, 48.4)"/>
  <path id="Rectangle-path" fill="#005A5A" stroke="none" stroke-width="1" d="M 65.117 135.679 L 69.952 135.679 L 69.952 143.280 L 65.117 143.280 L 65.117 135.679 Z " transform="matrix(0.9023597240447998, -0.43098363280296326, 0.43098363280296326, 0.9023597240447998, -53.55, 42.4)"/>
  <path id="Rectangle-path" fill="#005A5A" stroke="none" stroke-width="1" d="M 72.354 132.210 L 77.189 132.210 L 77.189 139.810 L 72.354 139.810 L 72.354 132.210 Z " transform="matrix(0.9023597240447998, -0.43098363280296326, 0.43098363280296326, 0.9023597240447998, -51.35, 45.15)"/>
  <path id="Rectangle-path" fill="#005A5A" stroke="none" stroke-width="1" d="M 98.950 119.440 L 103.786 119.440 L 103.786 127.041 L 98.950 127.041 L 98.950 119.440 Z " transform="matrix(0.9023597240447998, -0.43098363280296326, 0.43098363280296326, 0.9023597240447998, -43.25, 55.4)"/>
  <path id="Rectangle-path" fill="#FFC800" stroke="none" stroke-width="1" d="M 80.069 127.524 L 88.187 127.524 L 88.187 134.503 L 80.069 134.503 L 80.069 127.524 Z " transform="matrix(0.9023597240447998, -0.43098363280296326, 0.43098363280296326, 0.9023597240447998, -48.25, 49)"/>
  <path id="Shape" fill="#005A5A" stroke="none" stroke-width="1" d="M 137.421 110.305 C 140.052 111.245 142.626 112.340 145.129 113.583 C 146.904 107.316 146.888 100.218 143.506 94.828 C 138.730 87.210 125.680 79.751 110.483 93.087 C 100.371 101.948 84.202 136.746 84.202 136.746 C 84.202 136.746 80.163 138.645 83.511 139.888 C 85.657 140.684 101.365 134.587 109.140 126.653 C 116.916 118.719 121.416 100.326 129.152 98.568 C 137.640 96.630 138.135 103.914 137.421 110.305 Z "/>
  <path id="Shape" fill="#F01446" stroke="none" stroke-width="1" d="M 136.326 106.649 C 135.090 110.876 128.084 135.576 127.388 139.215 C 129.388 140.571 132.022 143.838 134.309 144.329 C 133.899 142.900 132.624 142.148 131.539 141.278 C 133.680 137.769 146.146 111.328 147.528 110.469 C 147.511 110.452 136.989 107.096 136.326 106.649 Z "/>
  <path id="Shape" fill="#F00A78" stroke="none" stroke-width="1" d="M 58.674 69.048 C 59.169 79.056 70.112 86.193 79.809 85.176 C 95.646 83.526 97.281 70.625 95.174 61.442 C 92.989 51.937 84.039 48.795 75.511 49.281 C 64.966 49.886 58.899 58.769 58.674 69.048 Z "/>
  <path id="Shape" fill="#F04650" stroke="none" stroke-width="1" d="M 78.180 62.278 C 78.382 66.375 82.860 69.291 86.826 68.879 C 93.309 68.201 93.978 62.923 93.112 59.170 C 92.219 55.283 88.556 53.994 85.056 54.192 C 80.753 54.435 78.270 58.069 78.180 62.278 Z "/>
  <path id="Shape" fill="#F04650" stroke="none" stroke-width="1" d="M 73.725 54.045 C 73.803 55.639 75.545 56.774 77.096 56.616 C 79.618 56.351 79.904 54.294 79.545 52.836 C 79.185 51.378 77.770 50.824 76.410 50.898 C 74.719 50.994 73.758 52.406 73.725 54.045 Z "/>
  <path id="Shape" fill="#281446" stroke="none" stroke-width="1" d="M 132.275 113.216 L 131.652 114.866 L 144.393 120.110 L 145.129 118.454 L 132.275 113.216 "/>
  <path id="Shape" fill="#281446" stroke="none" stroke-width="1" d="M 131.197 116.177 L 130.573 117.827 L 143.320 123.071 L 144.056 121.421 L 131.197 116.177 "/>
  <path id="Shape" fill="#824600" stroke="none" stroke-width="1" d="M 22.590 3.956 C 22.640 5.029 17.045 27.441 16.517 28.367 L 31.888 37.516 C 31.820 36.985 39.753 30.543 39.753 30.006 C 39.753 29.712 39.949 13.280 39.972 12.907 C 39.753 12.760 37.163 10.279 36.927 10.138 C 36.152 9.731 35.371 9.324 34.573 8.940 C 33.775 8.555 32.888 8.177 32.073 7.810 C 31.258 7.442 30.551 7.086 29.781 6.736 C 29.264 6.482 23.230 3.758 22.590 3.956 Z "/>
  <path id="Shape" fill="#642800" stroke="none" stroke-width="1" d="M 23.983 26.135 L 39.826 26.717 L 38.281 32.933 L 23.213 33.905 L 23.983 26.135 "/>
  <path id="Shape" fill="#642800" stroke="none" stroke-width="1" d="M 20.893 17.970 L 40.601 20.886 L 40.792 17.196 L 21.669 11.946 L 20.893 17.970 "/>
  <path id="Shape" fill="#A0640A" stroke="none" stroke-width="1" d="M 20.938 0.672 C 11.949 -1.023 5.208 5.990 1.882 13.720 C -1.854 22.349 0.107 31.148 6.590 37.957 C 9.948 41.399 13.723 44.403 17.826 46.897 C 21.758 49.344 25.051 51.502 29.685 50.287 C 33.309 49.332 37.551 46.744 39.691 42.902 C 42.742 37.420 47.129 10.528 38.691 11.782 C 37.534 12.856 39.382 19.778 39.326 21.524 C 39.258 25.084 38.719 28.740 35.758 30.933 C 28.388 32.775 24.843 21.711 25.045 16.320 C 25.157 13.291 27.337 10.302 27.292 7.380 C 27.247 4.809 23.371 1.130 20.938 0.672 Z "/>
  <path id="Shape" fill="#824600" stroke="none" stroke-width="1" d="M 40.506 33.255 C 40.775 32.996 40.916 32.747 40.612 32.368 C 38.787 32.368 36.921 32.368 35.062 32.470 C 33.537 32.591 32.036 32.924 30.601 33.459 C 28.685 34.143 26.854 35.013 25.017 35.872 C 23.162 36.789 21.434 37.946 19.876 39.313 C 19.132 39.924 18.506 40.668 18.028 41.506 C 17.787 41.935 17.466 42.336 17.169 42.822 L 17.646 43.388 C 18.079 43.018 18.415 42.546 18.624 42.014 C 18.925 41.345 19.375 40.753 19.938 40.285 C 21.153 39.154 22.480 38.153 23.899 37.296 C 25.727 36.249 27.641 35.358 29.618 34.634 C 30.781 34.261 31.949 33.900 33.118 33.538 C 34.381 33.213 35.688 33.095 36.989 33.188 C 38.022 33.188 39.056 33.267 40.090 33.295 C 40.229 33.295 40.369 33.282 40.506 33.255 Z "/>
  <path id="Shape" fill="#281446" stroke="none" stroke-width="1" d="M 135.185 103.592 L 132.904 111.424 L 146.006 116.770 L 149.803 108.746 L 135.185 103.592 "/>
</svg>