<svg width="208px" height="93px" viewBox="0 0 208 93" version="1.1" xml:space="preserve" xmlns="http://www.w3.org/2000/svg" xmlns:xlink="http://www.w3.org/1999/xlink">
  <defs/>
  <g>
    <title>polar bear-a</title>
    <desc>Created with Sketch.</desc>
    <g id="polar-bear-a" stroke="none" stroke-width="1" fill="none" fill-rule="evenodd">
      <g id="Group" transform="translate(0.000000, 4.000000)">
        <path d="M23.0871661,84.515 L0.282081356,84.515 L20.0799022,37.1815 C20.0799022,37.1815 45.224137,41.8935 45.5579433,41.5375 C45.8922508,41.1815 55.5821564,54.698 55.5821564,54.698 C55.5821564,54.698 28.1829748,76.4315 17.7407521,80.9315 C17.7407521,80.9315 20.2468053,81.515 23.0871661,84.515" id="Fill-1" fill="#E2DDC9"/>
        <path d="M19.5319286,84.515 C19.5319286,84.515 19.3905872,82.546 18.7801126,81.484 C19.5785412,81.095 23.0870157,84.515 23.0870157,84.515 L19.5319286,84.515 Z" id="Fill-3" fill="#4D4F68"/>
        <path d="M23.0871661,84.515 L0.282081356,84.515 L20.0799022,37.1815 C20.0799022,37.1815 45.224137,41.8935 45.5579433,41.5375 C45.8922508,41.1815 55.5821564,54.698 55.5821564,54.698 C55.5821564,54.698 28.1829748,76.4315 17.7407521,80.9315 C17.7407521,80.9315 20.2468053,81.515 23.0871661,84.515 Z" id="Stroke-5" stroke="#7593B1" stroke-width="0.5"/>
        <path d="M18.2422133,81.09485 C18.2422133,81.09485 19.6621431,82.18135 19.49524,84.51485" id="Stroke-7" stroke="#7593B1" stroke-width="0.5"/>
        <path d="M107.039951,84.515 L85.3209893,84.515 L92.755447,67.1815 L114.51651,63.6815 L103.113968,81.5985 C103.113968,81.5985 105.786924,82.0985 107.039951,84.515" id="Fill-9" fill="#E2DDC9"/>
        <path d="M102.909373,84.515 C102.909373,84.515 102.672802,81.392 103.71933,81.69 C106.069005,82.359 107.03985,84.515 107.03985,84.515 L102.909373,84.515 Z" id="Fill-11" fill="#4D4F68"/>
        <path d="M107.039951,84.515 L85.3209893,84.515 L92.755447,67.1815 L114.51651,63.6815 L103.113968,81.5985 C103.113968,81.5985 105.786924,82.0985 107.039951,84.515 Z" id="Stroke-13" stroke="#7593B1" stroke-width="0.5"/>
        <path d="M103.113717,84.515 C103.113717,84.515 102.468158,82.2735 103.470579,81.69" id="Stroke-15" stroke="#7593B1" stroke-width="0.5"/>
        <path d="M179.9245,33.14 L179.590193,29.5565 C179.590193,29.5565 179.339587,28.5985 179.9245,28.89 C180.509413,29.1815 183.68358,30.7235 183.68358,30.7235 C183.68358,30.7235 183.976287,30.8485 184.017888,31.765 C184.059488,32.6815 184.435396,34.64 184.435396,34.64" id="Fill-17" fill="#E2DDC9"/>
        <path d="M179.92425,33.14 L179.589942,29.5565 C179.589942,29.5565 179.339337,28.5985 179.92425,28.89 C180.509162,29.1815 183.68333,30.7235 183.68333,30.7235 C183.68333,30.7235 183.976037,30.8485 184.017637,31.765 C184.059238,32.6815 184.435146,34.64 184.435146,34.64" id="Stroke-19" stroke="#7593B1" stroke-width="0.5"/>
        <path d="M180.930831,32.911 L180.533872,31.182 C180.533872,31.182 180.241666,30.036 180.930831,30.3275 C181.619996,30.6195 182.78932,31.0985 182.78932,31.0985 C182.78932,31.0985 183.082027,31.265 183.144678,31.89 C183.20733,32.515 183.499536,33.7025 183.499536,33.7025 L180.930831,32.911 Z" id="Fill-21" fill="#4D4F68"/>
        <path d="M30.0622642,15.9735 C31.4821939,14.515 51.5306201,3.515 62.1813465,0.765 C72.8320729,-1.985 95.9860002,5.864 109.350281,8.0355 C130.025221,11.3945 136.157032,11.297 139.242485,12.64 C140.784208,13.398 145.13171,18.015 150.143816,21.14 C155.155923,24.265 158.295005,25.4525 162.674083,27.14 C174.703138,31.4525 176.394724,30.765 181.281528,32.14 C184.096828,33.07 193.185281,37.0775 193.185281,37.0775 C193.185281,37.0775 198.949204,42.0775 205.846363,44.233 C205.846363,44.233 207.344482,44.5465 206.530015,46.2025 C205.715547,48.39 200.828744,53.8275 199.011855,54.9525 C199.011855,54.9525 197.299719,53.307 189.405652,55.015 C183.191642,56.3595 182.481928,57.463 175.151722,58.182 C167.821516,58.9005 109.963763,67.64 104.492046,68.682 C99.0203295,69.7235 96.4726758,70.432 95.2196492,70.4735 C93.9666225,70.515 67.5277605,65.8485 55.8330123,63.265 C44.1382642,60.682 26.3868864,54.8485 22.3772012,48.682 C22.3772012,48.682 20.7898671,52.265 19.4235668,52.319 C18.2547436,52.365 16.4042738,48.515 16.3626734,46.7235 C16.3205717,44.932 16.2373707,44.015 18.1585111,39.14 C20.0796516,34.265 26.9296976,19.14 30.0622642,15.9735" id="Fill-23" fill="#FBF8EA"/>
        <path d="M190.533376,54.744 C190.533376,54.744 186.857998,53.265 192.747223,47.098 C194.168155,45.6095 196.694758,43.9105 198.449998,43.4155 C199.566695,43.1 201.622661,42.141 202.684727,43.057 C204.232966,44.3915 208.584477,43.2385 205.900995,47.4735 C203.815458,50.765 199.012356,54.9525 199.012356,54.9525 C199.012356,54.9525 197.090715,53.4315 190.533376,54.744" id="Fill-25" fill="#E0DAC5"/>
        <path d="M30.0622642,15.9735 C31.4821939,14.515 51.5306201,3.515 62.1813465,0.765 C72.8320729,-1.985 95.9860002,5.864 109.350281,8.0355 C130.025221,11.3945 136.157032,11.297 139.242485,12.64 C140.784208,13.398 145.13171,18.015 150.143816,21.14 C155.155923,24.265 158.295005,25.4525 162.674083,27.14 C174.703138,31.4525 176.394724,30.765 181.281528,32.14 C184.096828,33.07 193.185281,37.0775 193.185281,37.0775 C193.185281,37.0775 198.949204,42.0775 205.846363,44.233 C205.846363,44.233 207.344482,44.5465 206.530015,46.2025 C205.715547,48.39 200.828744,53.8275 199.011855,54.9525 C199.011855,54.9525 197.299719,53.307 189.405652,55.015 C183.191642,56.3595 182.481928,57.463 175.151722,58.182 C167.821516,58.9005 109.963763,67.64 104.492046,68.682 C99.0203295,69.7235 96.4726758,70.432 95.2196492,70.4735 C93.9666225,70.515 67.5277605,65.8485 55.8330123,63.265 C44.1382642,60.682 26.3868864,54.8485 22.3772012,48.682 C22.3772012,48.682 20.7898671,52.265 19.4235668,52.319 C18.2547436,52.365 16.4042738,48.515 16.3626734,46.7235 C16.3205717,44.932 16.2373707,44.015 18.1585111,39.14 C20.0796516,34.265 26.9296976,19.14 30.0622642,15.9735 Z" id="Stroke-27" stroke="#7593B1" stroke-width="0.5"/>
        <path d="M203.914597,45.93685 C203.601341,45.49935 203.034471,44.55135 203.880014,44.44735 C205.073898,44.30085 206.374539,44.48885 206.374539,44.48885 C206.374539,44.48885 207.044658,45.14535 206.606099,46.03585 C206.167539,46.92635 205.204714,48.42085 205.204714,48.42085 L205.527994,47.06185 C205.527994,47.06185 205.731486,46.49935 205.167624,46.48385 C204.930551,46.47735 204.421823,46.64535 203.914597,45.93685" id="Fill-29" fill="#000000"/>
        <path d="M190.533376,51.265 C190.533376,51.265 191.243591,52.1815 192.788823,52.1815 C194.334056,52.1815 202.178003,52.0485 202.178003,52.0485" id="Stroke-31" stroke="#7593B1" stroke-width="0.5"/>
        <path d="M114.51651,14.765 C114.641813,14.7235 121.032248,11.057 125.668447,11.8485 C130.304646,12.64 138.616222,19.4315 138.616222,19.4315" id="Stroke-33" stroke="#7593B1" stroke-width="0.5"/>
        <path d="M186.857747,40.80675 L191.410244,39.43175 C191.410244,39.43175 192.036757,40.55675 191.619248,41.39025 C191.20174,42.22325 186.857747,40.80675 186.857747,40.80675" id="Fill-35" fill="#4D6E8C"/>
        <path d="M190.820469,41.5377 C190.820469,41.5377 190.178418,41.3432 190.068653,40.6242 C189.95989,39.9112 190.554326,39.6902 190.554326,39.6902 L191.410394,39.4317 C191.410394,39.4317 191.740692,39.7797 191.737685,40.4112 C191.734677,41.0422 191.464023,41.5377 191.464023,41.5377 L190.820469,41.5377 Z" id="Fill-37" fill="#000000"/>
        <path d="M186.857747,40.80675 L191.410244,39.43175 C191.410244,39.43175 192.036757,40.55675 191.619248,41.39025 C191.20174,42.22325 186.857747,40.80675 186.857747,40.80675 Z" id="Stroke-39" stroke="#000000" stroke-width="0.5"/>
        <g id="Group-44" transform="translate(171.915254, 29.702500)">
          <path d="M1.03389734,10.35425 L0.0314760291,4.43775 C0.0314760291,4.43775 -0.135427119,4.18775 0.532686683,3.56275 C1.20080048,2.93775 3.9158586,0.39575 3.9158586,0.39575 C3.9158586,0.39575 4.29176659,0.02075 4.75137676,0.64575 C5.21048571,1.27075 7.6749385,4.47925 7.6749385,4.47925" id="Fill-41" fill="#FBF8EA"/>
          <path d="M1.03389734,10.35425 L0.0314760291,4.43775 C0.0314760291,4.43775 -0.135427119,4.18775 0.532686683,3.56275 C1.20080048,2.93775 3.9158586,0.39575 3.9158586,0.39575 C3.9158586,0.39575 4.29176659,0.02075 4.75137676,0.64575 C5.21048571,1.27075 7.6749385,4.47925 7.6749385,4.47925" id="Stroke-43" stroke="#7593B1" stroke-width="0.5"/>
        </g>
        <path d="M174.063644,39.11095 L173.478731,36.58995 C173.478731,36.58995 172.844699,34.26495 174.249092,32.96245 C175.467535,31.83245 176.227871,30.61945 176.945605,32.27745 C177.503452,33.56695 178.170062,34.41095 178.170062,34.41095 C178.170062,34.41095 178.921878,34.86945 177.199217,36.30195 C175.939675,37.34945 174.192956,39.86045 174.063644,39.11095" id="Fill-45" fill="#4D4F68"/>
        <path d="M107.039951,39.43175 L107.039951,62.59825 C107.039951,62.59825 122.994989,74.26525 130.596851,84.51525 L153.235033,84.51525 C153.235033,84.51525 152.148909,81.18175 148.139224,80.93175 C148.139224,80.93175 143.708522,77.88875 140.621064,73.93175 L135.031062,59.53825 C135.031062,59.53825 135.859563,54.51525 137.028888,51.72325" id="Fill-47" fill="#FBF8EA"/>
        <path d="M144.797903,84.39 C144.797903,84.39 146.729569,80.765 148.139475,80.9315 C152.568673,81.4555 153.234782,84.515 153.234782,84.515 L144.797903,84.39 Z" id="Fill-49" fill="#4D4F68"/>
        <path d="M107.039951,39.43175 L107.039951,62.59825 C107.039951,62.59825 122.994989,74.26525 130.596851,84.51525 L153.235033,84.51525 C153.235033,84.51525 152.148909,81.18175 148.139224,80.93175 C148.139224,80.93175 143.708522,77.88875 140.621064,73.93175 L135.031062,59.53825 C135.031062,59.53825 135.859563,54.51525 137.028888,51.72325" id="Stroke-51" stroke="#7593B1" stroke-width="0.5"/>
        <path d="M138.616222,53.93175 C138.616222,53.93175 136.394856,53.04375 135.83751,55.61325" id="Stroke-53" stroke="#7593B1" stroke-width="0.5"/>
        <path d="M105.369415,41.5377 C105.620021,41.9542 107.039951,42.5152 107.039951,47.0152" id="Stroke-55" stroke="#7593B1" stroke-width="0.5"/>
        <path d="M144.797903,84.515 C144.797903,84.515 145.466017,82.015 148.139475,80.9315" id="Stroke-57" stroke="#7593B1" stroke-width="0.5"/>
        <path d="M60.9285705,30.2799 C60.9285705,30.2799 78.972154,45.3484 77.7191274,56.6819 C77.3016189,60.3484 63.9358344,79.3484 63.9358344,79.3484 C63.9358344,79.3484 70.2009676,81.6814 72.790723,84.5149 L47.9807956,84.5149 L21.1660257,47.0149" id="Fill-59" fill="#FBF8EA"/>
        <path d="M66.0243792,84.515 C66.0243792,84.515 66.1917835,81.477 67.5154809,80.9315 C67.9886237,80.7365 72.790723,84.515 72.790723,84.515 L66.0243792,84.515 Z" id="Fill-61" fill="#4D4F68"/>
        <path d="M60.9285705,30.2799 C60.9285705,30.2799 78.972154,45.3484 77.7191274,56.6819 C77.3016189,60.3484 63.9358344,79.3484 63.9358344,79.3484 C63.9358344,79.3484 70.2009676,81.6814 72.790723,84.5149 L47.9807956,84.5149 L21.1660257,47.0149" id="Stroke-63" stroke="#7593B1" stroke-width="0.5"/>
        <path d="M66.0243792,84.515 C66.1080814,84.265 65.6900717,82.515 67.5154809,80.9315" id="Stroke-65" stroke="#7593B1" stroke-width="0.5"/>
      </g>
    </g>
  </g>
</svg>