<svg version="1.1" width="90" height="156" viewBox="-1 -1 90 156" xmlns="http://www.w3.org/2000/svg" xmlns:xlink="http://www.w3.org/1999/xlink">
  <!-- Exported by Scratch - http://scratch.mit.edu/ -->
  <g id="ID0.5216366685926914" transform="matrix(1, 0, 0, 1, 0.25, 0)">
    <g id="andie-b">
      <g id="Group">
        <path id="Fill-1" fill="#BE965A" stroke="none" stroke-width="1" d="M 79.332 49.305 C 78.288 45.391 76.093 41.736 73.571 38.609 C 71.154 35.612 68.903 34.538 65.743 32.697 C 64.352 31.887 56.902 30.252 56.683 28.097 C 56.464 25.942 56.712 24.585 56.125 23.986 C 54.579 24.106 55.030 28.046 54.529 29.008 C 52.471 30.082 52.929 24.092 51.848 23.939 C 50.766 23.787 51.761 27.215 51.242 28.967 C 50.609 29.571 50.096 29.464 49.634 28.827 C 48.575 27.366 49.157 25.160 48.592 25.222 C 48.027 25.284 47.687 27.833 47.902 29.158 C 48.325 31.769 49.633 34.745 50.824 35.249 C 52.717 36.050 55.046 37.724 58.124 38.745 C 61.415 39.836 64.606 43.346 66.330 46.314 C 69.203 51.262 69.021 56.864 66.421 61.795 C 64.876 64.725 62.503 66.907 59.696 68.601 C 58.732 69.182 57.621 69.967 56.502 70.191 C 55.549 70.383 54.209 69.794 53.299 70.264 L 55.265 82.276 C 59.907 81.706 64.060 80.983 68.732 78.272 C 72.109 76.312 76.551 72.073 78.559 65.169 C 80.200 59.528 79.799 51.059 79.332 49.305 "/>
        <path id="Fill-3" fill="#A0783C" stroke="none" stroke-width="1" d="M 49.488 34.853 C 52.035 35.292 53.118 32.319 56.145 33.141 C 58.604 33.807 59.550 36.596 58.123 38.745 C 55.782 38.523 53.199 37.154 50.963 36.452 C 49.593 36.021 45.546 34.762 46.184 33.950 C 46.821 33.137 48.837 34.558 49.488 34.853 "/>
        <path id="Fill-5" fill="#006482" stroke="none" stroke-width="1" d="M 22.133 115.827 C 22.133 115.827 23.583 102.747 24.549 101.056 C 25.515 99.366 64.394 99.487 64.394 99.487 L 67.528 114.581 L 22.133 115.827 Z "/>
        <path id="Fill-7" fill="#006482" stroke="none" stroke-width="1" d="M 64.786 127.837 C 64.057 132.374 61.786 145.271 61.786 145.271 C 61.786 145.271 61.655 145.723 61.585 146.311 C 60.807 146.233 60.098 146.324 60.098 146.324 C 60.098 146.324 32.575 146.482 31.132 146.406 C 30.082 146.350 28.973 146.336 28.034 146.452 C 27.969 145.797 27.818 145.271 27.818 145.271 C 27.818 145.271 25.547 132.374 24.818 127.837 L 21.948 127.837 C 22.122 128.868 22.310 129.895 22.468 130.921 C 22.922 133.882 24.320 142.135 25.475 146.404 C 25.622 146.945 26.222 149.039 26.725 148.968 C 29.553 149.431 32.457 149.203 35.310 149.201 C 38.306 149.199 62.696 148.937 62.696 148.937 C 62.696 148.937 63.488 148.772 64.129 146.404 C 65.285 142.135 66.682 133.882 67.137 130.921 C 67.294 129.895 67.482 128.868 67.656 127.837 L 64.786 127.837 Z "/>
        <path id="Fill-9" fill="#000000" stroke="none" stroke-width="1" d="M 58.478 154.531 C 57.758 154.548 57.477 153.522 57.475 152.355 C 57.473 151.229 57.370 150.982 57.695 149.866 C 57.899 149.648 58.182 149.525 58.622 149.552 C 59.384 149.724 59.465 150.631 59.403 151.482 C 59.400 151.531 59.744 154.501 58.478 154.531 "/>
        <path id="Fill-11" fill="#008CB4" stroke="none" stroke-width="1" d="M 56.394 150.858 L 60.456 150.858 L 60.456 145.679 L 56.394 145.679 L 56.394 150.858 "/>
        <path id="Fill-13" fill="#000000" stroke="none" stroke-width="1" d="M 31.299 154.531 C 30.578 154.548 30.297 153.522 30.296 152.355 C 30.294 151.229 30.190 150.982 30.515 149.866 C 30.719 149.648 31.003 149.525 31.443 149.552 C 32.205 149.724 32.285 150.631 32.224 151.482 C 32.220 151.531 32.565 154.501 31.299 154.531 "/>
        <path id="Fill-14" fill="#008CB4" stroke="none" stroke-width="1" d="M 29.215 150.858 L 33.277 150.858 L 33.277 145.679 L 29.215 145.679 L 29.215 150.858 "/>
        <path id="Fill-15" fill="#006482" stroke="none" stroke-width="1" d="M 27.349 127.877 L 24.968 128.413 L 22.134 115.827 L 24.515 115.291 L 27.349 127.877 "/>
        <path id="Fill-16" fill="#006482" stroke="none" stroke-width="1" d="M 18.288 144.103 L 15.902 143.586 L 19.612 126.492 L 21.997 127.010 L 18.288 144.103 "/>
        <path id="Fill-17" fill="#006482" stroke="none" stroke-width="1" d="M 70.699 144.103 L 73.084 143.586 L 69.375 126.492 L 66.990 127.010 L 70.699 144.103 "/>
        <path id="Fill-18" fill="#006482" stroke="none" stroke-width="1" d="M 64.899 128.416 L 62.494 128 L 64.689 115.287 L 67.094 115.703 L 64.899 128.416 "/>
        <path id="Fill-19" fill="#006482" stroke="none" stroke-width="1" d="M 55.196 128.135 C 55.005 129.516 54.716 130.514 55.056 131.779 C 55.315 131.838 82.280 126.815 82.280 126.815 L 81.056 123.509 C 81.056 123.509 56.312 127.939 55.196 128.135 "/>
        <path id="Fill-20" fill="#008CB4" stroke="none" stroke-width="1" d="M 74.981 119.942 L 77.943 133.126 L 73.944 134.015 L 70.481 120.979 L 74.981 119.942 "/>
        <path id="Fill-21" fill="#000000" stroke="none" stroke-width="1" d="M 68.463 98.907 C 66.861 99.328 67.480 99.660 68.166 103.351 C 69.404 110.003 77.697 136.532 79.034 140.917 C 80.325 145.148 81.296 149.562 83.292 153.535 C 83.990 154.217 84.754 154.491 85.690 154.092 C 87.251 152.868 86.195 149.071 84.994 145.779 C 84.236 143.701 72.148 103.359 72.148 103.359 C 72.148 103.359 71.277 98.166 68.463 98.907 "/>
        <path id="Fill-22" fill="#000000" stroke="none" stroke-width="1" d="M 74.888 103.743 C 74.442 103.856 74.613 103.949 74.794 104.974 C 75.121 106.822 86.361 141.861 86.721 143.080 C 87.068 144.257 87.326 145.483 87.870 146.590 C 88.062 146.781 88.273 146.859 88.534 146.751 C 88.970 146.415 88.757 144.543 88.432 143.627 C 88.227 143.049 76.515 105.394 76.515 105.394 C 76.515 105.394 75.670 103.544 74.888 103.743 "/>
        <path id="Fill-23" fill="#006482" stroke="none" stroke-width="1" d="M 33.583 128.135 C 33.774 129.516 34.063 130.514 33.723 131.779 C 33.464 131.838 6.499 126.815 6.499 126.815 L 7.723 123.509 C 7.723 123.509 32.467 127.939 33.583 128.135 "/>
        <path id="Fill-24" fill="#008CB4" stroke="none" stroke-width="1" d="M 13.799 119.942 L 10.836 133.126 L 14.836 134.015 L 18.298 120.979 L 13.799 119.942 "/>
        <path id="Fill-25" fill="#000000" stroke="none" stroke-width="1" d="M 20.317 98.907 C 21.919 99.328 21.300 99.660 20.613 103.351 C 19.375 110.003 11.083 136.532 9.745 140.917 C 8.454 145.148 7.483 149.562 5.487 153.535 C 4.789 154.217 4.025 154.491 3.089 154.092 C 1.528 152.868 2.585 149.071 3.785 145.779 C 4.543 143.701 16.631 103.359 16.631 103.359 C 16.631 103.359 17.502 98.166 20.317 98.907 "/>
        <path id="Fill-26" fill="#000000" stroke="none" stroke-width="1" d="M 13.892 103.743 C 14.337 103.856 14.166 103.949 13.985 104.974 C 13.658 106.822 2.419 141.861 2.059 143.080 C 1.711 144.257 1.453 145.483 0.910 146.590 C 0.718 146.781 0.506 146.859 0.246 146.751 C -0.190 146.415 0.023 144.543 0.347 143.627 C 0.552 143.049 12.264 105.394 12.264 105.394 C 12.264 105.394 13.109 103.544 13.892 103.743 "/>
        <path id="Fill-27" fill="#006482" stroke="none" stroke-width="1" d="M 34.469 128.134 L 34.469 131.855 C 38.273 131.862 46.935 131.888 55.137 131.818 L 55.137 128.070 C 48.124 128.099 40.181 128.127 34.469 128.134 "/>
        <path id="Fill-28" fill="#008CB4" stroke="none" stroke-width="1" d="M 67.446 112.715 C 60.167 112.318 25.595 112.600 22.679 113.629 C 20.398 113.476 19.668 114.765 20.535 116.622 C 21.482 117.441 22.996 118.050 24.314 117.719 C 31.695 117.564 57.089 117.586 63.702 117.435 C 64.504 117.705 67.749 117.227 68.471 116.715 C 68.689 115.704 69.449 112.320 67.446 112.715 "/>
        <path id="Fill-29" fill="#008CB4" stroke="none" stroke-width="1" d="M 73.585 143.750 C 73.628 144.832 73.302 144.509 70.865 144.785 C 66.471 145.283 28.306 145.172 25.310 145.175 C 22.419 145.177 19.475 145.414 16.610 144.926 C 16.051 144.620 15.733 144.195 15.804 143.534 C 16.270 142.324 18.845 142.259 21.132 142.380 C 22.575 142.456 70.098 142.298 70.098 142.298 C 70.098 142.298 73.510 141.850 73.585 143.750 "/>
        <path id="Fill-30" fill="#780046" stroke="none" stroke-width="1" d="M 60.237 102.433 C 58.388 102.109 31.179 103.060 26.751 102.724 L 30.536 114.371 C 32.390 114.843 55.371 114.535 59.509 113.643 C 59.661 112.362 60.163 103.124 60.237 102.433 "/>
        <path id="Fill-31" fill="#000000" stroke="none" stroke-width="1" d="M 44.857 42.492 C 46.524 42.716 48.434 43.454 49.519 44.296 C 51.679 45.974 53.521 47.210 52.848 54.094 C 52.909 53.478 38.708 46.901 38.708 46.901 C 39.178 44.421 42.256 42.142 44.857 42.492 "/>
        <path id="Fill-32" fill="#A0783C" stroke="none" stroke-width="1" d="M 51.981 53.702 C 51.981 53.702 52.566 51.364 54.903 52.606 C 57.241 53.848 55.691 56.610 55.122 57.646 C 54.423 58.921 53.086 59.327 51.773 59.760 C 51.950 57.371 51.981 53.702 51.981 53.702 "/>
        <path id="Fill-33" fill="#A0783C" stroke="none" stroke-width="1" d="M 38.572 58.760 C 37.259 58.326 35.922 57.920 35.223 56.646 C 34.654 55.610 33.104 52.848 35.442 51.606 C 37.780 50.364 38.364 52.702 38.364 52.702 C 38.364 52.702 38.395 56.371 38.572 58.760 "/>
        <path id="Fill-34" fill="#BE965A" stroke="none" stroke-width="1" d="M 52.820 52.380 C 52.305 48.249 49.583 43.931 44.901 43.683 C 39.480 43.396 37.330 47.445 37.272 52.336 C 37.394 52.621 37.486 57.405 37.646 58.836 C 37.864 60.799 38.252 62.376 39.374 64.029 C 41.748 67.526 45.306 68.743 48.991 67.224 C 50.609 66.556 51.431 65.399 52.183 63.962 C 52.917 62.557 53.115 54.748 52.820 52.380 "/>
        <path id="Fill-35" fill="#000000" stroke="none" stroke-width="1" d="M 43.717 43.227 L 40.535 45.304 C 40.535 45.304 46.722 45.437 48.578 44.243 L 43.717 43.227 Z "/>
        <path id="Fill-36" fill="#000000" stroke="none" stroke-width="1" d="M 44.191 51.971 C 42.339 51.971 41.228 51.872 40.435 53.796 C 40.473 54.766 42.311 55.747 44.092 55.697 C 45.874 55.646 47.598 54.564 47.598 53.651 C 47.598 51.825 46.044 51.970 44.191 51.971 "/>
        <path id="Fill-37" fill="#A0783C" stroke="none" stroke-width="1" d="M 45.458 48.226 C 45.186 47.319 44.741 46.492 44.210 45.652 C 43.143 46.360 42.507 48.279 43.126 49.478 C 43.280 49.775 43.979 50.660 45.136 50.010 C 45.543 49.780 45.628 48.792 45.458 48.226 "/>
        <path id="Fill-38" fill="#000000" stroke="none" stroke-width="1" d="M 48.162 46.427 C 48.380 47.130 48.420 47.668 47.925 48.168 C 47.115 47.771 47.385 47.101 47.369 46.427 L 48.162 46.427 Z "/>
        <path id="Fill-39" fill="#000000" stroke="none" stroke-width="1" d="M 40.631 47.645 C 40.067 47.480 40.067 47.480 39.800 46.884 C 39.905 46.708 40.027 46.506 40.165 46.278 C 40.363 46.315 40.526 46.346 40.695 46.378 C 40.909 46.813 40.949 47.199 40.631 47.645 "/>
        <path id="Fill-40" fill="#BE965A" stroke="none" stroke-width="1" d="M 35.089 2.608 C 34.918 1.787 34.496 0.196 33.478 0 C 32.834 1.330 33.373 3.918 33.410 5.408 C 33.084 5.857 32.901 6.359 32.292 6.488 C 32.089 6.384 31.869 6.270 31.652 6.159 C 30.943 4.626 30.604 0.028 28.043 0.576 C 27.712 1.728 28.544 2.181 28.991 3.214 C 29.590 4.602 29.682 6.042 29.332 7.511 C 29.136 7.593 28.944 7.672 28.771 7.744 C 26.773 6.848 26.525 4.841 24.049 5.377 C 23.293 6.956 24.662 7.138 25.650 7.973 C 27.326 9.393 27.436 10.792 27.390 12.957 C 27.328 15.915 27.005 18.877 26.793 21.827 C 26.412 27.113 25.958 37.382 25.521 42.659 C 24.831 51.007 23.837 59.370 24.431 67.758 C 24.910 74.512 26.460 79.793 32.572 83.582 L 35.920 72.912 C 36.676 71.273 35.676 67.809 35.571 66.037 C 35.372 62.701 36.172 7.802 35.089 2.608 "/>
        <path id="Fill-41" fill="#A0783C" stroke="none" stroke-width="1" d="M 35.590 12.265 C 36.174 12.144 36.335 11.834 36.448 11.474 C 36.674 10.751 36.900 10.028 37.135 9.308 C 37.261 8.919 37.427 8.560 38.013 8.553 C 38.085 8.753 38.218 8.970 38.238 9.197 C 38.336 10.272 38.053 11.283 37.565 12.219 C 37.217 12.887 36.768 13.505 36.332 14.123 C 35.768 14.921 35.779 19.350 35.688 19.539 C 35.471 19.581 30.848 19.487 30.450 19.375 C 30.303 18.903 30.381 16.726 30.482 16.267 C 30.635 15.563 30.783 14.856 30.971 14.161 C 31.256 13.108 31.870 12.404 33 12.154 C 33.908 11.953 34.780 11.875 35.590 12.265 "/>
        <path id="Fill-42" fill="#F01446" stroke="none" stroke-width="1" d="M 36.112 18.617 C 36.750 21.655 37.043 25.434 36.572 28.513 C 36.339 28.632 36.150 28.727 35.941 28.833 C 35.687 28.714 29.321 29.543 26.879 29.289 C 26.625 29.179 26.230 29.008 25.816 28.829 C 24.276 26.801 24.670 21.086 25.938 19.024 C 26.111 18.908 33.651 16.619 36.112 18.617 "/>
        <path id="Fill-43" fill="#BE965A" stroke="none" stroke-width="1" d="M 52.990 70.529 C 51.933 70.258 36.973 69.709 36.549 69.977 C 36.239 70.799 35.336 81.342 35.336 81.342 L 52.990 79.466 C 52.990 79.466 53.060 72.727 52.990 70.529 "/>
        <path id="Fill-44" fill="#F01446" stroke="none" stroke-width="1" d="M 58.951 88.052 C 58.783 87.018 57.393 80.241 56.166 75.211 C 55.426 72.177 54.572 69.712 54.572 69.712 C 54.572 69.712 51.795 69.463 51.084 69.594 C 51.078 70.032 50.773 72.271 49.785 73.644 C 48.518 75.406 46.376 76.323 44.959 76.361 C 42.437 76.429 40.527 75.259 39.727 73.831 C 38.577 71.778 38.650 69.083 38.650 69.083 C 38.650 69.083 36.719 68.969 36.494 69.041 C 33.759 69.907 30.669 82.685 30.268 85.001 C 29.543 89.198 28.895 93.412 28.332 97.634 C 28.150 98.999 26.691 104.258 27.684 105.487 L 61.671 105.151 C 62 104.367 59.091 88.910 58.951 88.052 "/>
        <path id="Fill-45" fill="#000000" stroke="none" stroke-width="1" d="M 26.751 107.313 L 61.239 107.313 L 61.239 102.450 L 26.751 102.450 L 26.751 107.313 "/>
        <path id="Fill-46" fill="#BE965A" stroke="none" stroke-width="1" d="M 63.767 104.495 C 63.706 111.062 61.637 117.196 61.637 117.196 L 49.409 117.389 C 49.409 117.389 50.207 98.159 53.282 95.195 C 54.145 94.364 56.284 91.653 60.536 93.479 C 64.787 95.306 63.793 101.609 63.767 104.495 "/>
        <path id="Fill-47" fill="#F0E6D2" stroke="none" stroke-width="1" d="M 48.812 112.877 C 48.478 116.481 48.353 123.079 48.365 124.437 C 50.500 125.064 58.472 124.047 60.406 123.596 C 61.178 122.436 62.571 116.566 63.286 112.877 L 48.812 112.877 Z "/>
        <path id="Fill-48" fill="#F01446" stroke="none" stroke-width="1" d="M 45.640 141.070 L 45.410 142.545 L 61.074 142.453 L 61.319 141.216 L 52.228 139.412 L 45.640 141.070 "/>
        <path id="Fill-49" fill="#000000" stroke="none" stroke-width="1" d="M 62.149 120.804 C 62.149 120.804 58.482 120.845 54.796 120.889 C 51.210 120.932 47.606 120.976 47.340 120.986 C 47.101 124.039 45.640 141.070 45.640 141.070 C 45.640 141.070 60.119 141.121 61.319 141.216 C 61.378 141.013 61.424 140.856 61.461 140.732 C 60.550 139.730 58.466 140.245 57.270 139.780 C 57.866 137.807 61.100 126.184 62.149 120.804 "/>
        <path id="Fill-50" fill="#F01446" stroke="none" stroke-width="1" d="M 55.471 126.019 C 55.471 128.143 53.749 129.865 51.625 129.865 C 49.501 129.865 47.779 128.143 47.779 126.019 C 47.779 123.895 49.501 122.174 51.625 122.174 C 53.749 122.174 55.471 123.895 55.471 126.019 "/>
        <path id="Fill-51" fill="#780046" stroke="none" stroke-width="1" d="M 53.449 126.019 C 53.449 127.027 52.632 127.844 51.625 127.844 C 50.617 127.844 49.800 127.027 49.800 126.019 C 49.800 125.011 50.617 124.195 51.625 124.195 C 52.632 124.195 53.449 125.011 53.449 126.019 "/>
        <path id="Fill-52" fill="#780046" stroke="none" stroke-width="1" d="M 60.973 122.618 C 60.973 123.040 60.630 123.383 60.208 123.383 C 59.785 123.383 59.443 123.040 59.443 122.618 C 59.443 122.195 59.785 121.853 60.208 121.853 C 60.630 121.853 60.973 122.195 60.973 122.618 "/>
        <path id="Fill-53" fill="#780046" stroke="none" stroke-width="1" d="M 60.144 125.617 C 60.144 126.039 59.801 126.382 59.379 126.382 C 58.956 126.382 58.613 126.039 58.613 125.617 C 58.613 125.194 58.956 124.852 59.379 124.852 C 59.801 124.852 60.144 125.194 60.144 125.617 "/>
        <path id="Fill-54" fill="#780046" stroke="none" stroke-width="1" d="M 59.441 128.744 C 59.441 129.166 59.099 129.509 58.676 129.509 C 58.254 129.509 57.911 129.166 57.911 128.744 C 57.911 128.321 58.254 127.979 58.676 127.979 C 59.099 127.979 59.441 128.321 59.441 128.744 "/>
        <path id="Fill-55" fill="#780046" stroke="none" stroke-width="1" d="M 58.676 131.360 C 58.676 131.783 58.333 132.125 57.911 132.125 C 57.488 132.125 57.146 131.783 57.146 131.360 C 57.146 130.938 57.488 130.595 57.911 130.595 C 58.333 130.595 58.676 130.938 58.676 131.360 "/>
        <path id="Fill-56" fill="#780046" stroke="none" stroke-width="1" d="M 57.974 134.104 C 57.974 134.526 57.632 134.869 57.209 134.869 C 56.786 134.869 56.444 134.526 56.444 134.104 C 56.444 133.681 56.786 133.339 57.209 133.339 C 57.632 133.339 57.974 133.681 57.974 134.104 "/>
        <path id="Fill-57" fill="#780046" stroke="none" stroke-width="1" d="M 57.208 136.976 C 57.208 137.398 56.866 137.741 56.443 137.741 C 56.021 137.741 55.678 137.398 55.678 136.976 C 55.678 136.553 56.021 136.211 56.443 136.211 C 56.866 136.211 57.208 136.553 57.208 136.976 "/>
        <path id="Fill-58" fill="#BE965A" stroke="none" stroke-width="1" d="M 39.163 115.021 C 38.105 115.093 28.170 114.831 27.851 114.782 C 27.416 112.269 25.220 105.158 25.388 100.437 C 25.488 97.634 26.255 94.781 27.915 93.215 C 28.911 92.275 30.229 91.799 31.917 92.073 C 36.281 92.784 37.686 99.255 38.242 102.945 C 38.773 106.466 38.715 111.527 39.163 115.021 "/>
        <path id="Fill-59" fill="#F0E6D2" stroke="none" stroke-width="1" d="M 26.683 112.877 C 27.124 115.773 27.865 120.687 28.121 122.695 C 31.203 123.735 37.384 123.404 40.565 122.715 C 40.979 121.595 40.046 115.587 39.630 112.877 L 26.683 112.877 Z "/>
        <path id="Fill-60" fill="#F01446" stroke="none" stroke-width="1" d="M 43.299 141.070 L 43.530 142.545 L 27.865 142.453 L 27.620 141.216 L 36.711 139.412 L 43.299 141.070 "/>
        <path id="Fill-61" fill="#000000" stroke="none" stroke-width="1" d="M 26.791 120.804 C 26.791 120.804 30.458 120.845 34.144 120.889 C 37.730 120.932 41.334 120.976 41.600 120.986 C 41.839 124.039 43.300 141.070 43.300 141.070 C 43.300 141.070 28.821 141.121 27.621 141.216 C 27.562 141.013 27.515 140.856 27.479 140.732 C 28.390 139.730 30.474 140.245 31.670 139.780 C 31.074 137.807 27.957 126.818 26.791 120.804 "/>
        <path id="Fill-62" fill="#F01446" stroke="none" stroke-width="1" d="M 33.469 126.019 C 33.469 128.143 35.191 129.865 37.315 129.865 C 39.439 129.865 41.161 128.143 41.161 126.019 C 41.161 123.895 39.439 122.174 37.315 122.174 C 35.191 122.174 33.469 123.895 33.469 126.019 "/>
        <path id="Fill-63" fill="#780046" stroke="none" stroke-width="1" d="M 35.490 126.019 C 35.490 127.027 36.307 127.844 37.315 127.844 C 38.323 127.844 39.140 127.027 39.140 126.019 C 39.140 125.011 38.323 124.195 37.315 124.195 C 36.307 124.195 35.490 125.011 35.490 126.019 "/>
        <path id="Fill-64" fill="#780046" stroke="none" stroke-width="1" d="M 27.966 122.618 C 27.966 123.040 28.309 123.383 28.731 123.383 C 29.154 123.383 29.496 123.040 29.496 122.618 C 29.496 122.195 29.154 121.853 28.731 121.853 C 28.309 121.853 27.966 122.195 27.966 122.618 "/>
        <path id="Fill-65" fill="#780046" stroke="none" stroke-width="1" d="M 28.796 125.617 C 28.796 126.039 29.139 126.382 29.561 126.382 C 29.983 126.382 30.326 126.039 30.326 125.617 C 30.326 125.194 29.983 124.852 29.561 124.852 C 29.139 124.852 28.796 125.194 28.796 125.617 "/>
        <path id="Fill-66" fill="#780046" stroke="none" stroke-width="1" d="M 29.498 128.744 C 29.498 129.166 29.840 129.509 30.263 129.509 C 30.685 129.509 31.028 129.166 31.028 128.744 C 31.028 128.321 30.685 127.979 30.263 127.979 C 29.840 127.979 29.498 128.321 29.498 128.744 "/>
        <path id="Fill-67" fill="#780046" stroke="none" stroke-width="1" d="M 30.264 131.360 C 30.264 131.783 30.606 132.125 31.029 132.125 C 31.451 132.125 31.794 131.783 31.794 131.360 C 31.794 130.938 31.451 130.595 31.029 130.595 C 30.606 130.595 30.264 130.938 30.264 131.360 "/>
        <path id="Fill-68" fill="#780046" stroke="none" stroke-width="1" d="M 30.966 134.104 C 30.966 134.526 31.308 134.869 31.731 134.869 C 32.153 134.869 32.496 134.526 32.496 134.104 C 32.496 133.681 32.153 133.339 31.731 133.339 C 31.308 133.339 30.966 133.681 30.966 134.104 "/>
        <path id="Fill-69" fill="#780046" stroke="none" stroke-width="1" d="M 31.731 136.976 C 31.731 137.398 32.074 137.741 32.496 137.741 C 32.919 137.741 33.262 137.398 33.262 136.976 C 33.262 136.553 32.919 136.211 32.496 136.211 C 32.074 136.211 31.731 136.553 31.731 136.976 "/>
        <path id="Fill-70" fill="#64645A" stroke="none" stroke-width="1" d="M 40.754 107.787 L 48.461 107.787 L 48.461 101.766 L 40.754 101.766 L 40.754 107.787 "/>
      </g>
    </g>
  </g>
</svg>