<svg version="1.1" width="152" height="190" viewBox="-1 -1 152 190" xmlns="http://www.w3.org/2000/svg" xmlns:xlink="http://www.w3.org/1999/xlink">
  <!-- Exported by Scratch - http://scratch.mit.edu/ -->
  <g id="Layer_1" transform="matrix(1, 0, 0, 1, -48, -24)">
    <path id="Shape" fill="#642800" stroke="none" stroke-width="1" d="M 30.604 62.311 C 30.604 62.311 34.023 63.100 32.913 65.278 C 31.803 67.455 29.961 69.431 27.634 68.512 C 25.308 67.592 29.323 63.017 30.604 62.311 Z " transform="matrix(1, 0, 0, 1, 48.45, 25.35)"/>
    <path id="Shape" fill="#BE0A3C" stroke="none" stroke-width="1" d="M 29.825 133.036 C 28.390 133.303 14.685 132.507 14.685 132.507 C 14.685 132.507 20.814 117.317 22.651 112.736 C 24.558 107.989 26.530 103.242 28.626 98.584 C 30.988 98.311 51.985 94.015 53.372 94.300 C 53.756 95.190 33.137 126.378 29.825 133.036 Z " transform="matrix(1, 0, 0, 1, 48.45, 25.35)"/>
    <path id="Shape" fill="#F01446" stroke="none" stroke-width="1" d="M 65.633 99.773 C 65.633 99.773 65.367 93.780 65.232 93.543 C 63.531 93.139 40.792 94.462 40.792 94.462 C 40.792 94.462 42.942 108.603 43.272 112.531 C 43.792 118.684 45.581 127.917 49.271 133.080 L 65.450 132.486 C 65.450 132.486 63.631 122.328 63.891 114.976 C 64.043 109.868 64.626 104.782 65.633 99.773 Z " transform="matrix(1, 0, 0, 1, 48.45, 25.35)"/>
    <path id="Shape" fill="#FFC800" stroke="none" stroke-width="1" d="M 57.855 132.303 C 56.891 132.404 55.919 132.404 54.956 132.303 C 52.966 128.297 53.999 99.667 55.351 95.116 C 56.030 95.157 58.380 95.080 59.042 95.116 C 59.189 97.157 57.784 105.796 57.459 114.371 C 57.276 120.351 57.408 126.337 57.855 132.303 Z " transform="matrix(1, 0, 0, 1, 48.45, 25.35)"/>
    <path id="Shape" fill="#824600" stroke="none" stroke-width="1" d="M 48.286 56.598 C 46.851 56.568 42.924 56.527 38.018 56.705 C 35.786 56.788 30.991 57.002 28.216 58.485 C 25.441 59.969 22.689 61.950 22.028 62.882 C 22.116 62.977 44.465 63.535 45.286 63.535 C 45.434 63.286 48.664 56.936 48.286 56.598 Z " transform="matrix(1, 0, 0, 1, 48.45, 25.35)"/>
    <path id="Shape" fill="#FFC800" stroke="none" stroke-width="1" d="M 89.601 2.674 C 87.475 0.893 85.970 -0.774 83.159 0.383 C 81.028 1.261 78.878 3.748 77.184 5.314 C 73.540 8.679 22.578 64.902 8.158 82.952 C 8.631 83.035 9.930 83.374 9.930 83.374 C 9.930 83.374 57.261 37.766 61.300 33.808 C 65.339 29.851 84.027 12.447 85.580 11.052 C 87.393 9.403 89.536 7.545 90.634 5.320 C 90.649 4.336 90.278 3.385 89.601 2.674 Z " transform="matrix(1, 0, 0, 1, 48.45, 25.35)"/>
    <path id="Shape" fill="#824600" stroke="none" stroke-width="1" d="M 19.346 73.337 C 18.326 73.289 17.391 72.752 16.833 71.893 C 16.275 71.033 16.162 69.957 16.530 68.999 C 17.398 66.412 21.478 62.858 22.110 62.425 C 23.834 61.238 27.064 61.238 28.953 62.110 C 32.945 63.890 28.363 70.103 26.249 70.928 C 24.256 72.438 21.841 73.280 19.346 73.337 Z " transform="matrix(1, 0, 0, 1, 48.45, 25.35)"/>
    <path id="Shape" fill="#6E1E3C" stroke="none" stroke-width="1" d="M 44.335 55.822 C 44.335 55.822 40.792 65.061 40.792 66.176 C 42.469 66.254 62.344 68.971 63.956 68.841 L 70.451 55.786 C 69.973 55.691 44.335 55.822 44.335 55.822 Z " transform="matrix(1, 0, 0, 1, 48.45, 25.35)"/>
    <path id="Shape" fill="#BE0A3C" stroke="none" stroke-width="1" d="M 71.657 55.761 C 64.817 55.575 58.189 58.155 53.259 62.923 C 48.777 67.374 42.518 73.604 37.186 81.781 C 32.025 89.673 27.739 99.582 27.739 99.582 L 65.475 99.855 C 65.475 99.855 71.226 86.208 72.933 81.081 C 72.124 79.627 71.657 55.761 71.657 55.761 Z " transform="matrix(1, 0, 0, 1, 48.45, 25.35)"/>
    <path id="Shape" fill="#000000" stroke="none" stroke-width="1" d="M 79.953 37.714 C 80.348 37.714 93.451 49.268 94.874 50.935 C 95.860 51.975 96.762 53.092 97.572 54.276 C 98.953 56.410 100.002 58.743 100.684 61.195 C 100.956 62.263 101.274 63.319 101.493 64.405 C 101.837 66.363 101.915 68.359 101.723 70.339 C 101.637 71.481 101.336 72.596 100.837 73.626 C 100.680 73.955 100.466 74.255 100.206 74.510 C 98.963 75.705 97.204 76.189 95.529 75.798 C 95.284 75.746 95.049 75.650 94.838 75.513 C 93.808 74.875 92.911 74.040 92.199 73.056 C 90.888 71.100 89.879 68.955 89.205 66.695 C 89.041 66.169 88.821 65.662 88.550 65.182 C 88.078 64.395 87.711 63.549 87.458 62.666 C 86.507 59.379 85.485 56.139 84.582 52.816 C 84.086 51.000 83.566 49.202 82.946 47.434 C 82.876 47.262 79.994 38.017 79.953 37.714 Z " transform="matrix(1, 0, 0, 1, 48.45, 25.35)"/>
    <path id="Shape" fill="#824600" stroke="none" stroke-width="1" d="M 82.652 33.615 L 56.293 34.060 C 56.382 34.410 56.642 38.582 56.754 39.003 C 57.210 40.521 57.841 41.980 58.632 43.352 C 59.218 44.372 59.893 45.337 60.651 46.236 C 61.200 46.919 61.909 47.470 62.487 48.135 C 62.998 48.714 63.610 49.193 64.294 49.547 C 65.468 50.151 66.717 50.592 68.008 50.859 C 69.600 51.125 71.215 51.215 72.826 51.126 C 73.193 51.123 73.556 51.057 73.901 50.930 C 75.276 50.542 76.627 50.070 77.946 49.518 C 79.191 48.924 81.819 46.551 82.799 45.441 C 82.622 45.293 82.740 33.674 82.652 33.615 Z " transform="matrix(1, 0, 0, 1, 48.45, 25.35)"/>
    <path id="Shape" fill="#642800" stroke="none" stroke-width="1" d="M 65.664 41.606 L 64.938 41.606 C 64.346 41.258 63.841 40.779 63.462 40.205 C 62.759 38.894 61.218 36.093 61.188 35.286 C 62.033 35.102 66.125 35.767 67.683 36.129 C 68.132 38.046 67.323 40.805 65.664 41.606 Z " transform="matrix(1, 0, 0, 1, 48.45, 25.35)"/>
    <path id="Shape" fill="#F01446" stroke="none" stroke-width="1" d="M 93.404 33.508 C 92.713 27.248 88.420 21.160 82.958 18.193 C 77.780 15.380 68.374 14.632 62.977 16.958 C 57.935 19.112 52.514 26.197 53.069 32.475 C 54.345 33.478 67.984 36.083 76.280 37.667 C 76.694 37.745 74.887 42.770 81.595 45.975 C 83.008 46.547 84.570 46.629 86.035 46.206 C 87.717 45.735 89.261 44.861 90.534 43.661 C 92.914 41.073 93.776 36.920 93.404 33.508 Z " transform="matrix(1, 0, 0, 1, 48.45, 25.35)"/>
    <path id="Shape" fill="#824600" stroke="none" stroke-width="1" d="M 67.152 61.491 L 53.955 72.403 L 33.472 73.091 C 33.472 73.091 31.700 78.877 31.824 79.862 C 35.580 80.794 73.033 80.752 73.033 80.752 L 67.152 61.491 Z " transform="matrix(1, 0, 0, 1, 48.45, 25.35)"/>
    <path id="Shape" fill="#BE0A3C" stroke="none" stroke-width="1" d="M 76.473 37.167 C 71.159 37.856 49.808 36.384 44.871 36.165 C 46.897 34.776 53.262 31.975 53.262 31.975 C 53.262 31.975 73.733 35.945 76.473 37.167 Z " transform="matrix(1, 0, 0, 1, 48.45, 25.35)"/>
    <path id="Shape" fill="#FFC800" stroke="none" stroke-width="1" d="M 5.786 81.093 C 6.589 78.661 9.807 78.554 10.692 78.797 C 11.253 78.951 14.188 79.984 14.525 81.224 C 14.861 82.464 14.454 84.268 12.706 85.550 C 10.958 86.831 4.977 83.520 5.786 81.093 Z " transform="matrix(1, 0, 0, 1, 48.45, 25.35)"/>
    <path id="Shape" fill="#BE0A3C" stroke="none" stroke-width="1" d="M 68.815 26.039 C 70.362 32.163 59.563 32.987 59.557 26.721 C 59.551 21.393 68.455 20.135 68.815 26.039 Z " transform="matrix(1, 0, 0, 1, 48.45, 25.35)"/>
    <path id="Shape" fill="#6E1E3C" stroke="none" stroke-width="1" d="M 87.790 38.796 C 87.096 37.577 85.786 36.846 84.389 36.897 L 83.073 37.182 C 79.973 39.805 82.104 43.751 85.901 43.187 C 87.761 42.505 88.658 40.273 87.790 38.796 Z " transform="matrix(1, 0, 0, 1, 48.45, 25.35)"/>
    <path id="Shape" fill="#000000" stroke="none" stroke-width="1" d="M 70.163 43.227 L 73.150 42.634 C 73.861 42.678 74.542 42.936 75.105 43.375 C 73.853 44.562 72.607 44.770 70.275 44.147 C 70.245 43.909 70.204 43.595 70.163 43.227 Z " transform="matrix(1, 0, 0, 1, 48.45, 25.35)"/>
    <path id="Shape" fill="#000000" stroke="none" stroke-width="1" d="M 61.624 37.715 C 61.894 38.221 61.913 38.824 61.677 39.347 C 61.550 39.634 61.248 39.802 60.939 39.756 C 60.272 39.406 60.307 38.819 60.478 38.166 C 60.783 37.865 61.197 37.702 61.624 37.715 Z " transform="matrix(1, 0, 0, 1, 48.45, 25.35)"/>
    <path id="Shape" fill="#000000" stroke="none" stroke-width="1" d="M 70.979 39.852 C 70.971 39.367 71.144 38.898 71.463 38.534 L 72.166 38.813 C 72.390 39.407 72.130 39.727 71.670 40.047 L 70.979 39.852 Z " transform="matrix(1, 0, 0, 1, 48.45, 25.35)"/>
    <path id="Shape" fill="#F01446" stroke="none" stroke-width="1" d="M 71.913 55.752 C 76.483 57.532 79.766 60.499 79.264 65.768 C 78.638 72.295 73.165 81.054 73.165 81.054 L 57.925 68.373 C 57.925 68.373 66.994 59.122 71.913 55.752 Z " transform="matrix(1, 0, 0, 1, 48.45, 25.35)"/>
    <path id="Shape" fill="#824600" stroke="none" stroke-width="1" d="M 23.121 71.006 C 25.607 71.754 23.351 78.269 21.775 79.860 C 19.351 82.328 15.768 83.248 12.463 82.251 C 11.075 81.865 8.631 81.420 8.282 79.694 C 6.989 73.291 16.195 69.013 17.878 69.778 C 19.956 70.710 20.629 70.265 23.121 71.006 Z " transform="matrix(1, 0, 0, 1, 48.45, 25.35)"/>
    <path id="Shape" fill="#6E1E3C" stroke="none" stroke-width="1" d="M 67.805 100.821 L 25.291 100.821 L 27.063 95.926 L 68.985 95.926 L 67.805 100.821 " transform="matrix(1, 0, 0, 1, 48.45, 25.35)"/>
    <path id="Shape" fill="#6E1E3C" stroke="none" stroke-width="1" d="M 5.527 160.583 L 0.378 160.583 L 0 161.206 C 3.501 162.393 8.792 161.591 12.471 161.526 C 15.039 158.269 27.899 136.100 27.899 136.100 L 12.919 136.100 C 12.813 136.711 6.064 157.005 5.527 160.583 Z " transform="matrix(1, 0, 0, 1, 48.45, 25.35)"/>
    <path id="Shape" fill="#6E1E3C" stroke="none" stroke-width="1" d="M 76.733 161.670 C 75.942 157.575 73.485 153.398 72.151 149.416 C 70.746 145.233 68.980 141.245 67.929 136.920 L 49.767 136.920 C 52.967 141.376 57.118 147.144 59.804 150.205 C 63.412 154.306 68.620 157.765 71.614 162.299 C 70.354 162.455 69.084 162.498 67.817 162.429 L 67.599 162.850 C 68.224 163.960 75.965 163.373 77.205 162.916 C 77.015 162.514 76.857 162.097 76.733 161.670 Z " transform="matrix(1, 0, 0, 1, 48.45, 25.35)"/>
    <path id="Shape" fill="#642800" stroke="none" stroke-width="1" d="M 32.030 63.573 C 32.030 63.573 26.752 62.155 26.161 64.398 C 25.571 66.641 29.999 66.647 30.802 66.878 C 31.605 67.109 33.607 65.638 32.030 63.573 Z " transform="matrix(1, 0, 0, 1, 48.45, 25.35)"/>
    <path id="Rectangle-path" fill="#F01446" stroke="none" stroke-width="1" d="M 45.687 95.106 L 48.917 95.106 L 48.917 101.948 L 45.687 101.948 L 45.687 95.106 Z " transform="matrix(1, 0, 0, 1, 48.45, 25.35)"/>
    <path id="Rectangle-path" fill="#F01446" stroke="none" stroke-width="1" d="M 31.818 95.106 L 35.048 95.106 L 35.048 101.948 L 31.818 101.948 L 31.818 95.106 Z " transform="matrix(1, 0, 0, 1, 48.45, 25.35)"/>
    <path id="Rectangle-path" fill="#F01446" stroke="none" stroke-width="1" d="M 60.373 95.106 L 64.151 95.106 L 64.151 101.948 L 60.373 101.948 L 60.373 95.106 Z " transform="matrix(1, 0, 0, 1, 48.45, 25.35)"/>
    <path id="Shape" fill="#F0E6D2" stroke="none" stroke-width="1" d="M 67.015 129.653 L 45.687 129.541 C 46.496 132.096 47.652 134.526 49.124 136.762 C 49.614 136.839 68.704 136.804 68.704 136.804 C 68.704 136.804 67.186 131.000 67.015 129.653 Z " transform="matrix(1, 0, 0, 1, 48.45, 25.35)"/>
    <path id="Shape" fill="#F0E6D2" stroke="none" stroke-width="1" d="M 69.110 138.672 L 49.767 138.559 C 49.891 138.998 50.062 139.503 50.268 140.025 L 69.571 140.025 C 69.388 139.585 69.234 139.133 69.110 138.672 Z " transform="matrix(1, 0, 0, 1, 48.45, 25.35)"/>
    <path id="Shape" fill="#F0E6D2" stroke="none" stroke-width="1" d="M 15.003 128.721 C 14.059 130.649 12.051 136.192 12.252 137.099 L 28.938 137.639 L 32.912 129.516 L 15.003 128.721 Z " transform="matrix(1, 0, 0, 1, 48.45, 25.35)"/>
    <path id="Shape" fill="#F0E6D2" stroke="none" stroke-width="1" d="M 28.173 138.559 L 11.640 138.559 C 11.564 138.969 11.499 139.372 11.422 139.782 L 27.654 139.782 C 27.804 139.365 27.977 138.957 28.173 138.559 Z " transform="matrix(1, 0, 0, 1, 48.45, 25.35)"/>
    <path id="Shape" fill="#F01446" stroke="none" stroke-width="1" d="M 35.087 72.174 C 32.353 72.144 27.411 72.127 24.069 72.210 L 20.396 80.861 C 25.120 81.039 34.059 81.455 35.087 81.520 L 35.087 72.174 Z " transform="matrix(1, 0, 0, 1, 48.45, 25.35)"/>
  </g>
  <path id="Shape" fill="#642800" stroke="none" stroke-width="1" d="M 31.036 62.614 C 31.036 62.614 34.480 63.407 33.362 65.596 C 32.243 67.785 30.387 69.771 28.043 68.846 C 25.699 67.922 29.745 63.324 31.036 62.614 Z "/>
  <path id="Shape" fill="#BE0A3C" stroke="none" stroke-width="1" d="M 29.893 133.845 C 28.447 134.114 14.639 133.315 14.639 133.315 C 14.639 133.315 20.814 118.047 22.665 113.443 C 24.586 108.672 26.573 103.900 28.685 99.219 C 31.065 98.944 52.221 94.626 53.619 94.913 C 54.006 95.807 33.231 127.154 29.893 133.845 Z "/>
  <path id="Shape" fill="#F01446" stroke="none" stroke-width="1" d="M 66.018 100.260 C 66.018 100.260 65.750 94.236 65.614 93.998 C 63.900 93.592 40.989 94.922 40.989 94.922 C 40.989 94.922 43.155 109.134 43.488 113.082 C 44.012 119.267 45.814 128.547 49.533 133.735 L 65.834 133.139 C 65.834 133.139 64.001 122.929 64.263 115.539 C 64.416 110.406 65.004 105.294 66.018 100.260 Z "/>
  <path id="Shape" fill="#FFC800" stroke="none" stroke-width="1" d="M 58.692 133.263 C 57.721 133.365 56.742 133.365 55.771 133.263 C 53.766 129.238 54.807 100.462 56.169 95.887 C 56.854 95.929 59.221 95.851 59.888 95.887 C 60.036 97.939 58.620 106.622 58.293 115.240 C 58.108 121.251 58.242 127.267 58.692 133.263 Z "/>
  <path id="Shape" fill="#824600" stroke="none" stroke-width="1" d="M 48.903 56.770 C 47.457 56.741 43.501 56.699 38.557 56.878 C 36.308 56.961 31.478 57.176 28.681 58.667 C 25.885 60.158 23.113 62.150 22.447 63.086 C 22.536 63.182 45.054 63.742 45.881 63.742 C 46.030 63.492 49.284 57.110 48.903 56.770 Z "/>
  <path id="Shape" fill="#FFC800" stroke="none" stroke-width="1" d="M 89.866 2.687 C 87.724 0.898 86.207 -0.778 83.375 0.385 C 81.228 1.268 79.062 3.767 77.355 5.341 C 73.684 8.723 22.336 65.231 7.808 83.373 C 8.283 83.457 9.592 83.797 9.592 83.797 C 9.592 83.797 57.282 37.958 61.351 33.980 C 65.420 30.002 84.250 12.510 85.815 11.108 C 87.641 9.450 89.801 7.584 90.907 5.347 C 90.922 4.358 90.548 3.402 89.866 2.687 Z "/>
  <path id="Shape" fill="#824600" stroke="none" stroke-width="1" d="M 19.643 73.542 C 18.615 73.494 17.673 72.954 17.111 72.090 C 16.549 71.226 16.435 70.144 16.805 69.182 C 17.680 66.582 21.791 63.010 22.427 62.574 C 24.165 61.381 27.419 61.381 29.323 62.258 C 33.344 64.047 28.728 70.292 26.598 71.120 C 24.590 72.638 22.157 73.485 19.643 73.542 Z "/>
  <path id="Shape" fill="#6E1E3C" stroke="none" stroke-width="1" d="M 44.559 56.814 C 44.559 56.814 40.989 66.100 40.989 67.221 C 42.679 67.299 62.704 70.030 64.328 69.899 L 70.873 56.779 C 70.391 56.683 44.559 56.814 44.559 56.814 Z "/>
  <path id="Shape" fill="#BE0A3C" stroke="none" stroke-width="1" d="M 72.553 56.753 C 65.661 56.566 58.983 59.159 54.015 63.952 C 49.500 68.425 43.193 74.687 37.821 82.905 C 32.621 90.837 28.302 100.797 28.302 100.797 L 66.324 101.071 C 66.324 101.071 72.119 87.354 73.838 82.201 C 73.023 80.740 72.553 56.753 72.553 56.753 Z "/>
  <path id="Shape" fill="#000000" stroke="none" stroke-width="1" d="M 81.003 38.155 C 81.401 38.155 94.603 49.767 96.037 51.443 C 97.030 52.488 97.939 53.611 98.756 54.801 C 100.146 56.946 101.204 59.291 101.891 61.755 C 102.165 62.828 102.486 63.890 102.706 64.981 C 103.053 66.949 103.131 68.956 102.938 70.945 C 102.851 72.093 102.548 73.214 102.046 74.249 C 101.887 74.580 101.671 74.881 101.409 75.138 C 100.157 76.339 98.385 76.825 96.697 76.432 C 96.450 76.380 96.214 76.283 96.001 76.146 C 94.963 75.504 94.059 74.665 93.342 73.677 C 92.021 71.710 91.004 69.554 90.325 67.283 C 90.160 66.754 89.938 66.244 89.665 65.762 C 89.190 64.971 88.820 64.121 88.564 63.234 C 87.607 59.930 86.577 56.673 85.667 53.334 C 85.167 51.509 84.644 49.702 84.019 47.924 C 83.948 47.751 81.045 38.459 81.003 38.155 Z "/>
  <path id="Shape" fill="#824600" stroke="none" stroke-width="1" d="M 83.162 34.242 L 56.604 34.689 C 56.694 35.041 56.955 39.234 57.068 39.657 C 57.529 41.183 58.163 42.650 58.960 44.029 C 59.551 45.054 60.232 46.024 60.995 46.927 C 61.548 47.613 62.262 48.168 62.845 48.836 C 63.360 49.417 63.977 49.899 64.666 50.255 C 65.848 50.862 67.107 51.305 68.408 51.573 C 70.011 51.841 71.639 51.931 73.262 51.842 C 73.632 51.839 73.998 51.772 74.345 51.645 C 75.731 51.255 77.092 50.781 78.420 50.225 C 79.676 49.629 82.323 47.243 83.311 46.128 C 83.132 45.979 83.251 34.302 83.162 34.242 Z "/>
  <path id="Shape" fill="#642800" stroke="none" stroke-width="1" d="M 65.994 41.604 L 65.262 41.604 C 64.666 41.254 64.157 40.773 63.775 40.196 C 63.067 38.878 61.514 36.063 61.484 35.252 C 62.335 35.067 66.458 35.735 68.028 36.099 C 68.480 38.025 67.665 40.798 65.994 41.604 Z "/>
  <path id="Shape" fill="#F01446" stroke="none" stroke-width="1" d="M 94.356 33.675 C 93.660 27.383 89.335 21.264 83.832 18.282 C 78.614 15.455 69.137 14.703 63.699 17.041 C 58.618 19.206 53.157 26.327 53.716 32.637 C 55.001 33.645 68.744 36.263 77.103 37.855 C 77.519 37.933 75.699 42.984 82.457 46.205 C 83.881 46.780 85.456 46.862 86.931 46.437 C 88.626 45.964 90.181 45.086 91.464 43.879 C 93.862 41.279 94.731 37.104 94.356 33.675 Z "/>
  <path id="Shape" fill="#824600" stroke="none" stroke-width="1" d="M 67.807 61.636 L 54.510 72.603 L 33.872 73.295 C 33.872 73.295 32.087 79.110 32.212 80.100 C 35.996 81.036 73.732 80.994 73.732 80.994 L 67.807 61.636 Z "/>
  <path id="Shape" fill="#BE0A3C" stroke="none" stroke-width="1" d="M 76.734 37.504 C 71.379 38.196 49.867 36.716 44.893 36.496 C 46.934 35.100 53.347 32.285 53.347 32.285 C 53.347 32.285 73.973 36.275 76.734 37.504 Z "/>
  <path id="Shape" fill="#FFC800" stroke="none" stroke-width="1" d="M 5.931 81.643 C 6.740 79.198 9.982 79.090 10.875 79.335 C 11.440 79.490 14.397 80.528 14.736 81.774 C 15.075 83.021 14.665 84.834 12.904 86.122 C 11.143 87.410 5.116 84.082 5.931 81.643 Z "/>
  <path id="Shape" fill="#BE0A3C" stroke="none" stroke-width="1" d="M 69.837 26.424 C 71.395 32.579 60.514 33.408 60.508 27.110 C 60.502 21.754 69.474 20.490 69.837 26.424 Z "/>
  <path id="Shape" fill="#6E1E3C" stroke="none" stroke-width="1" d="M 88.232 39.088 C 87.532 37.863 86.212 37.128 84.805 37.180 L 83.478 37.466 C 80.355 40.102 82.503 44.068 86.328 43.501 C 88.202 42.815 89.106 40.573 88.232 39.088 Z "/>
  <path id="Shape" fill="#000000" stroke="none" stroke-width="1" d="M 70.268 43.643 L 73.278 43.047 C 73.994 43.091 74.680 43.351 75.247 43.793 C 73.986 44.985 72.731 45.194 70.381 44.568 C 70.351 44.329 70.309 44.013 70.268 43.643 Z "/>
  <path id="Shape" fill="#000000" stroke="none" stroke-width="1" d="M 61.769 38.156 C 62.041 38.664 62.061 39.271 61.822 39.796 C 61.695 40.085 61.391 40.253 61.079 40.208 C 60.406 39.856 60.442 39.265 60.615 38.609 C 60.922 38.307 61.339 38.143 61.769 38.156 Z "/>
  <path id="Shape" fill="#000000" stroke="none" stroke-width="1" d="M 71.244 40.458 C 71.236 39.971 71.410 39.499 71.732 39.134 L 72.440 39.414 C 72.666 40.010 72.404 40.332 71.940 40.654 L 71.244 40.458 Z "/>
  <path id="Shape" fill="#F01446" stroke="none" stroke-width="1" d="M 72.650 56.744 C 77.255 58.533 80.563 61.515 80.057 66.811 C 79.426 73.371 73.911 82.174 73.911 82.174 L 58.556 69.429 C 58.556 69.429 67.694 60.131 72.650 56.744 Z "/>
  <path id="Shape" fill="#824600" stroke="none" stroke-width="1" d="M 22.883 71.764 C 25.388 72.515 23.115 79.064 21.527 80.662 C 19.085 83.143 15.475 84.068 12.145 83.066 C 10.746 82.678 8.283 82.231 7.932 80.495 C 6.630 74.060 15.905 69.760 17.600 70.529 C 19.694 71.466 20.372 71.019 22.883 71.764 Z "/>
  <path id="Shape" fill="#6E1E3C" stroke="none" stroke-width="1" d="M 68.209 101.776 L 25.374 101.776 L 27.159 96.856 L 69.399 96.856 L 68.209 101.776 "/>
  <path id="Shape" fill="#6E1E3C" stroke="none" stroke-width="1" d="M 5.569 161.575 L 0.381 161.575 L 0 162.201 C 3.528 163.394 8.858 162.589 12.565 162.523 C 15.153 159.249 28.110 136.968 28.110 136.968 L 13.017 136.968 C 12.910 137.582 6.110 157.979 5.569 161.575 Z "/>
  <path id="Shape" fill="#6E1E3C" stroke="none" stroke-width="1" d="M 76.943 162.822 C 76.146 158.707 73.671 154.508 72.327 150.506 C 70.911 146.302 69.132 142.294 68.073 137.946 L 49.773 137.946 C 52.997 142.425 57.180 148.222 59.887 151.299 C 63.522 155.421 68.769 158.897 71.785 163.454 C 70.516 163.611 69.236 163.655 67.960 163.585 L 67.740 164.009 C 68.370 165.124 76.170 164.533 77.419 164.074 C 77.227 163.670 77.068 163.251 76.943 162.822 Z "/>
  <path id="Shape" fill="#642800" stroke="none" stroke-width="1" d="M 32.318 64.037 C 32.318 64.037 27.000 62.611 26.405 64.866 C 25.810 67.120 30.272 67.126 31.081 67.359 C 31.890 67.591 33.907 66.112 32.318 64.037 Z "/>
  <path id="Rectangle-path" fill="#F01446" stroke="none" stroke-width="1" d="M 45.869 95.877 L 49.123 95.877 L 49.123 102.754 L 45.869 102.754 L 45.869 95.877 Z "/>
  <path id="Rectangle-path" fill="#F01446" stroke="none" stroke-width="1" d="M 32.206 95.877 L 35.460 95.877 L 35.460 102.754 L 32.206 102.754 L 32.206 95.877 Z "/>
  <path id="Rectangle-path" fill="#F01446" stroke="none" stroke-width="1" d="M 60.508 95.877 L 64.316 95.877 L 64.316 102.754 L 60.508 102.754 L 60.508 95.877 Z "/>
  <path id="Shape" fill="#F0E6D2" stroke="none" stroke-width="1" d="M 67.358 130.233 L 45.869 130.119 C 46.684 132.687 47.849 135.130 49.332 137.378 C 49.825 137.455 69.059 137.419 69.059 137.419 C 69.059 137.419 67.530 131.587 67.358 130.233 Z "/>
  <path id="Shape" fill="#F0E6D2" stroke="none" stroke-width="1" d="M 69.263 140.016 L 49.773 139.903 C 49.898 140.344 50.070 140.851 50.279 141.376 L 69.727 141.376 C 69.543 140.933 69.388 140.479 69.263 140.016 Z "/>
  <path id="Shape" fill="#F0E6D2" stroke="none" stroke-width="1" d="M 15.474 129.141 C 14.522 131.079 12.499 136.650 12.701 137.562 L 29.514 138.105 L 33.518 129.940 L 15.474 129.141 Z "/>
  <path id="Shape" fill="#F0E6D2" stroke="none" stroke-width="1" d="M 28.589 139.903 L 11.931 139.903 C 11.854 140.314 11.789 140.720 11.711 141.131 L 28.066 141.131 C 28.217 140.712 28.392 140.302 28.589 139.903 Z "/>
  <path id="Shape" fill="#F01446" stroke="none" stroke-width="1" d="M 35.297 72.422 C 32.542 72.392 27.562 72.374 24.195 72.458 L 20.495 81.153 C 25.254 81.332 34.261 81.750 35.297 81.815 L 35.297 72.422 Z "/>
</svg>