<svg width="150px" height="181px" viewBox="0 0 150 181" version="1.1" xml:space="preserve" xmlns="http://www.w3.org/2000/svg" xmlns:xlink="http://www.w3.org/1999/xlink">
  <defs/>
  <g>
    <title>skeleton-e</title>
    <desc>Created with Sketch.</desc>
    <g id="skeleton-e" stroke="none" stroke-width="1" fill="none" fill-rule="evenodd">
      <path d="M130.294118,153.656031 L129.046078,153.982879 C120.638235,148.034241 118.79902,135.810117 116.697059,126.396887 C115.44902,120.578988 113.412745,114.957198 110.522549,109.662257 C109.734314,108.224125 102.705882,99.72607 111.048039,94.8233463 C119.32451,89.9206226 121.032353,105.870817 121.886275,108.681712 C123.528431,113.845914 125.039216,119.075486 126.484314,124.305058 C129.046078,133.32607 136.07451,144.765759 130.294118,153.656031 Z M115.186275,109.466148 C114.266667,110.90428 116.105882,116.133852 116.434314,117.702724 C117.156863,120.971206 118.142157,124.108949 119.390196,127.246693 C120.703922,130.580545 122.017647,133.849027 123.134314,137.313619 C124.053922,140.059144 124.645098,143.915953 126.090196,146.33463 L127.535294,147.119066 C128.126471,147.184436 128.651961,147.053696 129.177451,146.726848 C129.571569,139.601556 126.418627,133.652918 124.382353,127.050584 C123.331373,123.585992 122.083333,120.121401 121.032353,116.656809 C120.309804,114.434241 119.587255,108.550973 116.040196,108.877821 L115.186275,109.466148 Z" id="Shape" fill="#C8BEA0" fill-rule="nonzero"/>
      <path d="M105.727451,50.8949416 C107.172549,50.8949416 110.128431,54.4249027 111.245098,55.863035 C113.938235,67.0412451 115.97451,79.5268482 116.105882,81.9455253 C116.368627,86.0638132 117.419608,98.8762646 113.215686,101.360311 C111.179412,100.706615 111.507843,96.3922179 111.573529,94.692607 C112.09902,79.0692607 106.252941,57.4319066 105.596078,56.3859922 C104.939216,55.3400778 103.559804,54.8824903 102.902941,53.7058366 C102.57451,51.940856 104.545098,51.4178988 105.727451,50.8949416 Z" id="Shape" fill="#AAA082" fill-rule="nonzero"/>
      <path d="M116.697059,99.1377432 C117.091176,101.55642 115.646078,103.190661 113.544118,103.648249 C111.704902,104.040467 109.865686,102.929183 109.471569,101.098833 C109.471569,101.033463 109.471569,100.968093 109.405882,100.902724 C109.27451,99.6607004 109.734314,98.4840467 110.653922,97.6996109 C110.916667,97.5035019 111.179412,97.307393 111.442157,97.1766537 C111.836275,96.9805447 112.230392,96.8498054 112.62451,96.8498054 C113.806863,96.8498054 115.646078,96.9151751 116.697059,99.1377432 Z" id="Shape" fill="#AAA082" fill-rule="nonzero"/>
      <path d="M140.278431,153.85214 C139.621569,152.479377 138.176471,151.564202 136.665686,151.564202 C136.008824,151.564202 132.658824,152.348638 131.936275,153.85214 C130.622549,156.597665 132.461765,160.846693 134.826471,160.846693 C136.205882,160.846693 138.307843,160.258366 139.227451,158.820233 C140.147059,157.382101 140.081373,155.028794 140.278431,153.85214 Z" id="Shape" fill="#C8BEA0" fill-rule="nonzero"/>
      <path d="M139.161765,160.585214 L140.212745,162.023346 L143.168627,165.880156 C144.022549,166.99144 145.073529,167.971984 146.190196,168.82179 C147.17549,169.540856 147.832353,169.410117 148.751961,168.429572 C148.883333,168.037354 148.620588,167.710506 148.357843,167.449027 C147.372549,166.010895 146.190196,164.703502 144.810784,163.657588 C143.891176,163.003891 143.102941,162.219455 142.183333,161.565759 C141.723529,161.238911 141.263725,160.912062 140.738235,160.585214 C140.212745,160.258366 139.621569,160.258366 139.161765,160.585214 Z" id="Shape" fill="#C8BEA0" fill-rule="nonzero"/>
      <path d="M143.694118,170.390661 C143.3,168.560311 139.358824,163.003891 137.453922,161.500389 C137.256863,161.500389 137.059804,161.565759 136.862745,161.565759 C136.665686,161.631128 136.468627,161.761868 136.271569,161.892607 C136.337255,162.154086 136.402941,162.480934 136.468627,162.742412 C136.665686,163.13463 136.862745,163.461479 137.12549,163.788327 C138.045098,165.161089 138.89902,166.533852 139.818627,167.775875 C140.47549,168.560311 141.198039,169.344747 141.986275,169.998444 C142.511765,170.521401 143.168627,170.65214 143.694118,170.390661 Z" id="Shape" fill="#C8BEA0" fill-rule="nonzero"/>
      <path d="M141.00098,155.159533 L140.606863,156.466926 C141.460784,157.64358 142.446078,158.754864 143.562745,159.735409 C144.679412,160.715953 145.796078,161.827237 146.847059,162.938521 C147.569608,163.722957 148.489216,164.180545 149.540196,164.245914 C149.605882,163.984436 149.605882,163.722957 149.605882,163.396109 C149.47451,163.069261 149.277451,162.742412 149.014706,162.480934 C146.65,159.931518 144.022549,157.64358 141.395098,155.355642 C141.263725,155.224903 141.132353,155.224903 141.00098,155.159533 Z" id="Shape" fill="#C8BEA0" fill-rule="nonzero"/>
      <path d="M147.306863,155.290272 C147.372549,154.701946 147.109804,154.113619 146.65,153.78677 C146.058824,153.394553 145.533333,152.936965 144.942157,152.544747 C144.219608,152.08716 143.497059,151.760311 142.77451,151.368093 C141.986275,150.975875 141.132353,150.714397 140.278431,150.649027 C139.884314,150.649027 139.555882,150.649027 139.161765,150.714397 C139.227451,151.041245 139.293137,151.302724 139.490196,151.564202 C141.00098,153.263813 142.840196,154.701946 144.876471,155.74786 C145.664706,156.205447 146.715686,156.009339 147.306863,155.290272 Z" id="Shape" fill="#C8BEA0" fill-rule="nonzero"/>
      <path d="M117.156863,127.638911 C119.455882,128.750195 120.309804,131.038132 119.258824,133.195331 C118.470588,134.894942 116.171569,136.136965 114.266667,135.15642 C113.15,134.568093 112.493137,133.39144 112.427451,132.149416 C112.427451,131.822568 112.427451,131.49572 112.493137,131.168872 C112.558824,130.711284 112.755882,130.319066 113.018627,129.926848 C113.806863,128.880934 115.317647,127.050584 117.156863,127.638911 Z" id="Shape" fill="#AAA082" fill-rule="nonzero"/>
      <path d="M110.062745,132.345525 C110.719608,132.084047 111.442157,132.410895 111.704902,132.999222 C111.704902,132.999222 111.704902,133.064591 111.704902,133.064591 C111.967647,133.652918 111.639216,134.371984 111.048039,134.568093 C110.653922,134.698833 110.259804,134.568093 109.997059,134.306615 C109.8,134.110506 109.668627,133.914397 109.602941,133.718288 C109.602941,133.32607 109.537255,132.607004 110.062745,132.345525 Z" id="Shape" fill="#AAA082" fill-rule="nonzero"/>
      <path d="M111.770588,129.730739 C109.931373,131.691829 109.340196,132.280156 105.39902,130.188327 C102.311765,128.554086 99.6843137,124.239689 97.845098,121.363424 C95.8745098,118.42179 94.0352941,115.284047 90.5539216,114.172763 C86.8098039,112.996109 85.2990196,110.512062 85.1019608,107.374319 C84.9705882,105.740078 88.3862745,101.817899 93.05,102.602335 C97.2539216,103.321401 102.640196,108.550973 104.873529,111.165759 C108.289216,115.414786 113.609804,127.76965 111.770588,129.730739 Z" id="Shape" fill="#AAA082" fill-rule="nonzero"/>
      <path d="M91.9333333,105.086381 C94.0352941,105.543969 94.3637255,107.505058 93.6411765,109.1393 C93.05,110.512062 91.4078431,111.165759 90.0284314,110.577432 C89.9627451,110.577432 89.9627451,110.512062 89.8970588,110.512062 C89.0431373,109.989105 88.5176471,109.1393 88.4519608,108.158755 C88.4519608,107.897276 88.4519608,107.635798 88.5176471,107.374319 C88.5833333,107.047471 88.7147059,106.720623 88.8460784,106.459144 C89.3058824,105.674708 89.8313725,104.563424 91.9333333,105.086381 Z" id="Shape" fill="#DCD2B4" fill-rule="nonzero"/>
      <path d="M115.843137,178.954086 L114.398039,178.757977 C114.398039,178.757977 117.156863,136.659922 119.390196,135.483268 C120.441176,135.940856 121.557843,136.398444 121.886275,138.490272 C123.528431,148.687938 115.843137,178.954086 115.843137,178.954086 Z" id="Shape" fill="#AAA082" fill-rule="nonzero"/>
      <path d="M111.573529,135.940856 L112.361765,136.267704 C114.20098,142.150973 111.704902,153.067704 111.967647,159.147082 L112.755882,178.431128 L110.85098,178.888716 L109.208824,176.143191 C109.27451,176.143191 106.121569,139.078599 111.573529,135.940856 Z" id="Shape" fill="#AAA082" fill-rule="nonzero"/>
      <path d="M121.623529,178.16965 C121.623529,178.16965 112.62451,178.16965 111.967647,178.16965 C111.901961,178.365759 112.164706,175.097276 112.164706,175.097276 C111.179412,175.424125 110.259804,175.750973 109.340196,176.143191 L109.997059,179.346304 C111.179412,179.738521 112.427451,179.93463 113.67549,179.869261 C114.266667,180.130739 122.017647,179.411673 122.017647,179.411673 L121.623529,178.16965 Z" id="Shape" fill="#AAA082" fill-rule="nonzero"/>
      <path d="M42.2088235,60.2428016 C42.2088235,60.2428016 43.7196078,83.9066148 49.6970588,84.8871595 L54.5578431,83.6451362 L51.7990196,61.1579767 L42.2088235,60.2428016 Z" id="Shape" fill="#C8BEA0" fill-rule="nonzero"/>
      <path d="M88.5176471,62.2692607 L87.8607843,84.1680934 L95.2833333,84.8871595 C95.2833333,84.8871595 101.260784,67.7603113 97.9107843,61.3540856 L88.5176471,62.2692607 Z" id="Shape" fill="#AAA082" fill-rule="nonzero"/>
      <path d="M96.2029412,52.8560311 C95.8745098,53.1175097 92.2617647,52.8560311 89.4372549,54.2941634 C88.0578431,57.8241245 93.8382353,59.8505837 96.2029412,59.3929961 C98.5676471,58.9354086 100.603922,57.7587549 100.669608,56.4513619 C100.80098,55.0132296 98.5676471,53.444358 96.2029412,52.8560311 Z" id="Shape" fill="#C8BEA0" fill-rule="nonzero"/>
      <path d="M83.1970588,110.250584 C82.8029412,114.891829 76.3656863,114.107393 73.0156863,114.107393 C69.4029412,114.107393 64.2137255,114.172763 61.2578431,111.688716 C57.9078431,108.812451 60.7323529,104.105837 58.104902,100.968093 C55.0833333,97.3727626 50.222549,99.7914397 46.5441176,98.8762646 C46.2156863,92.9276265 61.1264706,96.1961089 64.2794118,96.3922179 C71.2421569,96.7190661 78.1392157,96.0653696 85.0362745,95.4116732 C87.5980392,95.1501946 91.0137255,94.4311284 93.5098039,95.0848249 C96.0058824,95.7385214 97.9107843,99.2031128 94.6921569,100.575875 C92.7872549,101.360311 89.3715686,99.5953307 87.1382353,99.9875486 C83.3284314,100.641245 83.1313725,103.059922 83.1970588,110.250584 Z M64.6078431,101.55642 C64.2137255,102.733074 64.5421569,106.982101 66.1843137,108.420233 C67.1696078,109.270039 69.1401961,109.335409 70.8480392,109.662257 C74.4607843,110.250584 76.8254902,109.727626 77.6137255,106.785992 C78.1392157,104.824903 77.9421569,104.171206 78.0078431,101.948638 C78.0735294,99.72607 75.6431373,99.922179 74.7892157,100.249027 C73.9352941,100.575875 74.6578431,101.948638 73.8039216,102.602335 C73.1470588,103.059922 70.1254902,103.51751 69.2715686,102.602335 C68.4176471,101.68716 69.3372549,100.837354 67.695098,100.445136 C66.0529412,100.052918 65.0019608,100.379767 64.6078431,101.55642 Z" id="Shape" fill="#DCD2B4" fill-rule="nonzero"/>
      <path d="M63.0970588,96.3922179 C63.2284314,95.3463035 63.5568627,94.692607 64.1480392,94.4964981 C64.6735294,94.3003891 65.1990196,94.1696498 65.7901961,94.1042802 C67.3666667,93.9081712 69.0088235,94.1042802 70.5852941,94.0389105 C72.0303922,93.9735409 73.4754902,93.9735409 74.9862745,93.9735409 L75.7088235,93.9735409 C76.5627451,95.3463035 76.0372549,97.4381323 75.3147059,97.9610895 C75.1833333,98.0918288 74.9862745,98.1571984 74.7892157,98.2225681 C73.8039216,98.5494163 72.7529412,98.7455253 71.7676471,98.6801556 C69.9284314,98.7455253 68.0892157,98.6801556 66.1843137,98.5494163 C65.5931373,98.5494163 65.0019608,98.4840467 64.4107843,98.2879377 C63.6882353,98.0264591 63.2941176,97.5688716 63.0970588,96.3922179 Z" id="Shape" fill="#DCD2B4" fill-rule="nonzero"/>
      <path d="M63.2941176,54.6210117 C63.5568627,53.5750973 63.9509804,52.9867704 64.5421569,52.9214008 C65.0676471,52.7906615 65.6588235,52.7252918 66.1843137,52.7252918 C67.7607843,52.7252918 69.3372549,53.1828794 70.9137255,53.3136187 C72.3588235,53.444358 73.8039216,53.6404669 75.2490196,53.7712062 L75.9715686,53.8365759 C76.6284314,55.3400778 75.9058824,57.3011673 75.0519608,57.7587549 C74.854902,57.8241245 74.7235294,57.8894942 74.5264706,57.9548638 C73.5411765,58.1509728 72.4901961,58.2163424 71.4392157,58.0202335 C69.6,57.8241245 67.7607843,57.5626459 65.9215686,57.2357977 C65.3303922,57.170428 64.7392157,56.9743191 64.2137255,56.7128405 C63.6882353,56.3206226 63.2941176,55.7976654 63.2941176,54.6210117 Z" id="Shape" fill="#DCD2B4" fill-rule="nonzero"/>
      <path d="M40.2382353,62.9883268 C39.9098039,61.6809339 40.1068627,60.3081712 40.7637255,59.1315175 C42.9970588,56.8435798 50.6166667,58.7392996 53.3098039,59.0007782 C57.3823529,59.3276265 61.454902,59.8505837 65.527451,60.6350195 C65.9215686,61.0272374 66.0529412,61.6155642 65.8558824,62.1385214 C62.8343137,64.0996109 57.5794118,63.707393 54.0323529,63.9035019 C50.222549,64.0996109 43.3911765,65.6684825 40.2382353,62.9883268 Z" id="Shape" fill="#DCD2B4" fill-rule="nonzero"/>
      <path d="M41.6833333,71.2902724 C41.0921569,69.9828794 40.7637255,68.8062257 41.4205882,67.4988327 C48.3833333,66.12607 57.0539216,65.4070039 64.1480392,66.12607 C65.1990196,67.433463 65.2647059,67.629572 65.1990196,68.8062257 C58.3019608,72.2708171 49.0401961,73.7743191 41.6833333,71.2902724 Z" id="Shape" fill="#DCD2B4" fill-rule="nonzero"/>
      <path d="M44.5078431,77.5657588 C48.6460784,76.4544747 52.7843137,75.6700389 57.0539216,75.1470817 C59.2215686,74.8202335 64.6078431,72.5322957 66.4470588,74.1011673 C66.7754902,76.6505837 54.6892157,79.9190661 52.9156863,80.507393 C51.1421569,81.0957198 47.3323529,82.2723735 45.4931373,81.6840467 C43.2598039,80.9649805 43.9823529,79.4614786 44.5078431,77.5657588 Z" id="Shape" fill="#DCD2B4" fill-rule="nonzero"/>
      <path d="M47.595098,86.1945525 C50.6166667,84.3642023 54.4921569,83.7105058 57.8421569,82.4684825 C60.7323529,81.4225681 63.8196078,79.5922179 66.972549,79.7229572 C65.7245098,82.92607 48.6460784,91.2280156 47.595098,86.1945525 Z" id="Shape" fill="#DCD2B4" fill-rule="nonzero"/>
      <path d="M43.3911765,60.4389105 L40.172549,62.4 C40.172549,62.4 42.1431373,82.6645914 47.9892157,86.7828794 L50.5509804,87.1097276 C48.3833333,81.7494163 46.5441176,76.2583658 44.9676471,70.7019455 C44.1794118,67.3027237 43.6539216,63.9035019 43.3911765,60.4389105 Z" id="Shape" fill="#DCD2B4" fill-rule="nonzero"/>
      <path d="M77.2852941,70.1789883 L76.5627451,68.8715953 C76.6941176,68.4140078 76.8911765,67.9564202 77.0882353,67.4988327 C79.5186275,65.6031128 86.35,67.433463 89.1745098,67.629572 C92.327451,67.8256809 95.3490196,67.9564202 98.4362745,68.740856 C99.027451,69.6560311 99.3558824,70.7019455 99.4872549,71.8132296 C98.1078431,75.0163424 91.6705882,73.3167315 89.1088235,73.0552529 C85.0362745,72.7284047 81.095098,71.7478599 77.2852941,70.1789883 Z" id="Shape" fill="#DCD2B4" fill-rule="nonzero"/>
      <path d="M76.9568627,62.4 C77.8764706,59.1968872 84.1166667,60.3735409 86.4156863,60.4389105 C90.3568627,60.5696498 94.2323529,60.6350195 98.1735294,60.7657588 C102.114706,64.9494163 91.5392157,65.0801556 90.2254902,65.0801556 C87.6637255,65.014786 77.5480392,66.12607 76.9568627,62.4 Z" id="Shape" fill="#DCD2B4" fill-rule="nonzero"/>
      <path d="M78.3362745,74.2972763 C85.0362745,74.8202335 91.9990196,76.7159533 98.6333333,78.1540856 L99.2901961,79.1346304 C99.3558824,79.9844358 99.1588235,80.8342412 98.7647059,81.618677 C96.3343137,81.8801556 76.0372549,77.2389105 78.3362745,74.2972763 Z" id="Shape" fill="#DCD2B4" fill-rule="nonzero"/>
      <path d="M78.5990196,81.2918288 C79.2558824,78.4155642 94.2323529,84.429572 96.5970588,85.2140078 L97.0568627,86.5214008 C95.9401961,90.8357977 80.372549,83.9719844 78.5990196,81.2918288 Z" id="Shape" fill="#DCD2B4" fill-rule="nonzero"/>
      <path d="M93.4441176,87.3058366 L96.4656863,87.3712062 C96.4656863,87.3712062 98.5676471,85.0832685 99.6843137,79.5922179 C100.80098,73.8396887 100.472549,64.4264591 98.5676471,61.4848249 L95.4803922,61.4194553 C96.3343137,62.9229572 96.9254902,64.6225681 97.122549,66.322179 C97.5166667,68.6101167 97.1882353,71.4863813 96.8598039,74.8856031 C96.4656863,78.8731518 93.8382353,85.8023346 93.4441176,87.3058366 Z" id="Shape" fill="#DCD2B4" fill-rule="nonzero"/>
      <path d="M71.504902,61.7463035 C70.8480392,66.1914397 70.3882353,70.7019455 70.1911765,75.2124514 C69.9941176,78.0233463 69.9284314,80.8342412 69.7313725,83.6451362 C69.5343137,85.8677043 69.0745098,88.4824903 69.6656863,90.5089494 C70.3882353,91.0319066 70.9137255,90.770428 71.6362745,89.5937743 C72.95,80.7035019 73.1470588,71.0287938 73.1470588,61.9424125 L71.504902,61.7463035 Z" id="Shape" fill="#C8BEA0" fill-rule="nonzero"/>
      <path d="M65.6588235,89.5284047 C66.25,85.9330739 72.2931373,87.8941634 74.7892157,88.2210117 C76.9568627,94.692607 65.7245098,93.4505837 65.6588235,89.5284047 Z" id="Shape" fill="#C8BEA0" fill-rule="nonzero"/>
      <path d="M67.1039216,82.3377432 C67.6294118,78.7424125 72.95,80.7035019 75.1833333,81.0303502 C77.022549,87.5019455 67.1039216,86.2599222 67.1039216,82.3377432 Z" id="Shape" fill="#C8BEA0" fill-rule="nonzero"/>
      <path d="M68.2205882,75.8661479 C68.7460784,72.2708171 73.8039216,72.3361868 74.854902,75.2124514 C76.5627451,79.7229572 68.2862745,79.7883268 68.2205882,75.8661479 Z" id="Shape" fill="#C8BEA0" fill-rule="nonzero"/>
      <path d="M68.0235294,68.936965 C68.5490196,65.3416342 73.6068627,65.4070039 74.6578431,68.2832685 C76.3656863,72.7937743 68.0235294,72.859144 68.0235294,68.936965 Z" id="Shape" fill="#C8BEA0" fill-rule="nonzero"/>
      <path d="M68.9431373,62.8575875 C69.4029412,59.981323 73.4754902,60.0466926 74.3294118,62.3346304 C75.7088235,65.9953307 69.0088235,66.0607004 68.9431373,62.8575875 Z" id="Shape" fill="#C8BEA0" fill-rule="nonzero"/>
      <path d="M71.8990196,89.659144 C71.9647059,90.3782101 71.504902,90.966537 70.7823529,91.0972763 C70.7823529,91.0972763 70.7166667,91.0972763 70.7166667,91.0972763 C70.0598039,91.1626459 69.4686275,90.7050584 69.4029412,90.0513619 C69.4029412,89.659144 69.6,89.2669261 69.9284314,89.0708171 C69.9941176,89.0054475 70.1254902,89.0054475 70.1911765,88.9400778 C70.322549,88.8747082 70.4539216,88.8747082 70.5852941,88.8747082 C71.045098,88.9400778 71.7676471,89.0708171 71.8990196,89.659144 Z" id="Shape" fill="#DCD2B4" fill-rule="nonzero"/>
      <path d="M72.4901961,82.4684825 C72.5558824,83.1875486 72.0960784,83.7758755 71.4392157,83.9066148 C71.4392157,83.9066148 71.3735294,83.9066148 71.3735294,83.9066148 C70.7166667,83.9719844 70.1254902,83.5143969 70.0598039,82.8607004 C70.0598039,82.4684825 70.2568627,82.1416342 70.5852941,81.9455253 C70.6509804,81.8801556 70.7823529,81.8801556 70.8480392,81.814786 C70.9794118,81.7494163 71.1107843,81.7494163 71.2421569,81.7494163 C71.6362745,81.7494163 72.3588235,81.8801556 72.4901961,82.4684825 Z" id="Shape" fill="#DCD2B4" fill-rule="nonzero"/>
      <path d="M72.95,75.6700389 C73.0156863,76.3891051 72.5558824,76.9774319 71.8990196,77.1081712 C71.8990196,77.1081712 71.8333333,77.1081712 71.8333333,77.1081712 C71.1764706,77.1735409 70.5852941,76.7159533 70.5196078,76.0622568 C70.5196078,75.6700389 70.7166667,75.277821 71.045098,75.0817121 C71.1107843,75.0163424 71.2421569,75.0163424 71.3078431,74.9509728 C71.4392157,74.8856031 71.5705882,74.8856031 71.7019608,74.8856031 C72.0960784,74.8856031 72.8186275,75.0163424 72.95,75.6700389 Z" id="Shape" fill="#DCD2B4" fill-rule="nonzero"/>
      <path d="M73.0156863,68.6754864 C73.0813725,69.3945525 72.6215686,69.9828794 71.8990196,70.1136187 C71.8990196,70.1136187 71.8333333,70.1136187 71.8333333,70.1136187 C71.1764706,70.1789883 70.5852941,69.7214008 70.5196078,69.0677043 C70.5196078,68.6754864 70.7166667,68.2832685 71.045098,68.0871595 C71.1107843,68.0217899 71.2421569,68.0217899 71.3078431,67.9564202 C71.4392157,67.8910506 71.5705882,67.8910506 71.7019608,67.8910506 C72.1617647,67.9564202 72.8843137,68.0871595 73.0156863,68.6754864 Z" id="Shape" fill="#DCD2B4" fill-rule="nonzero"/>
      <path d="M73.2127451,62.6614786 C73.2784314,63.3805447 72.8186275,63.9688716 72.1617647,64.0996109 C72.1617647,64.0996109 72.0960784,64.0996109 72.0960784,64.0996109 C71.4392157,64.1649805 70.8480392,63.707393 70.7823529,63.0536965 C70.7823529,62.6614786 70.9794118,62.2692607 71.3078431,62.0731518 C71.3735294,62.0077821 71.504902,62.0077821 71.5705882,61.9424125 C71.7019608,61.8770428 71.8333333,61.8770428 71.9647059,61.8770428 C72.3588235,61.9424125 73.0813725,62.0731518 73.2127451,62.6614786 Z" id="Shape" fill="#DCD2B4" fill-rule="nonzero"/>
      <path d="M47.595098,139.470817 C47.3980392,140.124514 47.8578431,140.84358 48.5147059,140.974319 C48.5147059,140.974319 48.5803922,140.974319 48.5803922,140.974319 C49.2372549,141.105058 49.8284314,140.71284 49.9598039,140.059144 C50.0254902,139.536187 49.6970588,139.078599 49.2372549,138.88249 C49.1058824,138.817121 48.9745098,138.817121 48.8431373,138.817121 C48.5803922,138.88249 47.7921569,138.94786 47.595098,139.470817 Z" id="Shape" fill="#C8BEA0" fill-rule="nonzero"/>
      <path d="M56.3313725,102.994553 C53.572549,100.706615 48.777451,101.098833 46.2156863,103.648249 C43.9823529,105.805447 44.704902,111.361868 47.595098,112.146304 C50.8137255,113.715175 49.8284314,116.199222 49.3029412,119.140856 C48.7117647,122.343969 48.7117647,125.612451 48.3833333,128.880934 C48.1205882,131.364981 47.595098,134.502724 48.5803922,136.921401 C49.2372549,138.621012 50.6823529,139.209339 52.3245098,139.274708 C52.7186275,139.274708 55.1490196,138.098054 56.5941176,135.28716 C58.7617647,130.972763 60.0754902,123.97821 60.1411765,120.905837 C60.1411765,114.303502 59.0901961,105.217121 56.3313725,102.994553 Z" id="Shape" fill="#C8BEA0" fill-rule="nonzero"/>
      <path d="M48.6460784,105.740078 C47.9892157,107.635798 48.5803922,109.335409 50.222549,109.989105 C51.6019608,110.577432 53.2441176,109.923735 53.8352941,108.550973 C53.8352941,108.485603 53.9009804,108.485603 53.9009804,108.420233 C54.1637255,107.505058 53.9666667,106.459144 53.3098039,105.674708 C53.1784314,105.478599 52.9813725,105.28249 52.7843137,105.151751 C52.5215686,104.955642 52.1931373,104.824903 51.8647059,104.694163 C50.8137255,104.432685 49.1058824,104.759533 48.6460784,105.740078 Z" id="Shape" fill="#F0E6D2" fill-rule="nonzero"/>
      <path d="M56.2656863,145.550195 C56.2656863,145.354086 56.3313725,145.027237 56.3313725,144.765759 C56.3970588,142.347082 55.6088235,141.431907 53.1127451,140.84358 C51.9303922,140.582101 50.7480392,140.77821 49.7627451,141.497276 C47.8578431,143.196887 49.2372549,146.4 51.4705882,146.922957 L53.1784314,147.315175 C54.3607843,147.119066 55.5431373,146.792218 56.2656863,145.550195 Z" id="Shape" fill="#C8BEA0" fill-rule="nonzero"/>
      <path d="M51.9960784,150.910506 C52.2588235,150.19144 52.5872549,149.668482 52.3245098,149.080156 C51.8647059,148.557198 51.2735294,148.622568 50.6166667,148.491829 C40.4352941,153.656031 28.4147059,164.768872 19.4813725,171.828794 L20.4009804,172.61323 C24.9990196,171.044358 33.5382353,163.722957 37.4137255,160.846693 C42.9970588,156.793774 46.6754902,155.551751 51.9960784,150.910506 Z" id="Shape" fill="#C8BEA0" fill-rule="nonzero"/>
      <path d="M22.2401961,173.985992 C22.7656863,174.508949 23.8823529,175.358755 24.0137255,176.143191 L23.5539216,176.404669 C21.977451,176.012451 20.072549,173.920623 18.8245098,172.940078 C17.3794118,171.763424 16.4598039,170.71751 16.5911765,170.259922 C16.9196078,169.540856 17.445098,169.017899 18.1676471,168.75642 C18.0362745,168.82179 19.35,171.175097 19.35,171.175097 C19.35,171.175097 22.1088235,173.855253 22.2401961,173.985992 Z" id="Shape" fill="#C8BEA0" fill-rule="nonzero"/>
      <path d="M46.3470588,143.654475 C45.5588235,142.412451 41.0264706,147.053696 38.8588235,149.014786 C36.2970588,151.237354 35.9686275,150.975875 33.5382353,153.329183 C30.9764706,155.81323 18.1676471,168.82179 18.1676471,168.82179 L17.6421569,170.848249 L18.8245098,171.763424 L44.4421569,147.707393 C44.5078431,147.707393 47.1352941,144.896498 46.3470588,143.654475 Z" id="Shape" fill="#C8BEA0" fill-rule="nonzero"/>
      <path d="M87.1382353,43.8350195 C88.977451,43.8350195 92.4588235,43.2466926 94.2980392,43.2466926 C94.3637255,43.6389105 94.6264706,50.5680934 92.2617647,51.2871595 C91.5392157,51.940856 89.8313725,51.2217899 88.977451,51.0256809 C87.5980392,49.9143969 86.8098039,45.8614786 87.1382353,43.8350195 Z" id="Shape" fill="#C8BEA0" fill-rule="nonzero"/>
      <path d="M76.6284314,49.6529183 C75.7745098,48.6070039 75.8401961,42.5929961 75.9715686,41.4163424 C77.0882353,41.5470817 80.6352941,44.5540856 81.4892157,44.8809339 C81.8833333,45.4692607 81.4892157,49.5875486 81.1607843,50.0451362 C79.1901961,50.633463 78.2705882,50.5680934 76.6284314,49.6529183 Z" id="Shape" fill="#F0E6D2" fill-rule="nonzero"/>
      <path d="M95.2833333,44.8155642 C95.0862745,46.4498054 95.0862745,48.0840467 95.2833333,49.6529183 C96.7941176,50.4373541 97.5823529,50.5027237 98.9617647,49.7836576 C99.3558824,49.2607004 99.6843137,43.1159533 99.75,40.8933852 L95.2833333,44.8155642 Z" id="Shape" fill="#AAA082" fill-rule="nonzero"/>
      <path d="M86.9411765,45.2731518 C87.3352941,45.9922179 86.5470588,49.7182879 86.2843137,50.3719844 C86.0215686,51.2217899 85.1019608,51.7447471 84.1823529,51.4832685 C84.0509804,51.4178988 83.9196078,51.3525292 83.722549,51.2871595 C83.5911765,51.2217899 83.4598039,51.0910506 83.3284314,51.0256809 C82.8686275,49.9797665 82.0803922,45.4038911 82.4745098,44.4233463 C83.4598039,44.0964981 86.0215686,44.9463035 86.9411765,45.2731518 Z" id="Shape" fill="#F0E6D2" fill-rule="nonzero"/>
      <path d="M96.4656863,16.5758755 C92.4588235,14.0264591 87.1382353,13.6342412 82.5401961,12.8498054 C75.6431373,11.6731518 57.8421569,14.7455253 53.1127451,21.5439689 C50.945098,24.6163424 50.6166667,30.1727626 52.5872549,33.3758755 C55.0176471,37.2980545 59.1558824,38.6054475 63.4254902,39.4552529 C68.7460784,40.5011673 72.6872549,39.8474708 76.1029412,44.5540856 C77.8764706,47.0381323 80.5039216,48.0840467 83.3284314,48.3455253 C84.9705882,48.4762646 91.145098,48.4762646 92.5245098,48.1494163 C95.677451,47.4303502 98.3705882,45.3385214 99.8156863,42.4622568 C106.45,28.7346304 100.209804,18.9291829 96.4656863,16.5758755 Z" id="Shape" fill="#DCD2B4" fill-rule="nonzero"/>
      <path d="M93.6411765,28.8653696 C92.8529412,28.8 92.1303922,29.2575875 91.9333333,29.9766537 C91.3421569,31.1533074 90.9480392,32.4607004 90.6852941,33.7027237 C90.4882353,35.0754864 90.0941176,36.3828794 89.7656863,37.6902724 C89.5686275,38.6054475 89.0431373,40.566537 90.6196078,40.566537 C92.1960784,40.566537 92.5245098,38.4747082 93.5098039,38.3439689 C94.495098,38.2132296 94.2980392,39.7167315 95.7431373,40.566537 C97.1882353,41.4163424 97.3196078,40.1089494 97.4509804,39.8474708 C97.7137255,36.9712062 96.2029412,29.2575875 93.6411765,28.8653696 Z" id="Shape" fill="#C8BEA0" fill-rule="nonzero"/>
      <path d="M86.6127451,28.2770428 C88.6490196,31.5455253 86.4156863,35.336965 83,36.644358 C80.2411765,37.6902724 76.3656863,36.5789883 75.3803922,33.1143969 C74.854902,31.2840467 75.3803922,28.7346304 76.6941176,27.4272374 C77.022549,27.0350195 77.4166667,26.6428016 77.8764706,26.381323 C78.4676471,25.9891051 79.1245098,25.6622568 79.7813725,25.5315175 C81.6862745,25.1392996 84.5764706,25.0085603 86.6127451,28.2770428 Z" id="Shape" fill="#FFFFFF" fill-rule="nonzero"/>
      <path d="M84.3137255,29.7805447 C84.8392157,29.9766537 85.1676471,30.4342412 85.2333333,30.9571984 C85.1019608,31.6762646 85.0362745,32.5914397 83.9196078,32.722179 C83.1313725,32.1992218 83.3284314,31.414786 83.3941176,30.6957198 C83.3941176,30.1727626 83.7882353,29.7805447 84.3137255,29.7805447 Z" id="Shape" fill="#000000" fill-rule="nonzero"/>
      <path d="M110.588235,28.2770428 C112.62451,31.5455253 110.391176,35.336965 106.97549,36.644358 C104.216667,37.6902724 100.341176,36.5789883 99.3558824,33.1143969 C98.8303922,31.2840467 99.3558824,28.7346304 100.669608,27.4272374 C100.998039,27.0350195 101.392157,26.6428016 101.851961,26.381323 C102.443137,25.9891051 103.1,25.6622568 103.756863,25.5315175 C105.596078,25.1392996 108.551961,25.0085603 110.588235,28.2770428 Z" id="Shape" fill="#FFFFFF" fill-rule="nonzero"/>
      <path d="M107.238235,29.7805447 C107.763725,29.9766537 108.092157,30.4342412 108.157843,30.9571984 C108.026471,31.6762646 107.960784,32.5914397 106.844118,32.6568093 C105.990196,32.1338521 106.252941,31.3494163 106.318627,30.6303502 C106.318627,30.1727626 106.712745,29.7805447 107.238235,29.7805447 Z" id="Shape" fill="#000000" fill-rule="nonzero"/>
      <path d="M41.6176471,55.863035 C41.354902,55.6015564 37.7421569,55.0785992 35.2460784,53.1828794 C34.5235294,49.4568093 40.5666667,48.5416342 42.8656863,49.3914397 C45.1647059,50.2412451 46.872549,51.8101167 46.6754902,53.1175097 C46.4784314,54.6210117 44.0480392,55.7976654 41.6176471,55.863035 Z" id="Shape" fill="#DCD2B4" fill-rule="nonzero"/>
      <path d="M41.6833333,150.975875 C37.2166667,149.145525 36.6911765,144.373541 35.2460784,140.059144 C33.7352941,135.28716 32.6843137,130.319066 32.2245098,125.350973 C31.7647059,120.840467 31.304902,116.4607 30.4509804,112.015564 C30.0568627,109.792996 29.7941176,107.374319 28.677451,105.34786 C27.495098,103.256031 22.7656863,96.0653696 30.1882353,92.8622568 C37.6107843,89.659144 36.6911765,105.674708 36.822549,107.439689 C37.3480392,112.73463 38.9245098,118.291051 39.9098039,123.585992 C40.8294118,128.750195 42.8656863,133.652918 43.9823529,138.751751 C45.0990196,143.785214 46.6754902,148.164981 41.6833333,150.975875 Z M32.027451,102.863813 C30.122549,104.236576 31.5019608,111.100389 31.7647059,113.192218 C32.2901961,116.983658 33.1441176,120.709728 33.9323529,124.435798 C34.5892157,127.573541 35.1147059,130.776654 35.6401961,133.979767 C36.1656863,136.790661 36.3627451,142.60856 39.1215686,144.308171 L41.4205882,144.046693 C42.4058824,140.974319 40.5009804,136.856031 39.9098039,133.783658 C39.2529412,130.122957 38.7931373,126.331518 38.1362745,122.670817 C37.545098,119.467704 35.5088235,102.602335 32.027451,102.863813 Z" id="Shape" fill="#DCD2B4" fill-rule="nonzero"/>
      <path d="M31.1078431,97.6342412 L30.3196078,97.5688716 C28.0205882,92.3392996 30.122549,84.8217899 30.845098,79.4614786 C31.3705882,75.5392996 31.8303922,71.6171206 32.3558824,67.6949416 C32.75,64.818677 33.2754902,60.5696498 34.9176471,58.0202335 C35.377451,57.366537 37.8735294,55.3400778 38.0705882,57.4972763 C38.6617647,64.8840467 35.3117647,88.2863813 31.1078431,97.6342412 Z" id="Shape" fill="#C8BEA0" fill-rule="nonzero"/>
      <path d="M33.2098039,95.5424125 C34.0637255,97.1766537 33.472549,99.2684825 31.8960784,100.183658 C30.5823529,100.902724 28.8745098,100.379767 28.1519608,99.0723735 C28.1519608,99.0070039 28.0862745,99.0070039 28.0862745,98.9416342 C27.6921569,98.0264591 27.8235294,96.9805447 28.4147059,96.1961089 C28.5460784,96 28.7431373,95.8038911 28.9401961,95.6077821 C29.2029412,95.4116732 29.4656863,95.2155642 29.7941176,95.0848249 C30.9107843,94.888716 32.0931373,95.0194553 33.2098039,95.5424125 Z" id="Shape" fill="#C8BEA0" fill-rule="nonzero"/>
      <path d="M40.5666667,158.885603 C40.0411765,157.970428 39.7784314,156.989883 39.7784314,155.943969 C39.7784314,154.767315 40.2382353,153.656031 41.0921569,152.806226 C41.7490196,152.08716 42.7343137,152.02179 43.6539216,151.95642 C43.9823529,151.95642 44.3107843,152.152529 44.5078431,152.348638 C45.0990196,153.002335 45.6901961,153.656031 46.15,154.375097 C46.872549,155.74786 46.7411765,157.447471 45.7558824,158.689494 C45.6901961,158.754864 45.5588235,158.885603 45.4931373,158.950973 C44.5078431,159.47393 43.4568627,159.866148 42.3401961,160.062257 C41.5519608,160.127626 41.0264706,159.735409 40.5666667,158.885603 Z" id="Shape" fill="#AAA082" fill-rule="nonzero"/>
      <path d="M56.0029412,168.952529 L54.6235294,169.606226 C54.0980392,169.475486 53.572549,169.148638 53.2441176,168.691051 C51.7990196,166.795331 50.3539216,164.964981 48.9088235,163.13463 C48.2519608,162.350195 47.7264706,161.435019 47.2666667,160.519844 C47.0039216,160.127626 46.9382353,159.604669 47.1352941,159.147082 C47.4637255,158.820233 47.7264706,158.950973 48.054902,159.081712 C49.0401961,159.47393 49.8941176,160.127626 50.6166667,160.977432 C51.4705882,162.154086 52.5215686,163.13463 53.4411765,164.311284 C54.1637255,165.357198 54.8862745,166.468482 55.477451,167.579767 C55.7401961,167.971984 55.8715686,168.429572 56.0029412,168.952529 Z" id="Shape" fill="#C8BEA0" fill-rule="nonzero"/>
      <path d="M52.2588235,173.005447 C51.5362745,173.005447 50.8137255,172.678599 50.4852941,172.024903 C49.9598039,171.305837 49.4343137,170.521401 48.8431373,169.802335 C47.6607843,168.233463 46.5441176,166.664591 45.5588235,164.964981 C45.1647059,164.180545 44.7705882,163.396109 44.3764706,162.611673 C44.0480392,162.154086 44.1137255,161.500389 44.5735294,161.108171 C44.704902,161.173541 44.9019608,161.238911 44.9676471,161.36965 C45.2960784,161.827237 45.7558824,162.219455 46.2813725,162.480934 C46.4784314,162.611673 46.6754902,162.807782 46.8068627,163.003891 C47.9892157,164.572763 49.4343137,166.010895 50.4852941,167.710506 C51.1421569,168.75642 51.7333333,169.867704 52.127451,171.044358 C52.4558824,171.632685 52.5215686,172.351751 52.2588235,173.005447 Z" id="Shape" fill="#C8BEA0" fill-rule="nonzero"/>
      <path d="M48.3176471,172.155642 C46.2156863,170.913619 42.2088235,164.768872 41.8147059,162.284825 C42.5372549,162.284825 43.1941176,162.677043 43.522549,163.330739 C44.3107843,164.572763 45.0333333,165.814786 45.8215686,166.99144 C46.2813725,167.710506 46.7411765,168.429572 47.2666667,169.148638 C47.9892157,169.998444 48.3833333,171.044358 48.3176471,172.155642 Z" id="Shape" fill="#C8BEA0" fill-rule="nonzero"/>
      <path d="M54.295098,157.774319 C53.572549,157.970428 52.7843137,157.839689 52.1931373,157.382101 C51.8647059,157.185992 51.5362745,156.989883 51.2735294,156.728405 C49.6970588,155.290272 48.054902,153.982879 46.2813725,152.806226 C46.15,152.675486 46.0186275,152.544747 45.8872549,152.414008 C46.0843137,152.217899 46.2813725,152.08716 46.4784314,151.95642 C47.3323529,151.629572 48.3176471,151.629572 49.1715686,152.02179 C50.8794118,153.002335 52.7186275,153.85214 54.1637255,155.290272 C55.0833333,156.205447 55.0833333,156.597665 54.295098,157.774319 Z" id="Shape" fill="#C8BEA0" fill-rule="nonzero"/>
    </g>
  </g>
</svg>