<svg version="1.1" width="83" height="96" viewBox="-1 -1 83 96" xmlns="http://www.w3.org/2000/svg" xmlns:xlink="http://www.w3.org/1999/xlink">
  <!-- Exported by Scratch - http://scratch.mit.edu/ -->
  <path id="Shape" fill="#000000" stroke="none" stroke-width="1" d="M 61.390 36.304 C 59.615 31.825 57.119 32.775 55.358 29.412 C 53.231 25.197 51.771 20.673 51.030 16.003 L 27.752 16.003 C 27.582 19.489 25.835 22.942 22.073 26.652 C 12.409 36.152 15.950 48.322 14.797 49.880 C 14.928 50.459 23.090 55.105 23.537 55.475 L 59.714 48.645 C 61.037 48.322 63.166 40.783 61.390 36.304 Z "/>
  <path id="Shape" fill="#BE8264" stroke="none" stroke-width="1" d="M 27.568 22.444 C 28.232 17.404 26.429 9.994 30.535 6.294 C 34.397 2.803 39.455 1.805 43.721 3.962 C 47.818 6.028 50.060 6.783 50.244 16.373 C 50.309 19.803 48.506 25.261 45.115 26.994 C 39.045 30.101 29.433 27.298 27.568 22.444 Z "/>
  <path id="Shape" fill="#000000" stroke="none" stroke-width="1" d="M 28.044 12.849 C 28.044 12.849 39.064 11.034 42.539 4.513 C 42.539 4.513 34.872 -0.560 30.917 4.270 C 26.961 9.101 28.044 12.849 28.044 12.849 Z "/>
  <path id="Shape" fill="#F01446" stroke="none" stroke-width="1" d="M 49.631 5.296 C 45.935 1.021 39.271 -0.974 33.116 1.183 C 28.628 2.750 25.477 7.163 25.152 15.765 C 24.827 24.367 31.001 28.058 33.733 29.184 C 37.218 30.609 41.663 30.514 45.167 29.184 C 48.025 28.106 50.408 24.985 51.383 22.059 C 51.940 19.549 52.187 16.978 52.118 14.407 C 51.929 10.146 50.964 6.840 49.631 5.296 Z M 43.895 24.771 C 38.988 27.284 31.411 25.607 29.833 20.069 C 28.256 14.530 28.929 10.393 32.240 7.401 C 35.357 4.584 39.304 4.446 42.770 6.189 C 46.066 7.856 47.884 8.464 48.035 16.202 C 48.087 18.967 46.622 23.375 43.895 24.771 Z "/>
  <path id="Shape" fill="#A06446" stroke="none" stroke-width="1" d="M 37.284 20.458 C 36.680 14.127 38.148 15.452 39.438 15.599 C 40.124 16.863 40.206 18.544 40.084 20.458 C 39.880 20.605 39.693 20.867 39.515 20.848 C 38.763 20.762 38.011 20.591 37.284 20.458 Z "/>
  <path id="Shape" fill="#000000" stroke="none" stroke-width="1" d="M 33.549 15.046 C 34.384 14.992 35.159 15.329 35.389 15.845 C 35.625 16.263 35.743 16.706 35.738 17.151 C 35.676 17.428 35.431 17.675 35.066 17.829 C 34.601 17.954 34.106 18.029 33.603 18.053 C 32.488 17.182 32.465 15.933 33.549 15.046 Z "/>
  <path id="Shape" fill="#000000" stroke="none" stroke-width="1" d="M 46 14.800 C 46.496 14.830 47.067 15.186 47.300 15.650 L 47.200 17.454 L 45.350 17.500 C 44.759 17.506 44.533 16.180 44.700 15.500 C 44.815 15.034 45.509 14.773 46 14.800 Z " transform="matrix(1, 0, 0, 1, -1.15, 0)"/>
  <path id="Shape" fill="#000000" stroke="none" stroke-width="1" d="M 40.029 22.843 L 40.330 24.792 C 40.208 25.098 40.137 25.404 40.057 25.420 C 39.228 25.597 38.400 25.759 37.566 25.855 C 37.456 25.798 37.349 25.679 37.251 25.501 C 37.138 25.167 37.073 24.682 37.073 24.172 C 37.073 23.661 37.138 23.176 37.251 22.843 L 40.029 22.843 Z "/>
  <path id="Shape" fill="#F0E6D2" stroke="none" stroke-width="1" d="M 35.308 26.933 C 35.368 23.759 35.368 18.815 35.368 18.815 L 32.381 18.815 L 32.646 26.933 L 35.308 26.933 Z "/>
  <path id="Shape" fill="#F0E6D2" stroke="none" stroke-width="1" d="M 46.295 26.933 C 46.355 23.759 46.355 18.815 46.355 18.815 L 43.368 18.815 L 43.641 26.933 L 46.295 26.933 Z "/>
  <path id="Shape" fill="#F0E6D2" stroke="none" stroke-width="1" d="M 46.295 13.172 C 46.355 9.994 46.355 5.049 46.355 5.049 L 43.368 5.049 L 43.641 13.172 L 46.295 13.172 Z "/>
  <path id="Shape" fill="#F0E6D2" stroke="none" stroke-width="1" d="M 35.308 13.172 C 35.368 9.994 35.368 5.049 35.368 5.049 L 32.381 5.049 L 32.646 13.172 L 35.308 13.172 Z "/>
  <path id="Shape" fill="#F0E6D2" stroke="none" stroke-width="1" d="M 52.744 11.400 L 24.182 11.352 L 24.182 19.523 C 24.182 19.523 43.919 19.613 52.763 19.523 L 52.744 11.400 Z M 50.964 17.433 C 42.647 17.371 34.152 17.433 25.873 17.509 C 25.873 16.031 25.873 14.478 25.873 13.309 C 33.497 13.457 42.685 13.457 50.959 13.405 L 50.964 17.433 Z "/>
  <path id="Shape" fill="#F0E6D2" stroke="none" stroke-width="1" d="M 44.324 7.182 C 40.557 7.182 36.789 7.182 33.022 7.242 L 33.022 10.075 C 36.700 10.141 40.528 10.188 44.324 10.194 L 44.324 7.182 Z "/>
  <path id="Shape" fill="#BE0A3C" stroke="none" stroke-width="1" d="M 65.860 51.058 C 65.294 51.889 53.940 52.316 52.739 51.884 C 52.339 50.887 53.597 40.114 53.681 38.171 C 53.804 38.266 58.221 39.672 61.536 43.135 C 64.192 45.885 65.930 50.825 65.860 51.058 Z "/>
  <path id="Shape" fill="#BE0A3C" stroke="none" stroke-width="1" d="M 22.336 39.121 C 22.336 39.121 15.362 46.298 12.164 51.300 L 18.668 56.193 L 22.336 39.121 Z "/>
  <path id="Shape" fill="#F01446" stroke="none" stroke-width="1" d="M 54.628 38.636 C 52.382 37.283 46.509 35.088 45.727 35.069 C 45.727 35.359 28.948 34.594 26.518 35.777 C 24.894 36.555 23.465 37.691 22.336 39.102 C 21.941 39.577 17.457 51.951 17.457 51.951 C 17.457 51.951 17.099 56.292 17.424 56.572 L 37.472 66.073 L 60.547 59.475 C 60.449 58.705 54.628 38.855 54.628 38.636 Z "/>
  <path id="Shape" fill="#6E1E3C" stroke="none" stroke-width="1" d="M 50.206 35.592 C 46.858 33.193 42.139 31.958 37.491 32.025 C 33.008 32.091 28.590 33.369 25.543 35.986 C 25.473 36.898 21.385 62.748 21.305 63.612 L 56.709 63.897 C 56.676 63.413 52.546 37.967 50.206 35.592 Z "/>
  <path id="Shape" fill="#BE8264" stroke="none" stroke-width="1" d="M 64.988 52.682 C 64.880 52.644 47.587 47.367 47.324 47.362 C 47.131 48.312 44.239 59.109 44.239 59.109 L 60.288 60.534 C 60.482 59.375 65.601 52.910 64.988 52.682 Z "/>
  <path id="Shape" fill="#BE8264" stroke="none" stroke-width="1" d="M 13.737 52.682 C 13.845 52.644 30.728 48.654 30.997 48.650 C 31.190 49.599 34.486 59.099 34.486 59.099 L 18.437 60.525 C 18.234 59.375 13.115 52.910 13.737 52.682 Z "/>
  <path id="Shape" fill="#BE8264" stroke="none" stroke-width="1" d="M 63.388 57.397 C 63.388 57.397 63.388 57.066 62.850 56.463 C 62.910 57.005 63.059 57.367 63.388 57.397 Z "/>
  <path id="Shape" fill="#008264" stroke="none" stroke-width="1" d="M 73.234 55.148 L 70.776 43.415 C 68.191 42.940 64.277 46.450 62.379 47.899 C 60.863 49.053 53.677 54.074 47.936 57.978 C 45.110 59.902 38.013 60.472 35.089 59.356 C 27.620 56.506 25.699 53.608 24.121 51.861 C 16.285 43.173 8.745 44.175 8.745 44.175 L 6.489 66.642 C 6.489 66.642 10.907 79.401 39.012 79.401 C 67.117 79.401 69.330 68.243 70.734 66.847 C 73.936 63.650 70.329 58.591 73.234 55.148 Z "/>
  <path id="Shape" fill="#824600" stroke="none" stroke-width="1" d="M 40.500 42.546 C 40.396 42.123 35.612 40.171 35.428 39.563 C 34.689 40.214 32.179 41.667 31.661 42.327 C 31.355 42.717 31.020 43.087 30.719 43.467 L 30.140 44.175 C 29.624 44.911 29.202 45.709 28.882 46.550 C 28.129 48.200 27.716 49.987 27.667 51.803 C 27.587 53.338 28.011 54.825 28.369 56.306 C 28.458 56.605 28.568 56.898 28.698 57.181 C 28.760 57.323 28.826 57.465 28.882 57.608 C 29.169 58.363 29.452 59.118 29.749 59.869 C 29.800 59.997 32.075 62.201 32.207 62.382 L 40.001 54.402 C 40.001 54.402 40.660 43.111 40.500 42.546 Z "/>
  <path id="Shape" fill="#642800" stroke="none" stroke-width="1" d="M 38.070 43.995 C 36.634 45.135 34.627 48.369 34.020 49.956 C 33.252 51.984 33.549 54.008 34.255 56.041 C 34.416 56.221 35.414 58.824 35.640 59.071 C 35.871 59.114 41.804 60.496 41.804 60.496 L 46.142 46.246 L 38.070 43.995 Z "/>
  <path id="Shape" fill="#A0640A" stroke="none" stroke-width="1" d="M 34.449 40.727 C 34.651 40.242 35 39.834 35.447 39.563 C 40.768 38.261 47.102 39.824 49.900 44.565 C 52.391 48.782 53.606 53.176 51.313 57.613 C 47.423 65.123 38.037 65.388 32.475 63.104 C 31.468 61.897 31.100 61.204 30.959 60.339 C 31.465 58.999 32.518 57.943 33.850 57.442 C 34.114 57.527 36.021 57.304 36.087 57.328 C 39.690 57.095 43.344 55.399 42.718 50.834 C 42.092 46.270 34.708 45.096 34.449 40.727 Z "/>
  <path id="Shape" fill="#00A08C" stroke="none" stroke-width="1" d="M 80.322 53.979 C 79.479 48.488 76.465 44.346 70.776 43.415 C 69.538 48.132 64.908 65.379 64.532 69.169 L 79.003 68.077 C 79.950 63.612 81.024 58.534 80.322 53.979 Z "/>
  <path id="Shape" fill="#00A08C" stroke="none" stroke-width="1" d="M 8.745 44.175 C 8.458 44.417 5.920 44.522 3.603 48.450 C 1.286 52.378 0.655 56.473 1.888 65.465 L 14.161 64.990 C 14.161 64.990 8.835 44.674 8.745 44.175 Z "/>
  <path id="Shape" fill="#F01446" stroke="none" stroke-width="1" d="M 64.758 65.550 L 64.489 66.196 C 62.229 75.653 59.916 85.225 56.771 94.387 C 58.810 94.387 60.100 94.563 61.692 94.387 C 62.690 94.283 64.023 94.387 65.181 94.231 C 65.181 93.969 65.247 93.708 65.290 93.447 L 62.869 93.447 C 63.863 91.404 66.505 89.604 67.885 87.747 C 69.721 85.272 71.497 82.702 73.178 80.104 C 76.036 75.691 77.887 70.680 79.234 65.531 L 64.758 65.550 Z "/>
  <path id="Shape" fill="#F01446" stroke="none" stroke-width="1" d="M 16.760 78.731 C 16.054 76.214 15.447 73.734 14.839 71.179 C 14.660 70.409 13.968 68.614 13.535 66.984 L 2.077 66.984 C 2.939 71.383 3.895 75.615 5.708 79.809 C 6.786 82.303 7.893 84.778 9.174 87.172 C 10.186 89.072 12.291 91.513 12.748 93.570 C 12.461 93.570 9.922 93.751 9.922 93.751 L 9.857 94.439 C 9.857 94.439 19.247 95.124 20.354 94.131 C 20.255 93.266 19.967 92.421 19.821 91.556 C 19.028 87.229 18.006 82.948 16.760 78.731 Z "/>
  <path id="Shape" fill="#6E1E3C" stroke="none" stroke-width="1" d="M 79.550 70.385 L 62.874 70.005 L 64.428 63.831 L 80.976 63.831 L 79.550 70.385 "/>
  <path id="Shape" fill="#6E1E3C" stroke="none" stroke-width="1" d="M 1.286 70.385 L 16.054 70.005 L 14.674 63.831 L 0.019 63.831 L 1.286 70.385 "/>
  <path id="Shape" fill="#6E1E3C" stroke="none" stroke-width="1" d="M 17.128 75.113 L 16.591 72.100 L 1.931 72.100 L 2.397 75.113 L 17.128 75.113 "/>
  <path id="Shape" fill="#6E1E3C" stroke="none" stroke-width="1" d="M 18.220 79.160 L 17.683 76.147 L 3.023 76.147 L 3.494 79.160 L 18.220 79.160 "/>
  <path id="Shape" fill="#6E1E3C" stroke="none" stroke-width="1" d="M 61.207 75.113 L 61.824 72.100 L 78.532 72.100 L 78.005 75.113 L 61.207 75.113 "/>
  <path id="Shape" fill="#6E1E3C" stroke="none" stroke-width="1" d="M 59.964 79.160 L 60.576 76.147 L 77.289 76.147 L 76.757 79.160 L 59.964 79.160 "/>
</svg>