<svg width="194px" height="112px" viewBox="0 0 194 112" version="1.1" xml:space="preserve" xmlns="http://www.w3.org/2000/svg" xmlns:xlink="http://www.w3.org/1999/xlink">
  <defs/>
  <g>
    <title>zebra-a</title>
    <desc>Created with Sketch.</desc>
    <g id="zebra-a" stroke="none" stroke-width="1" fill="none" fill-rule="evenodd">
      <g id="Group" transform="translate(1.000000, 0.000000)">
        <path d="M16.2672716,55.1708242 C30.5357541,50.3630926 32.6489914,34.3779114 32.6489914,34.3779114" id="Stroke-1" stroke="#424763" stroke-width="1.5"/>
        <path d="M17.9140047,54.8944322 C17.9140047,54.8944322 17.7210047,55.0590497 17.3710514,55.3258953 C17.1833082,55.464204 16.9790436,55.6280698 16.7252148,55.8032107 C16.4834016,55.9888752 16.1755027,56.1715329 15.8998957,56.4060564 C15.6257907,56.6300564 15.2908568,56.8923919 15.0047362,57.1051168 C14.6855728,57.3930094 14.3536428,57.7027007 13.9916739,57.9988617 C13.6672537,58.3093047 13.3616078,58.644553 13.0229191,58.957251 C12.6954949,59.3022711 12.362814,59.652553 12.0301331,60.0028349 C11.369277,60.7304591 10.709172,61.4573315 10.0896195,62.139855 C9.79148327,62.4893852 9.50686459,62.8133584 9.22374786,63.124553 C8.93612529,63.4312376 8.70482568,63.7469423 8.46977121,64.0288215 C8.25048716,64.3204725 8.00191518,64.5655195 7.83670117,64.8128215 C7.67298911,65.0608752 7.51528482,65.2736 7.38686848,65.4524993 C7.12703191,65.808043 6.96256887,66.013251 6.96256887,66.013251 C6.96256887,66.013251 7.00762724,65.765949 7.11501634,65.3299758 C7.17058833,65.1134926 7.23592296,64.8458953 7.32829261,64.5429691 C7.41540545,64.2370362 7.57686459,63.9265933 7.73682179,63.5740564 C7.90128482,63.2252779 8.06649883,62.8313987 8.31507082,62.4675866 C8.54787237,62.095506 8.78818366,61.6828349 9.06754553,61.2994792 C9.34916031,60.9258953 9.62551829,60.5282577 9.93266615,60.1456537 C10.2623432,59.738996 10.5912693,59.3706738 10.928456,58.9820564 C11.2911759,58.6182443 11.646386,58.2506738 12.0173665,57.904902 C12.4108763,57.5643919 12.8164016,57.2456805 13.1978957,56.9450094 C13.5808918,56.6774121 13.9691447,56.4413852 14.3326156,56.2121235 C14.7704327,55.9693315 15.1316506,55.8174926 15.4928685,55.6491168 C15.8420708,55.4687141 16.1747518,55.3958013 16.4668802,55.2928215 C16.7560047,55.1966067 17.023351,55.1214389 17.2268646,55.0658148 C17.6601759,54.9493047 17.9140047,54.8944322 17.9140047,54.8944322" id="Fill-3" fill="#424763"/>
        <path d="M3.84430467,61.9916993 C3.84430467,61.9916993 3.8683358,61.9398336 3.91339416,61.8428671 C3.96295837,61.7466523 4.01477549,61.6015785 4.11991167,61.4249342 C4.22654981,61.2625718 4.3534642,61.0618738 4.51116848,60.8453906 C4.66436693,60.6259007 4.89641751,60.3951356 5.14048366,60.1418201 C5.38680272,59.8960215 5.6549,59.6584913 5.95153424,59.4126926 C6.09722296,59.2939275 6.24666654,59.171404 6.39986498,59.0466255 L6.51551479,58.9519141 L6.54405175,58.9286121 L6.60187665,58.8902765 L6.66420739,58.8481826 L6.9150323,58.6775517 C7.60367432,58.2242899 8.28105175,57.7093906 9.10186498,57.3222765 C9.92117626,56.9494443 10.7449934,56.5292564 11.5425265,56.3067597 C11.9367872,56.1729611 12.3257911,56.0707329 12.6930167,55.9685047 C13.0587405,55.8647732 13.4056899,55.7723168 13.7353669,55.7219544 C15.0428105,55.4799141 15.9424759,55.449847 15.9424759,55.449847 C15.9424759,55.449847 15.1900012,55.9639946 14.0184837,56.5375248 C13.4349778,56.8321826 12.7748728,57.2005047 12.0434253,57.531243 C11.6701918,57.6860886 11.3164837,57.8920483 10.9522619,58.0799678 C10.5880401,58.2716456 10.2118027,58.4512966 9.83631634,58.632451 C9.45557315,58.7872966 9.08233969,59.0263302 8.70535136,59.2277799 C8.33286887,59.4390013 7.95137471,59.6216591 7.59015681,59.8118336 C6.88424241,60.1824107 6.2256393,60.5289342 5.66090778,60.8250953 C5.40257315,60.9874577 5.13823074,61.0972027 4.91519183,61.250545 C4.69590778,61.4061423 4.49314514,61.5301691 4.32943307,61.635404 C4.02078327,61.8624107 3.84430467,61.9916993 3.84430467,61.9916993" id="Fill-5" fill="#424763"/>
        <path d="M0.00105136187,59.5824966 C0.000300389105,59.5892617 0.0648840467,59.628349 0.190296498,59.5742282 C0.315708949,59.5313826 0.488432685,59.4314094 0.709218677,59.3141477 C1.14853774,59.0675973 1.76058054,58.685745 2.50404358,58.2445101 C2.68953385,58.1325101 2.88253385,58.016 3.08304358,57.8949799 C3.30232763,57.770953 3.44951829,57.6657181 3.7716856,57.523651 C4.22827704,57.3267114 4.70739767,57.1117315 5.21280233,56.9177987 C5.71745603,56.7208591 6.23337432,56.5021208 6.76731595,56.3081879 C7.28698911,56.088698 7.87950661,55.9691812 8.44123424,55.8030604 C9.01272451,55.6587383 9.58496576,55.5136644 10.1474444,55.3715973 C10.4410747,55.3016913 10.6828879,55.2377987 11.0148179,55.1799195 C11.2911759,55.1423356 11.563779,55.106255 11.8326272,55.0701745 C12.1014755,55.0371007 12.363565,54.9935034 12.6249035,54.9702013 C12.8930008,54.9574228 13.1558412,54.9446443 13.411172,54.9318658 C13.9210825,54.9025503 14.4054599,54.8920268 14.8342654,54.8942819 C15.2683276,54.8882685 15.6670942,54.8987919 16.0215533,54.9078121 C16.3722576,54.9017987 16.6801564,54.9100671 16.9354872,54.9145772 C17.4453977,54.926604 17.7427829,54.9468993 17.7427829,54.9468993 C17.7427829,54.9468993 17.4694288,55.0513826 16.9797946,55.2099866 C16.4909113,55.3753557 15.782744,55.577557 14.9303899,55.752698 C14.4985805,55.845906 14.0525027,55.9518926 13.577137,56.042094 C13.1055261,56.1270336 12.6053782,56.247302 12.0721875,56.3720805 C11.8085961,56.4329664 11.5404988,56.4938523 11.2686467,56.5562416 C11.0155689,56.6321611 10.7594872,56.7088322 10.5011525,56.7870067 C9.96645992,56.9358389 9.42200467,57.0884295 8.87905136,57.2402685 C8.33234319,57.3936107 7.78488405,57.4928322 7.24268171,57.6845101 C6.7027323,57.8611544 6.16203191,58.0084832 5.6438607,58.1655839 C5.12719144,58.3256913 4.61728093,58.4527248 4.13665837,58.5805101 C3.9924716,58.6075705 3.71461167,58.7353557 3.50809416,58.8015034 C3.28580623,58.8781745 3.07027704,58.9525906 2.86375953,59.024 C2.03543658,59.3096376 1.32126148,59.4998121 0.809098054,59.5937718 C0.553767315,59.6448859 0.344996887,59.6584161 0.202312062,59.6546577 C0.0491136187,59.6576644 -0.00871128405,59.5832483 0.00105136187,59.5824966" id="Fill-7" fill="#424763"/>
        <path d="M3.84430467,56.1368054 C3.84430467,56.1368054 4.58401284,55.6264161 5.75628132,55.0498792 C6.03789611,54.8867651 6.39160428,54.7897987 6.75958093,54.6785503 C7.12905953,54.5680537 7.52031634,54.4432752 7.93410233,54.3448054 C8.14812957,54.2914362 8.33286887,54.2380671 8.58219183,54.1839463 C8.78720739,54.1478658 8.99522685,54.1140403 9.20625019,54.0869799 C9.62679494,54.0253423 10.0556004,53.9772349 10.4836549,53.9268725 C10.9102074,53.8810201 11.3652969,53.8787651 11.7986082,53.8667383 C12.2349233,53.8524564 12.6659817,53.8659866 13.0790167,53.872 C13.9035848,53.9306309 14.669577,54.0118121 15.3199195,54.119302 C16.6221062,54.3861477 17.455686,54.6965906 17.455686,54.6965906 C17.455686,54.6958389 16.5680362,54.8897718 15.2876276,54.9822282 C14.644044,55.0694228 13.9005809,55.1498523 13.1068027,55.1957047 C12.712542,55.2295302 12.3092696,55.2949262 11.8969856,55.3219866 C11.4831996,55.3663356 11.0731685,55.3670872 10.6428611,55.4212081 C10.2133047,55.463302 9.78449922,55.5068993 9.36095058,55.5354631 C9.14917626,55.5535034 8.93815292,55.5640268 8.73013346,55.5722953 C8.54013735,55.596349 8.35239416,55.6204027 8.16765486,55.6437047 C7.78766265,55.7000805 7.41217626,55.7256376 7.05321128,55.7572081 C6.69725019,55.799302 6.34954981,55.7872752 6.02738249,55.8654497 C4.74246809,56.1037315 3.84430467,56.1368054 3.84430467,56.1368054" id="Fill-9" fill="#424763"/>
        <g id="Group-14" transform="translate(103.634241, 55.792537)">
          <path d="M23.0872307,2.12987919 C23.0872307,2.12987919 19.7581685,4.57283221 18.6880323,7.51715436 C17.6171451,10.4607248 11.5785732,26.5902282 11.5785732,26.5902282 C11.5785732,26.5902282 11.775328,27.946255 12.1035031,29.1932886 C12.4099,30.3576376 10.9079545,32.6983624 9.45106732,35.3292349 C7.99342918,37.9601074 6.94056537,41.717745 6.89926187,43.7224698 C6.85870934,45.7271946 7.81995447,47.0426309 7.81995447,47.0426309 C7.7779,49.4976107 8.03848755,49.7749799 8.11959261,51.2084295 C8.15789222,51.8781745 2.33184553,51.7361074 1.71304397,51.6609396 C0.802114008,51.550443 2.4677716,50.6604564 2.01868988,49.6577181 C1.57035914,48.6557315 -0.118578599,47.7048591 1.13404397,45.637745 C2.38666654,43.5706309 3.34941362,42.4701745 4.26635136,39.0876242 C5.18404008,35.7050738 4.9850323,30.6154631 4.66661984,30.114094 C4.34820739,29.6134765 5.93200895,28.3130738 6.46144475,25.995651 C6.99088054,23.6782282 8.69108288,11.0876242 7.66300117,5.82587919 C7.66300117,5.82587919 11.8624409,3.57084564 12.1988767,0.0627651007" id="Fill-11" fill="#B1B6CC"/>
          <path d="M23.0872307,2.12987919 C23.0872307,2.12987919 19.7581685,4.57283221 18.6880323,7.51715436 C17.6171451,10.4607248 11.5785732,26.5902282 11.5785732,26.5902282 C11.5785732,26.5902282 11.775328,27.946255 12.1035031,29.1932886 C12.4099,30.3576376 10.9079545,32.6983624 9.45106732,35.3292349 C7.99342918,37.9601074 6.94056537,41.717745 6.89926187,43.7224698 C6.85870934,45.7271946 7.81995447,47.0426309 7.81995447,47.0426309 C7.7779,49.4976107 8.03848755,49.7749799 8.11959261,51.2084295 C8.15789222,51.8781745 2.33184553,51.7361074 1.71304397,51.6609396 C0.802114008,51.550443 2.4677716,50.6604564 2.01868988,49.6577181 C1.57035914,48.6557315 -0.118578599,47.7048591 1.13404397,45.637745 C2.38666654,43.5706309 3.34941362,42.4701745 4.26635136,39.0876242 C5.18404008,35.7050738 4.9850323,30.6154631 4.66661984,30.114094 C4.34820739,29.6134765 5.93200895,28.3130738 6.46144475,25.995651 C6.99088054,23.6782282 8.69108288,11.0876242 7.66300117,5.82587919 C7.66300117,5.82587919 11.8624409,3.57084564 12.1988767,0.0627651007" id="Stroke-13" stroke="#424763" stroke-width="0.5625"/>
        </g>
        <path d="M105.34736,107.453477 L104.440185,111.416322 L115.076963,111.416322 C115.076963,111.416322 112.718158,108.738846 112.543181,107.799248 C112.543181,107.799248 111.807228,107.502336 111.404707,107.251275" id="Fill-15" fill="#424763"/>
        <path d="M111.577731,63.1346255 C112.331707,63.0744913 121.762423,61.9236725 121.762423,61.9236725 L111.61603,66.7389208 L111.577731,63.1346255 Z" id="Fill-17" fill="#313753"/>
        <path d="M114.037842,67.9603221 C114.037842,67.9603221 120.339255,66.742604 121.054932,66.7388456 C121.366586,66.738094 120.162025,69.1359463 120.162025,69.1359463 L114.037842,67.9603221 Z" id="Fill-19" fill="#313753"/>
        <path d="M119.847593,69.9804564 C119.847593,69.9804564 112.45727,70.9907114 111.725823,71.3898523 C110.993624,71.7889933 111.351838,73.6448859 111.351838,73.6448859 L119.400764,71.1786309 L119.847593,69.9804564 Z" id="Fill-21" fill="#424763"/>
        <path d="M111.057006,76.1582711 C111.057006,76.1582711 116.614205,76.2755329 117.477823,75.899694 L116.530096,78.5072644 L110.692784,79.5874255 L111.057006,76.1582711 Z" id="Fill-23" fill="#424763"/>
        <path d="M109.635415,83.4636779 C109.635415,83.4636779 114.196072,83.6982013 115.188858,83.2291544 C115.188858,83.2291544 115.806909,85.2722148 115.580115,85.7660671 C115.580115,85.7660671 109.001594,87.3370738 108.75903,87.2927248 L108.478166,85.4841879 L109.635415,83.4636779 Z" id="Fill-25" fill="#424763"/>
        <path d="M108.744686,90.4303034 C108.744686,90.4303034 112.63097,90.7332295 113.469807,90.4325584 C113.692095,90.3385987 112.111297,92.7890685 112.111297,92.7890685 C112.111297,92.7890685 108.910651,93.0078067 108.552437,92.960451 C108.193472,92.913847 108.413507,91.2759409 108.744686,90.4303034" id="Fill-27" fill="#424763"/>
        <path d="M108.159077,95.3965638 C108.159077,95.3965638 110.379704,95.5837315 111.070599,95.3928054 C111.370988,95.2747919 110.598988,97.722255 110.598988,97.722255 C110.598988,97.722255 108.424922,98.2153557 107.278937,97.8162148 C106.823097,97.6515973 107.242891,97.2051007 107.242891,97.2051007 L107.837661,95.3928054 L108.159077,95.3965638 Z" id="Fill-29" fill="#424763"/>
        <path d="M105.67884,100.217149 C105.780972,100.193847 107.423349,100.992129 109.808439,100.282545 C111.23003,99.8593503 110.729882,101.621283 110.729882,101.621283 C110.729882,101.621283 107.37754,102.806679 105.097587,102.65484 C103.332801,102.537579 105.67884,100.217149 105.67884,100.217149" id="Fill-31" fill="#424763"/>
        <path d="M68.358272,41.2287785 C68.358272,41.2287785 72.4413109,56.7637047 62.7732875,68.3831409 C54.8114743,78.4992215 41.3780735,78.9690201 41.3780735,78.9690201 C41.3780735,78.9690201 39.4180346,78.3984966 41.8511864,85.2613154 C44.2843381,92.1233826 47.2889802,100.216698 47.2889802,100.216698 C47.2889802,100.216698 48.4747661,102.960322 51.1955405,104.589208 C52.4924704,105.403275 45.3424588,108.284456 45.3424588,108.284456 C45.3424588,108.284456 37.8657739,85.4838121 31.7108012,74.5844832 C30.2494082,71.9829262 30.6707039,72.3722953 31.9541163,71.813047 C33.3697,71.1959195 43.4575171,68.5086711 39.9422136,54.5394899 C36.4269101,40.5710604 34.0928868,35.1837852 34.0245482,34.9958658" id="Fill-33" fill="#B1B6CC"/>
        <path d="M67.7950424,38.2220671 C67.7950424,38.2220671 72.4413109,56.7637047 62.7732875,68.3831409 C54.8114743,78.4992215 41.3780735,78.9690201 41.3780735,78.9690201 C41.3780735,78.9690201 39.4180346,78.3984966 41.8511864,85.2613154 C44.2843381,92.1233826 47.2889802,100.216698 47.2889802,100.216698 C47.2889802,100.216698 49.1145949,103.61804 51.1955405,104.589208 C52.2596689,104.886872 45.3424588,108.284456 45.3424588,108.284456 C45.3424588,108.284456 37.8657739,85.4838121 31.7108012,74.5844832 C30.2494082,71.9829262 30.6707039,72.3722953 31.9541163,71.813047 C33.3697,71.1959195 43.4575171,68.5086711 39.9422136,54.5394899 C36.4269101,40.5710604 34.0928868,35.1837852 34.0245482,34.9958658" id="Stroke-35" stroke="#424763" stroke-width="0.5625"/>
        <path d="M46.6218911,111.322738 C46.6218911,111.322738 47.9315875,110.204993 46.6218911,107.741745 C46.9177743,107.610953 51.1329844,105.236403 51.1329844,105.236403 L54.7466654,106.860027 L57.2000934,111.322738 L46.6218911,111.322738 Z" id="Fill-37" fill="#424763"/>
        <path d="M46.5455922,48.0878389 C46.5455922,48.0878389 56.6326584,62.2479463 64.6222576,65.8108993 C64.9264016,65.9462013 62.7726117,68.3831409 62.7726117,68.3831409 C62.7726117,68.3831409 56.9563276,64.4992215 46.5455922,48.0878389" id="Fill-39" fill="#424763"/>
        <path d="M36.5204062,42.1929557 C36.5204062,42.1929557 49.9718304,59.5875329 56.1996475,65.0003651 C60.9578109,69.1360966 47.7046436,60.0520698 38.2333751,47.7749154" id="Fill-41" fill="#424763"/>
        <path d="M39.0505837,51.0798926 C39.0505837,51.0798926 51.5430156,68.3466846 58.6780078,72.4809128 L56.0143074,74.3969396 C56.0143074,74.3969396 44.5401946,62.7474362 39.8323463,54.1031409 C39.2818833,52.0345235 39.0505837,51.0798926 39.0505837,51.0798926" id="Fill-43" fill="#424763"/>
        <path d="M40.6771907,59.730051 C40.6771907,59.730051 46.8374202,74.1134067 51.750284,76.5014872 L49.105358,77.4643866 C49.105358,77.4643866 44.2172763,73.3436886 40.1304825,64.0003329 C40.2070817,63.1840107 40.6771907,59.730051 40.6771907,59.730051" id="Fill-45" fill="#424763"/>
        <path d="M38.0517148,67.8872591 C38.0517148,67.8872591 43.5976486,76.9028832 45.6357887,78.3754201 L43.2424385,78.7873396 C43.2424385,78.7873396 38.9078237,74.5847087 36.7172362,69.3537826 C36.5595319,68.9764403 38.0517148,67.8872591 38.0517148,67.8872591" id="Fill-47" fill="#424763"/>
        <path d="M33.3067685,71.2775517 C33.5380681,71.2354577 40.0535078,78.5304913 40.9351498,79.1055248 C40.9351498,79.1055248 40.2457568,80.5126658 40.7519125,81.3891221 C41.2588191,82.2663302 31.7109514,74.5841826 31.7109514,74.5841826 C31.7109514,74.5841826 30.6490759,72.9770953 30.7932626,72.5170685 C30.9539708,72.0066792 32.1682938,71.4827597 33.3067685,71.2775517" id="Fill-49" fill="#424763"/>
        <path d="M41.8512615,85.2610148 L36.2903082,84.1056859 C36.2903082,84.1056859 37.6435611,87.8016859 37.8087751,87.7392966 C37.9739891,87.6761557 42.8695805,88.1143839 42.8695805,88.1143839 L41.8512615,85.2610148 Z" id="Fill-51" fill="#424763"/>
        <polygon id="Fill-53" fill="#424763" points="44.0507105 91.3093154 39.0582436 90.8748456 40.4760802 94.5685906 45.3018311 94.817396"/>
        <path d="M46.8910397,99.1395436 L42.2537829,99.3898523 L44.0448529,104.589208 C44.0448529,104.589208 47.8102304,103.555651 48.8916311,102.835544 C49.1447089,102.666416 47.3641525,100.956349 46.8910397,99.1395436" id="Fill-55" fill="#424763"/>
        <path d="M162.368121,26.007302 C162.368121,26.007302 159.521935,34.113396 163.37067,38.1063087 C166.059904,40.8965369 176.905452,46.1800805 179.35888,51.6583087 C179.66753,52.4077315 179.903335,53.0534228 180.018234,53.6788188 C180.148904,54.3861477 180.124872,55.0664161 179.874798,55.8398926 C179.874798,55.8398926 183.348047,58.846604 187.713452,56.6381745 C192.078857,54.4304966 193.956289,49.1326711 191.140141,41.7278926 C188.323993,34.3231141 188.238382,34.185557 186.540433,28.5915705 C184.968647,23.4155168 185.069277,22.1121074 181.833335,17.1119463 C181.833335,17.1119463 183.703258,15.4131544 186.448814,16.7676779 C186.448814,16.7676779 189.78088,4.91522148 178.237678,1.44322148 C167.792398,-1.69804027 140.291775,2.81127517 133.502981,6.48322148 C126.863631,10.0747383 126.265106,13.0213154 126.758495,14.3841074 C127.251133,15.7461477 130.782958,17.1119463 130.782958,17.1119463" id="Fill-57" fill="#D3D5DF"/>
        <path d="M173.386694,10.5392 C173.386694,10.5392 170.206325,8.62467651 162.602725,10.065643 C156.08278,11.3006497 138.603138,14.7636295 134.848274,15.3897772 C131.09341,16.0166765 126.462161,14.951549 120.204305,15.3897772 C113.946449,15.828757 106.686795,17.0186631 102.180959,16.7683544 C97.6751222,16.517294 89.0389354,16.7052134 85.2840716,15.4529181 C81.5292078,14.1998711 65.8218615,9.3139651 57.122593,11.1931597 C48.4240755,13.0723544 37.0340716,22.4059383 34.9065658,25.4126497 C32.7783089,28.4193611 32.2158304,31.8011597 32.1527486,34.1817235 C32.0904179,36.5622872 31.2771144,55.3542336 48.9873051,50.2180188 C62.1916591,46.5220188 59.1562272,46.4438443 63.1461455,50.1082738 C66.0216202,52.7496698 79.6675463,69.4166228 95.9854335,70.0119517 C112.622484,70.6193074 126.556033,71.4837369 138.317017,53.6050792 C146.832297,40.8348242 158.476881,36.5239517 161.651243,34.7890792" id="Fill-59" fill="#D3D5DF"/>
        <path d="M177.202387,14.6557638 C177.202387,14.6557638 175.142468,16.6116295 174.516908,16.5492403 C173.891348,16.4860993 173.521869,12.6991463 176.95757,8.8505557 C180.295644,5.11246174 182.407379,3.22800537 182.407379,3.22800537 C182.407379,3.22800537 181.52048,9.50526711 177.202387,14.6557638" id="Fill-61" fill="#C0A1A7"/>
        <path d="M171.421999,44.0156242 C171.421999,44.0156242 173.987322,36.7183356 179.111209,35.4968591 C179.111209,35.4968591 174.229886,41.4163221 174.692486,46.4984161" id="Fill-63" fill="#424763"/>
        <path d="M177.640579,40.4143356 C177.565482,40.4789799 179.861957,36.4680268 183.55449,37.1573154 C187.247023,37.8458523 188.279611,40.4143356 188.279611,40.4143356 C188.279611,40.4143356 181.864801,36.749906 177.640579,40.4143356" id="Fill-65" fill="#424763"/>
        <path d="M175.207653,46.9361181 C175.207653,46.9361181 175.60717,43.387447 177.421521,41.7615678 C178.923466,40.4153128 182.428256,40.6964403 184.39956,40.9978631 C185.206855,41.1218899 185.932295,42.199796 184.618093,42.4501047 C183.30389,42.7011651 180.643945,41.9179168 179.111209,43.4836617 C177.577723,45.0501584 177.015244,46.8038228 176.983704,47.3675812 C176.952163,47.9313396 181.551871,43.5776215 184.242606,45.1749369 C185.02512,45.895796 178.962517,46.2077423 178.113918,49.9668832" id="Fill-67" fill="#424763"/>
        <path d="M190.282079,40.8345987 C190.282079,40.8345987 188.623932,38.2819007 187.184317,37.0777128 C185.744702,35.8727732 183.458741,33.3366121 182.959344,31.6761557 C182.459196,30.016451 186.151729,34.7144376 187.340519,35.9043436 C188.53006,37.0942497 189.286289,37.7324242 189.286289,37.7324242" id="Fill-69" fill="#424763"/>
        <path d="M186.861248,31.4756832 C186.861248,31.4756832 184.993579,29.8595758 184.054863,28.2622604 C183.5044,27.3249181 182.709871,24.1596027 182.709871,24.1596027 C182.709871,24.1596027 182.262291,27.2843275 183.264089,29.1319517 C184.266637,30.9803275 187.322346,34.8710121 188.583229,36.6878174" id="Fill-71" fill="#424763"/>
        <path d="M184.524371,35.7479195 C184.524371,35.7479195 181.958297,33.3673557 181.614352,32.2090201 C181.270406,31.0499329 180.863379,31.1935034 179.643048,31.325047 C178.422718,31.4573423 176.028616,31.3002416 175.207803,30.8935839 C174.386239,30.4861745 174.269838,29.9848054 173.154644,30.8935839 C172.039449,31.8016107 167.908348,35.1841611 168.065301,41.3231141 C168.082574,41.9815839 169.16097,42.7009396 169.160219,42.4679195 L170.367033,43.2819866 C170.367033,43.2819866 169.900679,38.941047 171.422149,35.4976107 C172.321064,33.4613154 173.822258,32.2142819 174.284107,32.2142819 C174.745955,32.2142819 175.387286,33.4928859 177.264718,33.117047 C179.142149,32.7412081 180.425562,32.0211007 180.613305,32.3653691 C180.801048,32.7096376 183.006655,35.4818255 184.524371,35.7479195" id="Fill-73" fill="#424763"/>
        <path d="M181.458149,24.002953 C181.458149,24.002953 178.319834,19.5552752 180.70192,15.8472483 C180.87164,15.5834094 182.278963,18.0917584 182.278963,18.0917584 C182.278963,18.0917584 180.301651,21.9065235 181.458149,24.002953" id="Fill-75" fill="#424763"/>
        <path d="M180.274466,15.1707383 C180.180595,15.1707383 177.233777,17.1281074 175.888034,22.3116779 C175.193384,24.987651 175.387135,24.5982819 175.04319,24.159302 C174.699244,23.7210738 173.760528,20.9022819 175.731832,17.8331812 C177.703135,14.7633289 178.407548,13.4411275 178.407548,13.4411275" id="Fill-77" fill="#424763"/>
        <path d="M164.31269,39.1242309 C164.406562,39.0926604 168.753943,33.5866201 170.037356,30.7054389 C171.320017,27.823506 172.508807,23.5329289 172.508807,21.8416537 C172.508807,20.1503785 170.506714,26.1953718 167.345869,30.7993987 C165.21536,33.9030765 162.652289,35.4973852 162.652289,35.4973852 C162.652289,35.4973852 167.643254,29.9229423 167.846768,24.9738953 C168.050282,20.0240966 166.407904,26.6614121 164.592803,29.1705128 C163.304885,30.9504859 161.844994,32.6470228 161.187893,33.3987007" id="Fill-79" fill="#424763"/>
        <path d="M164.31269,39.1242309 C164.31269,39.1242309 160.774858,35.904043 161.401169,33.4302711" id="Fill-81" fill="#424763"/>
        <path d="M171.206019,9.87779866 C171.206019,9.87779866 169.285782,11.3232752 169.441984,13.2340403 C169.598938,15.1440537 169.535856,19.4616913 168.409397,21.3093154 C167.566805,22.6924027 165.343175,24.817396 165.343175,24.817396 C165.343175,24.817396 166.719708,21.6791409 166.719708,18.9573154 C166.719708,16.2354899 164.885082,11.377396 168.284735,9.54931544 C169.12958,9.09455034 170.892864,9.87779866 171.206019,9.87779866" id="Fill-83" fill="#424763"/>
        <path d="M166.594896,9.52834362 C166.501025,9.55991409 162.039496,14.5728537 161.651243,22.2489879 C161.26299,29.9251221 159.898472,23.3141154 159.898472,23.3141154 C159.898472,23.3141154 158.398029,17.5201826 161.588161,12.1637262 C163.528675,8.90670604 164.630352,9.71551141 164.630352,9.71551141 L166.594896,9.52834362 Z" id="Fill-85" fill="#424763"/>
        <path d="M158.110181,10.8842201 C158.110181,10.8842201 157.520667,21.9985289 158.083897,26.7589047 C158.647126,31.5200322 158.521714,31.6763812 157.833823,29.5153074 C157.145181,27.3542336 155.173877,19.116596 155.111547,14.3562201 C155.048465,9.5958443 155.111547,11.4660188 155.111547,11.4660188 L158.110181,10.8842201" id="Fill-87" fill="#424763"/>
        <path d="M153.104196,11.8571919 C153.104196,11.8571919 153.51573,27.2598228 158.598313,36.1829906 L154.156309,38.5605477 C154.156309,38.5605477 150.60571,31.5511517 149.479251,22.7189369 C148.352792,13.8867221 148.960329,12.8215946 148.960329,12.8215946 L153.104196,11.8571919 Z" id="Fill-89" fill="#424763"/>
        <path d="M145.724237,13.2919195 C145.724237,13.2919195 145.192548,31.3254228 150.771525,40.7251544 C150.381019,41.2513289 147.821704,42.9365906 147.821704,42.9365906 C147.821704,42.9365906 142.053482,29.6213691 143.398474,13.7421745 C144.785521,13.4407517 145.004805,13.0769396 145.474163,13.2340403" id="Fill-91" fill="#424763"/>
        <path d="M145.999243,44.4865503 C145.999243,44.4865503 141.060095,31.850094 139.714352,18.0432752 C139.715103,14.7539329 138.466986,26.5432483 139.153375,34.745557 C139.630994,40.4568054 141.197523,46.5002953 142.037111,48.4681879" id="Fill-93" fill="#424763"/>
        <path d="M137.432371,15.1707383 C137.432371,15.1707383 134.803967,35.1217718 135.774223,47.3365369 C136.040068,50.6867651 133.967383,45.4994362 133.21641,40.0497718 C132.465437,34.6001074 131.987819,29.5653691 132.207103,15.5886711" id="Fill-95" fill="#424763"/>
        <path d="M133.388533,59.6672859 C133.388533,59.6672859 128.764794,50.2179436 128.483179,32.052145 C128.670922,28.199796 127.262848,42.356145 127.763747,50.6246013 C128.263895,58.8930577 128.679934,61.7960376 129.212374,63.5188832" id="Fill-97" fill="#424763"/>
        <path d="M128.921221,15.6717315 C128.921221,15.6717315 124.546805,28.2931544 121.699867,53.0616913 C121.85607,56.5750336 121.304856,38.3889396 121.986739,32.9731007 C122.580007,28.2593289 124.196101,16.7052886 125.040945,15.4838121 C125.447972,14.8576644 128.921221,15.6717315 128.921221,15.6717315" id="Fill-99" fill="#424763"/>
        <path d="M123.852155,15.6093423 C123.257385,16.1415302 120.097291,23.8462282 118.313731,33.5872215 C116.530171,43.3274631 114.652739,56.1059866 114.652739,56.1059866 C113.056922,48.3960268 113.496241,44.9999463 113.620151,39.694604 C113.807895,31.6448859 116.060813,21.1168859 117.844373,17.7441074 C119.346319,15.2177181 119.335054,15.4372081 119.500268,15.4244295 C119.665482,15.411651 123.852155,15.2846174 123.852155,15.2846174 C123.852155,15.2846174 124.446926,15.0771544 123.852155,15.6093423" id="Fill-101" fill="#424763"/>
        <path d="M115.810363,15.8156027 C115.810363,15.8156027 113.470332,19.5243812 111.197889,29.9539114 C108.986274,40.1030658 109.239352,61.4770255 109.239352,61.6183409 C109.239352,61.7589047 106.632725,55.5147168 106.610947,43.6720322 C106.585414,29.9065557 110.553554,19.284596 111.539581,17.4783141 C112.524858,15.6720322 112.845523,16.0696698 112.845523,16.0696698 L115.247134,15.8156027 L115.810363,15.8156027 Z" id="Fill-103" fill="#424763"/>
        <path d="M109.192416,16.4692617 C109.192416,16.4692617 102.903019,31.7831946 100.415046,62.8395168 C100.019284,67.783302 96.8486767,50.8592752 99.1947156,36.8592752 C101.541505,22.8592752 103.137323,19.065557 103.935607,17.7441074 C104.733891,16.4234094 106.141214,16.6977718 106.141214,16.6977718 L108.958112,16.4692617 L109.192416,16.4692617 Z" id="Fill-105" fill="#424763"/>
        <path d="M102.718205,16.7959409 C102.625084,16.9365047 98.6787222,20.3694174 95.9098856,33.8996188 C93.1402981,47.4298201 91.3567377,64.1546523 91.3567377,64.1546523 C91.3567377,64.1546523 89.6204887,56.9671087 90.0898467,46.4902228 C90.5592047,36.0140886 92.2488934,25.8190819 96.0503175,18.2083436 C97.3284732,15.6496322 97.415586,16.6200483 97.415586,16.6200483 L102.526707,16.7914309 L102.718205,16.7959409 Z" id="Fill-107" fill="#424763"/>
        <path d="M90.9824529,16.3617718 C90.9824529,16.3617718 79.5759276,54.1012617 79.9987253,60.2086443 C80.3772156,65.6928859 77.4762078,53.9772349 80.1864685,37.564349 C82.9553051,20.7929128 87.2103167,15.9543624 87.2103167,15.9543624" id="Fill-109" fill="#424763"/>
        <path d="M80.9107066,16.4395705 C80.2896521,17.5580671 77.921835,23.9292886 76.5250257,29.2023087 C72.8174732,43.2023087 73.427263,56.8730738 73.427263,56.8730738 C73.427263,56.8730738 71.8787572,52.3164027 71.9726288,43.2489128 C72.0665004,34.1821745 72.9015821,27.5155436 76.984621,16.6162148 C78.2147144,13.7726174 79.4958739,13.7726174 79.4958739,13.7726174 L82.251193,14.5671409 L83.2972981,14.8881074 C83.2972981,14.8881074 81.5317611,15.3210738 80.9107066,16.4395705" id="Fill-111" fill="#424763"/>
        <path d="M72.9110444,12.5710604 C72.7233012,12.6176644 63.6643167,34.134443 65.1197019,47.665396 C65.1197019,47.665396 62.8975735,33.8713557 65.447877,22.8600268 C67.7015463,13.1348188 69.0758265,11.4540671 69.0758265,11.4540671 L72.9110444,12.1666577 L72.9110444,12.5710604 Z" id="Fill-113" fill="#424763"/>
        <path d="M65.7921981,11.0148617 C65.6983265,11.098298 55.4505521,27.4164725 54.5118362,45.1748617 C53.7608634,53.1148349 51.5552564,25.4741369 61.2705911,10.7690631 C64.222665,10.5367946 65.7921981,11.0148617 65.7921981,11.0148617" id="Fill-115" fill="#424763"/>
        <path d="M51.5853704,13.0404832 C51.5853704,13.0404832 46.1573393,37.282094 49.9122031,45.8324295 C49.9122031,45.8324295 43.2097712,25.9776107 47.5278646,15.1699866 C49.6305883,13.4636779 51.5853704,13.0404832 51.5853704,13.0404832" id="Fill-117" fill="#424763"/>
        <path d="M42.2473245,18.6461208 C42.2473245,18.6461208 39.3523245,31.269047 42.3749899,43.4364564 C43.8123518,49.2236242 38.1087136,36.5285369 37.7474957,29.9596242 C37.4658809,24.838443 37.8255969,22.1812617 37.8255969,22.1812617 C37.8255969,22.1812617 40.3939237,19.6924564 42.2473245,18.6461208" id="Fill-119" fill="#424763"/>
        <path d="M88.1182428,68.0542819 C88.0716825,67.7724027 86.2055152,52.2134228 87.1945463,41.073557 C88.1355152,30.4703893 83.5155307,55.3381477 84.1726319,67.0357584 L84.5901728,67.2266846 L88.1355152,68.6075168 L88.1182428,68.0542819 Z" id="Fill-121" fill="#424763"/>
        <path d="M98.3374051,70.2557208 C98.3374051,70.2557208 95.3447786,56.6668886 95.4874634,50.4835866 C95.6278953,44.376204 93.3869926,59.787855 94.5134518,69.935506" id="Fill-123" fill="#424763"/>
        <path d="M106.610947,70.2557208 C106.610947,70.2557208 104.686204,55.1267007 105.156313,46.5801235 C105.625671,38.034298 103.480893,62.1526336 103.465873,70.2444456 C103.465122,70.6383248 105.813414,70.2527141 105.813414,70.2527141" id="Fill-125" fill="#424763"/>
        <path d="M187.009415,12.4201987 C187.009415,12.4201987 183.105108,11.8714738 180.569824,14.6519302 C180.436902,14.7338631 179.289415,13.4409772 179.289415,13.4409772 C179.289415,13.4409772 180.935547,10.0246013 186.253937,8.49418523 C186.253937,8.49418523 187.149847,10.5575409 187.009415,12.4201987" id="Fill-127" fill="#424763"/>
        <path d="M171.206019,9.40724832 C171.206019,9.40724832 172.791323,4.04026846 172.608837,0.495355705 C172.591564,0.229261745 176.431288,1.02378523 176.431288,1.02378523 C176.431288,1.02378523 176.411763,5.66389262 172.370778,9.78383893" id="Fill-129" fill="#424763"/>
        <path d="M167.381465,0.440708725 C167.381465,0.440708725 167.913154,6.44586309 167.148664,9.12634631 L169.143998,9.12634631 C169.143998,9.12634631 171.20617,4.49826577 170.873489,0.95335302 L170.773609,0.440708725" id="Fill-131" fill="#424763"/>
        <path d="M166.056224,0.440708725 C166.056224,0.440708725 166.265745,6.29853423 165.502006,9.20903087 L163.157469,9.40747383 C163.157469,9.40747383 163.090632,2.50105772 162.459064,0.636896644 C162.326142,0.336977181 165.085967,0.440708725 165.085967,0.440708725 L166.056224,0.440708725 Z" id="Fill-133" fill="#424763"/>
        <path d="M160.745194,0.721159732 C160.745194,0.721159732 161.909202,4.63289128 160.977996,9.7841396 L159.348385,10.0742872 C159.348385,10.0742872 158.716066,3.23326711 157.335778,1.03611275 C157.036891,0.403951678 158.018412,0.919602685 158.018412,0.919602685 L160.745194,0.721159732 Z" id="Fill-135" fill="#424763"/>
        <path d="M155.872658,1.23605906 C155.872658,1.23605906 156.255654,8.97157584 156.827895,10.441106 C156.788093,10.5237906 154.426284,10.956757 154.426284,10.956757 C154.426284,10.956757 153.09556,9.95852886 151.748315,1.90204564 C151.707763,1.53522685 152.344588,1.56905235 152.344588,1.56905235 L155.872658,1.23605906 Z" id="Fill-137" fill="#424763"/>
        <path d="M149.40911,2.03358926 C149.40911,2.03358926 150.417667,9.54209933 150.966628,11.5731329 L148.688927,12.072247 C148.688927,12.072247 146.244511,8.2770255 145.835231,2.70258255 L146.340635,2.60035436 L149.40911,2.03358926 Z" id="Fill-139" fill="#424763"/>
        <path d="M143.466588,3.44997584 C143.466588,3.44997584 143.628798,5.78318389 143.848082,6.87011007 C144.038829,7.81421745 144.481152,9.6588349 144.963276,10.5413047 C145.39884,11.3380832 145.999619,12.5054389 145.999619,12.5054389 L143.067821,13.1962309 C143.067821,13.1962309 141.138572,10.6578148 140.107486,6.82951946 C139.646389,5.11569396 139.459397,4.4489557 139.459397,4.4489557 L143.432794,3.22823087 L143.466588,3.44997584 Z" id="Fill-141" fill="#424763"/>
        <path d="M138.344353,5.39779866 C138.344353,5.39779866 140.306644,10.6242148 140.239808,13.7872752 L138.09503,14.202953 C138.09503,14.202953 136.747784,9.72520805 134.519648,6.09685906 C134.375461,5.91344966 134.951458,5.91344966 134.951458,5.91344966 L138.111551,4.81524832 L138.344353,5.39779866 Z" id="Fill-143" fill="#424763"/>
        <path d="M133.255085,7.05314362 C133.255085,7.05314362 135.499743,10.0087409 135.716023,14.4361235 C135.716023,14.4361235 134.684937,14.9187007 134.102933,14.9187007 C134.102933,14.9187007 132.12412,10.1650899 130.594389,8.70533154 L130.19412,8.40917047 L133.014023,6.72090201 L133.255085,7.05314362 Z" id="Fill-145" fill="#424763"/>
        <path d="M129.038223,9.52834362 C129.09004,9.52157852 129.806468,12.4719141 130.993756,15.0185987 L129.446752,15.0185987 C129.446752,15.0185987 127.866705,12.7049342 127.218616,12.2554309 C126.569775,11.8059275 128.389382,9.61177987 129.038223,9.52834362" id="Fill-147" fill="#424763"/>
        <path d="M184.848191,5.87864698 C184.848191,5.87864698 183.141981,3.84235168 182.754479,3.71306309 C182.367728,3.5837745 181.886354,5.87864698 181.886354,5.87864698 L181.170677,8.08256644 C181.170677,8.08256644 180.548872,9.64304966 180.572152,9.57314362" id="Fill-149" fill="#424763"/>
        <path d="M178.876305,1.76569128 C178.876305,1.76569128 179.329893,4.27103356 177.577873,6.43210738 L182.131772,3.04955705" id="Fill-151" fill="#424763"/>
        <path d="M184.282708,4.97791141 C184.3533,4.98693154 186.226977,3.15208591 186.226977,3.15208591 L185.545844,6.9059651 L184.282708,4.97791141 Z" id="Fill-153" fill="#D3D5DF"/>
        <path d="M184.160975,4.82524564 C185.693711,3.50905772 186.370337,3.04978255 186.370337,3.04978255 C186.370337,3.04978255 185.942283,4.8538094 185.545769,6.90588993" id="Stroke-155" stroke="#424763" stroke-width="0.5625"/>
        <path d="M179.643048,55.8395168 C179.643048,55.8395168 180.374496,53.7265503 180.318924,53.099651 C180.263352,52.4735034 180.662118,50.880698 181.225348,50.7551678 C181.788577,50.6303893 184.899858,51.5015839 185.737192,48.6677584 C186.085644,47.4891275 186.71571,45.1596779 186.903453,43.9013691 C187.091196,42.6423087 187.265422,42.1244027 188.053192,41.2629799 C188.840963,40.401557 190.496858,40.7616107 190.680095,41.1351946 C194.162356,48.2129933 191.267356,53.613047 189.383165,55.3381477 C186.151729,58.298255 183.184636,57.9066309 179.643048,55.8395168" id="Fill-157" fill="#C0A1A7"/>
        <path d="M162.135996,26.007302 C162.135996,26.007302 159.289809,34.113396 163.138544,38.1063087 C165.827778,40.8965369 176.673326,46.1800805 179.126754,51.6583087 C179.435404,52.4077315 179.67121,53.0534228 179.786109,53.6788188 C179.916778,54.3861477 179.892747,55.0664161 179.642673,55.8398926 C179.642673,55.8398926 183.115922,58.846604 187.481326,56.6381745 C191.846731,54.4304966 193.724163,49.1326711 190.908015,41.7278926 C188.091867,34.3231141 187.199712,34.3697181 186.308307,28.5915705 C185.416151,22.8126711 182.855334,18.0725906 178.537241,13.2340403" id="Stroke-159" stroke="#424763" stroke-width="0.5625"/>
        <path d="M190.68032,41.1348188 C190.68032,41.1348188 189.019168,40.2538523 187.762791,41.5106577 C186.871386,42.4028993 187.10569,43.4838121 186.54246,45.7854497 C185.979231,48.0878389 185.627025,50.0376913 183.937336,50.6480537 C182.247647,51.2591678 181.145219,50.2023087 180.581989,51.1885101 C180.01876,52.1754631 180.707402,53.3495839 179.862558,54.5710604" id="Stroke-161" stroke="#424763" stroke-width="0.5"/>
        <path d="M188.091492,54.5710604 C188.091492,54.5710604 188.701282,53.5608054 188.091492,52.3160268 C187.771577,51.5831409 187.598854,50.9066309 188.091492,50.554094 C188.58413,50.2023087 189.7579,51.2118121 189.264511,52.8091275 C188.748593,54.1719195 188.091492,54.5710604 188.091492,54.5710604 Z" id="Stroke-163" stroke="#424763" stroke-width="0.5"/>
        <path d="M182.248023,29.648204 C182.248023,29.648204 182.362921,26.1656805 179.431875,25.8898148 C176.682563,25.6312376 175.207653,25.4433181 175.207653,25.4433181 C175.207653,25.4433181 175.981906,26.0311302 176.055501,27.3894121 C176.138859,28.9145664 177.3667,29.2956671 179.619618,29.2257611 C181.872536,29.1551034 182.248023,29.648204 182.248023,29.648204" id="Fill-165" fill="#EDEEF4"/>
        <path d="M182.248023,29.648204 C182.248023,29.648204 182.362921,26.1656805 179.431875,25.8898148 C176.682563,25.6312376 175.207653,25.4433181 175.207653,25.4433181 C175.207653,25.4433181 175.981906,26.0311302 176.055501,27.3894121 C176.138859,28.9145664 177.3667,29.2956671 179.619618,29.2257611 C181.872536,29.1551034 182.248023,29.648204 182.248023,29.648204 Z" id="Stroke-167" stroke="#424763" stroke-width="0.5"/>
        <path d="M178.727838,26.007302 C178.727838,26.007302 177.789122,26.3831409 177.812402,27.416698 C177.836433,28.450255 178.305791,28.8441342 178.727838,29.1079732 C179.149884,29.3718121 179.862558,29.3597852 179.862558,29.3597852 C179.862558,29.3597852 182.130495,29.3191946 182.247647,29.6484295 C182.36555,29.9769128 182.281441,26.4259866 179.613235,25.9231141 C178.911075,25.7990872 178.727838,26.007302 178.727838,26.007302" id="Fill-169" fill="#424763"/>
        <path d="M172.164486,16.7680537 C172.164486,16.7680537 170.161642,14.6385503 171.945202,11.9445369 C173.728762,9.25127517 182.709646,2.79962416 182.709646,2.79962416 C182.709646,2.79962416 181.2077,8.18614765 180.268984,10.1284832 C179.330268,12.0700671 178.140727,13.8868725 177.671369,14.5445906" id="Stroke-171" stroke="#424763" stroke-width="0.5625"/>
        <path d="M174.386239,16.298255 C174.386239,16.298255 171.350807,13.1975839 182.70927,2.79962416" id="Fill-173" fill="#C0A1A7"/>
        <path d="M173.154568,10.5392 C173.154568,10.5392 169.974199,8.62467651 162.3706,10.065643 C155.850654,11.3006497 138.371012,14.7636295 134.616148,15.3897772 C130.861284,16.0166765 126.230035,14.951549 119.972179,15.3897772 C113.714323,15.828757 106.45467,17.0186631 101.948833,16.7683544 C97.4429965,16.517294 88.8068097,16.7052134 85.0519459,15.4529181 C81.2970821,14.1998711 65.5897358,9.3139651 56.8904673,11.1931597 C48.1919498,13.0723544 36.8019459,22.4059383 34.6744401,25.4126497 C32.5461833,28.4193611 31.9837047,31.8011597 31.920623,34.1817235 C31.8582922,36.5622872 31.0449887,55.3542336 48.7551794,50.2180188 C61.9595335,46.5220188 58.9241016,46.4438443 62.9140198,50.1082738 C65.7894946,52.7496698 79.4354206,69.4166228 95.7533078,70.0119517 C112.390358,70.6193074 126.323907,71.4837369 138.084891,53.6050792 C146.600172,40.8348242 158.244755,36.5239517 161.419117,34.7890792" id="Stroke-175" stroke="#424763" stroke-width="0.5625"/>
        <path d="M181.633426,17.1281074 C181.633426,17.1281074 183.961442,15.201557 186.448664,16.7680537 C186.448664,16.7680537 188.795454,10.269047 183.961442,4.58485906 C179.126679,-1.10008054 162.687886,0.300295302 158.22936,0.817449664 C153.770084,1.33385235 133.76417,3.46711409 128.219738,10.2359732 C125.10996,14.032698 127.545364,15.4225503 127.545364,15.4225503" id="Stroke-177" stroke="#424763" stroke-width="0.5625"/>
        <g id="Group-182" transform="translate(113.396887, 55.792537)">
          <path d="M14.4602058,2.12987919 C14.4602058,2.12987919 12.0195444,4.57283221 12.0195444,7.51715436 C12.0195444,10.4607248 11.8460696,26.5902282 11.8460696,26.5902282 C11.8460696,26.5902282 12.5362136,27.946255 13.3179763,29.1932886 C14.0471708,30.3576376 13.3960774,32.6983624 12.8959296,35.3292349 C12.3950307,37.9601074 12.7081864,41.717745 13.3960774,43.7224698 C14.0847195,45.7271946 15.5243342,47.0426309 15.5243342,47.0426309 C16.3751864,49.4976107 16.7364043,49.7749799 17.3386844,51.2084295 C17.6202992,51.8781745 11.7424354,51.7361074 11.0965988,51.6609396 C10.1458673,51.550443 11.4878556,50.6604564 10.6738012,49.6577181 C9.86049767,48.6557315 7.82611245,47.7048591 8.32701128,45.637745 C8.82791012,43.5706309 9.39113969,42.4701745 9.07798405,39.0876242 C8.76557938,35.7050738 6.71542374,30.6154631 6.21527588,30.114094 C5.71437704,29.6134765 6.82581673,28.3130738 6.51266109,25.995651 C6.19950545,23.6782282 3.32102685,11.0876242 0.379466537,5.82587919 C0.379466537,5.82587919 3.75884397,3.57084564 2.82012802,0.0627651007" id="Fill-179" fill="#D3D5DF"/>
          <path d="M14.4602058,2.12987919 C14.4602058,2.12987919 12.0195444,4.57283221 12.0195444,7.51715436 C12.0195444,10.4607248 11.8460696,26.5902282 11.8460696,26.5902282 C11.8460696,26.5902282 12.5362136,27.946255 13.3179763,29.1932886 C14.0471708,30.3576376 13.3960774,32.6983624 12.8959296,35.3292349 C12.3950307,37.9601074 12.7081864,41.717745 13.3960774,43.7224698 C14.0847195,45.7271946 15.5243342,47.0426309 15.5243342,47.0426309 C16.3751864,49.4976107 16.7364043,49.7749799 17.3386844,51.2084295 C17.6202992,51.8781745 11.7424354,51.7361074 11.0965988,51.6609396 C10.1458673,51.550443 11.4878556,50.6604564 10.6738012,49.6577181 C9.86049767,48.6557315 7.82611245,47.7048591 8.32701128,45.637745 C8.82791012,43.5706309 9.39113969,42.4701745 9.07798405,39.0876242 C8.76557938,35.7050738 6.71542374,30.6154631 6.21527588,30.114094 C5.71437704,29.6134765 6.82581673,28.3130738 6.51266109,25.995651 C6.19950545,23.6782282 3.32102685,11.0876242 0.379466537,5.82587919 C0.379466537,5.82587919 3.75884397,3.57084564 2.82012802,0.0627651007" id="Stroke-181" stroke="#424763" stroke-width="0.5625"/>
        </g>
        <path d="M124.493486,107.453477 L123.883696,111.416322 L135.664206,111.416322 C135.664206,111.416322 132.33214,108.738846 131.81547,107.799248 C131.81547,107.799248 130.971377,107.502336 130.477988,107.251275" id="Fill-183" fill="#313753"/>
        <path d="M114.608356,63.1346255 C115.341306,63.0744913 124.352979,61.9236725 124.352979,61.9236725 L115.957854,66.7389208 L114.608356,63.1346255 Z" id="Fill-185" fill="#424763"/>
        <path d="M118.823416,67.9603221 C118.823416,67.9603221 124.681755,66.742604 125.39593,66.7388456 C125.707584,66.738094 125.375654,69.1359463 125.375654,69.1359463 L118.823416,67.9603221 Z" id="Fill-187" fill="#424763"/>
        <path d="M125.367693,69.9804564 C125.367693,69.9804564 118.344596,70.9907114 117.758086,71.3898523 C117.171577,71.7889933 118.204164,73.6448859 118.204164,73.6448859 L125.356429,71.1786309 L125.367693,69.9804564 Z" id="Fill-189" fill="#424763"/>
        <path d="M118.823416,76.1582711 C118.823416,76.1582711 124.42342,76.2755329 125.150362,75.899694 L125.150362,78.5072644 L119.705809,79.5874255 L118.823416,76.1582711 Z" id="Fill-191" fill="#424763"/>
        <path d="M120.058091,83.4636779 C120.058091,83.4636779 124.704359,83.6982013 125.525923,83.2291544 C125.525923,83.2291544 126.887437,85.2722148 126.840126,85.7660671 C126.840126,85.7660671 120.833095,87.3370738 120.574009,87.2927248 L119.636044,85.4841879 L120.058091,83.4636779 Z" id="Fill-193" fill="#424763"/>
        <path d="M121.700844,90.4303034 C121.700844,90.4303034 125.697521,90.7332295 126.427466,90.4325584 C126.615209,90.3385987 125.925065,92.7890685 125.925065,92.7890685 C125.925065,92.7890685 122.804023,93.0078067 122.428536,92.960451 C122.05305,92.913847 121.677563,91.2759409 121.700844,90.4303034" id="Fill-195" fill="#424763"/>
        <path d="M122.921174,95.3965638 C122.921174,95.3965638 125.210139,95.5837315 125.831194,95.3928054 C126.089528,95.2747919 126.20668,97.722255 126.20668,97.722255 C126.20668,97.722255 124.212096,98.2153557 122.921174,97.8162148 C122.405256,97.6515973 122.66284,97.2051007 122.66284,97.2051007 L122.598256,95.3928054 L122.921174,95.3965638 Z" id="Fill-197" fill="#424763"/>
        <path d="M122.193632,100.217149 C122.287504,100.193847 124.219756,100.992129 126.347262,100.282545 C127.614904,99.8593503 127.755336,101.621283 127.755336,101.621283 C127.755336,101.621283 124.834052,102.806679 122.498527,102.65484 C120.691686,102.537579 122.193632,100.217149 122.193632,100.217149" id="Fill-199" fill="#424763"/>
        <path d="M31.9206981,34.9962416 C31.9206981,35.1841611 32.2961844,40.5714362 30.7319082,54.5398658 C29.1668809,68.5082953 18.1020482,71.1955436 16.4634257,71.8126711 C14.9764996,72.3726711 14.6956358,71.983302 15.2115541,74.5848591 C17.4021416,85.4841879 16.5880872,108.284832 16.5880872,108.284832 C16.5880872,108.284832 24.7864568,105.403651 23.7854101,104.588832 C21.6571533,102.960698 21.4694101,100.217074 21.4694101,100.217074 C21.4694101,100.217074 21.4070794,92.1237584 21.4694101,85.2609396 C21.5317409,78.3981208 23.2845113,78.969396 23.2845113,78.969396 C23.2845113,78.969396 37.8030677,80.0969128 49.4431455,69.9808322 C63.3361416,58.3606443 62.085021,43.264698 62.085021,43.264698 C62.085021,43.264698 55.551558,46.7825503 50.0011183,49.1029799 C42.7684996,52.1277315 31.9206981,34.9962416 31.9206981,34.9962416" id="Fill-201" fill="#D3D5DF"/>
        <path d="M62.0846455,43.264698 C62.0846455,43.264698 63.3365171,58.3606443 49.443521,69.9808322 C37.8034432,80.0969128 23.2841358,78.969396 23.2841358,78.969396 C23.2841358,78.969396 21.5321163,78.3981208 21.4697856,85.2609396 C21.4067039,92.1237584 21.4697856,100.217074 21.4697856,100.217074 C21.4697856,100.217074 21.6575288,102.960698 23.7850346,104.588832 C24.7860813,105.403651 16.5884626,108.284832 16.5884626,108.284832 C16.5884626,108.284832 17.4017661,85.4841879 15.2111786,74.5848591 C14.6960113,71.983302 14.9761241,72.3726711 16.4630502,71.8126711 C18.1024237,71.1955436 29.1672564,68.5082953 30.7315327,54.5398658 C32.2958089,40.5714362 31.9203226,35.1841611 31.9203226,34.9962416" id="Stroke-203" stroke="#424763" stroke-width="0.5625"/>
        <path d="M17.7772525,111.322738 C17.7772525,111.322738 18.480163,110.204993 18.0656261,107.741745 C18.4088206,107.610953 23.4876494,105.236403 23.4876494,105.236403 L27.1020813,107.908617 L28.79177,111.322738 L17.7772525,111.322738 Z" id="Fill-205" fill="#313753"/>
        <path d="M39.6804996,48.0878389 C39.6804996,48.0878389 45.873021,63.4949799 52.5679432,67.0579329 C52.822523,67.1932349 50.173842,69.353557 50.173842,69.353557 C50.173842,69.353557 44.1240054,64.4992215 39.6804996,48.0878389" id="Fill-207" fill="#424763"/>
        <path d="M31.7993409,42.1929557 C31.7993409,42.1929557 38.9260724,59.5875329 43.1855899,65.0003651 C46.4395549,69.1360966 36.4891658,60.0520698 31.4824304,47.7749154" id="Fill-209" fill="#424763"/>
        <path d="M31.0982327,51.0798926 C31.0982327,51.0798926 38.1934233,69.8199732 43.8257191,73.9542013 L40.1812482,75.9002953 C40.1812482,75.9002953 32.3448475,62.7474362 30.7798202,54.1031409 C30.9818319,52.0345235 31.0982327,51.0798926 31.0982327,51.0798926" id="Fill-211" fill="#424763"/>
        <path d="M29.5793903,59.730051 C29.5793903,59.730051 31.5251607,75.0229369 35.570651,77.4110174 L32.1019078,78.2483866 C32.1019078,78.2483866 28.1683125,73.3436886 27.4804214,64.0003329 C27.8529039,63.1840107 29.5793903,59.730051 29.5793903,59.730051" id="Fill-213" fill="#424763"/>
        <path d="M23.9877973,67.8872591 C23.9877973,67.8872591 26.6056883,77.3576483 28.1076339,78.8309369 L25.3478089,78.9978094 C25.3478089,78.9978094 22.4077506,74.5847087 22.119377,69.3537826 C22.0983498,68.9764403 23.9877973,67.8872591 23.9877973,67.8872591" id="Fill-215" fill="#424763"/>
        <path d="M18.0093782,71.2775517 C18.2564482,71.2354577 22.1194521,78.5304913 22.7915728,79.1055248 C22.7915728,79.1055248 21.5907673,80.5126658 21.7785105,81.3891221 C21.9662537,82.2663302 15.2112537,74.5841826 15.2112537,74.5841826 C15.2112537,74.5841826 14.733635,72.9770953 15.0452887,72.5170685 C15.3914872,72.0066792 16.7973082,71.4827597 18.0093782,71.2775517" id="Fill-217" fill="#424763"/>
        <path d="M21.4694101,85.2610148 L16.3282506,84.1056859 C16.3282506,84.1056859 16.3380132,87.8016859 16.5257564,87.7392966 C16.7134996,87.6761557 21.4506358,88.1143839 21.4506358,88.1143839 L21.4694101,85.2610148 Z" id="Fill-219" fill="#424763"/>
        <polygon id="Fill-221" fill="#424763" points="21.4694101 91.3093154 16.6346475 90.8748456 16.7104957 94.5685906 21.444628 94.817396"/>
        <path d="M21.4624261,99.1395436 L16.7350525,99.3898523 L16.6344222,104.589208 C16.6344222,104.589208 20.776037,103.555651 22.1195272,102.835544 C22.4334339,102.666416 21.2746829,100.956349 21.4624261,99.1395436" id="Fill-223" fill="#424763"/>
      </g>
    </g>
  </g>
</svg>