<svg version="1.1" width="127" height="97" viewBox="-1 -1 127 97" xmlns="http://www.w3.org/2000/svg" xmlns:xlink="http://www.w3.org/1999/xlink">
  <!-- Exported by Scratch - http://scratch.mit.edu/ -->
  <path id="Shape" fill="#000000" stroke="none" stroke-width="1" d="M 81.546 16.943 L 93.075 14.794 C 94.561 17.950 95.609 21.671 99.512 23.045 C 112.286 27.564 113.966 46.527 115.618 47.525 C 115.722 48.114 109.667 48.532 109.389 49.041 L 103.886 51.659 C 97.888 45.956 90.267 39.911 88.559 38.481 C 78.285 29.860 82.405 20.859 81.546 16.943 Z "/>
  <path id="Shape" fill="#BE8264" stroke="none" stroke-width="1" d="M 74.769 26.894 C 71.466 22.051 72.131 18.848 72.603 13.297 C 72.603 13.297 74.326 3.170 82.348 3.146 L 88.077 9.800 C 88.077 9.800 93.419 14.951 89.965 25.749 C 88.955 28.905 84.967 31.105 83.113 31.476 C 77.728 32.550 75.732 28.310 74.769 26.894 Z "/>
  <path id="Shape" fill="#A06446" stroke="none" stroke-width="1" d="M 74.391 20.911 C 74.647 14.557 73.245 15.949 71.955 16.158 C 71.331 17.456 71.341 19.138 71.577 21.044 C 71.786 21.182 71.986 21.434 72.165 21.405 C 72.922 21.296 73.669 21.091 74.391 20.911 Z "/>
  <path id="Shape" fill="#000000" stroke="none" stroke-width="1" d="M 80.843 16.287 C 80.843 16.287 81.287 25.739 94.368 29.275 L 98.360 25.350 L 89.729 15.255 L 80.843 16.287 Z "/>
  <path id="Shape" fill="#008264" stroke="none" stroke-width="1" d="M 71.697 13.497 C 75.539 13.587 89.748 15.764 93.674 15.726 C 94.887 9.329 89.946 1.269 81.565 1.378 C 70.650 1.526 71.730 13.497 71.697 13.497 Z "/>
  <path id="Shape" fill="#008264" stroke="none" stroke-width="1" d="M 87.587 16.187 L 96.586 19.856 L 93.797 16.063 L 87.587 16.187 "/>
  <path id="Shape" fill="#BE0A3C" stroke="none" stroke-width="1" d="M 74.137 12.941 L 94.429 12.157 C 94.429 12.157 94.807 15.959 94.514 16.819 C 92.310 17.294 74.826 17.508 73.868 17.232 L 74.137 12.941 Z "/>
  <path id="Shape" fill="#F01446" stroke="none" stroke-width="1" d="M 71.730 32.136 C 71.056 28.334 70.853 10.379 70.848 9.087 C 70.848 7.038 70.985 1.288 71.480 0.841 C 73.703 -0.185 76.742 0.442 76.742 0.442 C 76.742 0.442 77.304 7.918 77.393 10.455 C 77.497 13.416 77.516 24.599 77.304 26.918 C 77.134 28.819 77.554 31.913 76.213 33.329 C 75.053 33.895 73.854 33.643 72.665 33.495 C 72.180 33.192 71.842 32.700 71.730 32.136 Z "/>
  <path id="Shape" fill="#F0E6D2" stroke="none" stroke-width="1" d="M 67.474 26.552 C 67.423 23.377 67.431 18.430 67.431 18.430 L 70.424 18.430 L 70.142 26.552 L 67.474 26.552 Z "/>
  <path id="Shape" fill="#F0E6D2" stroke="none" stroke-width="1" d="M 67.503 12.779 C 67.451 9.605 67.460 4.657 67.460 4.657 L 70.452 4.657 L 70.170 12.784 L 67.503 12.779 Z "/>
  <path id="Shape" fill="#F0E6D2" stroke="none" stroke-width="1" d="M 63.609 19.176 C 72.915 19.262 66.841 19.324 75.274 19.176 L 75.274 11.249 L 63.618 11.059 L 63.609 19.176 Z M 73.660 13.141 C 73.660 14.310 73.708 17.337 73.708 17.337 L 65.161 17.518 L 65.275 13.145 C 65.275 13.145 68.082 13.259 73.660 13.141 Z "/>
  <path id="Shape" fill="#BE8264" stroke="none" stroke-width="1" d="M 81.003 21.386 C 78.719 20.070 78.172 18.644 81.112 15.312 C 82.853 13.326 85.449 14.200 85.751 16.486 C 86.128 19.338 83.580 21.220 81.003 21.386 Z "/>
  <path id="Shape" fill="#BE8264" stroke="none" stroke-width="1" d="M 65.695 51.469 L 60.452 45.624 C 55.189 50.347 49.389 54.428 43.175 57.781 C 40.721 59.064 34.841 61.136 30.108 62.438 C 26.658 63.389 23.695 63.764 23.704 63.921 C 23.704 64.291 26.177 63.583 26.370 64.272 C 26.564 64.962 23.893 65.014 23.501 65.109 L 23.501 65.218 L 25.941 65.442 C 26.182 65.622 26.328 65.808 26.191 66.145 C 25.445 66.440 24.648 66.145 23.831 66.245 C 23.921 66.349 23.964 66.430 24.030 66.468 C 25.134 67.102 26.235 67.724 27.333 68.336 C 27.501 68.416 27.672 68.487 27.847 68.550 C 29.263 69.153 30.811 69.168 32.321 69.096 C 39.250 69.008 46.063 67.291 52.217 64.082 C 65.548 57.120 64.529 51.902 65.695 51.469 Z "/>
  <path id="Shape" fill="#BE0A3C" stroke="none" stroke-width="1" d="M 69.328 37.017 C 69.328 37.017 60.744 42.150 56.370 46.161 L 64.425 56.616 L 69.328 37.017 Z "/>
  <path id="Shape" fill="#F01446" stroke="none" stroke-width="1" d="M 103.400 40.705 C 103.400 40.705 73.840 34.156 71.405 35.320 C 69.778 36.098 68.345 37.235 67.214 38.647 C 66.818 39.122 61.160 67.937 61.485 68.217 L 82.381 65.646 L 98.219 57.980 L 108.129 50.243 L 103.400 40.705 Z "/>
  <path id="Shape" fill="#6E1E3C" stroke="none" stroke-width="1" d="M 95.142 35.135 C 91.787 32.735 87.058 31.499 82.400 31.566 C 77.908 31.632 73.481 32.911 70.428 35.530 C 70.357 36.442 66.261 62.305 66.181 63.170 L 101.659 63.455 C 101.626 62.970 97.487 37.511 95.142 35.135 Z "/>
  <path id="Shape" fill="#00A08C" stroke="none" stroke-width="1" d="M 41.165 81.543 L 40.967 79.290 L 58.503 72.651 L 55.563 85.117 L 41.165 81.543 "/>
  <path id="Shape" fill="#F01446" stroke="none" stroke-width="1" d="M 95.416 94.194 C 92.811 93.947 86.921 87.907 86.921 87.907 L 63.042 82.204 L 62.188 94.028 C 62.188 94.028 81.928 93.833 91.796 93.833 C 91.999 93.709 94.524 94.821 95.099 95.026 L 95.491 94.793 L 95.416 94.194 Z "/>
  <path id="Shape" fill="#00A08C" stroke="none" stroke-width="1" d="M 41.165 81.543 C 41.325 81.885 40.764 84.371 43.930 87.674 C 47.097 90.977 50.853 92.640 59.796 93.790 L 62.547 81.709 C 62.547 81.709 41.660 81.586 41.165 81.543 Z "/>
  <path id="Shape" fill="#6E1E3C" stroke="none" stroke-width="1" d="M 64.345 95.658 L 67.847 81.172 L 61.565 80.901 L 57.729 95.178 L 64.345 95.658 "/>
  <path id="Shape" fill="#6E1E3C" stroke="none" stroke-width="1" d="M 72.457 81.305 L 69.998 81.201 L 66.162 95.477 L 68.602 95.653 L 72.457 81.305 "/>
  <path id="Shape" fill="#6E1E3C" stroke="none" stroke-width="1" d="M 76.619 81.296 L 74.161 81.191 L 70.324 95.468 L 72.764 95.644 L 76.619 81.296 "/>
  <path id="Shape" fill="#008264" stroke="none" stroke-width="1" d="M 118.218 54.701 L 115.755 42.962 C 113.164 42.487 109.242 45.999 107.341 47.449 C 105.821 48.604 98.620 53.627 92.867 57.533 C 91.451 58.484 89.002 59.107 86.515 59.354 C 82.962 59.311 79.385 59.263 75.874 59.401 C 71.329 59.587 66.676 58.964 62.188 59.990 C 56.398 61.312 49.919 64.591 45.502 69.339 C 41.660 73.450 40.957 79.290 40.957 79.290 L 83.901 78.972 C 112.069 78.972 114.282 67.808 115.689 66.411 C 118.921 63.208 115.307 58.147 118.218 54.701 Z "/>
  <path id="Shape" fill="#00A08C" stroke="none" stroke-width="1" d="M 125.320 53.532 C 124.476 48.038 121.456 43.894 115.755 42.962 C 114.514 47.682 109.875 64.938 109.497 68.730 L 123.999 67.637 C 124.948 63.170 126.024 58.090 125.320 53.532 Z "/>
  <path id="Shape" fill="#F01446" stroke="none" stroke-width="1" d="M 109.724 65.109 L 109.455 65.755 C 107.190 75.217 104.873 84.794 101.720 93.961 C 103.764 93.961 105.057 94.137 106.652 93.961 C 107.652 93.857 108.988 93.961 110.149 93.804 C 110.149 93.543 110.215 93.282 110.257 93.020 L 107.831 93.020 C 108.827 90.977 111.475 89.175 112.857 87.317 C 114.698 84.841 116.477 82.270 118.162 79.670 C 121.026 75.255 122.881 70.242 124.230 65.090 L 109.724 65.109 Z "/>
  <path id="Shape" fill="#6E1E3C" stroke="none" stroke-width="1" d="M 124.547 69.947 L 107.836 69.567 L 109.393 63.389 L 125.976 63.389 L 124.547 69.947 "/>
  <path id="Shape" fill="#6E1E3C" stroke="none" stroke-width="1" d="M 106.166 74.677 L 106.784 71.663 L 123.527 71.663 L 122.999 74.677 L 106.166 74.677 "/>
  <path id="Shape" fill="#6E1E3C" stroke="none" stroke-width="1" d="M 104.920 78.726 L 105.533 75.712 L 122.281 75.712 L 121.748 78.726 L 104.920 78.726 "/>
  <path id="Shape" fill="#BE8264" stroke="none" stroke-width="1" d="M 20.656 31.960 L 89.932 29.746 L 89.776 39.864 L 19.622 38.980 L 20.656 31.960 "/>
  <path id="Shape" fill="#BE0A3C" stroke="none" stroke-width="1" d="M 103.400 40.705 C 97.987 40.881 89.507 40.957 84.113 40.743 C 83.641 39.697 84.774 28.653 84.774 28.653 C 84.774 28.653 92.211 28.116 96.661 30.739 C 101.550 33.629 103.485 39.745 103.400 40.705 Z "/>
  <path id="Shape" fill="#824600" stroke="none" stroke-width="1" d="M 13.902 24.713 C 13.733 24.238 8.041 22.669 7.768 21.994 C 7.013 22.826 4.346 24.808 3.841 25.625 C 3.539 26.101 3.214 26.576 2.898 27.051 L 2.308 27.935 C 1.732 28.814 1.524 29.836 1.189 30.810 C 0.546 32.770 0.302 34.841 0.472 36.898 C 0.580 38.657 1.255 40.287 1.850 41.922 C 1.986 42.248 2.144 42.566 2.322 42.872 C 2.407 43.029 2.501 43.176 2.581 43.347 C 3.011 44.165 3.426 44.987 3.860 45.800 C 3.936 45.937 6.805 48.143 6.975 48.328 L 14.809 38.253 C 14.809 38.253 14.157 25.321 13.902 24.713 Z "/>
  <path id="Shape" fill="#642800" stroke="none" stroke-width="1" d="M 11.326 26.661 C 9.844 28.144 7.975 32.074 7.494 33.956 C 6.876 36.356 7.494 38.614 8.542 40.829 C 8.744 41.009 10.217 43.832 10.505 44.089 C 10.774 44.089 17.697 44.911 17.697 44.911 L 20.764 28.163 L 11.326 26.661 Z "/>
  <path id="Shape" fill="#A0640A" stroke="none" stroke-width="1" d="M 6.767 23.430 C 6.936 22.854 7.281 22.347 7.753 21.980 C 13.638 19.808 21.033 20.754 24.818 25.782 C 28.192 30.245 30.141 35.069 28.121 40.401 C 24.667 49.430 14.039 50.956 7.414 49.098 C 6.111 47.853 5.606 47.140 5.333 46.156 C 5.737 44.570 6.799 43.235 8.249 42.492 C 8.556 42.558 10.693 42.050 10.774 42.069 C 14.837 41.332 18.796 38.932 17.470 33.838 C 16.168 28.795 7.631 28.353 6.767 23.430 Z "/>
  <path id="Shape" fill="#BE8264" stroke="none" stroke-width="1" d="M 32.440 36.418 C 32.440 36.418 32.261 36.116 31.722 35.634 C 31.901 36.146 32.111 36.448 32.440 36.418 Z "/>
</svg>