<svg width="173px" height="263px" viewBox="0 0 173 263" version="1.1" xml:space="preserve" xmlns="http://www.w3.org/2000/svg" xmlns:xlink="http://www.w3.org/1999/xlink">
  <defs/>
  <g>
    <title>giraffe-c</title>
    <desc>Created with Sketch.</desc>
    <g id="giraffe-c" stroke="none" stroke-width="1" fill="none" fill-rule="evenodd">
      <g id="Group">
        <polygon id="Fill-1" fill="#624B59" points="113.37194 257.407241 113.277918 258.473478 113.277918 262.673236 126.064874 262.673236 123.558631 259.076654 119.295309 257.407241"/>
        <g id="Group-280" transform="translate(0.000000, 0.422598)">
          <path d="M71.646897,130.282407 C71.646897,130.282407 74.1854839,130.844373 73.6213535,139.648504 C73.057223,148.452635 73.2452665,152.199074 73.2452665,152.199074 C73.2452665,152.199074 72.5871143,154.634259 76.0659187,157.725071 C79.544723,160.815883 88.57081,171.586895 94.3068883,186.926313 C94.3068883,186.926313 99.2892883,198.18661 99.5713535,200.528134 C99.8534187,202.869658 98.9132013,205.211182 99.5713535,207.178063 C100.229506,209.144943 104.366462,215.232906 105.964832,222.819444 C105.964832,222.819444 110.853962,243.518519 110.289832,253.914886 C112.452332,254.664174 111.888201,256.401023 113.298527,256.984718 C114.708853,257.567664 117.811571,257.243972 119.221897,256.984718 C119.221897,256.984718 121.854506,255.788105 119.64161,249.887464 C116.852549,242.450034 114.356836,236.819137 112.92244,228.720085 C111.512114,220.758903 110.301867,215.970205 110.571897,213.266026 C110.758436,211.393556 111.208236,207.662103 111.136027,205.492165 C111.009662,201.698521 108.03331,200.059829 104.930593,192.098647 C101.827875,184.137464 97.22081,165.31161 96.6566796,161.565171 C96.0925491,157.818732 96.1865709,153.791311 97.22081,150.044872 C98.2550491,146.298433 101.169723,133.935185 100.699614,125.131054 C100.699614,125.131054 87.86151,137.681624 88.3624578,132.342949 C89.665223,118.471385 72.9496622,129.118014 71.646897,130.282407" id="Fill-2" fill="#DEBB9B"/>
          <path d="M119.394521,256.984418 C119.136525,257.000903 117.639699,256.360262 117.70213,255.485843 C117.76456,254.611424 118.76796,252.800395 118.20383,251.426951 C117.639699,250.053507 116.694969,247.806393 117.699873,247.368809 C118.704777,246.931225 120.397169,251.239629 120.42876,252.925526 C120.460351,254.611424 120.334738,256.922227 119.394521,256.984418" id="Fill-4" fill="#AF7444"/>
          <path d="M112.306184,256.380792 C112.306184,256.380792 116.004623,254.631954 115.440493,253.133379 C114.876363,251.634803 114.119676,248.825724 113.902297,247.763983 C113.684919,246.702242 113.748102,245.51537 112.58825,245.827823 C111.428397,246.140276 110.237706,247.358618 110.237706,247.358618 L110.48818,253.508023 C110.48818,253.508023 112.352067,255.280088 112.306184,256.380792" id="Fill-6" fill="#AF7444"/>
          <path d="M117.257745,243.949434 C117.257745,243.949434 111.61945,244.22667 111.11775,243.726895 C110.61605,243.227121 109.362928,234.797633 109.362928,234.797633 C109.362928,234.797633 109.111702,232.48683 109.927058,232.424639 C110.741663,232.362448 114.367893,234.680744 114.369397,234.805875 C114.393467,236.42134 115.300589,236.323932 117.257745,243.949434" id="Fill-8" fill="#AF7444"/>
          <path d="M113.277993,230.717687 C113.277993,230.717687 109.550971,230.801607 108.986841,228.990578 C108.42271,227.17955 108.986841,219.000325 108.986841,217.751262 C108.986841,216.502199 109.927058,216.162023 110.491189,215.725188 C111.055319,215.288353 111.382515,220.202182 112.197119,224.385456 C113.011723,228.568729 113.277993,230.717687 113.277993,230.717687" id="Fill-10" fill="#AF7444"/>
          <path d="M107.795322,226.930262 C107.862266,227.170783 108.046548,221.247664 107.795322,220.061541 C107.544096,218.875419 107.043148,219.562515 106.354157,219.437384 C105.663661,219.312253 107.482418,225.80633 107.795322,226.930262" id="Fill-12" fill="#AF7444"/>
          <path d="M105.11495,219.350991 C105.240563,218.976348 108.735163,214.69192 108.735163,214.69192 C108.735163,214.69192 109.863424,214.316527 109.738563,213.130405 C109.612198,211.944282 108.98639,207.94833 108.735163,206.699268 C108.483937,205.450205 107.76862,204.576536 107.060824,204.951179 C106.353781,205.325823 105.287198,206.449755 104.346981,206.075111 C103.406763,205.700467 102.780203,204.888239 102.090459,205.637527 C101.401468,206.386815 100.758359,208.341707 100.382272,208.778541 C100.006185,209.215376 102.483094,211.943533 103.297698,214.628231 C104.112303,217.312929 105.11495,219.350991 105.11495,219.350991" id="Fill-14" fill="#AF7444"/>
          <path d="M110.491113,204.863588 C110.491113,204.863588 107.046909,204.264158 106.198457,202.952904 C105.350757,201.64165 105.914135,202.008801 107.419235,201.180838 C108.924335,200.352126 109.00557,201.90465 109.748718,203.021838 C110.491113,204.139026 110.491113,204.863588 110.491113,204.863588" id="Fill-16" fill="#AF7444"/>
          <path d="M108.413835,199.027311 C108.413835,199.027311 104.598809,201.704516 102.029383,201.766707 C99.4592043,201.828897 98.1812609,196.033157 98.1812609,196.033157 L104.07003,189.516601 C104.07003,189.516601 107.221639,198.094447 108.413835,199.027311" id="Fill-18" fill="#AF7444"/>
          <path d="M96.32467,190.02784 C96.2261352,189.661438 96.1366265,182.721535 97.0144135,181.535413 C97.8922004,180.34929 100.148722,179.35049 100.148722,179.35049 C100.148722,179.35049 101.338661,183.783276 102.154018,185.843817 C102.969374,187.904359 101.339413,190.651248 99.9606787,191.463475 C98.5811917,192.275703 97.0136613,192.588156 96.32467,190.02784" id="Fill-20" fill="#AF7444"/>
          <path d="M100.618079,177.900918 C100.618079,177.900918 96.1366265,179.537362 94.8203222,177.976596 C93.5040178,176.415829 94.6954613,175.604351 95.0715483,175.104576 C95.4476352,174.604801 99.0340004,172.488063 99.1588613,172.300741 C99.2844743,172.113419 100.618079,177.526274 100.618079,177.900918" id="Fill-22" fill="#AF7444"/>
          <path d="M94.8938096,188.100447 C94.8938096,188.100447 95.9483574,182.034214 95.2593661,180.7859 C94.5696226,179.537587 92.9396617,178.788299 92.4387139,176.602627 C91.9370139,174.416954 91.310453,172.38039 90.5582791,173.711125 C89.8061052,175.04186 89.4736443,176.091613 89.4736443,176.091613 C89.4736443,176.091613 95.1202139,186.641584 94.8938096,188.100447" id="Fill-24" fill="#AF7444"/>
          <path d="M98.6451265,171.08712 C98.6451265,171.08712 95.8688526,172.222291 95.5010396,172.788752 C95.1339787,173.355963 94.5698483,174.416954 93.8176743,174.167442 C93.0655004,173.917929 89.5551048,171.670815 89.3670613,170.109299 C89.1790178,168.547783 90.4953222,164.239379 91.1850657,161.742003 C91.8748091,159.244627 91.7491961,158.120695 93.2535439,157.433598 C94.7578917,156.746501 95.5093135,157.746051 95.948583,158.370208 C96.3878526,158.994365 98.0636961,169.43494 98.6451265,171.08712" id="Fill-26" fill="#AF7444"/>
          <path d="M96.2644209,156.226496 C96.2644209,156.226496 93.3301904,154.623769 92.7592904,153.68716 C92.1876383,152.75055 90.9961948,150.78292 90.8713339,149.831325 C90.746473,148.87898 90.3703861,148.375459 90.8713339,147.534758 C91.3722817,146.694057 96.8262948,144.945219 97.7040817,144.383254 C98.5811165,143.821288 98.9572035,144.132991 98.2050296,146.256473 C97.4528557,148.379954 96.6698426,153.047268 96.6698426,153.047268 L96.2644209,156.226496 Z" id="Fill-28" fill="#AF7444"/>
          <path d="M85.8016065,169.832887 C85.8016065,169.832887 86.9847761,169.859112 87.23525,168.672989 C87.4864761,167.486867 86.9223457,165.114622 88.0506065,162.241853 C89.1788674,159.369083 91.8114761,156.933898 91.4353891,155.935098 C91.0593022,154.936297 89.9934717,152.813565 89.6798152,151.939146 C89.3669109,151.064727 89.2157239,150.815215 88.60195,150.877405 C87.9874239,150.939596 86.0445587,154.061129 84.9787283,154.124069 C83.91365,154.187009 82.7853891,154.061878 82.3461196,155.373132 C81.9083543,156.684385 80.7800935,162.304044 80.7800935,162.304044 C80.7800935,162.304044 85.1750457,168.397252 85.8016065,169.832887" id="Fill-30" fill="#AF7444"/>
          <path d="M77.81194,159.370732 C77.937553,159.18341 81.53144,154.18641 82.2211835,153.374931 C82.910927,152.563453 83.2245835,151.485228 83.2870139,150.868564 C83.3494443,150.252649 82.5972704,149.812068 81.2185357,147.534983 C79.8398009,145.257897 80.0278443,144.50786 79.087627,144.632991 C78.1474096,144.758122 73.2582791,151.127068 74.6370139,149.441171 C76.0157487,147.755273 72.5580052,153.526287 74.2503965,155.586829 C75.9427878,157.64737 77.81194,159.370732 77.81194,159.370732" id="Fill-32" fill="#AF7444"/>
          <path d="M83.2909252,142.135615 C83.2909252,142.135615 82.4093774,147.813718 84.1017687,147.534983 C85.79416,147.256248 90.8713339,144.945444 93.1278557,143.103695 C95.3843774,141.261946 98.50966,140.262396 98.6081948,139.263595 C98.7067296,138.264795 98.5720904,137.390376 98.6081948,137.015732 C98.6442991,136.641088 98.7067296,136.078373 97.7665122,135.953991 C96.8262948,135.829609 91.8115513,135.142513 91.8115513,135.142513 C91.8115513,135.142513 90.62086,135.141763 89.9942991,135.579347 C89.3669861,136.016931 90.0567296,138.201854 88.1138643,139.263595 C86.170247,140.325336 84.7290817,140.512658 84.1649513,140.887302 C83.6008209,141.261946 83.3428252,141.759473 83.2909252,142.135615" id="Fill-34" fill="#AF7444"/>
          <path d="M74.8877135,145.008384 C74.8877135,145.008384 81.2059743,141.011683 83.0615874,139.513108 C84.9172004,138.014532 85.7054787,137.953091 86.1259439,136.953541 C86.5464091,135.953991 87.0458526,134.934211 86.9209917,130.750937 C86.7953787,126.567664 85.9777657,127.174587 85.2880222,126.925074 C84.5982787,126.675561 80.7652004,125.693245 80.7652004,125.693245 C80.7652004,125.693245 78.406383,128.34947 77.9039309,128.973626 C77.402983,129.597783 76.1408352,132.645136 75.2638004,134.018581 C74.3867657,135.392025 75.075757,138.201854 74.8877135,139.825561 C74.69967,141.449268 74.3687135,144.457658 74.8064787,144.619504" id="Fill-36" fill="#AF7444"/>
          <path d="M71.7203843,130.282407 C71.7203843,130.282407 74.2589713,130.844373 73.6948409,139.648504 C73.1307104,148.452635 73.3187539,152.199074 73.3187539,152.199074 C73.3187539,152.199074 72.6606017,154.634259 76.1394061,157.725071 C79.6182104,160.815883 88.6442974,171.586895 94.3803757,186.926313 C94.3803757,186.926313 99.3627757,198.18661 99.6448409,200.528134 C99.9269061,202.869658 98.9866887,205.211182 99.6448409,207.178063 C100.302993,209.144943 104.43995,215.232906 106.038319,222.819444 C106.038319,222.819444 110.92745,243.518519 110.363319,253.914886 C112.525819,254.664174 111.961689,256.401023 113.372015,256.984718 C114.782341,257.567664 117.885058,257.243972 119.295384,256.984718 C119.295384,256.984718 121.927993,255.788105 119.715097,249.887464 C116.926037,242.450034 114.430323,236.819137 112.995928,228.720085 C111.585602,220.758903 110.375354,215.970205 110.645384,213.266026 C110.831923,211.393556 111.281723,207.662103 111.209515,205.492165 C111.08315,201.698521 108.106797,200.059829 105.00408,192.098647 C101.901363,184.137464 97.2942974,165.31161 96.730167,161.565171 C96.1660365,157.818732 96.2600583,153.791311 97.2942974,150.044872 C98.3285365,146.298433 101.24321,133.935185 100.773102,125.131054" id="Stroke-38" stroke="#533D37" stroke-width="0.5625"/>
          <path d="M24.3781822,141.14708 C24.4722039,151.543447 31.4298126,157.63141 29.1732909,170.088319 C26.9167691,182.545228 14.4118778,195.095798 14.4118778,195.095798 C14.4118778,195.095798 14.693943,211.954772 10.6510083,229.18839 C6.60807348,246.422009 0.402638696,256.25641 0.402638696,256.25641 C4.06948652,258.12963 8.58253,256.912037 8.58253,256.912037 C7.73633435,255.132479 10.4629648,245.017094 10.4629648,245.017094 C10.4629648,245.017094 19.2069865,215.420228 21.55753,207.833689 C23.9080735,200.247151 23.9080735,197.905627 39.6097039,176.363604 C55.3113343,154.821581 51.5504648,141.14708 51.5504648,141.14708 C51.5504648,141.14708 47.7895952,136.557692 38.481443,146.01745 C31.0138604,153.606986 24.3781822,141.14708 24.3781822,141.14708" id="Fill-40" fill="#DEBB9B"/>
          <polygon id="Fill-42" fill="#AF7444" points="4.12243957 248.932497 9.68025261 248.162229 11.2462787 241.208839 6.76106565 242.341762"/>
          <path d="M7.62471174,239.859821 C7.71873348,239.672499 9.7074813,232.944645 9.7074813,232.944645 C9.7074813,232.944645 13.1892943,231.529989 13.9888552,231.717311 C14.7876639,231.904633 12.2227509,239.070072 12.2227509,239.070072 L7.62471174,239.859821 Z" id="Fill-44" fill="#AF7444"/>
          <path d="M15.2919213,228.720085 C15.2919213,228.720085 11.6852474,228.251781 10.7879039,228.600199 L11.8732909,223.327462 L17.8011735,220.293595 L15.2919213,228.720085 Z" id="Fill-46" fill="#AF7444"/>
          <path d="M12.3963526,220.290598 C12.3467091,220.397746 16.1512048,217.668091 17.0914222,217.246991 C18.0316396,216.825142 19.1132657,212.469533 19.1132657,212.469533 C19.1132657,212.469533 19.8180526,209.613248 18.5491352,209.894231 C17.2794657,210.175214 15.8691396,211.353094 16.0105483,209.874749 C16.1512048,208.395655 16.6213135,200.294356 16.6213135,200.294356 C16.6213135,200.294356 14.8191048,198.436123 14.5370396,198.529783 C14.2549743,198.623444 13.2177265,218.51104 12.3963526,220.290598" id="Fill-48" fill="#AF7444"/>
          <path d="M21.3378952,208.546337 C21.1972387,208.546337 17.4672083,208.302069 17.4205735,206.943611 C17.3731865,205.585901 17.7026387,199.825377 17.7026387,199.68526 C17.7026387,199.544394 17.56123,197.952158 18.5488343,197.624719 C19.5356865,197.296531 27.3793561,194.179494 27.3793561,194.179494 C27.3793561,194.179494 24.4676909,199.184736 23.9035604,200.823428 C23.33943,202.46287 21.3378952,208.546337 21.3378952,208.546337" id="Fill-50" fill="#AF7444"/>
          <path d="M14.4118778,195.095798 C14.4118778,195.095798 19.2069865,194.581037 22.7798126,192.754274 C26.3526387,190.928259 27.8569865,190.647276 28.2797083,189.382479 C28.7031822,188.117681 30.4895952,182.686094 30.4895952,182.686094 C30.4895952,182.686094 30.7716604,181.327635 29.5493778,181.79594 C28.3270952,182.264245 23.3965952,183.654923 23.3965952,183.654923 C23.3965952,183.654923 16.90383,193.831749 14.4118778,195.095798" id="Fill-52" fill="#AF7444"/>
          <path d="M24.9217783,181.103673 C25.2038435,180.869895 29.5965391,178.938981 31.0535,178.798864 C32.511213,178.657998 32.839913,178.705203 33.263387,177.90871 C33.6861087,177.112967 33.7801304,175.614391 34.8617565,175.708052 C35.9426304,175.801713 39.2288783,176.885183 39.2288783,176.885183 C39.2288783,176.885183 45.0665,168.278864 45.6780174,166.780289 C45.8051348,166.124662 44.3105652,162.501856 43.0416478,162.408195 C41.7719783,162.314534 38.9513261,164.421531 37.6824087,165.170819 C36.4127391,165.920106 36.0464304,165.87365 35.5244217,165.686328 C35.002413,165.499007 34.2502391,164.796175 33.8275174,166.341955 C33.4040435,167.886987 33.216,169.947528 33.216,169.947528 C33.216,169.947528 30.6225043,174.755707 29.1264304,175.567186 C27.1346739,176.647659 24.9217783,181.103673 24.9217783,181.103673" id="Fill-54" fill="#AF7444"/>
          <path d="M29.5391483,167.292352 C28.1182917,168.055876 33.73327,164.556702 33.5452265,162.405497 C33.357183,160.253543 31.9942439,158.661306 31.9942439,158.661306 C31.9942439,158.661306 30.7245743,157.771902 30.9600048,156.881748 C31.194683,155.992343 34.4388091,151.964922 34.4388091,151.964922 C34.4388091,151.964922 35.3316396,151.309295 35.0029396,150.606463 C34.6734874,149.90438 26.7290265,152.158238 26.7290265,152.158238 C26.7290265,152.158238 28.5116787,157.517144 29.1593004,160.362189 C29.8633352,163.453001 29.5391483,167.292352 29.5391483,167.292352" id="Fill-56" fill="#AF7444"/>
          <path d="M36.5069865,163.063746 C36.5069865,163.063746 34.7672083,158.661681 34.4385083,157.11665 C34.1090561,155.570869 34.4385083,154.634259 35.4727474,153.884972 C36.5069865,153.135684 38.0113343,152.807496 38.2933996,151.262464 C38.5754648,149.717433 38.9989387,147.844214 40.3144909,147.422365 C41.6307952,147.001265 44.4988343,145.221707 45.0629648,145.642806 C45.6270952,146.064655 45.7685039,153.18214 45.6270952,155.66453 C45.4864387,158.14692 44.0761126,159.832818 40.7845996,161.377849 C37.4938387,162.92363 37.6352474,164.094017 36.5069865,163.063746" id="Fill-58" fill="#AF7444"/>
          <path d="M47.2343404,163.690076 C47.2343404,163.690076 46.734897,162.313634 46.7040578,162.144295 C46.5235361,161.15074 46.0075448,157.465743 47.4133578,153.74478 C49.0591143,149.38917 51.0802057,146.06458 51.0335709,148.96807 C50.9861839,151.87156 50.9831752,153.511751 50.5551883,154.808768 C48.9282361,159.74133 47.2305796,163.577683 46.734897,162.313634" id="Fill-60" fill="#AF7444"/>
          <path d="M2.37709522,257.301292 L1.34285609,261.50105 L13.1895952,261.50105 L11.9673126,259.401546 C11.9673126,259.401546 9.61676913,258.440209 8.01839957,257.301292 C6.42003,256.162375 3.24736043,257.885736 2.37709522,257.301292" id="Fill-62" fill="#624B59"/>
          <path d="M24.3781822,141.14708 C24.4722039,151.543447 31.4298126,157.63141 29.1732909,170.088319 C26.9167691,182.545228 14.4118778,195.095798 14.4118778,195.095798 C14.4118778,195.095798 14.693943,211.954772 10.6510083,229.18839 C6.60807348,246.422009 0.402638696,256.25641 0.402638696,256.25641 C4.06948652,258.12963 8.58253,256.912037 8.58253,256.912037 C7.73633435,255.132479 10.4629648,245.017094 10.4629648,245.017094 C10.4629648,245.017094 19.2069865,215.420228 21.55753,207.833689 C23.9080735,200.247151 23.9080735,197.905627 39.6097039,176.363604 C55.3113343,154.821581 51.5504648,141.14708 51.5504648,141.14708" id="Stroke-64" stroke="#533D37" stroke-width="0.5625"/>
          <g id="Group-69" transform="translate(13.539130, 135.621083)">
            <path d="M9.33327478,0.249512821 C9.33327478,0.249512821 11.7635487,33.4054957 0.606553043,39.5871197 C0.606553043,39.5871197 13.2054661,31.7195983 11.1430052,7.33627635" id="Fill-66" fill="#AF7444"/>
            <path d="M9.33327478,0.249512821 C9.33327478,0.249512821 11.7635487,33.4054957 0.606553043,39.5871197 C0.606553043,39.5871197 13.2054661,31.7195983 11.1430052,7.33627635" id="Stroke-68" stroke="#533D37" stroke-width="0.5625"/>
          </g>
          <path d="M10.0971826,171.672463 C10.0971826,171.672463 10.3469043,176.105999 14.4838609,175.044258" id="Stroke-70" stroke="#533D37" stroke-width="0.5625"/>
          <path d="M8.56786261,174.147136 C8.75590609,174.209327 12.1369278,176.891028 14.1459843,175.208127" id="Stroke-72" stroke="#533D37" stroke-width="0.5625"/>
          <path d="M8.56786261,176.519456 C8.81833652,176.519456 12.6416365,178.080222 13.83308,175.208202" id="Stroke-74" stroke="#533D37" stroke-width="0.5625"/>
          <path d="M11.0770396,177.986561 C11.265083,177.862179 13.5847874,178.673658 14.2737787,175.208202" id="Stroke-76" stroke="#533D37" stroke-width="0.5625"/>
          <path d="M157.905223,12.8768846 C157.842793,11.9957222 158.166228,4.28480199 157.62391,4.15967094 C156.887532,3.99033191 154.677645,8.99857123 153.987902,10.3098248" id="Fill-78" fill="#FADAB9"/>
          <path d="M157.905223,12.9010117 C157.842793,12.0198493 158.166228,4.30892906 157.62391,4.18379801 C156.887532,4.01445897 154.677645,9.02269829 153.987902,10.3339519" id="Stroke-80" stroke="#533D37" stroke-width="0.5625"/>
          <path d="M151.426524,8.51655442 C151.488954,8.42289345 151.622089,4.85703305 150.02372,1.68679658 L151.370863,2.5297453 L151.716111,0.96822963 L152.656328,1.9363094 L153.721407,0.62505584 C153.721407,0.62505584 153.000824,6.58788775 155.571002,10.7719105" id="Fill-82" fill="#FADAB9"/>
          <path d="M151.410427,8.51655442 C151.47361,8.42289345 151.605993,4.85703305 150.007623,1.68679658 L151.354767,2.5297453 L151.700014,0.96822963 L152.640232,1.9363094 L153.70531,0.62505584 C153.70531,0.62505584 152.98548,6.58788775 155.554906,10.7719105" id="Stroke-84" stroke="#533D37" stroke-width="0.5625"/>
          <path d="M144.763467,28.7224473 C144.763467,28.7224473 145.938362,30.6114017 148.783084,32.398453 C151.627053,34.1862536 156.140097,35.872151 162.81564,35.466037 C162.81564,35.466037 163.630245,38.4002479 165.698723,39.0873447 C167.767201,39.7744416 170.651036,39.8366325 172.280245,39.0873447 C172.719514,38.8378319 172.629253,38.6227863 171.904158,35.153584 C171.089553,31.2520427 164.633645,27.7865869 157.330788,11.6769003 C157.330788,11.6769003 154.918567,7.24336467 146.738675,9.52269801 C140.172197,10.9583333 132.697093,24.8666125 128.511245,30.9912906 C123.992184,37.6599516 109.739993,63.1859373 87.268797,72.0837293 C87.268797,72.0837293 82.6775274,74.1322821 79.120497,75.0576524 C77.6086274,75.4502792 73.08731,75.8653846 71.4423057,77.5977379 C69.7965491,79.3308405 64.0145883,86.0744302 62.7923057,87.2920228 C61.570023,88.5096154 57.4887274,93.0817692 53.0140448,96.6109145 C46.0090491,102.136912 37.5470926,103.729148 32.2352404,111.315687 C26.1072796,120.067368 22.3155709,126.11412 22.9270883,138.477368 C23.5378535,150.840615 36.2879535,162.201316 48.3595926,161.284188 C65.0014404,160.01939 86.4263622,141.804205 91.2966883,137.744564 C96.5656665,133.352239 107.027653,127.500302 106.042306,120.260684 C105.290132,114.734687 104.510127,109.845584 104.087406,107.456855 C104.087406,107.456855 102.986223,103.776353 108.063397,97.5947293 C108.063397,97.5947293 118.751036,84.4200028 126.209593,70.0584046 C133.668901,55.6968063 140.86194,38.3155783 142.804806,34.4440085 C142.804806,34.4440085 145.601388,35.1693191 148.924493,32.4861197" id="Fill-86" fill="#FADAB9"/>
          <path d="M36.4739661,158.485299 C36.4739661,158.485299 34.2663357,154.790561 34.4543791,154.790561 C34.6424226,154.790561 37.5886878,152.043672 37.3382139,148.859199 C37.0869878,145.674726 38.7793791,145.548846 40.033253,143.738566 C41.287127,141.928287 43.5428965,137.182299 43.4804661,143.176601 C43.4180357,149.170903 43.4819704,158.412618 43.4819704,158.412618 L36.4739661,158.485299 Z" id="Fill-88" fill="#AF7444"/>
          <path d="M49.3732974,150.607512 C49.3732974,150.607512 47.6809061,141.365797 47.8689496,141.303606 C48.056993,141.241415 55.2026452,142.303156 55.2026452,142.303156 L53.8863409,150.607512 L49.3732974,150.607512 Z" id="Fill-90" fill="#AF7444"/>
          <path d="M50.5015583,153.666929 C50.5015583,153.666929 55.0146017,153.167903 55.4531191,150.607587 C55.8916365,148.047271 56.0172496,144.426712 57.2711235,144.925738 C58.5242452,145.424764 61.5961235,146.611635 61.5961235,146.611635 C61.5961235,146.611635 64.9809061,144.924989 65.9835539,143.926188 C66.9862017,142.927387 66.9237713,147.360923 67.1118148,150.170752 C67.2998583,152.980581 60.7183365,156.602638 55.9548191,158.412917 C53.6982974,159.162205 49.4567887,153.857248 50.5015583,153.666929" id="Fill-92" fill="#AF7444"/>
          <path d="M44.7970713,160.348253 C44.5518626,160.296552 44.7970713,145.424689 44.7970713,145.424689 L46.6775061,145.424689 C46.6775061,145.424689 48.6873148,156.775649 51.5282757,158.485523 C54.3684843,160.194649 46.8655496,160.785087 44.7970713,160.348253" id="Fill-94" fill="#AF7444"/>
          <path d="M35.2068539,146.236917 C35.0451365,146.351558 35.2068539,139.180874 35.2068539,139.180874 C35.2068539,139.180874 35.7709843,137.057392 34.7683365,136.433236 C33.7656887,135.809079 31.6340278,135.746888 32.3862017,134.060991 C33.1383757,132.375093 33.0135148,131.937509 34.95638,130.813577 C36.8992452,129.689646 41.7883757,125.506372 41.7883757,125.506372 C41.7883757,125.506372 42.5405496,125.193919 43.8568539,128.878167 C45.1731583,132.562415 47.0242583,132.625355 44.6880061,135.184922 C42.3525061,137.744489 36.9616757,144.988603 35.2068539,146.236917" id="Fill-96" fill="#AF7444"/>
          <path d="M33.4851278,148.138684 C33.9860757,147.951362 33.4851278,139.646256 33.4851278,139.646256 C33.4851278,139.646256 34.0470017,138.522325 32.3245235,137.898168 C30.601293,137.274011 29.4730322,136.524724 29.4730322,136.524724 L29.4730322,127.533271 C29.4730322,127.533271 29.2225583,127.221567 26.9036061,129.781134 C24.5839017,132.340701 23.0208843,133.836279 23.0208843,133.836279 C23.0208843,133.836279 22.1363278,144.567578 27.1766452,150.059108 C27.9762061,150.85635 32.9834278,148.326006 33.4851278,148.138684" id="Fill-98" fill="#AF7444"/>
          <path d="M31.0698974,131.56294 C31.0067148,131.375618 31.0698974,122.634427 31.0698974,122.634427 C31.0698974,122.634427 30.505767,121.198792 31.8852539,119.262632 C33.2632365,117.326473 37.400193,111.020467 37.400193,111.020467 C37.400193,111.020467 38.3509409,109.222177 37.6514191,119.324823 C36.9518974,129.42747 37.400193,126.068413 37.400193,126.068413 C37.400193,126.068413 36.7112017,127.69212 33.45128,130.127305 C30.1928626,132.56249 31.0698974,131.56294 31.0698974,131.56294" id="Fill-100" fill="#AF7444"/>
          <path d="M39.78308,122.134577 L39.78308,109.646199 C39.78308,109.646199 39.2279757,108.709589 45.8049843,105.462925 C52.381993,102.216261 55.6404104,100.716936 55.6404104,101.965999 L55.6404104,114.454378 C55.6404104,114.454378 55.703593,115.141475 52.8829409,116.514919 C50.0622887,117.888364 41.6635148,122.571412 41.6635148,122.571412 C41.6635148,122.571412 39.78308,124.069988 39.78308,122.134577" id="Fill-102" fill="#AF7444"/>
          <path d="M46.1765583,130.376743 C45.88998,130.125731 44.0554278,127.004199 45.8049843,124.819275 C47.5545409,122.634352 50.3383365,119.761583 50.3383365,119.761583 C50.3383365,119.761583 51.2537322,118.012746 53.134167,121.822125 C55.0146017,125.631503 57.5840278,130.376743 57.5840278,130.376743 C57.5840278,130.376743 59.2132365,132.06264 57.5840278,133.93586 C55.9548191,135.809079 54.3872887,138.867672 54.3872887,138.867672 C54.3872887,138.867672 54.1992452,140.366996 51.127367,139.80503 C48.056993,139.243065 45.8049843,138.556717 45.8049843,138.556717 C45.8049843,138.556717 44.9324626,138.556717 45.8049843,137.307654 C46.6775061,136.058592 47.8539061,133.373894 47.8539061,133.373894 C47.8539061,133.373894 47.7433365,131.750187 46.1765583,130.376743" id="Fill-104" fill="#AF7444"/>
          <path d="M54.4504713,117.326473 L56.6438104,115.827897 L57.2711235,110.271179 C57.2711235,110.271179 57.1755974,109.209439 58.7273322,109.022117 C60.2798191,108.834795 63.1004713,108.33502 63.1004713,108.33502 C63.1004713,108.33502 64.4160235,108.148447 65.0425843,110.271179 C65.6698974,112.393912 67.1155757,116.764507 67.1155757,116.764507 C67.1155757,116.764507 68.4905496,117.889188 66.1708452,119.637276 C63.8526452,121.385365 62.2219322,122.571487 62.2219322,122.571487 C62.2219322,122.571487 60.9379713,123.882741 60.9853583,124.632028 C61.031993,125.381316 60.5927235,125.693769 59.7156887,126.068413 C58.8371496,126.443057 57.7720713,127.441858 57.2079409,126.068413 C56.6438104,124.694969 54.0112017,118.637726 54.0112017,118.637726 C54.0112017,118.637726 53.6486539,117.873453 54.4504713,117.326473" id="Fill-106" fill="#AF7444"/>
          <path d="M58.3082961,105.837569 C58.3240917,105.5416 58.0232222,101.527666 58.0232222,101.527666 C58.0232222,101.527666 58.02247,100.404483 59.0251178,100.280102 C60.0285178,100.15572 61.1567787,100.09278 61.2816396,99.343492 C61.4080048,98.5942043 62.473083,92.2252584 62.473083,92.2252584 C62.473083,92.2252584 62.4106526,91.5381615 63.85257,91.2886487 C65.2937352,91.0391359 68.17757,90.2898481 68.17757,90.2898481 C68.17757,90.2898481 69.8067787,89.8530134 69.4938743,91.7884236 C69.1794657,93.7238339 69.5337396,102.09113 69.5337396,102.09113 C69.5337396,102.09113 69.8067787,103.401634 66.8612657,104.775828 C63.9142483,106.150022 58.1556048,108.647398 58.3082961,105.837569" id="Fill-108" fill="#AF7444"/>
          <path d="M50.0799648,98.6820208 C50.0483735,98.7000037 50.8780213,101.592254 52.6952735,100.717836 C54.5125257,99.8434168 59.5280213,98.0323883 59.5280213,98.0323883 C59.5280213,98.0323883 60.4050561,97.5963028 60.4682387,95.6601433 C60.529917,93.7239838 60.72473,89.4575393 60.72473,89.4575393 C60.72473,89.4575393 53.9288387,96.4716219 50.0799648,98.6820208" id="Fill-110" fill="#AF7444"/>
          <path d="M47.2416365,100.35548 C46.9287322,100.099224 47.4402104,103.714537 45.8049843,104.463825 C44.1697583,105.213113 37.9086626,108.772229 37.9086626,108.772229 C37.9086626,108.772229 35.8439452,108.712286 35.1542017,107.967494 C34.4652104,107.222702 45.1731583,100.583264 47.2416365,100.35548" id="Fill-112" fill="#AF7444"/>
          <path d="M32.60877,111.295531 C32.60877,111.295531 34.2770917,112.893012 33.7076961,113.580109 C33.1383004,114.267206 28.5003961,120.698343 27.873083,123.820625 C27.24577,126.942907 26.869683,127.913234 25.9294657,127.521357 C24.9892483,127.130229 23.9948743,126.770571 23.9948743,126.770571 C23.9948743,126.770571 25.8091178,118.849101 32.60877,111.295531" id="Fill-114" fill="#AF7444"/>
          <path d="M58.3082961,140.616584 C58.3082961,140.616584 56.5181222,138.930687 56.9566396,137.994077 C57.3959091,137.057467 59.903657,133.311028 59.903657,133.311028 C59.903657,133.311028 60.6558309,132.282256 60.2797439,131.765997 C59.903657,131.250487 58.900257,130.16402 59.6524309,129.645513 C60.4046048,129.127755 61.9721352,127.603704 61.9721352,127.603704 C61.9721352,127.603704 62.974783,127.254536 63.1003961,126.505248 C63.225257,125.75596 62.473083,124.507647 64.6664222,123.445906 C66.8612657,122.384165 67.8631613,121.822199 67.8631613,121.822199 C67.8631613,121.822199 68.2400004,122.134652 69.1177874,123.82055 C69.9948222,125.506447 70.3084787,126.130604 69.8699613,126.505248 C69.4306917,126.879892 69.0546048,129.752661 69.8067787,132.624681 C70.5589526,135.496701 70.3709091,134.934735 70.3709091,134.934735 C70.3709091,134.934735 70.4965222,135.995726 68.7417004,137.432111 C66.9861265,138.868496 62.84917,143.426413 62.84917,143.426413 C62.84917,143.426413 61.67277,145.075595 60.7250309,143.783074 C59.7772917,142.489803 58.3082961,140.616584 58.3082961,140.616584" id="Fill-116" fill="#AF7444"/>
          <path d="M69.5402083,153.464172 L68.1772691,141.615684 C68.1772691,141.615684 67.4250952,139.616585 69.179917,138.868046 C70.9347387,138.119508 75.8870517,136.620932 75.8870517,136.620932 C75.8870517,136.620932 77.95553,135.933835 77.3913996,139.555892 C76.8272691,143.1772 74.9468343,143.488904 74.7587909,145.425063 C74.5707474,147.360474 74.4534083,150.431804 74.4534083,150.431804" id="Fill-118" fill="#AF7444"/>
          <path d="M67.5202452,108.772529 C67.4081713,108.618176 66.4867583,107.336144 67.5202452,106.586857 C68.5537322,105.837569 70.4965974,104.838019 70.6846409,103.901409 C70.8726843,102.9648 70.434167,99.7181359 71.3743843,99.7181359 C72.3146017,99.7181359 78.5200365,112.955803 80.0243843,114.891213 C81.5287322,116.826623 82.02968,117.202016 81.2775061,118.013495 C80.5253322,118.824974 75.1976843,125.499629 75.1976843,125.499629 C75.1976843,125.499629 74.7584148,125.680207 74.1318539,125.499629 C73.505293,125.31905 70.4018235,122.463515 69.5405843,121.331341 C68.678593,120.198418 68.6154104,120.074785 69.05468,119.449879 C69.4939496,118.824974 72.6297626,115.828572 67.5202452,108.772529" id="Fill-120" fill="#AF7444"/>
          <path d="M74.3286978,95.9095063 C74.3286978,95.9095063 73.5238717,94.7226345 74.3286978,94.2857997 C75.1350283,93.848965 78.4566283,90.539361 78.4566283,90.539361 C78.4566283,90.539361 78.2685848,83.7328311 79.1463717,83.4211274 C80.0241587,83.1094236 83.4713717,86.6056003 83.4713717,86.6056003 C83.4713717,86.6056003 87.983663,86.8558624 88.2348891,86.8558624 C88.4861152,86.8558624 88.7365891,87.1683154 88.8622022,88.3544379 C88.987063,89.5405604 89.990463,95.1699593 89.990463,95.1699593 C89.990463,95.1699593 90.8050674,96.2834009 88.1724587,97.4702726 C85.53985,98.6571444 78.7702848,102.715287 78.7702848,102.715287 C78.7702848,102.715287 77.8293152,103.464575 76.9522804,102.153321 C76.0752457,100.842068 74.3286978,95.9095063 74.3286978,95.9095063" id="Fill-122" fill="#AF7444"/>
          <path d="M61.7767957,88.3573601 C62.1604043,88.5416849 69.118013,85.9806194 69.870187,87.729457 C70.6223609,89.4782946 71.1233087,92.7871493 71.1233087,92.7871493 C71.1233087,92.7871493 70.8728348,95.0350125 73.443013,92.7871493 C76.0124391,90.539286 76.8902261,89.7899983 76.8902261,89.7899983 C76.8902261,89.7899983 77.0782696,89.9143801 77.2038826,86.7928473 C77.3287435,83.6713145 78.087687,83.1085994 77.4889565,81.9224769 C76.8902261,80.7363544 73.1331174,78.7912034 69.7468304,79.482796" id="Fill-124" fill="#AF7444"/>
          <path d="M78.70808,105.088281 C78.9359887,104.951911 84.5374278,101.778677 84.5374278,101.778677 C84.5374278,101.778677 85.5400757,100.842068 86.1042061,101.778677 C86.6683365,102.715287 87.232467,105.088281 89.4889887,105.525116 C91.7455104,105.961951 92.9362017,105.960452 93.3754713,107.116603 C93.8139887,108.272754 93.8764191,113.64215 93.8764191,113.64215 C93.8764191,113.64215 94.1276452,114.703142 92.6857278,115.51537 C91.2438104,116.327597 90.1095322,117.551184 90.1095322,117.551184 C90.1095322,117.551184 88.8624278,118.013495 87.734167,116.514919 C86.6059061,115.016344 86.730767,114.204865 83.7852539,113.892412 C80.8389887,113.579959 82.155293,113.892412 81.3406887,113.205315 C80.5253322,112.518219 78.582467,107.210264 78.331993,106.523917 C78.080767,105.837569 77.5542452,105.778375 78.70808,105.088281" id="Fill-126" fill="#AF7444"/>
          <path d="M88.2982974,100.342368 C88.4750583,99.3712906 89.4882365,98.6572194 90.4916365,97.9701225 C91.4950365,97.2830256 92.4969322,96.9713219 92.1840278,95.5349373 C91.8711235,94.0985527 90.8677235,93.2863248 91.68308,92.84949 C92.4976843,92.4126553 97.3243843,94.6597692 98.2646017,95.4719972 C99.2048191,96.2842251 98.8911626,96.5839402 99.2048191,98.6819459 C99.5177235,100.779952 100.583554,100.63384 101.085254,101.362148 C101.586202,102.091205 101.273297,101.529239 100.521123,102.653171 C99.7689496,103.777103 99.5801539,105.650322 98.3894626,105.712513 C97.1987713,105.774704 95.9787452,104.963974 93.892967,105.275678 C91.8079409,105.587382 92.2464583,105.587382 90.8677235,104.213937 C89.4889887,102.840493 87.9222104,102.402909 88.2982974,100.342368" id="Fill-128" fill="#AF7444"/>
          <path d="M74.3286978,76.5531558 C74.3286978,76.5531558 72.7528935,78.0509821 75.1350283,77.8014692 C77.5164109,77.5519564 78.4566283,77.0446886 80.0865891,77.8291929 C81.71655,78.6136972 83.3457587,82.6943182 83.7850283,83.4016459 C84.2235457,84.1082242 84.6522848,85.2314066 85.9415109,84.357737 C87.2322413,83.4840675 89.0502457,82.172814 90.4289804,81.7981701 C91.8077152,81.4235262 91.4316283,81.8596117 91.9957587,79.6746886 C92.5598891,77.4897655 93.3744935,77.5527057 92.9359761,76.178512 C92.4974587,74.8043182 90.4771196,74.7556145 87.776063,71.8828453" id="Fill-130" fill="#AF7444"/>
          <path d="M92.4976843,69.5139721 L94.7850452,74.5551801 C94.7850452,74.5551801 94.8798191,76.1159464 96.7602539,75.5539806 C98.6406887,74.9920148 100.645984,74.4307983 101.899858,74.4929892 C103.153732,74.5551801 103.09055,74.8054422 102.526419,72.4324479 C101.962289,70.0594536 100.700141,64.3281516 100.700141,64.3281516" id="Fill-132" fill="#AF7444"/>
          <path d="M91.2438104,87.167641 C91.1264713,86.9473504 89.1753322,84.5054217 91.2438104,83.4017208 C93.3122887,82.2972707 95.00468,80.9860171 95.6944235,79.6747635 C96.384167,78.36351 96.3209843,78.3013191 97.3243843,80.3618604 C98.3270322,82.4224017 100.081854,85.2951709 100.145037,86.2939715 C100.207467,87.2927721 100.019423,88.2293818 98.3270322,88.9786695 C96.6346409,89.7279573 93.1242452,91.414604 92.059167,91.1643419 C90.9933365,90.9140798 90.7421104,91.2887236 90.8677235,89.7279573 C90.9933365,88.1671909 91.8485583,88.3073077 91.2438104,87.167641" id="Fill-134" fill="#AF7444"/>
          <path d="M106.287289,75.6758148 C106.287289,75.6758148 102.107458,74.8673333 100.154815,75.991265 C98.2014191,77.1151966 98.659493,77.4890912 100.154815,79.8620855 C101.649384,82.2350798 102.275945,85.1700399 102.213515,87.1054501 C102.150332,89.0408604 101.523019,92.5385356 104.21881,90.789698 C106.914602,89.0408604 108.606993,87.2687949 110.863515,86.5622165 C113.120037,85.8563875 114.937289,85.7949459 114.310728,84.2334302 C113.684167,82.6719145 109.107941,79.8620855 108.042863,77.8015442 C106.977032,75.7410028 107.732967,75.8743761 106.287289,75.6758148" id="Fill-136" fill="#AF7444"/>
          <path d="M114.174885,89.457914 C114.174885,89.457914 108.544111,92.1680877 105.410555,93.1646405 C102.276246,94.1611932 101.711363,94.2428655 101.774546,95.1697345 C101.837729,96.0966034 102.025772,98.4066575 102.025772,98.4066575 C102.025772,98.4066575 104.09425,99.7179111 106.450059,99.7845977" id="Fill-138" fill="#AF7444"/>
          <path d="M117.583136,84.511416 C117.645566,84.324094 117.569597,82.1728889 115.940388,81.1111481 C114.310427,80.0494074 110.988075,79.4881909 111.740249,77.9266752 C112.492423,76.3651595 116.817423,71.0587037 118.572997,68.7479003 C120.327818,66.4370969 120.265388,65.6878091 121.205605,66.5622279 C122.145823,67.4366467 124.316597,71.3996296 124.233857,73.7261681" id="Fill-140" fill="#AF7444"/>
          <path d="M106.287289,73.5553305 C106.287289,73.5553305 104.406854,74.8673333 104.15638,72.681661 C103.905906,70.4959886 102.401558,66.4768091 103.59225,66.2070655 C104.782941,65.9380712 107.854819,65.0014615 108.98308,63.9397208 C110.111341,62.8779801 112.30468,59.5061852 112.931993,63.9397208 C113.558554,68.3732564 113.851902,68.7194274 114.174584,69.5136724 C114.498771,70.3086667 114.309976,72.1189459 110.988376,72.6187208 C107.666776,73.1184957 107.714915,73.2196496 106.287289,73.5553305" id="Fill-142" fill="#AF7444"/>
          <path d="M115.627032,66.2072903 C115.627032,66.2072903 114.326523,61.6291422 114.286658,61.0049855 C114.248297,60.3808288 114.185115,60.6303416 114.436341,59.6937319 C114.686815,58.7571222 116.62968,57.8834527 116.943337,55.1358145 C117.256993,52.3881764 117.044128,51.8891507 117.93395,51.3893758 C118.823771,50.8896009 122.521458,48.7668687 123.775332,48.2049028 C125.029206,47.642937 126.095037,47.2690425 127.473771,54.3243359 C128.852506,61.3796293 128.163515,59.9432447 127.473771,61.1923074 C126.784028,62.4413701 125.655767,66.0012362 124.653119,65.5636521 C123.650471,65.1260681 122.082941,63.1277177 120.39055,63.8148145 C118.698158,64.5019114 117.005767,67.5417718 116.316776,66.8749057 L115.627032,66.2072903 Z" id="Fill-144" fill="#AF7444"/>
          <path d="M111.392368,54.4162735 C111.392368,54.4162735 113.182542,57.821037 112.555981,58.4451937 C111.928668,59.0693504 105.848094,62.3160142 104.594973,63.065302 C103.341851,63.8145897 102.811568,63.4908974 103.138764,62.3729601" id="Fill-146" fill="#AF7444"/>
          <path d="M133.427303,55.2548014 C133.427303,55.2548014 130.92106,55.0105336 130.670586,53.0751234 C130.420112,51.1397131 128.414064,46.0820208 130.670586,45.3949239 C132.927107,44.7078271 137.905747,42.6233085 139.662073,41.4034681" id="Fill-148" fill="#AF7444"/>
          <path d="M117.433303,47.2058026 C117.759746,47.2058026 123.443172,45.8316088 124.236716,43.0217798 C125.029507,40.2119507 124.357063,38.2308339 124.65342,36.9720305" id="Fill-150" fill="#AF7444"/>
          <path d="M126.533554,45.6443618 C125.96491,45.4825157 126.471123,44.4582393 126.533554,42.7723419 C126.595984,41.0864444 126.407941,37.9019715 127.661815,36.5907179 C128.915689,35.2794644 132.676558,31.9698604 134.36895,30.8459288 C136.061341,29.7219972 135.998158,29.4732336 136.813515,29.7849373 C137.628119,30.096641 138.505154,33.4684359 139.006854,34.9048205 C139.508554,36.3412051 140.072684,36.2917521 139.446123,36.9721054 C138.81881,37.6524587 131.87098,41.7113504 129.609193,43.4594387 C127.348158,45.2075271 127.411341,45.8938746 126.533554,45.6443618" id="Fill-152" fill="#AF7444"/>
          <path d="M127.723493,32.2010906 C127.912289,32.2010906 130.356854,30.4709852 132.425332,29.2848627 C134.49381,28.0987402 135.057941,27.9736091 135.559641,25.9130678 C136.061341,23.8525265 137.69055,22.6034638 136.625471,21.7919852 C135.559641,20.9805066 134.724728,21.395612 134.635219,21.5282359" id="Fill-154" fill="#AF7444"/>
          <path d="M137.816163,25.8511017 C137.907928,25.6870077 139.570984,23.7283695 139.25808,20.9807313 C138.944423,18.2330932 138.24791,16.9840305 139.661997,15.6727769 C141.075332,14.3615234 140.87375,13.8003068 141.695123,16.110361 C142.51725,18.4204151 143.519897,21.79221 143.519897,21.79221 C143.519897,21.79221 144.335254,23.2285946 142.454819,24.1652043 C140.574384,25.101814 136.660823,27.9206345 137.816163,25.8511017" id="Fill-156" fill="#AF7444"/>
          <path d="M142.055264,36.0470348 C141.87399,35.922653 139.438451,33.2829123 139.661847,29.6608553 C139.88449,26.0387983 139.508403,26.7109094 140.260577,26.5932712 C141.012751,26.475633 142.61789,27.3500519 143.695756,28.0363994 C144.772869,28.722747 143.519747,29.3296701 144.836051,30.8687071 C146.152356,32.4077442 147.299421,33.5743852 147.299421,33.5743852 C147.299421,33.5743852 143.695756,34.355143 142.81496,34.443559 C142.430599,34.4825219 142.055264,36.0470348 142.055264,36.0470348" id="Fill-158" fill="#AF7444"/>
          <path d="M147.720037,20.5629285 C146.889637,19.7971564 145.33715,20.894863 145.400332,22.4676179 C145.463515,24.0403729 146.108128,29.0950681 147.720037,30.9090937 C149.331193,32.7231194 151.417723,32.2008658 151.417723,32.2008658 C151.417723,32.2008658 151.355293,28.9107433 150.728732,27.2248459 C150.101419,25.5389484 149.161202,21.8936635 147.720037,20.5629285" id="Fill-160" fill="#AF7444"/>
          <path d="M153.987902,26.7526447 C153.987902,26.7526447 151.22968,25.6639296 151.417723,24.0402231 C151.605767,22.4165165 152.609167,23.915092 154.677645,24.0402231 C156.746123,24.1653541 157.059028,24.4778071 156.306854,25.4766077 C155.55468,26.4754083 154.958206,27.2479239 153.987902,26.7526447" id="Fill-162" fill="#AF7444"/>
          <path d="M153.674245,31.5330256 C152.259406,29.8313932 151.292863,27.9746581 153.047684,28.4736838 C154.802506,28.9727094 155.546406,28.1005385 156.678428,29.6605556 C157.811202,31.2205726 159.324576,31.7832877 155.966119,31.8454786 C152.609167,31.9076695 154.403102,32.4096923 153.674245,31.5330256" id="Fill-164" fill="#AF7444"/>
          <path d="M158.019103,34.5923675 C158.019103,34.5923675 157.122511,32.7191481 158.626859,32.5318262 C160.131207,32.3445043 160.883381,31.5952165 161.259468,32.8442792 C161.635555,34.0933419 162.262868,34.1592792 161.509942,34.8426296 C160.757016,35.5259801 158.019103,34.5923675 158.019103,34.5923675" id="Fill-166" fill="#AF7444"/>
          <path d="M163.828593,29.6604806 C163.828593,29.6604806 165.081715,30.0980647 165.332941,29.6604806 C165.584167,29.2228966 165.269758,28.1686487 163.828593,26.2916829 C162.387428,24.4147171 160.944758,22.7288197 158.375332,22.7288197 C155.805906,22.7288197 156.32265,22.9131444 157.945089,23.2892869 C159.566776,23.6654293 159.612658,23.7905604 160.998915,25.9132926 C162.387428,28.0360248 163.264463,29.2243952 163.828593,29.6604806" id="Fill-168" fill="#AF7444"/>
          <path d="M160.99914,31.314908 C161.861884,31.3321416 162.512514,31.4085689 162.136427,30.5341501 C161.76034,29.6597313 160.63208,27.4118681 159.503819,25.9132926 C158.375558,24.4147171 158.391353,24.2273952 157.944562,25.3513268 C157.498523,26.4752584 156.683167,25.5903496 157.184867,26.9068481 C157.686567,28.2233467 159.486519,31.2841872 160.99914,31.314908" id="Fill-170" fill="#AF7444"/>
          <path d="M158.019103,17.5460712 C158.019103,17.5460712 154.789268,17.5138519 154.043863,14.5331852 C153.298459,11.5517692 154.677946,12.8008319 154.552333,12.0515442 C154.42672,11.3022564 155.148055,11.0527436 155.570777,12.61351 C155.99425,14.1742764 157.011942,15.7972336 157.944637,16.2348177 C158.877333,16.6724017 158.978877,17.2336182 158.019103,17.5460712" id="Fill-172" fill="#AF7444"/>
          <path d="M150.164602,17.5460712 C151.04615,16.2782764 152.734028,16.9841054 153.047684,16.1726268 C153.361341,15.3611481 153.423019,13.1747265 151.605767,13.7996325 C149.788515,14.4245385 149.411676,15.110886 149.161202,16.3599487 C148.910728,17.6090114 149.600471,18.3575499 150.164602,17.5460712" id="Fill-174" fill="#AF7444"/>
          <path d="M146.528593,13.6891125 C146.528593,13.6891125 143.557506,14.9629017 143.695154,15.7863689 C143.833554,16.6090869 144.393923,19.0450214 145.398828,18.5452464 C146.403732,18.0454715 146.878354,18.6696282 147.298819,16.9837308 C147.720037,15.2978333 148.585037,12.5749217 146.528593,13.6891125" id="Fill-176" fill="#AF7444"/>
          <path d="M147.843468,12.2388661 C147.00329,12.6262479 146.986742,11.8724644 149.108625,11.462604 C151.229755,11.0527436 153.799181,11.2138405 151.417799,11.850735 C149.036416,12.4883789 148.656568,11.8642222 147.843468,12.2388661" id="Fill-178" fill="#AF7444"/>
          <path d="M159.31555,20.364667 C158.002254,19.8911171 157.569002,18.544647 158.69275,19.0444219 C159.81725,19.5441969 162.586002,21.5432966 159.31555,20.364667" id="Fill-180" fill="#AF7444"/>
          <path d="M162.825945,34.4050456 C162.37765,34.1817578 162.763515,33.1956952 163.139602,32.2703248 C163.515689,31.3457037 165.019284,29.5976154 164.20468,31.7203476 C163.390076,33.8430798 163.452506,34.7167493 162.825945,34.4050456" id="Fill-182" fill="#AF7444"/>
          <path d="M104.64928,103.258296 L97.7142361,108.772304 C97.7142361,108.772304 95.8819404,109.448162 96.1331665,111.295905 C96.3843926,113.1429 96.3843926,114.890988 96.3843926,114.890988 C96.3843926,114.890988 96.7604796,115.951979 98.1392143,115.327823 C99.5179491,114.703666 100.145262,114.07876 100.521349,114.578535 C100.897436,115.07831 106.005449,122.131356 106.052084,120.260384 C106.099471,118.387914 104.068601,107.116378 104.068601,107.116378 C104.068601,107.116378 104.21001,105.288116 104.64928,103.258296" id="Fill-184" fill="#AF7444"/>
          <path d="M105.598297,123.124611 L101.328206,124.319725 C101.328206,124.319725 100.583554,124.757309 100.583554,126.130754 L100.583554,130.470628 C100.583554,130.470628 103.770515,127.533421 104.585871,125.960666 C105.400476,124.38866 105.598297,123.124611 105.598297,123.124611" id="Fill-186" fill="#AF7444"/>
          <path d="M99.2048191,122.384165 L100.583554,121.822199 C100.583554,121.822199 101.258254,122.009521 101.328206,121.072912 C101.398158,120.136302 100.89721,119.199692 99.2048191,118.075761 C97.5124278,116.951829 97.6365365,116.702316 94.7850452,118.075761 C91.9335539,119.449205 91.306993,118.82355 91.1189496,119.760909 C90.9309061,120.698268 92.0456278,121.634877 90.1095322,122.384165 C88.1726843,123.133453 87.6709843,123.320026 87.35808,123.944932 C87.0444235,124.569838 86.7939496,126.604903 86.7939496,129.645513 C86.7939496,132.686872 86.9315974,132.874943 88.2411322,132.437359 C89.5514191,131.999775 92.7526713,131.625131 95.2265713,131.999775 C97.7004713,132.374419 98.884393,131.62588 98.8565626,130.470479 C98.8287322,129.315077 98.4526452,124.007872 99.2048191,122.384165" id="Fill-188" fill="#AF7444"/>
          <path d="M81.6227539,120.88559 C82.8284887,119.357043 82.2177235,116.01447 83.5340278,116.639376 C84.8503322,117.264282 86.1666365,116.452054 86.7939496,117.888439 C87.4205104,119.324823 87.2452539,119.636527 88.2411322,120.198493 C89.2385148,120.760459 90.6172496,120.839883 89.1129017,121.331416 C87.6085539,121.822199 85.5393235,123.383715 84.0981583,122.509296 C82.656993,121.634877 80.5900191,122.196843 81.6227539,120.88559" id="Fill-190" fill="#AF7444"/>
          <path d="M73.505293,132.613666 C73.505293,132.613666 76.9525061,124.25686 78.2688104,123.757834 C79.5851148,123.258809 82.02968,123.321749 82.7194235,123.446131 C83.409167,123.570513 84.4118148,122.932119 83.9732974,124.875023 C83.5340278,126.817926 83.9725452,133.249812 84.6622887,134.310803 C85.3520322,135.371795 85.5400757,135.89255 83.9732974,136.568407 C82.405767,137.245014 80.3372887,138.305256 79.7731583,138.867971 C79.2090278,139.430686 78.9585539,134.684698 76.4515583,135.371795 C73.9438104,136.058891 71.2487713,134.475646 73.505293,132.613666" id="Fill-192" fill="#AF7444"/>
          <path d="M83.5685526,143.970771 C83.5685526,143.721258 81.3398613,140.180124 82.9698222,139.555218 C84.599783,138.930312 86.4177874,138.74299 87.1699613,138.118833 C87.9221352,137.494677 87.1819961,137.303608 88.241057,135.868722 C89.30087,134.434585 87.2196048,133.810429 90.109457,134.185073 C92.9993091,134.559717 94.8609396,134.890152 95.0181439,134.890152 C95.1753483,134.890152 83.5685526,143.970771 83.5685526,143.970771" id="Fill-194" fill="#AF7444"/>
          <path d="M76.4515583,148.047271 C76.4515583,148.047271 76.8900757,143.426413 78.582467,142.052969 C80.2748583,140.679524 80.78408,141.615385 81.3436974,142.864447 C81.9048191,144.11351 82.3734235,144.710692 82.3734235,144.710692 L76.4515583,149.104516 L76.4515583,148.047271 Z" id="Fill-196" fill="#AF7444"/>
          <path d="M28.3344665,151.605638 C28.3344665,151.605638 30.2547665,150.632313 32.5744709,150.214211 C34.8941752,149.795359 36.164597,149.171202 34.4323404,152.168353 C32.6993317,155.165504 32.6948187,155.983726 32.6948187,155.983726 C32.6948187,155.983726 28.9106317,153.131188 28.3344665,151.605638" id="Fill-198" fill="#AF7444"/>
          <path d="M155.570852,10.0011932 C155.570852,10.0011932 144.021221,2.93540969 137.310326,13.0987487 C131.022904,22.6206974 126.624191,29.9712103 124.653495,32.4813242 C108.712673,52.7787801 101.497821,63.470367 88.9876648,67.8102416 C92.1844039,68.3107658 92.0460039,68.79031 92.4980604,69.5141219 C92.9493648,70.2379339 111.011317,58.7086433 124.864104,36.6488627 C138.716139,14.5898313 142.89296,6.11988262 155.570852,10.0011932" id="Fill-200" fill="#AF7444"/>
          <path d="M144.773019,28.7224473 C144.773019,28.7224473 145.947915,30.6114017 148.792637,32.398453 C151.636606,34.1862536 156.14965,35.872151 162.825193,35.466037 C162.825193,35.466037 163.64055,38.4002479 165.709028,39.0873447 C167.777506,39.7744416 170.661341,39.8366325 172.29055,39.0873447 C172.729819,38.8378319 172.638806,38.6227863 171.914463,35.153584 C171.099106,31.2520427 164.64395,27.7865869 157.341093,11.6769003 C157.341093,11.6769003 154.928119,7.24336467 146.748228,9.52269801 C140.18175,10.9583333 132.707397,24.8666125 128.520797,30.9912906 C124.001737,37.6599516 109.749545,63.1859373 87.2783496,72.0837293 C87.2783496,72.0837293 82.6878322,74.1322821 79.1300496,75.0576524 C77.61818,75.4502792 73.0976148,75.8653846 71.4518583,77.5977379 C69.8068539,79.3308405 64.0241409,86.0744302 62.8018583,87.2920228 C61.5795757,88.5096154 57.49828,93.0817692 53.0235974,96.6109145 C46.0193539,102.136912 37.5573974,103.729148 32.244793,111.315687 C26.1175843,120.067368 22.3258757,126.11412 22.9366409,138.477368 C23.5481583,150.840615 36.2982583,162.201316 48.3698974,161.284188 C65.0117452,160.01939 86.436667,141.804205 91.306993,137.744564 C96.5752191,133.352239 107.037958,127.500302 106.051858,120.260684 C105.299684,114.734687 104.51968,109.845584 104.096958,107.456855 C104.096958,107.456855 102.996528,103.776353 108.073702,97.5947293 C108.073702,97.5947293 118.761341,84.4200028 126.219897,70.0584046 C133.678454,55.6968063 140.871493,38.3155783 142.814358,34.4440085 C142.814358,34.4440085 145.611693,35.1693191 148.934797,32.4861197" id="Stroke-202" stroke="#533D37" stroke-width="0.5625"/>
          <path d="M155.966044,10.2617205 C155.966044,10.2617205 143.801887,1.31147835 134.937518,16.5362561 C134.937518,16.5362561 126.741079,29.9200339 120.67254,38.120239 C114.521261,46.432088 99.7056917,65.188259 88.9872135,67.8107661 C88.9872135,67.8107661 92.0154657,68.3142875 92.7578613,69.5138972" id="Stroke-204" stroke="#533D37" stroke-width="0.5625"/>
          <g id="Group-209" transform="translate(144.417391, 0.000000)">
            <path d="M8.37981913,10.2097199 C8.37981913,10.2097199 3.96079739,6.05716724 5.37112348,0.624831054 L4.30454087,1.81095356 L3.05141913,1.18679687 L2.4872887,2.17136097 L0.418810435,1.62363162 C0.418810435,1.62363162 5.43280174,6.40034103 3.36432348,10.9275376" id="Fill-206" fill="#FADAB9"/>
            <path d="M8.37981913,10.2097199 C8.37981913,10.2097199 3.96079739,6.05716724 5.37112348,0.624831054 L4.30454087,1.81095356 L3.05141913,1.18679687 L2.4872887,2.17136097 L0.418810435,1.62363162 C0.418810435,1.62363162 5.43280174,6.40034103 3.36432348,10.9275376" id="Stroke-208" stroke="#533D37" stroke-width="0.5625"/>
          </g>
          <path d="M142.329206,14.8613732 C142.329206,14.8613732 141.326558,2.62250712 142.329206,2.18567236 C143.331854,1.74883761 147.092723,11.6147094 147.092723,11.6147094" id="Fill-210" fill="#FADAB9"/>
          <path d="M142.141163,14.8613732 C142.141163,14.8613732 141.138515,2.62250712 142.141163,2.18567236 C143.14381,1.74883761 146.90468,11.6147094 146.90468,11.6147094" id="Stroke-212" stroke="#533D37" stroke-width="0.5625"/>
          <path d="M144.084028,14.5042627 C144.084028,14.5042627 143.234823,9.82945641 143.14381,6.49512593 C143.079123,4.15510028 145.633506,9.60167293 145.766641,11.791841 C145.900528,13.9820091 146.026893,14.1468524 144.084028,14.5042627" id="Fill-214" fill="#A67C9F"/>
          <path d="M157.184641,20.7312185 C157.184641,20.7312185 153.820919,25.2179536 150.164602,19.5758168 C150.164602,19.5758168 152.372984,17.8839251 154.085684,18.1559165 C156.260219,18.5013382 156.969519,20.3648168 157.184641,20.7312185" id="Fill-216" fill="#A67C9F"/>
          <path d="M169.345037,37.4650618 C169.345037,37.4650618 167.75118,36.590643 167.093028,33.4848453 C167.093028,33.4848453 168.232571,33.8272698 168.77188,34.9039963 C169.757228,36.8671302 169.129915,37.0986601 169.345037,37.4650618" id="Fill-218" fill="#A67C9F"/>
          <path d="M154.974378,22.4676179 C154.974378,22.4676179 152.5945,22.0907262 152.796834,19.8570994 C152.953287,18.1254954 154.974378,18.264863 154.974378,18.264863 L157.184265,20.7315182 L154.974378,22.4676179 Z" id="Fill-220" fill="#1B110F"/>
          <path d="M150.164602,19.5758168 C150.164602,19.5758168 154.39558,15.6428054 157.184641,20.7312185 C157.184641,20.7312185 154.175945,25.320606 150.164602,19.5758168 Z" id="Stroke-222" stroke="#533D37" stroke-width="0.5"/>
          <path d="M169.345037,37.4650618 C169.345037,37.4650618 167.213376,36.1223382 167.088515,33.4061701 C167.088515,33.4061701 169.689532,34.5930419 169.345037,37.4650618 Z" id="Stroke-224" stroke="#533D37" stroke-width="0.5"/>
          <path d="M66.0048404,258.05058 L66.6629926,262.250338 L77.8515796,262.250338 L75.3129926,258.410238 L71.4746491,257.809309 C71.4746491,257.809309 66.3072143,257.507346 65.9108187,256.984343 C65.514423,256.46134 66.0048404,258.05058 66.0048404,258.05058" id="Fill-226" fill="#624B59"/>
          <path d="M102.485275,126.535969 C102.485275,126.535969 87.3477752,168.870726 83.7749491,183.950142 C80.202123,199.029558 81.6124491,204.085003 81.6124491,206.335114 C81.6124491,209.051282 79.0505448,212.599909 77.9456013,215.701211 C76.0839709,220.927493 75.8297361,221.929291 74.41941,232.981285 C72.1779317,250.550584 74.3863143,251.861838 73.4325578,253.540242 C72.0222317,256.021883 73.005323,256.633302 72.8684274,257.661325 C72.8684274,257.661325 66.9450578,258.504274 65.9108187,256.984718 C64.8765796,255.464413 64.1025926,255.606778 64.5004926,254.664174 C65.6287535,252.697293 69.0135361,238.273504 70.4238622,228.907407 C71.8341883,219.541311 71.179797,210.456197 71.179797,205.398504 C71.179797,200.340812 74.6082057,196.936798 76.3472317,179.360755 C78.0080317,162.572963 77.027197,164.602034 72.4141143,154.772877 C71.1113491,151.996017 76.8451709,137.124903 76.8451709,137.124903 C76.8451709,137.124903 80.24951,131.888131 81.3386578,134.374268 C83.0618883,138.308028 83.4402317,137.689866 87.753197,137.090436 C89.8953883,136.792219 93.53591,136.790721 93.53591,133.296792 C93.53591,129.621536 102.485275,126.535969 102.485275,126.535969" id="Fill-228" fill="#FADAB9"/>
          <path d="M64.7825578,254.037095 C64.9367535,253.849773 68.4494057,254.195944 69.5776665,252.510046 C70.7059274,250.824149 70.6457535,249.138252 71.8041013,248.388964 C72.9624491,247.639676 73.5055187,242.399158 73.5055187,242.399158 C73.5055187,242.399158 70.8119839,242.742331 69.2000752,243.14395 C67.5881665,243.545568 66.6660013,247.628437 66.2899143,248.93969 C65.9138274,250.250944 64.7825578,254.037095 64.7825578,254.037095" id="Fill-230" fill="#AF7444"/>
          <path d="M73.6147343,240.758442 C73.6147343,240.758442 69.8914735,240.288639 68.6375996,240.912795 C67.3837257,241.536952 68.5804343,239.241884 69.1445648,236.681568 C69.7086952,234.121251 70.2066343,231.593154 71.8042517,231.031189 C73.4018691,230.469223 74.5978257,231.593904 74.5978257,231.593904 C74.5978257,231.593904 73.7350822,239.696701 73.6147343,240.758442" id="Fill-232" fill="#AF7444"/>
          <path d="M74.4043665,227.471697 C74.4043665,227.471697 73.1414665,227.909281 72.6450317,226.84754 C72.1478448,225.7858 72.2644317,223.412805 72.6450317,220.166142 C73.0256317,216.919478 73.4017187,215.483842 74.4043665,214.047458 C75.4070143,212.611073 75.9087143,211.673714 76.4104143,212.29862 C76.9113622,212.923526 76.8481796,213.859387 77.0994057,214.359162 C77.3506317,214.858936 75.3445839,219.479045 75.1565404,221.290073 C74.968497,223.101102 74.4043665,227.471697 74.4043665,227.471697" id="Fill-234" fill="#AF7444"/>
          <path d="M79.6850035,210.987367 C79.6850035,210.987367 72.6581948,211.205409 71.9278339,208.957546 C71.1982252,206.709683 70.8747904,204.565971 71.3757383,202.817882 C71.8781904,201.069794 72.3355122,201.245877 73.5893861,200.559529 C74.84326,199.873181 79.7316383,197.874831 80.1077252,197.687509 C80.4838122,197.500187 80.3589513,197.437247 80.4213817,199.810241 C80.4838122,202.183236 82.1085078,205.441888 81.5443774,207.127785 C80.980247,208.813683 80.7500817,210.425401 79.6850035,210.987367" id="Fill-236" fill="#AF7444"/>
          <path d="M72.4144904,198.038026 C72.4144904,198.038026 78.540947,196.875131 79.544347,195.689009 C80.547747,194.502886 81.5503948,194.876781 80.9862643,193.628468 C80.4213817,192.380154 79.6067774,189.632516 78.9170339,188.508584 C78.2280426,187.384653 78.6673122,187.010009 77.7263426,187.197331 C76.7861252,187.384653 75.3396948,187.265516 74.7860948,187.806502 C74.233247,188.346738 73.8864948,193.115955 73.385547,194.114755 C72.4866991,195.904804 72.789073,196.185037 72.4144904,198.038026" id="Fill-238" fill="#AF7444"/>
          <path d="M82.035547,191.302528 C81.9099339,191.115207 77.6007296,184.074899 78.0399991,182.888776 C78.4785165,181.702654 79.6067774,181.515332 80.9855122,181.889976 C82.364247,182.26462 84.0889817,182.669984 84.0889817,182.669984 C84.0889817,182.669984 83.1201817,185.730825 83.0577513,187.151474 C82.9953209,188.571375 82.035547,191.302528 82.035547,191.302528" id="Fill-240" fill="#AF7444"/>
          <path d="M77.1185109,177.45674 C77.1185109,177.45674 79.6074543,180.767093 81.6759326,180.516831 C83.7444109,180.266569 84.7605978,180.134694 84.7605978,180.134694 L85.5586543,177.312877 C85.5586543,177.312877 84.13855,171.774891 81.089237,170.463637 C78.0399239,169.152384 78.9801413,170.151184 78.5408717,172.211726 C78.1031065,174.272267 77.1185109,177.45674 77.1185109,177.45674" id="Fill-242" fill="#AF7444"/>
          <path d="M83.4400061,170.401446 C83.43098,170.396951 79.2932713,168.153583 79.0427974,167.279164 C78.7915713,166.404746 78.6035278,165.655458 79.0427974,163.90737 C79.4805626,162.159281 80.64568,157.164529 80.7224017,155.603013 C80.796867,154.041498 80.9849104,154.665654 82.3012148,153.666854 C83.6175191,152.668053 86.4389235,150.981407 86.75258,150.295059 C87.0654843,149.608711 86.8774409,148.858674 87.5047539,151.231669 C88.1305626,153.604663 90.3246539,153.417341 89.2588235,155.29056 C88.1937452,157.16378 85.74918,163.095891 85.6859974,165.031301 C85.6243191,166.966711 84.7435235,171.143991 83.4400061,170.401446" id="Fill-244" fill="#AF7444"/>
          <path d="M96.9549165,142.32511 C96.766873,142.387301 90.3252557,144.674876 88.9465209,145.299782 C87.5677861,145.924688 86.1882991,147.235942 87.6302165,148.547195 C89.0721339,149.858449 90.4508687,150.732868 90.5764817,151.91899 C90.7020948,153.105113 89.8235557,154.665879 90.4508687,154.79101 C91.0781817,154.916141 92.4208122,155.995865 93.4227078,152.686261 C94.4261078,149.376657 96.9549165,142.32511 96.9549165,142.32511" id="Fill-246" fill="#AF7444"/>
          <path d="M73.2357139,154.50688 C72.9303313,154.573567 76.8145574,151.072895 77.7457487,150.510929 C78.6761878,149.948963 79.9300617,149.698701 79.6164052,148.263066 C79.3027487,146.82743 77.046227,147.7011 76.2316226,145.453236 C75.4170183,143.205373 76.0623835,143.143932 75.3952052,142.89367 C74.7272748,142.643407 72.7528183,149.206419 72.7528183,150.642803 C72.7528183,154.24463 72.1458139,154.745154 73.2357139,154.50688" id="Fill-248" fill="#AF7444"/>
          <path d="M82.2397622,141.17855 C82.2457796,141.428812 82.1953839,144.862798 83.4402317,145.05012 C84.6843274,145.237442 85.5613622,145.549895 87.56741,144.300832 C89.5734578,143.051769 89.4004578,143.17765 91.3673926,142.552744 C93.3343274,141.927838 94.2113622,141.428063 94.9011057,141.17855 C95.5908491,140.929037 97.1132491,141.865647 98.0015665,138.914952 C98.4468535,137.436607 96.2798404,137.432111 94.0233187,138.181399 C91.766797,138.930687 91.464423,141.428812 89.5471317,140.741715 C87.6298404,140.054618 89.1966187,138.744114 85.9374491,138.993627 C82.6782796,139.24314 82.2202057,140.364074 82.2397622,141.17855" id="Fill-250" fill="#AF7444"/>
          <path d="M75.8595222,139.525546 C75.8595222,139.525546 72.9072396,147.87486 72.3137743,153.464546 C71.944457,156.941241 77.12167,160.458398 77.1186613,165.704162 C77.1141483,172.799167 76.9057961,176.02635 76.3469309,179.36068 C73.432257,196.78162 71.1794961,200.340737 71.1794961,205.398429 C71.1794961,210.456122 71.8338874,219.541236 70.4235613,228.907332 C69.0132352,238.273429 65.6284526,252.697219 64.5001917,254.664099 C64.1022917,255.606703 64.8762787,255.464338 65.9105178,256.984643 C66.944757,258.504199 72.8681265,257.66125 72.8681265,257.66125 C73.0050222,256.633227 72.0219309,256.022558 73.432257,253.540167 C74.3860135,251.861763 72.1776309,250.550509 74.4198613,232.981959 C75.8301874,221.929965 76.0844222,220.927418 77.9453004,215.701136 C79.0502439,212.599834 81.6121483,209.051207 81.6121483,206.335039 C81.6121483,204.084928 80.2018222,199.029483 83.7746483,183.950068 C87.3474743,168.870652 102.484974,126.535894 102.484974,126.535894" id="Stroke-252" stroke="#533D37" stroke-width="0.5625"/>
          <path d="M52.1660439,257.790052 C52.1660439,257.790052 53.7952526,260.303913 53.7952526,261.98981 L63.4794917,261.98981 L62.0691657,258.618015 C62.0691657,258.618015 59.9141874,257.643941 57.8231439,256.735055 C57.3808657,256.650386 53.200283,257.040765 52.1660439,257.790052" id="Fill-254" fill="#624B59"/>
          <path d="M25.6526657,146.800381 C39.8604787,177.987985 33.3925352,204.294728 33.6746004,206.074287 C33.9566657,207.853845 33.5805787,207.010897 36.4012309,210.382691 C39.221883,213.754486 42.6066657,222.371295 42.6066657,222.371295 C48.8790439,239.136609 51.1491048,258.149785 51.1491048,258.149785 C53.3920874,257.119515 59.2485135,256.838532 58.4963396,256.370227 C57.7441657,255.901922 57.0860135,254.028703 57.0860135,254.028703 C57.0860135,254.028703 45.0512309,211.974928 44.1110135,207.947506 C43.1707961,203.920085 44.6751439,199.049714 44.6751439,199.049714 C44.6751439,199.049714 50.8166439,185.357979 51.9449048,177.396797 C53.0731657,169.435615 51.0340222,152.768458 51.0340222,152.768458 C51.0340222,152.768458 49.2190265,160.773099 42.5765787,151.133512 C41.4257526,149.464099 36.3124743,157.763959 34.4320396,156.541122 C32.5516048,155.318284 25.6526657,146.800381 25.6526657,146.800381" id="Fill-256" fill="#FADAB9"/>
          <path d="M49.0133822,245.466367 C49.060017,245.686658 51.9792039,244.257017 52.165743,242.945763 C52.3537865,241.634509 52.9705691,239.60394 52.9705691,239.60394 L51.5624996,234.651897 C51.5624996,234.651897 49.2819083,236.139982 48.592917,237.076592 C47.9031735,238.013202 47.693317,239.454082 47.693317,239.454082 C47.693317,239.454082 48.8253387,244.592697 49.0133822,245.466367" id="Fill-258" fill="#AF7444"/>
          <path d="M45.34503,230.612262 C45.3630822,230.809325 47.4473561,230.581541 48.0205126,230.269837 C48.592917,229.958134 49.6579952,227.937305 49.6579952,227.937305 C49.6579952,227.937305 48.5921648,225.275085 47.6835387,223.838701 C46.7749126,222.402316 45.6466517,221.465706 44.3303474,221.403515 C43.014043,221.341325 42.7169343,222.669062 42.7169343,222.669062 C42.7169343,222.669062 45.2186648,229.301008 45.34503,230.612262" id="Fill-260" fill="#AF7444"/>
          <path d="M40.5455587,217.606575 C40.7336022,217.606575 42.9502587,216.783107 43.0766239,216.096011 C43.202237,215.408914 45.2082848,214.035469 45.3331457,213.848147 C45.4580065,213.660825 44.5050022,209.477552 44.5050022,209.477552 C44.5050022,209.477552 42.700537,208.851897 41.0713283,209.664125 C39.4413674,210.476352 38.2724891,213.17154 38.2724891,213.17154 L40.5455587,217.606575 Z" id="Fill-262" fill="#AF7444"/>
          <path d="M35.6358187,209.477852 C35.6358187,209.477852 37.0596839,209.477852 37.4357709,208.603433 C37.8118578,207.729014 39.9427665,204.045515 41.008597,203.920384 C42.0744274,203.795253 43.8247361,204.109954 43.8247361,204.109954 C43.8247361,204.109954 44.097023,200.236886 44.6754448,199.050014 C45.2531143,197.863142 43.52161,194.86674 41.82621,195.116253 C40.1315622,195.365766 39.0657317,195.927732 37.5613839,197.551438 C36.0570361,199.175145 35.0085057,199.844259 35.0085057,199.844259 C35.0085057,199.844259 33.7380839,205.325299 33.6749013,206.074587 C33.6117187,206.823874 34.9701448,209.152661 35.6358187,209.477852" id="Fill-264" fill="#AF7444"/>
          <path d="M46.3359439,193.867191 C46.3359439,193.867191 41.634857,193.493296 41.0082961,192.431555 C40.3817352,191.369815 41.0707265,188.809498 41.0082961,186.312122 C40.9458657,183.814746 40.5065961,181.316621 41.5724265,181.316621 C42.638257,181.316621 44.9015483,181.878587 44.9015483,181.878587 C44.9015483,181.878587 46.6496004,182.502743 46.6496004,181.316621 C46.6496004,180.130498 47.5898178,175.072057 48.8436917,173.074456 C50.0975657,171.076854 50.84297,172.517735 50.84297,172.517735 C50.84297,172.517735 49.1565961,187.99727 46.3359439,193.867191" id="Fill-266" fill="#AF7444"/>
          <path d="M35.6358187,194.491347 C35.6358187,194.491347 38.7520752,193.056461 38.7520752,191.869589 C38.7520752,190.682718 37.8750404,188.93388 38.2511274,185.625025 C38.6272143,182.316171 40.4444665,178.819245 38.7520752,179.193889 C37.0596839,179.568532 35.6358187,179.943176 35.6358187,179.943176 C35.6358187,179.943176 36.5609926,192.207518 35.6358187,194.491347" id="Fill-268" fill="#AF7444"/>
          <path d="M35.1451757,177.066061 C35.1451757,177.066061 39.692067,177.944976 41.1964148,178.257429 C42.7007626,178.569882 43.9313191,179.505742 44.1622365,178.506942 C44.3931539,177.508141 45.3958017,171.951423 46.2104061,169.953073 C47.0257626,167.954722 47.7147539,167.143244 47.1506235,166.393956 C46.586493,165.644668 46.196867,167.017363 45.5454843,164.83244 C44.8941017,162.647517 44.5180148,162.521637 43.264893,162.584577 C42.0117713,162.647517 36.7465539,166.268825 36.7465539,166.268825 C36.7465539,166.268825 36.6833713,166.581278 35.6799713,166.081503 C34.6780757,165.581728 34.4810061,166.018563 34.4855191,167.829591 C34.4900322,169.64062 33.9687757,170.764551 33.9687757,170.764551 L35.1451757,177.066061 Z" id="Fill-270" fill="#AF7444"/>
          <path d="M31.0419917,155.684985 L34.4854439,157.152091 C34.4854439,157.152091 33.4233743,157.714057 33.6114178,159.399954 C33.7994613,161.085852 35.9852787,161.835139 34.4854439,163.333715 L32.9856091,164.83229 C32.9856091,164.83229 30.0385917,156.965518 31.0419917,155.684985" id="Fill-272" fill="#AF7444"/>
          <path d="M37.5603309,164.145193 C37.4392309,164.002829 35.3038091,162.178313 35.6798961,160.258638 C36.055983,158.338213 37.0789396,158.08945 37.8220874,156.527934 C38.5637309,154.966419 38.910483,153.655914 40.7427787,152.968817 C42.5758265,152.281721 46.3366961,157.526735 46.3366961,157.526735 C46.3366961,157.526735 46.9008265,158.963119 46.3366961,159.899729 C45.7725657,160.836339 42.6525483,160.649017 40.9217961,161.96027 C39.1910439,163.271524 38.0214135,164.686928 37.5603309,164.145193" id="Fill-274" fill="#AF7444"/>
          <path d="M49.2190265,160.773399 C49.2190265,160.773399 46.712783,161.000433 46.8376439,162.572438 C46.9625048,164.145193 48.3419917,164.270325 48.2788091,165.394256 C48.2171309,166.518188 47.7146787,170.139495 47.7146787,170.139495 C47.7146787,170.139495 48.6548961,172.262228 49.2190265,170.139495 C49.783157,168.016763 50.3480396,166.643319 50.3480396,166.643319 C50.3480396,166.643319 51.2860004,159.913216 49.2190265,160.773399" id="Fill-276" fill="#AF7444"/>
          <path d="M50.8431204,151.133662 C50.8431204,151.133662 53.0733161,168.981696 51.9450552,176.942878 C50.8167943,184.904061 44.3548683,200.303423 44.3548683,200.303423 C44.3548683,200.303423 43.1709465,203.920234 44.1111639,207.947656 C45.0513813,211.975078 57.0861639,254.028853 57.0861639,254.028853 C57.0861639,254.028853 57.7443161,255.902072 58.49649,256.370377 C59.2486639,256.838682 53.3922378,257.119665 51.1492552,258.149935 C51.1492552,258.149935 48.8791943,239.136759 42.6068161,222.371445 C42.6068161,222.371445 39.2220335,213.754636 36.4013813,210.382841 C33.5807291,207.011046 33.9568161,207.853995 33.6747509,206.074437 C33.3926857,204.294878 40.3826378,176.942878 24.3838987,145.016477" id="Stroke-278" stroke="#533D37" stroke-width="0.5625"/>
        </g>
      </g>
    </g>
  </g>
</svg>