<svg width="131px" height="123px" viewBox="0 0 131 123" version="1.1" xml:space="preserve" xmlns="http://www.w3.org/2000/svg" xmlns:xlink="http://www.w3.org/1999/xlink">
  <defs>
    <polygon id="path-1" points="0.41725 0.38525 13.75225 0.38525 13.75225 26.5 0.41725 26.5"/>
  </defs>
  <g>
    <title>bat-a</title>
    <desc>Created with Sketch.</desc>
    <g id="bat-a" stroke="none" stroke-width="1" fill="none" fill-rule="evenodd">
      <g id="Group" transform="translate(42.000000, 5.000000)">
        <path d="M22.64245,76.68015 L12.20245,75.41965 C12.27245,75.60015 19.06245,99.14965 19.06245,99.14965 L17.62745,99.29015 C17.62745,99.29015 17.78245,99.64015 17.74245,99.70515 L21.77745,99.54465 C21.77745,99.54465 22.64245,77.13465 22.64245,76.68015" id="Fill-1" fill="#3C3C32"/>
        <g id="Group-5" transform="translate(23.000000, 73.490000)">
          <mask id="mask-2" fill="white">
            <use xlink:href="#path-1"/>
          </mask>
          <g id="Clip-4"/>
          <path d="M5.44225,26.50025 C5.47175,26.35625 5.51525,26.21525 5.57275,26.07975 C5.17575,26.05675 4.78225,25.99475 4.39725,25.89475 C4.39725,25.57475 4.66725,25.18475 5.47275,22.98975 C7.97275,16.10525 13.47275,1.77525 13.75225,0.78025 L0.41725,0.38525 C0.41725,0.88525 0.91725,7.44525 0.80275,7.95475 C0.80275,7.95475 0.44775,7.45475 0.45275,7.48525 C0.53275,8.35525 1.77225,26.30475 1.77225,26.30475 C1.77225,26.30475 5.14225,26.50025 5.44225,26.50025" id="Fill-3" fill="#3C3C32" mask="url(#mask-2)"/>
        </g>
        <path d="M15.73745,5.4099 L15.41745,5.1899 C15.41745,5.0099 15.46245,4.8499 15.47245,4.6899 C15.50245,4.2199 15.53245,3.7449 15.54745,3.2749 C15.54745,2.9149 15.54745,2.9149 15.77245,2.6549 C16.03245,2.7399 16.09245,2.7899 16.08245,2.9999 C16.08245,3.3799 16.03745,3.7599 16.00245,4.1399 C15.97245,4.4449 15.93745,4.7499 15.89245,5.0549 C15.85445,5.1789 15.80245,5.2979 15.73745,5.4099" id="Fill-6" fill="#64645A"/>
        <path d="M14.9674,5.875 L14.6074,5.725 C14.6074,5.545 14.5774,5.385 14.5524,5.225 C14.4724,4.76 14.3974,4.295 14.3074,3.835 C14.2164,3.616 14.2469,3.3655 14.3874,3.175 C14.6624,3.205 14.7324,3.24 14.7674,3.445 C14.8374,3.82 14.8924,4.195 14.9424,4.57 C14.9924,4.945 15.0174,5.185 15.0374,5.49 C15.0299,5.6205 15.0064,5.75 14.9674,5.875" id="Fill-8" fill="#64645A"/>
        <path d="M16.0924,5.78 L16.4774,5.71 C16.5324,5.535 16.5724,5.38 16.6274,5.21 C16.7974,4.77 16.9624,4.325 17.1274,3.89 C17.2624,3.6955 17.2814,3.443 17.1774,3.23 C16.9074,3.23 16.8324,3.23 16.7524,3.42 C16.6124,3.77 16.4824,4.13 16.3574,4.49 C16.2324,4.85 16.1624,5.075 16.0824,5.37 C16.0714,5.5065 16.0744,5.644 16.0924,5.78" id="Fill-10" fill="#64645A"/>
        <path d="M4.7274,51.97995 C4.7274,51.97995 4.1724,38.88495 4.9024,32.47995 C5.5024,27.21495 6.8424,22.10495 8.3024,17.02495 C9.2424,13.75495 11.7474,4.84995 15.9974,4.48995 C20.6224,7.03995 19.8524,20.59495 19.6624,24.83995 C19.4124,30.38495 18.2924,44.48495 17.3374,49.91995 C14.6624,50.78995 4.7274,51.97995 4.7274,51.97995" id="Fill-12" fill="#64645A"/>
        <path d="M7.2726,43.57005 C7.2726,43.57005 8.0076,30.98505 10.0676,21.28005 C11.4926,14.58005 13.6126,10.24005 14.6776,10.18505 C17.2876,10.06005 16.9526,21.00505 16.8276,23.77005 C16.6676,27.37505 15.5926,38.86505 14.9726,42.40005 C13.2326,42.95505 7.2726,43.57005 7.2726,43.57005" id="Fill-14" fill="#3C3C32"/>
        <path d="M30.32265,2.7351 L29.97265,2.5551 L29.97265,2.0551 C29.93265,1.5901 29.89715,1.1201 29.84765,0.6501 C29.77515,0.4246 29.82665,0.1781 29.98215,0.0001 C30.25765,0.0501 30.32265,0.0951 30.34265,0.3001 C30.37715,0.6801 30.39715,1.0601 30.41715,1.4401 C30.41715,1.7451 30.44215,2.0551 30.41715,2.3651 C30.39665,2.4911 30.36515,2.6146 30.32265,2.7351" id="Fill-16" fill="#64645A"/>
        <path d="M29.6273,3.2949 L29.2473,3.1999 C29.2023,3.0249 29.1728,2.8699 29.1223,2.6999 C28.9823,2.2499 28.8428,1.7999 28.6873,1.3549 C28.5678,1.1494 28.5678,0.8954 28.6873,0.6899 C28.9623,0.6899 29.0328,0.6899 29.0973,0.9049 C29.2178,1.2649 29.3273,1.6299 29.4278,1.9949 C29.5278,2.3599 29.5873,2.5949 29.6528,2.8949 C29.6588,3.0289 29.6508,3.1629 29.6273,3.2949" id="Fill-18" fill="#64645A"/>
        <path d="M30.72255,3.05005 L31.09755,2.92505 C31.12755,2.74505 31.14255,2.58505 31.18255,2.42505 C31.28255,1.97005 31.38755,1.51005 31.50755,1.05005 C31.61005,0.83805 31.59505,0.58805 31.46755,0.39005 C31.19205,0.39005 31.11755,0.43505 31.07255,0.63505 C30.98255,1.00505 30.90255,1.37505 30.82755,1.75005 C30.75255,2.12505 30.71755,2.36005 30.67755,2.66505 C30.67955,2.79455 30.69455,2.92355 30.72255,3.05005" id="Fill-20" fill="#64645A"/>
        <path d="M42.22255,55.95995 C39.83255,52.91495 28.07755,45.95995 27.33255,45.20995 C25.92255,40.12495 22.78755,2.24995 29.71205,1.91995 C35.58255,1.63495 36.84755,12.71495 37.84755,16.55995 C39.29255,22.08995 42.16755,49.15995 42.22255,55.95995" id="Fill-22" fill="#64645A"/>
        <path d="M38.0575,47.93505 C37.5125,37.75005 36.6225,25.14005 36.0575,21.63505 C35.4575,17.90505 32.8575,4.46005 30.2625,7.40505 C27.6675,10.35005 30.1925,38.58005 30.7175,47.97005 L38.0575,47.93505 Z" id="Fill-24" fill="#3C3C32"/>
        <path d="M42.26745,49.2549 C41.87245,44.8599 39.93245,39.9399 36.69245,36.8599 C32.69145,33.0879 27.34795,31.0719 21.85245,31.2599 C13.61745,31.4549 10.80745,33.1299 6.61245,39.1999 C2.75245,44.7849 4.00245,54.1999 4.39745,60.6199 C4.81745,67.4704 8.25745,76.6499 14.10745,80.6604 C20.21745,84.8399 29.10745,85.4904 34.72245,80.2004 C39.77795,75.4149 43.16245,59.1899 42.26745,49.2549" id="Fill-26" fill="#64645A"/>
        <path d="M21.5575,62.5249 L22.9725,62.3999 L24.5575,68.6749 C24.5575,68.6749 24.4075,71.1749 22.3775,71.4149 C20.3475,71.6549 19.3375,67.9149 19.3375,67.9149 L21.5575,62.5249 Z" id="Fill-28" fill="#828278"/>
        <path d="M29.74255,43.6101 C28.77255,41.0751 27.20255,41.1801 24.74255,40.8601 C22.32755,40.9801 19.08755,40.6801 17.05255,42.2401 C15.01755,43.8001 14.55255,47.2401 16.55255,48.8951 C18.90255,50.8601 26.28755,51.5751 29.05255,48.7051 C30.05755,47.6551 30.44755,45.4651 29.74255,43.6101" id="Fill-30" fill="#F01446"/>
        <path d="M27.11755,43.30005 C28.42755,43.20505 28.49255,44.95505 28.42755,45.73505 C28.36255,46.51505 28.33255,47.89005 27.17755,47.76505 C26.02255,47.64005 25.83255,46.41505 25.89755,45.70505 C25.96205,44.99505 25.80255,43.37505 27.11755,43.30005" id="Fill-32" fill="#6E1E3C"/>
        <path d="M18.3026,43.30005 C19.6176,43.20505 19.6776,44.95505 19.6176,45.73505 C19.5576,46.51505 19.5226,47.89005 18.3676,47.76505 C17.2126,47.64005 17.0176,46.41505 17.0826,45.70505 C17.1476,44.99505 16.9926,43.37505 18.3026,43.30005" id="Fill-34" fill="#6E1E3C"/>
        <path d="M27.3373,54.95995 C25.1128,53.33495 23.4728,53.30495 20.7273,53.30495 C19.4973,54.23495 18.0528,55.09995 18.8623,56.83995 C22.0573,59.52495 25.7923,59.01495 27.3373,54.95995" id="Fill-36" fill="#000000"/>
        <path d="M22.5226,53.08005 C21.6581,53.20255 20.8156,53.45005 20.0226,53.81505 C20.2126,54.08005 21.6326,55.84505 21.9876,55.77005 C22.3426,55.69455 22.4676,53.59005 22.5226,53.08005" id="Fill-38" fill="#FFFFFF"/>
        <path d="M23.82265,55.63475 C24.65265,55.83475 25.46215,54.05025 25.57765,53.80025 C24.81815,53.43825 23.98265,53.26675 23.14265,53.30025 C23.15765,53.37475 23.52215,55.47525 23.82265,55.63475" id="Fill-40" fill="#FFFFFF"/>
        <path d="M36.74255,44.06495 L37.37755,44.17995 C37.31705,45.21345 36.71655,46.13895 35.79755,46.61495 C35.61105,46.71195 35.40255,46.76045 35.19205,46.75495 C34.83255,46.76095 34.47255,46.73445 34.11755,46.67495 C33.02205,46.53495 32.24705,45.53345 32.38705,44.43795 C32.39255,44.39495 32.39905,44.35245 32.40755,44.30995 C32.40755,44.25995 32.47255,44.21495 32.54755,44.11995 C32.63255,44.18495 32.74255,44.22995 32.79255,44.31495 C32.90755,44.51995 32.98755,44.74995 33.10255,44.96495 C33.42855,45.71095 34.21155,46.14795 35.01755,46.03495 C35.79505,45.96795 36.43755,45.39895 36.59755,44.63495 C36.64255,44.49495 36.67255,44.37495 36.74255,44.06495" id="Fill-42" fill="#000000"/>
        <path d="M13.0575,44.375 L13.4475,44.515 C13.4885,44.6045 13.509,44.7015 13.5075,44.8 C13.3445,45.716 12.6525,46.447 11.7475,46.66 C10.8,46.9705 9.7805,46.454 9.47,45.507 C9.464,45.488 9.458,45.469 9.4525,45.45 C9.39,45.28 9.345,45.104 9.3175,44.925 C9.2625,44.605 9.2325,44.285 9.1825,43.865 C9.4075,43.915 9.6225,43.895 9.6825,43.99 C9.834,44.17 9.946,44.3795 10.0125,44.605 C10.1225,44.915 10.1825,45.24 10.2725,45.605 L11.0025,46.035 C11.948,45.918 12.745,45.2745 13.0575,44.375" id="Fill-44" fill="#000000"/>
        <path d="M41.44225,44.58005 C45.87725,52.51005 45.72275,65.58005 43.94225,74.19455 C42.16225,82.81005 36.27225,90.67005 28.47725,96.48005 C26.62225,92.84005 22.97725,62.40005 22.97725,62.40005 C22.97725,62.40005 38.05725,55.90455 41.44225,44.58005" id="Fill-46" fill="#C8C8BE"/>
        <path d="M18.1925,96.1948 C13.6925,95.2498 10.1425,89.3798 8.0375,86.1153 C5.678,82.5178 3.969,78.5338 2.9875,74.3453 C1.9875,70.0153 1.0425,65.2698 0.9325,60.8453 C0.6925,51.3998 4.6125,43.4598 4.6125,43.4598 C4.6125,43.4598 6.2625,50.6048 9.8525,54.6998 C14.2875,59.7598 21.5575,62.5248 21.5575,62.5248 C20.4185,69.1888 19.863,75.9393 19.8975,82.7003 C19.9125,84.9048 19.777,87.1083 19.4925,89.2948 C19.2175,91.4503 19.3275,94.2403 18.1925,96.1948" id="Fill-48" fill="#C8C8BE"/>
        <path d="M22.9774,62.3999 C22.9774,62.3999 40.0279,61.9649 42.0479,62.0499 C44.0674,62.1349 45.6374,61.8799 45.8874,63.8654 C46.1374,65.8499 43.0824,65.5899 43.0824,65.5899 C43.0824,65.5899 29.1729,65.4149 22.9774,62.3999" id="Fill-50" fill="#F0E6D2"/>
        <path d="M40.79775,81.5049 C40.79775,81.5049 27.86275,69.1249 22.97725,62.3999 C22.97725,62.3999 30.97725,80.5799 38.94775,85.7749 C38.94775,85.7749 40.10725,87.1154 41.57775,85.0449 C43.04775,82.9749 40.79775,81.5049 40.79775,81.5049" id="Fill-52" fill="#F0E6D2"/>
        <path d="M21.5575,62.5249 C21.5575,62.5249 6.6475,61.4049 4.2125,61.4904 C1.7775,61.5754 -0.0775,62.3549 0.0025,63.9504 C0.0825,65.5449 1.3375,65.5899 3.6875,65.7599 C6.0375,65.9304 15.4825,65.5399 21.5575,62.5249" id="Fill-54" fill="#F0E6D2"/>
        <path d="M5.73255,80.55515 C6.98255,79.22015 16.76755,70.05515 21.56255,62.52465 C21.56255,62.52465 17.67255,71.02465 13.45255,77.62515 C11.66255,80.41515 8.22755,83.83015 7.58755,84.52465 C5.42755,86.85515 4.78255,87.06965 3.74755,85.56015 C2.71255,84.04965 4.48255,81.87515 5.73255,80.55515" id="Fill-56" fill="#F0E6D2"/>
        <path d="M19.0575,54.375 C19.0575,54.375 21.1375,53.375 22.7325,53.375 C24.3275,53.375 26.6625,54.405 26.6625,54.405 L27.2625,52.605 L22.7225,51.79 L19.2625,52.19 L19.0575,54.375 Z" id="Fill-58" fill="#64645A"/>
      </g>
    </g>
  </g>
</svg>