<svg version="1.1" width="26" height="49" viewBox="-1 -1 26 49" xmlns="http://www.w3.org/2000/svg" xmlns:xlink="http://www.w3.org/1999/xlink">
  <!-- Exported by Scratch - http://scratch.mit.edu/ -->
  <g id="Group">
    <path id="Fill-1" fill="#FFDB5D" stroke="none" stroke-width="1" d="M 17.765 24.093 L 12.993 17.503 L 5.778 17.503 L 1.177 24.230 C 1.144 24.276 1.114 24.324 1.082 24.371 L 0.941 24.577 L 0.946 24.578 C 0.554 25.222 0.312 25.961 0.275 26.750 C 0.144 29.463 2.333 31.704 5.052 31.704 C 6.075 31.704 7.022 31.386 7.798 30.845 C 8.825 30.130 10.227 30.130 11.254 30.845 C 12.031 31.386 12.977 31.704 14 31.704 C 16.719 31.704 18.908 29.463 18.778 26.750 C 18.731 25.754 18.356 24.837 17.765 24.093 " transform="matrix(1, 0, 0, 1, 3.7, 10.5)"/>
    <path id="Fill-3" fill="#FFDB5D" stroke="none" stroke-width="1" d="M 16.978 11.999 C 16.978 16.179 13.548 19.567 9.316 19.567 C 5.084 19.567 1.654 16.179 1.654 11.999 C 1.654 7.819 5.084 4.430 9.316 4.430 C 13.548 4.430 16.978 7.819 16.978 11.999 " transform="matrix(1, 0, 0, 1, 3.7, 10.5)"/>
    <path id="Fill-5" fill="#FFF4E3" stroke="none" stroke-width="1" d="M 7.972 11.999 C 7.972 13.713 6.565 15.102 4.830 15.102 C 3.095 15.102 1.689 13.713 1.689 11.999 C 1.689 10.285 3.095 8.896 4.830 8.896 C 6.565 8.896 7.972 10.285 7.972 11.999 " transform="matrix(1, 0, 0, 1, 3.7, 10.5)"/>
    <path id="Fill-7" fill="#17242D" stroke="none" stroke-width="1" d="M 6.880 11.999 C 6.880 13.117 5.962 14.024 4.830 14.024 C 3.698 14.024 2.780 13.117 2.780 11.999 C 2.780 10.880 3.698 9.974 4.830 9.974 C 5.962 9.974 6.880 10.880 6.880 11.999 " transform="matrix(1, 0, 0, 1, 3.7, 10.5)"/>
    <path id="Fill-9" fill="#FFF4E3" stroke="none" stroke-width="1" d="M 16.901 11.999 C 16.901 13.713 15.495 15.102 13.760 15.102 C 12.025 15.102 10.619 13.713 10.619 11.999 C 10.619 10.285 12.025 8.896 13.760 8.896 C 15.495 8.896 16.901 10.285 16.901 11.999 " transform="matrix(1, 0, 0, 1, 3.7, 10.5)"/>
    <path id="Fill-11" fill="#17242D" stroke="none" stroke-width="1" d="M 15.810 11.999 C 15.810 13.117 14.892 14.024 13.760 14.024 C 12.628 14.024 11.710 13.117 11.710 11.999 C 11.710 10.880 12.628 9.974 13.760 9.974 C 14.892 9.974 15.810 10.880 15.810 11.999 " transform="matrix(1, 0, 0, 1, 3.7, 10.5)"/>
    <path id="Stroke-13" fill="none" stroke="#E54529" stroke-width="1.6" stroke-linecap="round" d="M 8.279 13.604 L 10.496 13.604 " transform="matrix(1, 0, 0, 1, 3.7, 10.5)"/>
    <path id="Stroke-15" fill="none" stroke="#FFDB5D" stroke-width="0.8" d="M 10.786 5.070 C 9.450 5.070 8.367 4 8.367 2.680 C 8.367 1.361 9.450 0.290 10.786 0.290 " transform="matrix(1, 0, 0, 1, 3.7, 10.5)"/>
  </g>
  <path id="Fill-17" fill="#FFF4E3" stroke="none" stroke-width="1" d="M 24.983 34.852 C 24.983 32.805 24.588 30.248 23.884 27.600 L 21.052 32.860 L 17.221 26.985 L 13.693 33.258 L 9.358 27.085 L 5.225 33.258 L 1.487 27.592 C 0.782 30.244 0.386 32.804 0.386 34.852 C 0.386 41.561 5.892 47 12.685 47 C 19.477 47 24.983 41.561 24.983 34.852 " transform="matrix(1, 0, 0, 1, 0.05, 0.15)"/>
  <path id="Fill-20" fill="#FFF4E3" stroke="none" stroke-width="1" d="M 12.685 0 C 7.707 0 3.422 7.969 1.487 15.245 L 5.225 20.911 L 9.358 14.737 L 13.693 20.911 L 17.221 14.638 L 21.052 20.513 L 23.884 15.252 C 21.950 7.974 17.665 0 12.685 0 " transform="matrix(1, 0, 0, 1, 0.05, 0.15)"/>
</svg>