<svg width="197px" height="147px" viewBox="0 0 197 147" version="1.1" xml:space="preserve" xmlns="http://www.w3.org/2000/svg" xmlns:xlink="http://www.w3.org/1999/xlink">
  <defs/>
  <g>
    <title>ghost-b</title>
    <desc>Created with Sketch.</desc>
    <g id="ghost-b" stroke="none" stroke-width="1" fill="none" fill-rule="evenodd">
      <path d="M99.4727273,118.182464 C98.9,123.940758 97.1181818,125.86019 93.6181818,126.691943 C91.8363636,127.13981 90.1181818,127.203791 88.5272727,126.372038 C85.1545455,124.580569 84.4545455,119.590047 82.7363636,116.327014 C79.3,115.367299 79.7454545,119.014218 74.8454545,119.014218 C66.3181818,119.014218 66.3818182,114.471564 64.7909091,101.483412 C63.2,88.4952607 98.2636364,92.5260664 98.2636364,92.5260664 C98.2636364,92.5260664 100.045455,112.488152 99.4727273,118.182464 Z" id="Shape" fill="#00A0B4" fill-rule="nonzero"/>
      <path d="M97.8818182,118.758294 C96.6727273,115.43128 103.736364,95.8530806 103.736364,95.8530806 L129,98.7962085 C129,98.7962085 129.890909,107.177725 129.954545,109.800948 C130.272727,121.701422 126.454545,123.300948 123.845455,123.236967 C120.218182,123.109005 116.972727,122.405213 113.854545,115.623223 C110.736364,108.841232 100.172727,115.559242 97.8818182,118.758294 Z" id="Shape" fill="#00A0B4" fill-rule="nonzero"/>
      <path d="M71.4727273,103.914692 C69.8181818,117.094787 75.4818182,136.545024 77.3272727,138.336493 L78.0909091,138.336493 C78.2818182,137.440758 77.0090909,134.305687 78.2181818,134.049763 C79.4272727,134.689573 79.6181818,137.056872 80.7,138.016588 C81.0818182,136.672986 78.8545455,133.985782 81.0818182,133.409953 C81.7181818,134.49763 82.3545455,136.353081 83.5,137.056872 C83.8181818,136.161137 81.7818182,117.222749 80.3818182,107.689573 L71.4727273,103.914692 Z" id="Shape" fill="#78C8C8" fill-rule="nonzero"/>
      <path d="M79.6818182,123.045024 C77.9636364,123.109005 77.7727273,125.732227 79.6181818,125.604265 C81.4636364,125.476303 81.2090909,122.981043 79.6818182,123.045024 Z" id="Shape" fill="#AADCDC" fill-rule="nonzero"/>
      <path d="M76.6909091,124.964455 C75.9272727,125.028436 75.8636364,127.907583 76.6272727,127.843602 C77.3909091,127.779621 77.3909091,124.900474 76.6909091,124.964455 Z" id="Shape" fill="#AADCDC" fill-rule="nonzero"/>
      <path d="M106.981818,102.507109 L117.418182,97.9004739 C117.418182,102.187204 117.354545,136.92891 116.463636,138.592417 C115.190909,137.440758 115.572727,135.521327 114.554545,134.369668 L113.981818,134.369668 C112.709091,135.71327 113.918182,138.14455 113.090909,139.744076 C110.990909,138.976303 111.754545,135.329384 110.354545,133.985782 C109.081818,134.753555 110.1,136.92891 109.081818,137.376777 C106.981818,135.905213 106.727273,129.251185 106.472727,127.011848 C106.027273,123.109005 105.836364,119.14218 105.9,115.175355 C105.9,111.208531 105.963636,106.218009 106.981818,102.507109 Z" id="Shape" fill="#78C8C8" fill-rule="nonzero"/>
      <path d="M113.090909,123.748815 C110.418182,123.876777 110.227273,127.843602 112.963636,127.71564 C115.7,127.587678 115.381818,123.620853 113.090909,123.748815 Z" id="Shape" fill="#AADCDC" fill-rule="nonzero"/>
      <polygon id="Shape" fill="#006482" fill-rule="nonzero" points="92.6636364 65.0781991 65.1090909 65.0781991 67.5272727 43.9004739 92.6636364 43.8364929"/>
      <path d="M75.4181818,43.8364929 C75.4181818,43.8364929 74.8454545,48.8909953 76.5636364,49.5947867 C78.2818182,50.2985782 79.4909091,50.3625592 80.1272727,48.8909953 C80.7636364,47.4194313 80.5727273,44.2203791 80.5727273,44.2203791 L75.4181818,43.8364929 Z" id="Shape" fill="#FFFFFF" fill-rule="nonzero"/>
      <path d="M78.8545455,56.4407583 C74.8454545,55.6090047 71.0909091,55.7369668 68.2909091,57.7843602 L68.1,67.0616114 L85.0909091,66.2938389 L85.5363636,58.5521327 C84.8363636,57.7203791 81.6545455,57.0805687 78.8545455,56.4407583 Z" id="Shape" fill="#000000" fill-rule="nonzero"/>
      <path d="M132.372727,31.3601896 C128.045455,17.3483412 120.727273,8.71090047 106.345455,5.76777251 C92.4727273,2.95260664 75.4181818,10.4383886 69.6909091,23.1066351 C63.3909091,37.0545024 64.7909091,53.1137441 63.7090909,67.8933649 C63.0727273,76.2748815 63.6454545,84.2725118 64.0272727,92.6540284 C64.1545455,96.492891 63.7727273,105.64218 65.3,112.168246 C66.8909091,119.078199 70.5181818,123.300948 74.5272727,122.597156 C85.2818182,123.364929 79.7454545,108.265403 84.8363636,108.841232 C89.9272727,109.417062 88.5909091,115.879147 89.9272727,117.734597 C92.4090909,121.189573 98.3909091,124.06872 102.463636,122.469194 C110.8,119.14218 104.627273,104.746445 111.690909,104.170616 C118.754545,103.594787 119.772727,112.488152 122.127273,115.175355 C124.990909,118.50237 130.145455,119.206161 132.690909,115.175355 C135.236364,111.14455 134.981818,104.42654 135.172727,99.8199052 C135.427273,93.2298578 137.272727,47.4194313 132.372727,31.3601896 Z M82.9272727,54.7772512 C82.8,60.5995261 79.0454545,62.2630332 75.6090909,62.2630332 C72.1727273,62.2630332 69.2454545,59.8317536 68.8,54.8412322 C68.3545455,49.8507109 71.2818182,45.6919431 76.0545455,46.0758294 C80.6363636,46.5236967 83.0545455,48.9549763 82.9272727,54.7772512 Z" id="Shape" fill="#AADCDC" fill-rule="nonzero"/>
      <path d="M82.9272727,15.3009479 C79.7454545,13.3175355 72.0454545,22.5308057 75.3545455,24.6421801 C78.6636364,26.7535545 85.6636364,17.028436 82.9272727,15.3009479 Z" id="Shape" fill="#78C8C8" fill-rule="nonzero"/>
      <path d="M60.0181818,50.8104265 C59.5090909,50.4265403 59.2545455,49.8507109 59.3181818,49.2748815 C59.1909091,48.7630332 59.3818182,48.1872038 59.8272727,47.8672986 C60.4636364,48.0592417 60.6545455,48.2511848 60.7181818,48.9549763 C60.7818182,49.6587678 60.8454545,50.4265403 60.0181818,50.8104265 Z" id="Shape" fill="#000000" fill-rule="nonzero"/>
      <path d="M95.5272727,51.1303318 C94.8272727,50.4265403 94.8272727,49.2748815 95.5272727,48.57109 C95.5272727,48.57109 95.5272727,48.57109 95.5272727,48.57109 C95.8454545,48.507109 96.0363636,48.6990521 96.1636364,48.9549763 C96.4818182,49.4028436 96.5454545,49.978673 96.3545455,50.4905213 C96.1636364,50.6184834 95.8454545,50.8744076 95.5272727,51.1303318 Z" id="Shape" fill="#000000" fill-rule="nonzero"/>
      <path d="M97.8181818,114.919431 C98.0090909,117.094787 98.9,118.950237 102.145455,119.078199 C105.9,119.270142 104.881818,103.402844 100.936364,103.146919 C96.9909091,102.890995 97.4363636,109.800948 97.8181818,114.919431 Z" id="Shape" fill="#78C8C8" fill-rule="nonzero"/>
      <path d="M96.9909091,94.7014218 C97.1818182,95.7890995 98.0727273,96.6848341 101.318182,96.8127962 C105.072727,96.8767773 104.054545,89.007109 100.109091,88.8151659 C96.1636364,88.6232227 96.6090909,92.1421801 96.9909091,94.7014218 Z" id="Shape" fill="#78C8C8" fill-rule="nonzero"/>
      <path d="M108.509091,82.6090047 C104.754545,82.992891 104.5,93.6137441 108.381818,93.2938389 C112.263636,92.9739336 111.754545,82.2890995 108.509091,82.6090047 Z" id="Shape" fill="#78C8C8" fill-rule="nonzero"/>
      <path d="M83.4363636,100.13981 C79.6818182,100.331754 79.4272727,105.834123 83.3090909,105.64218 C87.1909091,105.450237 86.6818182,100.011848 83.4363636,100.13981 Z" id="Shape" fill="#00A0B4" fill-rule="nonzero"/>
      <path d="M68.1,80.8175355 C65.4272727,80.9454976 65.1727273,84.9123223 67.9727273,84.7843602 C70.7727273,84.6563981 70.4545455,80.7535545 68.1,80.8175355 Z" id="Shape" fill="#00A0B4" fill-rule="nonzero"/>
      <path d="M92.3454545,86.5758294 C89.6727273,86.7037915 89.4818182,90.6706161 92.2181818,90.542654 C94.9545455,90.4146919 94.7,86.4478673 92.3454545,86.5758294 Z" id="Shape" fill="#78C8C8" fill-rule="nonzero"/>
      <path d="M129.7,107.433649 C127.027273,107.561611 126.772727,111.528436 129.572727,111.400474 C132.372727,111.272512 131.990909,107.305687 129.7,107.433649 Z" id="Shape" fill="#006482" fill-rule="nonzero"/>
      <path d="M68.2272727,102.507109 C68.4818182,105.770142 69.9454545,108.457346 74.9727273,108.71327 C80.8272727,109.033175 79.2363636,85.6161137 73.1272727,85.2322275 C67.0181818,84.8483412 67.6545455,94.957346 68.2272727,102.507109 Z" id="Shape" fill="#78C8C8" fill-rule="nonzero"/>
    </g>
  </g>
</svg>