<svg width="73px" height="93px" viewBox="0 0 73 93" version="1.1" xml:space="preserve" xmlns="http://www.w3.org/2000/svg" xmlns:xlink="http://www.w3.org/1999/xlink">
  <defs/>
  <g>
    <title>penguin-b</title>
    <desc>Created with Sketch.</desc>
    <g id="penguin-b" stroke="none" stroke-width="1" fill="none" fill-rule="evenodd">
      <g id="Group" transform="translate(21.000000, 1.000000)">
        <path d="M28.4071,91.6229508 L42.2716,91.6229508 C42.2716,91.6229508 39.5116,88.5648306 35.2091,87.0048525 C35.2091,87.0048525 31.0841,85.0452022 28.4071,91.6229508" id="Fill-1" fill="#E3A066"/>
        <path d="M28.1466,91.6229508 L42.2716,91.6229508 C42.2716,91.6229508 39.2616,88.4713224 34.9591,86.911847" id="Stroke-3" stroke="#8D6A4A" stroke-width="0.5"/>
        <path d="M23.9591,91.6229508 L37.8236,91.6229508 C37.8236,91.6229508 36.3861,89.4551694 32.0836,87.8951913 C32.0836,87.8951913 27.0426,88.4808743 23.9591,91.6229508" id="Fill-5" fill="#E3A066"/>
        <path d="M23.6986,91.6229508 L37.8236,91.6229508 C37.8236,91.6229508 36.3861,89.4551694 32.0836,87.8951913" id="Stroke-7" stroke="#8D6A4A" stroke-width="0.5"/>
        <path d="M33.2611,3.64480874 C31.3521,1.53333333 26.7716,0.18852459 24.6051,0.18852459 C22.4381,0.18852459 19.1661,1.23119126 17.4941,3.39293989 C15.0876,6.50384699 15.4486,12.7643716 15.0736,14.3037377 C14.6986,15.8436066 9.3866,28.7934863 6.2091,35.6185792 C3.4721,41.4960219 -0.1244,54.1693989 0.2091,67.3243934 C0.5426,80.479388 11.1256,91.6229508 11.3756,91.6229508 L23.9591,91.6229508 C26.0426,89.1927432 31.3756,87.8539672 31.7921,87.852459 C32.2506,87.8494426 33.2716,87.7715191 34.2926,87.8946885 C34.2926,87.8946885 33.1051,87.1194754 32.7716,85.9466011 C32.7716,85.9466011 33.8551,87.2662732 35.2091,87.4341858 C35.2091,87.4341858 34.3461,86.6474098 34.1046,85.7791913 C33.9591,85.2553443 32.4591,57.9398907 32.4591,57.2697486 C32.4591,56.8032131 33.1086,29.0433443 33.0841,15.6651366 C31.2936,14.8617705 32.6986,12.0655738 32.6986,12.0655738 C32.6986,12.0655738 36.6986,7.44646995 33.2611,3.64480874" id="Fill-9" fill="#3E5766"/>
        <path d="M33.6654,16.3918361 C33.6654,16.3918361 29.0154,20.9893224 28.5709,28.3628962 C28.1259,35.7359672 21.2089,69.0007541 20.4589,72.4359235 C19.7089,75.8710929 24.3859,87.9592896 34.2924,87.8949399 C34.2924,87.8949399 32.7714,87.078 32.7714,85.9468525 C32.7714,85.9468525 34.4339,87.4580656 35.1009,87.4163388 C35.1009,87.4163388 34.5424,86.9115956 34.1464,85.9373005 C34.1464,85.9373005 34.8549,87.6013443 37.2509,86.4279672 C37.2509,86.4279672 35.5194,86.1117486 35.4364,85.0640546 C35.4364,85.0640546 36.5424,84.962 37.3759,84.962 C37.3759,84.962 35.4079,83.8253224 35.9164,82.9395082 C39.6259,76.4783934 40.7099,68.3316175 41.8589,55.6371257 C43.1049,41.8738251 40.8549,30.3733224 37.3549,22.6232022 C35.7609,19.2347869 33.6654,16.3918361 33.6654,16.3918361" id="Fill-11" fill="#FBF8EA"/>
        <path d="M28.74035,26.2738929 C28.73635,26.3870077 31.59035,18.3171497 34.74485,17.9084284 L33.08385,15.6652372 C33.08385,15.6652372 29.07385,16.9673137 28.74035,26.2738929" id="Fill-13" fill="#F0C579"/>
        <path d="M32.25085,13.2804262 C32.25085,13.2804262 31.80085,14.2662842 32.37585,14.8725792 C33.09135,15.6266776 43.99335,26.825541 41.95935,54.3370601 C40.29235,76.8760546 36.55385,81.4524262 36.13285,82.3794645 C35.85235,82.9963169 35.36585,83.9560328 37.37585,84.9614973 C37.37585,84.9614973 36.13535,85.1163388 35.43635,85.0640546 C35.43635,85.0640546 35.90735,86.0086885 37.25085,86.4279672 C37.25085,86.4279672 36.58435,87.3353989 34.33435,86.6652568" id="Stroke-15" stroke="#D1C1B5" stroke-width="0.5"/>
        <path d="M29.6361,11.6256831 C29.5381,11.6397596 33.8716,9.19899454 34.1986,7.22677596 C34.4486,5.71857923 32.8236,4.05302732 33.2611,3.64480874 C33.5526,3.37232787 34.2041,4.82220765 35.4801,5.46721311 C36.8456,6.15796721 38.7611,7.16393443 41.9171,7.60382514 C45.0736,8.04371585 47.7926,8.89232787 48.9486,10.1174863 C50.1051,11.3431475 50.6986,12.6939891 50.6986,12.6939891 C50.6986,12.6939891 49.2301,10.4000219 40.4796,11.280306 C33.7611,11.6256831 33.2506,12.6417049 32.2506,13.2806776 C31.2506,13.9191475 32.4486,11.2174645 29.6361,11.6256831" id="Fill-17" fill="#E3A066"/>
        <path d="M31.8861,11.4057377 C31.8861,11.4057377 32.1656,11.3082077 32.6621,11.1785027 C32.9116,11.1166667 33.2146,11.0417596 33.5621,10.9552896 C33.7366,10.9145683 33.9226,10.8713333 34.1181,10.8255847 C34.3146,10.7828525 34.5256,10.7707869 34.7426,10.7355956 C36.4851,10.498306 38.8206,10.2489508 41.1696,10.2102404 C42.3441,10.1896284 43.5206,10.2197923 44.6206,10.3188306 C45.1711,10.3680984 45.7011,10.4399891 46.2021,10.5199235 C46.7026,10.6089071 47.1731,10.7119672 47.6031,10.8275956 C47.8146,10.8979781 48.0261,10.9381967 48.2146,11.0176284 C48.3996,11.1030929 48.5756,11.1845355 48.7406,11.2604481 C49.0621,11.4343934 49.3386,11.5847104 49.5496,11.7395519 C49.7701,11.8767978 49.9176,12.0205792 50.0231,12.1090601 C50.1271,12.1995519 50.1831,12.2473115 50.1831,12.2473115 C50.1831,12.2473115 50.1196,12.2101093 50.0006,12.1402295 C49.8821,12.0703497 49.7131,11.9637705 49.4796,11.8617158 C49.2551,11.7440765 48.9636,11.6400109 48.6341,11.5223716 C48.2961,11.4223279 47.9156,11.3227869 47.5041,11.191071 C47.0871,11.0789617 46.6291,10.9784153 46.1396,10.8919454 C45.6486,10.8135191 45.1286,10.7431366 44.5871,10.6943716 C43.5036,10.5968415 42.3401,10.5671803 41.1766,10.5872896 C38.8481,10.6254973 36.5251,10.8733443 34.7936,11.1096284 C34.3631,11.1860437 33.9626,11.2167104 33.6066,11.2393333 C33.2516,11.2705027 32.9421,11.298153 32.6871,11.320776 C32.4321,11.3454098 32.2316,11.3650164 32.0946,11.3785902 C31.9601,11.3916612 31.8861,11.4057377 31.8861,11.4057377" id="Fill-19" fill="#8D6A4A"/>
        <path d="M29.6361,11.6256831 C29.5381,11.6397596 33.8716,9.19899454 34.1986,7.22677596 C34.4486,5.71857923 32.8236,4.05302732 33.2611,3.64480874 C33.5526,3.37232787 34.2041,4.82220765 35.4801,5.46721311 C36.8456,6.15796721 38.7611,7.16393443 41.9171,7.60382514 C45.0736,8.04371585 47.7926,8.89232787 48.9486,10.1174863 C50.1051,11.3431475 50.6986,12.6939891 50.6986,12.6939891 C50.6986,12.6939891 49.2301,10.4000219 40.4796,11.280306 C33.7611,11.6256831 33.2506,12.6417049 32.2506,13.2806776 C31.2506,13.9191475 32.4486,11.2174645 29.6361,11.6256831 Z" id="Stroke-21" stroke="#8D6A4A" stroke-width="0.5"/>
        <path d="M26.1986,5.89579235 C26.2766,5.23620765 27.2301,4.63896175 28.6986,4.70180328 C30.6516,4.85865574 30.9556,5.84853552 30.9486,6.2411694 C30.9401,6.7167541 30.8101,7.40398907 28.5756,7.40398907 C26.6671,7.40398907 26.1286,6.48851366 26.1986,5.89579235" id="Fill-23" fill="#E2E3E4"/>
        <path d="M28.96425,7.38387978 C28.96425,7.38387978 28.19875,6.91281967 28.35475,6.01695082 C28.51075,5.12409836 29.42775,4.92702732 29.77325,4.95869945 C30.11875,4.98986885 30.39625,5.28597814 30.39625,5.28597814 C30.39625,5.28597814 31.13625,5.84401093 30.94875,6.45684153 C30.76125,7.06967213 29.83425,7.34265574 29.83425,7.34265574 C29.83425,7.34265574 29.08775,7.44672131 28.96425,7.38387978" id="Fill-25" fill="#2E374A"/>
        <path d="M34.10485,85.7791913 C34.29235,86.6604809 35.20885,87.4341858 35.20885,87.4341858 C33.85485,87.2662732 32.77135,85.9466011 32.77135,85.9466011 C33.10485,87.1194754 34.29235,87.8946885 34.29235,87.8946885 C33.27135,87.7715191 32.25035,87.8494426 31.79235,87.852459 C31.37585,87.8539672 26.04235,89.1927432 23.95885,91.6229508 L11.37585,91.6229508 C11.12585,91.6229508 0.54235,80.479388 0.20885,67.3243934 C-0.12415,54.1693989 3.47235,41.4960219 6.20885,35.6185792 C9.38685,28.7934863 14.69835,15.8436066 15.07335,14.3037377 C15.44835,12.7643716 15.08785,6.50384699 17.49385,3.39293989 C19.16635,1.23119126 22.43835,0.18852459 24.60485,0.18852459 C26.77135,0.18852459 31.42785,1.46646995 33.26135,3.64480874" id="Stroke-27" stroke="#2E374A" stroke-width="0.5"/>
        <path d="M26.1986,5.93852459 C26.2766,5.27893989 27.2301,4.68169399 28.6986,4.74453552 C30.6516,4.90138798 30.9556,5.89126776 30.9486,6.28390164 C30.9401,6.75948634 30.8101,7.44672131 28.5756,7.44672131 C26.6671,7.44672131 26.1286,6.5312459 26.1986,5.93852459 Z" id="Stroke-29" stroke="#2E374A" stroke-width="0.5"/>
        <g id="Group-34" transform="translate(9.000000, 31.483607)">
          <path d="M8.69835,0.0628415301 C8.69835,0.0628415301 5.95885,1.40362842 4.96585,5.1379235 C4.19435,8.03718033 0.45885,30.1433224 0.45885,30.1433224 C0.45885,30.1433224 0.04235,34.3330929 1.04235,36.1761093 C2.04235,38.0191257 3.37585,41.9575301 3.20885,45.2252896 C3.04235,48.4930492 2.79235,49.5819672 3.54235,50.0846995 C4.29235,50.5874317 14.20935,39.7786885 16.37585,29.4726776 C18.54235,19.1666667 18.59335,7.35245902 17.19285,1.57103825" id="Fill-31" fill="#3E5766"/>
          <path d="M8.69835,0.0628415301 C8.69835,0.0628415301 5.95885,1.40362842 4.96585,5.1379235 C4.19435,8.03718033 0.45885,30.1433224 0.45885,30.1433224 C0.45885,30.1433224 0.04235,34.3330929 1.04235,36.1761093 C2.04235,38.0191257 3.37585,41.9575301 3.20885,45.2252896 C3.04235,48.4930492 2.79235,49.5819672 3.54235,50.0846995 C4.29235,50.5874317 14.20935,39.7786885 16.37585,29.4726776 C18.54235,19.1666667 18.59335,7.35245902 17.19285,1.57103825" id="Stroke-33" stroke="#2E374A" stroke-width="0.5"/>
        </g>
      </g>
    </g>
  </g>
</svg>