<svg version="1.1" width="89" height="119" viewBox="-1 -1 89 119" xmlns="http://www.w3.org/2000/svg" xmlns:xlink="http://www.w3.org/1999/xlink">
  <!-- Exported by Scratch - http://scratch.mit.edu/ -->
  <g id="ID0.6229031253606081" transform="matrix(1, 0, 0, 1, 0, -0.25)">
    <g id="rooster-c">
      <g id="Group">
        <path id="Fill-1" fill="#005A61" stroke="none" stroke-width="1" d="M 52.978 26.732 C 52.978 12.049 41.147 0.146 26.554 0.146 C 11.961 0.146 0.131 12.049 0.131 26.732 L 0.131 45.924 L 22.880 45.924 L 22.880 27.072 C 22.880 25.030 24.525 23.375 26.554 23.375 C 28.583 23.375 30.228 25.030 30.228 27.072 L 30.228 52.381 L 52.978 52.381 L 52.978 26.732 Z " transform="matrix(-1, 0, 0, 1, 53.2, 29.8)"/>
        <path id="Fill-4" fill="#17242D" stroke="none" stroke-width="1" d="M 26.554 7.753 C 16.231 7.753 7.833 16.203 7.833 26.589 L 7.833 45.925 L 8.531 45.925 L 8.531 26.589 C 8.531 16.590 16.616 8.455 26.554 8.455 C 36.492 8.455 44.577 16.590 44.577 26.589 L 44.577 52.381 L 45.276 52.381 L 45.276 26.589 C 45.276 16.203 36.877 7.753 26.554 7.753 " transform="matrix(-1, 0, 0, 1, 53.2, 29.8)"/>
        <path id="Fill-6" fill="#17242D" stroke="none" stroke-width="1" d="M 38.365 52.381 L 38.365 27.224 C 38.365 20.671 33.067 15.341 26.554 15.341 C 20.041 15.341 14.743 20.671 14.743 27.224 L 14.743 45.925 L 15.442 45.925 L 15.442 27.224 C 15.442 21.059 20.427 16.043 26.554 16.043 C 32.682 16.043 37.667 21.059 37.667 27.224 L 37.667 52.381 L 38.365 52.381 Z " transform="matrix(-1, 0, 0, 1, 53.2, 29.8)"/>
      </g>
      <g id="Group-2">
        <path id="Stroke-8" fill="none" stroke="#FFDB5D" stroke-width="1.05" d="M 19.585 12.854 L 7.826 22.865 C 5.399 24.931 5.245 28.643 7.494 30.904 " transform="matrix(-1, 0, 0, 1, 66.8, 86.35)"/>
        <path id="Fill-10" fill="#751D18" stroke="none" stroke-width="1" d="M 4.175 13.026 C 0.809 11.490 -0.682 7.498 0.845 4.111 C 2.372 0.724 6.339 -0.776 9.706 0.761 C 10.620 1.178 11.390 1.781 12.005 2.499 L 12.008 2.495 L 20.025 11.655 C 20.702 12.428 20.155 13.643 19.132 13.641 L 6.985 13.622 C 6.045 13.629 5.088 13.443 4.175 13.026 " transform="matrix(-1, 0, 0, 1, 66.8, 86.35)"/>
      </g>
      <path id="Fill-17" fill="#17242D" stroke="none" stroke-width="1" d="M 82.797 75.744 C 82.797 69.266 77.578 64.013 71.138 64.013 L 68.394 64.012 C 68.355 64.010 68.311 64.003 68.274 64.003 L 26.224 64.003 C 26.224 64.003 26.217 71.054 26.217 71.989 C 26.217 75.085 27.518 80.407 31.722 84.007 C 41.093 92.029 52.182 102.417 52.182 102.417 L 82.797 75.744 Z " transform="matrix(-1, 0, 0, 1, 113.1, 0)"/>
      <g id="Group-3">
        <path id="Stroke-12" fill="none" stroke="#FFDB5D" stroke-width="1.05" d="M 24.386 19.031 L 8.119 32.881 " transform="matrix(-1, 0, 0, 1, 88.1, 84.95)"/>
        <path id="Stroke-14" fill="none" stroke="#FFDB5D" stroke-width="1.05" d="M 17.286 32.851 C 15.125 32.851 15.125 30.743 12.965 30.743 C 10.805 30.743 10.805 32.851 8.645 32.851 C 6.484 32.851 6.484 30.743 4.323 30.743 C 2.161 30.743 2.161 32.851 0 32.851 " transform="matrix(-1, 0, 0, 1, 88.1, 84.95)"/>
        <path id="Fill-19" fill="#751D18" stroke="none" stroke-width="1" d="M 35.387 9.515 C 36.841 6.096 35.264 2.138 31.866 0.675 C 28.468 -0.788 24.534 0.798 23.080 4.218 C 22.685 5.146 22.521 6.114 22.549 7.061 L 22.544 7.060 L 22.770 19.264 C 22.789 20.294 24.007 20.819 24.762 20.123 L 33.714 11.862 C 34.412 11.229 34.993 10.442 35.387 9.515 " transform="matrix(-1, 0, 0, 1, 88.1, 84.95)"/>
      </g>
      <g id="Group-4">
        <path id="Fill-21" fill="#DE7732" stroke="none" stroke-width="1" d="M 20.355 4.045 C 20.329 4.020 20.301 3.996 20.274 3.972 C 19.940 3.666 19.598 3.368 19.250 3.078 C 19.242 3.072 19.235 3.066 19.228 3.059 C 18.886 2.776 18.537 2.502 18.182 2.233 C 18.112 2.180 18.040 2.127 17.969 2.074 C 17.669 1.851 17.364 1.633 17.055 1.420 C 16.993 1.378 16.933 1.334 16.871 1.292 C 16.530 1.062 16.184 0.839 15.833 0.623 C 15.722 0.554 15.609 0.487 15.496 0.419 C 15.383 0.351 15.268 0.288 15.154 0.221 C 6.184 5.448 0.146 15.201 0.146 26.380 L 0.146 53.932 L 0.146 55.777 C 0.146 64.119 6.864 70.881 15.154 70.885 C 23.444 70.881 30.162 64.119 30.162 55.777 L 30.162 26.380 C 30.162 17.531 26.381 9.571 20.355 4.045 " transform="matrix(-1, 0, 0, 1, 87.1, 16.45)"/>
        <path id="Fill-23" fill="#E8441D" stroke="none" stroke-width="1" d="M 10.150 56.790 L 10.150 3.879 C 4.012 9.410 0.146 17.438 0.146 26.381 L 0.146 41.590 C 0.146 48.421 4.270 54.281 10.150 56.790 " transform="matrix(-1, 0, 0, 1, 87.1, 16.45)"/>
        <path id="Fill-25" fill="#E8441D" stroke="none" stroke-width="1" d="M 20.154 3.862 C 18.622 2.484 16.951 1.259 15.161 0.217 C 13.364 1.264 11.687 2.494 10.150 3.879 L 10.150 41.590 C 10.150 48.421 14.274 54.281 20.154 56.790 L 20.154 3.862 Z " transform="matrix(-1, 0, 0, 1, 87.1, 16.45)"/>
        <path id="Fill-27" fill="#E8441D" stroke="none" stroke-width="1" d="M 30.159 56.516 L 30.159 25.317 C 29.865 16.793 26.058 9.174 20.154 3.863 L 20.154 41.590 C 20.154 48.414 24.271 54.269 30.140 56.782 C 30.146 56.693 30.154 56.605 30.159 56.516 " transform="matrix(-1, 0, 0, 1, 87.1, 16.45)"/>
      </g>
      <g id="Group-5">
        <path id="Fill-29" fill="#AD2C24" stroke="none" stroke-width="1" d="M 19.104 20.291 C 19.104 24.624 15.613 28.137 11.305 28.137 C 6.998 28.137 3.506 24.624 3.506 20.291 C 3.506 15.957 6.998 12.444 11.305 12.444 C 15.613 12.444 19.104 15.957 19.104 20.291 " transform="matrix(-1, 0, 0, 1, 83.25, 1)"/>
        <path id="Fill-31" fill="#CE2235" stroke="none" stroke-width="1" d="M 18.554 22.836 L 17.693 21.667 L 15.190 21.110 L 9.021 21.110 L 6.408 22.289 C 2.969 22.364 0.204 25.187 0.204 28.665 C 0.204 32.190 3.044 35.047 6.547 35.047 C 8.422 35.047 10.101 34.225 11.262 32.925 C 12.423 34.225 14.102 35.047 15.976 35.047 C 19.480 35.047 22.320 32.190 22.320 28.665 C 22.320 26.063 20.772 23.830 18.554 22.836 " transform="matrix(-1, 0, 0, 1, 83.25, 1)"/>
        <path id="Fill-33" fill="#FFF4E3" stroke="none" stroke-width="1" d="M 9.859 20.320 C 9.859 22.403 8.181 24.091 6.111 24.091 C 4.041 24.091 2.363 22.403 2.363 20.320 C 2.363 18.237 4.041 16.549 6.111 16.549 C 8.181 16.549 9.859 18.237 9.859 20.320 " transform="matrix(-1, 0, 0, 1, 83.25, 1)"/>
        <path id="Fill-35" fill="#17242D" stroke="none" stroke-width="1" d="M 8.669 20.320 C 8.669 21.741 7.524 22.894 6.111 22.894 C 4.699 22.894 3.553 21.741 3.553 20.320 C 3.553 18.898 4.699 17.746 6.111 17.746 C 7.524 17.746 8.669 18.898 8.669 20.320 " transform="matrix(-1, 0, 0, 1, 83.25, 1)"/>
        <path id="Fill-37" fill="#FFF4E3" stroke="none" stroke-width="1" d="M 20.219 20.349 C 20.219 22.432 18.541 24.120 16.471 24.120 C 14.401 24.120 12.723 22.432 12.723 20.349 C 12.723 18.266 14.401 16.578 16.471 16.578 C 18.541 16.578 20.219 18.266 20.219 20.349 " transform="matrix(-1, 0, 0, 1, 83.25, 1)"/>
        <path id="Fill-39" fill="#17242D" stroke="none" stroke-width="1" d="M 19.029 20.349 C 19.029 21.771 17.884 22.923 16.471 22.923 C 15.058 22.923 13.913 21.771 13.913 20.349 C 13.913 18.928 15.058 17.775 16.471 17.775 C 17.884 17.775 19.029 18.928 19.029 20.349 " transform="matrix(-1, 0, 0, 1, 83.25, 1)"/>
        <path id="Stroke-41" fill="none" stroke="#CE2235" stroke-width="1.05" stroke-linecap="round" d="M 11.291 0.176 L 11.291 19.324 " transform="matrix(-1, 0, 0, 1, 83.25, 1)"/>
        <path id="Fill-43" fill="#FFDB5D" stroke="none" stroke-width="1" d="M 9.777 22.311 L 12.833 22.311 L 12.833 20.774 C 12.833 19.925 12.149 19.236 11.305 19.236 C 10.461 19.236 9.777 19.925 9.777 20.774 L 9.777 22.311 Z " transform="matrix(-1, 0, 0, 1, 83.25, 1)"/>
      </g>
      <g id="Group-6">
        <path id="Fill-45" fill="#B85C39" stroke="none" stroke-width="1" d="M 28.406 0.301 C 12.804 0.294 0.152 13.015 0.146 28.712 L 0.145 29.334 L 9.807 29.338 C 25.750 29.345 38.680 16.346 38.686 0.305 L 28.406 0.301 Z " transform="matrix(-1, 0, 0, 1, 57.05, 34.7)"/>
        <path id="Fill-47" fill="#AD2C24" stroke="none" stroke-width="1" d="M 38.686 0.305 L 38.672 0.305 L 24.423 8.351 L 24.417 25.348 C 32.949 20.304 38.682 10.981 38.686 0.305 " transform="matrix(-1, 0, 0, 1, 57.05, 34.7)"/>
        <path id="Stroke-49" fill="none" stroke="#751D18" stroke-width="0.5" d="M 38.120 4.282 L 24.606 11.939 " transform="matrix(-1, 0, 0, 1, 57.05, 34.7)"/>
        <path id="Stroke-51" fill="none" stroke="#751D18" stroke-width="0.5" d="M 37.318 8.250 L 24.605 15.452 " transform="matrix(-1, 0, 0, 1, 57.05, 34.7)"/>
        <path id="Stroke-53" fill="none" stroke="#751D18" stroke-width="0.5" d="M 35.588 12.742 L 24.603 18.966 " transform="matrix(-1, 0, 0, 1, 57.05, 34.7)"/>
        <path id="Stroke-55" fill="none" stroke="#751D18" stroke-width="0.5" d="M 32.296 18.120 L 24.602 22.479 " transform="matrix(-1, 0, 0, 1, 57.05, 34.7)"/>
        <path id="Fill-57" fill="#573A3C" stroke="none" stroke-width="1" d="M 13.138 18.367 C 15.507 17.759 17.262 15.604 17.263 13.030 C 17.264 9.983 14.810 7.512 11.782 7.511 C 10.395 7.511 9.134 8.036 8.169 8.891 C 3.209 14.010 0.149 20.999 0.146 28.712 L 0.146 29.334 L 9.807 29.338 C 10.508 29.339 11.201 29.305 11.890 29.255 L 11.887 29.216 C 14.862 29.156 17.258 26.715 17.259 23.708 C 17.260 21.134 15.506 18.977 13.138 18.367 " transform="matrix(-1, 0, 0, 1, 57.05, 34.7)"/>
      </g>
    </g>
  </g>
</svg>