<svg version="1.1" width="84" height="175" viewBox="-1 -1 84 175" xmlns="http://www.w3.org/2000/svg" xmlns:xlink="http://www.w3.org/1999/xlink">
  <!-- Exported by Scratch - http://scratch.mit.edu/ -->
  <path id="Shape" fill="#DCAA78" stroke="none" stroke-width="1" d="M 28.288 62.057 C 29.010 63.254 35.849 76.215 48.754 70.824 C 60.778 65.811 59.419 55.769 57.247 50.242 L 49.919 37.868 L 28.288 62.057 Z "/>
  <path id="Shape" fill="#A0640A" stroke="none" stroke-width="1" d="M 28.288 64.479 C 28.288 64.479 31.637 71.078 39.169 71.592 L 35.713 57.321 L 28.288 64.479 Z "/>
  <path id="Shape" fill="#DCAA78" stroke="none" stroke-width="1" d="M 41.051 67.742 C 39.664 65.766 38.015 62.452 34.075 60.403 C 30.136 58.354 28.516 61.662 29.607 64.174 C 30.972 67.307 38.288 69.165 41.051 67.742 Z "/>
  <path id="Shape" fill="#000000" stroke="none" stroke-width="1" d="M 42.165 57.581 C 45.167 58.747 45.954 59.781 45.659 62.070 C 45.028 62.563 44.087 62.563 43.456 62.070 C 41.992 61.311 41.266 60.254 40.823 58.252 L 42.165 57.581 Z "/>
  <path id="Shape" fill="#000000" stroke="none" stroke-width="1" d="M 53.871 47.115 C 56.875 48.215 57.651 49.315 57.368 51.604 C 56.736 52.097 55.795 52.097 55.164 51.604 C 53.646 50.787 52.665 49.364 52.529 47.786 L 53.871 47.115 Z "/>
  <path id="Shape" fill="#BE8264" stroke="none" stroke-width="1" d="M 41.204 52.410 C 41.597 53.155 46.048 55.898 46.889 56.220 C 48.097 56.668 49.452 56.454 50.459 55.656 C 51.631 54.707 52.733 53.177 52.540 51.885 C 52.353 50.756 50.152 47.007 49.266 46.240 C 48.106 46.787 42.068 51.027 41.204 52.410 Z "/>
  <path id="Shape" fill="#005A5A" stroke="none" stroke-width="1" d="M 61.966 38.144 C 61.966 38.144 77.787 24.540 76.900 23.422 C 76.229 22.581 72.227 26.013 69.964 27.938 C 66.445 30.890 55.320 40.696 52.949 42.819 C 53.120 43.169 61.966 38.144 61.966 38.144 Z "/>
  <path id="Shape" fill="#00A08C" stroke="none" stroke-width="1" d="M 19.630 29.993 C 14.053 35.198 10.193 45.449 11.614 53.928 C 13.149 63.073 23.229 71.400 23.229 71.400 L 33.263 62.989 L 19.630 29.993 Z "/>
  <path id="Shape" fill="#008264" stroke="none" stroke-width="1" d="M 43.308 24.229 C 39.090 23.845 33.109 23.845 28.203 25.279 C 24.098 26.481 19.573 29.451 19.573 29.451 C 15.656 48.469 33.263 62.989 33.263 62.989 L 61.932 38.116 C 61.932 38.116 52.745 25.087 43.308 24.229 Z "/>
  <path id="Shape" fill="#281446" stroke="none" stroke-width="1" d="M 18.500 32.092 C 19.684 32.416 20.460 31.806 21.183 31.112 C 21.729 30.587 22.090 29.885 22.820 29.522 C 23.043 29.406 23.120 29.013 23.258 28.750 C 23.104 28.084 22.619 27.544 21.975 27.323 C 19.184 27.701 17.931 29.962 18.500 32.092 Z "/>
  <path id="Shape" fill="#005A5A" stroke="none" stroke-width="1" d="M 72.472 142.862 C 71.624 136.686 69.567 119.186 69.271 117.052 L 47.861 116.335 C 48.043 116.635 48.225 116.928 48.396 117.227 C 50.158 120.253 56.605 134.846 60.852 142.490 L 72.472 142.862 Z "/>
  <path id="Shape" fill="#005A5A" stroke="none" stroke-width="1" d="M 24.002 117.532 C 24.218 119.892 23.735 125.859 23.507 128.145 C 22.939 134.146 21.427 137.206 19.454 142.907 C 21.216 143.669 24.030 143.935 25.969 144.375 C 27.907 144.815 29.948 146.114 31.739 145.227 C 34.758 141.191 38.152 136.122 40.221 131.560 C 43.535 124.222 43.007 117.515 43.285 116.319 L 24.002 117.532 Z "/>
  <path id="Shape" fill="#F01446" stroke="none" stroke-width="1" d="M 82.062 169.084 L 79.180 171.946 C 79.180 171.946 74.188 146.955 73.193 141.660 C 68.867 141.609 64.541 141.660 60.215 141.586 C 61.704 144.556 65.576 152.589 69.464 160.080 C 72.995 166.882 76.593 173.261 77.423 174.492 C 79.129 174.537 82.619 169.694 82.619 169.694 L 82.062 169.084 Z "/>
  <path id="Shape" fill="#F01446" stroke="none" stroke-width="1" d="M 25.883 141.327 C 24.371 140.915 22.836 140.581 21.296 140.277 L 21.137 140.277 C 21.090 140.265 21.046 140.246 21.006 140.220 L 19.983 140.023 L 19.818 140.361 C 19.346 141.372 18.868 142.382 18.351 143.365 C 17.669 144.663 16.896 145.916 16.253 147.231 C 14.548 150.777 11.967 153.706 9.318 156.585 C 7.373 158.697 5.020 160.345 2.814 162.157 C 2.160 162.694 1.467 163.185 0.671 163.783 L 0.478 164.438 C 1.779 166.724 3.041 168.954 4.332 171.212 C 4.724 171.331 4.991 171.105 5.270 170.732 C 4.764 169.846 3.877 169.180 3.729 168.090 C 4.151 167.739 4.643 167.481 5.173 167.334 C 6.276 166.865 7.407 166.448 8.493 165.945 C 9.443 165.510 10.347 164.991 11.273 164.506 C 11.434 164.400 11.601 164.304 11.773 164.218 C 13.758 163.473 15.389 162.129 17.180 161.068 C 17.859 160.625 18.502 160.128 19.101 159.583 C 20.636 158.290 22.154 156.975 23.678 155.665 C 24.047 155.385 24.397 155.079 24.724 154.751 C 26.162 153.142 27.566 151.510 29.005 149.890 C 29.056 149.828 29.095 149.760 29.147 149.704 C 30.749 148.029 32.208 146.224 33.507 144.307 C 33.712 144.019 33.911 143.743 34.104 143.438 C 31.296 143.009 28.646 142.077 25.883 141.327 Z "/>
  <path id="Shape" fill="#DCAA78" stroke="none" stroke-width="1" d="M 57.497 37.416 L 54.325 39.443 C 57.137 44.920 58.644 50.965 58.731 57.112 C 58.731 61.171 58.032 77.802 58.032 77.802 L 65.814 77.903 C 65.814 77.903 68.373 73.387 67.486 60.894 C 66.599 48.402 57.497 37.416 57.497 37.416 Z "/>
  <path id="Shape" fill="#005A5A" stroke="none" stroke-width="1" d="M 58.037 70.954 C 58.037 70.954 56.588 77.728 55.530 79.552 C 53.518 83.029 62.892 96.064 62.892 96.064 C 62.892 96.064 64.825 87.381 66.008 82.690 C 66.674 80.154 67.168 77.576 67.486 74.973 L 58.037 70.954 Z "/>
  <path id="Shape" fill="#281446" stroke="none" stroke-width="1" d="M 56.053 68.899 L 55.195 73.590 L 68.077 79.275 L 69.220 74.443 L 56.053 68.899 "/>
  <path id="Shape" fill="#DCAA78" stroke="none" stroke-width="1" d="M 31.557 42.519 L 27.521 39.494 C 23.814 44.439 20.039 50.022 18.561 54.831 C 17.188 59.251 16.464 63.845 16.412 68.470 L 24.769 66.173 C 24.769 66.173 22.996 57.180 31.557 42.519 Z "/>
  <path id="Shape" fill="#824600" stroke="none" stroke-width="1" d="M 63.006 14.344 C 62.079 14.909 39.544 20.554 38.470 20.554 L 37.720 38.489 C 38.157 38.173 47.685 42.169 48.146 41.876 C 48.396 41.718 63.063 34.131 63.404 33.973 C 63.404 33.707 64.393 30.269 64.393 29.965 C 64.393 29.084 64.365 28.198 64.325 27.317 C 64.285 26.436 64.200 25.477 64.137 24.556 C 64.075 23.636 64.052 22.863 63.995 22.022 C 63.955 21.452 63.478 14.824 63.006 14.344 Z "/>
  <path id="Shape" fill="#642800" stroke="none" stroke-width="1" d="M 44.018 26.081 L 51.096 40.380 L 44.848 41.955 L 36.759 29.078 L 44.018 26.081 "/>
  <path id="Shape" fill="#642800" stroke="none" stroke-width="1" d="M 49.766 19.487 L 56.633 38.302 L 59.999 36.727 L 55.474 17.314 L 49.766 19.487 "/>
  <path id="Shape" fill="#A0640A" stroke="none" stroke-width="1" d="M 65.110 11.335 C 62.267 2.580 52.870 -0.051 44.416 0.649 C 34.979 1.434 28.123 7.327 25.201 16.286 C 23.764 20.895 22.916 25.665 22.677 30.484 C 22.410 35.141 22.063 39.053 25.372 42.576 C 27.958 45.325 32.285 47.865 36.742 47.933 C 43.063 48.040 68.987 39.194 63.836 32.319 C 62.301 31.788 57.065 36.699 55.496 37.501 C 52.313 39.121 48.811 40.374 45.451 38.794 C 40.295 33.109 48.373 24.748 53.245 22.372 C 55.985 21.040 59.680 21.553 62.244 20.114 C 64.473 18.877 65.877 13.706 65.110 11.335 Z "/>
  <path id="Shape" fill="#824600" stroke="none" stroke-width="1" d="M 45.627 44.077 C 45.991 44.185 46.275 44.196 46.469 43.744 C 45.570 42.147 44.718 40.470 43.717 38.884 C 42.877 37.593 41.861 36.422 40.698 35.406 C 39.175 34.035 37.526 32.827 35.883 31.607 C 34.182 30.399 32.328 29.418 30.369 28.689 C 29.467 28.316 28.503 28.113 27.526 28.090 C 27.026 28.090 26.532 28.006 25.952 27.955 L 25.696 28.632 C 26.237 28.844 26.824 28.918 27.401 28.847 C 28.140 28.798 28.881 28.916 29.567 29.191 C 31.097 29.829 32.688 30.354 34.075 31.297 C 35.885 32.420 37.597 33.693 39.192 35.102 C 40.084 35.954 40.966 36.795 41.847 37.681 C 42.742 38.644 43.473 39.744 44.013 40.939 C 44.490 41.865 44.934 42.802 45.400 43.761 C 45.468 43.872 45.544 43.977 45.627 44.077 Z "/>
  <path id="Shape" fill="#008264" stroke="none" stroke-width="1" d="M 33.064 74.324 C 32.029 73.161 28.311 65.727 26.520 63.598 L 14.781 66.692 L 26.560 98.485 C 26.560 98.485 31.034 79.885 33.064 74.324 Z "/>
  <path id="Shape" fill="#281446" stroke="none" stroke-width="1" d="M 13.411 65.913 L 27.720 61.792 L 30.153 67.477 L 14.269 71.456 L 13.411 65.913 "/>
  <path id="Rectangle-path" fill="#005A5A" stroke="none" stroke-width="1" d="M 33.439 116.273 L 56.514 116.273 L 56.514 124.052 L 33.439 124.052 L 33.439 116.273 Z "/>
  <path id="Shape" fill="#DCAA78" stroke="none" stroke-width="1" d="M 52.807 77.852 C 47.037 74.979 39.226 71.281 33.098 74.539 L 48.583 90.266 C 48.583 90.266 55.314 80.596 55.769 79.913 C 54.887 79.088 53.889 78.394 52.807 77.852 Z "/>
  <path id="Shape" fill="#FFFFFF" stroke="none" stroke-width="1" d="M 37.748 80.212 C 37.748 80.212 48.549 83.763 54.803 80.940 L 53.438 90.323 L 41.273 90.029 L 37.748 80.212 Z "/>
  <path id="Shape" fill="#00A08C" stroke="none" stroke-width="1" d="M 69.822 115.506 C 68.805 106.750 68.049 102.211 65.633 95.584 C 63.359 89.340 60.596 84.090 55.530 79.552 C 52.995 81.494 46.929 86.732 46.929 86.732 C 46.929 86.732 35.991 76.006 33.223 74.144 C 32.865 74.144 27.760 78.773 25.667 87.613 C 23.195 98.085 23.706 113.202 23.655 115.444 L 69.822 115.506 Z "/>
  <path id="Rectangle-path" fill="#281446" stroke="none" stroke-width="1" d="M 21.654 113.654 L 70.652 113.654 L 70.652 119.203 L 21.654 119.203 L 21.654 113.654 Z "/>
  <path id="Rectangle-path" fill="#005A5A" stroke="none" stroke-width="1" d="M 26.861 112.717 L 31.754 112.717 L 31.754 120.310 L 26.861 120.310 L 26.861 112.717 Z "/>
  <path id="Rectangle-path" fill="#005A5A" stroke="none" stroke-width="1" d="M 34.974 112.717 L 39.867 112.717 L 39.867 120.310 L 34.974 120.310 L 34.974 112.717 Z "/>
  <path id="Rectangle-path" fill="#005A5A" stroke="none" stroke-width="1" d="M 56.161 112.717 L 61.055 112.717 L 61.055 120.310 L 56.161 120.310 L 56.161 112.717 Z "/>
  <path id="Rectangle-path" fill="#005A5A" stroke="none" stroke-width="1" d="M 64.797 112.717 L 69.690 112.717 L 69.690 120.310 L 64.797 120.310 L 64.797 112.717 Z "/>
  <path id="Rectangle-path" fill="#FFC800" stroke="none" stroke-width="1" d="M 43.956 112.881 L 52.171 112.881 L 52.171 119.852 L 43.956 119.852 L 43.956 112.881 Z "/>
  <path id="Shape" fill="#281446" stroke="none" stroke-width="1" d="M 73.813 137.177 L 57.134 137.206 C 58.242 139.616 60.545 144.923 60.573 144.979 L 74.944 145.052 L 73.813 137.177 Z "/>
  <path id="Shape" fill="#281446" stroke="none" stroke-width="1" d="M 75.041 146.091 L 61.039 146.091 C 61.409 147.730 61.801 149.346 62.176 150.950 L 75.337 150.950 L 75.041 146.091 Z "/>
  <path id="Shape" fill="#281446" stroke="none" stroke-width="1" d="M 75.553 150.065 L 63.319 150.065 C 63.736 151.685 64.145 153.305 64.547 154.924 L 75.917 154.924 L 75.553 150.065 Z "/>
  <path id="Shape" fill="#F00A78" stroke="none" stroke-width="1" d="M 46.463 64.355 C 47.770 72.004 56.946 76.486 64.410 74.815 C 76.587 72.083 76.673 62.012 74.188 55.159 C 71.613 48.052 64.353 46.460 57.730 47.617 C 49.595 49.045 45.684 56.452 46.463 64.355 Z "/>
  <path id="Shape" fill="#F04650" stroke="none" stroke-width="1" d="M 61.028 57.355 C 61.562 60.482 65.320 62.317 68.373 61.634 C 73.358 60.505 73.392 56.395 72.352 53.590 C 71.295 50.682 68.327 50.027 65.615 50.502 C 62.307 51.089 60.709 54.109 61.028 57.355 Z "/>
  <path id="Shape" fill="#F04650" stroke="none" stroke-width="1" d="M 56.799 51.691 C 57.022 53.027 58.569 53.806 59.809 53.515 C 61.861 53.039 61.879 51.283 61.458 50.090 C 61.037 48.897 59.797 48.569 58.683 48.773 C 57.329 49.021 56.667 50.307 56.799 51.691 Z "/>
  <path id="Shape" fill="#281446" stroke="none" stroke-width="1" d="M 19.755 135.930 L 16.975 142.834 L 32.182 147.835 L 37.049 139.898 L 19.755 135.930 "/>
  <path id="Shape" fill="#281446" stroke="none" stroke-width="1" d="M 16.628 143.867 L 30.790 149.303 L 28.618 152.239 L 15.588 145.679 L 16.628 143.867 "/>
  <path id="Shape" fill="#281446" stroke="none" stroke-width="1" d="M 14.980 146.712 L 13.678 148.270 L 25.667 155.863 L 27.231 153.876 L 14.980 146.712 "/>
</svg>