<svg width="114px" height="98px" viewBox="0 0 114 98" version="1.1" xml:space="preserve" xmlns="http://www.w3.org/2000/svg" xmlns:xlink="http://www.w3.org/1999/xlink">
  <defs/>
  <g>
    <title>hare-b</title>
    <desc>Created with Sketch.</desc>
    <g id="hare-b" stroke="none" stroke-width="1" fill="none" fill-rule="evenodd">
      <g id="Group" transform="translate(0.000000, 23.000000)">
        <path d="M50.8309063,32.6383178 C50.8309063,32.6383178 52.6972491,47.0282243 39.0426549,49.4114953 C27.4824034,51.8333645 23.1855806,44.8307477 23.1855806,44.8307477 L13.2030891,55.6846729 C13.2030891,55.6846729 9.515352,59.993271 7.194312,55.0579439 L24.3151577,40.3507477 C24.3151577,40.3507477 27.3514663,43.4078505 29.957832,41.1730841 C31.6658777,39.708972 31.2098777,36.5642056 31.2098777,36.5642056" id="Fill-1" fill="#D9E2F3"/>
        <path d="M10.8437451,55.6415607 C10.8437451,55.6415607 10.8300651,55.6441776 10.8046594,55.6500654 C10.7929337,55.6631495 10.8391851,55.6474486 10.7890251,55.6664206 C10.7023851,55.7069813 10.566888,55.7691308 10.4001223,55.8312804 C10.0711509,55.951 9.55587086,56.0681028 9.09009943,55.8783832 C8.85753943,55.7952991 8.669928,55.6376355 8.51879657,55.4812804 C8.45235086,55.3955794 8.38785943,55.3131495 8.32662514,55.2346449 C8.27841943,55.1489439 8.23347086,55.0678224 8.19177943,54.993243 C8.10253371,54.8480093 8.06996229,54.7067009 8.02827086,54.6190374 C7.99244229,54.5281028 7.97159657,54.4757664 7.97159657,54.4757664 C7.97159657,54.4757664 7.99895657,54.5241776 8.04716229,54.6098785 C8.10123086,54.6916542 8.15073943,54.8244579 8.25692229,54.9526822 C8.30643086,55.018757 8.359848,55.0900654 8.41652229,55.1646449 C8.482968,55.2300654 8.55332229,55.298757 8.62563086,55.3694112 C8.78327657,55.4917477 8.96307086,55.604271 9.16305943,55.6441776 C9.56108229,55.7462336 9.96366514,55.5944579 10.2353109,55.4518411 C10.3734137,55.3779159 10.4835051,55.3072617 10.5675394,55.2536168 C10.6027166,55.2261402 10.7180194,55.1757664 10.7525451,55.1672617 C10.7772994,55.158757 10.7909794,55.1535234 10.7909794,55.1535234 L10.8437451,55.6415607 Z" id="Fill-3" fill="#738CB5"/>
        <path d="M50.8309063,32.6383178 C50.8309063,32.6383178 52.6972491,47.0282243 39.0426549,49.4114953 C27.4824034,51.8333645 23.1855806,44.8307477 23.1855806,44.8307477 L13.2030891,55.6846729 C13.2030891,55.6846729 9.515352,59.993271 7.194312,55.0579439 L24.3151577,40.3507477 C24.3151577,40.3507477 27.3514663,43.4078505 29.957832,41.1730841 C31.6658777,39.708972 31.2098777,36.5642056 31.2098777,36.5642056" id="Stroke-5" stroke="#738CB5" stroke-width="0.5"/>
        <g id="Group-10" transform="translate(61.234286, 0.181215)">
          <path d="M32.1248743,21.0321215 C32.1248743,21.0321215 24.0035143,20.0985701 13.77804,14.539785 C3.55321714,8.98034579 0.987891429,1.91557944 0.442645714,0.0720280374 C0.442645714,0.0720280374 19.5197314,0.532588785 32.5860857,18.622028" id="Fill-7" fill="#FFFEF9"/>
          <path d="M32.1248743,21.0321215 C32.1248743,21.0321215 24.0035143,20.0985701 13.77804,14.539785 C3.55321714,8.98034579 0.987891429,1.91557944 0.442645714,0.0720280374 C0.442645714,0.0720280374 19.5197314,0.532588785 32.5860857,18.622028" id="Stroke-9" stroke="#738CB5" stroke-width="0.5"/>
        </g>
        <path d="M84.8660949,38.2667757 C86.857512,39.9840654 89.9517977,46.2369626 89.9517977,46.2369626 L106.875261,53.9480841 C106.875261,53.9480841 108.742255,54.2830374 110.105043,53.6857477 C111.502358,53.0740654 113.435798,57.4435047 113.435798,57.4435047 L107.122803,57.4435047 L87.3232834,51.6407009 C87.3232834,51.6407009 86.5585063,49.4451869 84.5612263,48.3049065" id="Fill-11" fill="#D9E2F3"/>
        <path d="M84.8660949,38.2667757 C86.857512,39.9840654 89.9517977,46.2369626 89.9517977,46.2369626 L106.875261,53.9480841 C106.875261,53.9480841 108.328598,53.9421963 109.836003,53.7106075 C112.258015,53.3390187 113.435798,57.4435047 113.435798,57.4435047 L107.122803,57.4435047 L87.3232834,51.6407009 C87.3232834,51.6407009 86.5585063,49.4451869 84.5612263,48.3049065" id="Stroke-13" stroke="#738CB5" stroke-width="0.5"/>
        <path d="M111.011702,54.8251121 C111.011702,54.8251121 111.654662,55.3170748 112.056593,55.998757 C112.261793,56.3343645 112.382959,56.7164206 112.408365,57.0036168 C112.437027,57.2934299 112.382959,57.4805327 112.393382,57.4805327 C112.38361,57.4811869 112.405759,57.2875421 112.33345,57.0173551 C112.263747,56.7471682 112.095027,56.4167944 111.857256,56.1407196 C111.62209,55.8626822 111.341325,55.6291308 111.12049,55.4727757 C110.895747,55.3144579 110.745919,55.2366075 110.745919,55.2366075 L111.011702,54.8251121 Z" id="Fill-15" fill="#738CB5"/>
        <g id="Group-20" transform="translate(25.405714, 23.732617)">
          <path d="M3.72193714,8.28983178 C3.72193714,8.08964486 -1.49470286,6.70403738 1.43868,2.02450467 C4.26066857,-2.47839252 8.79721714,2.02450467 8.79721714,2.02450467" id="Fill-17" fill="#FFFEF9"/>
          <path d="M3.72193714,8.28983178 C3.72193714,8.08964486 -1.49470286,6.70403738 1.43868,2.02450467 C4.26066857,-2.47839252 8.79721714,2.02450467 8.79721714,2.02450467" id="Stroke-19" stroke="#738CB5" stroke-width="0.5"/>
        </g>
        <path d="M67.0024251,25.1558411 C75.1218309,29.7241589 78.8694994,28.1193925 78.8694994,28.1193925 C78.8694994,28.1193925 84.3851451,27.3474299 84.0138309,23.2370561 C83.6379566,19.0815421 87.9803794,17.5448131 91.6309851,17.2818224 C94.8777051,17.0469626 96.8730309,17.7764019 98.8455566,18.9755607 C99.9230194,19.6304206 102.169797,21.0107944 102.186082,22.6070561 C102.204322,24.3387383 101.709237,24.5533178 103.487637,26.0978972 C105.734414,28.0493925 105.989774,28.2436916 105.989774,28.2436916 C105.989774,28.2436916 105.378734,29.6207944 104.495397,30.9769626 C104.251111,31.3518224 103.154757,32.8924766 99.9536366,32.8421028 C97.4000366,32.8015421 96.7844366,32.9657477 94.9317737,33.2967757 C93.4093851,33.568271 91.3482651,32.4397664 91.3482651,32.4397664 C91.3482651,32.4397664 90.8994309,49.7336916 78.0741051,51.8978037 C63.7895794,54.3078972 61.0561851,41.0046262 50.3466994,38.2909813 C46.7260594,37.373785 34.4121051,41.7157477 29.9771794,36.556028 C23.0290423,28.4720093 41.9015794,19.4819159 47.4354651,18.7858411 C51.6918994,18.2500467 53.9308594,17.8006075 67.0024251,25.1558411" id="Fill-21" fill="#FFFEF9"/>
        <path d="M91.3524343,32.6383178 L90.5414057,31.7760748 C81.6168343,66.7021495 55.0444114,33.2179439 47.6259429,36.8971963 C47.7874971,37.0528972 47.3536457,38.2376636 47.3536457,38.2376636 C47.3536457,38.2376636 51.69216,38.5660748 54.3408686,40.1034579 C62.0316343,44.567757 63.58008,51.6148598 75.00288,52.2690654 C91.1439771,51.6148598 91.3524343,32.6383178 91.3524343,32.6383178" id="Fill-23" fill="#D9E2F3"/>
        <path d="M89.0339349,28.2671776 C89.0560834,29.2170841 89.5759234,31.2981121 91.3484606,32.4397009 C91.8702549,32.7759626 92.5014891,33.0304486 93.2604034,33.1508224 C96.2413406,33.6238131 97.3995806,32.8014766 99.953832,32.8420374 C103.154952,32.8924112 104.251306,31.351757 104.494941,30.9775514 C105.378929,29.620729 105.989969,28.2436262 105.989969,28.2436262 C105.989969,28.2436262 105.733958,28.0493271 103.487832,26.098486 C101.709432,24.5532523 102.203866,24.3386729 102.186278,22.6069907 C102.169992,21.010729 99.9232149,19.6303551 98.845752,18.9754953 C96.8732263,17.7763364 94.8772491,17.0475514 91.6305291,17.281757 C87.9805749,17.5447477 83.578872,19.0873645 84.0133749,23.2376449 C84.5586206,28.4451215 76.4053406,28.3496075 76.4053406,28.3496075 C76.4053406,28.3496075 71.763912,28.0225047 63.2953406,23.1977383 C54.8267691,18.372972 50.5924834,17.8005421 44.7700149,19.3542804 C38.9481977,20.9080187 26.0824834,27.899514 28.8914434,34.8098879 C31.7010549,41.7196075 44.1596263,38.3668037 48.5971577,38.1214766 C53.0353406,37.8761495 58.7353406,43.3551215 62.2771577,46.8714766 C65.8196263,50.3878318 79.0879234,57.8706355 87.9271577,44.7865234 C87.9271577,44.7865234 91.5464949,39.6346542 91.3484606,32.4397009" id="Stroke-25" stroke="#738CB5" stroke-width="0.5"/>
        <path d="M94.0726697,22.1192804 C94.0726697,22.1192804 96.7207269,21.074514 97.9682126,22.4411495 C99.2150469,23.807785 98.981184,25.3739533 98.981184,25.3739533 C98.981184,25.3739533 97.4288297,26.3362897 95.9956869,25.2097477 C94.5612411,24.0825514 94.0726697,22.1192804 94.0726697,22.1192804" id="Fill-27" fill="#D9E2F3"/>
        <path d="M104.821827,30.2163832 C104.821827,30.2163832 104.756033,29.4117103 104.315016,28.7169439 C103.873999,28.0221776 103.720262,27.6551682 104.231633,27.3843271 C104.643336,27.1664766 105.483679,27.9731121 105.483679,27.9731121 L105.921439,28.3918037 L104.821827,30.2163832 Z" id="Fill-29" fill="#0F233A"/>
        <path d="M97.725816,22.2183271 C97.725816,22.2183271 96.5350046,21.8912243 95.929176,23.554215 C95.3422389,25.1615981 96.531096,25.5377664 96.531096,25.5377664 C96.531096,25.5377664 97.5870617,26.0833738 98.2476103,24.6192617 C98.8508331,23.2820654 98.3251303,22.5611308 97.725816,22.2183271" id="Fill-31" fill="#0F233A"/>
        <path d="M94.0726697,22.1192804 C94.0726697,22.1192804 96.7207269,21.074514 97.9682126,22.4411495 C99.2150469,23.807785 98.981184,25.3739533 98.981184,25.3739533 C98.981184,25.3739533 97.4288297,26.3362897 95.9956869,25.2097477 C94.5612411,24.0825514 94.0726697,22.1192804 94.0726697,22.1192804 Z" id="Stroke-33" stroke="#0F233A" stroke-width="0.5"/>
        <path d="M89.5409417,22.1805794 C89.5409417,22.1805794 81.2221989,22.3166542 70.0163246,18.0656262 C58.8104503,13.8145981 55.0543131,7.03048598 54.1996389,5.24450467 C54.1996389,5.24450467 73.4526103,3.18048598 89.6015246,19.6900187" id="Fill-35" fill="#FFFEF9"/>
        <path d="M87.4346126,20.5591308 C87.4346126,20.5591308 65.8228183,18.663243 57.3477326,7.10604673 C57.3477326,7.10604673 79.0344411,8.92146729 87.4346126,20.5591308" id="Fill-37" fill="#D9E2F3"/>
        <path d="M89.5409417,22.1805794 C89.5409417,22.1805794 81.2221989,22.3166542 70.0163246,18.0656262 C58.8104503,13.8145981 55.0543131,7.03048598 54.1996389,5.24450467 C54.1996389,5.24450467 73.4526103,3.18048598 89.6015246,19.6900187" id="Stroke-39" stroke="#738CB5" stroke-width="0.5"/>
        <path d="M83.6214754,36.4945327 C85.1249726,39.305 85.9060354,47.7167757 85.9060354,47.7167757 L101.769624,63.4726636 C101.769624,63.4726636 104.960321,64.6077103 106.805167,64.5874299 C107.893053,64.5763084 107.592093,69.2375234 107.592093,69.2375234 L100.430938,67.8813551 L80.5942869,52.6684579 C80.5942869,52.6684579 80.6828811,49.8553738 78.9233726,47.6938785" id="Fill-41" fill="#FFFEF9"/>
        <path d="M83.6214754,36.4945327 C85.1249726,39.305 85.9060354,47.7167757 85.9060354,47.7167757 L101.769624,63.4726636 C101.769624,63.4726636 104.499761,64.6064019 106.34135,64.4925701 C108.182938,64.3780841 107.592093,69.2375234 107.592093,69.2375234 L100.430938,67.8813551 L80.5942869,52.6684579 C80.5942869,52.6684579 80.6828811,49.8553738 78.9233726,47.6938785" id="Stroke-43" stroke="#738CB5" stroke-width="0.5"/>
        <path d="M104.599821,66.5183832 C104.590701,66.5124953 104.725546,66.6538037 104.861695,66.8762336 C104.938563,66.982215 105.001752,67.1228692 105.080575,67.2628692 C105.141809,67.4139907 105.218026,67.5683832 105.263626,67.7338972 C105.301409,67.9026822 105.365249,68.061 105.368506,68.223243 C105.376323,68.3835234 105.413455,68.5267944 105.391306,68.6543645 C105.366552,68.9016542 105.350266,69.0671682 105.350266,69.0671682 C105.350266,69.0671682 105.335935,68.9036168 105.315089,68.6582897 C105.314438,68.5366075 105.251249,68.4018411 105.218026,68.2572617 C105.188712,68.1107196 105.098163,67.972028 105.037581,67.8274486 C104.969181,67.6861402 104.871466,67.5585701 104.794598,67.4355794 C104.698186,67.3224019 104.621969,67.2105327 104.536632,67.1307196 C104.378335,66.9567009 104.264335,66.8795047 104.259775,66.871 L104.599821,66.5183832 Z" id="Fill-45" fill="#738CB5"/>
        <path d="M106.304739,65.873729 C106.304739,65.873729 106.331448,65.9241028 106.376397,66.0124206 C106.425254,66.1053178 106.486488,66.2387757 106.547071,66.3977477 C106.679311,66.713729 106.799174,67.155972 106.857151,67.6041028 C106.861059,67.8311121 106.907311,68.0535421 106.872134,68.2641963 C106.840865,68.4735421 106.846728,68.6704579 106.789402,68.8294299 C106.686477,69.1434486 106.618077,69.3527944 106.618077,69.3527944 C106.618077,69.3527944 106.656511,69.138215 106.714488,68.8156916 C106.748362,68.658028 106.714488,68.4643832 106.717745,68.2655047 C106.724259,68.0653178 106.648042,67.855972 106.616774,67.6485888 C106.504077,67.2377477 106.336659,66.8478411 106.175105,66.5763458 C106.098888,66.4363458 106.029185,66.3303645 105.979025,66.2590561 C105.932774,66.1870935 105.894991,66.1406449 105.894991,66.1406449 L106.304739,65.873729 Z" id="Fill-47" fill="#738CB5"/>
        <g id="Group-52" transform="translate(0.000000, 31.583084)">
          <path d="M48.4752103,2.32851402 C48.4752103,2.32851402 46.1541703,16.6523458 32.3927417,15.0024393 C20.6266389,13.9943084 18.509496,6.0483271 18.509496,6.0483271 L5.84702743,13.5716916 C5.84702743,13.5716916 1.08378171,16.6379533 0.269496,11.240757 L20.8709246,2.0818785 C20.8709246,2.0818785 22.9066389,5.8847757 26.0413131,4.49458879 C28.0959189,3.58328037 28.5571303,0.439168224 28.5571303,0.439168224" id="Fill-49" fill="#FFFEF9"/>
          <path d="M48.4752103,2.32851402 C48.4752103,2.32851402 46.1541703,16.6523458 32.3927417,15.0024393 C20.6266389,13.9943084 18.509496,6.0483271 18.509496,6.0483271 L5.84702743,13.5716916 C5.84702743,13.5716916 1.08378171,16.6379533 0.269496,11.240757 L20.8709246,2.0818785 C20.8709246,2.0818785 22.9066389,5.8847757 26.0413131,4.49458879 C28.0959189,3.58328037 28.5571303,0.439168224 28.5571303,0.439168224" id="Stroke-51" stroke="#738CB5" stroke-width="0.5"/>
        </g>
        <path d="M1.49600571,42.3843458 C1.49600571,42.3843458 1.53704571,42.5609813 1.64909143,42.8318224 C1.75657714,43.0967757 1.93962857,43.4408879 2.20866857,43.7064953 C2.34221143,43.8386449 2.49985714,43.9459346 2.66662286,44.0035047 C2.83208571,44.0636916 3.00471429,44.0807009 3.14933143,44.0630374 C3.44442857,44.0414486 3.62617714,43.9276168 3.62943429,43.9433178 C3.62943429,43.9433178 3.58513714,43.966215 3.50631429,44.0061215 C3.42814286,44.0499533 3.31414286,44.1055607 3.16105714,44.1389252 C3.01318286,44.1801402 2.82296571,44.1925701 2.62623429,44.1526636 C2.4282,44.1166822 2.22821143,44.0224766 2.05362857,43.8968692 C1.70316,43.6430374 1.44454286,43.2923832 1.28233714,43.0208879 C1.11882857,42.7520093 1.03414286,42.543972 1.03414286,42.543972 L1.49600571,42.3843458 Z" id="Fill-53" fill="#738CB5"/>
      </g>
    </g>
  </g>
</svg>