<svg version="1.1" width="26" height="37" viewBox="-1 -1 26 37" xmlns="http://www.w3.org/2000/svg" xmlns:xlink="http://www.w3.org/1999/xlink">
  <!-- Exported by Scratch - http://scratch.mit.edu/ -->
  <path id="Fill-1" fill="#FFF4E3" stroke="none" stroke-width="1" d="M 24 22.791 C 24 20.735 23.614 18.165 22.927 15.503 L 20.164 20.789 L 16.426 14.885 L 12.984 21.190 L 8.754 14.985 L 4.721 21.190 L 1.074 15.496 C 0.386 18.160 0 20.733 0 22.791 C 0 29.534 5.372 35 12 35 C 18.628 35 24 29.534 24 22.791 "/>
  <path id="Fill-3" fill="#FFF4E3" stroke="none" stroke-width="1" d="M 12.196 0 C 7.299 0 3.084 8.126 1.180 15.545 L 4.857 21.322 L 8.923 15.027 L 13.188 21.322 L 16.658 14.925 L 20.427 20.916 L 23.213 15.552 C 21.311 8.131 17.095 0 12.196 0 "/>
</svg>